<svg xmlns="http://www.w3.org/2000/svg" xmlns:xlink="http://www.w3.org/1999/xlink" viewBox="0 0 192 192" width="192" height="192" preserveAspectRatio="xMidYMid meet" style="width: 100%; height: 100%; transform: translate3d(0px, 0px, 0px); content-visibility: visible;"><defs><clipPath id="__lottie_element_6023"><rect width="192" height="192" x="0" y="0"/></clipPath><clipPath id="__lottie_element_6025"><path d="M0,0 L192,0 L192,192 L0,192z"/></clipPath><g id="__lottie_element_6041"><g transform="matrix(1,0,0,1,96.07599639892578,163.47900390625)" opacity="1" style="display: block;"><path fill="rgb(255,0,0)" fill-opacity="1" d=" M0,19.055999755859375 C10.52400016784668,19.055999755859375 19.055999755859375,10.52400016784668 19.055999755859375,0 C19.055999755859375,-10.52400016784668 10.52400016784668,-19.055999755859375 0,-19.055999755859375 C-10.52400016784668,-19.055999755859375 -19.055999755859375,-10.52400016784668 -19.055999755859375,0 C-19.055999755859375,10.52400016784668 -10.52400016784668,19.055999755859375 0,19.055999755859375z"/><g opacity="1" transform="matrix(1,0,0,1,0,0)"><path stroke-linecap="round" stroke-linejoin="round" fill-opacity="0" class="primary" stroke="rgb(42,48,107)" stroke-opacity="1" stroke-width="3.003" d=" M0,19.055999755859375 C10.52400016784668,19.055999755859375 19.055999755859375,10.52400016784668 19.055999755859375,0 C19.055999755859375,-10.52400016784668 10.52400016784668,-19.055999755859375 0,-19.055999755859375 C-10.52400016784668,-19.055999755859375 -19.055999755859375,-10.52400016784668 -19.055999755859375,0 C-19.055999755859375,10.52400016784668 -10.52400016784668,19.055999755859375 0,19.055999755859375z"/></g></g></g><g id="__lottie_element_6047"><g transform="matrix(1,0,0,1,96.07599639892578,163.47900390625)" opacity="1" style="display: block;"><path fill="rgb(255,0,0)" fill-opacity="1" d=" M0,19.055999755859375 C10.52400016784668,19.055999755859375 19.055999755859375,10.52400016784668 19.055999755859375,0 C19.055999755859375,-10.52400016784668 10.52400016784668,-19.055999755859375 0,-19.055999755859375 C-10.52400016784668,-19.055999755859375 -19.055999755859375,-10.52400016784668 -19.055999755859375,0 C-19.055999755859375,10.52400016784668 -10.52400016784668,19.055999755859375 0,19.055999755859375z"/><g opacity="1" transform="matrix(1,0,0,1,0,0)"><path stroke-linecap="round" stroke-linejoin="round" fill-opacity="0" class="primary" stroke="rgb(42,48,107)" stroke-opacity="1" stroke-width="3.003" d=" M0,19.055999755859375 C10.52400016784668,19.055999755859375 19.055999755859375,10.52400016784668 19.055999755859375,0 C19.055999755859375,-10.52400016784668 10.52400016784668,-19.055999755859375 0,-19.055999755859375 C-10.52400016784668,-19.055999755859375 -19.055999755859375,-10.52400016784668 -19.055999755859375,0 C-19.055999755859375,10.52400016784668 -10.52400016784668,19.055999755859375 0,19.055999755859375z"/></g></g></g><filter id="__lottie_element_6074" filterUnits="objectBoundingBox" x="0%" y="0%" width="100%" height="100%"><feComponentTransfer in="SourceGraphic"><feFuncA type="table" tableValues="1.0 0.0"/></feComponentTransfer></filter><mask id="__lottie_element_6047_2" mask-type="alpha" maskUnits="userSpaceOnUse"><g filter="url(#__lottie_element_6074)"><rect width="192" height="192" x="0" y="0" fill="#ffffff" opacity="0"/><use xmlns:ns1="http://www.w3.org/1999/xlink" ns1:href="#__lottie_element_6047"/></g></mask><filter id="__lottie_element_6075" filterUnits="objectBoundingBox" x="0%" y="0%" width="100%" height="100%"><feComponentTransfer in="SourceGraphic"><feFuncA type="table" tableValues="1.0 0.0"/></feComponentTransfer></filter><mask id="__lottie_element_6041_2" mask-type="alpha" maskUnits="userSpaceOnUse"><g filter="url(#__lottie_element_6075)"><rect width="192" height="192" x="0" y="0" fill="#ffffff" opacity="0"/><use xmlns:ns2="http://www.w3.org/1999/xlink" ns2:href="#__lottie_element_6041"/></g></mask></defs><g clip-path="url(#__lottie_element_6023)"><g clip-path="url(#__lottie_element_6025)" transform="matrix(1,0,0,1,0,0)" opacity="1" style="display: block;"><g transform="matrix(1,0,0,1,61.32899856567383,80.59600067138672)" opacity="1" style="display: block;"><g opacity="1" transform="matrix(1,0,0,1,0,0)"><path class="secondary" fill="rgb(230,142,110)" fill-opacity="1" d=" M0,19.055999755859375 C10.52400016784668,19.055999755859375 19.055999755859375,10.52400016784668 19.055999755859375,0 C19.055999755859375,-10.52400016784668 10.52400016784668,-19.055999755859375 0,-19.055999755859375 C-10.52400016784668,-19.055999755859375 -19.055999755859375,-10.52400016784668 -19.055999755859375,0 C-19.055999755859375,10.52400016784668 -10.52400016784668,19.055999755859375 0,19.055999755859375z"/><path stroke-linecap="round" stroke-linejoin="round" fill-opacity="0" class="secondary" stroke="rgb(230,142,110)" stroke-opacity="1" stroke-width="1.004" d=" M0,19.055999755859375 C10.52400016784668,19.055999755859375 19.055999755859375,10.52400016784668 19.055999755859375,0 C19.055999755859375,-10.52400016784668 10.52400016784668,-19.055999755859375 0,-19.055999755859375 C-10.52400016784668,-19.055999755859375 -19.055999755859375,-10.52400016784668 -19.055999755859375,0 C-19.055999755859375,10.52400016784668 -10.52400016784668,19.055999755859375 0,19.055999755859375z"/></g></g><g transform="matrix(1,0,0,1,144.5279998779297,71.7699966430664)" opacity="1" style="display: block;"><g opacity="1" transform="matrix(1,0,0,1,0,0)"><path class="secondary" fill="rgb(230,142,110)" fill-opacity="1" d=" M16.924999237060547,-16.159000396728516 C16.924999237060547,-16.159000396728516 -16.924999237060547,-16.159000396728516 -16.924999237060547,-16.159000396728516 C-16.924999237060547,-16.159000396728516 -16.924999237060547,16.159000396728516 -16.924999237060547,16.159000396728516 C-16.924999237060547,16.159000396728516 16.924999237060547,16.159000396728516 16.924999237060547,16.159000396728516 C16.924999237060547,16.159000396728516 16.924999237060547,-16.159000396728516 16.924999237060547,-16.159000396728516z"/><path stroke-linecap="round" stroke-linejoin="round" fill-opacity="0" class="secondary" stroke="rgb(230,142,110)" stroke-opacity="1" stroke-width="1.002" d=" M16.924999237060547,-16.159000396728516 C16.924999237060547,-16.159000396728516 -16.924999237060547,-16.159000396728516 -16.924999237060547,-16.159000396728516 C-16.924999237060547,-16.159000396728516 -16.924999237060547,16.159000396728516 -16.924999237060547,16.159000396728516 C-16.924999237060547,16.159000396728516 16.924999237060547,16.159000396728516 16.924999237060547,16.159000396728516 C16.924999237060547,16.159000396728516 16.924999237060547,-16.159000396728516 16.924999237060547,-16.159000396728516z"/></g></g><g transform="matrix(1,0,0,1,96.07599639892578,163.47900390625)" opacity="1" style="display: block;"><g opacity="1" transform="matrix(1,0,0,1,0,0)"><path stroke-linecap="round" stroke-linejoin="round" fill-opacity="0" class="primary" stroke="rgb(42,48,107)" stroke-opacity="1" stroke-width="3.003" d=" M0,19.055999755859375 C10.52400016784668,19.055999755859375 19.055999755859375,10.52400016784668 19.055999755859375,0 C19.055999755859375,-10.52400016784668 10.52400016784668,-19.055999755859375 0,-19.055999755859375 C-10.52400016784668,-19.055999755859375 -19.055999755859375,-10.52400016784668 -19.055999755859375,0 C-19.055999755859375,10.52400016784668 -10.52400016784668,19.055999755859375 0,19.055999755859375z"/></g></g><g mask="url(#__lottie_element_6041_2)" style="display: block;"><g transform="matrix(1,0,0,1,96.27999877929688,29.55299949645996)" opacity="1"><g opacity="1" transform="matrix(1,0,0,1,0,0)"><path stroke-linecap="round" stroke-linejoin="round" fill-opacity="0" class="primary" stroke="rgb(42,48,107)" stroke-opacity="1" stroke-width="2.999" d=" M-20.924999237060547,19.054000854492188 C-20.966999053955078,18.969999313354492 -0.8029999732971191,-18.233999252319336 -0.11599999666213989,-19.382999420166016 C0.6010000109672546,-18.208999633789062 21.143999099731445,19.117000579833984 20.92300033569336,19.33799934387207 C20.759000778198242,19.50200080871582 -20.865999221801758,19.172000885009766 -20.924999237060547,19.054000854492188z"/></g></g></g><g mask="url(#__lottie_element_6047_2)" style="display: block;"><g transform="matrix(1,0,0,1,139.49400329589844,75.86499786376953)" opacity="1"><g opacity="1" transform="matrix(1,0,0,1,0,0)"><path stroke-linecap="round" stroke-linejoin="round" fill-opacity="0" class="primary" stroke="rgb(42,48,107)" stroke-opacity="1" stroke-width="2.998" d=" M16.924999237060547,-16.159000396728516 C16.924999237060547,-16.159000396728516 -16.924999237060547,-16.159000396728516 -16.924999237060547,-16.159000396728516 C-16.924999237060547,-16.159000396728516 -16.924999237060547,16.159000396728516 -16.924999237060547,16.159000396728516 C-16.924999237060547,16.159000396728516 16.924999237060547,16.159000396728516 16.924999237060547,16.159000396728516 C16.924999237060547,16.159000396728516 16.924999237060547,-16.159000396728516 16.924999237060547,-16.159000396728516z"/></g></g></g><g transform="matrix(1,0,0,1,54.51599884033203,81.8239974975586)" opacity="1" style="display: block;"><g opacity="1" transform="matrix(1,0,0,1,0,0)"><path stroke-linecap="round" stroke-linejoin="round" fill-opacity="0" class="primary" stroke="rgb(42,48,107)" stroke-opacity="1" stroke-width="3.003" d=" M0,19.055999755859375 C10.52400016784668,19.055999755859375 19.055999755859375,10.52400016784668 19.055999755859375,0 C19.055999755859375,-10.52400016784668 10.52400016784668,-19.055999755859375 0,-19.055999755859375 C-10.52400016784668,-19.055999755859375 -19.055999755859375,-10.52400016784668 -19.055999755859375,0 C-19.055999755859375,10.52400016784668 -10.52400016784668,19.055999755859375 0,19.055999755859375z"/></g></g><g transform="matrix(1,0,0,1,105.30500030517578,95.2760009765625)" opacity="1" style="display: block;"><g opacity="1" transform="matrix(1,0,0,1,0,0)"/><g opacity="1" transform="matrix(0,-1,1,0,0,0)"><path stroke-linecap="round" stroke-linejoin="round" fill-opacity="0" class="primary" stroke="rgb(42,48,107)" stroke-opacity="1" stroke-width="3" d=" M-0.006000000052154064,34.237998962402344 C-13.817000389099121,33.66899871826172 -22.450000762939453,24.301000595092773 -22.45199966430664,4.038000106811523 C-22.45199966430664,2.046999931335449 -22.417999267578125,-2.7890000343322754 -22.381999969482422,-8.46399974822998"/></g></g><g transform="matrix(1,0,0,-1,96.38099670410156,105.80699920654297)" opacity="1" style="display: block;"><g opacity="1" transform="matrix(0,-1,1,0,0,0)"><path stroke-linecap="round" stroke-linejoin="round" fill-opacity="0" class="primary" stroke="rgb(42,48,107)" stroke-opacity="1" stroke-width="3.002" d=" M38.28900146484375,0.032999999821186066 C24.958999633789062,0.032999999821186066 -38.57699966430664,-0.11999999731779099 -56.16400146484375,-0.03500000014901161"/></g></g><g transform="matrix(-1,0,0,1,75.47200012207031,117.18699645996094)" opacity="1" style="display: block;"><g opacity="1" transform="matrix(0,-1,1,0,0,0)"><path stroke-linecap="round" stroke-linejoin="round" fill-opacity="0" class="primary" stroke="rgb(42,48,107)" stroke-opacity="1" stroke-width="3" d=" M15.404000282287598,21.111000061035156 C12.263999938964844,21.110000610351562 9.892999649047852,21.114999771118164 8.923999786376953,21.1299991607666 C-5.98199987411499,21.35300064086914 -15.402000427246094,12.074999809265137 -15.404000282287598,-9.093999862670898 C-15.404000282287598,-11.031000137329102 -15.373000144958496,-15.65999984741211 -15.338000297546387,-21.134000778198242"/></g></g><g transform="matrix(1,0,0,1,89.27499389648438,166.2880096435547)" opacity="1" style="display: block;"><g opacity="1" transform="matrix(1,0,0,1,0,0)"><path stroke-linecap="round" stroke-linejoin="round" fill-opacity="0" class="primary" stroke="rgb(42,48,107)" stroke-opacity="1" stroke-width="2" d=" M5.23799991607666,8.791999816894531 C-3.0910000801086426,7.603000164031982 -7.454999923706055,-2.194000005722046 -3.7820000648498535,-8.670999526977539"/></g></g><g transform="matrix(0.9925461411476135,-0.12186934053897858,0.12186934053897858,0.9925461411476135,140.281005859375,110.36700439453125)" opacity="1" style="display: block;"><g opacity="1" transform="matrix(0,-1,1,0,0,0)"><path stroke-linecap="round" stroke-linejoin="round" fill-opacity="0" class="primary" stroke="rgb(42,48,107)" stroke-opacity="1" stroke-width="2" d=" M8.539999961853027,8.022000312805176 C0.2199999988079071,7.374000072479248 -8.824999809265137,2.947999954223633 -11.92199993133545,-10.71500015258789"/></g></g><g transform="matrix(1,0,0,1,117.6199951171875,27.104999542236328)" opacity="1" style="display: block;"><g opacity="1" transform="matrix(1,0,0,1,0,0)"><path stroke-linecap="round" stroke-linejoin="round" fill-opacity="0" class="primary" stroke="rgb(42,48,107)" stroke-opacity="1" stroke-width="2" d=" M7.659999847412109,12.949999809265137 C5.077000141143799,8.677000045776367 -4.5320000648498535,-7.210000038146973 -7.659999847412109,-12.949999809265137"/></g></g><g transform="matrix(1,0,0,1,35.211997985839844,66.47200012207031)" opacity="1" style="display: block;"><g opacity="1" transform="matrix(1,0,0,1,0,0)"><path stroke-linecap="round" stroke-linejoin="round" fill-opacity="0" class="primary" stroke="rgb(42,48,107)" stroke-opacity="1" stroke-width="2" d=" M-9.420999526977539,11.541000366210938 C-9.664999961853027,-1.159999966621399 1.4420000314712524,-11.342000007629395 9.423999786376953,-11.869999885559082"/></g></g></g></g></svg>