<svg xmlns="http://www.w3.org/2000/svg" xmlns:xlink="http://www.w3.org/1999/xlink" viewBox="0 0 192 192" width="192" height="192" preserveAspectRatio="xMidYMid meet" style="width: 100%; height: 100%; transform: translate3d(0px, 0px, 0px); content-visibility: visible;"><defs><clipPath id="__lottie_element_1867"><rect width="192" height="192" x="0" y="0"/></clipPath><clipPath id="__lottie_element_1869"><path d="M0,0 L192,0 L192,192 L0,192z"/></clipPath></defs><g clip-path="url(#__lottie_element_1867)"><g clip-path="url(#__lottie_element_1869)" transform="matrix(1,0,0,1,0,0)" opacity="1" style="display: block;"><g transform="matrix(-1,0,0,-1,39.16400146484375,150.62600708007812)" opacity="1" style="display: block;"><g opacity="1" transform="matrix(1,0,0,1,0,0)"><path stroke-linecap="round" stroke-linejoin="round" fill-opacity="0" class="primary" stroke="rgb(42,48,107)" stroke-opacity="1" stroke-width="3.002" d=" M-25.56399917602539,17.479999542236328 C-25.770000457763672,17.274999618530273 -25.735000610351562,-17.420000076293945 -25.73200035095215,-17.836999893188477 C-24.541000366210938,-17.836999893188477 25.23200035095215,-17.927000045776367 25.586000442504883,-17.573999404907227 C25.948999404907227,-17.209999084472656 25.32900047302246,14.031000137329102 25.736000061035156,17.535999298095703 C25.798999786376953,18.076000213623047 -25.229999542236328,17.815000534057617 -25.56399917602539,17.479999542236328z"/></g></g><g transform="matrix(-1,0,0,-1,39.72999954223633,94.63700103759766)" opacity="1" style="display: block;"><g opacity="1" transform="matrix(1,0,0,1,0,0)"><path stroke-linecap="round" stroke-linejoin="round" fill-opacity="0" class="primary" stroke="rgb(42,48,107)" stroke-opacity="1" stroke-width="3.002" d=" M-25.56399917602539,17.479999542236328 C-25.770000457763672,17.274999618530273 -25.735000610351562,-17.420000076293945 -25.73200035095215,-17.836999893188477 C-24.541000366210938,-17.836999893188477 25.23200035095215,-17.927000045776367 25.586000442504883,-17.573999404907227 C25.948999404907227,-17.209999084472656 25.32900047302246,14.031000137329102 25.736000061035156,17.535999298095703 C25.798999786376953,18.076000213623047 -25.229999542236328,17.815000534057617 -25.56399917602539,17.479999542236328z"/></g></g><g transform="matrix(-1,0,0,-1,91.29199981689453,37.0369987487793)" opacity="1" style="display: block;"><g opacity="1" transform="matrix(1,0,0,1,0,0)"><path class="secondary" fill="rgb(230,142,110)" fill-opacity="1" d=" M-25.56399917602539,17.479999542236328 C-25.770000457763672,17.274999618530273 -25.735000610351562,-17.420000076293945 -25.73200035095215,-17.836999893188477 C-24.541000366210938,-17.836999893188477 25.23200035095215,-17.927000045776367 25.586000442504883,-17.573999404907227 C25.948999404907227,-17.209999084472656 25.32900047302246,14.031000137329102 25.736000061035156,17.535999298095703 C25.798999786376953,18.076000213623047 -25.229999542236328,17.815000534057617 -25.56399917602539,17.479999542236328z"/><path stroke-linecap="round" stroke-linejoin="round" fill-opacity="0" class="secondary" stroke="rgb(230,142,110)" stroke-opacity="1" stroke-width="1.004" d=" M-25.56399917602539,17.479999542236328 C-25.770000457763672,17.274999618530273 -25.735000610351562,-17.420000076293945 -25.73200035095215,-17.836999893188477 C-24.541000366210938,-17.836999893188477 25.23200035095215,-17.927000045776367 25.586000442504883,-17.573999404907227 C25.948999404907227,-17.209999084472656 25.32900047302246,14.031000137329102 25.736000061035156,17.535999298095703 C25.798999786376953,18.076000213623047 -25.229999542236328,17.815000534057617 -25.56399917602539,17.479999542236328z"/></g></g><g transform="matrix(-1,0,0,-1,95.8290023803711,32.80099868774414)" opacity="1" style="display: block;"><g opacity="1" transform="matrix(1,0,0,1,0,0)"><path stroke-linecap="round" stroke-linejoin="round" fill-opacity="0" class="primary" stroke="rgb(42,48,107)" stroke-opacity="1" stroke-width="3.002" d=" M-25.56399917602539,17.479999542236328 C-25.770000457763672,17.274999618530273 -25.735000610351562,-17.420000076293945 -25.73200035095215,-17.836999893188477 C-24.541000366210938,-17.836999893188477 25.23200035095215,-17.927000045776367 25.586000442504883,-17.573999404907227 C25.948999404907227,-17.209999084472656 25.32900047302246,14.031000137329102 25.736000061035156,17.535999298095703 C25.798999786376953,18.076000213623047 -25.229999542236328,17.815000534057617 -25.56399917602539,17.479999542236328z"/></g></g><g transform="matrix(-1,0,0,-1,152.67999267578125,94.44499969482422)" opacity="1" style="display: block;"><g opacity="1" transform="matrix(1,0,0,1,0,0)"><path stroke-linecap="round" stroke-linejoin="round" fill-opacity="0" class="primary" stroke="rgb(42,48,107)" stroke-opacity="1" stroke-width="3.002" d=" M-25.56399917602539,17.479999542236328 C-25.770000457763672,17.274999618530273 -25.735000610351562,-17.420000076293945 -25.73200035095215,-17.836999893188477 C-24.541000366210938,-17.836999893188477 25.23200035095215,-17.927000045776367 25.586000442504883,-17.573999404907227 C25.948999404907227,-17.209999084472656 25.32900047302246,14.031000137329102 25.736000061035156,17.535999298095703 C25.798999786376953,18.076000213623047 -25.229999542236328,17.815000534057617 -25.56399917602539,17.479999542236328z"/></g></g><g transform="matrix(-1,0,0,-1,153.12100219726562,149.71499633789062)" opacity="1" style="display: block;"><g opacity="1" transform="matrix(1,0,0,1,0,0)"><path stroke-linecap="round" stroke-linejoin="round" fill-opacity="0" class="primary" stroke="rgb(42,48,107)" stroke-opacity="1" stroke-width="3.002" d=" M-25.56399917602539,17.479999542236328 C-25.770000457763672,17.274999618530273 -25.735000610351562,-17.420000076293945 -25.73200035095215,-17.836999893188477 C-24.541000366210938,-17.836999893188477 25.23200035095215,-17.927000045776367 25.586000442504883,-17.573999404907227 C25.948999404907227,-17.209999084472656 25.32900047302246,14.031000137329102 25.736000061035156,17.535999298095703 C25.798999786376953,18.076000213623047 -25.229999542236328,17.815000534057617 -25.56399917602539,17.479999542236328z"/></g></g><g transform="matrix(1,0,0,-1,54.38600158691406,82.697998046875)" opacity="1" style="display: block;"><g opacity="1" transform="matrix(1,0,0,1,0,0)"><path stroke-linecap="round" stroke-linejoin="round" fill-opacity="0" class="primary" stroke="rgb(42,48,107)" stroke-opacity="1" stroke-width="3" d=" M-15.119999885559082,-30.847999572753906 C-15.164999961853027,-36.99599838256836 -15.210000038146973,-43.09199905395508 -15.251999855041504,-48.78099822998047"/></g></g><g transform="matrix(1,0,0,-1,54.38600158691406,82.697998046875)" opacity="1" style="display: block;"><g opacity="1" transform="matrix(1,0,0,1,0,0)"><path stroke-linecap="round" stroke-linejoin="round" fill-opacity="0" class="primary" stroke="rgb(42,48,107)" stroke-opacity="1" stroke-width="3" d=" M13.86400032043457,50.268001556396484 C8.055999755859375,50.26100158691406 3.259999990463257,50.237998962402344 1.9229999780654907,50.196998596191406 C-13.02299976348877,49.73500061035156 -14.746999740600586,43.029998779296875 -14.77400016784668,21.843000411987305 C-14.777000427246094,19.415000915527344 -14.809000015258789,13.850000381469727 -14.855999946594238,6.51200008392334"/></g></g><g transform="matrix(-1,0,0,-1,137.55799865722656,81.48999786376953)" opacity="1" style="display: block;"><g opacity="1" transform="matrix(1,0,0,1,0,0)"><path stroke-linecap="round" stroke-linejoin="round" fill-opacity="0" class="primary" stroke="rgb(42,48,107)" stroke-opacity="1" stroke-width="3" d=" M14.78600025177002,50.125999450683594 C9.998000144958496,50.159000396728516 3.822999954223633,50.132999420166016 1.781999945640564,50.0359992980957 C-11.449000358581543,49.40700149536133 -14.913999557495117,41.54100036621094 -14.914999961853027,21.68199920654297 C-14.914999961853027,19.566999435424805 -14.920999526977539,13.739999771118164 -14.930999755859375,5.84499979019165"/></g></g><g transform="matrix(-1,0,0,-1,137.55799865722656,81.48999786376953)" opacity="1" style="display: block;"><g opacity="1" transform="matrix(1,0,0,1,0,0)"><path stroke-linecap="round" stroke-linejoin="round" fill-opacity="0" class="primary" stroke="rgb(42,48,107)" stroke-opacity="1" stroke-width="3" d=" M-14.98799991607666,-32.736000061035156 C-14.996999740600586,-38.48400115966797 -15.006999969482422,-44.19599914550781 -15.015999794006348,-49.60100173950195"/></g></g><g transform="matrix(0.017452405765652657,-0.9998477101325989,0.9998477101325989,0.017452405765652657,30.48400115966797,176.05101013183594)" opacity="1" style="display: block;"><g opacity="1" transform="matrix(1,0,0,1,0,0)"><path stroke-linecap="round" stroke-linejoin="round" fill-opacity="0" class="primary" stroke="rgb(42,48,107)" stroke-opacity="1" stroke-width="2.005" d=" M0.2460000067949295,17.594999313354492 C0.06300000101327896,5.23199987411499 -0.12800000607967377,-9.210000038146973 -0.12800000607967377,-17.600000381469727"/></g></g><g transform="matrix(-1,0,0,-1,58.08399963378906,94.89500427246094)" opacity="1" style="display: block;"><g opacity="1" transform="matrix(1,0,0,1,0,0)"><path stroke-linecap="round" stroke-linejoin="round" fill-opacity="0" class="primary" stroke="rgb(42,48,107)" stroke-opacity="1" stroke-width="2" d=" M0.013000000268220901,11.430000305175781 C0.013000000268220901,7.47599983215332 -0.03200000151991844,-3.635999917984009 -0.05000000074505806,-10.96500015258789"/></g></g><g transform="matrix(-1,0,0,-1,94.58200073242188,21.79399871826172)" opacity="1" style="display: block;"><g opacity="1" transform="matrix(1,0,0,1,0,0)"><path stroke-linecap="round" stroke-linejoin="round" fill-opacity="0" class="primary" stroke="rgb(42,48,107)" stroke-opacity="1" stroke-width="2.005" d=" M16.851999282836914,-0.16899999976158142 C8.057999610900879,-0.11299999803304672 -8.404999732971191,0.07500000298023224 -17.12700080871582,0.07000000029802322"/></g></g><g transform="matrix(-1,0,0,-1,150.03900146484375,37.358001708984375)" opacity="1" style="display: block;"><g opacity="1" transform="matrix(1,0,0,1,0,0)"><path stroke-linecap="round" stroke-linejoin="round" fill-opacity="0" class="primary" stroke="rgb(42,48,107)" stroke-opacity="1" stroke-width="1.998" d=" M11.008000373840332,14.178999900817871 C-2.742000102996826,14.21500015258789 -11.40999984741211,5.48799991607666 -11.411999702453613,-14.178999900817871"/></g></g><g transform="matrix(-1,0,0,-1,119.98400115966797,149.55099487304688)" opacity="1" style="display: block;"><g opacity="1" transform="matrix(1,0,0,1,0,0)"><path stroke-linecap="round" stroke-linejoin="round" fill-opacity="0" class="primary" stroke="rgb(42,48,107)" stroke-opacity="1" stroke-width="2.005" d=" M-0.024000000208616257,17.131999969482422 C-0.06800000369548798,7.173999786376953 -0.12800000607967377,-7.314000129699707 -0.12800000607967377,-17.600000381469727"/></g></g></g></g></svg>