<svg xmlns="http://www.w3.org/2000/svg" xmlns:xlink="http://www.w3.org/1999/xlink" viewBox="0 0 192 192" width="192" height="192" preserveAspectRatio="xMidYMid meet" style="width: 100%; height: 100%; transform: translate3d(0px, 0px, 0px); content-visibility: visible;"><defs><clipPath id="__lottie_element_335"><rect width="192" height="192" x="0" y="0"/></clipPath><clipPath id="__lottie_element_337"><path d="M0,0 L192,0 L192,192 L0,192z"/></clipPath><clipPath id="__lottie_element_346"><path d="M0,0 L192,0 L192,192 L0,192z"/></clipPath><g id="__lottie_element_349"><g clip-path="url(#__lottie_element_350)" transform="matrix(1,0,0,1,0,0)" opacity="1" style="display: block;"><g transform="matrix(1,0,0,1,162.7220458984375,29.13385009765625)" opacity="1" style="display: block;"><path fill="rgb(255,0,0)" fill-opacity="1" d=" M2.1610000133514404,7.191999912261963 C3.056999921798706,5.224999904632568 5.414999961853027,-0.2160000056028366 6.5269999504089355,-2.9660000801086426 C6.650000095367432,-3.2699999809265137 -2.0820000171661377,-7.449999809265137 -2.2039999961853027,-7.179999828338623 C-3.0450000762939453,-5.311999797821045 -5.498000144958496,-0.4740000069141388 -6.5289998054504395,2.0260000228881836"/><g opacity="1" transform="matrix(1,0,0,1,0,0)"/></g><g transform="matrix(1,0,0,1,140.4690399169922,85.0218505859375)" opacity="1" style="display: block;"><path fill="rgb(255,0,0)" fill-opacity="1" d=" M-7.735000133514404,34.3129997253418 C5.1519999504089355,7.419000148773193 27.423999786376953,-41.21900177001953 29.73200035095215,-46.17399978637695 C23.305999755859375,-49.12699890136719 17.31999969482422,-52.26100158691406 11.401000022888184,-54.66400146484375 C10.41100025177002,-55.06700134277344 -13.805999755859375,-2.4600000381469727 -26.482999801635742,26.374000549316406 C-30.145000457763672,34.70600128173828 -28.92099952697754,54.53099822998047 -28.92099952697754,54.53099822998047 C-28.92099952697754,54.53099822998047 -12.897000312805176,45.08399963378906 -7.735000133514404,34.3129997253418z"/><g opacity="1" transform="matrix(1,0,0,1,0,0)"/></g></g></g><clipPath id="__lottie_element_350"><path d="M0,0 L192,0 L192,192 L0,192z"/></clipPath><g id="__lottie_element_368"><g transform="matrix(1,0,0,1,140.34617614746094,82.63893127441406)" opacity="1" style="display: block;"><path fill="rgb(42,48,107)" fill-opacity="1" d=" M-7.735000133514404,34.3129997253418 C5.1519999504089355,7.419000148773193 27.423999786376953,-41.21900177001953 29.73200035095215,-46.17399978637695 C23.305999755859375,-49.12699890136719 17.31999969482422,-52.26100158691406 11.401000022888184,-54.66400146484375 C10.41100025177002,-55.06700134277344 -13.805999755859375,-2.4600000381469727 -26.482999801635742,26.374000549316406 C-30.145000457763672,34.70600128173828 -28.92099952697754,54.53099822998047 -28.92099952697754,54.53099822998047 C-28.92099952697754,54.53099822998047 -12.897000312805176,45.08399963378906 -7.735000133514404,34.3129997253418z"/><g opacity="1" transform="matrix(1,0,0,1,0,0)"/></g></g><g id="__lottie_element_390"><g transform="matrix(1,0,0,1,140.34617614746094,82.63893127441406)" opacity="1" style="display: block;"><path fill="rgb(42,48,107)" fill-opacity="1" d=" M-7.735000133514404,34.3129997253418 C5.1519999504089355,7.419000148773193 27.423999786376953,-41.21900177001953 29.73200035095215,-46.17399978637695 C23.305999755859375,-49.12699890136719 17.31999969482422,-52.26100158691406 11.401000022888184,-54.66400146484375 C10.41100025177002,-55.06700134277344 -13.805999755859375,-2.4600000381469727 -26.482999801635742,26.374000549316406 C-30.145000457763672,34.70600128173828 -28.92099952697754,54.53099822998047 -28.92099952697754,54.53099822998047 C-28.92099952697754,54.53099822998047 -12.897000312805176,45.08399963378906 -7.735000133514404,34.3129997253418z"/><g opacity="1" transform="matrix(1,0,0,1,0,0)"/></g></g><g id="__lottie_element_393"><g transform="matrix(1,0,0,1,140.34617614746094,82.63893127441406)" opacity="1" style="display: block;"><path fill="rgb(42,48,107)" fill-opacity="1" d=" M-7.735000133514404,34.3129997253418 C5.1519999504089355,7.419000148773193 27.423999786376953,-41.21900177001953 29.73200035095215,-46.17399978637695 C23.305999755859375,-49.12699890136719 17.31999969482422,-52.26100158691406 11.401000022888184,-54.66400146484375 C10.41100025177002,-55.06700134277344 -13.805999755859375,-2.4600000381469727 -26.482999801635742,26.374000549316406 C-30.145000457763672,34.70600128173828 -28.92099952697754,54.53099822998047 -28.92099952697754,54.53099822998047 C-28.92099952697754,54.53099822998047 -12.897000312805176,45.08399963378906 -7.735000133514404,34.3129997253418z"/><g opacity="1" transform="matrix(1,0,0,1,0,0)"/></g></g><filter id="__lottie_element_396" filterUnits="objectBoundingBox" x="0%" y="0%" width="100%" height="100%"><feComponentTransfer in="SourceGraphic"><feFuncA type="table" tableValues="1.0 0.0"/></feComponentTransfer></filter><mask id="__lottie_element_390_2" mask-type="alpha" maskUnits="userSpaceOnUse"><g filter="url(#__lottie_element_396)"><rect width="192" height="192" x="0" y="0" fill="#ffffff" opacity="0"/><use xmlns:ns1="http://www.w3.org/1999/xlink" ns1:href="#__lottie_element_390"/></g></mask><filter id="__lottie_element_397" filterUnits="objectBoundingBox" x="0%" y="0%" width="100%" height="100%"><feComponentTransfer in="SourceGraphic"><feFuncA type="table" tableValues="1.0 0.0"/></feComponentTransfer></filter><mask id="__lottie_element_368_2" mask-type="alpha" maskUnits="userSpaceOnUse"><g filter="url(#__lottie_element_397)"><rect width="192" height="192" x="0" y="0" fill="#ffffff" opacity="0"/><use xmlns:ns2="http://www.w3.org/1999/xlink" ns2:href="#__lottie_element_368"/></g></mask><filter id="__lottie_element_398" filterUnits="objectBoundingBox" x="0%" y="0%" width="100%" height="100%"><feComponentTransfer in="SourceGraphic"><feFuncA type="table" tableValues="1.0 0.0"/></feComponentTransfer></filter><mask id="__lottie_element_349_2" mask-type="alpha" maskUnits="userSpaceOnUse"><g filter="url(#__lottie_element_398)"><rect width="192" height="192" x="0" y="0" fill="#ffffff" opacity="0"/><use xmlns:ns3="http://www.w3.org/1999/xlink" ns3:href="#__lottie_element_349"/></g></mask></defs><g clip-path="url(#__lottie_element_335)"><g clip-path="url(#__lottie_element_337)" transform="matrix(1,0,0,1,0,0)" opacity="1" style="display: block;"><g transform="matrix(-1,0,0,-1,121.04280853271484,105.88671112060547)" opacity="1" style="display: block;"><g opacity="1" transform="matrix(0.9086758494377136,0.41750234365463257,-0.41750234365463257,0.9086758494377136,0,0)"><path class="secondary" fill="rgb(230,142,110)" fill-opacity="1" d=" M-10.116999626159668,-18.889999389648438 C-10.598999977111816,-0.6330000162124634 -10.529000282287598,32.119998931884766 -10.557999610900879,35.46699905395508 C-3.4860000610351562,35.46699905395508 3.260999917984009,35.68000030517578 9.642999649047852,35.50400161743164 C10.711000442504883,35.474998474121094 10.753000259399414,0.017000000923871994 10.234000205993652,-19.264999389648438 C10.083000183105469,-24.836000442504883 2.694000005722046,-34.94200134277344 0.6930000185966492,-35.55400085449219 C-1.003000020980835,-36.073001861572266 -9.92300033569336,-26.20199966430664 -10.116999626159668,-18.889999389648438z"/><path stroke-linecap="round" stroke-linejoin="round" fill-opacity="0" class="secondary" stroke="rgb(230,142,110)" stroke-opacity="1" stroke-width="0.5" d=" M-10.116999626159668,-18.889999389648438 C-10.598999977111816,-0.6330000162124634 -10.529000282287598,32.119998931884766 -10.557999610900879,35.46699905395508 C-3.4860000610351562,35.46699905395508 3.260999917984009,35.68000030517578 9.642999649047852,35.50400161743164 C10.711000442504883,35.474998474121094 10.753000259399414,0.017000000923871994 10.234000205993652,-19.264999389648438 C10.083000183105469,-24.836000442504883 2.694000005722046,-34.94200134277344 0.6930000185966492,-35.55400085449219 C-1.003000020980835,-36.073001861572266 -9.92300033569336,-26.20199966430664 -10.116999626159668,-18.889999389648438z"/></g></g><g mask="url(#__lottie_element_349_2)" style="display: block;"><g clip-path="url(#__lottie_element_346)" transform="matrix(1,0,0,1,-10,1)" opacity="1"><g transform="matrix(1,0,0,1,140.89500427246094,31.21299934387207)" opacity="1" style="display: block;"><g opacity="1" transform="matrix(1,0,0,1,0,0)"><path class="secondary" fill="rgb(230,142,110)" fill-opacity="1" d=" M9.807000160217285,12.218999862670898 C10.369999885559082,12.685999870300293 11.180000305175781,12.04699993133545 11.109000205993652,11.446000099182129 C9.701000213623047,-0.48500001430511475 -3.0789999961853027,-11.263999938964844 -9.972000122070312,-12.366000175476074 C-10.723999977111816,-12.486000061035156 -11.380000114440918,-11.842000007629395 -11.005999565124512,-11.083000183105469 C-9.696000099182129,-8.42199993133545 -6.743000030517578,-1.7790000438690186 -7.607999801635742,5.926000118255615 C-7.849999904632568,8.079000473022461 1.4299999475479126,5.26200008392334 9.807000160217285,12.218999862670898z"/><path stroke-linecap="round" stroke-linejoin="round" fill-opacity="0" class="secondary" stroke="rgb(230,142,110)" stroke-opacity="1" stroke-width="0.499" d=" M9.807000160217285,12.218999862670898 C10.369999885559082,12.685999870300293 11.180000305175781,12.04699993133545 11.109000205993652,11.446000099182129 C9.701000213623047,-0.48500001430511475 -3.0789999961853027,-11.263999938964844 -9.972000122070312,-12.366000175476074 C-10.723999977111816,-12.486000061035156 -11.380000114440918,-11.842000007629395 -11.005999565124512,-11.083000183105469 C-9.696000099182129,-8.42199993133545 -6.743000030517578,-1.7790000438690186 -7.607999801635742,5.926000118255615 C-7.849999904632568,8.079000473022461 1.4299999475479126,5.26200008392334 9.807000160217285,12.218999862670898z"/></g></g><g transform="matrix(1,0,0,1,96.08999633789062,92.75800323486328)" opacity="1" style="display: block;"><g opacity="1" transform="matrix(1,0,0,1,0,0)"><path stroke-linecap="round" stroke-linejoin="round" fill-opacity="0" class="primary" stroke="rgb(42,48,107)" stroke-opacity="1" stroke-width="1.5" d=" M-53.00400161743164,-71.91999816894531 C-53.027000427246094,-71.10600280761719 -50.000999450683594,71.43399810791016 -49.770999908447266,72.18099975585938 C-49.62799835205078,72.64600372314453 52.67399978637695,72.30999755859375 52.74100112915039,71.33499908447266 C52.775001525878906,70.83399963378906 52.849998474121094,52.86600112915039 52.9109992980957,29.83099937438965 C52.97100067138672,7.341000080108643 53.018001556396484,-19.979999542236328 53.000999450683594,-40.59299850463867 C52.98899841308594,-55.15599822998047 36.96799850463867,-49.66899871826172 33.70600128173828,-52.5890007019043 C31.138999938964844,-54.8849983215332 36.98699951171875,-72.26100158691406 25.621000289916992,-72.31500244140625 C-5.808000087738037,-72.46700286865234 -52.9900016784668,-72.4010009765625 -53.00400161743164,-71.91999816894531z"/></g></g><g transform="matrix(1,0,0,1,135.72799682617188,36.1619987487793)" opacity="1" style="display: block;"><g opacity="1" transform="matrix(1,0,0,1,0,0)"><path stroke-linecap="round" stroke-linejoin="round" fill-opacity="0" class="primary" stroke="rgb(42,48,107)" stroke-opacity="1" stroke-width="0.9985" d=" M13.789999961853027,16.215999603271484 C13.612000465393066,1.5110000371932983 -3.6110000610351562,-17.023000717163086 -13.789999961853027,-16.187999725341797"/></g></g></g></g><g transform="matrix(1,0,0,1,59.13999938964844,177.31700134277344)" opacity="1" style="display: block;"><g opacity="1" transform="matrix(1,0,0,1,0,0)"><path stroke-linecap="round" stroke-linejoin="round" fill-opacity="0" class="primary" stroke="rgb(42,48,107)" stroke-opacity="1" stroke-width="1" d=" M8.789999961853027,0.0430000014603138 C-8.345000267028809,0.09399999678134918 -25.36199951171875,0.10499999672174454 -28.742000579833984,-0.07800000160932541"/></g></g><g transform="matrix(1,0,0,1,21.08300018310547,65.14600372314453)" opacity="1" style="display: block;"><g opacity="1" transform="matrix(1,0,0,1,0,0)"><path stroke-linecap="round" stroke-linejoin="round" fill-opacity="0" class="primary" stroke="rgb(42,48,107)" stroke-opacity="1" stroke-width="1" d=" M0.3659999966621399,19.680999755859375 C-0.3700000047683716,-5.441999912261963 -1.3519999980926514,-38.388999938964844 -1.534000039100647,-41.29600143432617"/></g></g><g transform="matrix(1,0,0,1,21.08300018310547,65.14600372314453)" opacity="1" style="display: block;"><g opacity="1" transform="matrix(1,0,0,1,0,0)"><path stroke-linecap="round" stroke-linejoin="round" fill-opacity="0" class="primary" stroke="rgb(42,48,107)" stroke-opacity="1" stroke-width="1" d=" M1.3240000009536743,39.0260009765625 C1.1319999694824219,32.88800048828125 0.9440000057220459,26.202999114990234 0.9259999990463257,25.836999893188477"/></g></g><g transform="matrix(1,0,0,1,149.94400024414062,158.60899353027344)" opacity="1" style="display: block;"><g opacity="1" transform="matrix(1,0,0,1,0,0)"><path stroke-linecap="round" stroke-linejoin="round" fill-opacity="0" class="primary" stroke="rgb(42,48,107)" stroke-opacity="1" stroke-width="1" d=" M-0.05900000035762787,2.132999897003174 C-0.05000000074505806,-0.6850000023841858 -0.04100000113248825,-3.5299999713897705 -0.029999999329447746,-6.360000133514404"/></g></g><g mask="url(#__lottie_element_368_2)" style="display: block;"><g transform="matrix(1,0,0,1,87.47899627685547,86.28600311279297)" opacity="1"><g opacity="1" transform="matrix(1,0,0,1,0,0)"><path stroke-linecap="round" stroke-linejoin="round" fill-opacity="0" class="primary" stroke="rgb(42,48,107)" stroke-opacity="1" stroke-width="1" d=" M35.8650016784668,-8.361000061035156 C21.700000762939453,-8.361000061035156 -33.24599838256836,-7.864999771118164 -35.61800003051758,-8.38599967956543 M36.03499984741211,26.43400001525879 C21.8700008392334,26.43400001525879 -33.07699966430664,26.93000030517578 -35.44900131225586,26.409000396728516 M35.42900085449219,-26.621999740600586 C31.68400001525879,-26.621999740600586 25.086000442504883,-26.586999893188477 17.363000869750977,-26.545000076293945 M10.432000160217285,-26.513999938964844 C-10.378000259399414,-26.40399932861328 -34.452999114990234,-26.29400062561035 -36.05500030517578,-26.64699935913086 M36.05500030517578,9.003000259399414 C28.023000717163086,9.003000259399414 8.571999549865723,9.194999694824219 -8.664999961853027,9.23799991607666 M-15.503999710083008,9.21500015258789 C-26.256999969482422,9.22599983215332 -34.53900146484375,9.17300033569336 -35.42900085449219,8.977999687194824"/></g></g></g><g transform="matrix(1,0,0,1,162.7220458984375,29.13385009765625)" opacity="1" style="display: block;"><g opacity="1" transform="matrix(1,0,0,1,0,0)"><path stroke-linecap="round" stroke-linejoin="round" fill-opacity="0" class="primary" stroke="rgb(42,48,107)" stroke-opacity="1" stroke-width="1.5" d=" M2.1610000133514404,7.191999912261963 C3.056999921798706,5.224999904632568 5.414999961853027,-0.2160000056028366 6.5269999504089355,-2.9660000801086426 C6.650000095367432,-3.2699999809265137 -2.0820000171661377,-7.449999809265137 -2.2039999961853027,-7.179999828338623 C-3.0450000762939453,-5.311999797821045 -5.498000144958496,-0.4740000069141388 -6.5289998054504395,2.0260000228881836"/></g></g><g transform="matrix(1,0,0,1,166.02603149414062,67.995849609375)" opacity="1" style="display: block;"><g opacity="1" transform="matrix(1,0,0,1,0,0)"><path stroke-linecap="round" stroke-linejoin="round" fill-opacity="0" class="primary" stroke="rgb(42,48,107)" stroke-opacity="1" stroke-width="1.5" d=" M-8.836000442504883,24.10099983215332 C-3.627000093460083,12.618000030517578 6.394000053405762,-9.39900016784668 8.027000427246094,-13.09000015258789 C9.27400016784668,-15.90999984741211 10.065999984741211,-21.09000015258789 2.630000114440918,-24.10099983215332"/></g></g><g transform="matrix(1,0,0,1,143.10104370117188,72.90485382080078)" opacity="1" style="display: block;"><g opacity="1" transform="matrix(0.8299344182014465,-0.5578609704971313,0.5578609704971313,0.8299344182014465,0,0)"><path stroke-linecap="round" stroke-linejoin="round" fill-opacity="0" class="primary" stroke="rgb(42,48,107)" stroke-opacity="1" stroke-width="1" d=" M4.756999969482422,8.557999610900879 C2.3469998836517334,4.132999897003174 -2.5139999389648438,-4.435999870300293 -4.756999969482422,-8.557999610900879"/></g></g><g transform="matrix(-1,0,0,-1,114.70404052734375,133.45785522460938)" opacity="1" style="display: block;"><g opacity="1" transform="matrix(0.9086758494377136,0.41750234365463257,-0.41750234365463257,0.9086758494377136,0,0)"><path stroke-linecap="round" stroke-linejoin="round" fill-opacity="0" class="primary" stroke="rgb(42,48,107)" stroke-opacity="1" stroke-width="0.999" d=" M4.013999938964844,0.06400000303983688 C2.1670000553131104,1.680999994277954 -2.61299991607666,1.2280000448226929 -4.013999938964844,-1.027999997138977"/></g></g><g transform="matrix(1,0,0,1,140.4690399169922,85.0218505859375)" opacity="1" style="display: block;"><g opacity="1" transform="matrix(1,0,0,1,0,0)"><path stroke-linecap="round" stroke-linejoin="round" fill-opacity="0" class="primary" stroke="rgb(42,48,107)" stroke-opacity="1" stroke-width="1.5" d=" M-7.735000133514404,34.3129997253418 C5.1519999504089355,7.419000148773193 27.423999786376953,-41.21900177001953 29.73200035095215,-46.17399978637695 C23.305999755859375,-49.12699890136719 17.31999969482422,-52.26100158691406 11.401000022888184,-54.66400146484375 C10.41100025177002,-55.06700134277344 -13.805999755859375,-2.4600000381469727 -26.482999801635742,26.374000549316406 C-30.145000457763672,34.70600128173828 -30.32200050354004,52.7869987487793 -28.92099952697754,54.53099822998047 C-27.733999252319336,56.00899887084961 -12.897000312805176,45.08399963378906 -7.735000133514404,34.3129997253418z"/></g></g><g mask="url(#__lottie_element_390_2)" style="display: block;"><g transform="matrix(1,0,0,1,98.08399963378906,140.3769989013672)" opacity="1"><g opacity="1" transform="matrix(1,0,0,1,0,0)"><path stroke-linecap="round" stroke-linejoin="round" fill-opacity="0" class="primary" stroke="rgb(42,48,107)" stroke-opacity="1" stroke-width="1.5" d=" M17.409000396728516,-4.184000015258789 C14.529000282287598,-3.489000082015991 14.73900032043457,1.2940000295639038 9.99899959564209,1.878000020980835 C2.3420000076293945,2.821000099182129 -1.3339999914169312,-6.244999885559082 -4.552999973297119,-1.7330000400543213 C-6.183000087738037,0.5519999861717224 -2.7760000228881836,10.920000076293945 -6.465000152587891,11.9399995803833 C-11.104000091552734,13.222999572753906 -10.788000106811523,-9.67300033569336 -12.059000015258789,-11.755999565124512 C-13.125,-13.501999855041504 -21.868999481201172,-5.135000228881836 -14.45199966430664,0.7670000195503235"/></g></g></g></g></g></svg>