<svg xmlns="http://www.w3.org/2000/svg" xmlns:xlink="http://www.w3.org/1999/xlink" viewBox="0 0 192 192" width="192" height="192" preserveAspectRatio="xMidYMid meet" style="width: 100%; height: 100%; transform: translate3d(0px, 0px, 0px); content-visibility: visible;"><defs><clipPath id="__lottie_element_3760"><rect width="192" height="192" x="0" y="0"/></clipPath><clipPath id="__lottie_element_3762"><path d="M0,0 L192,0 L192,192 L0,192z"/></clipPath><g id="__lottie_element_3770"><g transform="matrix(-1.559999942779541,0,0,-2.119999885559082,72.71800231933594,87.49799346923828)" opacity="1" style="display: block;"><g opacity="0" transform="matrix(1,0,0,1,0,0)"><path fill="rgb(67,67,67)" fill-opacity="1" d=" M-58.43000030517578,-44.48899841308594 C-57.97200012207031,-43.47700119018555 -56.78200149536133,-43.060001373291016 -55.77000045776367,-43.55699920654297 C-54.757999420166016,-44.05400085449219 -54.310001373291016,-45.27799987792969 -54.768001556396484,-46.290000915527344 C-54.742000579833984,-46.334999084472656 -54.77299880981445,-46.30500030517578 -54.77299880981445,-46.30500030517578 C-54.77299880981445,-46.30500030517578 -54.775001525878906,-46.29600143432617 -54.77899932861328,-46.30400085449219 C-55.244998931884766,-47.29899978637695 -56.44200134277344,-47.70199966430664 -57.45500183105469,-47.20399856567383 C-58.46799850463867,-46.707000732421875 -58.9119987487793,-45.49599838256836 -58.44599914550781,-44.50199890136719 C-58.439998626708984,-44.51499938964844 -58.448001861572266,-44.516998291015625 -58.448001861572266,-44.516998291015625 C-58.448001861572266,-44.516998291015625 -58.44499969482422,-44.520999908447266 -58.43000030517578,-44.48899841308594z"/></g><g opacity="0" transform="matrix(0.9975640773773193,-0.06975647062063217,-0.06975647062063217,-0.9975640773773193,10.67947006225586,-4.087581634521484)"><path fill="rgb(67,67,67)" fill-opacity="1" d=" M-58.43000030517578,-44.48899841308594 C-57.97200012207031,-43.47700119018555 -56.78200149536133,-43.060001373291016 -55.77000045776367,-43.55699920654297 C-54.757999420166016,-44.05400085449219 -54.310001373291016,-45.27799987792969 -54.768001556396484,-46.290000915527344 C-54.742000579833984,-46.334999084472656 -54.77299880981445,-46.30500030517578 -54.77299880981445,-46.30500030517578 C-54.77299880981445,-46.30500030517578 -54.775001525878906,-46.29600143432617 -54.77899932861328,-46.30400085449219 C-55.244998931884766,-47.29899978637695 -56.44200134277344,-47.70199966430664 -57.45500183105469,-47.20399856567383 C-58.46799850463867,-46.707000732421875 -58.9119987487793,-45.49599838256836 -58.44599914550781,-44.50199890136719 C-58.439998626708984,-44.51499938964844 -58.448001861572266,-44.516998291015625 -58.448001861572266,-44.516998291015625 C-58.448001861572266,-44.516998291015625 -58.44499969482422,-44.520999908447266 -58.43000030517578,-44.48899841308594z"/></g><g opacity="0" transform="matrix(1,0,0,1,22,0)"><path fill="rgb(67,67,67)" fill-opacity="1" d=" M-58.43000030517578,-44.48899841308594 C-57.97200012207031,-43.47700119018555 -56.78200149536133,-43.060001373291016 -55.77000045776367,-43.55699920654297 C-54.757999420166016,-44.05400085449219 -54.310001373291016,-45.27799987792969 -54.768001556396484,-46.290000915527344 C-54.742000579833984,-46.334999084472656 -54.77299880981445,-46.30500030517578 -54.77299880981445,-46.30500030517578 C-54.77299880981445,-46.30500030517578 -54.775001525878906,-46.29600143432617 -54.77899932861328,-46.30400085449219 C-55.244998931884766,-47.29899978637695 -56.44200134277344,-47.70199966430664 -57.45500183105469,-47.20399856567383 C-58.46799850463867,-46.707000732421875 -58.9119987487793,-45.49599838256836 -58.44599914550781,-44.50199890136719 C-58.439998626708984,-44.51499938964844 -58.448001861572266,-44.516998291015625 -58.448001861572266,-44.516998291015625 C-58.448001861572266,-44.516998291015625 -58.44499969482422,-44.520999908447266 -58.43000030517578,-44.48899841308594z"/></g><g opacity="0" transform="matrix(0.9975640773773193,-0.06975647062063217,-0.06975647062063217,-0.9975640773773193,32.679473876953125,-4.087581634521484)"><path fill="rgb(67,67,67)" fill-opacity="1" d=" M-58.43000030517578,-44.48899841308594 C-57.97200012207031,-43.47700119018555 -56.78200149536133,-43.060001373291016 -55.77000045776367,-43.55699920654297 C-54.757999420166016,-44.05400085449219 -54.310001373291016,-45.27799987792969 -54.768001556396484,-46.290000915527344 C-54.742000579833984,-46.334999084472656 -54.77299880981445,-46.30500030517578 -54.77299880981445,-46.30500030517578 C-54.77299880981445,-46.30500030517578 -54.775001525878906,-46.29600143432617 -54.77899932861328,-46.30400085449219 C-55.244998931884766,-47.29899978637695 -56.44200134277344,-47.70199966430664 -57.45500183105469,-47.20399856567383 C-58.46799850463867,-46.707000732421875 -58.9119987487793,-45.49599838256836 -58.44599914550781,-44.50199890136719 C-58.439998626708984,-44.51499938964844 -58.448001861572266,-44.516998291015625 -58.448001861572266,-44.516998291015625 C-58.448001861572266,-44.516998291015625 -58.44499969482422,-44.520999908447266 -58.43000030517578,-44.48899841308594z"/></g><g opacity="0" transform="matrix(1,0,0,1,44,0)"><path fill="rgb(67,67,67)" fill-opacity="1" d=" M-58.43000030517578,-44.48899841308594 C-57.97200012207031,-43.47700119018555 -56.78200149536133,-43.060001373291016 -55.77000045776367,-43.55699920654297 C-54.757999420166016,-44.05400085449219 -54.310001373291016,-45.27799987792969 -54.768001556396484,-46.290000915527344 C-54.742000579833984,-46.334999084472656 -54.77299880981445,-46.30500030517578 -54.77299880981445,-46.30500030517578 C-54.77299880981445,-46.30500030517578 -54.775001525878906,-46.29600143432617 -54.77899932861328,-46.30400085449219 C-55.244998931884766,-47.29899978637695 -56.44200134277344,-47.70199966430664 -57.45500183105469,-47.20399856567383 C-58.46799850463867,-46.707000732421875 -58.9119987487793,-45.49599838256836 -58.44599914550781,-44.50199890136719 C-58.439998626708984,-44.51499938964844 -58.448001861572266,-44.516998291015625 -58.448001861572266,-44.516998291015625 C-58.448001861572266,-44.516998291015625 -58.44499969482422,-44.520999908447266 -58.43000030517578,-44.48899841308594z"/></g><g opacity="0" transform="matrix(0.9975640773773193,-0.06975647062063217,-0.06975647062063217,-0.9975640773773193,54.67947006225586,-4.087581634521484)"><path fill="rgb(67,67,67)" fill-opacity="1" d=" M-58.43000030517578,-44.48899841308594 C-57.97200012207031,-43.47700119018555 -56.78200149536133,-43.060001373291016 -55.77000045776367,-43.55699920654297 C-54.757999420166016,-44.05400085449219 -54.310001373291016,-45.27799987792969 -54.768001556396484,-46.290000915527344 C-54.742000579833984,-46.334999084472656 -54.77299880981445,-46.30500030517578 -54.77299880981445,-46.30500030517578 C-54.77299880981445,-46.30500030517578 -54.775001525878906,-46.29600143432617 -54.77899932861328,-46.30400085449219 C-55.244998931884766,-47.29899978637695 -56.44200134277344,-47.70199966430664 -57.45500183105469,-47.20399856567383 C-58.46799850463867,-46.707000732421875 -58.9119987487793,-45.49599838256836 -58.44599914550781,-44.50199890136719 C-58.439998626708984,-44.51499938964844 -58.448001861572266,-44.516998291015625 -58.448001861572266,-44.516998291015625 C-58.448001861572266,-44.516998291015625 -58.44499969482422,-44.520999908447266 -58.43000030517578,-44.48899841308594z"/></g><g opacity="0" transform="matrix(1,0,0,1,66,0)"><path fill="rgb(67,67,67)" fill-opacity="1" d=" M-58.43000030517578,-44.48899841308594 C-57.97200012207031,-43.47700119018555 -56.78200149536133,-43.060001373291016 -55.77000045776367,-43.55699920654297 C-54.757999420166016,-44.05400085449219 -54.310001373291016,-45.27799987792969 -54.768001556396484,-46.290000915527344 C-54.742000579833984,-46.334999084472656 -54.77299880981445,-46.30500030517578 -54.77299880981445,-46.30500030517578 C-54.77299880981445,-46.30500030517578 -54.775001525878906,-46.29600143432617 -54.77899932861328,-46.30400085449219 C-55.244998931884766,-47.29899978637695 -56.44200134277344,-47.70199966430664 -57.45500183105469,-47.20399856567383 C-58.46799850463867,-46.707000732421875 -58.9119987487793,-45.49599838256836 -58.44599914550781,-44.50199890136719 C-58.439998626708984,-44.51499938964844 -58.448001861572266,-44.516998291015625 -58.448001861572266,-44.516998291015625 C-58.448001861572266,-44.516998291015625 -58.44499969482422,-44.520999908447266 -58.43000030517578,-44.48899841308594z"/></g></g></g><clipPath id="__lottie_element_3792"><path d="M0,0 L192,0 L192,192 L0,192z"/></clipPath><clipPath id="__lottie_element_3793"><path fill="#ffffff" clip-rule="nonzero" d=" M43.266998291015625,21 C43.24399948120117,21.81399917602539 46.27000045776367,164.35400390625 46.5,165.1009979248047 C46.643001556396484,165.5659942626953 148.94500732421875,165.22900390625 149.01199340820312,164.25399780273438 C149.04600524902344,163.7530059814453 149.12100219726562,145.78500366210938 149.1820068359375,122.75 C149.24200439453125,100.26000213623047 149.28900146484375,72.93900299072266 149.27200317382812,52.32600021362305 C149.25999450683594,37.76300048828125 133.24000549316406,43.250999450683594 129.97799682617188,40.33100128173828 C127.41100311279297,38.03499984741211 133.25900268554688,20.659000396728516 121.89299774169922,20.604999542236328 C90.46399688720703,20.452999114990234 43.28099822998047,20.518999099731445 43.266998291015625,21" fill-opacity="1"/></clipPath><filter id="__lottie_element_3795" filterUnits="objectBoundingBox" x="0%" y="0%" width="100%" height="100%"><feComponentTransfer in="SourceGraphic"><feFuncA type="table" tableValues="1.0 0.0"/></feComponentTransfer></filter><mask id="__lottie_element_3770_2" mask-type="alpha" maskUnits="userSpaceOnUse"><g filter="url(#__lottie_element_3795)"><rect width="192" height="192" x="0" y="0" fill="#ffffff" opacity="0"/><use xmlns:ns1="http://www.w3.org/1999/xlink" ns1:href="#__lottie_element_3770"/></g></mask></defs><g clip-path="url(#__lottie_element_3760)"><g clip-path="url(#__lottie_element_3762)" transform="matrix(1,0,0,1,0,0)" opacity="1" style="display: block;"><g mask="url(#__lottie_element_3770_2)" style="display: block;"><g transform="matrix(1,0,0,1,140.89401245117188,31.212993621826172)" opacity="1"><g opacity="1" transform="matrix(1,0,0,1,0,0)"><path class="secondary" fill="rgb(230,142,110)" fill-opacity="1" d=" M9.807000160217285,12.218999862670898 C10.369999885559082,12.685999870300293 11.180000305175781,12.04699993133545 11.109000205993652,11.446000099182129 C9.701000213623047,-0.48500001430511475 -3.0789999961853027,-11.263999938964844 -9.972000122070312,-12.366000175476074 C-10.723999977111816,-12.486000061035156 -11.380000114440918,-11.842000007629395 -11.005999565124512,-11.083000183105469 C-9.696000099182129,-8.42199993133545 -6.743000030517578,-1.7790000438690186 -7.607999801635742,5.926000118255615 C-7.849999904632568,8.079000473022461 1.4299999475479126,5.26200008392334 9.807000160217285,12.218999862670898z"/><path stroke-linecap="round" stroke-linejoin="round" fill-opacity="0" class="secondary" stroke="rgb(230,142,110)" stroke-opacity="1" stroke-width="0.998" d=" M9.807000160217285,12.218999862670898 C10.369999885559082,12.685999870300293 11.180000305175781,12.04699993133545 11.109000205993652,11.446000099182129 C9.701000213623047,-0.48500001430511475 -3.0789999961853027,-11.263999938964844 -9.972000122070312,-12.366000175476074 C-10.723999977111816,-12.486000061035156 -11.380000114440918,-11.842000007629395 -11.005999565124512,-11.083000183105469 C-9.696000099182129,-8.42199993133545 -6.743000030517578,-1.7790000438690186 -7.607999801635742,5.926000118255615 C-7.849999904632568,8.079000473022461 1.4299999475479126,5.26200008392334 9.807000160217285,12.218999862670898z"/></g></g></g><g transform="matrix(1,0,0,1,96.08900451660156,92.75799560546875)" opacity="1" style="display: block;"><g opacity="1" transform="matrix(1,0,0,1,0,0)"><path stroke-linecap="round" stroke-linejoin="round" fill-opacity="0" class="primary" stroke="rgb(29,77,141)" stroke-opacity="1" stroke-width="3" d=" M-53.00400161743164,-71.91999816894531 C-53.027000427246094,-71.10600280761719 -50.000999450683594,71.43399810791016 -49.770999908447266,72.18099975585938 C-49.62799835205078,72.64600372314453 52.67399978637695,72.30999755859375 52.74100112915039,71.33499908447266 C52.775001525878906,70.83399963378906 52.849998474121094,52.86600112915039 52.9109992980957,29.83099937438965 C52.97100067138672,7.341000080108643 53.018001556396484,-19.979999542236328 53.000999450683594,-40.59299850463867 C52.98899841308594,-55.15599822998047 36.96799850463867,-49.66899871826172 33.70600128173828,-52.5890007019043 C31.138999938964844,-54.8849983215332 36.98699951171875,-72.26100158691406 25.621000289916992,-72.31500244140625 C-5.808000087738037,-72.46700286865234 -52.9900016784668,-72.4010009765625 -53.00400161743164,-71.91999816894531z"/></g></g><g transform="matrix(1,0,0,1,135.72801208496094,36.16199493408203)" opacity="1" style="display: block;"><g opacity="1" transform="matrix(1,0,0,1,0,0)"><path stroke-linecap="round" stroke-linejoin="round" fill-opacity="0" class="primary" stroke="rgb(29,77,141)" stroke-opacity="1" stroke-width="1.997" d=" M13.789999961853027,16.215999603271484 C13.612000465393066,1.5110000371932983 -3.6110000610351562,-17.023000717163086 -13.789999961853027,-16.187999725341797"/></g></g><g transform="matrix(1,0,0,1,33.582008361816406,122.14599609375)" opacity="1" style="display: block;"><g opacity="1" transform="matrix(1,0,0,1,0,0)"><path stroke-linecap="round" stroke-linejoin="round" fill-opacity="0" class="primary" stroke="rgb(29,77,141)" stroke-opacity="1" stroke-width="2" d=" M0.3659999966621399,19.680999755859375 C-0.3700000047683716,-5.441999912261963 -1.3519999980926514,-38.388999938964844 -1.534000039100647,-41.29600143432617"/></g></g><g transform="matrix(1,0,0,1,33.582008361816406,122.14599609375)" opacity="1" style="display: block;"><g opacity="1" transform="matrix(1,0,0,1,0,0)"><path stroke-linecap="round" stroke-linejoin="round" fill-opacity="0" class="primary" stroke="rgb(29,77,141)" stroke-opacity="1" stroke-width="2" d=" M1.5269999504089355,40.2239990234375 C1.4869999885559082,36.3849983215332 1.4429999589920044,31.43400001525879 1.3990000486373901,25.8700008392334"/></g></g><g transform="matrix(1,0,0,1,69.14000701904297,176.31698608398438)" opacity="1" style="display: block;"><g opacity="1" transform="matrix(1,0,0,1,0,0)"><path stroke-linecap="round" stroke-linejoin="round" fill-opacity="0" class="primary" stroke="rgb(29,77,141)" stroke-opacity="1" stroke-width="2" d=" M29.160999298095703,-0.029999999329447746 C8.071000099182129,0.052000001072883606 -23.96299934387207,0.1809999942779541 -28.742000579833984,-0.07800000160932541"/></g></g><g transform="matrix(1,0,0,1,160.44400024414062,65.10899353027344)" opacity="1" style="display: block;"><g opacity="1" transform="matrix(1,0,0,1,0,0)"><path stroke-linecap="round" stroke-linejoin="round" fill-opacity="0" class="primary" stroke="rgb(29,77,141)" stroke-opacity="1" stroke-width="2" d=" M-0.05000000074505806,44.36000061035156 C-0.23199999332427979,37.625 0.019999999552965164,-23.91699981689453 0.1420000046491623,-44.89400100708008"/></g></g><g clip-path="url(#__lottie_element_3792)" transform="matrix(1,0,0,1,0.00000762939453125,-0.00000762939453125)" opacity="1" style="display: block;"><g clip-path="url(#__lottie_element_3793)"><g transform="matrix(1,0,0,1,96.03800201416016,136.2220001220703)" opacity="1" style="display: block;"><g opacity="1" transform="matrix(1,0,0,1,0,0)"><path stroke-linecap="round" stroke-linejoin="round" fill-opacity="0" class="primary" stroke="rgb(29,77,141)" stroke-opacity="1" stroke-width="2" d=" M32.237998962402344,-0.08500000089406967 C19.461000442504883,-0.08500000089406967 -30.099000930786133,0.3619999885559082 -32.237998962402344,-0.1080000028014183"/></g></g><g transform="matrix(1,0,0,1,96.05599975585938,120.4990005493164)" opacity="1" style="display: block;"><g opacity="1" transform="matrix(1,0,0,1,0,0)"><path stroke-linecap="round" stroke-linejoin="round" fill-opacity="0" class="primary" stroke="rgb(29,77,141)" stroke-opacity="1" stroke-width="2" d=" M32.237998962402344,-0.08500000089406967 C19.461000442504883,-0.08500000089406967 -30.099000930786133,0.3619999885559082 -32.237998962402344,-0.1080000028014183"/></g></g><g transform="matrix(1,0,0,1,95.88500213623047,104.83799743652344)" opacity="1" style="display: block;"><g opacity="1" transform="matrix(1,0,0,1,0,0)"><path stroke-linecap="round" stroke-linejoin="round" fill-opacity="0" class="primary" stroke="rgb(29,77,141)" stroke-opacity="1" stroke-width="2" d=" M32.237998962402344,-0.08500000089406967 C19.461000442504883,-0.08500000089406967 -30.099000930786133,0.3619999885559082 -32.237998962402344,-0.1080000028014183"/></g></g><g transform="matrix(1,0,0,1,95.49199676513672,88.36599731445312)" opacity="1" style="display: block;"><g opacity="1" transform="matrix(1,0,0,1,0,0)"><path stroke-linecap="round" stroke-linejoin="round" fill-opacity="0" class="primary" stroke="rgb(29,77,141)" stroke-opacity="1" stroke-width="2" d=" M32.237998962402344,-0.08500000089406967 C19.461000442504883,-0.08500000089406967 -30.099000930786133,0.3619999885559082 -32.237998962402344,-0.1080000028014183"/></g></g></g></g></g></g></svg>