<svg xmlns="http://www.w3.org/2000/svg" xmlns:xlink="http://www.w3.org/1999/xlink" viewBox="0 0 192 192" width="192" height="192" preserveAspectRatio="xMidYMid meet" style="width: 100%; height: 100%; transform: translate3d(0px, 0px, 0px); content-visibility: visible;"><defs><clipPath id="__lottie_element_5680"><rect width="192" height="192" x="0" y="0"/></clipPath><clipPath id="__lottie_element_5682"><path d="M0,0 L192,0 L192,192 L0,192z"/></clipPath><g id="__lottie_element_5690"><g transform="matrix(1,0,0,1,93.41000366210938,47.483001708984375)" opacity="1" style="display: block;"><g opacity="1" transform="matrix(1,0,0,1,0,0)"><path fill="rgb(255,255,255)" fill-opacity="1" d=" M-29.222999572753906,-10.315999984741211 C-27.823999404907227,-28.14900016784668 -17.086999893188477,-37.47700119018555 -0.3100000023841858,-37.79199981689453 C17.40999984741211,-38.125 28.176000595092773,-24.541000366210938 29.253999710083008,-10.10099983215332 C30.29199981689453,3.7960000038146973 25.952999114990234,38.0369987487793 0.9909999966621399,37.797000885009766 C-20.229000091552734,37.59199905395508 -30.889999389648438,10.928000450134277 -29.222999572753906,-10.315999984741211z"/></g></g></g><g id="__lottie_element_5705"><g transform="matrix(1,0,0,1,93.41000366210938,47.483001708984375)" opacity="1" style="display: block;"><g opacity="1" transform="matrix(1,0,0,1,0,0)"><path fill="rgb(255,255,255)" fill-opacity="1" d=" M-29.222999572753906,-10.315999984741211 C-27.823999404907227,-28.14900016784668 -17.086999893188477,-37.47700119018555 -0.3100000023841858,-37.79199981689453 C17.40999984741211,-38.125 28.176000595092773,-24.541000366210938 29.253999710083008,-10.10099983215332 C30.29199981689453,3.7960000038146973 25.952999114990234,38.0369987487793 0.9909999966621399,37.797000885009766 C-20.229000091552734,37.59199905395508 -30.889999389648438,10.928000450134277 -29.222999572753906,-10.315999984741211z"/></g></g></g><g id="__lottie_element_5716"><g transform="matrix(1,0,0,1,93.41000366210938,47.483001708984375)" opacity="1" style="display: block;"><g opacity="1" transform="matrix(1,0,0,1,0,0)"><path fill="rgb(255,255,255)" fill-opacity="1" d=" M-29.222999572753906,-10.315999984741211 C-27.823999404907227,-28.14900016784668 -17.086999893188477,-37.47700119018555 -0.3100000023841858,-37.79199981689453 C17.40999984741211,-38.125 28.176000595092773,-24.541000366210938 29.253999710083008,-10.10099983215332 C30.29199981689453,3.7960000038146973 25.952999114990234,38.0369987487793 0.9909999966621399,37.797000885009766 C-20.229000091552734,37.59199905395508 -30.889999389648438,10.928000450134277 -29.222999572753906,-10.315999984741211z"/></g></g></g><filter id="__lottie_element_5752" filterUnits="objectBoundingBox" x="0%" y="0%" width="100%" height="100%"><feComponentTransfer in="SourceGraphic"><feFuncA type="table" tableValues="1.0 0.0"/></feComponentTransfer></filter><mask id="__lottie_element_5716_2" mask-type="alpha" maskUnits="userSpaceOnUse"><g filter="url(#__lottie_element_5752)"><rect width="192" height="192" x="0" y="0" fill="#ffffff" opacity="0"/><use xmlns:ns1="http://www.w3.org/1999/xlink" ns1:href="#__lottie_element_5716"/></g></mask><filter id="__lottie_element_5753" filterUnits="objectBoundingBox" x="0%" y="0%" width="100%" height="100%"><feComponentTransfer in="SourceGraphic"><feFuncA type="table" tableValues="1.0 0.0"/></feComponentTransfer></filter><mask id="__lottie_element_5705_2" mask-type="alpha" maskUnits="userSpaceOnUse"><g filter="url(#__lottie_element_5753)"><rect width="192" height="192" x="0" y="0" fill="#ffffff" opacity="0"/><use xmlns:ns2="http://www.w3.org/1999/xlink" ns2:href="#__lottie_element_5705"/></g></mask><filter id="__lottie_element_5754" filterUnits="objectBoundingBox" x="0%" y="0%" width="100%" height="100%"><feComponentTransfer in="SourceGraphic"><feFuncA type="table" tableValues="1.0 0.0"/></feComponentTransfer></filter><mask id="__lottie_element_5690_2" mask-type="alpha" maskUnits="userSpaceOnUse"><g filter="url(#__lottie_element_5754)"><rect width="192" height="192" x="0" y="0" fill="#ffffff" opacity="0"/><use xmlns:ns3="http://www.w3.org/1999/xlink" ns3:href="#__lottie_element_5690"/></g></mask></defs><g clip-path="url(#__lottie_element_5680)"><g clip-path="url(#__lottie_element_5682)" transform="matrix(1,0,0,1,0,0)" opacity="1" style="display: block;"><g transform="matrix(1,0,0,1,111.98999786376953,147.8590087890625)" opacity="1" style="display: block;"><g opacity="1" transform="matrix(1,0,0,1,0,0)"><path stroke-linecap="round" stroke-linejoin="round" fill-opacity="0" class="primary" stroke="rgb(42,48,107)" stroke-opacity="1" stroke-width="3" d=" M-8.765999794006348,35.40700149536133 C17.22100067138672,-1.0080000162124634 -4.040999889373779,-15.991000175476074 8.765999794006348,-35.40700149536133"/></g></g><g transform="matrix(1,0,0,0.8199999928474426,120.98999786376953,146.40573120117188)" opacity="1" style="display: block;"><g opacity="1" transform="matrix(1,0,0,1,0,0)"><path stroke-linecap="round" stroke-linejoin="round" fill-opacity="0" class="primary" stroke="rgb(42,48,107)" stroke-opacity="1" stroke-width="2" d=" M5.000999927520752,-1.1399999856948853 C5.296000003814697,-12.291999816894531 2.5239999294281006,-20.95599937438965 6.017000198364258,-30.100000381469727"/></g></g><g transform="matrix(-1,0,0,1,139.3509979248047,68.03900146484375)" opacity="1" style="display: block;"><g opacity="1" transform="matrix(0.9193758368492126,-0.39338037371635437,0.39338037371635437,0.9193758368492126,-8.425000190734863,2.4019999504089355)"><path stroke-linecap="round" stroke-linejoin="round" fill-opacity="0" class="secondary" stroke="rgb(230,142,110)" stroke-opacity="1" stroke-width="1" d=" M-29.222999572753906,-10.315999984741211 C-27.823999404907227,-28.14900016784668 -17.086999893188477,-37.47700119018555 -0.3100000023841858,-37.79199981689453 C17.40999984741211,-38.125 28.176000595092773,-24.541000366210938 29.253999710083008,-10.10099983215332 C30.29199981689453,3.7960000038146973 25.952999114990234,38.0369987487793 0.9909999966621399,37.797000885009766 C-20.229000091552734,37.59199905395508 -30.889999389648438,10.928999900817871 -29.222999572753906,-10.315999984741211z"/><path class="secondary" fill="rgb(230,142,110)" fill-opacity="1" d=" M-29.222999572753906,-10.315999984741211 C-27.823999404907227,-28.14900016784668 -17.086999893188477,-37.47700119018555 -0.3100000023841858,-37.79199981689453 C17.40999984741211,-38.125 28.176000595092773,-24.541000366210938 29.253999710083008,-10.10099983215332 C30.29199981689453,3.7960000038146973 25.952999114990234,38.0369987487793 0.9909999966621399,37.797000885009766 C-20.229000091552734,37.59199905395508 -30.889999389648438,10.928999900817871 -29.222999572753906,-10.315999984741211z"/></g></g><g mask="url(#__lottie_element_5690_2)" style="display: block;"><g transform="matrix(-1,0,0,1,139.3509979248047,68.03900146484375)" opacity="1"><g opacity="1" transform="matrix(0.9193758368492126,-0.39338037371635437,0.39338037371635437,0.9193758368492126,16.200000762939453,39.38100051879883)"><path stroke-linecap="round" stroke-linejoin="round" fill-opacity="0" class="primary" stroke="rgb(42,48,107)" stroke-opacity="1" stroke-width="3" d=" M4.567999839782715,-4.632999897003174 C4.456999778747559,-4.521999835968018 4.551000118255615,-2.0759999752044678 5.706999778747559,2.4089999198913574 C7.060999870300293,7.664999961853027 -3.865000009536743,4.251999855041504 -5.794000148773193,2.365000009536743 C-6.090000152587891,2.075000047683716 -3.9609999656677246,-2.859999895095825 -3.4079999923706055,-5.208000183105469"/></g><g opacity="1" transform="matrix(0.9193758368492126,-0.39338037371635437,0.39338037371635437,0.9193758368492126,0,0)"><path stroke-linecap="round" stroke-linejoin="round" fill-opacity="0" class="primary" stroke="rgb(42,48,107)" stroke-opacity="1" stroke-width="2.998" d=" M-29.222999572753906,-10.315999984741211 C-27.823999404907227,-28.14900016784668 -17.086999893188477,-37.47700119018555 -0.3100000023841858,-37.79199981689453 C17.40999984741211,-38.125 28.176000595092773,-24.541000366210938 29.253999710083008,-10.10099983215332 C30.29199981689453,3.7960000038146973 25.952999114990234,38.0369987487793 0.9909999966621399,37.797000885009766 C-20.229000091552734,37.59199905395508 -30.889999389648438,10.928999900817871 -29.222999572753906,-10.315999984741211z"/></g></g></g><g transform="matrix(1,0,0,1,77.24600219726562,148.04299926757812)" opacity="1" style="display: block;"><g opacity="1" transform="matrix(0.9995163679122925,0.031096752732992172,-0.031096752732992172,0.9995163679122925,0,0)"><path stroke-linecap="round" stroke-linejoin="round" fill-opacity="0" class="primary" stroke="rgb(42,48,107)" stroke-opacity="1" stroke-width="3" d=" M-3.9040000438690186,34.417999267578125 C-9.907999992370605,18.336000442504883 4.361999988555908,10.883000373840332 5.25,-3.9570000171661377 C6.35699987411499,-22.450000762939453 -0.19599999487400055,-28.615999221801758 -5.294000148773193,-34.417999267578125"/></g></g><g transform="matrix(1,0,0,0.7400000095367432,68.24600219726562,147.19583129882812)" opacity="1" style="display: block;"><g opacity="1" transform="matrix(0.9995163679122925,0.031096752732992172,-0.031096752732992172,0.9995163679122925,0,0)"><path stroke-linecap="round" stroke-linejoin="round" fill-opacity="0" class="primary" stroke="rgb(42,48,107)" stroke-opacity="1" stroke-width="2" d=" M-0.38600000739097595,11.88700008392334 C2.193000078201294,7.116000175476074 4.880000114440918,2.2190001010894775 5.25,-3.9570000171661377 C5.992000102996826,-16.358999252319336 3.2899999618530273,-23.216999053955078 -0.10899999737739563,-28.138999938964844"/></g></g><g mask="url(#__lottie_element_5716_2)" style="display: block;"><g transform="matrix(-1,0,0,1,50.81300354003906,70.48300170898438)" opacity="1"><g opacity="1" transform="matrix(0.902675449848175,0.4303220510482788,-0.4303220510482788,0.902675449848175,-2.11299991607666,-7.434000015258789)"><path stroke-linecap="round" stroke-linejoin="round" fill-opacity="0" class="secondary" stroke="rgb(230,142,110)" stroke-opacity="1" stroke-width="1" d=" M-29.222999572753906,-10.315999984741211 C-27.823999404907227,-28.14900016784668 -17.086999893188477,-37.47700119018555 -0.3100000023841858,-37.79199981689453 C17.40999984741211,-38.125 28.176000595092773,-24.541000366210938 29.253999710083008,-10.10099983215332 C30.29199981689453,3.7960000038146973 25.952999114990234,38.0369987487793 0.9909999966621399,37.797000885009766 C-20.229000091552734,37.59199905395508 -30.889999389648438,10.928999900817871 -29.222999572753906,-10.315999984741211z"/><path class="secondary" fill="rgb(230,142,110)" fill-opacity="1" d=" M-29.222999572753906,-10.315999984741211 C-27.823999404907227,-28.14900016784668 -17.086999893188477,-37.47700119018555 -0.3100000023841858,-37.79199981689453 C17.40999984741211,-38.125 28.176000595092773,-24.541000366210938 29.253999710083008,-10.10099983215332 C30.29199981689453,3.7960000038146973 25.952999114990234,38.0369987487793 0.9909999966621399,37.797000885009766 C-20.229000091552734,37.59199905395508 -30.889999389648438,10.928999900817871 -29.222999572753906,-10.315999984741211z"/></g></g></g><g mask="url(#__lottie_element_5705_2)" style="display: block;"><g transform="matrix(-1,0,0,1,50.81300354003906,70.48300170898438)" opacity="1"><g opacity="1" transform="matrix(0.902675449848175,0.4303220510482788,-0.4303220510482788,0.902675449848175,-18.885000228881836,38.53900146484375)"><path stroke-linecap="round" stroke-linejoin="round" fill-opacity="0" class="primary" stroke="rgb(42,48,107)" stroke-opacity="1" stroke-width="3" d=" M4.567999839782715,-4.632999897003174 C4.456999778747559,-4.521999835968018 4.551000118255615,-2.0759999752044678 5.706999778747559,2.4089999198913574 C7.060999870300293,7.664999961853027 -3.865000009536743,4.251999855041504 -5.794000148773193,2.365000009536743 C-6.090000152587891,2.075000047683716 -3.9609999656677246,-2.859999895095825 -3.4079999923706055,-5.208000183105469"/></g><g opacity="1" transform="matrix(0.902675449848175,0.4303220510482788,-0.4303220510482788,0.902675449848175,0,0)"><path stroke-linecap="round" stroke-linejoin="round" fill-opacity="0" class="primary" stroke="rgb(42,48,107)" stroke-opacity="1" stroke-width="2.998" d=" M-29.222999572753906,-10.315999984741211 C-27.823999404907227,-28.14900016784668 -17.086999893188477,-37.47700119018555 -0.3100000023841858,-37.79199981689453 C17.40999984741211,-38.125 28.176000595092773,-24.541000366210938 29.253999710083008,-10.10099983215332 C30.29199981689453,3.7960000038146973 25.952999114990234,38.0369987487793 0.9909999966621399,37.797000885009766 C-20.229000091552734,37.59199905395508 -30.889999389648438,10.928999900817871 -29.222999572753906,-10.315999984741211z"/></g></g></g><g transform="matrix(1,0,0,1,94.94500732421875,126.28700256347656)" opacity="1" style="display: block;"><g opacity="1" transform="matrix(1,0,0,1,0,0)"><path stroke-linecap="round" stroke-linejoin="round" fill-opacity="0" class="primary" stroke="rgb(42,48,107)" stroke-opacity="1" stroke-width="3" d=" M-4.195000171661377,30.509000778198242 C-2.4100000858306885,25.155000686645508 0.6990000009536743,20.408000946044922 2.4830000400543213,15.055000305175781 C5.122000217437744,7.138999938964844 4.209000110626221,-1.4739999771118164 3.055000066757202,-9.555000305175781 C2.1570000648498535,-15.83899974822998 -1.2309999465942383,-23.20400047302246 -1.7680000066757202,-30.509000778198242"/></g></g><g transform="matrix(1,0,0,1,93.41000366210938,47.483001708984375)" opacity="1" style="display: block;"><g opacity="1" transform="matrix(1,0,0,1,-0.10999999940395355,42.4739990234375)"><path stroke-linecap="round" stroke-linejoin="round" fill-opacity="0" class="primary" stroke="rgb(42,48,107)" stroke-opacity="1" stroke-width="3" d=" M4.567999839782715,-4.632999897003174 C4.456999778747559,-4.521999835968018 4.551000118255615,-2.0759999752044678 5.706999778747559,2.4089999198913574 C7.060999870300293,7.664999961853027 -3.865000009536743,4.251999855041504 -5.794000148773193,2.365000009536743 C-6.090000152587891,2.075000047683716 -3.9609999656677246,-2.859999895095825 -3.4079999923706055,-5.208000183105469"/></g><g opacity="1" transform="matrix(1,0,0,1,0,0)"><path stroke-linecap="round" stroke-linejoin="round" fill-opacity="0" class="primary" stroke="rgb(42,48,107)" stroke-opacity="1" stroke-width="2.998" d=" M-29.222999572753906,-10.315999984741211 C-27.823999404907227,-28.14900016784668 -17.086999893188477,-37.47700119018555 -0.3100000023841858,-37.79199981689453 C17.40999984741211,-38.125 28.176000595092773,-24.541000366210938 29.253999710083008,-10.10099983215332 C30.29199981689453,3.7960000038146973 25.952999114990234,38.0369987487793 0.9909999966621399,37.797000885009766 C-20.229000091552734,37.59199905395508 -30.889999389648438,10.928000450134277 -29.222999572753906,-10.315999984741211z"/></g></g><g transform="matrix(1,0,0,1,113,81.5)" opacity="1" style="display: block;"><g opacity="1" transform="matrix(1,0,0,1,0,0)"><path stroke-linecap="round" stroke-linejoin="round" fill-opacity="0" class="primary" stroke="rgb(42,48,107)" stroke-opacity="1" stroke-width="2" d=" M-0.19200000166893005,-24.94700050354004 C-2.0889999866485596,-16.849000930786133 -6.071000099182129,-10.836999893188477 -11.477999687194824,-7.8480000495910645"/></g></g><g transform="matrix(1,0,0,1,80.54900360107422,50.93800354003906)" opacity="1" style="display: block;"><g opacity="1" transform="matrix(1,0,0,1,0,0)"><path stroke-linecap="round" stroke-linejoin="round" fill-opacity="0" class="primary" stroke="rgb(42,48,107)" stroke-opacity="1" stroke-width="2" d=" M-6.360000133514404,-17.448999404907227 C-8.678999900817871,-8.515999794006348 -7.479000091552734,2.4509999752044678 -4.124000072479248,10.975000381469727"/></g></g><g transform="matrix(1,0,0,1,80.54900360107422,50.93800354003906)" opacity="1" style="display: block;"><g opacity="1" transform="matrix(1,0,0,1,0,0)"><path stroke-linecap="round" stroke-linejoin="round" fill-opacity="0" class="primary" stroke="rgb(42,48,107)" stroke-opacity="1" stroke-width="2" d=" M6.552999973297119,-32.65999984741211 C1.0870000123977661,-30.881999969482422 -2.5969998836517334,-26.93600082397461 -4.826000213623047,-21.89900016784668"/></g></g><g transform="matrix(1,0,0,1,18.145004272460938,50.78900146484375)" opacity="1" style="display: block;"><g opacity="1" transform="matrix(1,0,0,1,0,0)"><path stroke-linecap="round" stroke-linejoin="round" fill-opacity="0" class="primary" stroke="rgb(42,48,107)" stroke-opacity="1" stroke-width="2" d=" M-9.381999969482422,21.305999755859375 C-9.508000373840332,20.65999984741211 -9.618000030517578,20.013999938964844 -9.713000297546387,19.3700008392334 C-12.253000259399414,2.11299991607666 -8.244000434875488,-12.670000076293945 10.402000427246094,-19.3700008392334"/></g></g><g transform="matrix(1,0,0,1,154.46099853515625,32.621002197265625)" opacity="1" style="display: block;"><g opacity="1" transform="matrix(1,0,0,1,0,0)"><path stroke-linecap="round" stroke-linejoin="round" fill-opacity="0" class="primary" stroke="rgb(42,48,107)" stroke-opacity="1" stroke-width="2" d=" M-11.6850004196167,-10.85200023651123 C-16.222999572753906,-10.510000228881836 -20.332000732421875,-9.312999725341797 -23.398000717163086,-7.39300012588501"/></g></g><g transform="matrix(1,0,0,1,154.46099853515625,32.621002197265625)" opacity="1" style="display: block;"><g opacity="1" transform="matrix(1,0,0,1,0,0)"><path stroke-linecap="round" stroke-linejoin="round" fill-opacity="0" class="primary" stroke="rgb(42,48,107)" stroke-opacity="1" stroke-width="2" d=" M23.548999786376953,10.755000114440918 C19.1299991607666,-2.7160000801086426 7.114999771118164,-9.281999588012695 -4.302000045776367,-10.670999526977539"/></g></g><g transform="matrix(-1,0,0,1,46.08900451660156,92.3550033569336)" opacity="1" style="display: block;"><g opacity="1" transform="matrix(0.902675449848175,0.4303220510482788,-0.4303220510482788,0.902675449848175,0,0)"><path stroke-linecap="round" stroke-linejoin="round" fill-opacity="0" class="primary" stroke="rgb(42,48,107)" stroke-opacity="1" stroke-width="2" d=" M5.88100004196167,-8.843000411987305 C5.359000205993652,-6.949999809265137 4.703999996185303,-5.118000030517578 3.9170000553131104,-3.384000062942505 C1.0379999876022339,2.9609999656677246 -2.306999921798706,6.775000095367432 -5.943999767303467,8.817999839782715"/></g></g><g transform="matrix(1,0,0,1,155.6959991455078,66.00900268554688)" opacity="1" style="display: block;"><g opacity="1" transform="matrix(1,0,0,1,0,0)"><path stroke-linecap="round" stroke-linejoin="round" fill-opacity="0" class="primary" stroke="rgb(42,48,107)" stroke-opacity="1" stroke-width="2" d=" M7.270999908447266,-7.01200008392334 C7.427999973297119,-13.10200023651123 5.551000118255615,-18.624000549316406 0.847000002861023,-22.1299991607666"/></g></g><g transform="matrix(1,0,0,1,155.6959991455078,66.00900268554688)" opacity="1" style="display: block;"><g opacity="1" transform="matrix(1,0,0,1,0,0)"><path stroke-linecap="round" stroke-linejoin="round" fill-opacity="0" class="primary" stroke="rgb(42,48,107)" stroke-opacity="1" stroke-width="2" d=" M-6.125999927520752,20.920000076293945 C-0.08399999886751175,15.553999900817871 4.702000141143799,7.211999893188477 6.505000114440918,-0.9620000123977661"/></g></g></g></g></svg>