<svg xmlns="http://www.w3.org/2000/svg" xmlns:xlink="http://www.w3.org/1999/xlink" viewBox="0 0 192 192" width="192" height="192" preserveAspectRatio="xMidYMid meet" style="width: 100%; height: 100%; transform: translate3d(0px, 0px, 0px); content-visibility: visible;"><defs><clipPath id="__lottie_element_5513"><rect width="192" height="192" x="0" y="0"/></clipPath><clipPath id="__lottie_element_5515"><path d="M0,0 L192,0 L192,192 L0,192z"/></clipPath></defs><g clip-path="url(#__lottie_element_5513)"><g clip-path="url(#__lottie_element_5515)" transform="matrix(1,0,0,1,0,0)" opacity="1" style="display: block;"><g transform="matrix(0.998450517654419,-0.05564645305275917,0.05564645305275917,0.998450517654419,74.09925079345703,128.20388793945312)" opacity="1" style="display: block;"><g opacity="1" transform="matrix(1,0,0,1,0,0)"><path class="secondary" fill="rgb(230,142,110)" fill-opacity="1" d=" M-16.18199920654297,-40.17599868774414 C-14.6899995803833,-42.68000030517578 -11.800999641418457,-41.20600128173828 -10.965999603271484,-39.46099853515625 C2.984999895095825,-10.32800006866455 26.024999618530273,1.4730000495910645 38.180999755859375,5.697999954223633 C46.19300079345703,8.482999801635742 45.479000091552734,13.612000465393066 40.529998779296875,16.229999542236328 C27.204999923706055,23.280000686645508 0.43299999833106995,35.72700119018555 -9.42199993133545,39.012001037597656 C-18.281999588012695,41.96500015258789 -35.81100082397461,43.70800018310547 -41.78900146484375,35.930999755859375 C-52.45600128173828,22.054000854492188 -25.33300018310547,-24.816999435424805 -16.18199920654297,-40.17599868774414z"/></g></g><g transform="matrix(0.998450517654419,-0.05564645305275917,0.05564645305275917,0.998450517654419,-4.3231353759765625,2.4479598999023438)" opacity="1" style="display: block;"><g opacity="1" transform="matrix(1,0,0,1,93.16200256347656,100.02300262451172)"><g opacity="1" transform="matrix(1,0,0,1,0,0)"><path stroke-linecap="round" stroke-linejoin="round" fill-opacity="0" class="primary" stroke="rgb(42,48,107)" stroke-opacity="1" stroke-width="3" d=" M-32.249000549316406,-27.988000869750977 C-32.249000549316406,-30.75200080871582 -31.114999771118164,-33.71699905395508 -27.9060001373291,-33.99300003051758 C-21.611000061035156,-34.53499984741211 -13.854000091552734,-29.59600067138672 -9.67300033569336,-26.66900062561035 C4.436999797821045,-16.79199981689453 15.619000434875488,-2.878000020980835 25.070999145507812,11.300000190734863 C28.152999877929688,15.92199993133545 30.832000732421875,20.900999069213867 31.961000442504883,26.547000885009766 C32.358001708984375,28.531999588012695 32.65599822998047,32.09400177001953 30.642000198364258,33.4370002746582 C27.864999771118164,35.28799819946289 22.31999969482422,32.354000091552734 19.79400062561035,31.090999603271484 C9.692999839782715,26.041000366210938 0.1770000010728836,19.29800033569336 -8.352999687194824,11.300000190734863 C-11.512999534606934,8.338000297546387 -14.342000007629395,5.083000183105469 -17.29599952697754,1.9179999828338623 C-20.85099983215332,-1.8910000324249268 -24.156999588012695,-6.591000080108643 -26.67799949645996,-11.128999710083008 C-29.454999923706055,-16.128000259399414 -32.249000549316406,-22.16200065612793 -32.249000549316406,-27.988000869750977z"/></g></g><g opacity="1" transform="matrix(1,0,0,1,70.30000305175781,120.2249984741211)"><g opacity="1" transform="matrix(1,0,0,1,0,0)"><path stroke-linecap="round" stroke-linejoin="round" fill-opacity="0" class="primary" stroke="rgb(42,48,107)" stroke-opacity="1" stroke-width="3" d=" M52.641998291015625,13.831000328063965 C51.76499938964844,16.013999938964844 -31.902999877929688,61.972999572753906 -47.650001525878906,50.763999938964844 C-68.25900268554688,36.09299850463867 -19.086999893188477,-38.374000549316406 -8.302000045776367,-52.52199935913086"/></g></g></g><g transform="matrix(0.998450517654419,-0.05564645305275917,0.05564645305275917,0.998450517654419,-4.3231353759765625,2.4479598999023438)" opacity="1" style="display: block;"><g opacity="1" transform="matrix(1,0,0,1,65.95099639892578,172.656005859375)"><g opacity="1" transform="matrix(1,0,0,1,0,0)"><path stroke-linecap="round" stroke-linejoin="round" fill-opacity="0" class="primary" stroke-dasharray=" 35 7" stroke-dashoffset="5.531838417053223" stroke="rgb(42,48,107)" stroke-opacity="1" stroke-width="2" d=" M-8.888999938964844,-77.00399780273438 C-19.618000030517578,-65.65599822998047 -30.950000762939453,-41.65599822998047 -36.111000061035156,-29.996000289916992"/></g></g></g><g transform="matrix(0.998450517654419,-0.05564645305275917,0.05564645305275917,0.998450517654419,-4.3231353759765625,2.4479598999023438)" opacity="1" style="display: block;"><g opacity="1" transform="matrix(1,0,0,1,65.95099639892578,172.656005859375)"><g opacity="1" transform="matrix(1,0,0,1,0,0)"><path stroke-linecap="round" stroke-linejoin="round" fill-opacity="0" class="primary" stroke-dasharray=" 46 7" stroke-dashoffset="0" stroke="rgb(42,48,107)" stroke-opacity="1" stroke-width="2" d=" M53.457000732421875,-23.83099937438965 C38.229000091552734,-12.699999809265137 -4.686999797821045,1.690999984741211 -8.777999877929688,3.003999948501587"/></g></g></g><g transform="matrix(1,0,0,1,110.66100311279297,69.05500030517578)" opacity="1" style="display: block;"><g opacity="1" transform="matrix(1,0,0,1,0,0)"><path stroke-linecap="round" stroke-linejoin="round" fill-opacity="0" class="primary" stroke="rgb(42,48,107)" stroke-opacity="1" stroke-width="2" d=" M24.04400062561035,-36.444000244140625 C22.611000061035156,-33.81100082397461 21.326000213623047,-30.54800033569336 20.131999969482422,-26.7810001373291 C18.344999313354492,-21.142000198364258 5.736000061035156,-0.2199999988079071 -7.019999980926514,14.477999687194824"/></g></g><g transform="matrix(1,0,0,1,86.64800262451172,55.702999114990234)" opacity="1" style="display: block;"><g opacity="1" transform="matrix(1,0,0,1,0,0)"><path stroke-linecap="round" stroke-linejoin="round" fill-opacity="0" class="primary" stroke="rgb(42,48,107)" stroke-opacity="1" stroke-width="2" d=" M8.074000358581543,-32.15700149536133 C7.574999809265137,-29.77199935913086 7.343999862670898,-27.072999954223633 7.429999828338623,-24.040000915527344 C7.885000228881836,-8.04800033569336 10.418999671936035,-0.5580000281333923 3.572999954223633,10.258000373840332"/></g></g><g transform="matrix(1,0,0,1,143.26600646972656,73.50700378417969)" opacity="1" style="display: block;"><g opacity="1" transform="matrix(1,0,0,1,0,0)"><path stroke-linecap="round" stroke-linejoin="round" fill-opacity="0" class="primary" stroke="rgb(42,48,107)" stroke-opacity="1" stroke-width="2" d=" M36.000999450683594,-7.10099983215332 C29.742000579833984,-2.549999952316284 27.711999893188477,-13.494999885559082 20.614999771118164,-11.621999740600586 C12.461000442504883,-9.470000267028809 25.80900001525879,0.9319999814033508 13.64900016784668,2.75 C8.28600025177002,3.5510001182556152 7.906000137329102,-3.8320000171661377 2.4100000858306885,-1.3650000095367432 C-0.18400000035762787,-0.20000000298023224 0.03799999877810478,7.495999813079834 -3.947999954223633,9.09000015258789 C-8.697999954223633,10.989999771118164 -9.506999969482422,4.440000057220459 -12.28499984741211,1.5820000171661377"/></g></g><g transform="matrix(1,0,0,1,78.31600189208984,31.27199935913086)" opacity="1" style="display: block;"><g opacity="1" transform="matrix(1,0,0,1,0,0)"><path stroke-linecap="round" stroke-linejoin="round" fill-opacity="0" class="primary" stroke="rgb(42,48,107)" stroke-opacity="1" stroke-width="2" d=" M4.445000171661377,14.904999732971191 C4.216000080108643,14.32699966430664 3.9630000591278076,13.87399959564209 3.7760000228881836,13.656000137329102 C1.9850000143051147,11.567000389099121 -5.688000202178955,10.866999626159668 -4.980000019073486,7.089000225067139 C-4.015999794006348,1.9420000314712524 2.9590001106262207,6.936999797821045 4.50600004196167,2.2730000019073486 C5.642000198364258,-1.1510000228881836 1.0269999504089355,-3.6429998874664307 -0.6019999980926514,-6.629000186920166 C-2.9040000438690186,-10.848999977111816 -1.6890000104904175,-18.433000564575195 2.6589999198913574,-20.94300079345703 C2.6589999198913574,-20.94300079345703 4.696000099182129,-22.739999771118164 9.741999626159668,-22.20599937438965"/></g></g><g transform="matrix(1,0,0,1,170.8260498046875,96.93824005126953)" opacity="1" style="display: block;"><g opacity="1" transform="matrix(1,0,0,1,0,0)"><path stroke-linecap="round" stroke-linejoin="round" fill-opacity="0" class="secondary" stroke="rgb(230,142,110)" stroke-opacity="1" stroke-width="1" d=" M-2.312000036239624,5.184999942779541 C-7.913000106811523,4.497000217437744 -5.765999794006348,-5.752999782562256 0.13300000131130219,-5.235000133514404 C9.16100025177002,-4.440999984741211 5.9710001945495605,6.202000141143799 -2.312000036239624,5.184999942779541z"/><path class="secondary" fill="rgb(230,142,110)" fill-opacity="1" d=" M-2.312000036239624,5.184999942779541 C-7.913000106811523,4.497000217437744 -5.765999794006348,-5.752999782562256 0.13300000131130219,-5.235000133514404 C9.16100025177002,-4.440999984741211 5.9710001945495605,6.202000141143799 -2.312000036239624,5.184999942779541z"/></g></g><g transform="matrix(1,0,0,1,170.8260498046875,100.68824005126953)" opacity="1" style="display: block;"><g opacity="1" transform="matrix(1,0,0,1,0,0)"><path stroke-linecap="round" stroke-linejoin="round" fill-opacity="0" class="primary" stroke="rgb(42,48,107)" stroke-opacity="1" stroke-width="2" d=" M-2.312000036239624,5.184999942779541 C-7.913000106811523,4.497000217437744 -5.765999794006348,-5.752999782562256 0.13300000131130219,-5.235000133514404 C9.16100025177002,-4.440999984741211 5.9710001945495605,6.202000141143799 -2.312000036239624,5.184999942779541z"/></g></g><g transform="matrix(1,0,0,1,140.9954071044922,97.87874603271484)" opacity="1" style="display: block;"><g opacity="1" transform="matrix(1,0,0,1,0,0)"><path stroke-linecap="round" stroke-linejoin="round" fill-opacity="0" class="secondary" stroke="rgb(230,142,110)" stroke-opacity="1" stroke-width="1" d=" M-6.004000186920166,-0.335999995470047 C-6.166999816894531,-5.47599983215332 3.4739999771118164,-6.456999778747559 5.328000068664551,-2.124000072479248 C9.345999717712402,7.264999866485596 -5.7870001792907715,6.492000102996826 -6.004000186920166,-0.335999995470047z"/><path class="secondary" fill="rgb(230,142,110)" fill-opacity="1" d=" M-6.004000186920166,-0.335999995470047 C-6.166999816894531,-5.47599983215332 3.4739999771118164,-6.456999778747559 5.328000068664551,-2.124000072479248 C9.345999717712402,7.264999866485596 -5.7870001792907715,6.492000102996826 -6.004000186920166,-0.335999995470047z"/></g></g><g transform="matrix(1,0,0,1,138.4954071044922,95.37874603271484)" opacity="1" style="display: block;"><g opacity="1" transform="matrix(1,0,0,1,0,0)"><path stroke-linecap="round" stroke-linejoin="round" fill-opacity="0" class="primary" stroke="rgb(42,48,107)" stroke-opacity="1" stroke-width="2" d=" M-6.004000186920166,-0.335999995470047 C-6.166999816894531,-5.47599983215332 3.4739999771118164,-6.456999778747559 5.328000068664551,-2.124000072479248 C9.345999717712402,7.264999866485596 -5.7870001792907715,6.492000102996826 -6.004000186920166,-0.335999995470047z"/></g></g><g transform="matrix(1,0,0,1,153.5900421142578,137.1507110595703)" opacity="1" style="display: block;"><g opacity="1" transform="matrix(1,0,0,1,0,0)"><path stroke-linecap="round" stroke-linejoin="round" fill-opacity="0" class="primary" stroke="rgb(42,48,107)" stroke-opacity="1" stroke-width="2" d=" M0.847000002861023,3.63100004196167 C-4.945000171661377,4.23799991607666 -5.511000156402588,-3.6649999618530273 0.11699999868869781,-3.6649999618530273 C4.252999782562256,-3.6649999618530273 5.48799991607666,3.1449999809265137 0.847000002861023,3.63100004196167z"/></g></g><g transform="matrix(1,0,0,1,148.39540100097656,19.60660743713379)" opacity="1" style="display: block;"><g opacity="1" transform="matrix(1,0,0,1,0,0)"><path stroke-linecap="round" stroke-linejoin="round" fill-opacity="0" class="secondary" stroke="rgb(230,142,110)" stroke-opacity="1" stroke-width="1" d=" M1.4589999914169312,4.355999946594238 C-4.794000148773193,5.728000164031982 -7.327000141143799,-3.252000093460083 0.16099999845027924,-4.428999900817871 C6.14300012588501,-5.369999885559082 5.158999919891357,3.5450000762939453 1.4589999914169312,4.355999946594238z"/><path class="secondary" fill="rgb(230,142,110)" fill-opacity="1" d=" M1.4589999914169312,4.355999946594238 C-4.794000148773193,5.728000164031982 -7.327000141143799,-3.252000093460083 0.16099999845027924,-4.428999900817871 C6.14300012588501,-5.369999885559082 5.158999919891357,3.5450000762939453 1.4589999914169312,4.355999946594238z"/></g></g><g transform="matrix(1,0,0,1,146.52040100097656,21.48160743713379)" opacity="1" style="display: block;"><g opacity="1" transform="matrix(1,0,0,1,0,0)"><path stroke-linecap="round" stroke-linejoin="round" fill-opacity="0" class="primary" stroke="rgb(42,48,107)" stroke-opacity="1" stroke-width="2" d=" M1.4589999914169312,4.355999946594238 C-4.794000148773193,5.728000164031982 -7.327000141143799,-3.252000093460083 0.16099999845027924,-4.428999900817871 C6.14300012588501,-5.369999885559082 5.158999919891357,3.5450000762939453 1.4589999914169312,4.355999946594238z"/></g></g><g transform="matrix(1,0,0,1,59.088375091552734,33.86375427246094)" opacity="1" style="display: block;"><g opacity="1" transform="matrix(1,0,0,1,0,0)"><path stroke-linecap="round" stroke-linejoin="round" fill-opacity="0" class="secondary" stroke="rgb(230,142,110)" stroke-opacity="1" stroke-width="1" d=" M3.1419999599456787,4.809999942779541 C-0.8939999938011169,8.329000473022461 -9.25100040435791,0.6919999718666077 -3.6489999294281006,-4.126999855041504 C2.381999969482422,-9.315999984741211 9.246000289916992,-0.5109999775886536 3.1419999599456787,4.809999942779541z"/><path class="secondary" fill="rgb(230,142,110)" fill-opacity="1" d=" M3.1419999599456787,4.809999942779541 C-0.8939999938011169,8.329000473022461 -9.25100040435791,0.6919999718666077 -3.6489999294281006,-4.126999855041504 C2.381999969482422,-9.315999984741211 9.246000289916992,-0.5109999775886536 3.1419999599456787,4.809999942779541z"/></g></g><g transform="matrix(1,0,0,1,55.713375091552734,36.36375427246094)" opacity="1" style="display: block;"><g opacity="1" transform="matrix(1,0,0,1,0,0)"><path stroke-linecap="round" stroke-linejoin="round" fill-opacity="0" class="primary" stroke="rgb(42,48,107)" stroke-opacity="1" stroke-width="2" d=" M3.1419999599456787,4.809999942779541 C-0.8939999938011169,8.329000473022461 -9.25100040435791,0.6919999718666077 -3.6489999294281006,-4.126999855041504 C2.381999969482422,-9.315999984741211 9.246000289916992,-0.5109999775886536 3.1419999599456787,4.809999942779541z"/></g></g><g transform="matrix(1,0,0,1,0,0)" opacity="1" style="display: block;"><g opacity="1" transform="matrix(1,0,0,1,129.01100158691406,114.2959976196289)"><g opacity="1" transform="matrix(1,0,0,1,0,0)"><path stroke-linecap="round" stroke-linejoin="round" fill-opacity="0" class="primary" stroke-dasharray=" 37 5" stroke-dashoffset="0" stroke="rgb(42,48,107)" stroke-opacity="1" stroke-width="2" d=" M-9.508999824523926,-1.4620000123977661 C-3.9260001182556152,-2.6700000762939453 4.827000141143799,-2.9059998989105225 17.417999267578125,0.6819999814033508 C27.83099937438965,3.6489999294281006 35.10300064086914,5.889999866485596 40.441001892089844,7.348999977111816"/></g></g></g><g transform="matrix(1,0,0,1,0,0)" opacity="1" style="display: block;"><g opacity="1" transform="matrix(1,0,0,1,129.01100158691406,114.2959976196289)"><g opacity="1" transform="matrix(1,0,0,1,0,0)"><path stroke-linecap="round" stroke-linejoin="round" fill-opacity="0" class="primary" stroke-dasharray=" 37 5" stroke-dashoffset="50" stroke="rgb(42,48,107)" stroke-opacity="1" stroke-width="2" d="M0 0"/></g></g></g></g></g></svg>