<svg xmlns="http://www.w3.org/2000/svg" width="192" height="192" style="width:100%;height:100%;transform:translate3d(0,0,0);content-visibility:visible" viewBox="0 0 192 192"><defs><clipPath id="b"><path d="M0 0h192v192H0z"/></clipPath><clipPath id="e"><path d="M0 0h192v192H0z"/></clipPath><clipPath id="d"><path d="M0 0h192v192H0z"/></clipPath><clipPath id="c"><path d="M0 0h192v192H0z"/></clipPath><mask id="f" mask-type="alpha"><use xmlns:ns1="http://www.w3.org/1999/xlink" ns1:href="#a"/></mask><g id="a" style="display:none"><path/><path/><path/><path/><path/><path/><path/><path/><path/><path/></g></defs><g clip-path="url(#b)"><g clip-path="url(#c)" style="display:none"><g style="display:none"><path class="secondary"/><path fill="none" class="secondary"/></g><path fill="none" class="primary" style="display:none"/><g style="display:none"><path class="primary"/><path fill="none" class="primary"/></g><g style="display:none"><path class="primary"/><path fill="none" class="primary"/></g><g style="display:none"><path class="primary"/><path fill="none" class="primary"/></g><path fill="none" class="primary" style="display:none"/><path fill="none" class="primary" style="display:none"/><path fill="none" class="primary" style="display:none"/><path fill="none" class="primary" style="display:none"/></g><g clip-path="url(#d)" style="display:block"><g style="display:block"><path fill="#E68E6D" d="M82.696 68.522c-3.712.026-6.159 1.375-6.168 3.23-.023 4.507.027 12.789.083 17.189.021 1.634 2.257 3.033 3.87 3.004.886-.016 36.9.006 48.329.011 2.039.001 5.032-1.183 5.097-3.025.159-4.521.078-12.971.027-17.382-.017-1.453-1.911-2.879-4.988-2.923-10.476-.15-34.84-.185-46.25-.104" class="secondary"/><path fill="none" stroke="#E68E6D" stroke-linecap="round" stroke-linejoin="round" d="M82.696 68.522c-3.712.026-6.159 1.375-6.168 3.23-.023 4.507.027 12.789.083 17.189.021 1.634 2.257 3.033 3.87 3.004.886-.016 36.9.006 48.329.011 2.039.001 5.032-1.183 5.097-3.025.159-4.521.078-12.971.027-17.382-.017-1.453-1.911-2.879-4.988-2.923-10.476-.15-34.84-.185-46.25-.104" class="secondary"/></g><path fill="none" stroke="#2A2F6B" stroke-linecap="round" stroke-linejoin="round" stroke-width="3" d="M58.087-69.023c9.557.125 15.856 6.525 15.88 15.322.058 21.382-.071 60.671-.216 81.541-.053 7.75-5.811 14.388-9.962 14.252-2.28-.075-4.126-.099-4.378.16-.761.777 1.582 26.336.957 26.961-.636.638-22.136-26.775-27.248-26.884-3.713-.08-64.32-.207-93.742-.185-5.249.004-12.953-5.616-13.119-14.352-.408-21.448-.201-61.533-.069-82.458.043-6.891 4.917-13.651 12.838-13.861 26.967-.714 89.687-.88 119.059-.496" class="primary" style="display:block" transform="matrix(-1 0 0 1 95.86 102.766)"/><g style="display:block"><path fill="#2A2F6B" d="M76.772 95.715c1.741 0 3.152-1.347 3.152-3.008q0-.1-.007-.197c-.106-1.569-1.473-2.811-3.145-2.811-1.673 0-3.042 1.244-3.146 2.815a3 3 0 0 0-.006.193c0 1.661 1.411 3.008 3.152 3.008" class="primary"/><path fill="none" stroke="#2A2F6B" stroke-linecap="round" stroke-linejoin="round" stroke-width="2" d="M76.772 95.715c1.741 0 3.152-1.347 3.152-3.008q0-.1-.007-.197c-.106-1.569-1.473-2.811-3.145-2.811-1.673 0-3.042 1.244-3.146 2.815a3 3 0 0 0-.006.193c0 1.661 1.411 3.008 3.152 3.008" class="primary"/></g><g style="display:block"><path fill="#2A2F6B" d="M95.32 95.533c1.741 0 3.152-1.347 3.152-3.008q0-.093-.006-.184c-.099-1.576-1.47-2.824-3.146-2.824s-3.046 1.248-3.146 2.824a3 3 0 0 0-.006.184c0 1.661 1.411 3.008 3.152 3.008" class="primary"/><path fill="none" stroke="#2A2F6B" stroke-linecap="round" stroke-linejoin="round" stroke-width="2" d="M95.32 95.533c1.741 0 3.152-1.347 3.152-3.008q0-.093-.006-.184c-.099-1.576-1.47-2.824-3.146-2.824s-3.046 1.248-3.146 2.824a3 3 0 0 0-.006.184c0 1.661 1.411 3.008 3.152 3.008" class="primary"/></g><g style="display:block"><path fill="#2A2F6B" d="M113.016 95.546c1.741 0 3.152-1.347 3.152-3.008a3 3 0 0 0-.007-.196c-.106-1.57-1.473-2.812-3.145-2.812-1.676 0-3.047 1.249-3.146 2.825q-.006.09-.006.183c0 1.661 1.411 3.008 3.152 3.008" class="primary"/><path fill="none" stroke="#2A2F6B" stroke-linecap="round" stroke-linejoin="round" stroke-width="2" d="M113.016 95.546c1.741 0 3.152-1.347 3.152-3.008a3 3 0 0 0-.007-.196c-.106-1.57-1.473-2.812-3.145-2.812-1.676 0-3.047 1.249-3.146 2.825q-.006.09-.006.183c0 1.661 1.411 3.008 3.152 3.008" class="primary"/></g><path fill="none" stroke="#2A2F6B" stroke-linecap="round" stroke-linejoin="round" stroke-width="2" d="M12.685 35.761c-1.702 0-2.849.001-3.07.006-5.022.106-14.309.362-17.776-.024-3.822-.424-3.94-7.094-4.003-11.181-.317-20.736.613-42.873.517-60.51" class="primary" style="display:block" transform="matrix(-1 0 0 1 143.603 95.347)"/><path fill="none" stroke="#2A2F6B" stroke-linecap="round" stroke-linejoin="round" stroke-width="2" d="M16.487 28.088c.469-15.207.048-28.471-.818-38.315-.614-6.966-6.343-13.1-13.026-15.932-4.138-1.754-9.826-1.993-16.131-1.916-.185.002-1.326.003-3.087.003" class="primary" style="display:block" transform="translate(165.988 48.463)"/><path fill="none" stroke="#2A2F6B" stroke-linecap="round" stroke-linejoin="round" stroke-width="2" d="M.043 16.473a49948 49948 0 0 0-.012-32.445" class="primary" style="display:block" transform="translate(9.325 51.409)"/><path fill="none" stroke="#2A2F6B" stroke-linecap="round" stroke-linejoin="round" stroke-width="2" d="M-.083 32.312c.06-23.588.136-54 .157-64.454" class="primary" style="display:block" transform="translate(9.231 108.88)"/><path fill="none" stroke="#2A2F6B" stroke-linecap="round" stroke-linejoin="round" stroke-width="2" d="M16.487 28.088c.469-15.207.048-28.471-.818-38.315-.614-6.966-6.343-13.1-13.026-15.932-4.138-1.754-9.826-1.993-16.131-1.916-.185.002-1.326.003-3.087.003" class="primary" style="display:none" transform="translate(165.988 48.463)"/><path fill="none" stroke="#2A2F6B" stroke-linecap="round" stroke-linejoin="round" stroke-width="2" d="M.043 16.473a49948 49948 0 0 0-.012-32.445" class="primary" style="display:none" transform="translate(9.325 51.409)"/><path fill="none" stroke="#2A2F6B" stroke-linecap="round" stroke-linejoin="round" stroke-width="2" d="M-.083 32.312c.06-23.588.136-54 .157-64.454" class="primary" style="display:none" transform="translate(9.231 108.88)"/></g><g clip-path="url(#e)" style="display:none"><g mask="url(#f)" style="display:none"><path class="secondary"/><path fill="none" class="secondary"/></g><path fill="none" class="primary" style="display:none"/><g style="display:none"><path class="primary"/><path fill="none" class="primary"/></g><g style="display:none"><path class="primary"/><path fill="none" class="primary"/></g><g style="display:none"><path class="primary"/><path fill="none" class="primary"/></g><path fill="none" class="primary" style="display:none"/><path fill="none" class="primary" style="display:none"/><path fill="none" class="primary" style="display:none"/><path fill="none" class="primary" style="display:none"/></g></g></svg>