<svg xmlns="http://www.w3.org/2000/svg" width="192" height="192" style="width:100%;height:100%;transform:translate3d(0,0,0);content-visibility:visible" viewBox="0 0 192 192"><defs><clipPath id="a"><path d="M0 0h192v192H0z"/></clipPath><clipPath id="e"><path d="M0 0h192v192H0z"/></clipPath><clipPath id="d"><path d="M0 0h192v192H0z"/></clipPath><clipPath id="c"><path d="M0 0h192v192H0z"/></clipPath><clipPath id="b"><path d="M0 0h192v192H0z"/></clipPath></defs><g clip-path="url(#a)"><g clip-path="url(#b)" style="display:none"><path fill="none" class="primary" style="display:none"/><path fill="none" class="primary" style="display:none"/><path fill="none" class="primary" style="display:none"/><path fill="none" class="primary" style="display:none"/><path fill="none" class="primary" style="display:none"/><g style="display:none"><path class="secondary"/><path fill="none" class="secondary"/></g><path fill="none" class="primary" style="display:none"/><path fill="none" class="primary" style="display:none"/><path fill="none" class="primary" style="display:none"/><path fill="none" class="primary" style="display:none"/></g><g clip-path="url(#c)" style="display:none"><path fill="none" class="primary" style="display:none"/><path fill="none" class="primary" style="display:none"/><path fill="none" class="primary" style="display:none"/><path fill="none" class="primary" style="display:none"/><path fill="none" class="primary" style="display:none"/><path fill="none" class="primary" style="display:none"/><g style="display:none"><path class="secondary"/><path fill="none" class="secondary"/></g><path fill="none" class="primary" style="display:none"/><path fill="none" class="primary" style="display:none"/><path fill="none" class="primary" style="display:none"/><g style="display:none"><path fill="none" class="secondary"/><path class="secondary"/></g><path fill="none" class="primary" style="display:none"/><path fill="none" class="primary" style="display:none"/><path fill="none" class="primary" style="display:none"/><path fill="none" class="primary" style="display:none"/></g><g clip-path="url(#d)" style="display:block"><path fill="none" stroke="#2A2F6B" stroke-linecap="round" stroke-linejoin="round" stroke-width="3" d="M-73.17 7.99c-3.904-37.855 20.962-77.077 64.983-81.797q0 0 0 0c1.42-.152 10.039-.367 14.135.129 21.258 2.574 61.162 14.77 67.103 66.749 5.017 43.896-27.127 74.832-62.901 80.147-19.195 2.853-40.27-2.278-55.664-14.737-16.9-13.677-25.741-31.919-27.656-50.491" class="primary" style="display:block" transform="translate(95.889 94.196)"/><path fill="none" stroke="#2A2F6B" stroke-linecap="round" stroke-linejoin="round" stroke-width="2" d="M10.798 58.588a63 63 0 0 1-2.06.341c-15.862 2.358-33.276-1.882-45.997-12.177C-79.69 12.414-60.638-56.759-6.414-62.563q0 0 0 0c1.173-.126 8.295-.303 11.68.107 17.566 2.127 50.541 12.205 55.45 55.157.736 6.437.504 12.537-.539 18.241" class="primary" style="display:block" transform="rotate(2 -2714.64 2802.133)"/><path fill="none" stroke="#2A2F6B" stroke-linecap="round" stroke-linejoin="round" stroke-width="2" d="M53.627 28.896c-8.42 14.715-23.008 24.934-39.074 28.887" class="primary" style="display:block" transform="rotate(-1 5545.757 -5517.546)"/><path fill="none" stroke="#2A2F6B" stroke-linecap="round" stroke-linejoin="round" stroke-width="2" d="M79.264 38.897c-5.501 12.014-13.73 22.252-23.66 30.326" class="primary" style="display:block" transform="translate(95.889 95.196)"/><path fill="none" stroke="#2A2F6B" stroke-linecap="round" stroke-linejoin="round" stroke-width="2" d="M-78.869-39.763c7.414-14.651 18.839-27.293 33.71-35.82" class="primary" style="display:block" transform="translate(97.389 95.696)"/><g style="display:block"><path fill="#E68E6D" d="M93.425 139.36c-1.132-1.132-23.713-40.734-24.19-41.559.994-1.013 9.09-8.668 9.65-8.107 1.477 1.477 11.58 19.945 11.967 19.558.945-.945 15.772-37.315 21.23-47.736.838-1.6 4.11-9.257 5.275-10.422.37-.369 16.084 5.396 16.084 5.404 0 .241-26.489 49.876-32.168 65.493-1.543 4.245-5.931 17.64-6.69 18.399-.415.415-1.026-.897-1.158-1.03" class="secondary"/><path fill="none" stroke="#E68E6D" stroke-linecap="round" stroke-linejoin="round" d="M93.425 139.36c-1.132-1.132-23.713-40.734-24.19-41.559.994-1.013 9.09-8.668 9.65-8.107 1.477 1.477 11.58 19.945 11.967 19.558.945-.945 15.772-37.315 21.23-47.736.838-1.6 4.11-9.257 5.275-10.422.37-.369 16.084 5.396 16.084 5.404 0 .241-26.489 49.876-32.168 65.493-1.543 4.245-5.931 17.64-6.69 18.399-.415.415-1.026-.897-1.158-1.03" class="secondary"/></g><path fill="none" stroke="#2A2F6B" stroke-linecap="round" stroke-linejoin="round" stroke-width="2.998" d="M-7.914 43.587c-1.132-1.133-23.713-40.735-24.189-41.56.993-1.013 9.089-8.668 9.65-8.107 1.476 1.477 11.579 19.945 11.966 19.558.945-.945 15.773-37.315 21.231-47.736.838-1.6 4.11-9.257 5.275-10.422.369-.369 16.084 5.396 16.084 5.404 0 .241-26.489 49.876-32.168 65.493-1.543 4.245-5.932 17.64-6.69 18.399-.416.415-1.027-.897-1.159-1.029" class="primary" style="display:block" transform="translate(95.089 95.774)"/><path fill="none" stroke="#2A2F6B" stroke-linecap="round" stroke-linejoin="round" stroke-width="2" d="M-8.388 18.168C-1.01 2.282 6.582-14.08 8.77-18.405" class="primary" style="display:block" transform="translate(124.889 82.645)"/><path fill="none" stroke="#2A2F6B" stroke-linecap="round" stroke-linejoin="round" stroke-width="2" d="M-3.631 8.358C-.529 1.283 2.945-6.669 3.885-8.691" class="primary" style="display:block" transform="translate(109.563 115.334)"/><path fill="none" stroke="#2A2F6B" stroke-linecap="round" stroke-linejoin="round" stroke-width="2" d="M8.376 14.202C6.988 12.029-2.256-4.093-8.507-14.972" class="primary" style="display:block" transform="translate(69.923 126.516)"/><g style="display:none"><path fill="none" stroke="#E68E6D" stroke-linecap="round" stroke-linejoin="round" d="M93.425 139.36c-1.132-1.132-23.713-40.734-24.19-41.559.994-1.013 9.09-8.668 9.65-8.107 1.477 1.477 11.58 19.945 11.967 19.558.945-.945 15.772-37.315 21.23-47.736.838-1.6 4.11-9.257 5.275-10.422.37-.369 16.084 5.396 16.084 5.404 0 .241-26.489 49.876-32.168 65.493-1.543 4.245-5.931 17.64-6.69 18.399-.415.415-1.026-.897-1.158-1.03" class="secondary"/><path fill="#E68E6D" d="M93.425 139.36c-1.132-1.132-23.713-40.734-24.19-41.559.994-1.013 9.09-8.668 9.65-8.107 1.477 1.477 11.58 19.945 11.967 19.558.945-.945 15.772-37.315 21.23-47.736.838-1.6 4.11-9.257 5.275-10.422.37-.369 16.084 5.396 16.084 5.404 0 .241-26.489 49.876-32.168 65.493-1.543 4.245-5.931 17.64-6.69 18.399-.415.415-1.026-.897-1.158-1.03" class="secondary"/></g><path fill="none" stroke="#2A2F6B" stroke-linecap="round" stroke-linejoin="round" stroke-width="2.998" d="M-7.914 43.587c-1.132-1.133-23.713-40.735-24.189-41.56.993-1.013 9.089-8.668 9.65-8.107 1.476 1.477 11.579 19.945 11.966 19.558.945-.945 15.773-37.315 21.231-47.736.838-1.6 4.11-9.257 5.275-10.422.369-.369 16.084 5.396 16.084 5.404 0 .241-26.489 49.876-32.168 65.493-1.543 4.245-5.932 17.64-6.69 18.399-.416.415-1.027-.897-1.159-1.029" class="primary" style="display:none" transform="translate(95.089 95.774)"/><path fill="none" stroke="#2A2F6B" stroke-linecap="round" stroke-linejoin="round" stroke-width="2" d="M-8.388 18.168C-1.01 2.282 6.582-14.08 8.77-18.405" class="primary" style="display:none" transform="translate(124.889 82.645)"/><path fill="none" stroke="#2A2F6B" stroke-linecap="round" stroke-linejoin="round" stroke-width="2" d="M-3.631 8.358C-.529 1.283 2.945-6.669 3.885-8.691" class="primary" style="display:none" transform="translate(109.563 115.334)"/><path fill="none" stroke="#2A2F6B" stroke-linecap="round" stroke-linejoin="round" stroke-width="2" d="M8.376 14.202C6.988 12.029-2.256-4.093-8.507-14.972" class="primary" style="display:none" transform="translate(69.923 126.516)"/></g><g clip-path="url(#e)" style="display:none"><path fill="none" class="primary" style="display:none"/><path fill="none" class="primary" style="display:none"/><path fill="none" class="primary" style="display:none"/><path fill="none" class="primary" style="display:none"/><path fill="none" class="primary" style="display:none"/><g style="display:none"><path fill="none" class="secondary"/><path class="secondary"/></g><path fill="none" class="primary" style="display:none"/><path fill="none" class="primary" style="display:none"/><path fill="none" class="primary" style="display:none"/><path fill="none" class="primary" style="display:none"/></g></g></svg>