<svg xmlns="http://www.w3.org/2000/svg" xmlns:xlink="http://www.w3.org/1999/xlink" viewBox="0 0 192 192" width="192" height="192" preserveAspectRatio="xMidYMid meet" style="width: 100%; height: 100%; transform: translate3d(0px, 0px, 0px); content-visibility: visible;"><defs><clipPath id="__lottie_element_5337"><rect width="192" height="192" x="0" y="0"/></clipPath><clipPath id="__lottie_element_5339"><path d="M0,0 L192,0 L192,192 L0,192z"/></clipPath><g id="__lottie_element_5346"><g transform="matrix(1,0,0,1,107,117.5)" opacity="1" style="display: block;"><g opacity="0" transform="matrix(1,0,0,1,0,0)"><path fill="rgb(67,67,67)" fill-opacity="1" d=" M-54.52000045776367,47.59600067138672 C-52.70399856567383,47.07099914550781 -51.6510009765625,45.196998596191406 -52.167999267578125,43.409000396728516 C-52.685001373291016,41.62099838256836 -54.57699966430664,40.59600067138672 -56.393001556396484,41.12099838256836 C-56.32099914550781,41.06999969482422 -56.33399963378906,41.09700012207031 -56.33399963378906,41.09700012207031 C-56.33399963378906,41.09700012207031 -56.34600067138672,41.13399887084961 -56.395999908447266,41.1150016784668 C-58.21900177001953,41.6150016784668 -59.29199981689453,43.499000549316406 -58.79199981689453,45.321998596191406 C-58.29199981689453,47.14500045776367 -56.40800094604492,48.21799850463867 -54.584999084472656,47.71799850463867 C-54.54899978637695,47.766998291015625 -54.52799987792969,47.66699981689453 -54.52799987792969,47.66699981689453 C-54.52799987792969,47.66699981689453 -54.54100036621094,47.57099914550781 -54.52000045776367,47.59600067138672z"/></g><g opacity="0" transform="matrix(1,0,0,1,0,-17.75)"><path fill="rgb(67,67,67)" fill-opacity="1" d=" M-54.52000045776367,47.59600067138672 C-52.70399856567383,47.07099914550781 -51.6510009765625,45.196998596191406 -52.167999267578125,43.409000396728516 C-52.685001373291016,41.62099838256836 -54.57699966430664,40.59600067138672 -56.393001556396484,41.12099838256836 C-56.32099914550781,41.06999969482422 -56.33399963378906,41.09700012207031 -56.33399963378906,41.09700012207031 C-56.33399963378906,41.09700012207031 -56.34600067138672,41.13399887084961 -56.395999908447266,41.1150016784668 C-58.21900177001953,41.6150016784668 -59.29199981689453,43.499000549316406 -58.79199981689453,45.321998596191406 C-58.29199981689453,47.14500045776367 -56.40800094604492,48.21799850463867 -54.584999084472656,47.71799850463867 C-54.54899978637695,47.766998291015625 -54.52799987792969,47.66699981689453 -54.52799987792969,47.66699981689453 C-54.52799987792969,47.66699981689453 -54.54100036621094,47.57099914550781 -54.52000045776367,47.59600067138672z"/></g><g opacity="0" transform="matrix(1,0,0,1,0,-35.79999923706055)"><path fill="rgb(67,67,67)" fill-opacity="1" d=" M-54.52000045776367,47.59600067138672 C-52.70399856567383,47.07099914550781 -51.6510009765625,45.196998596191406 -52.167999267578125,43.409000396728516 C-52.685001373291016,41.62099838256836 -54.57699966430664,40.59600067138672 -56.393001556396484,41.12099838256836 C-56.32099914550781,41.06999969482422 -56.33399963378906,41.09700012207031 -56.33399963378906,41.09700012207031 C-56.33399963378906,41.09700012207031 -56.34600067138672,41.13399887084961 -56.395999908447266,41.1150016784668 C-58.21900177001953,41.6150016784668 -59.29199981689453,43.499000549316406 -58.79199981689453,45.321998596191406 C-58.29199981689453,47.14500045776367 -56.40800094604492,48.21799850463867 -54.584999084472656,47.71799850463867 C-54.54899978637695,47.766998291015625 -54.52799987792969,47.66699981689453 -54.52799987792969,47.66699981689453 C-54.52799987792969,47.66699981689453 -54.54100036621094,47.57099914550781 -54.52000045776367,47.59600067138672z"/></g><g opacity="0" transform="matrix(1,0,0,1,0,-53.099998474121094)"><path fill="rgb(67,67,67)" fill-opacity="1" d=" M-54.52000045776367,47.59600067138672 C-52.70399856567383,47.07099914550781 -51.6510009765625,45.196998596191406 -52.167999267578125,43.409000396728516 C-52.685001373291016,41.62099838256836 -54.57699966430664,40.59600067138672 -56.393001556396484,41.12099838256836 C-56.32099914550781,41.06999969482422 -56.33399963378906,41.09700012207031 -56.33399963378906,41.09700012207031 C-56.33399963378906,41.09700012207031 -56.34600067138672,41.13399887084961 -56.395999908447266,41.1150016784668 C-58.21900177001953,41.6150016784668 -59.29199981689453,43.499000549316406 -58.79199981689453,45.321998596191406 C-58.29199981689453,47.14500045776367 -56.40800094604492,48.21799850463867 -54.584999084472656,47.71799850463867 C-54.54899978637695,47.766998291015625 -54.52799987792969,47.66699981689453 -54.52799987792969,47.66699981689453 C-54.52799987792969,47.66699981689453 -54.54100036621094,47.57099914550781 -54.52000045776367,47.59600067138672z"/></g><g opacity="0" transform="matrix(1,0,0,1,0,-70.44999694824219)"><path fill="rgb(67,67,67)" fill-opacity="1" d=" M-54.52000045776367,47.59600067138672 C-52.70399856567383,47.07099914550781 -51.6510009765625,45.196998596191406 -52.167999267578125,43.409000396728516 C-52.685001373291016,41.62099838256836 -54.57699966430664,40.59600067138672 -56.393001556396484,41.12099838256836 C-56.32099914550781,41.06999969482422 -56.33399963378906,41.09700012207031 -56.33399963378906,41.09700012207031 C-56.33399963378906,41.09700012207031 -56.34600067138672,41.13399887084961 -56.395999908447266,41.1150016784668 C-58.21900177001953,41.6150016784668 -59.29199981689453,43.499000549316406 -58.79199981689453,45.321998596191406 C-58.29199981689453,47.14500045776367 -56.40800094604492,48.21799850463867 -54.584999084472656,47.71799850463867 C-54.54899978637695,47.766998291015625 -54.52799987792969,47.66699981689453 -54.52799987792969,47.66699981689453 C-54.52799987792969,47.66699981689453 -54.54100036621094,47.57099914550781 -54.52000045776367,47.59600067138672z"/></g><g opacity="0" transform="matrix(1,0,0,1,0,-86.94999694824219)"><path fill="rgb(67,67,67)" fill-opacity="1" d=" M-54.52000045776367,47.59600067138672 C-52.70399856567383,47.07099914550781 -51.6510009765625,45.196998596191406 -52.167999267578125,43.409000396728516 C-52.685001373291016,41.62099838256836 -54.57699966430664,40.59600067138672 -56.393001556396484,41.12099838256836 C-56.32099914550781,41.06999969482422 -56.33399963378906,41.09700012207031 -56.33399963378906,41.09700012207031 C-56.33399963378906,41.09700012207031 -56.34600067138672,41.13399887084961 -56.395999908447266,41.1150016784668 C-58.21900177001953,41.6150016784668 -59.29199981689453,43.499000549316406 -58.79199981689453,45.321998596191406 C-58.29199981689453,47.14500045776367 -56.40800094604492,48.21799850463867 -54.584999084472656,47.71799850463867 C-54.54899978637695,47.766998291015625 -54.52799987792969,47.66699981689453 -54.52799987792969,47.66699981689453 C-54.52799987792969,47.66699981689453 -54.54100036621094,47.57099914550781 -54.52000045776367,47.59600067138672z"/></g></g></g><g id="__lottie_element_5352"><g transform="matrix(1,0,0,1,107,117.5)" opacity="1" style="display: block;"><g opacity="0" transform="matrix(1,0,0,1,0,0)"><path fill="rgb(67,67,67)" fill-opacity="1" d=" M-54.52000045776367,47.59600067138672 C-52.70399856567383,47.07099914550781 -51.6510009765625,45.196998596191406 -52.167999267578125,43.409000396728516 C-52.685001373291016,41.62099838256836 -54.57699966430664,40.59600067138672 -56.393001556396484,41.12099838256836 C-56.32099914550781,41.06999969482422 -56.33399963378906,41.09700012207031 -56.33399963378906,41.09700012207031 C-56.33399963378906,41.09700012207031 -56.34600067138672,41.13399887084961 -56.395999908447266,41.1150016784668 C-58.21900177001953,41.6150016784668 -59.29199981689453,43.499000549316406 -58.79199981689453,45.321998596191406 C-58.29199981689453,47.14500045776367 -56.40800094604492,48.21799850463867 -54.584999084472656,47.71799850463867 C-54.54899978637695,47.766998291015625 -54.52799987792969,47.66699981689453 -54.52799987792969,47.66699981689453 C-54.52799987792969,47.66699981689453 -54.54100036621094,47.57099914550781 -54.52000045776367,47.59600067138672z"/></g><g opacity="0" transform="matrix(1,0,0,1,0,-17.75)"><path fill="rgb(67,67,67)" fill-opacity="1" d=" M-54.52000045776367,47.59600067138672 C-52.70399856567383,47.07099914550781 -51.6510009765625,45.196998596191406 -52.167999267578125,43.409000396728516 C-52.685001373291016,41.62099838256836 -54.57699966430664,40.59600067138672 -56.393001556396484,41.12099838256836 C-56.32099914550781,41.06999969482422 -56.33399963378906,41.09700012207031 -56.33399963378906,41.09700012207031 C-56.33399963378906,41.09700012207031 -56.34600067138672,41.13399887084961 -56.395999908447266,41.1150016784668 C-58.21900177001953,41.6150016784668 -59.29199981689453,43.499000549316406 -58.79199981689453,45.321998596191406 C-58.29199981689453,47.14500045776367 -56.40800094604492,48.21799850463867 -54.584999084472656,47.71799850463867 C-54.54899978637695,47.766998291015625 -54.52799987792969,47.66699981689453 -54.52799987792969,47.66699981689453 C-54.52799987792969,47.66699981689453 -54.54100036621094,47.57099914550781 -54.52000045776367,47.59600067138672z"/></g><g opacity="0" transform="matrix(1,0,0,1,0,-35.79999923706055)"><path fill="rgb(67,67,67)" fill-opacity="1" d=" M-54.52000045776367,47.59600067138672 C-52.70399856567383,47.07099914550781 -51.6510009765625,45.196998596191406 -52.167999267578125,43.409000396728516 C-52.685001373291016,41.62099838256836 -54.57699966430664,40.59600067138672 -56.393001556396484,41.12099838256836 C-56.32099914550781,41.06999969482422 -56.33399963378906,41.09700012207031 -56.33399963378906,41.09700012207031 C-56.33399963378906,41.09700012207031 -56.34600067138672,41.13399887084961 -56.395999908447266,41.1150016784668 C-58.21900177001953,41.6150016784668 -59.29199981689453,43.499000549316406 -58.79199981689453,45.321998596191406 C-58.29199981689453,47.14500045776367 -56.40800094604492,48.21799850463867 -54.584999084472656,47.71799850463867 C-54.54899978637695,47.766998291015625 -54.52799987792969,47.66699981689453 -54.52799987792969,47.66699981689453 C-54.52799987792969,47.66699981689453 -54.54100036621094,47.57099914550781 -54.52000045776367,47.59600067138672z"/></g><g opacity="0" transform="matrix(1,0,0,1,0,-53.099998474121094)"><path fill="rgb(67,67,67)" fill-opacity="1" d=" M-54.52000045776367,47.59600067138672 C-52.70399856567383,47.07099914550781 -51.6510009765625,45.196998596191406 -52.167999267578125,43.409000396728516 C-52.685001373291016,41.62099838256836 -54.57699966430664,40.59600067138672 -56.393001556396484,41.12099838256836 C-56.32099914550781,41.06999969482422 -56.33399963378906,41.09700012207031 -56.33399963378906,41.09700012207031 C-56.33399963378906,41.09700012207031 -56.34600067138672,41.13399887084961 -56.395999908447266,41.1150016784668 C-58.21900177001953,41.6150016784668 -59.29199981689453,43.499000549316406 -58.79199981689453,45.321998596191406 C-58.29199981689453,47.14500045776367 -56.40800094604492,48.21799850463867 -54.584999084472656,47.71799850463867 C-54.54899978637695,47.766998291015625 -54.52799987792969,47.66699981689453 -54.52799987792969,47.66699981689453 C-54.52799987792969,47.66699981689453 -54.54100036621094,47.57099914550781 -54.52000045776367,47.59600067138672z"/></g><g opacity="0" transform="matrix(1,0,0,1,0,-70.44999694824219)"><path fill="rgb(67,67,67)" fill-opacity="1" d=" M-54.52000045776367,47.59600067138672 C-52.70399856567383,47.07099914550781 -51.6510009765625,45.196998596191406 -52.167999267578125,43.409000396728516 C-52.685001373291016,41.62099838256836 -54.57699966430664,40.59600067138672 -56.393001556396484,41.12099838256836 C-56.32099914550781,41.06999969482422 -56.33399963378906,41.09700012207031 -56.33399963378906,41.09700012207031 C-56.33399963378906,41.09700012207031 -56.34600067138672,41.13399887084961 -56.395999908447266,41.1150016784668 C-58.21900177001953,41.6150016784668 -59.29199981689453,43.499000549316406 -58.79199981689453,45.321998596191406 C-58.29199981689453,47.14500045776367 -56.40800094604492,48.21799850463867 -54.584999084472656,47.71799850463867 C-54.54899978637695,47.766998291015625 -54.52799987792969,47.66699981689453 -54.52799987792969,47.66699981689453 C-54.52799987792969,47.66699981689453 -54.54100036621094,47.57099914550781 -54.52000045776367,47.59600067138672z"/></g><g opacity="0" transform="matrix(1,0,0,1,0,-86.94999694824219)"><path fill="rgb(67,67,67)" fill-opacity="1" d=" M-54.52000045776367,47.59600067138672 C-52.70399856567383,47.07099914550781 -51.6510009765625,45.196998596191406 -52.167999267578125,43.409000396728516 C-52.685001373291016,41.62099838256836 -54.57699966430664,40.59600067138672 -56.393001556396484,41.12099838256836 C-56.32099914550781,41.06999969482422 -56.33399963378906,41.09700012207031 -56.33399963378906,41.09700012207031 C-56.33399963378906,41.09700012207031 -56.34600067138672,41.13399887084961 -56.395999908447266,41.1150016784668 C-58.21900177001953,41.6150016784668 -59.29199981689453,43.499000549316406 -58.79199981689453,45.321998596191406 C-58.29199981689453,47.14500045776367 -56.40800094604492,48.21799850463867 -54.584999084472656,47.71799850463867 C-54.54899978637695,47.766998291015625 -54.52799987792969,47.66699981689453 -54.52799987792969,47.66699981689453 C-54.52799987792969,47.66699981689453 -54.54100036621094,47.57099914550781 -54.52000045776367,47.59600067138672z"/></g></g></g><mask id="__lottie_element_5352_1" mask-type="alpha"><use xmlns:ns1="http://www.w3.org/1999/xlink" ns1:href="#__lottie_element_5352"/></mask><filter id="__lottie_element_5373" filterUnits="objectBoundingBox" x="0%" y="0%" width="100%" height="100%"><feComponentTransfer in="SourceGraphic"><feFuncA type="table" tableValues="1.0 0.0"/></feComponentTransfer></filter><mask id="__lottie_element_5346_2" mask-type="alpha" maskUnits="userSpaceOnUse"><g filter="url(#__lottie_element_5373)"><rect width="192" height="192" x="0" y="0" fill="#ffffff" opacity="0"/><use xmlns:ns2="http://www.w3.org/1999/xlink" ns2:href="#__lottie_element_5346"/></g></mask></defs><g clip-path="url(#__lottie_element_5337)"><g clip-path="url(#__lottie_element_5339)" transform="matrix(1,0,0,1,0,0)" opacity="1" style="display: block;"><g mask="url(#__lottie_element_5346_2)" style="display: block;"><g transform="matrix(1,0,0,1,105.96199798583984,111.76100158691406)" opacity="1"><g opacity="1" transform="matrix(1,0,0,1,0,0)"><path class="secondary" fill="rgb(230,142,110)" fill-opacity="1" d=" M-4.989999771118164,-44.98500061035156 C-4.125,-45.077999114990234 1.128999948501587,-45.20800018310547 3.625,-44.90599822998047 C16.582000732421875,-43.33700180053711 40.90299987792969,-35.90399932861328 44.52399826049805,-4.2230000495910645 C47.582000732421875,22.5310001373291 27.990999221801758,41.387001037597656 6.186999797821045,44.625999450683594 C-5.51200008392334,46.3650016784668 -18.35700035095215,43.237998962402344 -27.739999771118164,35.64400100708008 C-59.0359992980957,10.317000389099121 -44.98400115966797,-40.696998596191406 -4.989999771118164,-44.98500061035156z"/><path stroke-linecap="round" stroke-linejoin="round" fill-opacity="0" class="secondary" stroke="rgb(230,142,110)" stroke-opacity="1" stroke-width="1" d=" M-4.989999771118164,-44.98500061035156 C-4.125,-45.077999114990234 1.128999948501587,-45.20800018310547 3.625,-44.90599822998047 C16.582000732421875,-43.33700180053711 40.90299987792969,-35.90399932861328 44.52399826049805,-4.2230000495910645 C47.582000732421875,22.5310001373291 27.990999221801758,41.387001037597656 6.186999797821045,44.625999450683594 C-5.51200008392334,46.3650016784668 -18.35700035095215,43.237998962402344 -27.739999771118164,35.64400100708008 C-59.0359992980957,10.317000389099121 -44.98400115966797,-40.696998596191406 -4.989999771118164,-44.98500061035156z"/></g></g></g><g mask="url(#__lottie_element_5352_1)" style="display: block;"><g transform="matrix(1,0,0,1,105.96199798583984,111.76100158691406)" opacity="1"><g opacity="1" transform="matrix(1,0,0,1,0,0)"><path class="secondary" fill="rgb(230,142,110)" fill-opacity="1" d=" M-4.989999771118164,-44.98500061035156 C-4.125,-45.077999114990234 1.128999948501587,-45.20800018310547 3.625,-44.90599822998047 C16.582000732421875,-43.33700180053711 40.90299987792969,-35.90399932861328 44.52399826049805,-4.2230000495910645 C47.582000732421875,22.5310001373291 27.990999221801758,41.387001037597656 6.186999797821045,44.625999450683594 C-5.51200008392334,46.3650016784668 -18.35700035095215,43.237998962402344 -27.739999771118164,35.64400100708008 C-59.0359992980957,10.317000389099121 -44.98400115966797,-40.696998596191406 -4.989999771118164,-44.98500061035156z"/><path stroke-linecap="round" stroke-linejoin="round" fill-opacity="0" class="secondary" stroke="rgb(230,142,110)" stroke-opacity="1" stroke-width="1" d=" M-4.989999771118164,-44.98500061035156 C-4.125,-45.077999114990234 1.128999948501587,-45.20800018310547 3.625,-44.90599822998047 C16.582000732421875,-43.33700180053711 40.90299987792969,-35.90399932861328 44.52399826049805,-4.2230000495910645 C47.582000732421875,22.5310001373291 27.990999221801758,41.387001037597656 6.186999797821045,44.625999450683594 C-5.51200008392334,46.3650016784668 -18.35700035095215,43.237998962402344 -27.739999771118164,35.64400100708008 C-59.0359992980957,10.317000389099121 -44.98400115966797,-40.696998596191406 -4.989999771118164,-44.98500061035156z"/></g></g></g><g transform="matrix(1,0,0,1,97.38899993896484,95.69599914550781)" opacity="1" style="display: block;"><g opacity="1" transform="matrix(1,0,0,1,0,0)"><path stroke-linecap="round" stroke-linejoin="round" fill-opacity="0" class="primary" stroke="rgb(42,48,107)" stroke-opacity="1" stroke-width="3" d=" M-73.16999816894531,7.989999771118164 C-77.0739974975586,-29.864999771118164 -52.20800018310547,-69.08699798583984 -8.187000274658203,-73.80699920654297 C-8.187000274658203,-73.80699920654297 -8.187000274658203,-73.80699920654297 -8.187000274658203,-73.80699920654297 C-6.767000198364258,-73.95899963378906 1.8519999980926514,-74.17400360107422 5.947999954223633,-73.6780014038086 C27.20599937438965,-71.10399627685547 67.11000061035156,-58.90800094604492 73.0510025024414,-6.928999900817871 C78.06800079345703,36.96699905395508 45.92399978637695,67.90299987792969 10.149999618530273,73.21800231933594 C-9.045000076293945,76.07099914550781 -30.1200008392334,70.94000244140625 -45.513999938964844,58.48099899291992 C-62.41400146484375,44.80400085449219 -71.25499725341797,26.562000274658203 -73.16999816894531,7.989999771118164"/></g></g><g transform="matrix(1,0,0,1,96.63899993896484,95.44599914550781)" opacity="1" style="display: block;"><g opacity="1" transform="matrix(1,0,0,1,0,0)"><path stroke-linecap="round" stroke-linejoin="round" fill-opacity="0" class="primary" stroke="rgb(42,48,107)" stroke-opacity="1" stroke-width="2" d=" M10.79800033569336,58.5880012512207 C10.11299991607666,58.7130012512207 9.425999641418457,58.82699966430664 8.73799991607666,58.92900085449219 C-7.124000072479248,61.2869987487793 -24.538000106811523,57.047000885009766 -37.25899887084961,46.75199890136719 C-79.69000244140625,12.413999557495117 -60.63800048828125,-56.75899887084961 -6.414000034332275,-62.5629997253418 C-6.414000034332275,-62.5629997253418 -6.414000034332275,-62.5629997253418 -6.414000034332275,-62.5629997253418 C-5.241000175476074,-62.68899917602539 1.88100004196167,-62.86600112915039 5.265999794006348,-62.45600128173828 C22.711000442504883,-60.34400177001953 55.35300064086914,-50.388999938964844 60.611000061035156,-8.182000160217285"/></g></g><g transform="matrix(1,0,0,1,96.63899993896484,95.44599914550781)" opacity="1" style="display: block;"><g opacity="1" transform="matrix(1,0,0,1,0,0)"><path stroke-linecap="round" stroke-linejoin="round" fill-opacity="0" class="primary" stroke="rgb(42,48,107)" stroke-opacity="1" stroke-width="2" d=" M41.52899932861328,43.70100021362305 C34.80099868774414,49.65599822998047 26.79599952697754,54.099998474121094 18.25200080871582,56.75400161743164"/></g></g><g transform="matrix(1,0,0,1,96.88899993896484,94.69599914550781)" opacity="1" style="display: block;"><g opacity="1" transform="matrix(1,0,0,1,0,0)"><path stroke-linecap="round" stroke-linejoin="round" fill-opacity="0" class="primary" stroke="rgb(42,48,107)" stroke-opacity="1" stroke-width="2" d=" M-40.132999420166016,-36.18899917602539 C-33.3489990234375,-44.4379997253418 -23.92799949645996,-50.71200180053711 -12.291000366210938,-53.430999755859375"/></g></g><g transform="matrix(1,0,0,1,96.38899993896484,95.19599914550781)" opacity="1" style="display: block;"><g opacity="1" transform="matrix(1,0,0,1,0,0)"><path stroke-linecap="round" stroke-linejoin="round" fill-opacity="0" class="primary" stroke="rgb(42,48,107)" stroke-opacity="1" stroke-width="2" d=" M79.26399993896484,38.89699935913086 C73.76300048828125,50.9109992980957 65.53399658203125,61.14899826049805 55.604000091552734,69.2229995727539"/></g></g><g transform="matrix(1,0,0,1,96.38899993896484,95.19599914550781)" opacity="1" style="display: block;"><g opacity="1" transform="matrix(1,0,0,1,0,0)"><path stroke-linecap="round" stroke-linejoin="round" fill-opacity="0" class="primary" stroke="rgb(42,48,107)" stroke-opacity="1" stroke-width="2" d=" M-78.86900329589844,-39.76300048828125 C-71.45500183105469,-54.41400146484375 -60.029998779296875,-67.05599975585938 -45.159000396728516,-75.58300018310547"/></g></g></g></g></svg>