<svg xmlns="http://www.w3.org/2000/svg" xmlns:xlink="http://www.w3.org/1999/xlink" viewBox="0 0 192 192" width="192" height="192" preserveAspectRatio="xMidYMid meet" style="width: 100%; height: 100%; transform: translate3d(0px, 0px, 0px); content-visibility: visible;"><defs><clipPath id="__lottie_element_303"><rect width="192" height="192" x="0" y="0"/></clipPath><clipPath id="__lottie_element_305"><path d="M0,0 L192,0 L192,192 L0,192z"/></clipPath><clipPath id="__lottie_element_321"><path d="M0,0 L192,0 L192,192 L0,192z"/></clipPath><g id="__lottie_element_324"><g clip-path="url(#__lottie_element_325)" transform="matrix(1,0,0,1,0,0)" opacity="1" style="display: block;"><g transform="matrix(1.0000015497207642,0,0,1.0000015497207642,64.19438934326172,136.1018524169922)" opacity="1" style="display: block;"><path class="primary" fill="rgb(23,23,28)" fill-opacity="1" d=" M-37.03099822998047,15.723999977111816 C-37.08300018310547,10.392000198364258 -31.047000885009766,8.324000358581543 -28.774999618530273,8.300999641418457 C-27.12700080871582,8.284000396728516 7.158999919891357,7.7170000076293945 20.006999969482422,8.140000343322754 C24.579999923706055,8.291000366210938 28.625,10.875 28.45599937438965,15.819999694824219 C28.2549991607666,21.709999084472656 25.834999084472656,23.583999633789062 19.65999984741211,23.67799949645996 C7.243000030517578,23.865999221801758 -16.48900032043457,23.507999420166016 -28.361000061035156,23.719999313354492 C-31.916000366210938,23.784000396728516 -36.957000732421875,23.059999465942383 -37.03099822998047,15.723999977111816z"/><g opacity="1" transform="matrix(1,0,0,1,0,0)"/></g><g transform="matrix(1.0000015497207642,0,0,1.0000015497207642,50.187408447265625,135.9677276611328)" opacity="1" style="display: block;"><path class="primary" fill="rgb(23,23,28)" fill-opacity="1" d=" M-28.461000442504883,-0.10700000077486038 C-28.51300048828125,-5.439000129699707 -22.47800064086914,-7.507999897003174 -20.20599937438965,-7.531000137329102 C-18.558000564575195,-7.547999858856201 15.729000091552734,-8.11400032043457 28.57699966430664,-7.690999984741211 C33.150001525878906,-7.539999961853027 37.19499969482422,-4.955999851226807 37.0260009765625,-0.010999999940395355 C36.82500076293945,5.879000186920166 34.404998779296875,7.752999782562256 28.229999542236328,7.8470001220703125 C15.812999725341797,8.03499984741211 -7.919000148773193,7.677000045776367 -19.791000366210938,7.888999938964844 C-23.34600067138672,7.953000068664551 -28.386999130249023,7.229000091552734 -28.461000442504883,-0.10700000077486038z"/><g opacity="1" transform="matrix(1,0,0,1,0,0)"/></g><g transform="matrix(1,0,0,1,55.61800003051758,151.7779998779297)" opacity="1" style="display: block;"><path class="primary" fill="rgb(23,23,28)" fill-opacity="1" d=" M-37.03099822998047,15.723999977111816 C-37.08300018310547,10.392000198364258 -31.047000885009766,8.324000358581543 -28.774999618530273,8.300999641418457 C-27.12700080871582,8.284000396728516 7.158999919891357,7.7170000076293945 20.006999969482422,8.140000343322754 C24.579999923706055,8.291000366210938 28.625,10.875 28.45599937438965,15.819999694824219 C28.2549991607666,21.709999084472656 25.834999084472656,23.583999633789062 19.65999984741211,23.67799949645996 C7.243000030517578,23.865999221801758 -16.48900032043457,23.507999420166016 -28.361000061035156,23.719999313354492 C-31.916000366210938,23.784000396728516 -36.957000732421875,23.059999465942383 -37.03099822998047,15.723999977111816z"/><g opacity="1" transform="matrix(1,0,0,1,0,0)"/></g></g></g><clipPath id="__lottie_element_325"><path d="M0,0 L192,0 L192,192 L0,192z"/></clipPath><filter id="__lottie_element_343" filterUnits="objectBoundingBox" x="0%" y="0%" width="100%" height="100%"><feComponentTransfer in="SourceGraphic"><feFuncA type="table" tableValues="1.0 0.0"/></feComponentTransfer></filter><mask id="__lottie_element_324_2" mask-type="alpha" maskUnits="userSpaceOnUse"><g filter="url(#__lottie_element_343)"><rect width="192" height="192" x="0" y="0" fill="#ffffff" opacity="0"/><use xmlns:ns1="http://www.w3.org/1999/xlink" ns1:href="#__lottie_element_324"/></g></mask><g id="__lottie_element_348"><g transform="matrix(1,0,0,1,94.80599975585938,26.78600311279297)" opacity="1" style="display: block;"><g opacity="1" transform="matrix(1,0,0,1,0,0)"><path fill="rgb(42,48,107)" fill-opacity="1" d=" M26.410999298095703,8.440999984741211 C23.344999313354492,0.878000020980835 25.493000030517578,-6.441999912261963 26.391000747680664,-9.708000183105469 C27.054000854492188,-12.116000175476074 35.71799850463867,-13.418999671936035 36.117000579833984,-9.734000205993652 C36.237998962402344,-8.607000350952148 34.694000244140625,1.4119999408721924 33.76100158691406,7.144000053405762 C32.840999603271484,12.791000366210938 28.56599998474121,13.758000373840332 26.410999298095703,8.440999984741211z M-3.927000045776367,8.520000457763672 C-6.993000030517578,0.9570000171661377 -4.84499979019165,-6.36299991607666 -3.947000026702881,-9.628999710083008 C-3.2839999198913574,-12.036999702453613 5.380000114440918,-13.340999603271484 5.7789998054504395,-9.656000137329102 C5.900000095367432,-8.529000282287598 4.355999946594238,1.4900000095367432 3.4230000972747803,7.2220001220703125 C2.503000020980835,12.869000434875488 -1.7719999551773071,13.836999893188477 -3.927000045776367,8.520000457763672z M-34.53200149536133,8.526000022888184 C-37.597999572753906,0.9629999995231628 -35.45000076293945,-6.35699987411499 -34.551998138427734,-9.623000144958496 C-33.888999938964844,-12.031000137329102 -25.22599983215332,-13.333999633789062 -24.82699966430664,-9.64900016784668 C-24.70599937438965,-8.522000312805176 -26.249000549316406,1.496000051498413 -27.18199920654297,7.228000164031982 C-28.101999282836914,12.875 -32.37699890136719,13.843000411987305 -34.53200149536133,8.526000022888184z"/></g></g></g><filter id="__lottie_element_375" filterUnits="objectBoundingBox" x="0%" y="0%" width="100%" height="100%"><feComponentTransfer in="SourceGraphic"><feFuncA type="table" tableValues="1.0 0.0"/></feComponentTransfer></filter><mask id="__lottie_element_348_2" mask-type="alpha" maskUnits="userSpaceOnUse"><g filter="url(#__lottie_element_375)"><rect width="192" height="192" x="0" y="0" fill="#ffffff" opacity="0"/><use xmlns:ns2="http://www.w3.org/1999/xlink" ns2:href="#__lottie_element_348"/></g></mask></defs><g clip-path="url(#__lottie_element_303)"><g clip-path="url(#__lottie_element_305)" transform="matrix(1,0,0,1,0,0)" opacity="1" style="display: block;"><g transform="matrix(1,0,0,1,55.68199920654297,163.7469940185547)" opacity="1" style="display: block;"><g opacity="1" transform="matrix(1,0,0,1,0,0)"><path class="secondary" fill="rgb(230,142,110)" fill-opacity="1" d=" M-32.74599838256836,-0.13500000536441803 C-32.79800033569336,-5.4670000076293945 -26.761999130249023,-7.535999774932861 -24.489999771118164,-7.559000015258789 C-22.841999053955078,-7.576000213623047 11.444000244140625,-8.142000198364258 24.29199981689453,-7.718999862670898 C28.864999771118164,-7.567999839782715 32.90999984741211,-4.984000205993652 32.74100112915039,-0.039000000804662704 C32.540000915527344,5.85099983215332 30.1200008392334,7.724999904632568 23.94499969482422,7.818999767303467 C11.527999877929688,8.006999969482422 -12.204000473022461,7.64900016784668 -24.076000213623047,7.861000061035156 C-27.631000518798828,7.925000190734863 -32.672000885009766,7.201000213623047 -32.74599838256836,-0.13500000536441803z"/><path stroke-linecap="round" stroke-linejoin="round" fill-opacity="0" class="secondary" stroke="rgb(230,142,110)" stroke-opacity="1" stroke-width="0.502" d=" M-32.74599838256836,-0.13500000536441803 C-32.79800033569336,-5.4670000076293945 -26.761999130249023,-7.535999774932861 -24.489999771118164,-7.559000015258789 C-22.841999053955078,-7.576000213623047 11.444000244140625,-8.142000198364258 24.29199981689453,-7.718999862670898 C28.864999771118164,-7.567999839782715 32.90999984741211,-4.984000205993652 32.74100112915039,-0.039000000804662704 C32.540000915527344,5.85099983215332 30.1200008392334,7.724999904632568 23.94499969482422,7.818999767303467 C11.527999877929688,8.006999969482422 -12.204000473022461,7.64900016784668 -24.076000213623047,7.861000061035156 C-27.631000518798828,7.925000190734863 -32.672000885009766,7.201000213623047 -32.74599838256836,-0.13500000536441803z"/></g></g><g transform="matrix(1.0000015497207642,0,0,1.0000015497207642,64.25179290771484,148.19102478027344)" opacity="1" style="display: block;"><g opacity="1" transform="matrix(1,0,0,1,0,0)"><path class="secondary" fill="rgb(230,142,110)" fill-opacity="1" d=" M-32.74599838256836,-0.14000000059604645 C-32.79800033569336,-5.658999919891357 -26.761999130249023,-7.800000190734863 -24.489999771118164,-7.823999881744385 C-22.841999053955078,-7.841000080108643 11.444000244140625,-8.427000045776367 24.29199981689453,-7.988999843597412 C28.864999771118164,-7.833000183105469 32.90999984741211,-5.1579999923706055 32.74100112915039,-0.03999999910593033 C32.540000915527344,6.056000232696533 30.1200008392334,7.995999813079834 23.94499969482422,8.093000411987305 C11.527999877929688,8.288000106811523 -12.204000473022461,7.915999889373779 -24.076000213623047,8.13599967956543 C-27.631000518798828,8.20300006866455 -32.672000885009766,7.453000068664551 -32.74599838256836,-0.14000000059604645z"/><path stroke-linecap="round" stroke-linejoin="round" fill-opacity="0" class="secondary" stroke="rgb(230,142,110)" stroke-opacity="1" stroke-width="0.501" d=" M-32.74599838256836,-0.14000000059604645 C-32.79800033569336,-5.658999919891357 -26.761999130249023,-7.800000190734863 -24.489999771118164,-7.823999881744385 C-22.841999053955078,-7.841000080108643 11.444000244140625,-8.427000045776367 24.29199981689453,-7.988999843597412 C28.864999771118164,-7.833000183105469 32.90999984741211,-5.1579999923706055 32.74100112915039,-0.03999999910593033 C32.540000915527344,6.056000232696533 30.1200008392334,7.995999813079834 23.94499969482422,8.093000411987305 C11.527999877929688,8.288000106811523 -12.204000473022461,7.915999889373779 -24.076000213623047,8.13599967956543 C-27.631000518798828,8.20300006866455 -32.672000885009766,7.453000068664551 -32.74599838256836,-0.14000000059604645z"/></g></g><g transform="matrix(1.0000015497207642,0,0,1.0000015497207642,58.75780487060547,132.31802368164062)" opacity="1" style="display: block;"><g opacity="1" transform="matrix(1,0,0,1,0,0)"><path class="secondary" fill="rgb(230,142,110)" fill-opacity="1" d=" M-32.74599838256836,-0.14000000059604645 C-32.79800033569336,-5.669000148773193 -26.761999130249023,-7.814000129699707 -24.489999771118164,-7.8379998207092285 C-22.841999053955078,-7.855000019073486 11.444000244140625,-8.442999839782715 24.29199981689453,-8.003999710083008 C28.864999771118164,-7.8480000495910645 32.90999984741211,-5.168000221252441 32.74100112915039,-0.04100000113248825 C32.540000915527344,6.065999984741211 30.1200008392334,8.008999824523926 23.94499969482422,8.107000350952148 C11.527999877929688,8.302000045776367 -12.204000473022461,7.931000232696533 -24.076000213623047,8.151000022888184 C-27.631000518798828,8.218000411987305 -32.672000885009766,7.4670000076293945 -32.74599838256836,-0.14000000059604645z"/><path stroke-linecap="round" stroke-linejoin="round" fill-opacity="0" class="secondary" stroke="rgb(230,142,110)" stroke-opacity="1" stroke-width="0.5015" d=" M-32.74599838256836,-0.14000000059604645 C-32.79800033569336,-5.669000148773193 -26.761999130249023,-7.814000129699707 -24.489999771118164,-7.8379998207092285 C-22.841999053955078,-7.855000019073486 11.444000244140625,-8.442999839782715 24.29199981689453,-8.003999710083008 C28.864999771118164,-7.8480000495910645 32.90999984741211,-5.168000221252441 32.74100112915039,-0.04100000113248825 C32.540000915527344,6.065999984741211 30.1200008392334,8.008999824523926 23.94499969482422,8.107000350952148 C11.527999877929688,8.302000045776367 -12.204000473022461,7.931000232696533 -24.076000213623047,8.151000022888184 C-27.631000518798828,8.218000411987305 -32.672000885009766,7.4670000076293945 -32.74599838256836,-0.14000000059604645z"/></g></g><g mask="url(#__lottie_element_324_2)" style="display: block;"><g clip-path="url(#__lottie_element_321)" transform="matrix(1,0,0,1,0,0)" opacity="1"><g mask="url(#__lottie_element_348_2)" style="display: block;"><g transform="matrix(1,0,0,1,95.52000427246094,95.16899871826172)" opacity="1"><g opacity="1" transform="matrix(1,0,0,1,0,0)"><path stroke-linecap="round" stroke-linejoin="round" fill-opacity="0" class="primary" stroke="rgb(42,48,107)" stroke-opacity="1" stroke-width="1.4995" d=" M-0.08299999684095383,-74.1780014038086 C28.128000259399414,-74.56800079345703 56.395999908447266,-74.42500305175781 59.132999420166016,-72.65799713134766 C60.10300064086914,-72.03099822998047 57.68199920654297,-12.894000053405762 55.74599838256836,29.757999420166016 C54.65299987792969,53.83000183105469 53.71500015258789,72.6520004272461 53.62900161743164,72.74099731445312 C53.39400100708008,72.98500061035156 -53.67499923706055,74.63600158691406 -53.986000061035156,74.31400299072266 C-53.986000061035156,74.31400299072266 -53.986000061035156,74.31400299072266 -53.986000061035156,74.31400299072266 C-54.65599822998047,73.62100219726562 -55.715999603271484,54.564998626708984 -56.71799850463867,30.39699935913086 C-58.51499938964844,-12.951000213623047 -60.124000549316406,-72.74099731445312 -58.95899963378906,-72.49400329589844 C-56.483001708984375,-72.86199951171875 -28.312000274658203,-73.78700256347656 -0.08299999684095383,-74.1780014038086"/></g></g></g><g transform="matrix(1,0,0,1,94.80599975585938,26.78600311279297)" opacity="1" style="display: block;"><g opacity="1" transform="matrix(1,0,0,1,0,0)"><path stroke-linecap="round" stroke-linejoin="round" fill-opacity="0" class="primary" stroke="rgb(42,48,107)" stroke-opacity="1" stroke-width="1" d=" M26.410999298095703,8.440999984741211 C23.344999313354492,0.878000020980835 25.493000030517578,-6.441999912261963 26.391000747680664,-9.708000183105469 C27.054000854492188,-12.116000175476074 35.71799850463867,-13.418999671936035 36.117000579833984,-9.734000205993652 C36.237998962402344,-8.607000350952148 34.694000244140625,1.4119999408721924 33.76100158691406,7.144000053405762 C32.840999603271484,12.791000366210938 28.56599998474121,13.758000373840332 26.410999298095703,8.440999984741211z M-3.927000045776367,8.520000457763672 C-6.993000030517578,0.9570000171661377 -4.84499979019165,-6.36299991607666 -3.947000026702881,-9.628999710083008 C-3.2839999198913574,-12.036999702453613 5.380000114440918,-13.340999603271484 5.7789998054504395,-9.656000137329102 C5.900000095367432,-8.529000282287598 4.355999946594238,1.4900000095367432 3.4230000972747803,7.2220001220703125 C2.503000020980835,12.869000434875488 -1.7719999551773071,13.836999893188477 -3.927000045776367,8.520000457763672z M-34.53200149536133,8.526000022888184 C-37.597999572753906,0.9629999995231628 -35.45000076293945,-6.35699987411499 -34.551998138427734,-9.623000144958496 C-33.888999938964844,-12.031000137329102 -25.22599983215332,-13.333999633789062 -24.82699966430664,-9.64900016784668 C-24.70599937438965,-8.522000312805176 -26.249000549316406,1.496000051498413 -27.18199920654297,7.228000164031982 C-28.101999282836914,12.875 -32.37699890136719,13.843000411987305 -34.53200149536133,8.526000022888184z"/></g></g><g transform="matrix(1,0,0,1,95.6709976196289,78.61699676513672)" opacity="1" style="display: block;"><g opacity="1" transform="matrix(1,0,0,1,0,0)"><path stroke-linecap="round" stroke-linejoin="round" fill-opacity="0" class="primary" stroke="rgb(42,48,107)" stroke-opacity="1" stroke-width="1" d=" M40.03900146484375,-22.465999603271484 C24.38599967956543,-22.465999603271484 -34.39500045776367,-22.29599952697754 -38.95500183105469,-22.50200080871582"/></g></g><g transform="matrix(1,0,0,1,95.6709976196289,78.61699676513672)" opacity="1" style="display: block;"><g opacity="1" transform="matrix(1,0,0,1,0,0)"><path stroke-linecap="round" stroke-linejoin="round" fill-opacity="0" class="primary" stroke="rgb(42,48,107)" stroke-opacity="1" stroke-width="1" d=" M39.98400115966797,-8.689000129699707 C24.33099937438965,-8.689000129699707 -36.38800048828125,-7.979000091552734 -39.00899887084961,-8.725000381469727"/></g></g><g transform="matrix(1,0,0,1,95.6709976196289,78.61699676513672)" opacity="1" style="display: block;"><g opacity="1" transform="matrix(1,0,0,1,0,0)"><path stroke-linecap="round" stroke-linejoin="round" fill-opacity="0" class="primary" stroke="rgb(42,48,107)" stroke-opacity="1" stroke-width="1" d=" M39.4739990234375,7.622000217437744 C23.820999145507812,7.622000217437744 -36.89899826049805,8.331999778747559 -39.52000045776367,7.585999965667725"/></g></g><g transform="matrix(1,0,0,1,95.6709976196289,78.61699676513672)" opacity="1" style="display: block;"><g opacity="1" transform="matrix(1,0,0,1,0,0)"><path stroke-linecap="round" stroke-linejoin="round" fill-opacity="0" class="primary" stroke="rgb(42,48,107)" stroke-opacity="1" stroke-width="1" d=" M3.7709999084472656,22.408000946044922 C-16.94099998474121,22.53499984741211 -38.500999450683594,22.599000930786133 -40.03900146484375,22.160999298095703"/></g></g><g transform="matrix(1,0,0,1,165.17100524902344,103.65399932861328)" opacity="1" style="display: block;"><g opacity="1" transform="matrix(1,0,0,1,0,0)"><path stroke-linecap="round" stroke-linejoin="round" fill-opacity="0" class="primary" stroke="rgb(42,48,107)" stroke-opacity="1" stroke-width="1" d=" M-0.722000002861023,22.219999313354492 C-0.2370000034570694,5.752999782562256 0.5189999938011169,-20.06999969482422 1.0609999895095825,-38.77199935913086"/></g></g><g transform="matrix(1,0,0,1,165.17100524902344,103.65399932861328)" opacity="1" style="display: block;"><g opacity="1" transform="matrix(1,0,0,1,0,0)"><path stroke-linecap="round" stroke-linejoin="round" fill-opacity="0" class="primary" stroke="rgb(42,48,107)" stroke-opacity="1" stroke-width="1" d=" M-1.7109999656677246,38.76900100708008 C-1.7109999656677246,38.76900100708008 -1.5800000429153442,35.32899856567383 -1.3680000305175781,29.719999313354492"/></g></g><g transform="matrix(-1,0,0,-1,25.79100799560547,59.82499694824219)" opacity="1" style="display: block;"><g opacity="1" transform="matrix(0.04705414921045303,0.9988923668861389,-0.9988923668861389,0.04705414921045303,0,0)"><path stroke-linecap="round" stroke-linejoin="round" fill-opacity="0" class="primary" stroke="rgb(42,48,107)" stroke-opacity="1" stroke-width="1.0015" d=" M31.22599983215332,0.8180000185966492 C29.422000885009766,0.8539999723434448 -6.785999774932861,-0.5899999737739563 -31.341999053955078,-1.3420000076293945"/></g></g></g></g><g transform="matrix(1.0000015497207642,0,0,1.0000015497207642,64.19438934326172,136.1018524169922)" opacity="1" style="display: block;"><g opacity="1" transform="matrix(1,0,0,1,0,0)"><path stroke-linecap="round" stroke-linejoin="round" fill-opacity="0" class="primary" stroke="rgb(42,48,107)" stroke-opacity="1" stroke-width="1.5015" d=" M-37.03099822998047,15.723999977111816 C-37.08300018310547,10.392000198364258 -31.047000885009766,8.324000358581543 -28.774999618530273,8.300999641418457 C-27.12700080871582,8.284000396728516 7.158999919891357,7.7170000076293945 20.006999969482422,8.140000343322754 C24.579999923706055,8.291000366210938 28.625,10.875 28.45599937438965,15.819999694824219 C28.2549991607666,21.709999084472656 25.834999084472656,23.583999633789062 19.65999984741211,23.67799949645996 C7.243000030517578,23.865999221801758 -16.48900032043457,23.507999420166016 -28.361000061035156,23.719999313354492 C-31.916000366210938,23.784000396728516 -36.957000732421875,23.059999465942383 -37.03099822998047,15.723999977111816z"/></g></g><g transform="matrix(1.0000015497207642,0,0,1.0000015497207642,50.187408447265625,135.9677276611328)" opacity="1" style="display: block;"><g opacity="1" transform="matrix(1,0,0,1,0,0)"><path stroke-linecap="round" stroke-linejoin="round" fill-opacity="0" class="primary" stroke="rgb(42,48,107)" stroke-opacity="1" stroke-width="1.5015" d=" M-28.461000442504883,-0.10700000077486038 C-28.51300048828125,-5.439000129699707 -22.47800064086914,-7.507999897003174 -20.20599937438965,-7.531000137329102 C-18.558000564575195,-7.547999858856201 15.729000091552734,-8.11400032043457 28.57699966430664,-7.690999984741211 C33.150001525878906,-7.539999961853027 37.19499969482422,-4.955999851226807 37.0260009765625,-0.010999999940395355 C36.82500076293945,5.879000186920166 34.404998779296875,7.752999782562256 28.229999542236328,7.8470001220703125 C15.812999725341797,8.03499984741211 -7.919000148773193,7.677000045776367 -19.791000366210938,7.888999938964844 C-23.34600067138672,7.953000068664551 -28.386999130249023,7.229000091552734 -28.461000442504883,-0.10700000077486038z"/></g></g><g transform="matrix(1,0,0,1,43.62200164794922,167.4340057373047)" opacity="1" style="display: block;"><g opacity="1" transform="matrix(1,0,0,1,0,0)"><path stroke-linecap="round" stroke-linejoin="round" fill-opacity="0" class="primary" stroke="rgb(42,48,107)" stroke-opacity="1" stroke-width="1.0015" d=" M17.933000564575195,-0.18700000643730164 C14.642000198364258,-0.13899999856948853 -14.644000053405762,0.20999999344348907 -17.933000564575195,0.1850000023841858"/></g></g><g transform="matrix(1,0,0,1,55.61800003051758,151.7779998779297)" opacity="1" style="display: block;"><g opacity="1" transform="matrix(1,0,0,1,0,0)"><path stroke-linecap="round" stroke-linejoin="round" fill-opacity="0" class="primary" stroke="rgb(42,48,107)" stroke-opacity="1" stroke-width="1.5015" d=" M-37.03099822998047,15.723999977111816 C-37.08300018310547,10.392000198364258 -31.047000885009766,8.324000358581543 -28.774999618530273,8.300999641418457 C-27.12700080871582,8.284000396728516 7.158999919891357,7.7170000076293945 20.006999969482422,8.140000343322754 C24.579999923706055,8.291000366210938 28.625,10.875 28.45599937438965,15.819999694824219 C28.2549991607666,21.709999084472656 25.834999084472656,23.583999633789062 19.65999984741211,23.67799949645996 C7.243000030517578,23.865999221801758 -16.48900032043457,23.507999420166016 -28.361000061035156,23.719999313354492 C-31.916000366210938,23.784000396728516 -36.957000732421875,23.059999465942383 -37.03099822998047,15.723999977111816z"/></g></g></g></g></svg>