<svg xmlns="http://www.w3.org/2000/svg" xmlns:xlink="http://www.w3.org/1999/xlink" viewBox="0 0 192 192" width="192" height="192" preserveAspectRatio="xMidYMid meet" style="width: 100%; height: 100%; transform: translate3d(0px, 0px, 0px); content-visibility: visible;"><defs><clipPath id="__lottie_element_3835"><rect width="192" height="192" x="0" y="0"/></clipPath><clipPath id="__lottie_element_3837"><path d="M0,0 L192,0 L192,192 L0,192z"/></clipPath><clipPath id="__lottie_element_3842"><path d="M0,0 L192,0 L192,192 L0,192z"/></clipPath><g id="__lottie_element_3845"><g clip-path="url(#__lottie_element_3846)" transform="matrix(0.8700000047683716,0,0,0.8700000047683716,-6.0200042724609375,13.979995727539062)" opacity="1" style="display: block;"><g transform="matrix(0.9700000286102295,0,0,0.9700000286102295,24.546585083007812,2.546630859375)" opacity="1" style="display: block;"><path fill="rgb(255,0,0)" fill-opacity="1" d=" M81.91,95.5 C81.3,96.97 80.71,98.23 80.11,99.32 C74.86,108.87 69.5,104.91 55.5,111.83 C22.5,128.15 32.49,167.84 32.76,167.97 C33.69,168.45 140.8,168.96 158.89,169.17 C159.98,169.18 168.84,119.55 135.83,110.72 C132.69,109.88 118.46,111.07 113.77,99.15 C113.21,97.7 112.78,96.07 112.53,94.21"/><g opacity="1" transform="matrix(1,0,0,1,95.9530029296875,131.68800354003906)"><g opacity="1" transform="matrix(1,0,0,1,0,0)"/></g><g opacity="1" transform="matrix(1,0,0,1,96.95700073242188,114.86299896240234)"/></g><g transform="matrix(0.9700000286102295,0,0,0.9700000286102295,117.12300109863281,62.375999450683594)" opacity="1" style="display: block;"><path fill="rgb(255,0,0)" fill-opacity="1" d=" M-27.246999740600586,-24.729000091552734 C-20.131999969482422,-37.06700134277344 -6.276000022888184,-39.132999420166016 1.1139999628067017,-39.26300048828125 C24.729999542236328,-39.678001403808594 28.65399932861328,-23.929000854492188 30.452999114990234,-14.810999870300293 C32.323001861572266,-5.334000110626221 32.270999908447266,14.704999923706055 19.43600082397461,29.548999786376953 C17.861000061035156,31.371000289916992 15.138999938964844,34.10900115966797 13.184000015258789,35.430999755859375 C-0.1340000033378601,44.43000030517578 -14.083000183105469,36.36199951171875 -21.7549991607666,24.141000747680664 C-25.761999130249023,17.759000778198242 -28.354000091552734,9.607000350952148 -30.14699935913086,2.3350000381469727 C-32.2140007019043,-6.048999786376953 -31.783000946044922,-16.86199951171875 -27.246999740600586,-24.729000091552734z"/><g opacity="1" transform="matrix(1,0,0,1,0,0)"/></g></g></g><clipPath id="__lottie_element_3846"><path d="M0,0 L192,0 L192,192 L0,192z"/></clipPath><clipPath id="__lottie_element_3857"><path d="M0,0 L192,0 L192,192 L0,192z"/></clipPath><g id="__lottie_element_3860"><g clip-path="url(#__lottie_element_3861)" transform="matrix(0.8700000047683716,0,0,0.8700000047683716,-6.0200042724609375,13.979995727539062)" opacity="1" style="display: block;"><g transform="matrix(0.9700000286102295,0,0,0.9700000286102295,24.546585083007812,2.546630859375)" opacity="1" style="display: block;"><path fill="rgb(255,0,0)" fill-opacity="1" d=" M81.91,95.5 C81.3,96.97 80.71,98.23 80.11,99.32 C74.86,108.87 69.5,104.91 55.5,111.83 C22.5,128.15 32.49,167.84 32.76,167.97 C33.69,168.45 140.8,168.96 158.89,169.17 C159.98,169.18 168.84,119.55 135.83,110.72 C132.69,109.88 118.46,111.07 113.77,99.15 C113.21,97.7 112.78,96.07 112.53,94.21"/><g opacity="1" transform="matrix(1,0,0,1,95.9530029296875,131.68800354003906)"><g opacity="1" transform="matrix(1,0,0,1,0,0)"/></g><g opacity="1" transform="matrix(1,0,0,1,96.95700073242188,114.86299896240234)"/></g><g transform="matrix(0.9700000286102295,0,0,0.9700000286102295,117.12300109863281,62.375999450683594)" opacity="1" style="display: block;"><path fill="rgb(255,0,0)" fill-opacity="1" d=" M-27.246999740600586,-24.729000091552734 C-20.131999969482422,-37.06700134277344 -6.276000022888184,-39.132999420166016 1.1139999628067017,-39.26300048828125 C24.729999542236328,-39.678001403808594 28.65399932861328,-23.929000854492188 30.452999114990234,-14.810999870300293 C32.323001861572266,-5.334000110626221 32.270999908447266,14.704999923706055 19.43600082397461,29.548999786376953 C17.861000061035156,31.371000289916992 15.138999938964844,34.10900115966797 13.184000015258789,35.430999755859375 C-0.1340000033378601,44.43000030517578 -14.083000183105469,36.36199951171875 -21.7549991607666,24.141000747680664 C-25.761999130249023,17.759000778198242 -28.354000091552734,9.607000350952148 -30.14699935913086,2.3350000381469727 C-32.2140007019043,-6.048999786376953 -31.783000946044922,-16.86199951171875 -27.246999740600586,-24.729000091552734z"/><g opacity="1" transform="matrix(1,0,0,1,0,0)"/></g></g></g><clipPath id="__lottie_element_3861"><path d="M0,0 L192,0 L192,192 L0,192z"/></clipPath><g id="__lottie_element_3871"><g transform="matrix(0.8439000248908997,0,0,0.8439000248908997,95.87699890136719,68.24700164794922)" opacity="1" style="display: block;"><path fill="rgb(255,0,0)" fill-opacity="1" d=" M-27.246999740600586,-24.729000091552734 C-20.131999969482422,-37.06700134277344 -6.276000022888184,-39.132999420166016 1.1139999628067017,-39.26300048828125 C24.729999542236328,-39.678001403808594 28.65399932861328,-23.929000854492188 30.452999114990234,-14.810999870300293 C32.323001861572266,-5.334000110626221 32.270999908447266,14.704999923706055 19.43600082397461,29.548999786376953 C17.861000061035156,31.371000289916992 15.138999938964844,34.10900115966797 13.184000015258789,35.430999755859375 C-0.1340000033378601,44.43000030517578 -14.083000183105469,36.36199951171875 -21.7549991607666,24.141000747680664 C-25.761999130249023,17.759000778198242 -28.354000091552734,9.607000350952148 -30.14699935913086,2.3350000381469727 C-32.2140007019043,-6.048999786376953 -31.783000946044922,-16.86199951171875 -27.246999740600586,-24.729000091552734z"/><g opacity="1" transform="matrix(1,0,0,1,0,0)"/></g></g><filter id="__lottie_element_3888" filterUnits="objectBoundingBox" x="0%" y="0%" width="100%" height="100%"><feComponentTransfer in="SourceGraphic"><feFuncA type="table" tableValues="1.0 0.0"/></feComponentTransfer></filter><mask id="__lottie_element_3871_2" mask-type="alpha" maskUnits="userSpaceOnUse"><g filter="url(#__lottie_element_3888)"><rect width="192" height="192" x="0" y="0" fill="#ffffff" opacity="0"/><use xmlns:ns1="http://www.w3.org/1999/xlink" ns1:href="#__lottie_element_3871"/></g></mask><filter id="__lottie_element_3889" filterUnits="objectBoundingBox" x="0%" y="0%" width="100%" height="100%"><feComponentTransfer in="SourceGraphic"><feFuncA type="table" tableValues="1.0 0.0"/></feComponentTransfer></filter><mask id="__lottie_element_3860_2" mask-type="alpha" maskUnits="userSpaceOnUse"><g filter="url(#__lottie_element_3889)"><rect width="192" height="192" x="0" y="0" fill="#ffffff" opacity="0"/><use xmlns:ns2="http://www.w3.org/1999/xlink" ns2:href="#__lottie_element_3860"/></g></mask><filter id="__lottie_element_3890" filterUnits="objectBoundingBox" x="0%" y="0%" width="100%" height="100%"><feComponentTransfer in="SourceGraphic"><feFuncA type="table" tableValues="1.0 0.0"/></feComponentTransfer></filter><mask id="__lottie_element_3845_2" mask-type="alpha" maskUnits="userSpaceOnUse"><g filter="url(#__lottie_element_3890)"><rect width="192" height="192" x="0" y="0" fill="#ffffff" opacity="0"/><use xmlns:ns3="http://www.w3.org/1999/xlink" ns3:href="#__lottie_element_3845"/></g></mask><g id="__lottie_element_3894"><g transform="matrix(0.7049999833106995,0,0,0.7049999833106995,59.10499954223633,53.05400085449219)" opacity="1" style="display: block;"><path fill="rgb(255,0,0)" fill-opacity="1" d=" M-27.246999740600586,-24.729000091552734 C-20.131999969482422,-37.06700134277344 -6.276000022888184,-39.132999420166016 1.1139999628067017,-39.26300048828125 C24.729999542236328,-39.678001403808594 28.65399932861328,-23.929000854492188 30.452999114990234,-14.810999870300293 C32.323001861572266,-5.334000110626221 32.270999908447266,14.704999923706055 19.43600082397461,29.548999786376953 C17.861000061035156,31.371000289916992 15.138999938964844,34.10900115966797 13.184000015258789,35.430999755859375 C-0.1340000033378601,44.43000030517578 -14.083000183105469,36.36199951171875 -21.7549991607666,24.141000747680664 C-25.761999130249023,17.759000778198242 -28.354000091552734,9.607000350952148 -30.14699935913086,2.3350000381469727 C-32.2140007019043,-6.048999786376953 -31.783000946044922,-16.86199951171875 -27.246999740600586,-24.729000091552734z"/><g opacity="1" transform="matrix(1,0,0,1,0,0)"/></g></g><filter id="__lottie_element_3903" filterUnits="objectBoundingBox" x="0%" y="0%" width="100%" height="100%"><feComponentTransfer in="SourceGraphic"><feFuncA type="table" tableValues="1.0 0.0"/></feComponentTransfer></filter><mask id="__lottie_element_3894_2" mask-type="alpha" maskUnits="userSpaceOnUse"><g filter="url(#__lottie_element_3903)"><rect width="192" height="192" x="0" y="0" fill="#ffffff" opacity="0"/><use xmlns:ns4="http://www.w3.org/1999/xlink" ns4:href="#__lottie_element_3894"/></g></mask><g id="__lottie_element_3917"><g transform="matrix(0.7049999833106995,0,0,0.7049999833106995,59.10499954223633,53.05400085449219)" opacity="1" style="display: block;"><path fill="rgb(255,0,0)" fill-opacity="1" d=" M-27.246999740600586,-24.729000091552734 C-20.131999969482422,-37.06700134277344 -6.276000022888184,-39.132999420166016 1.1139999628067017,-39.26300048828125 C24.729999542236328,-39.678001403808594 28.65399932861328,-23.929000854492188 30.452999114990234,-14.810999870300293 C32.323001861572266,-5.334000110626221 32.270999908447266,14.704999923706055 19.43600082397461,29.548999786376953 C17.861000061035156,31.371000289916992 15.138999938964844,34.10900115966797 13.184000015258789,35.430999755859375 C-0.1340000033378601,44.43000030517578 -14.083000183105469,36.36199951171875 -21.7549991607666,24.141000747680664 C-25.761999130249023,17.759000778198242 -28.354000091552734,9.607000350952148 -30.14699935913086,2.3350000381469727 C-32.2140007019043,-6.048999786376953 -31.783000946044922,-16.86199951171875 -27.246999740600586,-24.729000091552734z"/><g opacity="1" transform="matrix(1,0,0,1,0,0)"/></g></g><filter id="__lottie_element_3931" filterUnits="objectBoundingBox" x="0%" y="0%" width="100%" height="100%"><feComponentTransfer in="SourceGraphic"><feFuncA type="table" tableValues="1.0 0.0"/></feComponentTransfer></filter><mask id="__lottie_element_3917_2" mask-type="alpha" maskUnits="userSpaceOnUse"><g filter="url(#__lottie_element_3931)"><rect width="192" height="192" x="0" y="0" fill="#ffffff" opacity="0"/><use xmlns:ns5="http://www.w3.org/1999/xlink" ns5:href="#__lottie_element_3917"/></g></mask></defs><g clip-path="url(#__lottie_element_3835)"><g clip-path="url(#__lottie_element_3837)" transform="matrix(1,0,0,1,0,0)" opacity="1" style="display: block;"><g mask="url(#__lottie_element_3845_2)" style="display: block;"><g clip-path="url(#__lottie_element_3842)" transform="matrix(0.8700000047683716,0,0,0.8700000047683716,95.47999572753906,12.269996643066406)" opacity="1"><g mask="url(#__lottie_element_3894_2)" style="display: block;"><g transform="matrix(0.7049999833106995,0,0,0.7049999833106995,-8.179866790771484,9.569961547851562)" opacity="1"><g opacity="1" transform="matrix(1,0,0,1,95.9530029296875,131.68800354003906)"><g opacity="1" transform="matrix(1,0,0,1,0,0)"><path stroke-linecap="round" stroke-linejoin="round" fill-opacity="0" class="primary" stroke="rgb(42,48,107)" stroke-opacity="1" stroke-width="4" d=" M-14.045999526977539,-36.1879997253418 C-14.652999877929688,-34.71699905395508 -15.248000144958496,-33.45600128173828 -15.845000267028809,-32.369998931884766 C-21.09600067138672,-22.81800079345703 -26.45599937438965,-26.775999069213867 -40.45399856567383,-19.854000091552734 C-73.45800018310547,-3.5350000858306885 -63.459999084472656,36.152000427246094 -63.196998596191406,36.2859992980957 C-62.26499938964844,36.757999420166016 44.85100173950195,37.2760009765625 62.939998626708984,37.47700119018555 C64.02300262451172,37.48899841308594 72.88200378417969,-12.142000198364258 39.87200164794922,-20.965999603271484 C36.73400115966797,-21.804000854492188 22.503000259399414,-20.621000289916992 17.820999145507812,-32.54199981689453 C17.253999710083008,-33.986000061035156 16.826000213623047,-35.62200164794922 16.576000213623047,-37.47700119018555"/></g></g><g opacity="1" transform="matrix(1,0,0,1,96.95700073242188,114.86299896240234)"><g opacity="1" transform="matrix(1,0,0,1,0,0)"><path stroke-linecap="round" stroke-linejoin="round" fill-opacity="0" class="primary" stroke="rgb(42,48,107)" stroke-opacity="1" stroke-width="4" d=" M18.93199920654297,-1.8450000286102295 C14.3149995803833,1.1619999408721924 7.03000020980835,3.7279999256134033 -0.6110000014305115,3.5239999294281006 C-6.71999979019165,3.3610000610351562 -13.163000106811523,0.35100001096725464 -18.93199920654297,-3.5350000858306885"/></g></g></g></g><g transform="matrix(0.7049999833106995,0,0,0.7049999833106995,59.10499954223633,53.05400085449219)" opacity="1" style="display: block;"><g opacity="1" transform="matrix(1,0,0,1,0,0)"><path stroke-linecap="round" stroke-linejoin="round" fill-opacity="0" class="primary" stroke="rgb(42,48,107)" stroke-opacity="1" stroke-width="4" d=" M-27.246999740600586,-24.729000091552734 C-20.131999969482422,-37.06700134277344 -6.276000022888184,-39.132999420166016 1.1139999628067017,-39.26300048828125 C24.729999542236328,-39.678001403808594 28.65399932861328,-23.929000854492188 30.452999114990234,-14.810999870300293 C32.323001861572266,-5.334000110626221 32.270999908447266,14.704999923706055 19.43600082397461,29.548999786376953 C17.861000061035156,31.371000289916992 15.138999938964844,34.10900115966797 13.184000015258789,35.430999755859375 C-0.1340000033378601,44.43000030517578 -14.083000183105469,36.36199951171875 -21.7549991607666,24.141000747680664 C-25.761999130249023,17.759000778198242 -28.354000091552734,9.607000350952148 -30.14699935913086,2.3350000381469727 C-32.2140007019043,-6.048999786376953 -31.783000946044922,-16.86199951171875 -27.246999740600586,-24.729000091552734z"/></g></g><g transform="matrix(1.1200000047683716,0,0,1.1200000047683716,59.47200012207031,107.64299774169922)" opacity="1" style="display: block;"><g opacity="1" transform="matrix(1,0,0,1,0,0)"><path class="secondary" fill="rgb(230,142,110)" fill-opacity="1" d=" M12.748000144958496,-12.701000213623047 C21.840999603271484,-16.969999313354492 27.975000381469727,-10.822999954223633 28.788000106811523,-9.833999633789062 C36.345001220703125,-0.640999972820282 36.20000076293945,14.298999786376953 34.939998626708984,14.770999908447266 C32.57899856567383,15.656000137329102 -14.656999588012695,13.369999885559082 -31.937999725341797,13.815999984741211 C-39.43600082397461,14.008999824523926 -34.46500015258789,-8.196000099182129 -25.511999130249023,-12.743000030517578 C-20.94300079345703,-15.062999725341797 -13.640000343322754,-15.92300033569336 -9.859000205993652,-13.630000114440918 C-7.054999828338623,-11.930000305175781 -3.8959999084472656,-9.54800033569336 2.872999906539917,-9.553999900817871 C4.02400016784668,-9.555000305175781 8.83899974822998,-10.866000175476074 12.748000144958496,-12.701000213623047z"/><path stroke-linecap="butt" stroke-linejoin="miter" fill-opacity="0" stroke-miterlimit="4" class="secondary" stroke="rgb(230,142,110)" stroke-opacity="1" stroke-width="1" d=" M12.748000144958496,-12.701000213623047 C21.840999603271484,-16.969999313354492 27.975000381469727,-10.822999954223633 28.788000106811523,-9.833999633789062 C36.345001220703125,-0.640999972820282 36.20000076293945,14.298999786376953 34.939998626708984,14.770999908447266 C32.57899856567383,15.656000137329102 -14.656999588012695,13.369999885559082 -31.937999725341797,13.815999984741211 C-39.43600082397461,14.008999824523926 -34.46500015258789,-8.196000099182129 -25.511999130249023,-12.743000030517578 C-20.94300079345703,-15.062999725341797 -13.640000343322754,-15.92300033569336 -9.859000205993652,-13.630000114440918 C-7.054999828338623,-11.930000305175781 -3.8959999084472656,-9.54800033569336 2.872999906539917,-9.553999900817871 C4.02400016784668,-9.555000305175781 8.83899974822998,-10.866000175476074 12.748000144958496,-12.701000213623047z"/></g></g></g></g><g transform="matrix(-0.8462340235710144,0.1340303122997284,-0.1340303122997284,-0.8462340235710144,166.9961395263672,67.10061645507812)" opacity="1" style="display: block;"><g opacity="1" transform="matrix(1,0,0,1,0,0)"><path stroke-linecap="round" stroke-linejoin="round" fill-opacity="0" class="primary" stroke-dasharray=" 45 0" stroke-dashoffset="30" stroke="rgb(42,48,107)" stroke-opacity="1" stroke-width="2" d=" M0.8220000267028809,-13.656000137329102 C-5.671999931335449,-8.803000450134277 -12.17199993133545,1.5390000343322754 -11.47599983215332,14.345000267028809 C-11.461999893188477,14.600000381469727 -11.447999954223633,14.854000091552734 -11.434000015258789,15.104999542236328"/></g></g><g transform="matrix(0.7453980445861816,0,0,0.7453980445861816,131.27525329589844,39.59493637084961)" opacity="1" style="display: block;"><g opacity="1" transform="matrix(1,0,0,1,0,0)"><path stroke-linecap="round" stroke-linejoin="round" fill-opacity="0" class="primary" stroke-dasharray=" 45 0" stroke-dashoffset="30" stroke="rgb(42,48,107)" stroke-opacity="1" stroke-width="2" d=" M32.064998626708984,-14.062000274658203 C26.66200065612793,-15.642999649047852 21.2450008392334,-15.63599967956543 17.33099937438965,-15.276000022888184"/></g></g><g mask="url(#__lottie_element_3860_2)" style="display: block;"><g clip-path="url(#__lottie_element_3857)" transform="matrix(0.8700000047683716,0,0,0.8700000047683716,-6.0200042724609375,14.269996643066406)" opacity="1"><g transform="matrix(1.1200000047683716,0,0,1.1200000047683716,59.47200012207031,107.64299774169922)" opacity="1" style="display: block;"><g opacity="1" transform="matrix(1,0,0,1,0,0)"><path class="secondary" fill="rgb(230,142,110)" fill-opacity="1" d=" M12.748000144958496,-12.701000213623047 C21.840999603271484,-16.969999313354492 27.975000381469727,-10.822999954223633 28.788000106811523,-9.833999633789062 C36.345001220703125,-0.640999972820282 36.20000076293945,14.298999786376953 34.939998626708984,14.770999908447266 C32.57899856567383,15.656000137329102 -14.656999588012695,13.369999885559082 -31.937999725341797,13.815999984741211 C-39.43600082397461,14.008999824523926 -34.46500015258789,-8.196000099182129 -25.511999130249023,-12.743000030517578 C-20.94300079345703,-15.062999725341797 -13.640000343322754,-15.92300033569336 -9.859000205993652,-13.630000114440918 C-7.054999828338623,-11.930000305175781 -3.8959999084472656,-9.54800033569336 2.872999906539917,-9.553999900817871 C4.02400016784668,-9.555000305175781 8.83899974822998,-10.866000175476074 12.748000144958496,-12.701000213623047z"/><path stroke-linecap="butt" stroke-linejoin="miter" fill-opacity="0" stroke-miterlimit="4" class="secondary" stroke="rgb(230,142,110)" stroke-opacity="1" stroke-width="1" d=" M12.748000144958496,-12.701000213623047 C21.840999603271484,-16.969999313354492 27.975000381469727,-10.822999954223633 28.788000106811523,-9.833999633789062 C36.345001220703125,-0.640999972820282 36.20000076293945,14.298999786376953 34.939998626708984,14.770999908447266 C32.57899856567383,15.656000137329102 -14.656999588012695,13.369999885559082 -31.937999725341797,13.815999984741211 C-39.43600082397461,14.008999824523926 -34.46500015258789,-8.196000099182129 -25.511999130249023,-12.743000030517578 C-20.94300079345703,-15.062999725341797 -13.640000343322754,-15.92300033569336 -9.859000205993652,-13.630000114440918 C-7.054999828338623,-11.930000305175781 -3.8959999084472656,-9.54800033569336 2.872999906539917,-9.553999900817871 C4.02400016784668,-9.555000305175781 8.83899974822998,-10.866000175476074 12.748000144958496,-12.701000213623047z"/></g></g><g transform="matrix(0.7049999833106995,0,0,0.7049999833106995,-30.034866333007812,9.569961547851562)" opacity="1" style="display: block;"><g opacity="1" transform="matrix(1,0,0,1,67.5780029296875,179.66299438476562)"><g opacity="1" transform="matrix(1,0,0,1,0,0)"><path stroke-linecap="round" stroke-linejoin="round" fill-opacity="0" class="primary" stroke="rgb(42,48,107)" stroke-opacity="1" stroke-width="4" d=" M26.03700065612793,-0.10300000011920929 C22.417999267578125,-0.10300000011920929 3.828000068664551,0.11400000005960464 -4.390999794006348,0.08900000154972076"/></g></g><g opacity="1" transform="matrix(1,0,0,1,121.91899871826172,179.75)"><g opacity="1" transform="matrix(1,0,0,1,0,0)"><path stroke-linecap="round" stroke-linejoin="round" fill-opacity="0" class="primary" stroke="rgb(42,48,107)" stroke-opacity="1" stroke-width="4" d="M0 0"/></g></g></g><g transform="matrix(0.8600999712944031,0,0,0.8600999712944031,30.865999221801758,106.58899688720703)" opacity="1" style="display: block;"><g opacity="1" transform="matrix(1,0,0,1,0,0)"><path stroke-linecap="round" stroke-linejoin="round" fill-opacity="0" class="primary" stroke-dasharray=" 45 0" stroke-dashoffset="30" stroke="rgb(42,48,107)" stroke-opacity="1" stroke-width="3" d=" M0.8220000267028809,-13.656000137329102 C-5.671999931335449,-8.803000450134277 -12.17199993133545,1.5390000343322754 -11.47599983215332,14.345000267028809 C-11.461999893188477,14.600000381469727 -11.447999954223633,14.854000091552734 -11.434000015258789,15.104999542236328"/></g></g><g mask="url(#__lottie_element_3917_2)" style="display: block;"><g transform="matrix(0.7049999833106995,0,0,0.7049999833106995,-8.179866790771484,9.569961547851562)" opacity="1"><g opacity="1" transform="matrix(1,0,0,1,95.9530029296875,131.68800354003906)"><g opacity="1" transform="matrix(1,0,0,1,0,0)"><path stroke-linecap="round" stroke-linejoin="round" fill-opacity="0" class="primary" stroke="rgb(42,48,107)" stroke-opacity="1" stroke-width="4" d=" M-14.045999526977539,-36.1879997253418 C-14.652999877929688,-34.71699905395508 -15.248000144958496,-33.45600128173828 -15.845000267028809,-32.369998931884766 C-21.09600067138672,-22.81800079345703 -26.45599937438965,-26.775999069213867 -40.45399856567383,-19.854000091552734 C-73.45800018310547,-3.5350000858306885 -63.459999084472656,36.152000427246094 -63.196998596191406,36.2859992980957 C-62.26499938964844,36.757999420166016 44.85100173950195,37.2760009765625 62.939998626708984,37.47700119018555 C64.02300262451172,37.48899841308594 72.88200378417969,-12.142000198364258 39.87200164794922,-20.965999603271484 C36.73400115966797,-21.804000854492188 22.503000259399414,-20.621000289916992 17.820999145507812,-32.54199981689453 C17.253999710083008,-33.986000061035156 16.826000213623047,-35.62200164794922 16.576000213623047,-37.47700119018555"/></g></g><g opacity="1" transform="matrix(1,0,0,1,96.95700073242188,114.86299896240234)"><g opacity="1" transform="matrix(1,0,0,1,0,0)"><path stroke-linecap="round" stroke-linejoin="round" fill-opacity="0" class="primary" stroke="rgb(42,48,107)" stroke-opacity="1" stroke-width="4" d=" M18.93199920654297,-1.8450000286102295 C14.3149995803833,1.1619999408721924 7.03000020980835,3.7279999256134033 -0.6110000014305115,3.5239999294281006 C-6.71999979019165,3.3610000610351562 -13.163000106811523,0.35100001096725464 -18.93199920654297,-3.5350000858306885"/></g></g></g></g><g transform="matrix(0.7049999833106995,0,0,0.7049999833106995,59.10499954223633,53.05400085449219)" opacity="1" style="display: block;"><g opacity="1" transform="matrix(1,0,0,1,0,0)"><path stroke-linecap="round" stroke-linejoin="round" fill-opacity="0" class="primary" stroke="rgb(42,48,107)" stroke-opacity="1" stroke-width="4" d=" M-27.246999740600586,-24.729000091552734 C-20.131999969482422,-37.06700134277344 -6.276000022888184,-39.132999420166016 1.1139999628067017,-39.26300048828125 C24.729999542236328,-39.678001403808594 28.65399932861328,-23.929000854492188 30.452999114990234,-14.810999870300293 C32.323001861572266,-5.334000110626221 32.270999908447266,14.704999923706055 19.43600082397461,29.548999786376953 C17.861000061035156,31.371000289916992 15.138999938964844,34.10900115966797 13.184000015258789,35.430999755859375 C-0.1340000033378601,44.43000030517578 -14.083000183105469,36.36199951171875 -21.7549991607666,24.141000747680664 C-25.761999130249023,17.759000778198242 -28.354000091552734,9.607000350952148 -30.14699935913086,2.3350000381469727 C-32.2140007019043,-6.048999786376953 -31.783000946044922,-16.86199951171875 -27.246999740600586,-24.729000091552734z"/></g></g><g transform="matrix(0.8600999712944031,0,0,0.8600999712944031,40.73622512817383,31.153881072998047)" opacity="1" style="display: block;"><g opacity="1" transform="matrix(1,0,0,1,0,0)"><path stroke-linecap="round" stroke-linejoin="round" fill-opacity="0" class="primary" stroke-dasharray=" 45 0" stroke-dashoffset="30" stroke="rgb(42,48,107)" stroke-opacity="1" stroke-width="3" d=" M11.517000198364258,-14.345000267028809 C4.01200008392334,-14.128000259399414 -12.440999984741211,-3.4110000133514404 -11.47599983215332,14.345000267028809 C-11.465999603271484,14.531999588012695 -11.456000328063965,14.717000007629395 -11.444999694824219,14.902000427246094"/></g></g></g></g><g transform="matrix(1,0,0,1,97.23400115966797,133.9320068359375)" opacity="1" style="display: block;"><g opacity="1" transform="matrix(1,0,0,1,0,0)"><path class="secondary" fill="rgb(230,142,110)" fill-opacity="1" d=" M17.510000228881836,-17.44499969482422 C29.999000549316406,-23.30900001525879 38.42499923706055,-14.864999771118164 39.54100036621094,-13.506999969482422 C49.92100143432617,-0.8809999823570251 49.72100067138672,19.638999938964844 47.9900016784668,20.288000106811523 C44.74700164794922,21.503999710083008 -20.131000518798828,18.364999771118164 -43.86600112915039,18.976999282836914 C-54.165000915527344,19.243000030517578 -47.3380012512207,-11.256999969482422 -35.04100036621094,-17.50200080871582 C-28.764999389648438,-20.68899917602539 -18.735000610351562,-21.871000289916992 -13.541000366210938,-18.72100067138672 C-9.6899995803833,-16.38599967956543 -5.35099983215332,-13.114999771118164 3.946000099182129,-13.123000144958496 C5.5269999504089355,-13.125 12.140999794006348,-14.925000190734863 17.510000228881836,-17.44499969482422z"/><path stroke-linecap="butt" stroke-linejoin="miter" fill-opacity="0" stroke-miterlimit="4" class="secondary" stroke="rgb(230,142,110)" stroke-opacity="1" stroke-width="1" d=" M17.510000228881836,-17.44499969482422 C29.999000549316406,-23.30900001525879 38.42499923706055,-14.864999771118164 39.54100036621094,-13.506999969482422 C49.92100143432617,-0.8809999823570251 49.72100067138672,19.638999938964844 47.9900016784668,20.288000106811523 C44.74700164794922,21.503999710083008 -20.131000518798828,18.364999771118164 -43.86600112915039,18.976999282836914 C-54.165000915527344,19.243000030517578 -47.3380012512207,-11.256999969482422 -35.04100036621094,-17.50200080871582 C-28.764999389648438,-20.68899917602539 -18.735000610351562,-21.871000289916992 -13.541000366210938,-18.72100067138672 C-9.6899995803833,-16.38599967956543 -5.35099983215332,-13.114999771118164 3.946000099182129,-13.123000144958496 C5.5269999504089355,-13.125 12.140999794006348,-14.925000190734863 17.510000228881836,-17.44499969482422z"/></g></g><g transform="matrix(0.8439000248908997,0,0,0.8439000248908997,-7.185898303985596,16.19549560546875)" opacity="1" style="display: block;"><g opacity="1" transform="matrix(1,0,0,1,67.5780029296875,179.66299438476562)"><g opacity="1" transform="matrix(1,0,0,1,0,0)"><path stroke-linecap="round" stroke-linejoin="round" fill-opacity="0" class="primary" stroke="rgb(42,48,107)" stroke-opacity="1" stroke-width="3" d=" M9.86299991607666,0.006000000052154064 C6.24399995803833,0.006000000052154064 0.8759999871253967,0.07100000232458115 -7.3429999351501465,0.04600000008940697"/></g></g><g opacity="1" transform="matrix(1,0,0,1,121.91899871826172,179.75)"><g opacity="1" transform="matrix(1,0,0,1,0,0)"><path stroke-linecap="round" stroke-linejoin="round" fill-opacity="0" class="primary" stroke="rgb(42,48,107)" stroke-opacity="1" stroke-width="3" d=" M26.81399917602539,-0.09300000220537186 C26.81399917602539,0.2460000067949295 -33.67399978637695,-0.027000000700354576 -32.994998931884766,-0.11599999666213989"/></g></g></g><g transform="matrix(0.8439000248908997,0,0,0.8439000248908997,15.335258483886719,16.19549560546875)" opacity="1" style="display: block;"><g opacity="1" transform="matrix(1,0,0,1,69.43299865722656,159.7259979248047)"><g opacity="1" transform="matrix(1,0,0,1,0,0)"><path stroke-linecap="round" stroke-linejoin="round" fill-opacity="0" class="primary" stroke="rgb(42,48,107)" stroke-opacity="1" stroke-width="3" d=" M18.06100082397461,-0.032999999821186066 C14.425999641418457,0.06599999964237213 -16.579999923706055,0.13099999725818634 -18.06100082397461,-0.06199999898672104"/></g></g><g opacity="1" transform="matrix(1,0,0,1,104.91400146484375,159.81700134277344)"><g opacity="1" transform="matrix(1,0,0,1,0,0)"><path stroke-linecap="round" stroke-linejoin="round" fill-opacity="0" class="primary" stroke="rgb(42,48,107)" stroke-opacity="1" stroke-width="3" d=" M8.121999740600586,0.0949999988079071 C5.178999900817871,0.0949999988079071 -6.696000099182129,-0.2770000100135803 -8.121999740600586,0.020999999716877937"/></g></g></g><g transform="matrix(1.0295599699020386,0,0,1.0295599699020386,62.07500076293945,132.32899475097656)" opacity="1" style="display: block;"><g opacity="1" transform="matrix(1,0,0,1,0,0)"><path stroke-linecap="round" stroke-linejoin="round" fill-opacity="0" class="primary" stroke-dasharray=" 45 0" stroke-dashoffset="30" stroke="rgb(42,48,107)" stroke-opacity="1" stroke-width="2" d=" M0.8220000267028809,-13.656000137329102 C-5.671999931335449,-8.803000450134277 -12.17199993133545,1.5390000343322754 -11.47599983215332,14.345000267028809 C-11.461999893188477,14.600000381469727 -11.447999954223633,14.854000091552734 -11.434000015258789,15.104999542236328"/></g></g><g mask="url(#__lottie_element_3871_2)" style="display: block;"><g transform="matrix(0.8439000248908997,0,0,0.8439000248908997,15.335258483886719,16.19549560546875)" opacity="1"><g opacity="1" transform="matrix(1,0,0,1,95.9530029296875,131.68800354003906)"><g opacity="1" transform="matrix(1,0,0,1,0,0)"><path stroke-linecap="round" stroke-linejoin="round" fill-opacity="0" class="primary" stroke="rgb(42,48,107)" stroke-opacity="1" stroke-width="3" d=" M-14.045999526977539,-36.1879997253418 C-14.652999877929688,-34.71699905395508 -15.248000144958496,-33.45600128173828 -15.845000267028809,-32.369998931884766 C-21.09600067138672,-22.81800079345703 -26.45599937438965,-26.775999069213867 -40.45399856567383,-19.854000091552734 C-73.45800018310547,-3.5350000858306885 -63.459999084472656,36.152000427246094 -63.196998596191406,36.2859992980957 C-62.26499938964844,36.757999420166016 44.85100173950195,37.2760009765625 62.939998626708984,37.47700119018555 C64.02300262451172,37.48899841308594 72.88200378417969,-12.142000198364258 39.87200164794922,-20.965999603271484 C36.73400115966797,-21.804000854492188 22.503000259399414,-20.621000289916992 17.820999145507812,-32.54199981689453 C17.253999710083008,-33.986000061035156 16.826000213623047,-35.62200164794922 16.576000213623047,-37.47700119018555"/></g></g><g opacity="1" transform="matrix(1,0,0,1,96.95700073242188,114.86299896240234)"><g opacity="1" transform="matrix(1,0,0,1,0,0)"><path stroke-linecap="round" stroke-linejoin="round" fill-opacity="0" class="primary" stroke="rgb(42,48,107)" stroke-opacity="1" stroke-width="3" d=" M18.93199920654297,-1.8450000286102295 C14.3149995803833,1.1619999408721924 7.03000020980835,3.7279999256134033 -0.6110000014305115,3.5239999294281006 C-6.71999979019165,3.3610000610351562 -13.163000106811523,0.35100001096725464 -18.93199920654297,-3.5350000858306885"/></g></g></g></g><g transform="matrix(0.8439000248908997,0,0,0.8439000248908997,95.87699890136719,68.24700164794922)" opacity="1" style="display: block;"><g opacity="1" transform="matrix(1,0,0,1,0,0)"><path stroke-linecap="round" stroke-linejoin="round" fill-opacity="0" class="primary" stroke="rgb(42,48,107)" stroke-opacity="1" stroke-width="3" d=" M-27.246999740600586,-24.729000091552734 C-20.131999969482422,-37.06700134277344 -6.276000022888184,-39.132999420166016 1.1139999628067017,-39.26300048828125 C24.729999542236328,-39.678001403808594 28.65399932861328,-23.929000854492188 30.452999114990234,-14.810999870300293 C32.323001861572266,-5.334000110626221 32.270999908447266,14.704999923706055 19.43600082397461,29.548999786376953 C17.861000061035156,31.371000289916992 15.138999938964844,34.10900115966797 13.184000015258789,35.430999755859375 C-0.1340000033378601,44.43000030517578 -14.083000183105469,36.36199951171875 -21.7549991607666,24.141000747680664 C-25.761999130249023,17.759000778198242 -28.354000091552734,9.607000350952148 -30.14699935913086,2.3350000381469727 C-32.2140007019043,-6.048999786376953 -31.783000946044922,-16.86199951171875 -27.246999740600586,-24.729000091552734z"/></g></g><g transform="matrix(1.0295580625534058,0,0,1.0295580625534058,73.8891830444336,42.0320930480957)" opacity="1" style="display: block;"><g opacity="1" transform="matrix(1,0,0,1,0,0)"><path stroke-linecap="round" stroke-linejoin="round" fill-opacity="0" class="primary" stroke-dasharray=" 45 0" stroke-dashoffset="30" stroke="rgb(42,48,107)" stroke-opacity="1" stroke-width="2" d=" M21.458999633789062,-15.472999572753906 C15.734999656677246,-15.458000183105469 11.517000198364258,-14.345000267028809 11.517000198364258,-14.345000267028809 C7.271999835968018,-14.222000122070312 0.164000004529953,-10.739999771118164 -5.034999847412109,-4.526000022888184"/></g></g></g></g></svg>