<svg xmlns="http://www.w3.org/2000/svg" xmlns:xlink="http://www.w3.org/1999/xlink" viewBox="0 0 192 192" width="192" height="192" preserveAspectRatio="xMidYMid meet" style="width: 100%; height: 100%; transform: translate3d(0px, 0px, 0px); content-visibility: visible;"><defs><clipPath id="__lottie_element_3570"><rect width="192" height="192" x="0" y="0"/></clipPath><clipPath id="__lottie_element_3572"><path d="M0,0 L192,0 L192,192 L0,192z"/></clipPath><g id="__lottie_element_3580"><g transform="matrix(-1.5561096668243408,-0.11010207235813141,0.14962589740753174,-2.114713191986084,81.17766571044922,83.78479766845703)" opacity="1" style="display: none;"><g opacity="1" transform="matrix(1,0,0,1,0,0)"><path fill="rgb(67,67,67)" fill-opacity="1" d=" M-52.9119987487793,45.95600128173828 C-52.8390007019043,51.46699905395508 -48.29800033569336,55.72700119018555 -42.76900100708008,55.47200012207031 C-37.2400016784668,55.21699905395508 -32.819000244140625,50.54399871826172 -32.891998291015625,45.03300094604492 C-33.0620002746582,32.266998291015625 -34.231998443603516,14.02299976348877 -36.525001525878906,-3.561000108718872 C-38.77199935913086,-20.795000076293945 -42.250999450683594,-38.70100021362305 -47.52299880981445,-49.96200180053711 C-49.83300018310547,-54.895999908447266 -55.77799987792969,-56.893001556396484 -60.80099868774414,-54.42499923706055 C-65.8239974975586,-51.957000732421875 -68.0250015258789,-45.957000732421875 -65.71499633789062,-41.02299880981445 C-61.83599853515625,-32.737998962402344 -58.62200164794922,-17.527999877929688 -56.38100051879883,-0.3440000116825104 C-54.18600082397461,16.489999771118164 -53.071998596191406,33.96699905395508 -52.9119987487793,45.95600128173828z"/></g><g opacity="1" transform="matrix(0.9975640773773193,-0.06975647062063217,-0.06975647062063217,-0.9975640773773193,10.67947006225586,-4.087581634521484)"><path fill="rgb(67,67,67)" fill-opacity="1" d=" M-52.9119987487793,45.95600128173828 C-52.8390007019043,51.46699905395508 -48.29800033569336,55.72700119018555 -42.76900100708008,55.47200012207031 C-37.2400016784668,55.21699905395508 -32.819000244140625,50.54399871826172 -32.891998291015625,45.03300094604492 C-33.0620002746582,32.266998291015625 -34.231998443603516,14.02299976348877 -36.525001525878906,-3.561000108718872 C-38.77199935913086,-20.795000076293945 -42.250999450683594,-38.70100021362305 -47.52299880981445,-49.96200180053711 C-49.83300018310547,-54.895999908447266 -55.77799987792969,-56.893001556396484 -60.80099868774414,-54.42499923706055 C-65.8239974975586,-51.957000732421875 -68.0250015258789,-45.957000732421875 -65.71499633789062,-41.02299880981445 C-61.83599853515625,-32.737998962402344 -58.62200164794922,-17.527999877929688 -56.38100051879883,-0.3440000116825104 C-54.18600082397461,16.489999771118164 -53.071998596191406,33.96699905395508 -52.9119987487793,45.95600128173828z"/></g><g opacity="1" transform="matrix(1,0,0,1,22,0)"><path fill="rgb(67,67,67)" fill-opacity="1" d=" M-52.9119987487793,45.95600128173828 C-52.8390007019043,51.46699905395508 -48.29800033569336,55.72700119018555 -42.76900100708008,55.47200012207031 C-37.2400016784668,55.21699905395508 -32.819000244140625,50.54399871826172 -32.891998291015625,45.03300094604492 C-33.0620002746582,32.266998291015625 -34.231998443603516,14.02299976348877 -36.525001525878906,-3.561000108718872 C-38.77199935913086,-20.795000076293945 -42.250999450683594,-38.70100021362305 -47.52299880981445,-49.96200180053711 C-49.83300018310547,-54.895999908447266 -55.77799987792969,-56.893001556396484 -60.80099868774414,-54.42499923706055 C-65.8239974975586,-51.957000732421875 -68.0250015258789,-45.957000732421875 -65.71499633789062,-41.02299880981445 C-61.83599853515625,-32.737998962402344 -58.62200164794922,-17.527999877929688 -56.38100051879883,-0.3440000116825104 C-54.18600082397461,16.489999771118164 -53.071998596191406,33.96699905395508 -52.9119987487793,45.95600128173828z"/></g><g opacity="1" transform="matrix(0.9975640773773193,-0.06975647062063217,-0.06975647062063217,-0.9975640773773193,32.679473876953125,-4.087581634521484)"><path fill="rgb(67,67,67)" fill-opacity="1" d=" M-52.9119987487793,45.95600128173828 C-52.8390007019043,51.46699905395508 -48.29800033569336,55.72700119018555 -42.76900100708008,55.47200012207031 C-37.2400016784668,55.21699905395508 -32.819000244140625,50.54399871826172 -32.891998291015625,45.03300094604492 C-33.0620002746582,32.266998291015625 -34.231998443603516,14.02299976348877 -36.525001525878906,-3.561000108718872 C-38.77199935913086,-20.795000076293945 -42.250999450683594,-38.70100021362305 -47.52299880981445,-49.96200180053711 C-49.83300018310547,-54.895999908447266 -55.77799987792969,-56.893001556396484 -60.80099868774414,-54.42499923706055 C-65.8239974975586,-51.957000732421875 -68.0250015258789,-45.957000732421875 -65.71499633789062,-41.02299880981445 C-61.83599853515625,-32.737998962402344 -58.62200164794922,-17.527999877929688 -56.38100051879883,-0.3440000116825104 C-54.18600082397461,16.489999771118164 -53.071998596191406,33.96699905395508 -52.9119987487793,45.95600128173828z"/></g><g opacity="1" transform="matrix(1,0,0,1,44,0)"><path fill="rgb(67,67,67)" fill-opacity="1" d=" M-52.9119987487793,45.95600128173828 C-52.8390007019043,51.46699905395508 -48.29800033569336,55.72700119018555 -42.76900100708008,55.47200012207031 C-37.2400016784668,55.21699905395508 -32.819000244140625,50.54399871826172 -32.891998291015625,45.03300094604492 C-33.0620002746582,32.266998291015625 -34.231998443603516,14.02299976348877 -36.525001525878906,-3.561000108718872 C-38.77199935913086,-20.795000076293945 -42.250999450683594,-38.70100021362305 -47.52299880981445,-49.96200180053711 C-49.83300018310547,-54.895999908447266 -55.77799987792969,-56.893001556396484 -60.80099868774414,-54.42499923706055 C-65.8239974975586,-51.957000732421875 -68.0250015258789,-45.957000732421875 -65.71499633789062,-41.02299880981445 C-61.83599853515625,-32.737998962402344 -58.62200164794922,-17.527999877929688 -56.38100051879883,-0.3440000116825104 C-54.18600082397461,16.489999771118164 -53.071998596191406,33.96699905395508 -52.9119987487793,45.95600128173828z"/></g><g opacity="1" transform="matrix(0.9975640773773193,-0.06975647062063217,-0.06975647062063217,-0.9975640773773193,54.67947006225586,-4.087581634521484)"><path fill="rgb(67,67,67)" fill-opacity="1" d=" M-52.9119987487793,45.95600128173828 C-52.8390007019043,51.46699905395508 -48.29800033569336,55.72700119018555 -42.76900100708008,55.47200012207031 C-37.2400016784668,55.21699905395508 -32.819000244140625,50.54399871826172 -32.891998291015625,45.03300094604492 C-33.0620002746582,32.266998291015625 -34.231998443603516,14.02299976348877 -36.525001525878906,-3.561000108718872 C-38.77199935913086,-20.795000076293945 -42.250999450683594,-38.70100021362305 -47.52299880981445,-49.96200180053711 C-49.83300018310547,-54.895999908447266 -55.77799987792969,-56.893001556396484 -60.80099868774414,-54.42499923706055 C-65.8239974975586,-51.957000732421875 -68.0250015258789,-45.957000732421875 -65.71499633789062,-41.02299880981445 C-61.83599853515625,-32.737998962402344 -58.62200164794922,-17.527999877929688 -56.38100051879883,-0.3440000116825104 C-54.18600082397461,16.489999771118164 -53.071998596191406,33.96699905395508 -52.9119987487793,45.95600128173828z"/></g><g opacity="1" transform="matrix(1,0,0,1,66,0)"><path fill="rgb(67,67,67)" fill-opacity="1" d=" M-52.9119987487793,45.95600128173828 C-52.8390007019043,51.46699905395508 -48.29800033569336,55.72700119018555 -42.76900100708008,55.47200012207031 C-37.2400016784668,55.21699905395508 -32.819000244140625,50.54399871826172 -32.891998291015625,45.03300094604492 C-33.0620002746582,32.266998291015625 -34.231998443603516,14.02299976348877 -36.525001525878906,-3.561000108718872 C-38.77199935913086,-20.795000076293945 -42.250999450683594,-38.70100021362305 -47.52299880981445,-49.96200180053711 C-49.83300018310547,-54.895999908447266 -55.77799987792969,-56.893001556396484 -60.80099868774414,-54.42499923706055 C-65.8239974975586,-51.957000732421875 -68.0250015258789,-45.957000732421875 -65.71499633789062,-41.02299880981445 C-61.83599853515625,-32.737998962402344 -58.62200164794922,-17.527999877929688 -56.38100051879883,-0.3440000116825104 C-54.18600082397461,16.489999771118164 -53.071998596191406,33.96699905395508 -52.9119987487793,45.95600128173828z"/></g></g></g><clipPath id="__lottie_element_3602"><path d="M0,0 L192,0 L192,192 L0,192z"/></clipPath><clipPath id="__lottie_element_3603"><path fill="#ffffff" clip-rule="nonzero" d=" M43.297000885009766,20.8439998626709 C43.27399826049805,21.658000946044922 46.29899978637695,164.197998046875 46.52899932861328,164.94500732421875 C46.672000885009766,165.41000366210938 148.99200439453125,164.16299438476562 149.04100036621094,164.0989990234375 C149.30499267578125,163.8820037841797 149.13699340820312,164.13099670410156 149.197998046875,164.0679931640625 C149.25799560546875,164.0070037841797 149.45199584960938,164.12399291992188 149.43499755859375,164.0679931640625 C149.42300415039062,164.0279998779297 47.96099853515625,165.94400024414062 46.50699996948242,164.9250030517578 C46.14899826049805,162.66299438476562 43.26599884033203,20.84600067138672 43.26599884033203,20.84600067138672 C43.26599884033203,20.84600067138672 43.31100082397461,20.363000869750977 43.297000885009766,20.8439998626709" fill-opacity="1"/></clipPath><filter id="__lottie_element_3605" filterUnits="objectBoundingBox" x="0%" y="0%" width="100%" height="100%"><feComponentTransfer in="SourceGraphic"><feFuncA type="table" tableValues="1.0 0.0"/></feComponentTransfer></filter><mask id="__lottie_element_3580_2" mask-type="alpha" maskUnits="userSpaceOnUse"><g filter="url(#__lottie_element_3605)"><rect width="192" height="192" x="0" y="0" fill="#ffffff" opacity="0"/><use xmlns:ns1="http://www.w3.org/1999/xlink" ns1:href="#__lottie_element_3580"/></g></mask></defs><g clip-path="url(#__lottie_element_3570)"><g clip-path="url(#__lottie_element_3572)" transform="matrix(1,0,0,1,0,0)" opacity="1" style="display: block;"><g mask="url(#__lottie_element_3580_2)" style="display: none;"><g transform="matrix(0.9975062608718872,0.07057825475931168,-0.07057825475931168,0.9975062608718872,153.15615844726562,32.45189666748047)" opacity="1"><g opacity="1" transform="matrix(1,0,0,1,0,0)"><path class="secondary" fill="rgb(230,142,110)" fill-opacity="1" d=" M10.489999771118164,125.08699798583984 C11.215999603271484,125.177001953125 11.180000305175781,12.04699993133545 11.109000205993652,11.446000099182129 C9.701000213623047,-0.48500001430511475 -3.0789999961853027,-11.263999938964844 -9.972000122070312,-12.366000175476074 C-10.723999977111816,-12.486000061035156 -92.23999786376953,-13.395999908447266 -91.86599731445312,-12.63700008392334 C-90.55599975585938,-9.97599983215332 -87.9280014038086,125.09600067138672 -87.6449966430664,125.39900207519531 C-86.60099792480469,125.63400268554688 0.16500000655651093,123.80799865722656 10.489999771118164,125.08699798583984z"/><path stroke-linecap="round" stroke-linejoin="round" fill-opacity="0" class="secondary" stroke="rgb(230,142,110)" stroke-opacity="1" stroke-width="0.998" d=" M10.489999771118164,125.08699798583984 C11.215999603271484,125.177001953125 11.180000305175781,12.04699993133545 11.109000205993652,11.446000099182129 C9.701000213623047,-0.48500001430511475 -3.0789999961853027,-11.263999938964844 -9.972000122070312,-12.366000175476074 C-10.723999977111816,-12.486000061035156 -92.23999786376953,-13.395999908447266 -91.86599731445312,-12.63700008392334 C-90.55599975585938,-9.97599983215332 -87.9280014038086,125.09600067138672 -87.6449966430664,125.39900207519531 C-86.60099792480469,125.63400268554688 0.16500000655651093,123.80799865722656 10.489999771118164,125.08699798583984z"/></g></g></g><g transform="matrix(0.9939330816268921,-0.10998661071062088,0.10998661071062088,0.9939330816268921,81.39373016357422,93.08712768554688)" opacity="1" style="display: none;"><g opacity="1" transform="matrix(1,0,0,1,0,0)"><path stroke-linecap="round" stroke-linejoin="round" fill-opacity="0" class="primary" stroke="rgb(42,48,107)" stroke-opacity="1" stroke-width="3" d=" M-53.00400161743164,-71.91999816894531 C-53.027000427246094,-71.10600280761719 -50.000999450683594,71.43399810791016 -49.770999908447266,72.18099975585938 C-49.62799835205078,72.64600372314453 52.67399978637695,72.30999755859375 52.74100112915039,71.33499908447266 C52.775001525878906,70.83399963378906 52.840999603271484,52.86600112915039 52.89799880981445,29.83099937438965 C52.95399856567383,7.341000080108643 53.000999450683594,-19.979999542236328 53.000999450683594,-40.59299850463867 C53.000999450683594,-50.38199996948242 46.09299850463867,-60.16899871826172 42.83100128173828,-63.0890007019043 C40.263999938964844,-65.38500213623047 35.22200012207031,-72.31500244140625 25.621000289916992,-72.31500244140625 C-5.809000015258789,-72.31500244140625 -52.9900016784668,-72.4010009765625 -53.00400161743164,-71.91999816894531z"/></g></g><g transform="matrix(0.996441662311554,-0.08428536355495453,0.08428536355495453,0.996441662311554,83.73587799072266,92.27247619628906)" opacity="1" style="display: none;"><g opacity="1" transform="matrix(1,0,0,1,0,0)"><path stroke-linecap="round" stroke-linejoin="round" fill-opacity="0" class="primary" stroke="rgb(42,48,107)" stroke-opacity="1" stroke-width="3" d=" M-53.00400161743164,-71.91999816894531 C-53.027000427246094,-71.10600280761719 -50.000999450683594,71.43399810791016 -49.770999908447266,72.18099975585938 C-49.62799835205078,72.64600372314453 52.691837310791016,71.4072036743164 52.74100112915039,71.33499908447266 C53.0029296875,71.11544036865234 52.83711624145508,71.20046997070312 52.89811706542969,70.93069458007812 C52.9581184387207,70.66780090332031 53.149803161621094,70.53782653808594 53.1328010559082,70.29679107666016 C53.12080383300781,70.12606811523438 -47.57212448120117,72.07421112060547 -49.042396545410156,71.03810119628906 C-49.42028045654297,68.77579498291016 -52.224693298339844,-71.92108917236328 -52.32699966430664,-71.92156982421875 C-52.609901428222656,-71.92294311523438 -52.9900016784668,-72.4010009765625 -53.00400161743164,-71.91999816894531z"/></g></g><g transform="matrix(0.9876883625984192,0.15643446147441864,-0.15643446147441864,0.9876883625984192,167.40533447265625,40.74636459350586)" opacity="1" style="display: none;"><g opacity="1" transform="matrix(1,0,0,1,0,0)"><path stroke-linecap="round" stroke-linejoin="round" fill-opacity="0" class="primary" stroke="rgb(42,48,107)" stroke-opacity="1" stroke-width="1.997" d=" M13.789999961853027,16.215999603271484 C13.612000465393066,1.5110000371932983 -3.6110000610351562,-17.023000717163086 -13.789999961853027,-16.187999725341797"/></g></g><g transform="matrix(0.9999980330467224,0.0019736846443265676,-0.0019736846443265676,0.9999980330467224,141.12698364257812,31.225847244262695)" opacity="1" style="display: block;"><g opacity="1" transform="matrix(1,0,0,1,0,0)"><path class="secondary" fill="rgb(230,142,110)" fill-opacity="1" d=" M9.808545112609863,12.218059539794922 C10.370830535888672,12.684466361999512 11.180000305175781,12.04699993133545 11.109000205993652,11.446000099182129 C9.701000213623047,-0.48500001430511475 -3.0789999961853027,-11.263999938964844 -9.972000122070312,-12.366000175476074 C-10.723999977111816,-12.486000061035156 -11.378222465515137,-11.842644691467285 -11.0046968460083,-11.084609031677246 C-9.69636058807373,-8.426987648010254 -6.738924503326416,-1.7916357517242432 -7.592705726623535,5.9152140617370605 C-7.827003479003906,8.073979377746582 1.4421812295913696,5.26989221572876 9.808545112609863,12.218059539794922z"/><path stroke-linecap="round" stroke-linejoin="round" fill-opacity="0" class="secondary" stroke="rgb(230,142,110)" stroke-opacity="1" stroke-width="0.998" d=" M9.808545112609863,12.218059539794922 C10.370830535888672,12.684466361999512 11.180000305175781,12.04699993133545 11.109000205993652,11.446000099182129 C9.701000213623047,-0.48500001430511475 -3.0789999961853027,-11.263999938964844 -9.972000122070312,-12.366000175476074 C-10.723999977111816,-12.486000061035156 -11.378222465515137,-11.842644691467285 -11.0046968460083,-11.084609031677246 C-9.69636058807373,-8.426987648010254 -6.738924503326416,-1.7916357517242432 -7.592705726623535,5.9152140617370605 C-7.827003479003906,8.073979377746582 1.4421812295913696,5.26989221572876 9.808545112609863,12.218059539794922z"/></g></g><g transform="matrix(0.9999980330467224,0.0019736846443265676,-0.0019736846443265676,0.9999980330467224,96.20059204101562,92.68229675292969)" opacity="1" style="display: block;"><g opacity="1" transform="matrix(1,0,0,1,0,0)"><path stroke-linecap="round" stroke-linejoin="round" fill-opacity="0" class="primary" stroke="rgb(42,48,107)" stroke-opacity="1" stroke-width="3" d=" M-53.00400161743164,-71.91999816894531 C-53.027000427246094,-71.10600280761719 -50.000999450683594,71.43399810791016 -49.770999908447266,72.18099975585938 C-49.62799835205078,72.64600372314453 52.67399978637695,72.30999755859375 52.74100112915039,71.33499908447266 C52.775001525878906,70.83399963378906 52.84999465942383,52.86600112915039 52.910987854003906,29.83099937438965 C52.970985412597656,7.341000080108643 53.01798629760742,-19.979999542236328 53.000999450683594,-40.59299850463867 C52.989009857177734,-55.15216827392578 36.97532272338867,-49.677425384521484 33.713321685791016,-52.5974235534668 C31.14632225036621,-54.89342498779297 36.9855842590332,-72.26103973388672 25.621000289916992,-72.31500244140625 C-5.808000564575195,-72.46688079833984 -52.9900016784668,-72.4010009765625 -53.00400161743164,-71.91999816894531z"/></g></g><g transform="matrix(0.9999980330467224,0.0019736846443265676,-0.0019736846443265676,0.9999980330467224,135.95022583007812,36.16564178466797)" opacity="1" style="display: block;"><g opacity="1" transform="matrix(1,0,0,1,0,0)"><path stroke-linecap="round" stroke-linejoin="round" fill-opacity="0" class="primary" stroke="rgb(42,48,107)" stroke-opacity="1" stroke-width="1.997" d=" M13.789999961853027,16.215999603271484 C13.612000465393066,1.5110000371932983 -3.6110000610351562,-17.023000717163086 -13.789999961853027,-16.187999725341797"/></g></g><g transform="matrix(0.9999980330467224,0.0019736846443265676,-0.0019736846443265676,0.9999980330467224,33.63571548461914,121.94686889648438)" opacity="1" style="display: block;"><g opacity="1" transform="matrix(1,0,0,1,0,0)"><path stroke-linecap="round" stroke-linejoin="round" fill-opacity="0" class="primary" stroke="rgb(42,48,107)" stroke-opacity="1" stroke-width="2" d=" M0.3659999966621399,19.680999755859375 C-0.3700000047683716,-5.441999912261963 -1.3519999980926514,-38.388999938964844 -1.534000039100647,-41.29600143432617"/></g></g><g transform="matrix(0.9999980330467224,0.0019736846443265676,-0.0019736846443265676,0.9999980330467224,33.63571548461914,121.94686889648438)" opacity="1" style="display: block;"><g opacity="1" transform="matrix(1,0,0,1,0,0)"><path stroke-linecap="round" stroke-linejoin="round" fill-opacity="0" class="primary" stroke="rgb(42,48,107)" stroke-opacity="1" stroke-width="2" d=" M1.5269999504089355,40.2239990234375 C1.4869999885559082,36.3849983215332 1.4429999589920044,31.43400001525879 1.3990000486373901,25.8700008392334"/></g></g><g transform="matrix(0.9999980330467224,0.0019736846443265676,-0.0019736846443265676,0.9999980330467224,69.08673095703125,176.1879425048828)" opacity="1" style="display: block;"><g opacity="1" transform="matrix(1,0,0,1,0,0)"><path stroke-linecap="round" stroke-linejoin="round" fill-opacity="0" class="primary" stroke="rgb(42,48,107)" stroke-opacity="1" stroke-width="2" d=" M29.160999298095703,-0.029999999329447746 C8.071000099182129,0.052000001072883606 -23.96299934387207,0.1809999942779541 -28.742000579833984,-0.07800000160932541"/></g></g><g transform="matrix(0.9999980330467224,0.0019736846443265676,-0.0019736846443265676,0.9999980330467224,160.61004638671875,65.16036987304688)" opacity="1" style="display: block;"><g opacity="1" transform="matrix(1,0,0,1,0,0)"><path stroke-linecap="round" stroke-linejoin="round" fill-opacity="0" class="primary" stroke="rgb(42,48,107)" stroke-opacity="1" stroke-width="2" d=" M-0.05000000074505806,44.36000061035156 C-0.23199999332427979,37.625 0.019999999552965164,-23.91699981689453 0.1420000046491623,-44.89400100708008"/></g></g><g clip-path="url(#__lottie_element_3602)" transform="matrix(0.9999980330467224,0.0019736846443265676,-0.0019736846443265676,0.9999980330467224,0.29485905170440674,-0.26517224311828613)" opacity="1" style="display: block;"><g clip-path="url(#__lottie_element_3603)"><g transform="matrix(1,0,0,1,95.51799774169922,73.71700286865234)" opacity="1" style="display: block;"><g opacity="1" transform="matrix(1,0,0,1,0,0)"><path stroke-linecap="round" stroke-linejoin="round" fill-opacity="0" class="primary" stroke="rgb(42,48,107)" stroke-opacity="1" stroke-width="3" d=" M27.28700065612793,-17.535999298095703 C27.43899917602539,-4.421000003814697 19.035999298095703,17.976999282836914 14.529000282287598,17.999000549316406 C10.548999786376953,18.018999099731445 2.619999885559082,-2.684000015258789 2.4539999961853027,-17.58300018310547 M-6.239999771118164,13.817000389099121 C-9.223999977111816,17.886999130249023 -17.201000213623047,17.96299934387207 -22.43400001525879,12.432999610900879 C-25.099000930786133,9.616999626159668 -27.052000045776367,5.3480000495910645 -27.273000717163086,-0.5870000123977661 C-27.37700080871582,-3.368000030517578 -26.950000762939453,-5.843999862670898 -26.15399932861328,-7.99399995803833 C-24.643999099731445,-12.069000244140625 -21.805999755859375,-14.973999977111816 -18.732999801635742,-16.56999969482422 C-15.005999565124512,-18.5049991607666 -10.932999610900879,-18.516000747680664 -8.46399974822998,-16.354999542236328"/></g></g><g transform="matrix(1,0,0,1,95.19300079345703,123.34200286865234)" opacity="1" style="display: block;"><g opacity="1" transform="matrix(1,0,0,1,0,0)"><path stroke-linecap="round" stroke-linejoin="round" fill-opacity="0" class="primary" stroke="rgb(42,48,107)" stroke-opacity="1" stroke-width="2" d=" M27.615999221801758,11.670999526977539 C16.663000106811523,11.670999526977539 -25.823999404907227,12.118000030517578 -27.658000946044922,11.64799976348877"/></g></g><g transform="matrix(1,0,0,1,95.19300079345703,123.34200286865234)" opacity="1" style="display: block;"><g opacity="1" transform="matrix(1,0,0,1,0,0)"><path stroke-linecap="round" stroke-linejoin="round" fill-opacity="0" class="primary" stroke="rgb(42,48,107)" stroke-opacity="1" stroke-width="2" d=" M27.597999572753906,0.5460000038146973 C16.645000457763672,0.5460000038146973 -25.841999053955078,0.9929999709129333 -27.676000595092773,0.5230000019073486"/></g></g><g transform="matrix(1,0,0,1,95.19300079345703,123.34200286865234)" opacity="1" style="display: block;"><g opacity="1" transform="matrix(1,0,0,1,0,0)"><path stroke-linecap="round" stroke-linejoin="round" fill-opacity="0" class="primary" stroke="rgb(42,48,107)" stroke-opacity="1" stroke-width="2" d=" M27.676000595092773,-11.84000015258789 C16.722999572753906,-11.84000015258789 -25.763999938964844,-11.392999649047852 -27.597999572753906,-11.86299991607666"/></g></g></g></g><g transform="matrix(0.9999980330467224,0.0019736846443265676,-0.0019736846443265676,0.9999980330467224,95.66617584228516,73.64020538330078)" opacity="1" style="display: block;"><g opacity="1" transform="matrix(1,0,0,1,0,0)"><path stroke-linecap="round" stroke-linejoin="round" fill-opacity="0" class="primary" stroke="rgb(42,48,107)" stroke-opacity="1" stroke-width="3" d=" M27.24799919128418,-15.512999534606934 C26.61199951171875,-2.246999979019165 18.812000274658203,17.97800064086914 14.529000282287598,17.999000549316406 C10.548999786376953,18.018999099731445 2.619999885559082,-2.684000015258789 2.4539999961853027,-17.58300018310547"/></g></g><g transform="matrix(0.9999980330467224,0.0019736846443265676,-0.0019736846443265676,0.9999980330467224,95.66617584228516,73.64020538330078)" opacity="1" style="display: block;"><g opacity="1" transform="matrix(1,0,0,1,0,0)"><path stroke-linecap="round" stroke-linejoin="round" fill-opacity="0" class="primary" stroke="rgb(42,48,107)" stroke-opacity="1" stroke-width="3" d=" M-6.239999771118164,13.817000389099121 C-9.223999977111816,17.886999130249023 -17.201000213623047,17.96299934387207 -22.43400001525879,12.432999610900879 C-25.099000930786133,9.616999626159668 -27.052000045776367,5.3480000495910645 -27.273000717163086,-0.5870000123977661 C-27.37700080871582,-3.368000030517578 -26.950000762939453,-5.843999862670898 -26.15399932861328,-7.99399995803833 C-24.643999099731445,-12.069000244140625 -21.805999755859375,-14.973999977111816 -18.732999801635742,-16.56999969482422 C-15.005999565124512,-18.5049991607666 -10.932999610900879,-18.516000747680664 -8.46399974822998,-16.354999542236328"/></g></g><g transform="matrix(0.9999980330467224,0.0019736846443265676,-0.0019736846443265676,0.9999980330467224,95.24323272705078,123.26446533203125)" opacity="1" style="display: block;"><g opacity="1" transform="matrix(1,0,0,1,0,0)"><path stroke-linecap="round" stroke-linejoin="round" fill-opacity="0" class="primary" stroke="rgb(42,48,107)" stroke-opacity="1" stroke-width="2" d=" M25.94700050354004,11.673999786376953 C12.91100025177002,11.708999633789062 -25.906999588012695,12.097000122070312 -27.658000946044922,11.64799976348877"/></g></g><g transform="matrix(0.9999980330467224,0.0019736846443265676,-0.0019736846443265676,0.9999980330467224,95.24323272705078,123.26446533203125)" opacity="1" style="display: block;"><g opacity="1" transform="matrix(1,0,0,1,0,0)"><path stroke-linecap="round" stroke-linejoin="round" fill-opacity="0" class="primary" stroke="rgb(42,48,107)" stroke-opacity="1" stroke-width="2" d=" M27.597999572753906,0.5460000038146973 C16.645000457763672,0.5460000038146973 -25.841999053955078,0.9929999709129333 -27.676000595092773,0.5230000019073486"/></g></g><g transform="matrix(0.9999980330467224,0.0019736846443265676,-0.0019736846443265676,0.9999980330467224,95.24323272705078,123.26446533203125)" opacity="1" style="display: block;"><g opacity="1" transform="matrix(1,0,0,1,0,0)"><path stroke-linecap="round" stroke-linejoin="round" fill-opacity="0" class="primary" stroke="rgb(42,48,107)" stroke-opacity="1" stroke-width="2" d=" M27.676000595092773,-11.84000015258789 C16.722999572753906,-11.84000015258789 -25.763999938964844,-11.392999649047852 -27.597999572753906,-11.86299991607666"/></g></g></g></g></svg>