<svg xmlns="http://www.w3.org/2000/svg" xmlns:xlink="http://www.w3.org/1999/xlink" viewBox="0 0 192 192" width="192" height="192" preserveAspectRatio="xMidYMid meet" style="width: 100%; height: 100%; transform: translate3d(0px, 0px, 0px); content-visibility: visible;"><defs><clipPath id="__lottie_element_12914"><rect width="192" height="192" x="0" y="0"/></clipPath><clipPath id="__lottie_element_12916"><path d="M0,0 L192,0 L192,192 L0,192z"/></clipPath><g id="__lottie_element_12924"><g transform="matrix(-1.5526502132415771,-0.15125204622745514,0.20554766058921814,-2.1100118160247803,87.65231323242188,83.65335845947266)" opacity="1" style="display: block;"><g opacity="0" transform="matrix(1,0,0,1,0,0)"><path fill="rgb(67,67,67)" fill-opacity="1" d=" M-58.43000030517578,-44.48899841308594 C-57.97200012207031,-43.47700119018555 -56.78200149536133,-43.060001373291016 -55.77000045776367,-43.55699920654297 C-54.757999420166016,-44.05400085449219 -54.310001373291016,-45.27799987792969 -54.768001556396484,-46.290000915527344 C-54.742000579833984,-46.334999084472656 -54.77299880981445,-46.30500030517578 -54.77299880981445,-46.30500030517578 C-54.77299880981445,-46.30500030517578 -54.775001525878906,-46.29600143432617 -54.77899932861328,-46.30400085449219 C-55.244998931884766,-47.29899978637695 -56.44200134277344,-47.70199966430664 -57.45500183105469,-47.20399856567383 C-58.46799850463867,-46.707000732421875 -58.9119987487793,-45.49599838256836 -58.44599914550781,-44.50199890136719 C-58.439998626708984,-44.51499938964844 -58.448001861572266,-44.516998291015625 -58.448001861572266,-44.516998291015625 C-58.448001861572266,-44.516998291015625 -58.44499969482422,-44.520999908447266 -58.43000030517578,-44.48899841308594z"/></g><g opacity="0" transform="matrix(0.9975640773773193,-0.06975647062063217,-0.06975647062063217,-0.9975640773773193,10.67947006225586,-4.087581634521484)"><path fill="rgb(67,67,67)" fill-opacity="1" d=" M-58.43000030517578,-44.48899841308594 C-57.97200012207031,-43.47700119018555 -56.78200149536133,-43.060001373291016 -55.77000045776367,-43.55699920654297 C-54.757999420166016,-44.05400085449219 -54.310001373291016,-45.27799987792969 -54.768001556396484,-46.290000915527344 C-54.742000579833984,-46.334999084472656 -54.77299880981445,-46.30500030517578 -54.77299880981445,-46.30500030517578 C-54.77299880981445,-46.30500030517578 -54.775001525878906,-46.29600143432617 -54.77899932861328,-46.30400085449219 C-55.244998931884766,-47.29899978637695 -56.44200134277344,-47.70199966430664 -57.45500183105469,-47.20399856567383 C-58.46799850463867,-46.707000732421875 -58.9119987487793,-45.49599838256836 -58.44599914550781,-44.50199890136719 C-58.439998626708984,-44.51499938964844 -58.448001861572266,-44.516998291015625 -58.448001861572266,-44.516998291015625 C-58.448001861572266,-44.516998291015625 -58.44499969482422,-44.520999908447266 -58.43000030517578,-44.48899841308594z"/></g><g opacity="0" transform="matrix(1,0,0,1,22,0)"><path fill="rgb(67,67,67)" fill-opacity="1" d=" M-58.43000030517578,-44.48899841308594 C-57.97200012207031,-43.47700119018555 -56.78200149536133,-43.060001373291016 -55.77000045776367,-43.55699920654297 C-54.757999420166016,-44.05400085449219 -54.310001373291016,-45.27799987792969 -54.768001556396484,-46.290000915527344 C-54.742000579833984,-46.334999084472656 -54.77299880981445,-46.30500030517578 -54.77299880981445,-46.30500030517578 C-54.77299880981445,-46.30500030517578 -54.775001525878906,-46.29600143432617 -54.77899932861328,-46.30400085449219 C-55.244998931884766,-47.29899978637695 -56.44200134277344,-47.70199966430664 -57.45500183105469,-47.20399856567383 C-58.46799850463867,-46.707000732421875 -58.9119987487793,-45.49599838256836 -58.44599914550781,-44.50199890136719 C-58.439998626708984,-44.51499938964844 -58.448001861572266,-44.516998291015625 -58.448001861572266,-44.516998291015625 C-58.448001861572266,-44.516998291015625 -58.44499969482422,-44.520999908447266 -58.43000030517578,-44.48899841308594z"/></g><g opacity="0" transform="matrix(0.9975640773773193,-0.06975647062063217,-0.06975647062063217,-0.9975640773773193,32.679473876953125,-4.087581634521484)"><path fill="rgb(67,67,67)" fill-opacity="1" d=" M-58.43000030517578,-44.48899841308594 C-57.97200012207031,-43.47700119018555 -56.78200149536133,-43.060001373291016 -55.77000045776367,-43.55699920654297 C-54.757999420166016,-44.05400085449219 -54.310001373291016,-45.27799987792969 -54.768001556396484,-46.290000915527344 C-54.742000579833984,-46.334999084472656 -54.77299880981445,-46.30500030517578 -54.77299880981445,-46.30500030517578 C-54.77299880981445,-46.30500030517578 -54.775001525878906,-46.29600143432617 -54.77899932861328,-46.30400085449219 C-55.244998931884766,-47.29899978637695 -56.44200134277344,-47.70199966430664 -57.45500183105469,-47.20399856567383 C-58.46799850463867,-46.707000732421875 -58.9119987487793,-45.49599838256836 -58.44599914550781,-44.50199890136719 C-58.439998626708984,-44.51499938964844 -58.448001861572266,-44.516998291015625 -58.448001861572266,-44.516998291015625 C-58.448001861572266,-44.516998291015625 -58.44499969482422,-44.520999908447266 -58.43000030517578,-44.48899841308594z"/></g><g opacity="0" transform="matrix(1,0,0,1,44,0)"><path fill="rgb(67,67,67)" fill-opacity="1" d=" M-58.43000030517578,-44.48899841308594 C-57.97200012207031,-43.47700119018555 -56.78200149536133,-43.060001373291016 -55.77000045776367,-43.55699920654297 C-54.757999420166016,-44.05400085449219 -54.310001373291016,-45.27799987792969 -54.768001556396484,-46.290000915527344 C-54.742000579833984,-46.334999084472656 -54.77299880981445,-46.30500030517578 -54.77299880981445,-46.30500030517578 C-54.77299880981445,-46.30500030517578 -54.775001525878906,-46.29600143432617 -54.77899932861328,-46.30400085449219 C-55.244998931884766,-47.29899978637695 -56.44200134277344,-47.70199966430664 -57.45500183105469,-47.20399856567383 C-58.46799850463867,-46.707000732421875 -58.9119987487793,-45.49599838256836 -58.44599914550781,-44.50199890136719 C-58.439998626708984,-44.51499938964844 -58.448001861572266,-44.516998291015625 -58.448001861572266,-44.516998291015625 C-58.448001861572266,-44.516998291015625 -58.44499969482422,-44.520999908447266 -58.43000030517578,-44.48899841308594z"/></g><g opacity="0" transform="matrix(0.9975640773773193,-0.06975647062063217,-0.06975647062063217,-0.9975640773773193,54.67947006225586,-4.087581634521484)"><path fill="rgb(67,67,67)" fill-opacity="1" d=" M-58.43000030517578,-44.48899841308594 C-57.97200012207031,-43.47700119018555 -56.78200149536133,-43.060001373291016 -55.77000045776367,-43.55699920654297 C-54.757999420166016,-44.05400085449219 -54.310001373291016,-45.27799987792969 -54.768001556396484,-46.290000915527344 C-54.742000579833984,-46.334999084472656 -54.77299880981445,-46.30500030517578 -54.77299880981445,-46.30500030517578 C-54.77299880981445,-46.30500030517578 -54.775001525878906,-46.29600143432617 -54.77899932861328,-46.30400085449219 C-55.244998931884766,-47.29899978637695 -56.44200134277344,-47.70199966430664 -57.45500183105469,-47.20399856567383 C-58.46799850463867,-46.707000732421875 -58.9119987487793,-45.49599838256836 -58.44599914550781,-44.50199890136719 C-58.439998626708984,-44.51499938964844 -58.448001861572266,-44.516998291015625 -58.448001861572266,-44.516998291015625 C-58.448001861572266,-44.516998291015625 -58.44499969482422,-44.520999908447266 -58.43000030517578,-44.48899841308594z"/></g><g opacity="0" transform="matrix(1,0,0,1,66,0)"><path fill="rgb(67,67,67)" fill-opacity="1" d=" M-58.43000030517578,-44.48899841308594 C-57.97200012207031,-43.47700119018555 -56.78200149536133,-43.060001373291016 -55.77000045776367,-43.55699920654297 C-54.757999420166016,-44.05400085449219 -54.310001373291016,-45.27799987792969 -54.768001556396484,-46.290000915527344 C-54.742000579833984,-46.334999084472656 -54.77299880981445,-46.30500030517578 -54.77299880981445,-46.30500030517578 C-54.77299880981445,-46.30500030517578 -54.775001525878906,-46.29600143432617 -54.77899932861328,-46.30400085449219 C-55.244998931884766,-47.29899978637695 -56.44200134277344,-47.70199966430664 -57.45500183105469,-47.20399856567383 C-58.46799850463867,-46.707000732421875 -58.9119987487793,-45.49599838256836 -58.44599914550781,-44.50199890136719 C-58.439998626708984,-44.51499938964844 -58.448001861572266,-44.516998291015625 -58.448001861572266,-44.516998291015625 C-58.448001861572266,-44.516998291015625 -58.44499969482422,-44.520999908447266 -58.43000030517578,-44.48899841308594z"/></g></g></g><clipPath id="__lottie_element_12946"><path d="M0,0 L192,0 L192,192 L0,192z"/></clipPath><clipPath id="__lottie_element_12947"><path fill="#ffffff" clip-rule="nonzero" d=" M43.266998291015625,21 C43.24399948120117,21.81399917602539 46.27000045776367,164.35400390625 46.5,165.1009979248047 C46.643001556396484,165.5659942626953 148.94500732421875,165.22900390625 149.01199340820312,164.25399780273438 C149.04600524902344,163.7530059814453 149.12100219726562,145.78500366210938 149.1820068359375,122.75 C149.24200439453125,100.26000213623047 149.28900146484375,72.93900299072266 149.27200317382812,52.32600021362305 C149.25999450683594,37.76300048828125 133.24000549316406,43.250999450683594 129.97799682617188,40.33100128173828 C127.41100311279297,38.03499984741211 133.25900268554688,20.659000396728516 121.89299774169922,20.604999542236328 C90.46399688720703,20.452999114990234 43.28099822998047,20.518999099731445 43.266998291015625,21" fill-opacity="1"/></clipPath><filter id="__lottie_element_12949" filterUnits="objectBoundingBox" x="0%" y="0%" width="100%" height="100%"><feComponentTransfer in="SourceGraphic"><feFuncA type="table" tableValues="1.0 0.0"/></feComponentTransfer></filter><mask id="__lottie_element_12924_2" mask-type="alpha" maskUnits="userSpaceOnUse"><g filter="url(#__lottie_element_12949)"><rect width="192" height="192" x="0" y="0" fill="#ffffff" opacity="0"/><use xmlns:ns1="http://www.w3.org/1999/xlink" ns1:href="#__lottie_element_12924"/></g></mask></defs><g clip-path="url(#__lottie_element_12914)"><g clip-path="url(#__lottie_element_12916)" transform="matrix(1,0,0,1,0,0)" opacity="1" style="display: block;"><g mask="url(#__lottie_element_12924_2)" style="display: block;"><g transform="matrix(0.995288610458374,0.09695644676685333,-0.09695644676685333,0.995288610458374,160.9643096923828,34.24364471435547)" opacity="1"><g opacity="1" transform="matrix(1,0,0,1,0,0)"><path class="secondary" fill="rgb(230,142,110)" fill-opacity="1" d=" M9.807000160217285,12.218999862670898 C10.369999885559082,12.685999870300293 11.180000305175781,12.04699993133545 11.109000205993652,11.446000099182129 C9.701000213623047,-0.48500001430511475 -3.0789999961853027,-11.263999938964844 -9.972000122070312,-12.366000175476074 C-10.723999977111816,-12.486000061035156 -11.380000114440918,-11.842000007629395 -11.005999565124512,-11.083000183105469 C-9.696000099182129,-8.42199993133545 -6.743000030517578,-1.7790000438690186 -7.607999801635742,5.926000118255615 C-7.849999904632568,8.079000473022461 1.4299999475479126,5.26200008392334 9.807000160217285,12.218999862670898z"/><path stroke-linecap="round" stroke-linejoin="round" fill-opacity="0" class="secondary" stroke="rgb(230,142,110)" stroke-opacity="1" stroke-width="0.499" d=" M9.807000160217285,12.218999862670898 C10.369999885559082,12.685999870300293 11.180000305175781,12.04699993133545 11.109000205993652,11.446000099182129 C9.701000213623047,-0.48500001430511475 -3.0789999961853027,-11.263999938964844 -9.972000122070312,-12.366000175476074 C-10.723999977111816,-12.486000061035156 -11.380000114440918,-11.842000007629395 -11.005999565124512,-11.083000183105469 C-9.696000099182129,-8.42199993133545 -6.743000030517578,-1.7790000438690186 -7.607999801635742,5.926000118255615 C-7.849999904632568,8.079000473022461 1.4299999475479126,5.26200008392334 9.807000160217285,12.218999862670898z"/></g></g></g><g transform="matrix(0.995288610458374,0.09695644676685333,-0.09695644676685333,0.995288610458374,110.40321350097656,91.15454864501953)" opacity="1" style="display: block;"><g opacity="1" transform="matrix(1,0,0,1,0,0)"><path stroke-linecap="round" stroke-linejoin="round" fill-opacity="0" class="primary" stroke="rgb(42,48,107)" stroke-opacity="1" stroke-width="1.5" d=" M-53.00400161743164,-71.91999816894531 C-53.027000427246094,-71.10600280761719 -50.000999450683594,71.43399810791016 -49.770999908447266,72.18099975585938 C-49.62799835205078,72.64600372314453 52.67399978637695,72.30999755859375 52.74100112915039,71.33499908447266 C52.775001525878906,70.83399963378906 52.849998474121094,52.86600112915039 52.9109992980957,29.83099937438965 C52.97100067138672,7.341000080108643 53.018001556396484,-19.979999542236328 53.000999450683594,-40.59299850463867 C52.98899841308594,-55.15599822998047 36.96799850463867,-49.66899871826172 33.70600128173828,-52.5890007019043 C31.138999938964844,-54.8849983215332 36.98699951171875,-72.26100158691406 25.621000289916992,-72.31500244140625 C-5.808000087738037,-72.46700286865234 -52.9900016784668,-72.4010009765625 -53.00400161743164,-71.91999816894531z"/></g></g><g transform="matrix(0.995288610458374,0.09695644676685333,-0.09695644676685333,0.995288610458374,155.34280395507812,38.668453216552734)" opacity="1" style="display: block;"><g opacity="1" transform="matrix(1,0,0,1,0,0)"><path stroke-linecap="round" stroke-linejoin="round" fill-opacity="0" class="primary" stroke="rgb(42,48,107)" stroke-opacity="1" stroke-width="0.9985" d=" M13.789999961853027,16.215999603271484 C13.612000465393066,1.5110000371932983 -3.6110000610351562,-17.023000717163086 -13.789999961853027,-16.187999725341797"/></g></g><g transform="matrix(0.995288610458374,0.09695644676685333,-0.09695644676685333,0.995288610458374,45.34135437011719,114.34363555908203)" opacity="1" style="display: block;"><g opacity="1" transform="matrix(1,0,0,1,0,0)"><path stroke-linecap="round" stroke-linejoin="round" fill-opacity="0" class="primary" stroke="rgb(42,48,107)" stroke-opacity="1" stroke-width="1" d=" M-0.03799999877810478,5.941999912261963 C-0.6179999709129333,-13.645000457763672 -1.2309999465942383,-33.86899948120117 -1.465000033378601,-39.78300094604492"/></g></g><g transform="matrix(0.995288610458374,0.09695644676685333,-0.09695644676685333,0.995288610458374,45.34135437011719,114.34363555908203)" opacity="1" style="display: block;"><g opacity="1" transform="matrix(1,0,0,1,0,0)"><path stroke-linecap="round" stroke-linejoin="round" fill-opacity="0" class="primary" stroke="rgb(42,48,107)" stroke-opacity="1" stroke-width="1" d=" M1.4079999923706055,27.03700065612793 C1.371999979019165,22.59000015258789 1.3350000381469727,17.715999603271484 1.2990000247955322,12.682999610900879"/></g></g><g transform="matrix(0.995288610458374,0.09695644676685333,-0.09695644676685333,0.995288610458374,75.47959899902344,171.7069854736328)" opacity="1" style="display: block;"><g opacity="1" transform="matrix(1,0,0,1,0,0)"><path stroke-linecap="round" stroke-linejoin="round" fill-opacity="0" class="primary" stroke="rgb(42,48,107)" stroke-opacity="1" stroke-width="1" d=" M20.631000518798828,0.003000000026077032 C1.968999981880188,0.0729999989271164 -20.599000930786133,0.13699999451637268 -27.347999572753906,-0.028999999165534973"/></g></g><g transform="matrix(0.995288610458374,0.09695644676685333,-0.09695644676685333,0.995288610458374,177.13575744628906,69.87545013427734)" opacity="1" style="display: block;"><g opacity="1" transform="matrix(1,0,0,1,0,0)"><path stroke-linecap="round" stroke-linejoin="round" fill-opacity="0" class="primary" stroke="rgb(42,48,107)" stroke-opacity="1" stroke-width="1" d=" M-0.06599999964237213,43.55400085449219 C-0.1720000058412552,36.619998931884766 -0.08299999684095383,5.396999835968018 0.019999999552965164,-19.469999313354492"/></g></g><g clip-path="url(#__lottie_element_12946)" transform="matrix(0.995288610458374,0.09695644676685333,-0.09695644676685333,0.995288610458374,23.76041603088379,-10.482882499694824)" opacity="1" style="display: block;"><g clip-path="url(#__lottie_element_12947)"><g transform="matrix(1,0,0,1,95.51799774169922,73.71700286865234)" opacity="1" style="display: block;"><g opacity="1" transform="matrix(1,0,0,1,0,0)"><path stroke-linecap="round" stroke-linejoin="round" fill-opacity="0" class="primary" stroke="rgb(42,48,107)" stroke-opacity="1" stroke-width="1.5" d=" M27.28700065612793,-17.535999298095703 C27.43899917602539,-4.421000003814697 19.035999298095703,17.976999282836914 14.529000282287598,17.999000549316406 C10.548999786376953,18.018999099731445 2.619999885559082,-2.684000015258789 2.4539999961853027,-17.58300018310547 M-6.239999771118164,13.817000389099121 C-9.223999977111816,17.886999130249023 -17.201000213623047,17.96299934387207 -22.43400001525879,12.432999610900879 C-25.099000930786133,9.616999626159668 -27.052000045776367,5.3480000495910645 -27.273000717163086,-0.5870000123977661 C-27.37700080871582,-3.368000030517578 -26.950000762939453,-5.843999862670898 -26.15399932861328,-7.99399995803833 C-24.643999099731445,-12.069000244140625 -21.805999755859375,-14.973999977111816 -18.732999801635742,-16.56999969482422 C-15.005999565124512,-18.5049991607666 -10.932999610900879,-18.516000747680664 -8.46399974822998,-16.354999542236328"/></g></g><g transform="matrix(1,0,0,1,95.19300079345703,123.34200286865234)" opacity="1" style="display: block;"><g opacity="1" transform="matrix(1,0,0,1,0,0)"><path stroke-linecap="round" stroke-linejoin="round" fill-opacity="0" class="primary" stroke="rgb(42,48,107)" stroke-opacity="1" stroke-width="1" d=" M27.615999221801758,11.670999526977539 C16.663000106811523,11.670999526977539 -25.823999404907227,12.118000030517578 -27.658000946044922,11.64799976348877"/></g></g><g transform="matrix(1,0,0,1,95.19300079345703,123.34200286865234)" opacity="1" style="display: block;"><g opacity="1" transform="matrix(1,0,0,1,0,0)"><path stroke-linecap="round" stroke-linejoin="round" fill-opacity="0" class="primary" stroke="rgb(42,48,107)" stroke-opacity="1" stroke-width="1" d=" M27.597999572753906,0.5460000038146973 C16.645000457763672,0.5460000038146973 -25.841999053955078,0.9929999709129333 -27.676000595092773,0.5230000019073486"/></g></g><g transform="matrix(1,0,0,1,95.19300079345703,123.34200286865234)" opacity="1" style="display: block;"><g opacity="1" transform="matrix(1,0,0,1,0,0)"><path stroke-linecap="round" stroke-linejoin="round" fill-opacity="0" class="primary" stroke="rgb(42,48,107)" stroke-opacity="1" stroke-width="1" d=" M27.676000595092773,-11.84000015258789 C16.722999572753906,-11.84000015258789 -25.763999938964844,-11.392999649047852 -27.597999572753906,-11.86299991607666"/></g></g></g></g></g></g></svg>