<svg xmlns="http://www.w3.org/2000/svg" xmlns:xlink="http://www.w3.org/1999/xlink" viewBox="0 0 192 192" width="192" height="192" preserveAspectRatio="xMidYMid meet" style="width: 100%; height: 100%; transform: translate3d(0px, 0px, 0px); content-visibility: visible;"><defs><clipPath id="__lottie_element_7424"><rect width="192" height="192" x="0" y="0"/></clipPath><clipPath id="__lottie_element_7426"><path d="M0,0 L192,0 L192,192 L0,192z"/></clipPath><g id="__lottie_element_7433"><g clip-path="url(#__lottie_element_7434)" transform="matrix(1,0,0,1,0,0)" opacity="1" style="display: block;"><g transform="matrix(1,0,0,1,132.36099243164062,146.5970001220703)" opacity="1" style="display: block;"><path fill="rgb(255,0,0)" fill-opacity="1" d=" M-16.187000274658203,18.945999145507812 C-16.947999954223633,16.716999053955078 -21.690000534057617,-19.19499969482422 -22.32900047302246,-24.4950008392334 C-9.616999626159668,-24.500999450683594 12.154999732971191,-24.554000854492188 22.327999114990234,-24.5310001373291 C22.382999420166016,-24.5310001373291 17.79800033569336,6.440999984741211 15.343999862670898,18.8799991607666 C14.730999946594238,21.983999252319336 13.888999938964844,24.225000381469727 10.800999641418457,24.33799934387207 C6.807000160217285,24.483999252319336 -7.090000152587891,24.701000213623047 -11.157999992370605,24.34000015258789 C-13.26099967956543,24.15399932861328 -14.732999801635742,23.204999923706055 -16.187000274658203,18.945999145507812z"/><g opacity="1" transform="matrix(1,0,0,1,0,0)"/></g><g transform="matrix(1,0,0,1,132.30299377441406,118.95999908447266)" opacity="1" style="display: block;"><path fill="rgb(255,0,0)" fill-opacity="1" d=" M-27.114999771118164,-2.5190000534057617 C-27.0939998626709,-3.1449999809265137 -26.356000900268555,-3.1029999256134033 -24.791000366210938,-3.130000114440918 C-16.704999923706055,-3.265000104904175 13.359000205993652,-2.803999900817871 24.365999221801758,-3.052000045776367 C25.1200008392334,-3.069000005722046 26.468000411987305,-3.0360000133514404 26.834999084472656,-2.3010001182556152 C27.233999252319336,-1.5019999742507935 27.141000747680664,0.4009999930858612 27.117000579833984,1.1610000133514404 C27.055999755859375,3.134999990463257 25.719999313354492,3.0420000553131104 24.121999740600586,3.0329999923706055 C18.652000427246094,3.000999927520752 -20.527999877929688,3.2039999961853027 -24.84000015258789,3.1440000534057617 C-25.511999130249023,3.134999990463257 -27.024999618530273,3.365999937057495 -27.099000930786133,1.8359999656677246 C-27.149999618530273,0.777999997138977 -27.15999984741211,-1.187000036239624 -27.114999771118164,-2.5190000534057617z"/><g opacity="1" transform="matrix(1,0,0,1,0,0)"/></g><g transform="matrix(1,0,0,1,132.0129852294922,111.66299438476562)" opacity="1" style="display: block;"><path fill="rgb(255,0,0)" fill-opacity="1" d=" M-7.665999889373779,4.081999778747559 C-7.665999889373779,4.081999778747559 7.668000221252441,4.013999938964844 7.668000221252441,4.013999938964844 C7.639999866485596,2.1670000553131104 7.38700008392334,-1.9539999961853027 7.381999969482422,-3.5369999408721924 C7.380000114440918,-4.276000022888184 -7.513999938964844,-4.303999900817871 -7.525000095367432,-3.365000009536743 C-7.546999931335449,-1.4529999494552612 -7.683000087738037,2.263000011444092 -7.665999889373779,4.081999778747559z"/><g opacity="1" transform="matrix(1,0,0,1,0,0)"/></g></g></g><clipPath id="__lottie_element_7434"><path d="M0,0 L192,0 L192,192 L0,192z"/></clipPath><g id="__lottie_element_7440"><g clip-path="url(#__lottie_element_7441)" transform="matrix(1,0,0,1,0,0)" opacity="1" style="display: block;"><g transform="matrix(1,0,0,1,132.36099243164062,146.5970001220703)" opacity="1" style="display: block;"><path fill="rgb(255,0,0)" fill-opacity="1" d=" M-16.187000274658203,18.945999145507812 C-16.947999954223633,16.716999053955078 -21.690000534057617,-19.19499969482422 -22.32900047302246,-24.4950008392334 C-9.616999626159668,-24.500999450683594 12.154999732971191,-24.554000854492188 22.327999114990234,-24.5310001373291 C22.382999420166016,-24.5310001373291 17.79800033569336,6.440999984741211 15.343999862670898,18.8799991607666 C14.730999946594238,21.983999252319336 13.888999938964844,24.225000381469727 10.800999641418457,24.33799934387207 C6.807000160217285,24.483999252319336 -7.090000152587891,24.701000213623047 -11.157999992370605,24.34000015258789 C-13.26099967956543,24.15399932861328 -14.732999801635742,23.204999923706055 -16.187000274658203,18.945999145507812z"/><g opacity="1" transform="matrix(1,0,0,1,0,0)"/></g><g transform="matrix(1,0,0,1,132.30299377441406,118.95999908447266)" opacity="1" style="display: block;"><path fill="rgb(255,0,0)" fill-opacity="1" d=" M-27.114999771118164,-2.5190000534057617 C-27.0939998626709,-3.1449999809265137 -26.356000900268555,-3.1029999256134033 -24.791000366210938,-3.130000114440918 C-16.704999923706055,-3.265000104904175 13.359000205993652,-2.803999900817871 24.365999221801758,-3.052000045776367 C25.1200008392334,-3.069000005722046 26.468000411987305,-3.0360000133514404 26.834999084472656,-2.3010001182556152 C27.233999252319336,-1.5019999742507935 27.141000747680664,0.4009999930858612 27.117000579833984,1.1610000133514404 C27.055999755859375,3.134999990463257 25.719999313354492,3.0420000553131104 24.121999740600586,3.0329999923706055 C18.652000427246094,3.000999927520752 -20.527999877929688,3.2039999961853027 -24.84000015258789,3.1440000534057617 C-25.511999130249023,3.134999990463257 -27.024999618530273,3.365999937057495 -27.099000930786133,1.8359999656677246 C-27.149999618530273,0.777999997138977 -27.15999984741211,-1.187000036239624 -27.114999771118164,-2.5190000534057617z"/><g opacity="1" transform="matrix(1,0,0,1,0,0)"/></g><g transform="matrix(1,0,0,1,132.0129852294922,111.66299438476562)" opacity="1" style="display: block;"><path fill="rgb(255,0,0)" fill-opacity="1" d=" M-7.665999889373779,4.081999778747559 C-7.665999889373779,4.081999778747559 7.668000221252441,4.013999938964844 7.668000221252441,4.013999938964844 C7.639999866485596,2.1670000553131104 7.38700008392334,-1.9539999961853027 7.381999969482422,-3.5369999408721924 C7.380000114440918,-4.276000022888184 -7.513999938964844,-4.303999900817871 -7.525000095367432,-3.365000009536743 C-7.546999931335449,-1.4529999494552612 -7.683000087738037,2.263000011444092 -7.665999889373779,4.081999778747559z"/><g opacity="1" transform="matrix(1,0,0,1,0,0)"/></g></g></g><clipPath id="__lottie_element_7441"><path d="M0,0 L192,0 L192,192 L0,192z"/></clipPath><g id="__lottie_element_7447"><g clip-path="url(#__lottie_element_7448)" transform="matrix(1,0,0,1,0,0)" opacity="1" style="display: block;"><g transform="matrix(1,0,0,1,132.36099243164062,146.5970001220703)" opacity="1" style="display: block;"><path fill="rgb(255,0,0)" fill-opacity="1" d=" M-16.187000274658203,18.945999145507812 C-16.947999954223633,16.716999053955078 -21.690000534057617,-19.19499969482422 -22.32900047302246,-24.4950008392334 C-9.616999626159668,-24.500999450683594 12.154999732971191,-24.554000854492188 22.327999114990234,-24.5310001373291 C22.382999420166016,-24.5310001373291 17.79800033569336,6.440999984741211 15.343999862670898,18.8799991607666 C14.730999946594238,21.983999252319336 13.888999938964844,24.225000381469727 10.800999641418457,24.33799934387207 C6.807000160217285,24.483999252319336 -7.090000152587891,24.701000213623047 -11.157999992370605,24.34000015258789 C-13.26099967956543,24.15399932861328 -14.732999801635742,23.204999923706055 -16.187000274658203,18.945999145507812z"/><g opacity="1" transform="matrix(1,0,0,1,0,0)"/></g><g transform="matrix(1,0,0,1,132.30299377441406,118.95999908447266)" opacity="1" style="display: block;"><path fill="rgb(255,0,0)" fill-opacity="1" d=" M-27.114999771118164,-2.5190000534057617 C-27.0939998626709,-3.1449999809265137 -26.356000900268555,-3.1029999256134033 -24.791000366210938,-3.130000114440918 C-16.704999923706055,-3.265000104904175 13.359000205993652,-2.803999900817871 24.365999221801758,-3.052000045776367 C25.1200008392334,-3.069000005722046 26.468000411987305,-3.0360000133514404 26.834999084472656,-2.3010001182556152 C27.233999252319336,-1.5019999742507935 27.141000747680664,0.4009999930858612 27.117000579833984,1.1610000133514404 C27.055999755859375,3.134999990463257 25.719999313354492,3.0420000553131104 24.121999740600586,3.0329999923706055 C18.652000427246094,3.000999927520752 -20.527999877929688,3.2039999961853027 -24.84000015258789,3.1440000534057617 C-25.511999130249023,3.134999990463257 -27.024999618530273,3.365999937057495 -27.099000930786133,1.8359999656677246 C-27.149999618530273,0.777999997138977 -27.15999984741211,-1.187000036239624 -27.114999771118164,-2.5190000534057617z"/><g opacity="1" transform="matrix(1,0,0,1,0,0)"/></g><g transform="matrix(1,0,0,1,132.0129852294922,111.66299438476562)" opacity="1" style="display: block;"><path fill="rgb(255,0,0)" fill-opacity="1" d=" M-7.665999889373779,4.081999778747559 C-7.665999889373779,4.081999778747559 7.668000221252441,4.013999938964844 7.668000221252441,4.013999938964844 C7.639999866485596,2.1670000553131104 7.38700008392334,-1.9539999961853027 7.381999969482422,-3.5369999408721924 C7.380000114440918,-4.276000022888184 -7.513999938964844,-4.303999900817871 -7.525000095367432,-3.365000009536743 C-7.546999931335449,-1.4529999494552612 -7.683000087738037,2.263000011444092 -7.665999889373779,4.081999778747559z"/><g opacity="1" transform="matrix(1,0,0,1,0,0)"/></g></g></g><clipPath id="__lottie_element_7448"><path d="M0,0 L192,0 L192,192 L0,192z"/></clipPath><filter id="__lottie_element_7496" filterUnits="objectBoundingBox" x="0%" y="0%" width="100%" height="100%"><feComponentTransfer in="SourceGraphic"><feFuncA type="table" tableValues="1.0 0.0"/></feComponentTransfer></filter><mask id="__lottie_element_7447_2" mask-type="alpha" maskUnits="userSpaceOnUse"><g filter="url(#__lottie_element_7496)"><rect width="192" height="192" x="0" y="0" fill="#ffffff" opacity="0"/><use xmlns:ns1="http://www.w3.org/1999/xlink" ns1:href="#__lottie_element_7447"/></g></mask><filter id="__lottie_element_7497" filterUnits="objectBoundingBox" x="0%" y="0%" width="100%" height="100%"><feComponentTransfer in="SourceGraphic"><feFuncA type="table" tableValues="1.0 0.0"/></feComponentTransfer></filter><mask id="__lottie_element_7440_2" mask-type="alpha" maskUnits="userSpaceOnUse"><g filter="url(#__lottie_element_7497)"><rect width="192" height="192" x="0" y="0" fill="#ffffff" opacity="0"/><use xmlns:ns2="http://www.w3.org/1999/xlink" ns2:href="#__lottie_element_7440"/></g></mask><filter id="__lottie_element_7498" filterUnits="objectBoundingBox" x="0%" y="0%" width="100%" height="100%"><feComponentTransfer in="SourceGraphic"><feFuncA type="table" tableValues="1.0 0.0"/></feComponentTransfer></filter><mask id="__lottie_element_7433_2" mask-type="alpha" maskUnits="userSpaceOnUse"><g filter="url(#__lottie_element_7498)"><rect width="192" height="192" x="0" y="0" fill="#ffffff" opacity="0"/><use xmlns:ns3="http://www.w3.org/1999/xlink" ns3:href="#__lottie_element_7433"/></g></mask></defs><g clip-path="url(#__lottie_element_7424)"><g clip-path="url(#__lottie_element_7426)" transform="matrix(1,0,0,1,0,0)" opacity="1" style="display: block;"><g mask="url(#__lottie_element_7433_2)" style="display: block;"><g transform="matrix(1,0,0,1,102.4000015258789,95.87100219726562)" opacity="1"><g opacity="1" transform="matrix(1,0,0,1,0,0)"><path class="secondary" fill="rgb(230,142,110)" fill-opacity="1" d=" M-36.91699981689453,47.40999984741211 C-24.590999603271484,57.38600158691406 -7.716000080108643,61.49399948120117 7.6539998054504395,59.21099853515625 C36.29899978637695,54.95399856567383 62.03799819946289,30.183000564575195 58.02000045776367,-4.965000152587891 C53.06999969482422,-48.27399826049805 18.673999786376953,-57.09199905395508 2.2950000762939453,-58.62699890136719 C-0.10000000149011612,-58.85100173950195 -4.436999797821045,-58.65700149536133 -5.913000106811523,-58.654998779296875 C-61.0099983215332,-53.61199951171875 -78.91899871826172,13.418999671936035 -36.91699981689453,47.40999984741211z M-8.187000274658203,-73.80699920654297 C-6.767000198364258,-73.95899963378906 1.8519999980926514,-74.17400360107422 5.947999954223633,-73.6780014038086 C27.20599937438965,-71.10399627685547 67.11000061035156,-58.90800094604492 73.0510025024414,-6.928999900817871 C78.06800079345703,36.96699905395508 45.92399978637695,67.90299987792969 10.149999618530273,73.21800231933594 C-9.045000076293945,76.07099914550781 -30.1200008392334,70.94000244140625 -45.513999938964844,58.48099899291992 C-96.86199951171875,16.927000045776367 -73.80599975585938,-66.77200317382812 -8.187000274658203,-73.80699920654297z"/><path stroke-linecap="round" stroke-linejoin="round" fill-opacity="0" class="secondary" stroke="rgb(230,142,110)" stroke-opacity="1" stroke-width="0.5" d=" M-36.91699981689453,47.40999984741211 C-24.590999603271484,57.38600158691406 -7.716000080108643,61.49399948120117 7.6539998054504395,59.21099853515625 C36.29899978637695,54.95399856567383 62.03799819946289,30.183000564575195 58.02000045776367,-4.965000152587891 C53.06999969482422,-48.27399826049805 18.673999786376953,-57.09199905395508 2.2950000762939453,-58.62699890136719 C-0.10000000149011612,-58.85100173950195 -4.436999797821045,-58.65700149536133 -5.913000106811523,-58.654998779296875 C-61.0099983215332,-53.61199951171875 -78.91899871826172,13.418999671936035 -36.91699981689453,47.40999984741211z M-8.187000274658203,-73.80699920654297 C-6.767000198364258,-73.95899963378906 1.8519999980926514,-74.17400360107422 5.947999954223633,-73.6780014038086 C27.20599937438965,-71.10399627685547 67.11000061035156,-58.90800094604492 73.0510025024414,-6.928999900817871 C78.06800079345703,36.96699905395508 45.92399978637695,67.90299987792969 10.149999618530273,73.21800231933594 C-9.045000076293945,76.07099914550781 -30.1200008392334,70.94000244140625 -45.513999938964844,58.48099899291992 C-96.86199951171875,16.927000045776367 -73.80599975585938,-66.77200317382812 -8.187000274658203,-73.80699920654297z"/></g></g></g><g mask="url(#__lottie_element_7440_2)" style="display: block;"><g transform="matrix(1,0,0,1,97.38899993896484,95.69599914550781)" opacity="1"><g opacity="1" transform="matrix(1,0,0,1,0,0)"><path stroke-linecap="round" stroke-linejoin="round" fill-opacity="0" class="primary" stroke="rgb(29,77,141)" stroke-opacity="1" stroke-width="1.499" d=" M-8.187000274658203,-73.80699920654297 C-6.767000198364258,-73.95899963378906 1.8519999980926514,-74.17400360107422 5.947999954223633,-73.6780014038086 C27.20599937438965,-71.10399627685547 67.11000061035156,-58.90800094604492 73.0510025024414,-6.928999900817871 C78.06800079345703,36.96699905395508 45.92399978637695,67.90299987792969 10.149999618530273,73.21800231933594 C-9.045000076293945,76.07099914550781 -30.1200008392334,70.94000244140625 -45.513999938964844,58.48099899291992 C-96.86199951171875,16.927000045776367 -73.80599975585938,-66.77200317382812 -8.187000274658203,-73.80699920654297z"/></g></g></g><g mask="url(#__lottie_element_7447_2)" style="display: block;"><g transform="matrix(1,0,0,1,96.55999755859375,96.24099731445312)" opacity="1"><g opacity="1" transform="matrix(1,0,0,1,0,0)"><path stroke-linecap="round" stroke-linejoin="round" fill-opacity="0" class="primary" stroke="rgb(29,77,141)" stroke-opacity="1" stroke-width="1" d=" M-5.579999923706055,-59.15299987792969 C-5.414999961853027,-59.16899871826172 -5.25,-59.185001373291016 -5.084000110626221,-59.20000076293945 C-3.6080000400543213,-59.20199966430664 0.7289999723434448,-59.39699935913086 3.122999906539917,-59.172000885009766 C19.503000259399414,-57.63800048828125 53.89899826049805,-48.819000244140625 58.8489990234375,-5.510000228881836 C62.86600112915039,29.63800048828125 37.12799835205078,54.409000396728516 8.482999801635742,58.665000915527344 C-6.88700008392334,60.94900131225586 -23.761999130249023,56.840999603271484 -36.0880012512207,46.8650016784668 C-36.0880012512207,46.8650016784668 -36.0880012512207,46.8650016784668 -36.0880012512207,46.8650016784668 C-77.96499633789062,12.97599983215332 -60.28799819946289,-53.755001068115234 -5.579999923706055,-59.15299987792969"/></g></g></g><g transform="matrix(1,0,0,1,96.29900360107422,42.37699890136719)" opacity="1" style="display: block;"><g opacity="1" transform="matrix(1,0,0,1,0,0)"><path stroke-linecap="round" stroke-linejoin="round" fill-opacity="0" class="primary" stroke="rgb(29,77,141)" stroke-opacity="1" stroke-width="1" d=" M0.05700000002980232,4.913000106811523 C0.03200000151991844,1.9739999771118164 0.01899999938905239,-2.1070001125335693 -0.05700000002980232,-4.913000106811523"/></g></g><g transform="matrix(1,0,0,1,150.0469970703125,96.14900207519531)" opacity="1" style="display: block;"><g opacity="1" transform="matrix(1,0,0,1,0,0)"><path stroke-linecap="round" stroke-linejoin="round" fill-opacity="0" class="primary" stroke="rgb(29,77,141)" stroke-opacity="1" stroke-width="1" d=" M5.23199987411499,0.020999999716877937 C3.013000011444092,0.08100000023841858 -3.8389999866485596,-0.07100000232458115 -5.23199987411499,-0.02800000086426735"/></g></g><g transform="matrix(1,0,0,-1,96.6050033569336,149.58700561523438)" opacity="1" style="display: block;"><g opacity="1" transform="matrix(1,0,0,1,0,0)"><path stroke-linecap="round" stroke-linejoin="round" fill-opacity="0" class="primary" stroke="rgb(29,77,141)" stroke-opacity="1" stroke-width="1" d=" M0.013000000268220901,4.794000148773193 C0.013000000268220901,3.1710000038146973 -0.003000000026077032,-1.5609999895095825 -0.013000000268220901,-4.794000148773193"/></g></g><g transform="matrix(1,0,0,1,41.97800064086914,96.05500030517578)" opacity="1" style="display: block;"><g opacity="1" transform="matrix(1,0,0,1,0,0)"><path stroke-linecap="round" stroke-linejoin="round" fill-opacity="0" class="primary" stroke="rgb(29,77,141)" stroke-opacity="1" stroke-width="1" d=" M4.2210001945495605,0.0010000000474974513 C1.746000051498413,0 -1.1619999408721924,-0.0010000000474974513 -4.2210001945495605,-0.0010000000474974513"/></g></g><g transform="matrix(-1,0,0,1,86.24199676513672,85.19300079345703)" opacity="1" style="display: block;"><g opacity="1" transform="matrix(0.9939666986465454,-0.10968226939439774,0.10968226939439774,0.9939666986465454,0.00034427642822265625,0.00010013580322265625)"><path stroke-linecap="round" stroke-linejoin="round" fill-opacity="0" class="primary" stroke="rgb(29,77,141)" stroke-opacity="1" stroke-width="1.499" d=" M11.1850004196167,-11.008000373840332 C3.73799991607666,-3.882999897003174 -4.243000030517578,5.254000186920166 -11.1850004196167,11.008000373840332"/></g></g><g transform="matrix(-1,0,0,1,105.69300079345703,91.73799896240234)" opacity="1" style="display: block;"><g opacity="1" transform="matrix(0.37798622250556946,0.925811231136322,-0.925811231136322,0.37798622250556946,0,0)"><path stroke-linecap="round" stroke-linejoin="round" fill-opacity="0" class="primary" stroke="rgb(29,77,141)" stroke-opacity="1" stroke-width="1.499" d=" M8.699000358581543,-6.435999870300293 C4.335000038146973,-3.1589999198913574 -4.627999782562256,3.365999937057495 -8.699000358581543,6.435999870300293"/></g></g><g transform="matrix(1,0,0,1,170.92401123046875,83.76100158691406)" opacity="1" style="display: block;"><g opacity="1" transform="matrix(1,0,0,1,0,0)"><path stroke-linecap="round" stroke-linejoin="round" fill-opacity="0" class="primary" stroke="rgb(29,77,141)" stroke-opacity="1" stroke-width="1.0005" d=" M-12.513999938964844,-49.16899871826172 C0.7450000047683716,-38.01300048828125 24.93600082397461,1.3589999675750732 4.823999881744385,49.16899871826172"/></g></g><g transform="matrix(1,0,0,1,52.09299850463867,159.53199768066406)" opacity="1" style="display: block;"><g opacity="1" transform="matrix(1,0,0,1,0,0)"><path stroke-linecap="round" stroke-linejoin="round" fill-opacity="0" class="primary" stroke="rgb(29,77,141)" stroke-opacity="1" stroke-width="1.0005" d=" M31.483999252319336,22.364999771118164 C17.065000534057617,20.179000854492188 3.072000026702881,14.39799976348877 -8.281000137329102,5.209000110626221 C-18.298999786376953,-2.8970000743865967 -25.986000061035156,-12.289999961853027 -31.483999252319336,-22.364999771118164"/></g></g><g transform="matrix(1,0,0,1,40.29199981689453,40.6609992980957)" opacity="1" style="display: block;"><g opacity="1" transform="matrix(1,0,0,1,0,0)"><path stroke-linecap="round" stroke-linejoin="round" fill-opacity="0" class="primary" stroke="rgb(29,77,141)" stroke-opacity="1" stroke-width="1" d=" M-27.209999084472656,27.809999465942383 C-21.599000930786133,7.531000137329102 -1.6069999933242798,-18.698999404907227 27.209999084472656,-27.809999465942383"/></g></g><g transform="matrix(1,0,0,1,132.36099243164062,146.5970001220703)" opacity="1" style="display: block;"><g opacity="1" transform="matrix(1,0,0,1,0,0)"><path stroke-linecap="round" stroke-linejoin="round" fill-opacity="0" class="primary" stroke="rgb(29,77,141)" stroke-opacity="1" stroke-width="1" d=" M22.22100067138672,-23.716999053955078 C21.52199935913086,-18.75 17.562000274658203,7.636000156402588 15.343999862670898,18.8799991607666 C14.730999946594238,21.983999252319336 13.888999938964844,24.225000381469727 10.800999641418457,24.33799934387207 C6.807000160217285,24.483999252319336 -7.090000152587891,24.701000213623047 -11.157999992370605,24.34000015258789 C-13.26099967956543,24.15399932861328 -14.732999801635742,23.204999923706055 -16.187000274658203,18.945999145507812 C-16.187000274658203,18.945999145507812 -16.187000274658203,18.945999145507812 -16.187000274658203,18.945999145507812 C-16.947999954223633,16.716999053955078 -21.690000534057617,-19.19499969482422 -22.32900047302246,-24.4950008392334 C-9.616999626159668,-24.500999450683594 12.154999732971191,-24.554000854492188 22.327999114990234,-24.5310001373291 C22.33300018310547,-24.5310001373291 22.29599952697754,-24.2450008392334 22.22100067138672,-23.716999053955078"/></g></g><g transform="matrix(1,0,0,1,121.5929946899414,146.9290008544922)" opacity="1" style="display: block;"><g opacity="1" transform="matrix(1,0,0,1,0,0)"><path stroke-linecap="round" stroke-linejoin="round" fill-opacity="0" class="primary" stroke="rgb(29,77,141)" stroke-opacity="1" stroke-width="0.9995" d=" M2.007999897003174,14.246000289916992 C1.090999960899353,9.079999923706055 -1.7130000591278076,-11.821000099182129 -2.007999897003174,-14.246000289916992"/></g></g><g transform="matrix(1,0,0,1,132.55099487304688,146.78900146484375)" opacity="1" style="display: block;"><g opacity="1" transform="matrix(1,0,0,1,0,0)"><path stroke-linecap="round" stroke-linejoin="round" fill-opacity="0" class="primary" stroke="rgb(29,77,141)" stroke-opacity="1" stroke-width="0.9995" d=" M0.026000000536441803,14.395999908447266 C0.11599999666213989,9.003999710083008 -0.07599999755620956,-11.802000045776367 -0.04699999839067459,-14.395999908447266"/></g></g><g transform="matrix(1,0,0,1,142.79598999023438,147.13600158691406)" opacity="1" style="display: block;"><g opacity="1" transform="matrix(1,0,0,1,0,0)"><path stroke-linecap="round" stroke-linejoin="round" fill-opacity="0" class="primary" stroke="rgb(29,77,141)" stroke-opacity="1" stroke-width="0.9995" d=" M-2.0269999504089355,14.390000343322754 C-1.6449999809265137,11.918000221252441 1.409000039100647,-10.093999862670898 2.0269999504089355,-14.390000343322754"/></g></g><g transform="matrix(1,0,0,1,132.30299377441406,118.95999908447266)" opacity="1" style="display: block;"><g opacity="1" transform="matrix(1,0,0,1,0,0)"><path stroke-linecap="round" stroke-linejoin="round" fill-opacity="0" class="primary" stroke="rgb(29,77,141)" stroke-opacity="1" stroke-width="1" d=" M-27.114999771118164,-2.5190000534057617 C-27.0939998626709,-3.1449999809265137 -26.356000900268555,-3.1029999256134033 -24.791000366210938,-3.130000114440918 C-16.704999923706055,-3.265000104904175 13.359000205993652,-2.803999900817871 24.365999221801758,-3.052000045776367 C25.1200008392334,-3.069000005722046 26.468000411987305,-3.0360000133514404 26.834999084472656,-2.3010001182556152 C27.233999252319336,-1.5019999742507935 27.141000747680664,0.4009999930858612 27.117000579833984,1.1610000133514404 C27.055999755859375,3.134999990463257 25.719999313354492,3.0420000553131104 24.121999740600586,3.0329999923706055 C18.652000427246094,3.000999927520752 -20.527999877929688,3.2039999961853027 -24.84000015258789,3.1440000534057617 C-25.511999130249023,3.134999990463257 -27.024999618530273,3.365999937057495 -27.099000930786133,1.8359999656677246 C-27.149999618530273,0.777999997138977 -27.15999984741211,-1.187000036239624 -27.114999771118164,-2.5190000534057617z"/></g></g><g transform="matrix(1,0,0,1,132.0129852294922,111.66299438476562)" opacity="1" style="display: block;"><g opacity="1" transform="matrix(1,0,0,1,0,0)"><path stroke-linecap="round" stroke-linejoin="round" fill-opacity="0" class="primary" stroke="rgb(29,77,141)" stroke-opacity="1" stroke-width="1" d=" M-7.665999889373779,4.081999778747559 C-7.665999889373779,4.081999778747559 7.668000221252441,4.013999938964844 7.668000221252441,4.013999938964844 C7.639999866485596,2.1670000553131104 7.38700008392334,-1.9539999961853027 7.381999969482422,-3.5369999408721924 C7.380000114440918,-4.276000022888184 -7.513999938964844,-4.303999900817871 -7.525000095367432,-3.365000009536743 C-7.546999931335449,-1.4529999494552612 -7.683000087738037,2.263000011444092 -7.665999889373779,4.081999778747559z"/></g></g></g></g></svg>