<svg xmlns="http://www.w3.org/2000/svg" xmlns:xlink="http://www.w3.org/1999/xlink" viewBox="0 0 192 192" width="192" height="192" preserveAspectRatio="xMidYMid meet" style="width: 100%; height: 100%; transform: translate3d(0px, 0px, 0px); content-visibility: visible;"><defs><clipPath id="__lottie_element_7873"><rect width="192" height="192" x="0" y="0"/></clipPath><clipPath id="__lottie_element_7875"><path d="M0,0 L192,0 L192,192 L0,192z"/></clipPath><g id="__lottie_element_7883"><g transform="matrix(1,0,0,1,96.32499694824219,90.56800079345703)" opacity="1" style="display: block;"><g opacity="1" transform="matrix(1,0,0,1,0,0)"><path fill="rgb(42,48,107)" fill-opacity="1" d=" M-102.23699951171875,-103.91999816894531 C-101.99400329589844,-103.92400360107422 -104.46499633789062,-71.68099975585938 -101.82599639892578,-71.69100189208984 C-92.5719985961914,-71.7249984741211 -72.75,-71.78299713134766 -71.58000183105469,-71.7969970703125 C-44.3380012512207,-72.11900329589844 46.54899978637695,-72.47799682617188 71.1719970703125,-72.63300323486328 C72.51399993896484,-72.64099884033203 91.94400024414062,-72.70099639892578 102.4229965209961,-72.73600006103516 C106.12799835205078,-72.74800109863281 103.46499633789062,-96.50800323486328 103.73699951171875,-96.51000213623047 C103.73699951171875,-96.51000213623047 -102.23699951171875,-103.91999816894531 -102.23699951171875,-103.91999816894531z"/></g></g></g><clipPath id="__lottie_element_7890"><path d="M0,0 L192,0 L192,192 L0,192z"/></clipPath><g id="__lottie_element_7893"><g transform="matrix(1,0,0,1,96.32499694824219,90.56800079345703)" opacity="1" style="display: block;"><g opacity="1" transform="matrix(1,0,0,1,0,0)"><path fill="rgb(42,48,107)" fill-opacity="1" d=" M-102.23699951171875,-103.91999816894531 C-101.99400329589844,-103.92400360107422 -104.46499633789062,-71.68099975585938 -101.82599639892578,-71.69100189208984 C-92.5719985961914,-71.7249984741211 -72.75,-71.78299713134766 -71.58000183105469,-71.7969970703125 C-44.3380012512207,-72.11900329589844 46.54899978637695,-72.47799682617188 71.1719970703125,-72.63300323486328 C72.51399993896484,-72.64099884033203 91.94400024414062,-72.70099639892578 102.4229965209961,-72.73600006103516 C106.12799835205078,-72.74800109863281 103.46499633789062,-96.50800323486328 103.73699951171875,-96.51000213623047 C103.73699951171875,-96.51000213623047 -102.23699951171875,-103.91999816894531 -102.23699951171875,-103.91999816894531z"/></g></g></g><filter id="__lottie_element_7908" filterUnits="objectBoundingBox" x="0%" y="0%" width="100%" height="100%"><feComponentTransfer in="SourceGraphic"><feFuncA type="table" tableValues="1.0 0.0"/></feComponentTransfer></filter><mask id="__lottie_element_7893_2" mask-type="alpha" maskUnits="userSpaceOnUse"><g filter="url(#__lottie_element_7908)"><rect width="192" height="192" x="0" y="0" fill="#ffffff" opacity="0"/><use xmlns:ns1="http://www.w3.org/1999/xlink" ns1:href="#__lottie_element_7893"/></g></mask><filter id="__lottie_element_7909" filterUnits="objectBoundingBox" x="0%" y="0%" width="100%" height="100%"><feComponentTransfer in="SourceGraphic"><feFuncA type="table" tableValues="1.0 0.0"/></feComponentTransfer></filter><mask id="__lottie_element_7883_2" mask-type="alpha" maskUnits="userSpaceOnUse"><g filter="url(#__lottie_element_7909)"><rect width="192" height="192" x="0" y="0" fill="#ffffff" opacity="0"/><use xmlns:ns2="http://www.w3.org/1999/xlink" ns2:href="#__lottie_element_7883"/></g></mask></defs><g clip-path="url(#__lottie_element_7873)"><g clip-path="url(#__lottie_element_7875)" transform="matrix(1,0,0,1,0,0)" opacity="1" style="display: block;"><g mask="url(#__lottie_element_7883_2)" style="display: block;"><g transform="matrix(0.9999948143959045,0,0,0.9999948143959045,96.32461547851562,90.56822204589844)" opacity="1"><g opacity="1" transform="matrix(1,0,0,1,0,0)"><path stroke-linecap="round" stroke-linejoin="round" fill-opacity="0" class="primary" stroke="rgb(42,48,107)" stroke-opacity="1" stroke-width="3" d=" M-52.87200164794922,-71.5780029296875 C-52.89500045776367,-70.76399993896484 -49.86899948120117,71.7750015258789 -49.638999938964844,72.52200317382812 C-49.61000061035156,72.61299896240234 -41.77399826049805,72.552001953125 -38.680999755859375,72.55500030517578 C-30.040000915527344,72.55899810791016 -29.020000457763672,66.83200073242188 -18.961999893188477,66.83499908447266 C-10.815999984741211,66.83799743652344 -7.127999782562256,72.68099975585938 2.0250000953674316,72.66400146484375 C9.652000427246094,72.6510009765625 14.5600004196167,66.94400024414062 23.441999435424805,67.07599639892578 C31.583999633789062,67.19599914550781 32.750999450683594,72.52799987792969 43.90700149536133,72.51300048828125 C48.45100021362305,72.50599670410156 52.67100143432617,72.51499938964844 52.685001373291016,72.30000305175781 C52.75299835205078,71.31099700927734 52.117000579833984,-68.79299926757812 51.875999450683594,-71.97000122070312 C51.77199935913086,-73.35399627685547 -52.858001708984375,-72.05899810791016 -52.87200164794922,-71.5780029296875z"/></g></g></g><g transform="matrix(1,0,0,1,96.32499694824219,90.56800079345703)" opacity="1" style="display: block;"><g opacity="1" transform="matrix(1,0,0,1,0,0)"><path stroke-linecap="round" stroke-linejoin="round" fill-opacity="0" class="primary" stroke="rgb(42,48,107)" stroke-opacity="1" stroke-width="3" d=" M75.48600006103516,-72.66400146484375 C59.52000045776367,-72.52400207519531 -53.106998443603516,-72.10199737548828 -75.48600006103516,-71.74400329589844"/></g></g><g mask="url(#__lottie_element_7893_2)" style="display: block;"><g clip-path="url(#__lottie_element_7890)" transform="matrix(0.9999948143959045,0,0,0.9999948143959045,0.00011430802987888455,0.0006882493617013097)" opacity="1"><g transform="matrix(1,0,0,1,122.49299621582031,127.33100128173828)" opacity="1" style="display: block;"><g opacity="1" transform="matrix(0.7142161726951599,-0.6999251842498779,0.6999251842498779,0.7142161726951599,0,0)"><path class="secondary" fill="rgb(230,142,110)" fill-opacity="1" d=" M7.109000205993652,-0.23100000619888306 C7.109000205993652,-0.4099999964237213 0.3070000112056732,6.934999942779541 -0.13199999928474426,6.7779998779296875 C-1.8669999837875366,6.156000137329102 -6.50600004196167,0.41499999165534973 -7.0329999923706055,-0.041999999433755875 C-7.875999927520752,-0.7730000019073486 -1.4579999446868896,-5.598999977111816 -0.34200000762939453,-6.781000137329102"/><path stroke-linecap="round" stroke-linejoin="round" fill-opacity="0" class="secondary" stroke="rgb(230,142,110)" stroke-opacity="1" stroke-width="1.003" d=" M7.109000205993652,-0.23100000619888306 C7.109000205993652,-0.4099999964237213 0.3070000112056732,6.934999942779541 -0.13199999928474426,6.7779998779296875 C-1.8669999837875366,6.156000137329102 -6.50600004196167,0.41499999165534973 -7.0329999923706055,-0.041999999433755875 C-7.875999927520752,-0.7730000019073486 -1.4579999446868896,-5.598999977111816 -0.34200000762939453,-6.781000137329102"/></g></g><g transform="matrix(1,0,0,1,121.59600067138672,75.01300048828125)" opacity="1" style="display: block;"><g opacity="1" transform="matrix(0.7142161726951599,-0.6999251842498779,0.6999251842498779,0.7142161726951599,0,0)"><path class="secondary" fill="rgb(230,142,110)" fill-opacity="1" d=" M0.014999999664723873,5.8379998207092285 C0.014999999664723873,5.613999843597412 6.732999801635742,-0.25699999928474426 6.243000030517578,-0.7490000128746033 C5.5269999504089355,-1.4670000076293945 1.309999942779541,-5.999000072479248 0.2070000022649765,-5.834000110626221 C-1.1299999952316284,-5.633999824523926 -6.322000026702881,0.36899998784065247 -6.26800012588501,0.4790000021457672"/><path stroke-linecap="round" stroke-linejoin="round" fill-opacity="0" class="secondary" stroke="rgb(230,142,110)" stroke-opacity="1" stroke-width="1.003" d=" M0.014999999664723873,5.8379998207092285 C0.014999999664723873,5.613999843597412 6.732999801635742,-0.25699999928474426 6.243000030517578,-0.7490000128746033 C5.5269999504089355,-1.4670000076293945 1.309999942779541,-5.999000072479248 0.2070000022649765,-5.834000110626221 C-1.1299999952316284,-5.633999824523926 -6.322000026702881,0.36899998784065247 -6.26800012588501,0.4790000021457672"/></g></g><g transform="matrix(1,0,0,1,122.17400360107422,101.572998046875)" opacity="1" style="display: block;"><g opacity="1" transform="matrix(0.7928430438041687,0.6094258427619934,-0.6094258427619934,0.7928430438041687,0,0)"><path class="secondary" fill="rgb(230,142,110)" fill-opacity="1" d=" M-15.185999870300293,-16.292999267578125 C-13.312000274658203,-18.704999923706055 -5.7769999504089355,-24.645000457763672 1.1519999504089355,-14.829999923706055 C-0.8410000205039978,-13.378999710083008 -3.7149999141693115,-10.946000099182129 -3.7980000972747803,-11.006999969482422 C-7.940999984741211,-14.031999588012695 -11.279000282287598,-8.881999969482422 -9.845000267028809,-6.817999839782715 C-8.75100040435791,-5.243000030517578 -0.06300000101327896,-4.441999912261963 6.77400016784668,-3.559999942779541 C18.45199966430664,-2.052999973297119 20.34000015258789,7.796999931335449 16.743000030517578,12.753999710083008 C6.603000164031982,26.73200035095215 -3.9660000801086426,17.4950008392334 -6.498000144958496,14.76200008392334 C-6.686999797821045,14.557999610900879 -2.256999969482422,10.111000061035156 -1.1890000104904175,8.920999526977539 C-0.47099998593330383,8.119000434875488 5.409999847412109,15.604000091552734 8.930999755859375,8.755999565124512 C12.930999755859375,0.9750000238418579 -12.821999549865723,6.0229997634887695 -17.642000198364258,-4.039999961853027 C-19.422000885009766,-7.756999969482422 -17.759000778198242,-12.979999542236328 -15.185999870300293,-16.292999267578125z"/><path stroke-linecap="round" stroke-linejoin="round" fill-opacity="0" class="secondary" stroke="rgb(230,142,110)" stroke-opacity="1" stroke-width="1.003" d=" M-15.185999870300293,-16.292999267578125 C-13.312000274658203,-18.704999923706055 -5.7769999504089355,-24.645000457763672 1.1519999504089355,-14.829999923706055 C-0.8410000205039978,-13.378999710083008 -3.7149999141693115,-10.946000099182129 -3.7980000972747803,-11.006999969482422 C-7.940999984741211,-14.031999588012695 -11.279000282287598,-8.881999969482422 -9.845000267028809,-6.817999839782715 C-8.75100040435791,-5.243000030517578 -0.06300000101327896,-4.441999912261963 6.77400016784668,-3.559999942779541 C18.45199966430664,-2.052999973297119 20.34000015258789,7.796999931335449 16.743000030517578,12.753999710083008 C6.603000164031982,26.73200035095215 -3.9660000801086426,17.4950008392334 -6.498000144958496,14.76200008392334 C-6.686999797821045,14.557999610900879 -2.256999969482422,10.111000061035156 -1.1890000104904175,8.920999526977539 C-0.47099998593330383,8.119000434875488 5.409999847412109,15.604000091552734 8.930999755859375,8.755999565124512 C12.930999755859375,0.9750000238418579 -12.821999549865723,6.0229997634887695 -17.642000198364258,-4.039999961853027 C-19.422000885009766,-7.756999969482422 -17.759000778198242,-12.979999542236328 -15.185999870300293,-16.292999267578125z"/></g></g><g transform="matrix(1,0,0,1,114.26599884033203,39.138999938964844)" opacity="1" style="display: block;"><g opacity="1" transform="matrix(1,0,0,1,0,0)"><path stroke-linecap="round" stroke-linejoin="round" fill-opacity="0" class="primary" stroke="rgb(42,48,107)" stroke-opacity="1" stroke-width="3" d=" M21.468000411987305,-0.06199999898672104 C10.031000137329102,-0.06199999898672104 -9.151000022888184,-0.0020000000949949026 -21.468000411987305,0.06199999898672104"/></g></g><g transform="matrix(1,0,0,1,96.01300048828125,97.39099884033203)" opacity="1" style="display: block;"><g opacity="1" transform="matrix(1,0,0,1,0,0)"><path stroke-linecap="round" stroke-linejoin="round" fill-opacity="0" class="primary" stroke="rgb(42,48,107)" stroke-opacity="1" stroke-width="2" d=" M11.694000244140625,35.882999420166016 C-7.895999908447266,35.91699981689453 -30.496000289916992,36.069000244140625 -40.099998474121094,36.02399826049805 M-40.62099838256836,0.9369999766349792 C-36.516998291015625,0.8709999918937683 -10.255999565124512,0.36899998784065247 8.093999862670898,0.40700000524520874 M5.822000026702881,18.996999740600586 C-15.46399974822998,19.02400016784668 -38.53300094604492,19.048999786376953 -40.292999267578125,18.961999893188477 M41.31800079345703,-36.03200149536133 C33.56999969482422,-36.03200149536133 -25.12700080871582,-35.720001220703125 -41.31800079345703,-35.689998626708984 M9.258999824523926,-16.628999710083008 C1.5089999437332153,-16.628999710083008 -24.344999313354492,-16.506000518798828 -40.5359992980957,-16.47599983215332"/></g></g><g transform="matrix(1,0,0,1,126.66200256347656,128.11700439453125)" opacity="1" style="display: block;"><g opacity="1" transform="matrix(0.7142161726951599,-0.6999251842498779,0.6999251842498779,0.7142161726951599,0,0)"><path stroke-linecap="round" stroke-linejoin="round" fill-opacity="0" class="primary" stroke="rgb(42,48,107)" stroke-opacity="1" stroke-width="3.003" d=" M7.109000205993652,-0.23100000619888306 C7.109000205993652,-0.4099999964237213 0.3070000112056732,6.934999942779541 -0.13199999928474426,6.7779998779296875 C-1.8669999837875366,6.156000137329102 -6.50600004196167,0.41499999165534973 -7.0329999923706055,-0.041999999433755875 C-7.875999927520752,-0.7730000019073486 -1.4579999446868896,-5.598999977111816 -0.34200000762939453,-6.781000137329102"/></g></g><g transform="matrix(1,0,0,1,125.76499938964844,75.79900360107422)" opacity="1" style="display: block;"><g opacity="1" transform="matrix(0.7142161726951599,-0.6999251842498779,0.6999251842498779,0.7142161726951599,0,0)"><path stroke-linecap="round" stroke-linejoin="round" fill-opacity="0" class="primary" stroke="rgb(42,48,107)" stroke-opacity="1" stroke-width="3.003" d=" M0.014999999664723873,5.8379998207092285 C0.014999999664723873,5.613999843597412 6.732999801635742,-0.25699999928474426 6.243000030517578,-0.7490000128746033 C5.5269999504089355,-1.4670000076293945 1.309999942779541,-5.999000072479248 0.2070000022649765,-5.834000110626221 C-1.1299999952316284,-5.633999824523926 -6.322000026702881,0.36899998784065247 -6.26800012588501,0.4790000021457672"/></g></g><g transform="matrix(1,0,0,1,126.34400177001953,102.35900115966797)" opacity="1" style="display: block;"><g opacity="1" transform="matrix(0.7928430438041687,0.6094258427619934,-0.6094258427619934,0.7928430438041687,0,0)"><path stroke-linecap="round" stroke-linejoin="round" fill-opacity="0" class="primary" stroke="rgb(42,48,107)" stroke-opacity="1" stroke-width="3" d=" M-15.185999870300293,-16.292999267578125 C-13.312000274658203,-18.704999923706055 -5.7769999504089355,-24.645000457763672 1.1519999504089355,-14.829999923706055 C-0.8410000205039978,-13.378999710083008 -3.7149999141693115,-10.946000099182129 -3.7980000972747803,-11.006999969482422 C-7.940999984741211,-14.031999588012695 -11.279000282287598,-8.881999969482422 -9.845000267028809,-6.817999839782715 C-8.75100040435791,-5.243000030517578 -0.06300000101327896,-4.441999912261963 6.77400016784668,-3.559999942779541 C18.45199966430664,-2.052999973297119 20.34000015258789,7.796999931335449 16.743000030517578,12.753999710083008 C6.603000164031982,26.73200035095215 -3.9660000801086426,17.4950008392334 -6.498000144958496,14.76200008392334 C-6.686999797821045,14.557999610900879 -2.256999969482422,10.111000061035156 -1.1890000104904175,8.920999526977539 C-0.47099998593330383,8.119000434875488 5.409999847412109,15.604000091552734 8.930999755859375,8.755999565124512 C12.930999755859375,0.9750000238418579 -12.821999549865723,6.0229997634887695 -17.642000198364258,-4.039999961853027 C-19.422000885009766,-7.756999969482422 -17.759000778198242,-12.979999542236328 -15.185999870300293,-16.292999267578125z"/></g></g></g></g><g transform="matrix(1,0,0,1,72.14099884033203,171.1020050048828)" opacity="1" style="display: block;"><g opacity="1" transform="matrix(1,0,0,1,0,0)"><path stroke-linecap="round" stroke-linejoin="round" fill-opacity="0" class="primary" stroke="rgb(42,48,107)" stroke-opacity="1" stroke-width="2" d=" M25.351999282836914,3.2320001125335693 C20.844999313354492,2.5439999103546143 14.506999969482422,-3.808000087738037 4.244999885559082,-3.4639999866485596 C-3.7160000801086426,-3.197999954223633 -3.7239999771118164,3.364000082015991 -10.496000289916992,3.440999984741211 C-13.751999855041504,3.4779999256134033 -19.635000228881836,3.4690001010894775 -25.829999923706055,3.436000108718872"/></g></g><g transform="matrix(1,0,0,1,160.44400024414062,83.60900115966797)" opacity="1" style="display: block;"><g opacity="1" transform="matrix(1,0,0,1,0,0)"><path stroke-linecap="round" stroke-linejoin="round" fill-opacity="0" class="primary" stroke="rgb(42,48,107)" stroke-opacity="1" stroke-width="2" d=" M-0.05000000074505806,44.36000061035156 C-0.23199999332427979,37.625 0.019999999552965164,-23.91699981689453 0.1420000046491623,-44.89400100708008"/></g></g><g transform="matrix(1,0,0,1,34.08300018310547,120.64600372314453)" opacity="1" style="display: block;"><g opacity="1" transform="matrix(1,0,0,1,0,0)"><path stroke-linecap="round" stroke-linejoin="round" fill-opacity="0" class="primary" stroke="rgb(42,48,107)" stroke-opacity="1" stroke-width="2" d=" M0.3659999966621399,19.680999755859375 C-0.3700000047683716,-5.441999912261963 -1.3519999980926514,-38.388999938964844 -1.534000039100647,-41.29600143432617"/></g></g><g transform="matrix(1,0,0,1,34.08300018310547,120.64600372314453)" opacity="1" style="display: block;"><g opacity="1" transform="matrix(1,0,0,1,0,0)"><path stroke-linecap="round" stroke-linejoin="round" fill-opacity="0" class="primary" stroke="rgb(42,48,107)" stroke-opacity="1" stroke-width="2" d=" M1.3760000467300415,40.6609992980957 C1.1670000553131104,34.138999938964844 0.9449999928474426,26.236000061035156 0.9259999990463257,25.836999893188477"/></g></g></g></g></svg>