<svg xmlns="http://www.w3.org/2000/svg" width="192" height="192" style="width:100%;height:100%;transform:translate3d(0,0,0);content-visibility:visible" viewBox="0 0 192 192"><defs><clipPath id="b"><path d="M0 0h192v192H0z"/></clipPath><clipPath id="d"><path d="M0 0h192v192H0z"/></clipPath><clipPath id="c"><path d="M0 0h192v192H0z"/></clipPath><path id="a" fill-opacity="0" stroke-linecap="round" stroke-linejoin="round" class="primary" style="display:none"/><mask id="e" mask-type="alpha"><use xmlns:ns1="http://www.w3.org/1999/xlink" ns1:href="#a"/></mask></defs><g clip-path="url(#b)"><g clip-path="url(#c)" style="display:block"><g style="display:block"><path fill="#E68E6D" d="M65.483 143.281c12.326 9.976 29.201 14.084 44.571 11.801 28.645-4.257 54.384-29.028 50.366-64.176-4.95-43.309-39.346-52.127-55.725-53.662-2.395-.224-6.732-.03-8.208-.028-55.097 5.043-73.006 72.074-31.004 106.065m28.73-121.217c1.42-.152 10.039-.367 14.135.129 21.258 2.574 61.162 14.77 67.103 66.749 5.017 43.896-27.127 74.832-62.901 80.147-19.195 2.853-40.27-2.278-55.664-14.737C5.538 112.798 28.594 29.099 94.213 22.064" class="secondary"/><path fill="none" stroke="#E68E6D" stroke-linecap="round" stroke-linejoin="round" d="M65.483 143.281c12.326 9.976 29.201 14.084 44.571 11.801 28.645-4.257 54.384-29.028 50.366-64.176-4.95-43.309-39.346-52.127-55.725-53.662-2.395-.224-6.732-.03-8.208-.028-55.097 5.043-73.006 72.074-31.004 106.065m28.73-121.217c1.42-.152 10.039-.367 14.135.129 21.258 2.574 61.162 14.77 67.103 66.749 5.017 43.896-27.127 74.832-62.901 80.147-19.195 2.853-40.27-2.278-55.664-14.737C5.538 112.798 28.594 29.099 94.213 22.064" class="secondary"/></g><path fill="none" stroke="#2A2F6B" stroke-linecap="round" stroke-linejoin="round" stroke-width="2.998" d="M-8.187-73.807c1.42-.152 10.039-.367 14.135.129 21.258 2.574 61.162 14.77 67.103 66.749 5.017 43.896-27.127 74.832-62.901 80.147-19.195 2.853-40.27-2.278-55.664-14.737C-96.862 16.927-73.806-66.772-8.187-73.807" class="primary" style="display:block" transform="translate(97.389 95.696)"/><path fill="none" stroke="#2A2F6B" stroke-linecap="round" stroke-linejoin="round" stroke-width="2" d="m-5.58-59.153.496-.047c1.476-.002 5.813-.197 8.207.028 16.38 1.534 50.776 10.353 55.726 53.662 4.017 35.148-21.721 59.919-50.366 64.175-15.37 2.284-32.245-1.824-44.571-11.8q0 0 0 0C-77.965 12.976-60.288-53.755-5.58-59.153" class="primary" style="display:block" transform="translate(96.56 96.241)"/><path fill="none" stroke="#2A2F6B" stroke-linecap="round" stroke-linejoin="round" stroke-width="2" d="M.057 4.913C.032 1.974.019-2.107-.057-4.913" class="primary" style="display:block" transform="translate(96.299 42.377)"/><path fill="none" stroke="#2A2F6B" stroke-linecap="round" stroke-linejoin="round" stroke-width="2" d="M5.232.021C3.013.081-3.839-.071-5.232-.028" class="primary" style="display:block" transform="translate(150.047 96.149)"/><path fill="none" stroke="#2A2F6B" stroke-linecap="round" stroke-linejoin="round" stroke-width="2" d="M.013 4.794c0-1.623-.016-6.355-.026-9.588" class="primary" style="display:block" transform="matrix(1 0 0 -1 96.605 149.587)"/><path fill="none" stroke="#2A2F6B" stroke-linecap="round" stroke-linejoin="round" stroke-width="2" d="m4.221.001-8.442-.002" class="primary" style="display:block" transform="translate(41.978 96.055)"/><path fill="none" stroke="#2A2F6B" stroke-linecap="round" stroke-linejoin="round" stroke-width="2.998" d="M11.185-11.008C3.738-3.883-4.243 5.254-11.185 11.008" class="primary" style="display:block" transform="scale(-1 1)rotate(-6.297 731.262 826.51)"/><path fill="none" stroke="#2A2F6B" stroke-linecap="round" stroke-linejoin="round" stroke-width="2.998" d="M8.699-6.436C4.335-3.159-4.628 3.366-8.699 6.436" class="primary" style="display:block" transform="scale(-1 1)rotate(67.791 -121.118 -32.788)"/><path fill="none" stroke="#2A2F6B" stroke-linecap="round" stroke-linejoin="round" stroke-width="2.001" d="M-12.514-49.169C.745-38.013 24.936 1.359 4.824 49.169" class="primary" style="display:block" transform="translate(170.924 83.761)"/><path fill="none" stroke="#2A2F6B" stroke-linecap="round" stroke-linejoin="round" stroke-width="2.001" d="M31.484 22.365C17.065 20.179 3.072 14.398-8.281 5.209-18.299-2.897-25.986-12.29-31.484-22.365" class="primary" style="display:block" transform="translate(52.093 159.532)"/><path fill="none" stroke="#2A2F6B" stroke-linecap="round" stroke-linejoin="round" stroke-width="2" d="M-27.21 27.81c5.611-20.279 25.603-46.509 54.42-55.62" class="primary" style="display:block" transform="translate(40.292 40.661)"/></g><g clip-path="url(#d)" style="display:none"><g mask="url(#e)" style="display:none"><path class="secondary"/><path fill="none" class="secondary"/></g><path fill="none" class="primary" style="display:none"/><path fill="none" class="primary" style="display:none"/><path fill="none" class="primary" style="display:none"/><path fill="none" class="primary" style="display:none"/><path fill="none" class="primary" style="display:none"/><path fill="none" class="primary" style="display:none"/><path fill="none" class="primary" style="display:none"/><path fill="none" class="primary" style="display:none"/><path fill="none" class="primary" style="display:none"/><path fill="none" class="primary" style="display:none"/><path fill="none" class="primary" style="display:none"/></g></g></svg>