<svg xmlns="http://www.w3.org/2000/svg" xmlns:xlink="http://www.w3.org/1999/xlink" viewBox="0 0 192 192" width="192" height="192" preserveAspectRatio="xMidYMid meet" style="width: 100%; height: 100%; transform: translate3d(0px, 0px, 0px); content-visibility: visible;"><defs><clipPath id="__lottie_element_3464"><rect width="192" height="192" x="0" y="0"/></clipPath><clipPath id="__lottie_element_3466"><path d="M0,0 L192,0 L192,192 L0,192z"/></clipPath><g id="__lottie_element_3477"><g transform="matrix(1.0999943017959595,0,0,1.0999943017959595,77.99996185302734,175.0004425048828)" opacity="1" style="display: block;"><g opacity="0" transform="matrix(1,0,0,1,0,0)"><path fill="rgb(67,67,67)" fill-opacity="1" d=" M-58.43000030517578,-44.48899841308594 C-57.97200012207031,-43.47700119018555 -56.78200149536133,-43.060001373291016 -55.77000045776367,-43.55699920654297 C-54.757999420166016,-44.05400085449219 -54.310001373291016,-45.27799987792969 -54.768001556396484,-46.290000915527344 C-54.742000579833984,-46.334999084472656 -54.77299880981445,-46.30500030517578 -54.77299880981445,-46.30500030517578 C-54.77299880981445,-46.30500030517578 -54.775001525878906,-46.29600143432617 -54.77899932861328,-46.30400085449219 C-55.244998931884766,-47.29899978637695 -56.44200134277344,-47.70199966430664 -57.45500183105469,-47.20399856567383 C-58.46799850463867,-46.707000732421875 -58.9119987487793,-45.49599838256836 -58.44599914550781,-44.50199890136719 C-58.439998626708984,-44.51499938964844 -58.448001861572266,-44.516998291015625 -58.448001861572266,-44.516998291015625 C-58.448001861572266,-44.516998291015625 -58.44499969482422,-44.520999908447266 -58.43000030517578,-44.48899841308594z"/></g><g opacity="0" transform="matrix(0.9975640773773193,-0.06975647062063217,-0.06975647062063217,-0.9975640773773193,10.67947006225586,-4.087581634521484)"><path fill="rgb(67,67,67)" fill-opacity="1" d=" M-58.43000030517578,-44.48899841308594 C-57.97200012207031,-43.47700119018555 -56.78200149536133,-43.060001373291016 -55.77000045776367,-43.55699920654297 C-54.757999420166016,-44.05400085449219 -54.310001373291016,-45.27799987792969 -54.768001556396484,-46.290000915527344 C-54.742000579833984,-46.334999084472656 -54.77299880981445,-46.30500030517578 -54.77299880981445,-46.30500030517578 C-54.77299880981445,-46.30500030517578 -54.775001525878906,-46.29600143432617 -54.77899932861328,-46.30400085449219 C-55.244998931884766,-47.29899978637695 -56.44200134277344,-47.70199966430664 -57.45500183105469,-47.20399856567383 C-58.46799850463867,-46.707000732421875 -58.9119987487793,-45.49599838256836 -58.44599914550781,-44.50199890136719 C-58.439998626708984,-44.51499938964844 -58.448001861572266,-44.516998291015625 -58.448001861572266,-44.516998291015625 C-58.448001861572266,-44.516998291015625 -58.44499969482422,-44.520999908447266 -58.43000030517578,-44.48899841308594z"/></g><g opacity="0" transform="matrix(1,0,0,1,22,0)"><path fill="rgb(67,67,67)" fill-opacity="1" d=" M-58.43000030517578,-44.48899841308594 C-57.97200012207031,-43.47700119018555 -56.78200149536133,-43.060001373291016 -55.77000045776367,-43.55699920654297 C-54.757999420166016,-44.05400085449219 -54.310001373291016,-45.27799987792969 -54.768001556396484,-46.290000915527344 C-54.742000579833984,-46.334999084472656 -54.77299880981445,-46.30500030517578 -54.77299880981445,-46.30500030517578 C-54.77299880981445,-46.30500030517578 -54.775001525878906,-46.29600143432617 -54.77899932861328,-46.30400085449219 C-55.244998931884766,-47.29899978637695 -56.44200134277344,-47.70199966430664 -57.45500183105469,-47.20399856567383 C-58.46799850463867,-46.707000732421875 -58.9119987487793,-45.49599838256836 -58.44599914550781,-44.50199890136719 C-58.439998626708984,-44.51499938964844 -58.448001861572266,-44.516998291015625 -58.448001861572266,-44.516998291015625 C-58.448001861572266,-44.516998291015625 -58.44499969482422,-44.520999908447266 -58.43000030517578,-44.48899841308594z"/></g><g opacity="0" transform="matrix(0.9975640773773193,-0.06975647062063217,-0.06975647062063217,-0.9975640773773193,32.679473876953125,-4.087581634521484)"><path fill="rgb(67,67,67)" fill-opacity="1" d=" M-58.43000030517578,-44.48899841308594 C-57.97200012207031,-43.47700119018555 -56.78200149536133,-43.060001373291016 -55.77000045776367,-43.55699920654297 C-54.757999420166016,-44.05400085449219 -54.310001373291016,-45.27799987792969 -54.768001556396484,-46.290000915527344 C-54.742000579833984,-46.334999084472656 -54.77299880981445,-46.30500030517578 -54.77299880981445,-46.30500030517578 C-54.77299880981445,-46.30500030517578 -54.775001525878906,-46.29600143432617 -54.77899932861328,-46.30400085449219 C-55.244998931884766,-47.29899978637695 -56.44200134277344,-47.70199966430664 -57.45500183105469,-47.20399856567383 C-58.46799850463867,-46.707000732421875 -58.9119987487793,-45.49599838256836 -58.44599914550781,-44.50199890136719 C-58.439998626708984,-44.51499938964844 -58.448001861572266,-44.516998291015625 -58.448001861572266,-44.516998291015625 C-58.448001861572266,-44.516998291015625 -58.44499969482422,-44.520999908447266 -58.43000030517578,-44.48899841308594z"/></g><g opacity="0" transform="matrix(1,0,0,1,44,0)"><path fill="rgb(67,67,67)" fill-opacity="1" d=" M-58.43000030517578,-44.48899841308594 C-57.97200012207031,-43.47700119018555 -56.78200149536133,-43.060001373291016 -55.77000045776367,-43.55699920654297 C-54.757999420166016,-44.05400085449219 -54.310001373291016,-45.27799987792969 -54.768001556396484,-46.290000915527344 C-54.742000579833984,-46.334999084472656 -54.77299880981445,-46.30500030517578 -54.77299880981445,-46.30500030517578 C-54.77299880981445,-46.30500030517578 -54.775001525878906,-46.29600143432617 -54.77899932861328,-46.30400085449219 C-55.244998931884766,-47.29899978637695 -56.44200134277344,-47.70199966430664 -57.45500183105469,-47.20399856567383 C-58.46799850463867,-46.707000732421875 -58.9119987487793,-45.49599838256836 -58.44599914550781,-44.50199890136719 C-58.439998626708984,-44.51499938964844 -58.448001861572266,-44.516998291015625 -58.448001861572266,-44.516998291015625 C-58.448001861572266,-44.516998291015625 -58.44499969482422,-44.520999908447266 -58.43000030517578,-44.48899841308594z"/></g><g opacity="0" transform="matrix(0.9975640773773193,-0.06975647062063217,-0.06975647062063217,-0.9975640773773193,54.67947006225586,-4.087581634521484)"><path fill="rgb(67,67,67)" fill-opacity="1" d=" M-58.43000030517578,-44.48899841308594 C-57.97200012207031,-43.47700119018555 -56.78200149536133,-43.060001373291016 -55.77000045776367,-43.55699920654297 C-54.757999420166016,-44.05400085449219 -54.310001373291016,-45.27799987792969 -54.768001556396484,-46.290000915527344 C-54.742000579833984,-46.334999084472656 -54.77299880981445,-46.30500030517578 -54.77299880981445,-46.30500030517578 C-54.77299880981445,-46.30500030517578 -54.775001525878906,-46.29600143432617 -54.77899932861328,-46.30400085449219 C-55.244998931884766,-47.29899978637695 -56.44200134277344,-47.70199966430664 -57.45500183105469,-47.20399856567383 C-58.46799850463867,-46.707000732421875 -58.9119987487793,-45.49599838256836 -58.44599914550781,-44.50199890136719 C-58.439998626708984,-44.51499938964844 -58.448001861572266,-44.516998291015625 -58.448001861572266,-44.516998291015625 C-58.448001861572266,-44.516998291015625 -58.44499969482422,-44.520999908447266 -58.43000030517578,-44.48899841308594z"/></g><g opacity="0" transform="matrix(1,0,0,1,66,0)"><path fill="rgb(67,67,67)" fill-opacity="1" d=" M-58.43000030517578,-44.48899841308594 C-57.97200012207031,-43.47700119018555 -56.78200149536133,-43.060001373291016 -55.77000045776367,-43.55699920654297 C-54.757999420166016,-44.05400085449219 -54.310001373291016,-45.27799987792969 -54.768001556396484,-46.290000915527344 C-54.742000579833984,-46.334999084472656 -54.77299880981445,-46.30500030517578 -54.77299880981445,-46.30500030517578 C-54.77299880981445,-46.30500030517578 -54.775001525878906,-46.29600143432617 -54.77899932861328,-46.30400085449219 C-55.244998931884766,-47.29899978637695 -56.44200134277344,-47.70199966430664 -57.45500183105469,-47.20399856567383 C-58.46799850463867,-46.707000732421875 -58.9119987487793,-45.49599838256836 -58.44599914550781,-44.50199890136719 C-58.439998626708984,-44.51499938964844 -58.448001861572266,-44.516998291015625 -58.448001861572266,-44.516998291015625 C-58.448001861572266,-44.516998291015625 -58.44499969482422,-44.520999908447266 -58.43000030517578,-44.48899841308594z"/></g><g opacity="0" transform="matrix(0.9975640773773193,-0.06975647062063217,-0.06975647062063217,-0.9975640773773193,76.67947387695312,-4.087581634521484)"><path fill="rgb(67,67,67)" fill-opacity="1" d=" M-58.43000030517578,-44.48899841308594 C-57.97200012207031,-43.47700119018555 -56.78200149536133,-43.060001373291016 -55.77000045776367,-43.55699920654297 C-54.757999420166016,-44.05400085449219 -54.310001373291016,-45.27799987792969 -54.768001556396484,-46.290000915527344 C-54.742000579833984,-46.334999084472656 -54.77299880981445,-46.30500030517578 -54.77299880981445,-46.30500030517578 C-54.77299880981445,-46.30500030517578 -54.775001525878906,-46.29600143432617 -54.77899932861328,-46.30400085449219 C-55.244998931884766,-47.29899978637695 -56.44200134277344,-47.70199966430664 -57.45500183105469,-47.20399856567383 C-58.46799850463867,-46.707000732421875 -58.9119987487793,-45.49599838256836 -58.44599914550781,-44.50199890136719 C-58.439998626708984,-44.51499938964844 -58.448001861572266,-44.516998291015625 -58.448001861572266,-44.516998291015625 C-58.448001861572266,-44.516998291015625 -58.44499969482422,-44.520999908447266 -58.43000030517578,-44.48899841308594z"/></g><g opacity="0" transform="matrix(1,0,0,1,87,0)"><path fill="rgb(67,67,67)" fill-opacity="1" d=" M-58.43000030517578,-44.48899841308594 C-57.97200012207031,-43.47700119018555 -56.78200149536133,-43.060001373291016 -55.77000045776367,-43.55699920654297 C-54.757999420166016,-44.05400085449219 -54.310001373291016,-45.27799987792969 -54.768001556396484,-46.290000915527344 C-54.742000579833984,-46.334999084472656 -54.77299880981445,-46.30500030517578 -54.77299880981445,-46.30500030517578 C-54.77299880981445,-46.30500030517578 -54.775001525878906,-46.29600143432617 -54.77899932861328,-46.30400085449219 C-55.244998931884766,-47.29899978637695 -56.44200134277344,-47.70199966430664 -57.45500183105469,-47.20399856567383 C-58.46799850463867,-46.707000732421875 -58.9119987487793,-45.49599838256836 -58.44599914550781,-44.50199890136719 C-58.439998626708984,-44.51499938964844 -58.448001861572266,-44.516998291015625 -58.448001861572266,-44.516998291015625 C-58.448001861572266,-44.516998291015625 -58.44499969482422,-44.520999908447266 -58.43000030517578,-44.48899841308594z"/></g><g opacity="0" transform="matrix(0.9975640773773193,-0.06975647062063217,-0.06975647062063217,-0.9975640773773193,97.67947387695312,-4.087581634521484)"><path fill="rgb(67,67,67)" fill-opacity="1" d=" M-58.43000030517578,-44.48899841308594 C-57.97200012207031,-43.47700119018555 -56.78200149536133,-43.060001373291016 -55.77000045776367,-43.55699920654297 C-54.757999420166016,-44.05400085449219 -54.310001373291016,-45.27799987792969 -54.768001556396484,-46.290000915527344 C-54.742000579833984,-46.334999084472656 -54.77299880981445,-46.30500030517578 -54.77299880981445,-46.30500030517578 C-54.77299880981445,-46.30500030517578 -54.775001525878906,-46.29600143432617 -54.77899932861328,-46.30400085449219 C-55.244998931884766,-47.29899978637695 -56.44200134277344,-47.70199966430664 -57.45500183105469,-47.20399856567383 C-58.46799850463867,-46.707000732421875 -58.9119987487793,-45.49599838256836 -58.44599914550781,-44.50199890136719 C-58.439998626708984,-44.51499938964844 -58.448001861572266,-44.516998291015625 -58.448001861572266,-44.516998291015625 C-58.448001861572266,-44.516998291015625 -58.44499969482422,-44.520999908447266 -58.43000030517578,-44.48899841308594z"/></g></g></g><clipPath id="__lottie_element_3484"><path d="M0,0 L192,0 L192,192 L0,192z"/></clipPath><g id="__lottie_element_3487"><g transform="matrix(0.9999948143959045,0,0,0.9999948143959045,76.46296691894531,154.99855041503906)" opacity="1" style="display: block;"><path fill="rgb(255,0,0)" fill-opacity="1" d=" M-59.2599983215332,-8.230999946594238 C-59.25299835205078,-8.501999855041504 59.2760009765625,-8 59.28900146484375,-8.116000175476074 C59.185001373291016,-3.986999988555908 59.34700012207031,5.357999801635742 59.005001068115234,7.428999900817871 C58.72700119018555,9.109000205993652 -59.09600067138672,7.921000003814697 -59.09400177001953,7.681000232696533 C-59.0890007019043,7.27400016784668 -59.380001068115234,-3.6050000190734863 -59.2599983215332,-8.230999946594238z"/><g opacity="1" transform="matrix(1,0,0,1,0,0)"><path stroke-linecap="round" stroke-linejoin="round" fill-opacity="0" stroke="rgb(42,48,107)" stroke-opacity="1" stroke-width="3" d=" M-59.2599983215332,-8.230999946594238 C-59.25299835205078,-8.501999855041504 59.2760009765625,-8 59.28900146484375,-8.116000175476074 C59.185001373291016,-3.986999988555908 59.34700012207031,5.357999801635742 59.005001068115234,7.428999900817871 C58.72700119018555,9.109000205993652 -59.09600067138672,7.921000003814697 -59.09400177001953,7.681000232696533 C-59.0890007019043,7.27400016784668 -59.380001068115234,-3.6050000190734863 -59.2599983215332,-8.230999946594238z"/></g></g></g><filter id="__lottie_element_3490" filterUnits="objectBoundingBox" x="0%" y="0%" width="100%" height="100%"><feComponentTransfer in="SourceGraphic"><feFuncA type="table" tableValues="1.0 0.0"/></feComponentTransfer></filter><mask id="__lottie_element_3487_2" mask-type="alpha" maskUnits="userSpaceOnUse"><g filter="url(#__lottie_element_3490)"><rect width="192" height="192" x="0" y="0" fill="#ffffff" opacity="0"/><use xmlns:ns1="http://www.w3.org/1999/xlink" ns1:href="#__lottie_element_3487"/></g></mask><filter id="__lottie_element_3491" filterUnits="objectBoundingBox" x="0%" y="0%" width="100%" height="100%"><feComponentTransfer in="SourceGraphic"><feFuncA type="table" tableValues="1.0 0.0"/></feComponentTransfer></filter><mask id="__lottie_element_3477_2" mask-type="alpha" maskUnits="userSpaceOnUse"><g filter="url(#__lottie_element_3491)"><rect width="192" height="192" x="0" y="0" fill="#ffffff" opacity="0"/><use xmlns:ns2="http://www.w3.org/1999/xlink" ns2:href="#__lottie_element_3477"/></g></mask><g id="__lottie_element_3498"><g transform="matrix(1.100000023841858,0,0,1.100000023841858,76,136)" opacity="1" style="display: block;"><g opacity="0" transform="matrix(1,0,0,1,0,0)"><path fill="rgb(67,67,67)" fill-opacity="1" d=" M-58.43000030517578,-44.48899841308594 C-57.97200012207031,-43.47700119018555 -56.78200149536133,-43.060001373291016 -55.77000045776367,-43.55699920654297 C-54.757999420166016,-44.05400085449219 -54.310001373291016,-45.27799987792969 -54.768001556396484,-46.290000915527344 C-54.742000579833984,-46.334999084472656 -54.77299880981445,-46.30500030517578 -54.77299880981445,-46.30500030517578 C-54.77299880981445,-46.30500030517578 -54.775001525878906,-46.29600143432617 -54.77899932861328,-46.30400085449219 C-55.244998931884766,-47.29899978637695 -56.44200134277344,-47.70199966430664 -57.45500183105469,-47.20399856567383 C-58.46799850463867,-46.707000732421875 -58.9119987487793,-45.49599838256836 -58.44599914550781,-44.50199890136719 C-58.439998626708984,-44.51499938964844 -58.448001861572266,-44.516998291015625 -58.448001861572266,-44.516998291015625 C-58.448001861572266,-44.516998291015625 -58.44499969482422,-44.520999908447266 -58.43000030517578,-44.48899841308594z"/></g><g opacity="0" transform="matrix(0.9975640773773193,-0.06975647062063217,-0.06975647062063217,-0.9975640773773193,10.67947006225586,-4.087581634521484)"><path fill="rgb(67,67,67)" fill-opacity="1" d=" M-58.43000030517578,-44.48899841308594 C-57.97200012207031,-43.47700119018555 -56.78200149536133,-43.060001373291016 -55.77000045776367,-43.55699920654297 C-54.757999420166016,-44.05400085449219 -54.310001373291016,-45.27799987792969 -54.768001556396484,-46.290000915527344 C-54.742000579833984,-46.334999084472656 -54.77299880981445,-46.30500030517578 -54.77299880981445,-46.30500030517578 C-54.77299880981445,-46.30500030517578 -54.775001525878906,-46.29600143432617 -54.77899932861328,-46.30400085449219 C-55.244998931884766,-47.29899978637695 -56.44200134277344,-47.70199966430664 -57.45500183105469,-47.20399856567383 C-58.46799850463867,-46.707000732421875 -58.9119987487793,-45.49599838256836 -58.44599914550781,-44.50199890136719 C-58.439998626708984,-44.51499938964844 -58.448001861572266,-44.516998291015625 -58.448001861572266,-44.516998291015625 C-58.448001861572266,-44.516998291015625 -58.44499969482422,-44.520999908447266 -58.43000030517578,-44.48899841308594z"/></g><g opacity="0" transform="matrix(1,0,0,1,22,0)"><path fill="rgb(67,67,67)" fill-opacity="1" d=" M-58.43000030517578,-44.48899841308594 C-57.97200012207031,-43.47700119018555 -56.78200149536133,-43.060001373291016 -55.77000045776367,-43.55699920654297 C-54.757999420166016,-44.05400085449219 -54.310001373291016,-45.27799987792969 -54.768001556396484,-46.290000915527344 C-54.742000579833984,-46.334999084472656 -54.77299880981445,-46.30500030517578 -54.77299880981445,-46.30500030517578 C-54.77299880981445,-46.30500030517578 -54.775001525878906,-46.29600143432617 -54.77899932861328,-46.30400085449219 C-55.244998931884766,-47.29899978637695 -56.44200134277344,-47.70199966430664 -57.45500183105469,-47.20399856567383 C-58.46799850463867,-46.707000732421875 -58.9119987487793,-45.49599838256836 -58.44599914550781,-44.50199890136719 C-58.439998626708984,-44.51499938964844 -58.448001861572266,-44.516998291015625 -58.448001861572266,-44.516998291015625 C-58.448001861572266,-44.516998291015625 -58.44499969482422,-44.520999908447266 -58.43000030517578,-44.48899841308594z"/></g><g opacity="0" transform="matrix(0.9975640773773193,-0.06975647062063217,-0.06975647062063217,-0.9975640773773193,32.679473876953125,-4.087581634521484)"><path fill="rgb(67,67,67)" fill-opacity="1" d=" M-58.43000030517578,-44.48899841308594 C-57.97200012207031,-43.47700119018555 -56.78200149536133,-43.060001373291016 -55.77000045776367,-43.55699920654297 C-54.757999420166016,-44.05400085449219 -54.310001373291016,-45.27799987792969 -54.768001556396484,-46.290000915527344 C-54.742000579833984,-46.334999084472656 -54.77299880981445,-46.30500030517578 -54.77299880981445,-46.30500030517578 C-54.77299880981445,-46.30500030517578 -54.775001525878906,-46.29600143432617 -54.77899932861328,-46.30400085449219 C-55.244998931884766,-47.29899978637695 -56.44200134277344,-47.70199966430664 -57.45500183105469,-47.20399856567383 C-58.46799850463867,-46.707000732421875 -58.9119987487793,-45.49599838256836 -58.44599914550781,-44.50199890136719 C-58.439998626708984,-44.51499938964844 -58.448001861572266,-44.516998291015625 -58.448001861572266,-44.516998291015625 C-58.448001861572266,-44.516998291015625 -58.44499969482422,-44.520999908447266 -58.43000030517578,-44.48899841308594z"/></g><g opacity="0" transform="matrix(1,0,0,1,44,0)"><path fill="rgb(67,67,67)" fill-opacity="1" d=" M-58.43000030517578,-44.48899841308594 C-57.97200012207031,-43.47700119018555 -56.78200149536133,-43.060001373291016 -55.77000045776367,-43.55699920654297 C-54.757999420166016,-44.05400085449219 -54.310001373291016,-45.27799987792969 -54.768001556396484,-46.290000915527344 C-54.742000579833984,-46.334999084472656 -54.77299880981445,-46.30500030517578 -54.77299880981445,-46.30500030517578 C-54.77299880981445,-46.30500030517578 -54.775001525878906,-46.29600143432617 -54.77899932861328,-46.30400085449219 C-55.244998931884766,-47.29899978637695 -56.44200134277344,-47.70199966430664 -57.45500183105469,-47.20399856567383 C-58.46799850463867,-46.707000732421875 -58.9119987487793,-45.49599838256836 -58.44599914550781,-44.50199890136719 C-58.439998626708984,-44.51499938964844 -58.448001861572266,-44.516998291015625 -58.448001861572266,-44.516998291015625 C-58.448001861572266,-44.516998291015625 -58.44499969482422,-44.520999908447266 -58.43000030517578,-44.48899841308594z"/></g><g opacity="0" transform="matrix(0.9975640773773193,-0.06975647062063217,-0.06975647062063217,-0.9975640773773193,54.67947006225586,-4.087581634521484)"><path fill="rgb(67,67,67)" fill-opacity="1" d=" M-58.43000030517578,-44.48899841308594 C-57.97200012207031,-43.47700119018555 -56.78200149536133,-43.060001373291016 -55.77000045776367,-43.55699920654297 C-54.757999420166016,-44.05400085449219 -54.310001373291016,-45.27799987792969 -54.768001556396484,-46.290000915527344 C-54.742000579833984,-46.334999084472656 -54.77299880981445,-46.30500030517578 -54.77299880981445,-46.30500030517578 C-54.77299880981445,-46.30500030517578 -54.775001525878906,-46.29600143432617 -54.77899932861328,-46.30400085449219 C-55.244998931884766,-47.29899978637695 -56.44200134277344,-47.70199966430664 -57.45500183105469,-47.20399856567383 C-58.46799850463867,-46.707000732421875 -58.9119987487793,-45.49599838256836 -58.44599914550781,-44.50199890136719 C-58.439998626708984,-44.51499938964844 -58.448001861572266,-44.516998291015625 -58.448001861572266,-44.516998291015625 C-58.448001861572266,-44.516998291015625 -58.44499969482422,-44.520999908447266 -58.43000030517578,-44.48899841308594z"/></g><g opacity="0" transform="matrix(1,0,0,1,66,0)"><path fill="rgb(67,67,67)" fill-opacity="1" d=" M-58.43000030517578,-44.48899841308594 C-57.97200012207031,-43.47700119018555 -56.78200149536133,-43.060001373291016 -55.77000045776367,-43.55699920654297 C-54.757999420166016,-44.05400085449219 -54.310001373291016,-45.27799987792969 -54.768001556396484,-46.290000915527344 C-54.742000579833984,-46.334999084472656 -54.77299880981445,-46.30500030517578 -54.77299880981445,-46.30500030517578 C-54.77299880981445,-46.30500030517578 -54.775001525878906,-46.29600143432617 -54.77899932861328,-46.30400085449219 C-55.244998931884766,-47.29899978637695 -56.44200134277344,-47.70199966430664 -57.45500183105469,-47.20399856567383 C-58.46799850463867,-46.707000732421875 -58.9119987487793,-45.49599838256836 -58.44599914550781,-44.50199890136719 C-58.439998626708984,-44.51499938964844 -58.448001861572266,-44.516998291015625 -58.448001861572266,-44.516998291015625 C-58.448001861572266,-44.516998291015625 -58.44499969482422,-44.520999908447266 -58.43000030517578,-44.48899841308594z"/></g><g opacity="0" transform="matrix(0.9975640773773193,-0.06975647062063217,-0.06975647062063217,-0.9975640773773193,76.67947387695312,-4.087581634521484)"><path fill="rgb(67,67,67)" fill-opacity="1" d=" M-58.43000030517578,-44.48899841308594 C-57.97200012207031,-43.47700119018555 -56.78200149536133,-43.060001373291016 -55.77000045776367,-43.55699920654297 C-54.757999420166016,-44.05400085449219 -54.310001373291016,-45.27799987792969 -54.768001556396484,-46.290000915527344 C-54.742000579833984,-46.334999084472656 -54.77299880981445,-46.30500030517578 -54.77299880981445,-46.30500030517578 C-54.77299880981445,-46.30500030517578 -54.775001525878906,-46.29600143432617 -54.77899932861328,-46.30400085449219 C-55.244998931884766,-47.29899978637695 -56.44200134277344,-47.70199966430664 -57.45500183105469,-47.20399856567383 C-58.46799850463867,-46.707000732421875 -58.9119987487793,-45.49599838256836 -58.44599914550781,-44.50199890136719 C-58.439998626708984,-44.51499938964844 -58.448001861572266,-44.516998291015625 -58.448001861572266,-44.516998291015625 C-58.448001861572266,-44.516998291015625 -58.44499969482422,-44.520999908447266 -58.43000030517578,-44.48899841308594z"/></g><g opacity="0" transform="matrix(1,0,0,1,87,0)"><path fill="rgb(67,67,67)" fill-opacity="1" d=" M-58.43000030517578,-44.48899841308594 C-57.97200012207031,-43.47700119018555 -56.78200149536133,-43.060001373291016 -55.77000045776367,-43.55699920654297 C-54.757999420166016,-44.05400085449219 -54.310001373291016,-45.27799987792969 -54.768001556396484,-46.290000915527344 C-54.742000579833984,-46.334999084472656 -54.77299880981445,-46.30500030517578 -54.77299880981445,-46.30500030517578 C-54.77299880981445,-46.30500030517578 -54.775001525878906,-46.29600143432617 -54.77899932861328,-46.30400085449219 C-55.244998931884766,-47.29899978637695 -56.44200134277344,-47.70199966430664 -57.45500183105469,-47.20399856567383 C-58.46799850463867,-46.707000732421875 -58.9119987487793,-45.49599838256836 -58.44599914550781,-44.50199890136719 C-58.439998626708984,-44.51499938964844 -58.448001861572266,-44.516998291015625 -58.448001861572266,-44.516998291015625 C-58.448001861572266,-44.516998291015625 -58.44499969482422,-44.520999908447266 -58.43000030517578,-44.48899841308594z"/></g><g opacity="0" transform="matrix(0.9975640773773193,-0.06975647062063217,-0.06975647062063217,-0.9975640773773193,97.67947387695312,-4.087581634521484)"><path fill="rgb(67,67,67)" fill-opacity="1" d=" M-58.43000030517578,-44.48899841308594 C-57.97200012207031,-43.47700119018555 -56.78200149536133,-43.060001373291016 -55.77000045776367,-43.55699920654297 C-54.757999420166016,-44.05400085449219 -54.310001373291016,-45.27799987792969 -54.768001556396484,-46.290000915527344 C-54.742000579833984,-46.334999084472656 -54.77299880981445,-46.30500030517578 -54.77299880981445,-46.30500030517578 C-54.77299880981445,-46.30500030517578 -54.775001525878906,-46.29600143432617 -54.77899932861328,-46.30400085449219 C-55.244998931884766,-47.29899978637695 -56.44200134277344,-47.70199966430664 -57.45500183105469,-47.20399856567383 C-58.46799850463867,-46.707000732421875 -58.9119987487793,-45.49599838256836 -58.44599914550781,-44.50199890136719 C-58.439998626708984,-44.51499938964844 -58.448001861572266,-44.516998291015625 -58.448001861572266,-44.516998291015625 C-58.448001861572266,-44.516998291015625 -58.44499969482422,-44.520999908447266 -58.43000030517578,-44.48899841308594z"/></g></g></g><mask id="__lottie_element_3498_1" mask-type="alpha"><use xmlns:ns3="http://www.w3.org/1999/xlink" ns3:href="#__lottie_element_3498"/></mask></defs><g clip-path="url(#__lottie_element_3464)"><g clip-path="url(#__lottie_element_3466)" transform="matrix(1,0,0,1,0,0)" opacity="1" style="display: block;"><g mask="url(#__lottie_element_3477_2)" style="display: block;"><g transform="matrix(0.9999948143959045,0,0,0.9999948143959045,81.13194274902344,158.88153076171875)" opacity="1"><g opacity="1" transform="matrix(1,0,0,1,0,0)"><path class="secondary" fill="rgb(230,142,110)" fill-opacity="1" d=" M-59.2599983215332,-9.121000289916992 C-59.25299835205078,-9.420999526977539 59.2760009765625,-8.86400032043457 59.28900146484375,-8.993000030517578 C59.185001373291016,-4.416999816894531 59.34700012207031,5.936999797821045 59.005001068115234,8.232000350952148 C58.72700119018555,10.093999862670898 -59.09600067138672,8.777000427246094 -59.09400177001953,8.51099967956543 C-59.0890007019043,8.0600004196167 -59.380001068115234,-3.994999885559082 -59.2599983215332,-9.121000289916992z"/><path stroke-linecap="round" stroke-linejoin="round" fill-opacity="0" class="secondary" stroke="rgb(230,142,110)" stroke-opacity="1" stroke-width="1" d=" M-59.2599983215332,-9.121000289916992 C-59.25299835205078,-9.420999526977539 59.2760009765625,-8.86400032043457 59.28900146484375,-8.993000030517578 C59.185001373291016,-4.416999816894531 59.34700012207031,5.936999797821045 59.005001068115234,8.232000350952148 C58.72700119018555,10.093999862670898 -59.09600067138672,8.777000427246094 -59.09400177001953,8.51099967956543 C-59.0890007019043,8.0600004196167 -59.380001068115234,-3.994999885559082 -59.2599983215332,-9.121000289916992z"/></g></g></g><g transform="matrix(0.9999948143959045,0,0,0.9999948143959045,76.46296691894531,154.99855041503906)" opacity="1" style="display: block;"><g opacity="1" transform="matrix(1,0,0,1,0,0)"><path stroke-linecap="round" stroke-linejoin="round" fill-opacity="0" class="primary" stroke="rgb(42,48,107)" stroke-opacity="1" stroke-width="3" d=" M-59.2599983215332,-8.230999946594238 C-59.25299835205078,-8.501999855041504 59.2760009765625,-8 59.28900146484375,-8.116000175476074 C59.185001373291016,-3.986999988555908 59.34700012207031,5.357999801635742 59.005001068115234,7.428999900817871 C58.72700119018555,9.109000205993652 -59.09600067138672,7.921000003814697 -59.09400177001953,7.681000232696533 C-59.0890007019043,7.27400016784668 -59.380001068115234,-3.6050000190734863 -59.2599983215332,-8.230999946594238z"/></g></g><g transform="matrix(0.9999948143959045,0,0,0.9999948143959045,76.37947082519531,153.8746795654297)" opacity="1" style="display: block;"><g opacity="1" transform="matrix(1,0,0,1,0,0)"><path stroke-linecap="round" stroke-linejoin="round" fill-opacity="0" class="primary" stroke="rgb(42,48,107)" stroke-opacity="1" stroke-width="2" d=" M58.11600112915039,0.18199999630451202 C47.834999084472656,-0.032999999821186066 -50.20199966430664,0.0860000029206276 -58.11600112915039,-0.18199999630451202"/></g></g><g mask="url(#__lottie_element_3487_2)" style="display: block;"><g clip-path="url(#__lottie_element_3484)" transform="matrix(1,0,0,1,0,0)" opacity="1"><g mask="url(#__lottie_element_3498_1)" style="display: block;"><g transform="matrix(1,0,0,1,81.13200378417969,158.88099670410156)" opacity="1"><g opacity="1" transform="matrix(1,0,0,1,0,0)"><path class="secondary" fill="rgb(230,142,110)" fill-opacity="1" d=" M-59.3390007019043,-43.62099838256836 C-59.332000732421875,-43.92100143432617 59.196998596191406,-43.36399841308594 59.209999084472656,-43.49300003051758 C59.10599899291992,-38.91699981689453 59.32699966430664,-20.062999725341797 58.98500061035156,-17.76799964904785 C58.707000732421875,-15.906000137329102 -59.11600112915039,-17.222999572753906 -59.11399841308594,-17.48900032043457 C-59.10900115966797,-17.940000534057617 -59.45899963378906,-38.494998931884766 -59.3390007019043,-43.62099838256836z"/><path stroke-linecap="round" stroke-linejoin="round" fill-opacity="0" class="secondary" stroke="rgb(230,142,110)" stroke-opacity="1" stroke-width="1" d=" M-59.3390007019043,-43.62099838256836 C-59.332000732421875,-43.92100143432617 59.196998596191406,-43.36399841308594 59.209999084472656,-43.49300003051758 C59.10599899291992,-38.91699981689453 59.32699966430664,-20.062999725341797 58.98500061035156,-17.76799964904785 C58.707000732421875,-15.906000137329102 -59.11600112915039,-17.222999572753906 -59.11399841308594,-17.48900032043457 C-59.10900115966797,-17.940000534057617 -59.45899963378906,-38.494998931884766 -59.3390007019043,-43.62099838256836z"/></g></g></g><g transform="matrix(1,0,0,1,76.20700073242188,122.76499938964844)" opacity="1" style="display: block;"><g opacity="1" transform="matrix(1,0,0,1,0,0)"><path stroke-linecap="round" stroke-linejoin="round" fill-opacity="0" class="primary" stroke="rgb(42,48,107)" stroke-opacity="1" stroke-width="3" d=" M-59.2599983215332,-13.211999893188477 C-59.25299835205078,-13.647000312805176 59.2760009765625,-12.840999603271484 59.28900146484375,-13.027000427246094 C59.185001373291016,-6.39900016784668 59.34700012207031,8.60099983215332 59.005001068115234,11.925000190734863 C58.72700119018555,14.621999740600586 -59.09600067138672,12.713000297546387 -59.09400177001953,12.32800006866455 C-59.0890007019043,11.673999786376953 -59.380001068115234,-5.7870001792907715 -59.2599983215332,-13.211999893188477z"/></g></g><g transform="matrix(1,0,0,1,76.41899871826172,84.2509994506836)" opacity="1" style="display: block;"><g opacity="1" transform="matrix(1,0,0,1,0,0)"><path stroke-linecap="round" stroke-linejoin="round" fill-opacity="0" class="primary" stroke="rgb(42,48,107)" stroke-opacity="1" stroke-width="3" d=" M-59.2599983215332,-14.897000312805176 C-59.25299835205078,-15.387999534606934 59.2760009765625,-14.477999687194824 59.28900146484375,-14.687999725341797 C59.185001373291016,-7.214000225067139 59.34700012207031,9.697999954223633 59.005001068115234,13.444999694824219 C58.72700119018555,16.486000061035156 -59.09600067138672,14.335000038146973 -59.09400177001953,13.901000022888184 C-59.0890007019043,13.163999557495117 -59.380001068115234,-6.525000095367432 -59.2599983215332,-14.897000312805176z"/></g></g><g transform="matrix(1,0,0,1,75.89900207519531,43.49800109863281)" opacity="1" style="display: block;"><g opacity="1" transform="matrix(1,0,0,1,0,0)"><path stroke-linecap="round" stroke-linejoin="round" fill-opacity="0" class="primary" stroke="rgb(42,48,107)" stroke-opacity="1" stroke-width="3" d=" M-59.2599983215332,-15.447999954223633 C-59.25299835205078,-15.956999778747559 59.2760009765625,-15.012999534606934 59.28900146484375,-15.230999946594238 C59.185001373291016,-7.480999946594238 59.34700012207031,10.057000160217285 59.005001068115234,13.942999839782715 C58.72700119018555,17.09600067138672 -59.09600067138672,14.864999771118164 -59.09400177001953,14.414999961853027 C-59.0890007019043,13.651000022888184 -59.380001068115234,-6.765999794006348 -59.2599983215332,-15.447999954223633z"/></g></g><g transform="matrix(1,0,0,1,89.93500518798828,37.07200241088867)" opacity="1" style="display: block;"><g opacity="1" transform="matrix(1,0,0,1,0,0)"><path stroke-linecap="round" stroke-linejoin="round" fill-opacity="0" class="primary" stroke="rgb(42,48,107)" stroke-opacity="1" stroke-width="2" d=" M29.31999969482422,0.1080000028014183 C19.66200065612793,0.23800000548362732 -7.673999786376953,0.05900000035762787 -28.73699951171875,-0.08799999952316284"/></g></g><g transform="matrix(1,0,0,1,47.464996337890625,90.54100036621094)" opacity="1" style="display: block;"><g opacity="1" transform="matrix(1,0,0,1,0,0)"><path stroke-linecap="round" stroke-linejoin="round" fill-opacity="0" class="primary" stroke="rgb(42,48,107)" stroke-opacity="1" stroke-width="2" d=" M23.614999771118164,0.13699999451637268 C2.135999917984009,0.1080000028014183 -21.424999237060547,0.03400000184774399 -24.14299964904785,-0.09300000220537186"/></g></g><g transform="matrix(1,0,0,1,102.60200500488281,119.05599975585938)" opacity="1" style="display: block;"><g opacity="1" transform="matrix(1,0,0,1,0,0)"><path stroke-linecap="round" stroke-linejoin="round" fill-opacity="0" class="primary" stroke="rgb(42,48,107)" stroke-opacity="1" stroke-width="2" d=" M26.113000869750977,-0.1379999965429306 C20.232999801635742,0.003000000026077032 -5.927999973297119,0.13300000131130219 -26.402999877929688,0.08900000154972076"/></g></g><g transform="matrix(1,0,0,1,76.37999725341797,153.87399291992188)" opacity="1" style="display: block;"><g opacity="1" transform="matrix(1,0,0,1,0,0)"><path stroke-linecap="round" stroke-linejoin="round" fill-opacity="0" class="primary" stroke="rgb(42,48,107)" stroke-opacity="1" stroke-width="2" d=" M58.11600112915039,0.18199999630451202 C47.834999084472656,-0.032999999821186066 -50.20199966430664,0.0860000029206276 -58.11600112915039,-0.18199999630451202"/></g></g><g transform="matrix(1,0,0,1,162.01800537109375,96.38700103759766)" opacity="1" style="display: block;"><g opacity="1" transform="matrix(1,0,0,1,0,0)"><path stroke-linecap="round" stroke-linejoin="round" fill-opacity="0" class="primary" stroke="rgb(42,48,107)" stroke-opacity="1" stroke-width="3" d=" M-15.694999694824219,58.44499969482422 C-0.7129999995231628,58.49300003051758 14.220999717712402,58.50600051879883 14.260000228881836,58.32899856567383 C14.324000358581543,58.0359992980957 15.58899974822998,-19.065000534057617 15.694999694824219,-58 C15.696999549865723,-58.59199905395508 -9.755000114440918,-58.45600128173828 -14.791000366210938,-58.47700119018555"/></g></g><g transform="matrix(1,0,0,1,153.56199645996094,38.27299880981445)" opacity="1" style="display: block;"><g opacity="1" transform="matrix(1,0,0,1,0,0)"><path stroke-linecap="round" stroke-linejoin="round" fill-opacity="0" class="primary" stroke="rgb(42,48,107)" stroke-opacity="1" stroke-width="3" d=" M6.645999908447266,8.675999641418457 C2.2829999923706055,5.491000175476074 -7.185999870300293,0.49900001287460327 -7.195000171661377,-0.4059999883174896 C-7.203000068664551,-1.128999948501587 3.9579999446868896,-6.120999813079834 7.195000171661377,-8.675999641418457"/></g></g></g></g></g></g></svg>