<svg xmlns="http://www.w3.org/2000/svg" xmlns:xlink="http://www.w3.org/1999/xlink" viewBox="0 0 192 192" width="192" height="192" preserveAspectRatio="xMidYMid meet" style="width: 100%; height: 100%; transform: translate3d(0px, 0px, 0px); content-visibility: visible;"><defs><clipPath id="__lottie_element_6414"><rect width="192" height="192" x="0" y="0"/></clipPath><clipPath id="__lottie_element_6416"><path d="M0,0 L192,0 L192,192 L0,192z"/></clipPath><clipPath id="__lottie_element_6421"><path d="M0,0 L192,0 L192,192 L0,192z"/></clipPath><g id="__lottie_element_6424"><g transform="matrix(0.9922662973403931,-0.12408575415611267,0.12408575415611267,0.9922662973403931,-12.798182487487793,12.69356918334961)" opacity="1" style="display: block;"><path fill="rgb(255,0,0)" fill-opacity="1" d=" M100.99,120.41 C106.01,99.54 113.26,66.17 113.74,64.32 C114.68,60.72 89.47,57.59 89.3,61.54 C89.23,63.22 88.76,97.55 87.26,118.86 C86.88,124.29 99.36,127.17 100.99,120.41z M91.98,131.35 C92.18,131.35 93.38,131.47 93.94,131.61 C96.84,132.34 102.17,134.72 102.09,142.04 C102.03,148.22 97.03,151.95 91.97,152.07 C89.26,152.13 86.42,151.06 84.5,149.06 C78.1,142.4 82.75,131.19 91.98,131.35z"/><g opacity="1" transform="matrix(-0.9922714233398438,-0.1240864098072052,0.1240864098072052,-0.9922714233398438,98.47000122070312,89.13999938964844)"><g opacity="1" transform="matrix(0.7393491268157959,-0.6733222603797913,0.6733222603797913,0.7393491268157959,0,0)"/></g><g opacity="1" transform="matrix(0.9922714233398438,0.1240864098072052,-0.1240864098072052,0.9922714233398438,91.83200073242188,141.73399353027344)"><g opacity="1" transform="matrix(1,0,0,1,0,0)"/></g></g></g><filter id="__lottie_element_6434" filterUnits="objectBoundingBox" x="0%" y="0%" width="100%" height="100%"><feComponentTransfer in="SourceGraphic"><feFuncA type="table" tableValues="1.0 0.0"/></feComponentTransfer></filter><mask id="__lottie_element_6424_2" mask-type="alpha" maskUnits="userSpaceOnUse"><g filter="url(#__lottie_element_6434)"><rect width="192" height="192" x="0" y="0" fill="#ffffff" opacity="0"/><use xmlns:ns1="http://www.w3.org/1999/xlink" ns1:href="#__lottie_element_6424"/></g></mask></defs><g clip-path="url(#__lottie_element_6414)"><g clip-path="url(#__lottie_element_6416)" transform="matrix(1,0,0,1,0,0)" opacity="1" style="display: block;"><g mask="url(#__lottie_element_6424_2)" style="display: block;"><g clip-path="url(#__lottie_element_6421)" transform="matrix(1,0,0,1,0,0)" opacity="1"><g transform="matrix(1,0,0,1,128.1230010986328,171.84600830078125)" opacity="1" style="display: block;"><g opacity="1" transform="matrix(1,0,0,1,0,0)"><path stroke-linecap="round" stroke-linejoin="round" fill-opacity="0" class="primary" stroke="rgb(29,77,141)" stroke-opacity="1" stroke-width="2" d=" M31.54599952697754,-0.023000000044703484 C13.855999946594238,-0.023000000044703484 -13.62399959564209,-0.16500000655651093 -31.54599952697754,0.06599999964237213"/></g></g><g transform="matrix(1,0,0,1,36.8650016784668,99.44499969482422)" opacity="1" style="display: block;"><g opacity="1" transform="matrix(1,0,0,1,0,0)"><path stroke-linecap="round" stroke-linejoin="round" fill-opacity="0" class="primary" stroke-dasharray=" 88 9" stroke-dashoffset="61" stroke="rgb(29,77,141)" stroke-opacity="1" stroke-width="2" d=" M-6.955999851226807,12.090999603271484 C-1.1160000562667847,2.003999948501587 43.93600082397461,-76.4229965209961 46.17399978637695,-80.39299774169922"/></g></g><g transform="matrix(1,0,0,1,133.52999877929688,116.19200134277344)" opacity="1" style="display: block;"><g opacity="1" transform="matrix(1,0,0,1,0,0)"><path stroke-linecap="round" stroke-linejoin="round" fill-opacity="0" class="primary" stroke="rgb(29,77,141)" stroke-opacity="1" stroke-width="2.003" d=" M-79.61399841308594,8.02299976348877 C-86.83000183105469,20.816999435424805 -92.03500366210938,30.04599952697754 -92.03500366210938,30.04599952697754 C-92.03500366210938,30.04599952697754 -77.25,30.184999465942383 -60.67399978637695,30.340999603271484"/></g><g opacity="1" transform="matrix(1,0,0,1,0,0)"><path stroke-linecap="round" stroke-linejoin="round" fill-opacity="0" class="primary" stroke="rgb(29,77,141)" stroke-opacity="1" stroke-width="2.003" d=" M-14.59000015258789,30.770999908447266 C2.8559999465942383,30.860000610351562 16.393999099731445,30.871000289916992 16.54400062561035,30.72100067138672 C16.73699951171875,30.527999877929688 -0.9919999837875366,-2.190999984741211 -16.05500030517578,-29.89299964904785"/></g></g><g transform="matrix(1,0,0,1,96.73600006103516,92.29000091552734)" opacity="1" style="display: block;"><g opacity="1" transform="matrix(1,0,0,1,0,0)"><path stroke-linecap="round" stroke-linejoin="round" fill-opacity="0" class="primary" stroke="rgb(29,77,141)" stroke-opacity="1" stroke-width="3" d=" M5.144000053405762,67.78600311279297 C-25.670000076293945,67.56999969482422 -57.7130012512207,67.25700378417969 -70.18800354003906,67.0250015258789 C-73.63099670410156,66.96099853515625 -74.7239990234375,65.10199737548828 -73.10800170898438,62.06999969482422 C-61.94300079345703,41.11800003051758 -16.625999450683594,-42.507999420166016 -3.9760000705718994,-65.59400177001953 C-3.9760000705718994,-65.59400177001953 -3.9760000705718994,-65.59400177001953 -3.9760000705718994,-65.59400177001953 C-2.1640000343322754,-68.9020004272461 0.7289999723434448,-68.84300231933594 2.6070001125335693,-65.46800231933594 C15.937999725341797,-41.51300048828125 64.11100006103516,46.165000915527344 73.3949966430664,64.50399780273438 C74.46199798583984,66.61199951171875 73.57099914550781,67.97100067138672 71.2229995727539,67.99700164794922 C61.45100021362305,68.1050033569336 33.83100128173828,67.98799896240234 5.144000053405762,67.78600311279297"/></g></g></g></g><g transform="matrix(0.9922662973403931,-0.12408575415611267,0.12408575415611267,0.9922662973403931,-6.0482892990112305,9.193825721740723)" opacity="1" style="display: block;"><g opacity="1" transform="matrix(-0.9922714233398438,-0.1240864098072052,0.1240864098072052,-0.9922714233398438,98.47000122070312,89.13999938964844)"><g opacity="1" transform="matrix(0.7393491268157959,-0.6733222603797913,0.6733222603797913,0.7393491268157959,0,0)"><path stroke-linecap="round" stroke-linejoin="round" fill-opacity="0" class="secondary" stroke="rgb(230,142,110)" stroke-opacity="1" stroke-width="1" d=" M15.96500015258789,-27.00200080871582 C-0.16899999976158142,-12.845999717712402 -25.325000762939453,10.246000289916992 -26.790000915527344,11.482999801635742 C-29.631000518798828,13.883000373840332 -10.82699966430664,30.966999053955078 -8.416999816894531,27.83799934387207 C-7.389999866485596,26.506000518798828 12.779999732971191,-1.2760000228881836 26.28700065612793,-17.82900047302246 C29.729999542236328,-22.048999786376953 21.190000534057617,-31.586999893188477 15.96500015258789,-27.00200080871582z"/><path class="secondary" fill="rgb(230,142,110)" fill-opacity="1" d=" M15.96500015258789,-27.00200080871582 C-0.16899999976158142,-12.845999717712402 -25.325000762939453,10.246000289916992 -26.790000915527344,11.482999801635742 C-29.631000518798828,13.883000373840332 -10.82699966430664,30.966999053955078 -8.416999816894531,27.83799934387207 C-7.389999866485596,26.506000518798828 12.779999732971191,-1.2760000228881836 26.28700065612793,-17.82900047302246 C29.729999542236328,-22.048999786376953 21.190000534057617,-31.586999893188477 15.96500015258789,-27.00200080871582z"/></g></g><g opacity="1" transform="matrix(0.9922714233398438,0.1240864098072052,-0.1240864098072052,0.9922714233398438,91.83200073242188,141.73399353027344)"><g opacity="1" transform="matrix(1,0,0,1,0,0)"><path stroke-linecap="round" stroke-linejoin="round" fill-opacity="0" class="secondary" stroke="rgb(230,142,110)" stroke-opacity="1" stroke-width="1" d=" M-1.1449999809265137,-10.321999549865723 C-0.9459999799728394,-10.343000411987305 0.2590000033378601,-10.373000144958496 0.8320000171661377,-10.303999900817871 C3.805000066757202,-9.944000244140625 9.38599967956543,-8.23900032043457 10.217000007629395,-0.968999981880188 C10.918999671936035,5.170000076293945 6.422999858856201,9.496999740600586 1.4199999570846558,10.239999771118164 C-1.2649999856948853,10.638999938964844 -4.211999893188477,9.920999526977539 -6.364999771118164,8.178999900817871 C-13.545999526977539,2.367000102996826 -10.321999549865723,-9.338000297546387 -1.1449999809265137,-10.321999549865723z"/><path class="secondary" fill="rgb(230,142,110)" fill-opacity="1" d=" M-1.1449999809265137,-10.321999549865723 C-0.9459999799728394,-10.343000411987305 0.2590000033378601,-10.373000144958496 0.8320000171661377,-10.303999900817871 C3.805000066757202,-9.944000244140625 9.38599967956543,-8.23900032043457 10.217000007629395,-0.968999981880188 C10.918999671936035,5.170000076293945 6.422999858856201,9.496999740600586 1.4199999570846558,10.239999771118164 C-1.2649999856948853,10.638999938964844 -4.211999893188477,9.920999526977539 -6.364999771118164,8.178999900817871 C-13.545999526977539,2.367000102996826 -10.321999549865723,-9.338000297546387 -1.1449999809265137,-10.321999549865723z"/></g></g></g><g transform="matrix(0.9922662973403931,-0.12408575415611267,0.12408575415611267,0.9922662973403931,-12.798182487487793,12.69356918334961)" opacity="1" style="display: block;"><g opacity="1" transform="matrix(-0.9922714233398438,-0.1240864098072052,0.1240864098072052,-0.9922714233398438,98.47000122070312,89.13999938964844)"><g opacity="1" transform="matrix(0.7393491268157959,-0.6733222603797913,0.6733222603797913,0.7393491268157959,0,0)"><path stroke-linecap="round" stroke-linejoin="round" fill-opacity="0" class="primary" stroke="rgb(29,77,141)" stroke-opacity="1" stroke-width="2.998" d=" M15.96500015258789,-27.00200080871582 C-0.16899999976158142,-12.845999717712402 -25.325000762939453,10.246000289916992 -26.790000915527344,11.482999801635742 C-29.631000518798828,13.883000373840332 -10.82699966430664,30.966999053955078 -8.416999816894531,27.83799934387207 C-7.389999866485596,26.506000518798828 12.779999732971191,-1.2760000228881836 26.28700065612793,-17.82900047302246 C29.729999542236328,-22.048999786376953 21.190000534057617,-31.586999893188477 15.96500015258789,-27.00200080871582z"/></g></g><g opacity="1" transform="matrix(0.9922714233398438,0.1240864098072052,-0.1240864098072052,0.9922714233398438,91.83200073242188,141.73399353027344)"><g opacity="1" transform="matrix(1,0,0,1,0,0)"><path stroke-linecap="round" stroke-linejoin="round" fill-opacity="0" class="primary" stroke="rgb(29,77,141)" stroke-opacity="1" stroke-width="3" d=" M-1.1449999809265137,-10.321999549865723 C-0.9459999799728394,-10.343000411987305 0.2590000033378601,-10.373000144958496 0.8320000171661377,-10.303999900817871 C3.805000066757202,-9.944000244140625 9.38599967956543,-8.23900032043457 10.217000007629395,-0.968999981880188 C10.918999671936035,5.170000076293945 6.422999858856201,9.496999740600586 1.4199999570846558,10.239999771118164 C-1.2649999856948853,10.638999938964844 -4.211999893188477,9.920999526977539 -6.364999771118164,8.178999900817871 C-13.545999526977539,2.367000102996826 -10.321999549865723,-9.338000297546387 -1.1449999809265137,-10.321999549865723z"/></g></g></g></g></g></svg>