<svg xmlns="http://www.w3.org/2000/svg" xmlns:xlink="http://www.w3.org/1999/xlink" viewBox="0 0 192 192" width="192" height="192" preserveAspectRatio="xMidYMid meet" style="width: 100%; height: 100%; transform: translate3d(0px, 0px, 0px); content-visibility: visible;"><defs><clipPath id="__lottie_element_8985"><rect width="192" height="192" x="0" y="0"/></clipPath><clipPath id="__lottie_element_8987"><path d="M0,0 L192,0 L192,192 L0,192z"/></clipPath></defs><g clip-path="url(#__lottie_element_8985)"><g clip-path="url(#__lottie_element_8987)" transform="matrix(1,0,0,1,0,0)" opacity="1" style="display: block;"><g transform="matrix(2.226170063018799,0,0,2.226170063018799,103.33399963378906,94.83699798583984)" opacity="1" style="display: block;"><g opacity="1" transform="matrix(1,0,0,1,0,0)"><path stroke-linecap="round" stroke-linejoin="round" fill-opacity="0" class="secondary" stroke="rgb(230,142,110)" stroke-opacity="1" stroke-width="0.5" d=" M-27.017000198364258,25.18199920654297 C-26.12299919128418,22.763999938964844 -12.239999771118164,2.2179999351501465 -11.875,2.2100000381469727 C-16.340999603271484,-2.4059998989105225 -28.770000457763672,-17.54199981689453 -28.45800018310547,-18.049999237060547 C-23.933000564575195,-25.43400001525879 -19.45800018310547,-27.35099983215332 -19.207000732421875,-27.025999069213867 C-8.01200008392334,-12.517000198364258 -3.3440001010894775,-0.8149999976158142 0.3529999852180481,-9.397000312805176 C3.5399999618530273,-16.79199981689453 14.904000282287598,-31.900999069213867 16.141000747680664,-31.94499969482422 C20.726999282836914,-32.11000061035156 28.464000701904297,-27.2450008392334 28.464000701904297,-27.23900032043457 C28.464000701904297,-27.058000564575195 16.53499984741211,-9.293999671936035 8.831000328063965,1.7109999656677246 C8.404000282287598,2.321000099182129 25.74799919128418,22.69099998474121 23.79599952697754,24.825000762939453 C19.33099937438965,29.70599937438965 13.071999549865723,32.47800064086914 12.060999870300293,31.07200050354004 C11.017000198364258,29.618999481201172 0.3059999942779541,5.815000057220459 -2.115999937057495,9.270000457763672 C-6.622000217437744,15.696999549865723 -9.937000274658203,22.249000549316406 -16.791000366210938,31.85099983215332 C-17.489999771118164,32.83000183105469 -27.39699935913086,26.20800018310547 -27.017000198364258,25.18199920654297z"/><path class="secondary" fill="rgb(230,142,110)" fill-opacity="1" d=" M-27.017000198364258,25.18199920654297 C-26.12299919128418,22.763999938964844 -12.239999771118164,2.2179999351501465 -11.875,2.2100000381469727 C-16.340999603271484,-2.4059998989105225 -28.770000457763672,-17.54199981689453 -28.45800018310547,-18.049999237060547 C-23.933000564575195,-25.43400001525879 -19.45800018310547,-27.35099983215332 -19.207000732421875,-27.025999069213867 C-8.01200008392334,-12.517000198364258 -3.3440001010894775,-0.8149999976158142 0.3529999852180481,-9.397000312805176 C3.5399999618530273,-16.79199981689453 14.904000282287598,-31.900999069213867 16.141000747680664,-31.94499969482422 C20.726999282836914,-32.11000061035156 28.464000701904297,-27.2450008392334 28.464000701904297,-27.23900032043457 C28.464000701904297,-27.058000564575195 16.53499984741211,-9.293999671936035 8.831000328063965,1.7109999656677246 C8.404000282287598,2.321000099182129 25.74799919128418,22.69099998474121 23.79599952697754,24.825000762939453 C19.33099937438965,29.70599937438965 13.071999549865723,32.47800064086914 12.060999870300293,31.07200050354004 C11.017000198364258,29.618999481201172 0.3059999942779541,5.815000057220459 -2.115999937057495,9.270000457763672 C-6.622000217437744,15.696999549865723 -9.937000274658203,22.249000549316406 -16.791000366210938,31.85099983215332 C-17.489999771118164,32.83000183105469 -27.39699935913086,26.20800018310547 -27.017000198364258,25.18199920654297z"/></g></g><g transform="matrix(1,0,0,1,119.88700103759766,54.56100082397461)" opacity="1" style="display: block;"><g opacity="1" transform="matrix(0.9993213415145874,0.03683556616306305,-0.03683556616306305,0.9993213415145874,0,0)"><path stroke-linecap="round" stroke-linejoin="round" fill-opacity="0" class="primary" stroke="rgb(29,77,141)" stroke-opacity="1" stroke-width="1" d=" M-13.08899974822998,20.48200035095215 C-7.692999839782715,13.085000038146973 9.119000434875488,-13.595999717712402 13.08899974822998,-20.48200035095215"/></g></g><g transform="matrix(1,0,0,1,125.85399627685547,126.48300170898438)" opacity="1" style="display: block;"><g opacity="1" transform="matrix(1,0,0,1,0,0)"><path stroke-linecap="round" stroke-linejoin="round" fill-opacity="0" class="primary" stroke="rgb(29,77,141)" stroke-opacity="1" stroke-width="1" d=" M13.020000457763672,18.070999145507812 C10.282999992370605,13.805999755859375 -10.633000373840332,-14.48799991607666 -13.020000457763672,-18.070999145507812"/></g></g><g transform="matrix(1,0,0,1,0,0)" opacity="1" style="display: block;"><g opacity="1" transform="matrix(1,0,0,1,34.375,33.930999755859375)"><g opacity="1" transform="matrix(1,0,0,1,0,0)"><path stroke-linecap="round" stroke-linejoin="round" fill-opacity="0" class="primary" stroke="rgb(29,77,141)" stroke-opacity="1" stroke-width="1" d=" M-11.633000373840332,11.045999526977539 C-8.081000328063965,2.7079999446868896 1.8350000381469727,-6.214000225067139 11.633000373840332,-11.045999526977539"/></g></g><g opacity="1" transform="matrix(1,0,0,1,142.61500549316406,165.36099243164062)"><g opacity="1" transform="matrix(1,0,0,1,0,0)"><path stroke-linecap="round" stroke-linejoin="round" fill-opacity="0" class="primary" stroke="rgb(29,77,141)" stroke-opacity="1" stroke-width="1" d=" M1.4839999675750732,2.1700000762939453 C-3.938999891281128,5.492000102996826 -9.777999877929688,7.9629998207092285 -14.218999862670898,9.333999633789062 M14.218999862670898,-9.333999633789062 C11.371000289916992,-4.876999855041504 6.613999843597412,-0.972000002861023 1.4839999675750732,2.1700000762939453"/></g></g></g><g transform="matrix(1,0,0,1,57.930999755859375,132.01600646972656)" opacity="1" style="display: block;"><g opacity="1" transform="matrix(1,0,0,1,0,0)"><path stroke-linecap="round" stroke-linejoin="round" fill-opacity="0" class="primary" stroke-dasharray=" 36 6" stroke-dashoffset="0" stroke="rgb(29,77,141)" stroke-opacity="1" stroke-width="1" d=" M-9.928000450134277,14.852999687194824 C-7.543000221252441,11.380000114440918 17.788000106811523,-26.06999969482422 20.92799949645996,-31.520000457763672"/></g></g><g transform="matrix(2.226170063018799,0,0,2.226170063018799,96.08399963378906,93.58699798583984)" opacity="1" style="display: block;"><g opacity="1" transform="matrix(1,0,0,1,0,0)"><path stroke-linecap="round" stroke-linejoin="round" fill-opacity="0" class="primary" stroke="rgb(29,77,141)" stroke-opacity="1" stroke-width="0.65" d=" M-27.017000198364258,25.18199920654297 C-26.12299919128418,22.763999938964844 -12.239999771118164,2.2179999351501465 -11.875,2.2100000381469727 C-16.340999603271484,-2.4059998989105225 -28.770000457763672,-17.54199981689453 -28.45800018310547,-18.049999237060547 C-23.933000564575195,-25.43400001525879 -19.45800018310547,-27.35099983215332 -19.207000732421875,-27.025999069213867 C-8.01200008392334,-12.517000198364258 -3.3440001010894775,-0.8149999976158142 0.3529999852180481,-9.397000312805176 C3.5399999618530273,-16.79199981689453 14.904000282287598,-31.900999069213867 16.141000747680664,-31.94499969482422 C20.726999282836914,-32.11000061035156 28.464000701904297,-27.2450008392334 28.464000701904297,-27.23900032043457 C28.464000701904297,-27.058000564575195 16.53499984741211,-9.293999671936035 8.831000328063965,1.7109999656677246 C8.404000282287598,2.321000099182129 25.74799919128418,22.69099998474121 23.79599952697754,24.825000762939453 C19.33099937438965,29.70599937438965 13.071999549865723,32.47800064086914 12.060999870300293,31.07200050354004 C11.017000198364258,29.618999481201172 0.3059999942779541,5.815000057220459 -2.115999937057495,9.270000457763672 C-6.622000217437744,15.696999549865723 -9.937000274658203,22.249000549316406 -16.791000366210938,31.85099983215332 C-17.489999771118164,32.83000183105469 -27.39699935913086,26.20800018310547 -27.017000198364258,25.18199920654297z"/></g></g></g></g></svg>