<svg xmlns="http://www.w3.org/2000/svg" xmlns:xlink="http://www.w3.org/1999/xlink" viewBox="0 0 192 192" width="192" height="192" preserveAspectRatio="xMidYMid meet" style="width: 100%; height: 100%; transform: translate3d(0px, 0px, 0px); content-visibility: visible;"><defs><clipPath id="__lottie_element_9356"><rect width="192" height="192" x="0" y="0"/></clipPath><clipPath id="__lottie_element_9358"><path d="M0,0 L192,0 L192,192 L0,192z"/></clipPath><g id="__lottie_element_9371"><g clip-path="url(#__lottie_element_9372)" transform="matrix(1,0,0,1,0,0)" opacity="1" style="display: block;"><g transform="matrix(1,0,0,1,134.25,20.5)" opacity="1" style="display: block;"><g opacity="1" transform="matrix(1,0,0,1,-37,-54)"><path stroke-linecap="butt" stroke-linejoin="miter" fill-opacity="0" stroke-miterlimit="4" class="primary" stroke="rgb(23,23,28)" stroke-opacity="1" stroke-width="0" d=" M-19.922000885009766,15.888999938964844 C-16.176000595092773,6.199999809265137 -8.447999954223633,-9.543000221252441 1.1080000400543213,-17.16200065612793 C6.7230000495910645,-9.829000473022461 14.73799991607666,3.624000072479248 18,15.888999938964844 C7.295000076293945,18.509000778198242 -10.199000358581543,17.07699966430664 -19.922000885009766,15.888999938964844z"/><path fill="rgb(255,0,0)" fill-opacity="1" d=" M-19.922000885009766,15.888999938964844 C-16.176000595092773,6.199999809265137 -8.447999954223633,-9.543000221252441 1.1080000400543213,-17.16200065612793 C6.7230000495910645,-9.829000473022461 14.73799991607666,3.624000072479248 18,15.888999938964844 C7.295000076293945,18.509000778198242 -10.199000358581543,17.07699966430664 -19.922000885009766,15.888999938964844z"/></g></g></g></g><clipPath id="__lottie_element_9372"><path d="M0,0 L192,0 L192,192 L0,192z"/></clipPath><clipPath id="__lottie_element_9376"><path d="M0,0 L192,0 L192,192 L0,192z"/></clipPath><g id="__lottie_element_9379"><g transform="matrix(1,0,0,1,96.75,-20)" opacity="1" style="display: block;"><g opacity="1" transform="matrix(1,0,0,1,-0.75,63.5)"><path fill="rgb(255,0,0)" fill-opacity="1" d=" M-13.75,123.0199966430664 C-6.441999912261963,122.98300170898438 7.5,112.75 14.331999778747559,106.5719985961914 C30.16699981689453,92.25299835205078 63.54899978637695,78.87899780273438 82.56800079345703,97.43599700927734 C103.61499786376953,117.97100067138672 109.87999725341797,171.0959930419922 117,162.1999969482422 C136.77099609375,137.4980010986328 112.10099792480469,71.8479995727539 111.68800354003906,13.991000175476074 C111.552001953125,-5.004000186920166 74.7959976196289,0.27900001406669617 63.479000091552734,0 C61.25,3.5 35.058998107910156,10.479000091552734 0,10.479000091552734 C-35.058998107910156,10.479000091552734 -60,6 -63.479000091552734,0 C-81.4489974975586,1.6820000410079956 -115.57099914550781,-5.605000019073486 -115.36299896240234,16.476999282836914 C-114.9530029296875,59.94200134277344 -147.3699951171875,135.5030059814453 -125.81600189208984,163.72799682617188 C-114.552001953125,178.47799682617188 -112.2750015258789,116.8219985961914 -84.83499908447266,100.01799774169922 C-68.71499633789062,90.14700317382812 -28.68600082397461,123.09600067138672 -13.75,123.0199966430664z"/></g></g></g><filter id="__lottie_element_9400" filterUnits="objectBoundingBox" x="0%" y="0%" width="100%" height="100%"><feComponentTransfer in="SourceGraphic"><feFuncA type="table" tableValues="1.0 0.0"/></feComponentTransfer></filter><mask id="__lottie_element_9379_2" mask-type="alpha" maskUnits="userSpaceOnUse"><g filter="url(#__lottie_element_9400)"><rect width="192" height="192" x="0" y="0" fill="#ffffff" opacity="0"/><use xmlns:ns1="http://www.w3.org/1999/xlink" ns1:href="#__lottie_element_9379"/></g></mask><filter id="__lottie_element_9401" filterUnits="objectBoundingBox" x="0%" y="0%" width="100%" height="100%"><feComponentTransfer in="SourceGraphic"><feFuncA type="table" tableValues="1.0 0.0"/></feComponentTransfer></filter><mask id="__lottie_element_9371_2" mask-type="alpha" maskUnits="userSpaceOnUse"><g filter="url(#__lottie_element_9401)"><rect width="192" height="192" x="0" y="0" fill="#ffffff" opacity="0"/><use xmlns:ns2="http://www.w3.org/1999/xlink" ns2:href="#__lottie_element_9371"/></g></mask></defs><g clip-path="url(#__lottie_element_9356)"><g clip-path="url(#__lottie_element_9358)" transform="matrix(1,0,0,1,0,0)" opacity="1" style="display: block;"><g transform="matrix(1,0,0,1,122.58499908447266,83.78600311279297)" opacity="1" style="display: block;"><g opacity="1" transform="matrix(1,0,0,1,0,0)"><path class="secondary" fill="rgb(230,142,110)" fill-opacity="1" d=" M0.5320000052452087,-23.385000228881836 C5.455999851226807,-27.27199935913086 24.68400001525879,-27.790000915527344 23.011999130249023,-24.01099967956543 C21.097000122070312,-19.68199920654297 3.9670000076293945,12.548999786376953 -7.513000011444092,21.437000274658203 C-10.668999671936035,23.8799991607666 -18.211999893188477,29.18000030517578 -22.308000564575195,25.084999084472656 C-23.753999710083008,23.638999938964844 -22.933000564575195,20.743000030517578 -22.339000701904297,19.13800048828125 C-20.41699981689453,13.949999809265137 -2.440000057220459,-21.038000106811523 0.5320000052452087,-23.385000228881836z"/><path stroke-linecap="round" stroke-linejoin="round" fill-opacity="0" class="secondary" stroke="rgb(230,142,110)" stroke-opacity="1" stroke-width="0.5" d=" M0.5320000052452087,-23.385000228881836 C5.455999851226807,-27.27199935913086 24.68400001525879,-27.790000915527344 23.011999130249023,-24.01099967956543 C21.097000122070312,-19.68199920654297 3.9670000076293945,12.548999786376953 -7.513000011444092,21.437000274658203 C-10.668999671936035,23.8799991607666 -18.211999893188477,29.18000030517578 -22.308000564575195,25.084999084472656 C-23.753999710083008,23.638999938964844 -22.933000564575195,20.743000030517578 -22.339000701904297,19.13800048828125 C-20.41699981689453,13.949999809265137 -2.440000057220459,-21.038000106811523 0.5320000052452087,-23.385000228881836z"/></g></g><g mask="url(#__lottie_element_9371_2)" style="display: block;"><g transform="matrix(1,0,0,1,0,0)" opacity="1"><g opacity="1" transform="matrix(1,0,0,1,95.9520034790039,43.4010009765625)"><g opacity="1" transform="matrix(1,0,0,1,0,0)"><path stroke-linecap="round" stroke-linejoin="round" fill-opacity="0" class="primary" stroke="rgb(29,77,141)" stroke-opacity="1" stroke-width="1.5" d=" M-63.53099822998047,0.5460000038146973 C-64.0479965209961,-4.267000198364258 -26.861000061035156,-11.142999649047852 0.3610000014305115,-10.897000312805176 C27.575000762939453,-10.651000022888184 63.625,-4.853000164031982 63.5359992980957,0.19599999487400055"/></g></g></g></g><g transform="matrix(1,0,0,1,0,0)" opacity="1" style="display: block;"><g opacity="1" transform="matrix(1,0,0,1,95.92400360107422,105.88500213623047)"><g opacity="1" transform="matrix(1,0,0,1,0,0)"><path stroke-linecap="round" stroke-linejoin="round" fill-opacity="0" class="primary" stroke="rgb(29,77,141)" stroke-opacity="1" stroke-width="1.5" d=" M63.39500045776367,-60.917999267578125 C36.59700012207031,6.011000156402588 14.387999534606934,7.260000228881836 14.380999565124512,9.713000297546387 C14.369999885559082,14.168000221252441 14.295000076293945,34.06800079345703 14.189000129699707,42.01599884033203 C14.107999801635742,47.98500061035156 -10.927000045776367,62.74700164794922 -13.517000198364258,60.72999954223633 C-13.836999893188477,60.481998443603516 -14.274999618530273,9.630000114440918 -14.260000228881836,9.25 C-14.194000244140625,7.499000072479248 -40.720001220703125,-2.5899999141693115 -63.39500045776367,-60.90399932861328"/></g></g><g opacity="1" transform="matrix(1,0,0,1,95.9520034790039,43.4010009765625)"><g opacity="1" transform="matrix(1,0,0,1,0,0)"><path stroke-linecap="round" stroke-linejoin="round" fill-opacity="0" class="primary" stroke="rgb(29,77,141)" stroke-opacity="1" stroke-width="1.5" d=" M63.5359992980957,0.19599999487400055 C63.479000091552734,3.444999933242798 26.5310001373291,11.347999572753906 0.3140000104904175,10.883999824523926 C-29.75200080871582,10.35200023651123 -63.0359992980957,5.14900016784668 -63.53099822998047,0.5460000038146973"/></g></g></g><g mask="url(#__lottie_element_9379_2)" style="display: block;"><g clip-path="url(#__lottie_element_9376)" transform="matrix(1,0,0,1,0,0)" opacity="1"><g transform="matrix(1,0,0,1,134.25,20.5)" opacity="1" style="display: block;"><g opacity="1" transform="matrix(1,0,0,1,-37,-54)"><path stroke-linecap="butt" stroke-linejoin="miter" fill-opacity="0" stroke-miterlimit="4" class="primary" stroke="rgb(29,77,141)" stroke-opacity="1" stroke-width="1.5" d=" M-19.922000885009766,15.888999938964844 C-16.176000595092773,6.199999809265137 -8.447999954223633,-9.543000221252441 1.1080000400543213,-17.16200065612793 C6.7230000495910645,-9.829000473022461 14.73799991607666,3.624000072479248 18,15.888999938964844 C7.295000076293945,18.509000778198242 -10.199000358581543,17.07699966430664 -19.922000885009766,15.888999938964844z"/></g></g></g></g><g transform="matrix(1,0,0,1,87.90899658203125,133.96800231933594)" opacity="1" style="display: block;"><g opacity="1" transform="matrix(1,0,0,1,0,0)"><path stroke-linecap="round" stroke-linejoin="round" fill-opacity="0" class="primary" stroke="rgb(29,77,141)" stroke-opacity="1" stroke-width="0.9995" d=" M-0.07800000160932541,10.548999786376953 C-0.10100000351667404,4.51200008392334 -0.12700000405311584,-2.815999984741211 -0.1420000046491623,-9.352999687194824"/></g></g><g transform="matrix(1,0,0,1,87.90899658203125,133.96800231933594)" opacity="1" style="display: block;"><g opacity="1" transform="matrix(1,0,0,1,0,0)"><path stroke-linecap="round" stroke-linejoin="round" fill-opacity="0" class="primary" stroke="rgb(29,77,141)" stroke-opacity="1" stroke-width="0.9995" d=" M-7.998000144958496,-31.392000198364258 C-11.321000099182129,-34.66600036621094 -15.873000144958496,-39.60599899291992 -20.62700080871582,-45.38199996948242"/></g></g><g transform="matrix(1,0,0,1,74.56800079345703,42.4630012512207)" opacity="1" style="display: block;"><g opacity="1" transform="matrix(1,0,0,1,0,0)"><path stroke-linecap="round" stroke-linejoin="round" fill-opacity="0" class="primary" stroke="rgb(29,77,141)" stroke-opacity="1" stroke-width="1" d=" M-20.92099952697754,2.127000093460083 C-21.06100082397461,2.1570000648498535 -21.201000213623047,2.187999963760376 -21.340999603271484,2.2190001010894775"/></g></g><g transform="matrix(1,0,0,1,74.56800079345703,42.4630012512207)" opacity="1" style="display: block;"><g opacity="1" transform="matrix(1,0,0,1,0,0)"><path stroke-linecap="round" stroke-linejoin="round" fill-opacity="0" class="primary" stroke="rgb(29,77,141)" stroke-opacity="1" stroke-width="1" d=" M21.340999603271484,-2.2179999351501465 C8.472999572753906,-2.252000093460083 -6.501999855041504,-1.065999984741211 -21.340999603271484,2.2190001010894775"/></g></g><g transform="matrix(1,0,0,1,150.58099365234375,94.42900085449219)" opacity="1" style="display: block;"><g opacity="1" transform="matrix(1,0,0,1,0,0)"><path stroke-linecap="round" stroke-linejoin="round" fill-opacity="0" class="primary" stroke="rgb(29,77,141)" stroke-opacity="1" stroke-width="0.9975" d=" M-13.413999557495117,21.839000701904297 C0.30300000309944153,14.585000038146973 12.869000434875488,-2.316999912261963 13.413999557495117,-21.839000701904297"/></g></g><g transform="matrix(1,0,0,1,68.96700286865234,144.8679962158203)" opacity="1" style="display: block;"><g opacity="1" transform="matrix(1,0,0,1,0,0)"><path stroke-linecap="round" stroke-linejoin="round" fill-opacity="0" class="primary" stroke="rgb(29,77,141)" stroke-opacity="1" stroke-width="1" d=" M0.13699999451637268,22.393999099731445 C0.2329999953508377,12.21399974822998 -0.1509999930858612,-17.375 -0.15199999511241913,-22.393999099731445"/></g></g></g></g></svg>