<svg xmlns="http://www.w3.org/2000/svg" xmlns:xlink="http://www.w3.org/1999/xlink" viewBox="0 0 192 192" width="192" height="192" preserveAspectRatio="xMidYMid meet" style="width: 100%; height: 100%; transform: translate3d(0px, 0px, 0px); content-visibility: visible;"><defs><clipPath id="__lottie_element_5738"><rect width="192" height="192" x="0" y="0"/></clipPath><clipPath id="__lottie_element_5740"><path d="M0,0 L192,0 L192,192 L0,192z"/></clipPath></defs><g clip-path="url(#__lottie_element_5738)"><g clip-path="url(#__lottie_element_5740)" transform="matrix(1,0,0,1,0,0)" opacity="1" style="display: block;"><g transform="matrix(0.9999867677688599,-0.005140138790011406,0.005140138790011406,0.9999867677688599,-0.55889892578125,2.6377410888671875)" opacity="1" style="display: block;"><g opacity="1" transform="matrix(1,0,0,1,92.52100372314453,95.89299774169922)"><g opacity="1" transform="matrix(0.9958828091621399,-0.09064996242523193,0.09064996242523193,0.9958828091621399,0,0)"><path class="secondary" fill="rgb(230,142,110)" fill-opacity="1" d=" M-13.458999633789062,7.449999809265137 C-6.551000118255615,10.54800033569336 9.050999641418457,17.937999725341797 10.168000221252441,16.735000610351562 C15.241000175476074,11.272000312805176 14.442000389099121,-13.107000350952148 10.722000122070312,-16.780000686645508 C9.654999732971191,-17.83300018310547 -9.02299976348877,-8.901000022888184 -13.743000030517578,-6.798999786376953"/><path stroke-linecap="round" stroke-linejoin="round" fill-opacity="0" class="secondary" stroke="rgb(230,142,110)" stroke-opacity="1" stroke-width="1" d=" M-13.458999633789062,7.449999809265137 C-6.551000118255615,10.54800033569336 9.050999641418457,17.937999725341797 10.168000221252441,16.735000610351562 C15.241000175476074,11.272000312805176 14.442000389099121,-13.107000350952148 10.722000122070312,-16.780000686645508 C9.654999732971191,-17.83300018310547 -9.02299976348877,-8.901000022888184 -13.743000030517578,-6.798999786376953"/></g></g><g opacity="1" transform="matrix(-1,0,0,-1,50.20000076293945,96.77799987792969)"><g opacity="1" transform="matrix(1,0,0,1,0,0)"><path class="secondary" fill="rgb(230,142,110)" fill-opacity="1" d=" M-13.925000190734863,6.065999984741211 C-7.017000198364258,9.163999557495117 9.232999801635742,17.950000762939453 10.350000381469727,16.746999740600586 C15.42300033569336,11.284000396728516 14.62399959564209,-13.095999717712402 10.904000282287598,-16.768999099731445 C9.836999893188477,-17.82200050354004 -8.104999542236328,-9.366999626159668 -12.824999809265137,-7.265999794006348"/><path stroke-linecap="round" stroke-linejoin="round" fill-opacity="0" class="secondary" stroke="rgb(230,142,110)" stroke-opacity="1" stroke-width="1" d=" M-13.925000190734863,6.065999984741211 C-7.017000198364258,9.163999557495117 9.232999801635742,17.950000762939453 10.350000381469727,16.746999740600586 C15.42300033569336,11.284000396728516 14.62399959564209,-13.095999717712402 10.904000282287598,-16.768999099731445 C9.836999893188477,-17.82200050354004 -8.104999542236328,-9.366999626159668 -12.824999809265137,-7.265999794006348"/></g></g><g opacity="1" transform="matrix(1,0,0,1,70.73699951171875,99.44499969482422)"><g opacity="1" transform="matrix(0.9961748719215393,0.0873817726969719,-0.0873817726969719,0.9961748719215393,0,0)"><path class="secondary" fill="rgb(230,142,110)" fill-opacity="1" d=" M0,11.954999923706055 C6.577000141143799,11.954999923706055 11.907999992370605,6.603000164031982 11.907999992370605,0 C11.907999992370605,-6.603000164031982 6.577000141143799,-11.954999923706055 0,-11.954999923706055 C-6.577000141143799,-11.954999923706055 -11.907999992370605,-6.603000164031982 -11.907999992370605,0 C-11.907999992370605,6.603000164031982 -6.577000141143799,11.954999923706055 0,11.954999923706055z"/><path stroke-linecap="round" stroke-linejoin="round" fill-opacity="0" class="secondary" stroke="rgb(230,142,110)" stroke-opacity="1" stroke-width="1.003" d=" M0,11.954999923706055 C6.577000141143799,11.954999923706055 11.907999992370605,6.603000164031982 11.907999992370605,0 C11.907999992370605,-6.603000164031982 6.577000141143799,-11.954999923706055 0,-11.954999923706055 C-6.577000141143799,-11.954999923706055 -11.907999992370605,-6.603000164031982 -11.907999992370605,0 C-11.907999992370605,6.603000164031982 -6.577000141143799,11.954999923706055 0,11.954999923706055z"/></g></g></g><g transform="matrix(1,0,0,1,94.58000183105469,101.75109100341797)" opacity="1" style="display: block;"><g opacity="1" transform="matrix(1,0,0,1,0,0)"><path stroke-linecap="round" stroke-linejoin="round" fill-opacity="0" class="primary" stroke="rgb(42,48,107)" stroke-opacity="1" stroke-width="3" d=" M-74.91500091552734,-40.64799880981445 C-74.78700256347656,-53.11399841308594 -72.8219985961914,-54.909000396728516 -56.6609992980957,-54.76499938964844 C-30.302000045776367,-54.529998779296875 25.38800048828125,-55.332000732421875 54.45899963378906,-55.00600051879883 C71.87699890136719,-54.81100082397461 73.58399963378906,-52.46699905395508 74.01499938964844,-40.86399841308594 C74.79299926757812,-19.868000030517578 75.31199645996094,20.444000244140625 74.72200012207031,41.17300033569336 C74.38600158691406,52.97800064086914 71.29199981689453,54.15800094604492 54.51100158691406,54.553001403808594 C25.332000732421875,55.237998962402344 -28.56999969482422,55.15999984741211 -56.500999450683594,54.87900161743164 C-69.94599914550781,54.74300003051758 -74.25399780273438,55.27199935913086 -74.45800018310547,41.180999755859375 C-74.76000213623047,20.343000411987305 -75.1240005493164,-20.14699935913086 -74.91500091552734,-40.64799880981445z"/></g></g><g transform="matrix(1,0,0,1,178.88600158691406,114.86309051513672)" opacity="1" style="display: block;"><g opacity="1" transform="matrix(1,0,0,1,0,0)"><path stroke-linecap="round" stroke-linejoin="round" fill-opacity="0" class="primary" stroke="rgb(42,48,107)" stroke-opacity="1" stroke-width="2" d=" M-0.14367344975471497,31.499862670898438 C-0.14367344975471497,16.599863052368164 0.06256470084190369,-7.158091068267822 0.036564700305461884,-27.14609146118164"/></g></g><g transform="matrix(1,0,0,1,67.94400024414062,34.10608673095703)" opacity="1" style="display: block;"><g opacity="1" transform="matrix(1,0,0,1,0,0)"><path stroke-linecap="round" stroke-linejoin="round" fill-opacity="0" class="primary" stroke="rgb(42,48,107)" stroke-opacity="1" stroke-width="2" d=" M13.708999633789062,0.0010000000474974513 C-6.671999931335449,-0.10000000149011612 -26.672000885009766,-0.20000000298023224 -33.57899856567383,-0.210999995470047"/></g></g><g transform="matrix(1,0,0,1,67.94400024414062,34.10608673095703)" opacity="1" style="display: block;"><g opacity="1" transform="matrix(1,0,0,1,0,0)"><path stroke-linecap="round" stroke-linejoin="round" fill-opacity="0" class="primary" stroke="rgb(42,48,107)" stroke-opacity="1" stroke-width="2" d=" M50.744998931884766,0.10400000214576721 C43.10599899291992,0.07400000095367432 33.266998291015625,0.04100000113248825 22.743000030517578,0.00800000037997961"/></g></g><g transform="matrix(1,0,0,1,94.9209976196289,110.75408935546875)" opacity="1" style="display: block;"><g opacity="1" transform="matrix(1,0,0,1,0,0)"><path stroke-linecap="round" stroke-linejoin="round" fill-opacity="0" class="primary" stroke="rgb(42,48,107)" stroke-opacity="1" stroke-width="2" d=" M74.30400085449219,0.05400000140070915 C70.24099731445312,0.05400000140070915 42.38999938964844,0.05299999937415123 11.859000205993652,0.0430000014603138"/></g><g opacity="1" transform="matrix(1,0,0,1,0,0)"><path stroke-linecap="round" stroke-linejoin="round" fill-opacity="0" class="primary" stroke="rgb(42,48,107)" stroke-opacity="1" stroke-width="2" d=" M-61.066001892089844,-0.008999999612569809 C-68.38200378417969,-0.02199999988079071 -73.22000122070312,-0.035999998450279236 -74.30400085449219,-0.05400000140070915"/></g></g><g transform="matrix(1,0,0,1,61.56800079345703,101.54708862304688)" opacity="1" style="display: block;"><g opacity="1" transform="matrix(0,1,-1,0,0,0)"><path stroke-linecap="round" stroke-linejoin="round" fill-opacity="0" class="primary" stroke="rgb(42,48,107)" stroke-opacity="1" stroke-width="3" d=" M54.38100051879883,0.07599999755620956 C43.40399932861328,0.07500000298023224 28.190000534057617,0.054999999701976776 11.96399974822998,0.028999999165534973"/></g><g opacity="1" transform="matrix(0,1,-1,0,0,0)"><path stroke-linecap="round" stroke-linejoin="round" fill-opacity="0" class="primary" stroke="rgb(42,48,107)" stroke-opacity="1" stroke-width="3" d=" M-5.438000202178955,0.0010000000474974513 C-23.23699951171875,-0.028999999165534973 -40.89099884033203,-0.05999999865889549 -54.38100051879883,-0.07599999755620956"/></g></g><g transform="matrix(1,0,0,1,95.1050033569336,98.57908630371094)" opacity="1" style="display: block;"><g opacity="1" transform="matrix(1,0,0,1,0,0)"><path stroke-linecap="round" stroke-linejoin="round" fill-opacity="0" class="primary" stroke="rgb(42,48,107)" stroke-opacity="1" stroke-width="2" d=" M74.30400085449219,0.05400000140070915 C70.1760025024414,0.05400000140070915 41.5,0.05299999937415123 10.402999877929688,0.041999999433755875"/></g><g opacity="1" transform="matrix(1,0,0,1,0,0)"><path stroke-linecap="round" stroke-linejoin="round" fill-opacity="0" class="primary" stroke="rgb(42,48,107)" stroke-opacity="1" stroke-width="2" d=" M-62.55099868774414,-0.012000000104308128 C-69.03399658203125,-0.024000000208616257 -73.29499816894531,-0.03799999877810478 -74.30400085449219,-0.05400000140070915"/></g></g><g transform="matrix(1,0,0,1,75.19300079345703,101.75209045410156)" opacity="1" style="display: block;"><g opacity="1" transform="matrix(0,1,-1,0,0,0)"><path stroke-linecap="round" stroke-linejoin="round" fill-opacity="0" class="primary" stroke="rgb(42,48,107)" stroke-opacity="1" stroke-width="3" d=" M54.3380012512207,-0.03099999949336052 C43.814998626708984,-0.03200000151991844 29.459999084472656,-0.017999999225139618 14.074000358581543,-0.004000000189989805"/></g><g opacity="1" transform="matrix(0,1,-1,0,0,0)"><path stroke-linecap="round" stroke-linejoin="round" fill-opacity="0" class="primary" stroke="rgb(42,48,107)" stroke-opacity="1" stroke-width="3" d=" M-7.60699987411499,0.01600000075995922 C-24.67799949645996,0.029999999329447746 -41.444000244140625,0.03799999877810478 -54.3380012512207,0.023000000044703484"/></g></g><g transform="matrix(0.9999867677688599,-0.005140138790011406,0.005140138790011406,0.9999867677688599,91.84724426269531,104.3720932006836)" opacity="1" style="display: block;"><g opacity="1" transform="matrix(1,0,0,1,0,0)"><path stroke-linecap="round" stroke-linejoin="round" fill-opacity="0" class="primary" stroke="rgb(42,48,107)" stroke-opacity="1" stroke-width="3" d=" M-13.458999633789062,7.449999809265137 C-6.551000118255615,10.54800033569336 9.050999641418457,17.937999725341797 10.168000221252441,16.735000610351562 C15.241000175476074,11.272000312805176 14.442999839782715,-13.107000350952148 10.722999572753906,-16.780000686645508 C9.656000137329102,-17.83300018310547 -9.02299976348877,-8.901000022888184 -13.743000030517578,-6.798999786376953"/></g></g><g transform="matrix(-0.9999867677688599,0.005140138790011406,-0.005140138790011406,-0.9999867677688599,47.01837921142578,103.73551177978516)" opacity="1" style="display: block;"><g opacity="1" transform="matrix(1,0,0,1,0,0)"><path stroke-linecap="round" stroke-linejoin="round" fill-opacity="0" class="primary" stroke="rgb(42,48,107)" stroke-opacity="1" stroke-width="3" d=" M-13.925000190734863,6.065999984741211 C-7.017000198364258,9.163999557495117 9.232999801635742,17.950000762939453 10.350000381469727,16.746999740600586 C15.42300033569336,11.284000396728516 14.62399959564209,-13.095999717712402 10.904000282287598,-16.768999099731445 C9.836999893188477,-17.82200050354004 -8.104999542236328,-9.366999626159668 -12.824999809265137,-7.265999794006348"/></g></g><g transform="matrix(0.9999867677688599,-0.005140138790011406,0.005140138790011406,0.9999867677688599,69.47313690185547,104.99311065673828)" opacity="1" style="display: block;"><g opacity="1" transform="matrix(1,0,0,1,0,0)"><path stroke-linecap="round" stroke-linejoin="round" fill-opacity="0" class="primary" stroke="rgb(42,48,107)" stroke-opacity="1" stroke-width="3.003" d=" M0,11.428999900817871 C6.202000141143799,11.428999900817871 11.230999946594238,6.311999797821045 11.230999946594238,0 C11.230999946594238,-6.311999797821045 6.202000141143799,-11.428999900817871 0,-11.428999900817871 C-6.202000141143799,-11.428999900817871 -11.230999946594238,-6.311999797821045 -11.230999946594238,0 C-11.230999946594238,6.311999797821045 -6.202000141143799,11.428999900817871 0,11.428999900817871z"/></g></g><g transform="matrix(0.9999867677688599,-0.005140138790011406,0.005140138790011406,0.9999867677688599,87.60728454589844,102.83486938476562)" opacity="1" style="display: block;"><g opacity="1" transform="matrix(0.9788780808448792,-0.2044447958469391,0.2044447958469391,0.9788780808448792,0,0)"><path stroke-linecap="round" stroke-linejoin="round" fill-opacity="0" class="primary" stroke="rgb(42,48,107)" stroke-opacity="1" stroke-width="2" d=" M6.420000076293945,0.7559999823570251 C2.559999942779541,-1.7860000133514404 -5.10699987411499,-0.5360000133514404 -6.420000076293945,0.28600001335144043"/></g></g><g transform="matrix(0.9999867677688599,-0.005140138790011406,0.005140138790011406,0.9999867677688599,51.23210525512695,103.47685241699219)" opacity="1" style="display: block;"><g opacity="1" transform="matrix(0.9916509389877319,0.12895137071609497,-0.12895137071609497,0.9916509389877319,0,0)"><path stroke-linecap="round" stroke-linejoin="round" fill-opacity="0" class="primary" stroke="rgb(42,48,107)" stroke-opacity="1" stroke-width="2" d=" M-7.111000061035156,1.3630000352859497 C-3.430999994277954,-1.6829999685287476 1.8300000429153442,-2.2200000286102295 7.111000061035156,-0.027000000700354576"/></g></g><g transform="matrix(1,0,0,1,158.15200805664062,75.66409301757812)" opacity="1" style="display: block;"><g opacity="1" transform="matrix(1,0,0,1,0,0)"><path stroke-linecap="round" stroke-linejoin="round" fill-opacity="0" class="primary" stroke="rgb(42,48,107)" stroke-opacity="1" stroke-width="2" d=" M-0.04899999871850014,14.515999794006348 C0.024000000208616257,10.364999771118164 -0.009999999776482582,-7.224999904632568 0.03400000184774399,-13.128999710083008"/></g></g></g></g></svg>