<svg xmlns="http://www.w3.org/2000/svg" xmlns:xlink="http://www.w3.org/1999/xlink" viewBox="0 0 192 192" width="192" height="192" preserveAspectRatio="xMidYMid meet" style="width: 100%; height: 100%; transform: translate3d(0px, 0px, 0px); content-visibility: visible;"><defs><clipPath id="__lottie_element_18776"><rect width="192" height="192" x="0" y="0"/></clipPath><clipPath id="__lottie_element_18778"><path d="M0,0 L192,0 L192,192 L0,192z"/></clipPath><g id="__lottie_element_18786"><g transform="matrix(1,0,0,1,97.39900207519531,95.53500366210938)" opacity="1" style="display: block;"><g opacity="1" transform="matrix(1,0,0,1,0,0)"><path fill="rgb(255,0,0)" fill-opacity="1" d=" M-45.52399826049805,58.641998291015625 C-97.9800033569336,16.191999435424805 -72.70500183105469,-67.8499984741211 -3.8959999084472656,-74.14800262451172 C10.557999610900879,-74.16699981689453 65.95500183105469,-68.76200103759766 73.04100036621094,-6.76800012588501 C78.05799865722656,37.12799835205078 45.91400146484375,68.06400299072266 10.140000343322754,73.37899780273438 C-9.055000305175781,76.23200225830078 -30.1299991607666,71.10099792480469 -45.52399826049805,58.641998291015625z"/></g></g></g><mask id="__lottie_element_18786_1" mask-type="alpha"><use xmlns:ns1="http://www.w3.org/1999/xlink" ns1:href="#__lottie_element_18786"/></mask></defs><g clip-path="url(#__lottie_element_18776)"><g clip-path="url(#__lottie_element_18778)" transform="matrix(1,0,0,1,0,0)" opacity="1" style="display: block;"><g mask="url(#__lottie_element_18786_1)" style="display: block;"><g transform="matrix(1,0,0,1,96,96)" opacity="1"><g opacity="1" transform="matrix(1,0,0,1,-408.5,-96)"><g opacity="1" transform="matrix(1,0,0,1,125.44499969482422,94.86699676513672)"><g opacity="1" transform="matrix(1,0,0,1,0,0)"><path class="secondary" fill="rgb(230,142,110)" fill-opacity="1" d=" M-4.953999996185303,-35.33300018310547 C-2.7190001010894775,-35.80400085449219 12.875,-28.625 17.400999069213867,-31.350000381469727 C24.01300048828125,-35.33100128173828 28.50200080871582,-48.40599822998047 29.37700080871582,-47.18000030517578 C47.07500076293945,-22.382999420166016 40.73899841308594,-10.35200023651123 24.94700050354004,-9.414999961853027 C20.452999114990234,-9.14900016784668 26.708999633789062,-0.3869999945163727 31.56999969482422,-1.434999942779541 C35.13399887084961,-2.2039999961853027 38.446998596191406,2.111999988555908 34.44599914550781,4.758999824523926 C32.551998138427734,6.01200008392334 25.986000061035156,5.031000137329102 25.339000701904297,6.823999881744385 C24.41699981689453,9.378000259399414 23.56100082397461,13.105999946594238 25.844999313354492,14.39900016784668 C31.125,17.38800048828125 35.983001708984375,6.140999794006348 38.167999267578125,11.107000350952148 C42.069000244140625,19.97100067138672 27.084999084472656,49.94200134277344 19.93899917602539,47.06700134277344 C14.562999725341797,44.90399932861328 21.684999465942383,33.55799865722656 19.101999282836914,33.74300003051758 C11.015000343322754,34.32099914550781 7.2210001945495605,35.4119987487793 0.27799999713897705,33.32899856567383 C-5.285999774932861,31.65999984741211 -12.255000114440918,40.91899871826172 -17.798999786376953,38.7859992980957 C-20.15999984741211,37.87799835205078 -23.523000717163086,37.361000061035156 -24.886999130249023,35.0890007019043 C-26.731000900268555,32.01499938964844 -24.743000030517578,26.951000213623047 -26.993000030517578,24.05699920654297 C-28.8799991607666,21.631000518798828 -33.50400161743164,21.73200035095215 -35.74800109863281,19.69099998474121 C-40.880001068115234,15.026000022888184 -40.99599838256836,6.267000198364258 -38.255001068115234,0.23600000143051147 C-35.486000061035156,-5.855000019073486 -30.114999771118164,-8.911999702453613 -23.69300079345703,-10.029000282287598 C-21.46299934387207,-10.416999816894531 -18.48699951171875,-9.920000076293945 -16.5310001373291,-11.342000007629395 C-13.48799991607666,-13.555000305175781 -14.291000366210938,-18.312000274658203 -14.501999855041504,-21.48699951171875 C-14.96399974822998,-28.40399932861328 -12.003000259399414,-33.8489990234375 -4.953999996185303,-35.33300018310547z"/><path stroke-linecap="round" stroke-linejoin="round" fill-opacity="0" class="secondary" stroke="rgb(230,142,110)" stroke-opacity="1" stroke-width="0.5" d=" M-4.953999996185303,-35.33300018310547 C-2.7190001010894775,-35.80400085449219 12.875,-28.625 17.400999069213867,-31.350000381469727 C24.01300048828125,-35.33100128173828 28.50200080871582,-48.40599822998047 29.37700080871582,-47.18000030517578 C47.07500076293945,-22.382999420166016 40.73899841308594,-10.35200023651123 24.94700050354004,-9.414999961853027 C20.452999114990234,-9.14900016784668 26.708999633789062,-0.3869999945163727 31.56999969482422,-1.434999942779541 C35.13399887084961,-2.2039999961853027 38.446998596191406,2.111999988555908 34.44599914550781,4.758999824523926 C32.551998138427734,6.01200008392334 25.986000061035156,5.031000137329102 25.339000701904297,6.823999881744385 C24.41699981689453,9.378000259399414 23.56100082397461,13.105999946594238 25.844999313354492,14.39900016784668 C31.125,17.38800048828125 35.983001708984375,6.140999794006348 38.167999267578125,11.107000350952148 C42.069000244140625,19.97100067138672 27.084999084472656,49.94200134277344 19.93899917602539,47.06700134277344 C14.562999725341797,44.90399932861328 21.684999465942383,33.55799865722656 19.101999282836914,33.74300003051758 C11.015000343322754,34.32099914550781 7.2210001945495605,35.4119987487793 0.27799999713897705,33.32899856567383 C-5.285999774932861,31.65999984741211 -12.255000114440918,40.91899871826172 -17.798999786376953,38.7859992980957 C-20.15999984741211,37.87799835205078 -23.523000717163086,37.361000061035156 -24.886999130249023,35.0890007019043 C-26.731000900268555,32.01499938964844 -24.743000030517578,26.951000213623047 -26.993000030517578,24.05699920654297 C-28.8799991607666,21.631000518798828 -33.50400161743164,21.73200035095215 -35.74800109863281,19.69099998474121 C-40.880001068115234,15.026000022888184 -40.99599838256836,6.267000198364258 -38.255001068115234,0.23600000143051147 C-35.486000061035156,-5.855000019073486 -30.114999771118164,-8.911999702453613 -23.69300079345703,-10.029000282287598 C-21.46299934387207,-10.416999816894531 -18.48699951171875,-9.920000076293945 -16.5310001373291,-11.342000007629395 C-13.48799991607666,-13.555000305175781 -14.291000366210938,-18.312000274658203 -14.501999855041504,-21.48699951171875 C-14.96399974822998,-28.40399932861328 -12.003000259399414,-33.8489990234375 -4.953999996185303,-35.33300018310547z"/></g></g><g opacity="1" transform="matrix(1,0,0,1,48.566001892089844,90.81900024414062)"><g opacity="1" transform="matrix(1,0,0,1,0,0)"><path class="secondary" fill="rgb(230,142,110)" fill-opacity="1" d=" M-5.89900016784668,-36.56999969482422 C-6.710999965667725,-35.53099822998047 -27.15999984741211,-11.28600025177002 -17.2189998626709,19.88800048828125 C-16.320999145507812,22.70599937438965 -12.642000198364258,21.94499969482422 -11.307999610900879,24.16900062561035 C-9.753000259399414,26.760000228881836 -9.805999755859375,30.211000442504883 -8.25,32.933998107910156 C-5.635000228881836,37.5099983215332 0.7540000081062317,40.14699935913086 5.815999984741211,39.25400161743164 C17.016000747680664,37.277000427246094 18.733999252319336,26.624000549316406 14.78499984741211,17.034000396728516 C13.682999610900879,14.359000205993652 11.503000259399414,12.071999549865723 10.708000183105469,9.288000106811523 C9.303000450134277,4.373000144958496 12.795000076293945,0.06599999964237213 16.007999420166016,-3.1470000743865967 C18.459999084472656,-5.598999977111816 21.007999420166016,-7.617000102996826 19.472999572753906,-11.300000190734863 C16.700000762939453,-17.957000732421875 9.425999641418457,-12.861000061035156 5.4079999923706055,-18.027000427246094 C1.0779999494552612,-23.594999313354492 6.625999927520752,-32.505001068115234 1.9420000314712524,-37.18899917602539 C-0.671999990940094,-39.803001403808594 -2.638000011444092,-40.74300003051758 -5.89900016784668,-36.56999969482422z"/><path stroke-linecap="round" stroke-linejoin="round" fill-opacity="0" class="secondary" stroke="rgb(230,142,110)" stroke-opacity="1" stroke-width="0.5" d=" M-5.89900016784668,-36.56999969482422 C-6.710999965667725,-35.53099822998047 -27.15999984741211,-11.28600025177002 -17.2189998626709,19.88800048828125 C-16.320999145507812,22.70599937438965 -12.642000198364258,21.94499969482422 -11.307999610900879,24.16900062561035 C-9.753000259399414,26.760000228881836 -9.805999755859375,30.211000442504883 -8.25,32.933998107910156 C-5.635000228881836,37.5099983215332 0.7540000081062317,40.14699935913086 5.815999984741211,39.25400161743164 C17.016000747680664,37.277000427246094 18.733999252319336,26.624000549316406 14.78499984741211,17.034000396728516 C13.682999610900879,14.359000205993652 11.503000259399414,12.071999549865723 10.708000183105469,9.288000106811523 C9.303000450134277,4.373000144958496 12.795000076293945,0.06599999964237213 16.007999420166016,-3.1470000743865967 C18.459999084472656,-5.598999977111816 21.007999420166016,-7.617000102996826 19.472999572753906,-11.300000190734863 C16.700000762939453,-17.957000732421875 9.425999641418457,-12.861000061035156 5.4079999923706055,-18.027000427246094 C1.0779999494552612,-23.594999313354492 6.625999927520752,-32.505001068115234 1.9420000314712524,-37.18899917602539 C-0.671999990940094,-39.803001403808594 -2.638000011444092,-40.74300003051758 -5.89900016784668,-36.56999969482422z"/></g></g></g><g opacity="1" transform="matrix(1,0,0,1,-251.46499633789062,-96)"><g opacity="1" transform="matrix(1,0,0,1,125.44499969482422,94.86699676513672)"><g opacity="1" transform="matrix(1,0,0,1,0,0)"><path class="secondary" fill="rgb(230,142,110)" fill-opacity="1" d=" M-4.953999996185303,-35.33300018310547 C-2.7190001010894775,-35.80400085449219 12.875,-28.625 17.400999069213867,-31.350000381469727 C24.01300048828125,-35.33100128173828 28.50200080871582,-48.40599822998047 29.37700080871582,-47.18000030517578 C47.07500076293945,-22.382999420166016 40.73899841308594,-10.35200023651123 24.94700050354004,-9.414999961853027 C20.452999114990234,-9.14900016784668 26.708999633789062,-0.3869999945163727 31.56999969482422,-1.434999942779541 C35.13399887084961,-2.2039999961853027 38.446998596191406,2.111999988555908 34.44599914550781,4.758999824523926 C32.551998138427734,6.01200008392334 25.986000061035156,5.031000137329102 25.339000701904297,6.823999881744385 C24.41699981689453,9.378000259399414 23.56100082397461,13.105999946594238 25.844999313354492,14.39900016784668 C31.125,17.38800048828125 35.983001708984375,6.140999794006348 38.167999267578125,11.107000350952148 C42.069000244140625,19.97100067138672 27.084999084472656,49.94200134277344 19.93899917602539,47.06700134277344 C14.562999725341797,44.90399932861328 21.684999465942383,33.55799865722656 19.101999282836914,33.74300003051758 C11.015000343322754,34.32099914550781 7.2210001945495605,35.4119987487793 0.27799999713897705,33.32899856567383 C-5.285999774932861,31.65999984741211 -12.255000114440918,40.91899871826172 -17.798999786376953,38.7859992980957 C-20.15999984741211,37.87799835205078 -23.523000717163086,37.361000061035156 -24.886999130249023,35.0890007019043 C-26.731000900268555,32.01499938964844 -24.743000030517578,26.951000213623047 -26.993000030517578,24.05699920654297 C-28.8799991607666,21.631000518798828 -33.50400161743164,21.73200035095215 -35.74800109863281,19.69099998474121 C-40.880001068115234,15.026000022888184 -40.99599838256836,6.267000198364258 -38.255001068115234,0.23600000143051147 C-35.486000061035156,-5.855000019073486 -30.114999771118164,-8.911999702453613 -23.69300079345703,-10.029000282287598 C-21.46299934387207,-10.416999816894531 -18.48699951171875,-9.920000076293945 -16.5310001373291,-11.342000007629395 C-13.48799991607666,-13.555000305175781 -14.291000366210938,-18.312000274658203 -14.501999855041504,-21.48699951171875 C-14.96399974822998,-28.40399932861328 -12.003000259399414,-33.8489990234375 -4.953999996185303,-35.33300018310547z"/><path stroke-linecap="round" stroke-linejoin="round" fill-opacity="0" class="secondary" stroke="rgb(230,142,110)" stroke-opacity="1" stroke-width="0.5" d=" M-4.953999996185303,-35.33300018310547 C-2.7190001010894775,-35.80400085449219 12.875,-28.625 17.400999069213867,-31.350000381469727 C24.01300048828125,-35.33100128173828 28.50200080871582,-48.40599822998047 29.37700080871582,-47.18000030517578 C47.07500076293945,-22.382999420166016 40.73899841308594,-10.35200023651123 24.94700050354004,-9.414999961853027 C20.452999114990234,-9.14900016784668 26.708999633789062,-0.3869999945163727 31.56999969482422,-1.434999942779541 C35.13399887084961,-2.2039999961853027 38.446998596191406,2.111999988555908 34.44599914550781,4.758999824523926 C32.551998138427734,6.01200008392334 25.986000061035156,5.031000137329102 25.339000701904297,6.823999881744385 C24.41699981689453,9.378000259399414 23.56100082397461,13.105999946594238 25.844999313354492,14.39900016784668 C31.125,17.38800048828125 35.983001708984375,6.140999794006348 38.167999267578125,11.107000350952148 C42.069000244140625,19.97100067138672 27.084999084472656,49.94200134277344 19.93899917602539,47.06700134277344 C14.562999725341797,44.90399932861328 21.684999465942383,33.55799865722656 19.101999282836914,33.74300003051758 C11.015000343322754,34.32099914550781 7.2210001945495605,35.4119987487793 0.27799999713897705,33.32899856567383 C-5.285999774932861,31.65999984741211 -12.255000114440918,40.91899871826172 -17.798999786376953,38.7859992980957 C-20.15999984741211,37.87799835205078 -23.523000717163086,37.361000061035156 -24.886999130249023,35.0890007019043 C-26.731000900268555,32.01499938964844 -24.743000030517578,26.951000213623047 -26.993000030517578,24.05699920654297 C-28.8799991607666,21.631000518798828 -33.50400161743164,21.73200035095215 -35.74800109863281,19.69099998474121 C-40.880001068115234,15.026000022888184 -40.99599838256836,6.267000198364258 -38.255001068115234,0.23600000143051147 C-35.486000061035156,-5.855000019073486 -30.114999771118164,-8.911999702453613 -23.69300079345703,-10.029000282287598 C-21.46299934387207,-10.416999816894531 -18.48699951171875,-9.920000076293945 -16.5310001373291,-11.342000007629395 C-13.48799991607666,-13.555000305175781 -14.291000366210938,-18.312000274658203 -14.501999855041504,-21.48699951171875 C-14.96399974822998,-28.40399932861328 -12.003000259399414,-33.8489990234375 -4.953999996185303,-35.33300018310547z"/></g></g><g opacity="1" transform="matrix(1,0,0,1,48.566001892089844,90.81900024414062)"><g opacity="1" transform="matrix(1,0,0,1,0,0)"><path class="secondary" fill="rgb(230,142,110)" fill-opacity="1" d=" M-5.89900016784668,-36.56999969482422 C-6.710999965667725,-35.53099822998047 -27.15999984741211,-11.28600025177002 -17.2189998626709,19.88800048828125 C-16.320999145507812,22.70599937438965 -12.642000198364258,21.94499969482422 -11.307999610900879,24.16900062561035 C-9.753000259399414,26.760000228881836 -9.805999755859375,30.211000442504883 -8.25,32.933998107910156 C-5.635000228881836,37.5099983215332 0.7540000081062317,40.14699935913086 5.815999984741211,39.25400161743164 C17.016000747680664,37.277000427246094 18.733999252319336,26.624000549316406 14.78499984741211,17.034000396728516 C13.682999610900879,14.359000205993652 11.503000259399414,12.071999549865723 10.708000183105469,9.288000106811523 C9.303000450134277,4.373000144958496 12.795000076293945,0.06599999964237213 16.007999420166016,-3.1470000743865967 C18.459999084472656,-5.598999977111816 21.007999420166016,-7.617000102996826 19.472999572753906,-11.300000190734863 C16.700000762939453,-17.957000732421875 9.425999641418457,-12.861000061035156 5.4079999923706055,-18.027000427246094 C1.0779999494552612,-23.594999313354492 6.625999927520752,-32.505001068115234 1.9420000314712524,-37.18899917602539 C-0.671999990940094,-39.803001403808594 -2.638000011444092,-40.74300003051758 -5.89900016784668,-36.56999969482422z"/><path stroke-linecap="round" stroke-linejoin="round" fill-opacity="0" class="secondary" stroke="rgb(230,142,110)" stroke-opacity="1" stroke-width="0.5" d=" M-5.89900016784668,-36.56999969482422 C-6.710999965667725,-35.53099822998047 -27.15999984741211,-11.28600025177002 -17.2189998626709,19.88800048828125 C-16.320999145507812,22.70599937438965 -12.642000198364258,21.94499969482422 -11.307999610900879,24.16900062561035 C-9.753000259399414,26.760000228881836 -9.805999755859375,30.211000442504883 -8.25,32.933998107910156 C-5.635000228881836,37.5099983215332 0.7540000081062317,40.14699935913086 5.815999984741211,39.25400161743164 C17.016000747680664,37.277000427246094 18.733999252319336,26.624000549316406 14.78499984741211,17.034000396728516 C13.682999610900879,14.359000205993652 11.503000259399414,12.071999549865723 10.708000183105469,9.288000106811523 C9.303000450134277,4.373000144958496 12.795000076293945,0.06599999964237213 16.007999420166016,-3.1470000743865967 C18.459999084472656,-5.598999977111816 21.007999420166016,-7.617000102996826 19.472999572753906,-11.300000190734863 C16.700000762939453,-17.957000732421875 9.425999641418457,-12.861000061035156 5.4079999923706055,-18.027000427246094 C1.0779999494552612,-23.594999313354492 6.625999927520752,-32.505001068115234 1.9420000314712524,-37.18899917602539 C-0.671999990940094,-39.803001403808594 -2.638000011444092,-40.74300003051758 -5.89900016784668,-36.56999969482422z"/></g></g></g><g opacity="1" transform="matrix(1,0,0,1,-96,-96)"><g opacity="1" transform="matrix(1,0,0,1,125.44499969482422,94.86699676513672)"><g opacity="1" transform="matrix(1,0,0,1,0,0)"><path class="secondary" fill="rgb(230,142,110)" fill-opacity="1" d=" M-4.953999996185303,-35.33300018310547 C-2.7190001010894775,-35.80400085449219 12.875,-28.625 17.400999069213867,-31.350000381469727 C24.01300048828125,-35.33100128173828 28.50200080871582,-48.40599822998047 29.37700080871582,-47.18000030517578 C47.07500076293945,-22.382999420166016 40.73899841308594,-10.35200023651123 24.94700050354004,-9.414999961853027 C20.452999114990234,-9.14900016784668 26.708999633789062,-0.3869999945163727 31.56999969482422,-1.434999942779541 C35.13399887084961,-2.2039999961853027 38.446998596191406,2.111999988555908 34.44599914550781,4.758999824523926 C32.551998138427734,6.01200008392334 25.986000061035156,5.031000137329102 25.339000701904297,6.823999881744385 C24.41699981689453,9.378000259399414 23.56100082397461,13.105999946594238 25.844999313354492,14.39900016784668 C31.125,17.38800048828125 35.983001708984375,6.140999794006348 38.167999267578125,11.107000350952148 C42.069000244140625,19.97100067138672 27.084999084472656,49.94200134277344 19.93899917602539,47.06700134277344 C14.562999725341797,44.90399932861328 21.684999465942383,33.55799865722656 19.101999282836914,33.74300003051758 C11.015000343322754,34.32099914550781 7.2210001945495605,35.4119987487793 0.27799999713897705,33.32899856567383 C-5.285999774932861,31.65999984741211 -12.255000114440918,40.91899871826172 -17.798999786376953,38.7859992980957 C-20.15999984741211,37.87799835205078 -23.523000717163086,37.361000061035156 -24.886999130249023,35.0890007019043 C-26.731000900268555,32.01499938964844 -24.743000030517578,26.951000213623047 -26.993000030517578,24.05699920654297 C-28.8799991607666,21.631000518798828 -33.50400161743164,21.73200035095215 -35.74800109863281,19.69099998474121 C-40.880001068115234,15.026000022888184 -40.99599838256836,6.267000198364258 -38.255001068115234,0.23600000143051147 C-35.486000061035156,-5.855000019073486 -30.114999771118164,-8.911999702453613 -23.69300079345703,-10.029000282287598 C-21.46299934387207,-10.416999816894531 -18.48699951171875,-9.920000076293945 -16.5310001373291,-11.342000007629395 C-13.48799991607666,-13.555000305175781 -14.291000366210938,-18.312000274658203 -14.501999855041504,-21.48699951171875 C-14.96399974822998,-28.40399932861328 -12.003000259399414,-33.8489990234375 -4.953999996185303,-35.33300018310547z"/><path stroke-linecap="round" stroke-linejoin="round" fill-opacity="0" class="secondary" stroke="rgb(230,142,110)" stroke-opacity="1" stroke-width="0.5" d=" M-4.953999996185303,-35.33300018310547 C-2.7190001010894775,-35.80400085449219 12.875,-28.625 17.400999069213867,-31.350000381469727 C24.01300048828125,-35.33100128173828 28.50200080871582,-48.40599822998047 29.37700080871582,-47.18000030517578 C47.07500076293945,-22.382999420166016 40.73899841308594,-10.35200023651123 24.94700050354004,-9.414999961853027 C20.452999114990234,-9.14900016784668 26.708999633789062,-0.3869999945163727 31.56999969482422,-1.434999942779541 C35.13399887084961,-2.2039999961853027 38.446998596191406,2.111999988555908 34.44599914550781,4.758999824523926 C32.551998138427734,6.01200008392334 25.986000061035156,5.031000137329102 25.339000701904297,6.823999881744385 C24.41699981689453,9.378000259399414 23.56100082397461,13.105999946594238 25.844999313354492,14.39900016784668 C31.125,17.38800048828125 35.983001708984375,6.140999794006348 38.167999267578125,11.107000350952148 C42.069000244140625,19.97100067138672 27.084999084472656,49.94200134277344 19.93899917602539,47.06700134277344 C14.562999725341797,44.90399932861328 21.684999465942383,33.55799865722656 19.101999282836914,33.74300003051758 C11.015000343322754,34.32099914550781 7.2210001945495605,35.4119987487793 0.27799999713897705,33.32899856567383 C-5.285999774932861,31.65999984741211 -12.255000114440918,40.91899871826172 -17.798999786376953,38.7859992980957 C-20.15999984741211,37.87799835205078 -23.523000717163086,37.361000061035156 -24.886999130249023,35.0890007019043 C-26.731000900268555,32.01499938964844 -24.743000030517578,26.951000213623047 -26.993000030517578,24.05699920654297 C-28.8799991607666,21.631000518798828 -33.50400161743164,21.73200035095215 -35.74800109863281,19.69099998474121 C-40.880001068115234,15.026000022888184 -40.99599838256836,6.267000198364258 -38.255001068115234,0.23600000143051147 C-35.486000061035156,-5.855000019073486 -30.114999771118164,-8.911999702453613 -23.69300079345703,-10.029000282287598 C-21.46299934387207,-10.416999816894531 -18.48699951171875,-9.920000076293945 -16.5310001373291,-11.342000007629395 C-13.48799991607666,-13.555000305175781 -14.291000366210938,-18.312000274658203 -14.501999855041504,-21.48699951171875 C-14.96399974822998,-28.40399932861328 -12.003000259399414,-33.8489990234375 -4.953999996185303,-35.33300018310547z"/></g></g><g opacity="1" transform="matrix(1,0,0,1,48.566001892089844,90.81900024414062)"><g opacity="1" transform="matrix(1,0,0,1,0,0)"><path class="secondary" fill="rgb(230,142,110)" fill-opacity="1" d=" M-5.89900016784668,-36.56999969482422 C-6.710999965667725,-35.53099822998047 -27.15999984741211,-11.28600025177002 -17.2189998626709,19.88800048828125 C-16.320999145507812,22.70599937438965 -12.642000198364258,21.94499969482422 -11.307999610900879,24.16900062561035 C-9.753000259399414,26.760000228881836 -9.805999755859375,30.211000442504883 -8.25,32.933998107910156 C-5.635000228881836,37.5099983215332 0.7540000081062317,40.14699935913086 5.815999984741211,39.25400161743164 C17.016000747680664,37.277000427246094 18.733999252319336,26.624000549316406 14.78499984741211,17.034000396728516 C13.682999610900879,14.359000205993652 11.503000259399414,12.071999549865723 10.708000183105469,9.288000106811523 C9.303000450134277,4.373000144958496 12.795000076293945,0.06599999964237213 16.007999420166016,-3.1470000743865967 C18.459999084472656,-5.598999977111816 21.007999420166016,-7.617000102996826 19.472999572753906,-11.300000190734863 C16.700000762939453,-17.957000732421875 9.425999641418457,-12.861000061035156 5.4079999923706055,-18.027000427246094 C1.0779999494552612,-23.594999313354492 6.625999927520752,-32.505001068115234 1.9420000314712524,-37.18899917602539 C-0.671999990940094,-39.803001403808594 -2.638000011444092,-40.74300003051758 -5.89900016784668,-36.56999969482422z"/><path stroke-linecap="round" stroke-linejoin="round" fill-opacity="0" class="secondary" stroke="rgb(230,142,110)" stroke-opacity="1" stroke-width="0.5" d=" M-5.89900016784668,-36.56999969482422 C-6.710999965667725,-35.53099822998047 -27.15999984741211,-11.28600025177002 -17.2189998626709,19.88800048828125 C-16.320999145507812,22.70599937438965 -12.642000198364258,21.94499969482422 -11.307999610900879,24.16900062561035 C-9.753000259399414,26.760000228881836 -9.805999755859375,30.211000442504883 -8.25,32.933998107910156 C-5.635000228881836,37.5099983215332 0.7540000081062317,40.14699935913086 5.815999984741211,39.25400161743164 C17.016000747680664,37.277000427246094 18.733999252319336,26.624000549316406 14.78499984741211,17.034000396728516 C13.682999610900879,14.359000205993652 11.503000259399414,12.071999549865723 10.708000183105469,9.288000106811523 C9.303000450134277,4.373000144958496 12.795000076293945,0.06599999964237213 16.007999420166016,-3.1470000743865967 C18.459999084472656,-5.598999977111816 21.007999420166016,-7.617000102996826 19.472999572753906,-11.300000190734863 C16.700000762939453,-17.957000732421875 9.425999641418457,-12.861000061035156 5.4079999923706055,-18.027000427246094 C1.0779999494552612,-23.594999313354492 6.625999927520752,-32.505001068115234 1.9420000314712524,-37.18899917602539 C-0.671999990940094,-39.803001403808594 -2.638000011444092,-40.74300003051758 -5.89900016784668,-36.56999969482422z"/></g></g></g></g></g><g transform="matrix(1,0,0,1,97.39900207519531,95.53500366210938)" opacity="1" style="display: block;"><g opacity="1" transform="matrix(1,0,0,1,0,0)"><path stroke-linecap="round" stroke-linejoin="round" fill-opacity="0" class="primary" stroke="rgb(42,48,107)" stroke-opacity="1" stroke-width="1.5" d=" M-45.52399826049805,58.641998291015625 C-97.9800033569336,16.191999435424805 -72.70500183105469,-67.8499984741211 -3.8959999084472656,-74.14800262451172 C10.557999610900879,-74.16699981689453 65.95500183105469,-68.76200103759766 73.04100036621094,-6.76800012588501 C78.05799865722656,37.12799835205078 45.91400146484375,68.06400299072266 10.140000343322754,73.37899780273438 C-9.055000305175781,76.23200225830078 -30.1299991607666,71.10099792480469 -45.52399826049805,58.641998291015625z"/></g></g><g transform="matrix(1,0,0,1,95.61799621582031,96.51000213623047)" opacity="1" style="display: block;"><g opacity="1" transform="matrix(1,0,0,1,0,0)"><path stroke-linecap="round" stroke-linejoin="round" fill-opacity="0" class="primary" stroke="rgb(42,48,107)" stroke-opacity="1" stroke-width="1.001" d=" M-7.085999965667725,86.51599884033203 C-10.697999954223633,86.23100280761719 -14.302000045776367,85.72200012207031 -17.865999221801758,84.98999786376953"/></g></g><g transform="matrix(1,0,0,1,95.61799621582031,95.51000213623047)" opacity="1" style="display: block;"><g opacity="1" transform="matrix(1,0,0,1,0,0)"><path stroke-linecap="round" stroke-linejoin="round" fill-opacity="0" class="primary" stroke="rgb(42,48,107)" stroke-opacity="1" stroke-width="1.001" d=" M-23.165000915527344,83.73100280761719 C-34.07500076293945,80.77799987792969 -44.43000030517578,75.70500183105469 -53.20899963378906,68.5999984741211 C-53.20899963378906,68.5999984741211 -53.20899963378906,68.5999984741211 -53.20899963378906,68.5999984741211 C-61.856998443603516,61.60100173950195 -68.58499908447266,53.5260009765625 -73.55500030517578,44.81100082397461"/></g></g><g transform="matrix(1,0,0,1,94.86799621582031,96.51000213623047)" opacity="1" style="display: block;"><g opacity="1" transform="matrix(1,0,0,1,0,0)"><path stroke-linecap="round" stroke-linejoin="round" fill-opacity="0" class="primary" stroke="rgb(42,48,107)" stroke-opacity="1" stroke-width="1.001" d=" M-81.44000244140625,-21.975000381469727 C-74.91200256347656,-46.82400131225586 -58.564998626708984,-68.88400268554688 -35.47800064086914,-79.8489990234375"/></g></g><g transform="matrix(1,0,0,1,95.61799621582031,96.51000213623047)" opacity="1" style="display: block;"><g opacity="1" transform="matrix(1,0,0,1,0,0)"><path stroke-linecap="round" stroke-linejoin="round" fill-opacity="0" class="primary" stroke="rgb(42,48,107)" stroke-opacity="1" stroke-width="1.001" d=" M16.410999298095703,-85.70899963378906 C21.474000930786133,-84.87200164794922 26.83300018310547,-83.60700225830078 32.24399948120117,-81.74199676513672"/></g></g><g transform="matrix(1,0,0,1,96.36799621582031,97.51000213623047)" opacity="1" style="display: block;"><g opacity="1" transform="matrix(1,0,0,1,0,0)"><path stroke-linecap="round" stroke-linejoin="round" fill-opacity="0" class="primary" stroke="rgb(42,48,107)" stroke-opacity="1" stroke-width="1.001" d=" M39.78300094604492,-78.74199676513672 C57.70399856567383,-70.58899688720703 74.95899963378906,-54.95100021362305 82.66699981689453,-25.511999130249023"/></g></g><g transform="matrix(1,0,0,1,54.30400085449219,93.69200134277344)" opacity="1" style="display: block;"><g opacity="1" transform="matrix(1,0,0,1,0,0)"><path stroke-linecap="round" stroke-linejoin="round" fill-opacity="0" class="primary" stroke="rgb(42,48,107)" stroke-opacity="1" stroke-width="1.5" d=" M-0.6290000081062317,46.82899856567383 C-14.710000038146973,9.512999534606934 -6.584000110626221,-27.565000534057617 7.940000057220459,-46.82899856567383"/></g></g><g transform="matrix(1,0,0,1,83.8550033569336,94.8740005493164)" opacity="1" style="display: block;"><g opacity="1" transform="matrix(1,0,0,1,0,0)"><path stroke-linecap="round" stroke-linejoin="round" fill-opacity="0" class="primary" stroke="rgb(42,48,107)" stroke-opacity="1" stroke-width="1.5" d=" M6.796000003814697,66.12000274658203 C-10.095999717712402,36.000999450683594 -10.97599983215332,-30.226999282836914 2.6710000038146973,-66.12000274658203"/></g></g><g transform="matrix(1,0,0,1,107.11199951171875,92.54000091552734)" opacity="1" style="display: block;"><g opacity="1" transform="matrix(1,0,0,1,0,0)"><path stroke-linecap="round" stroke-linejoin="round" fill-opacity="0" class="primary" stroke="rgb(42,48,107)" stroke-opacity="1" stroke-width="1.5" d=" M3.003999948501587,68.4540023803711 C14.755000114440918,29.815000534057617 14.682000160217285,-19.288999557495117 -10.576000213623047,-68.4540023803711"/></g></g><g transform="matrix(1,0,0,1,0,0)" opacity="1" style="display: block;"><g opacity="1" transform="matrix(1,0,0,1,131.9199981689453,65.02200317382812)"><g opacity="1" transform="matrix(1,0,0,1,0,0)"><path stroke-linecap="round" stroke-linejoin="round" fill-opacity="0" class="primary" stroke="rgb(42,48,107)" stroke-opacity="1" stroke-width="1.5" d=" M11.864999771118164,22.812000274658203 C8.76099967956543,6.01800012588501 -3.384999990463257,-16.464000701904297 -11.864999771118164,-22.812000274658203"/></g></g><g opacity="1" transform="matrix(1,0,0,1,141.7220001220703,116.08899688720703)"><g opacity="1" transform="matrix(1,0,0,1,0,0)"><path stroke-linecap="round" stroke-linejoin="round" fill-opacity="0" class="primary" stroke="rgb(42,48,107)" stroke-opacity="1" stroke-width="1.5" d=" M-3.671999931335449,20.089000701904297 C3.1110000610351562,6.535999774932861 4.367000102996826,-8.201000213623047 3.36899995803833,-20.089000701904297"/></g></g></g><g transform="matrix(1,0,0,1,148.71600341796875,60.185001373291016)" opacity="1" style="display: block;"><g opacity="1" transform="matrix(1,0,0,1,0,0)"><path stroke-linecap="round" stroke-linejoin="round" fill-opacity="0" class="primary" stroke="rgb(42,48,107)" stroke-opacity="1" stroke-width="1.5" d=" M9.225000381469727,14.463000297546387 C6.7729997634887695,7.122000217437744 3.121999979019165,-5.039000034332275 -9.225000381469727,-14.463000297546387"/></g></g><g transform="matrix(1,0,0,1,101.0979995727539,144.20199584960938)" opacity="1" style="display: block;"><g opacity="1" transform="matrix(1,0,0,1,0,0)"><path stroke-linecap="round" stroke-linejoin="round" fill-opacity="0" class="primary" stroke="rgb(42,48,107)" stroke-opacity="1" stroke-width="1.5" d=" M26.158000946044922,-4.673999786376953 C12.581999778747559,3.674999952316284 -0.47699999809265137,6.809999942779541 -26.158000946044922,3.183000087738037"/></g></g><g transform="matrix(1,0,0,1,96.66000366210938,97.49800109863281)" opacity="1" style="display: block;"><g opacity="1" transform="matrix(1,0,0,1,0,0)"><path stroke-linecap="round" stroke-linejoin="round" fill-opacity="0" class="primary" stroke="rgb(42,48,107)" stroke-opacity="1" stroke-width="1.5" d=" M64.85299682617188,-8.355999946594238 C13.07699966430664,12.763999938964844 -34.0369987487793,12.491000175476074 -64.85299682617188,-1.4980000257492065"/></g></g><g transform="matrix(1,0,0,1,90.90299987792969,46.077999114990234)" opacity="1" style="display: block;"><g opacity="1" transform="matrix(1,0,0,1,0,0)"><path stroke-linecap="round" stroke-linejoin="round" fill-opacity="0" class="primary" stroke="rgb(42,48,107)" stroke-opacity="1" stroke-width="1.5" d=" M38.654998779296875,-6.556000232696533 C10.690999984741211,9.39900016784668 -19.60300064086914,8.906000137329102 -38.654998779296875,1.937000036239624"/></g></g></g></g></svg>