<svg xmlns="http://www.w3.org/2000/svg" xmlns:xlink="http://www.w3.org/1999/xlink" viewBox="0 0 192 192" width="192" height="192" preserveAspectRatio="xMidYMid meet" style="width: 100%; height: 100%; transform: translate3d(0px, 0px, 0px); content-visibility: visible;"><defs><clipPath id="__lottie_element_11320"><rect width="192" height="192" x="0" y="0"/></clipPath><clipPath id="__lottie_element_11322"><path d="M0,0 L192,0 L192,192 L0,192z"/></clipPath><clipPath id="__lottie_element_11327"><path d="M0,0 L192,0 L192,192 L0,192z"/></clipPath><g id="__lottie_element_11330"><g transform="matrix(1,0,0,1,0,0)" opacity="1" style="display: block;"><g opacity="1" transform="matrix(1,0,0,1,0,0)"><g opacity="1" transform="matrix(1,0,0,1,0,0)"><g opacity="1" transform="matrix(1,0,0,1,127.81500244140625,65.19200134277344)"><g opacity="1" transform="matrix(0.9644006490707397,-0.26444539427757263,0.26444539427757263,0.9644006490707397,0,0)"><path fill="rgb(0,236,255)" fill-opacity="1" d=" M-28.381999969482422,-28.117000579833984 C-31.50200080871582,-25.864999771118164 -27.736000061035156,15.324999809265137 -26.391000747680664,17.325000762939453 C-25.242000579833984,19.033000946044922 -14.039999961853027,18.03499984741211 -8.736000061035156,18.839000701904297 C-5.5879998207092285,19.31599998474121 -1.1480000019073486,31.08300018310547 0.009999999776482582,30.868999481201172 C2.549999952316284,30.39900016784668 6.368000030517578,20.429000854492188 7.446000099182129,18.958999633789062 C8.5600004196167,17.441999435424805 23.115999221801758,19.788000106811523 25.333999633789062,18.027999877929688 C27.51099967956543,16.301000595092773 31.30900001525879,-17.628999710083008 28.714000701904297,-27.92099952697754 C27.492000579833984,-32.76900100708008 -24.698999404907227,-30.770999908447266 -28.381999969482422,-28.117000579833984z"/></g></g></g><g opacity="1" transform="matrix(1,0,0,1,0,0)"><g opacity="1" transform="matrix(1,0,0,1,78.77200317382812,126.59600067138672)"><g opacity="1" transform="matrix(0.9333926439285278,0.3588567078113556,-0.3588567078113556,0.9333926439285278,0,0)"><path fill="rgb(255,250,0)" fill-opacity="1" d=" M-29.868000030517578,-28.62299919128418 C-33.152000427246094,-26.33099937438965 -29.187999725341797,15.600000381469727 -27.773000717163086,17.63599967956543 C-26.56399917602539,19.375 -14.774999618530273,18.358999252319336 -9.194000244140625,19.177000045776367 C-5.88100004196167,19.66200065612793 -1.2089999914169312,31.641000747680664 0.009999999776482582,31.42300033569336 C2.683000087738037,30.94499969482422 6.701000213623047,20.797000885009766 7.835999965667725,19.299999237060547 C9.008999824523926,17.756000518798828 24.326000213623047,20.14299964904785 26.65999984741211,18.351999282836914 C28.950000762939453,16.5939998626709 32.946998596191406,-17.94499969482422 30.216999053955078,-28.422000885009766 C28.930999755859375,-33.356998443603516 -25.992000579833984,-31.325000762939453 -29.868000030517578,-28.62299919128418z"/></g></g></g></g><g opacity="0" transform="matrix(1,0,0,1,0,0)"><g opacity="0" transform="matrix(1,0,0,1,17.75,-46.5)"><g opacity="1" transform="matrix(1,0,0,1,127.81500244140625,65.19200134277344)"><g opacity="1" transform="matrix(0.9644006490707397,-0.26444539427757263,0.26444539427757263,0.9644006490707397,0,0)"><path fill="rgb(61,0,255)" fill-opacity="1" d=" M-0.640999972820282,29.66699981689453 C-0.675000011920929,29.69099998474121 -0.6349999904632568,30.135000228881836 -0.6200000047683716,30.156999588012695 C-0.6079999804496765,30.174999237060547 -0.4860000014305115,30.165000915527344 -0.42899999022483826,30.173999786376953 C-0.39500001072883606,30.179000854492188 -0.3479999899864197,30.30500030517578 -0.33500000834465027,30.30299949645996 C-0.30799999833106995,30.29800033569336 -0.2669999897480011,30.19099998474121 -0.2549999952316284,30.174999237060547 C-0.24300000071525574,30.159000396728516 -0.0860000029206276,30.18400001525879 -0.06199999898672104,30.165000915527344 C-0.039000000804662704,30.145999908447266 0.003000000026077032,29.780000686645508 -0.02500000037252903,29.66900062561035 C-0.03799999877810478,29.617000579833984 -0.6010000109672546,29.63800048828125 -0.640999972820282,29.66699981689453z"/></g></g></g><g opacity="0" transform="matrix(1,0,0,1,93.00000762939453,-20.5)"><g opacity="1" transform="matrix(1,0,0,1,78.77200317382812,126.59600067138672)"><g opacity="1" transform="matrix(0.9333926439285278,0.3588567078113556,-0.3588567078113556,0.9333926439285278,0,0)"><path fill="rgb(255,0,0)" fill-opacity="1" d=" M-0.3619999885559082,31.10099983215332 C-0.3499999940395355,31.091999053955078 -0.36500000953674316,30.937000274658203 -0.3700000047683716,30.929000854492188 C-0.37400001287460327,30.92300033569336 -0.4180000126361847,30.926000595092773 -0.4390000104904175,30.92300033569336 C-0.45100000500679016,30.92099952697754 -0.46799999475479126,30.87700080871582 -0.4729999899864197,30.878000259399414 C-0.4830000102519989,30.8799991607666 -0.49799999594688416,30.91699981689453 -0.5019999742507935,30.92300033569336 C-0.5059999823570251,30.929000854492188 -0.5640000104904175,30.91900062561035 -0.5730000138282776,30.926000595092773 C-0.5820000171661377,30.933000564575195 -0.5960000157356262,31.06100082397461 -0.5860000252723694,31.100000381469727 C-0.5809999704360962,31.118000030517578 -0.37599998712539673,31.111000061035156 -0.3619999885559082,31.10099983215332z"/></g></g></g></g></g></g><filter id="__lottie_element_11339" filterUnits="objectBoundingBox" x="0%" y="0%" width="100%" height="100%"><feComponentTransfer in="SourceGraphic"><feFuncA type="table" tableValues="1.0 0.0"/></feComponentTransfer></filter><mask id="__lottie_element_11330_2" mask-type="alpha" maskUnits="userSpaceOnUse"><g filter="url(#__lottie_element_11339)"><rect width="192" height="192" x="0" y="0" fill="#ffffff" opacity="0"/><use xmlns:ns1="http://www.w3.org/1999/xlink" ns1:href="#__lottie_element_11330"/></g></mask><g id="__lottie_element_11345"><g transform="matrix(1,0,0,1,97.39900207519531,95.53500366210938)" opacity="1" style="display: block;"><path fill="rgb(255,0,0)" fill-opacity="1" d=" M-45.52399826049805,58.641998291015625 C-97.9800033569336,16.191999435424805 -72.70500183105469,-67.8499984741211 -3.8959999084472656,-74.14800262451172 C10.557999610900879,-74.16699981689453 65.95500183105469,-68.76200103759766 73.04100036621094,-6.76800012588501 C78.05799865722656,37.12799835205078 45.91400146484375,68.06400299072266 10.140000343322754,73.37899780273438 C-9.055000305175781,76.23200225830078 -30.1299991607666,71.10099792480469 -45.52399826049805,58.641998291015625z"/><g opacity="1" transform="matrix(1,0,0,1,0,0)"><path stroke-linecap="round" stroke-linejoin="round" fill-opacity="0" class="primary" stroke="rgb(42,48,107)" stroke-opacity="1" stroke-width="3" d=" M-45.52399826049805,58.641998291015625 C-97.9800033569336,16.191999435424805 -72.70500183105469,-67.8499984741211 -3.8959999084472656,-74.14800262451172 C10.557999610900879,-74.16699981689453 65.95500183105469,-68.76200103759766 73.04100036621094,-6.76800012588501 C78.05799865722656,37.12799835205078 45.91400146484375,68.06400299072266 10.140000343322754,73.37899780273438 C-9.055000305175781,76.23200225830078 -30.1299991607666,71.10099792480469 -45.52399826049805,58.641998291015625z"/></g></g></g><g id="__lottie_element_11350"><g transform="matrix(1,0,0,1,97.39900207519531,95.53500366210938)" opacity="1" style="display: block;"><path fill="rgb(255,0,0)" fill-opacity="1" d=" M-45.52399826049805,58.641998291015625 C-97.9800033569336,16.191999435424805 -72.70500183105469,-67.8499984741211 -3.8959999084472656,-74.14800262451172 C10.557999610900879,-74.16699981689453 65.95500183105469,-68.76200103759766 73.04100036621094,-6.76800012588501 C78.05799865722656,37.12799835205078 45.91400146484375,68.06400299072266 10.140000343322754,73.37899780273438 C-9.055000305175781,76.23200225830078 -30.1299991607666,71.10099792480469 -45.52399826049805,58.641998291015625z"/><g opacity="1" transform="matrix(1,0,0,1,0,0)"><path stroke-linecap="round" stroke-linejoin="round" fill-opacity="0" class="primary" stroke="rgb(42,48,107)" stroke-opacity="1" stroke-width="3" d=" M-45.52399826049805,58.641998291015625 C-97.9800033569336,16.191999435424805 -72.70500183105469,-67.8499984741211 -3.8959999084472656,-74.14800262451172 C10.557999610900879,-74.16699981689453 65.95500183105469,-68.76200103759766 73.04100036621094,-6.76800012588501 C78.05799865722656,37.12799835205078 45.91400146484375,68.06400299072266 10.140000343322754,73.37899780273438 C-9.055000305175781,76.23200225830078 -30.1299991607666,71.10099792480469 -45.52399826049805,58.641998291015625z"/></g></g></g><g id="__lottie_element_11356"><g transform="matrix(1,0,0,1,97.39900207519531,95.53500366210938)" opacity="1" style="display: block;"><path fill="rgb(255,0,0)" fill-opacity="1" d=" M-45.52399826049805,58.641998291015625 C-97.9800033569336,16.191999435424805 -72.70500183105469,-67.8499984741211 -3.8959999084472656,-74.14800262451172 C10.557999610900879,-74.16699981689453 65.95500183105469,-68.76200103759766 73.04100036621094,-6.76800012588501 C78.05799865722656,37.12799835205078 45.91400146484375,68.06400299072266 10.140000343322754,73.37899780273438 C-9.055000305175781,76.23200225830078 -30.1299991607666,71.10099792480469 -45.52399826049805,58.641998291015625z"/><g opacity="1" transform="matrix(1,0,0,1,0,0)"><path stroke-linecap="round" stroke-linejoin="round" fill-opacity="0" class="primary" stroke="rgb(42,48,107)" stroke-opacity="1" stroke-width="3" d=" M-45.52399826049805,58.641998291015625 C-97.9800033569336,16.191999435424805 -72.70500183105469,-67.8499984741211 -3.8959999084472656,-74.14800262451172 C10.557999610900879,-74.16699981689453 65.95500183105469,-68.76200103759766 73.04100036621094,-6.76800012588501 C78.05799865722656,37.12799835205078 45.91400146484375,68.06400299072266 10.140000343322754,73.37899780273438 C-9.055000305175781,76.23200225830078 -30.1299991607666,71.10099792480469 -45.52399826049805,58.641998291015625z"/></g></g></g><g id="__lottie_element_11363"><g transform="matrix(1,0,0,1,97.39900207519531,95.53500366210938)" opacity="1" style="display: block;"><path fill="rgb(255,0,0)" fill-opacity="1" d=" M-45.52399826049805,58.641998291015625 C-97.9800033569336,16.191999435424805 -72.70500183105469,-67.8499984741211 -3.8959999084472656,-74.14800262451172 C10.557999610900879,-74.16699981689453 65.95500183105469,-68.76200103759766 73.04100036621094,-6.76800012588501 C78.05799865722656,37.12799835205078 45.91400146484375,68.06400299072266 10.140000343322754,73.37899780273438 C-9.055000305175781,76.23200225830078 -30.1299991607666,71.10099792480469 -45.52399826049805,58.641998291015625z"/><g opacity="1" transform="matrix(1,0,0,1,0,0)"><path stroke-linecap="round" stroke-linejoin="round" fill-opacity="0" class="primary" stroke="rgb(42,48,107)" stroke-opacity="1" stroke-width="3" d=" M-45.52399826049805,58.641998291015625 C-97.9800033569336,16.191999435424805 -72.70500183105469,-67.8499984741211 -3.8959999084472656,-74.14800262451172 C10.557999610900879,-74.16699981689453 65.95500183105469,-68.76200103759766 73.04100036621094,-6.76800012588501 C78.05799865722656,37.12799835205078 45.91400146484375,68.06400299072266 10.140000343322754,73.37899780273438 C-9.055000305175781,76.23200225830078 -30.1299991607666,71.10099792480469 -45.52399826049805,58.641998291015625z"/></g></g></g><g id="__lottie_element_11368"><g transform="matrix(1,0,0,1,97.39900207519531,95.53500366210938)" opacity="1" style="display: block;"><path fill="rgb(255,0,0)" fill-opacity="1" d=" M-45.52399826049805,58.641998291015625 C-97.9800033569336,16.191999435424805 -72.70500183105469,-67.8499984741211 -3.8959999084472656,-74.14800262451172 C10.557999610900879,-74.16699981689453 65.95500183105469,-68.76200103759766 73.04100036621094,-6.76800012588501 C78.05799865722656,37.12799835205078 45.91400146484375,68.06400299072266 10.140000343322754,73.37899780273438 C-9.055000305175781,76.23200225830078 -30.1299991607666,71.10099792480469 -45.52399826049805,58.641998291015625z"/><g opacity="1" transform="matrix(1,0,0,1,0,0)"><path stroke-linecap="round" stroke-linejoin="round" fill-opacity="0" class="primary" stroke="rgb(42,48,107)" stroke-opacity="1" stroke-width="3" d=" M-45.52399826049805,58.641998291015625 C-97.9800033569336,16.191999435424805 -72.70500183105469,-67.8499984741211 -3.8959999084472656,-74.14800262451172 C10.557999610900879,-74.16699981689453 65.95500183105469,-68.76200103759766 73.04100036621094,-6.76800012588501 C78.05799865722656,37.12799835205078 45.91400146484375,68.06400299072266 10.140000343322754,73.37899780273438 C-9.055000305175781,76.23200225830078 -30.1299991607666,71.10099792480469 -45.52399826049805,58.641998291015625z"/></g></g></g><g id="__lottie_element_11374"><g transform="matrix(1,0,0,1,97.39900207519531,95.53500366210938)" opacity="1" style="display: block;"><path fill="rgb(255,0,0)" fill-opacity="1" d=" M-45.52399826049805,58.641998291015625 C-97.9800033569336,16.191999435424805 -72.70500183105469,-67.8499984741211 -3.8959999084472656,-74.14800262451172 C10.557999610900879,-74.16699981689453 65.95500183105469,-68.76200103759766 73.04100036621094,-6.76800012588501 C78.05799865722656,37.12799835205078 45.91400146484375,68.06400299072266 10.140000343322754,73.37899780273438 C-9.055000305175781,76.23200225830078 -30.1299991607666,71.10099792480469 -45.52399826049805,58.641998291015625z"/><g opacity="1" transform="matrix(1,0,0,1,0,0)"><path stroke-linecap="round" stroke-linejoin="round" fill-opacity="0" class="primary" stroke="rgb(42,48,107)" stroke-opacity="1" stroke-width="3" d=" M-45.52399826049805,58.641998291015625 C-97.9800033569336,16.191999435424805 -72.70500183105469,-67.8499984741211 -3.8959999084472656,-74.14800262451172 C10.557999610900879,-74.16699981689453 65.95500183105469,-68.76200103759766 73.04100036621094,-6.76800012588501 C78.05799865722656,37.12799835205078 45.91400146484375,68.06400299072266 10.140000343322754,73.37899780273438 C-9.055000305175781,76.23200225830078 -30.1299991607666,71.10099792480469 -45.52399826049805,58.641998291015625z"/></g></g></g><g id="__lottie_element_11381"><g transform="matrix(1,0,0,1,97.39900207519531,95.53500366210938)" opacity="1" style="display: block;"><path fill="rgb(255,0,0)" fill-opacity="1" d=" M-45.52399826049805,58.641998291015625 C-97.9800033569336,16.191999435424805 -72.70500183105469,-67.8499984741211 -3.8959999084472656,-74.14800262451172 C10.557999610900879,-74.16699981689453 65.95500183105469,-68.76200103759766 73.04100036621094,-6.76800012588501 C78.05799865722656,37.12799835205078 45.91400146484375,68.06400299072266 10.140000343322754,73.37899780273438 C-9.055000305175781,76.23200225830078 -30.1299991607666,71.10099792480469 -45.52399826049805,58.641998291015625z"/><g opacity="1" transform="matrix(1,0,0,1,0,0)"><path stroke-linecap="round" stroke-linejoin="round" fill-opacity="0" class="primary" stroke="rgb(42,48,107)" stroke-opacity="1" stroke-width="3" d=" M-45.52399826049805,58.641998291015625 C-97.9800033569336,16.191999435424805 -72.70500183105469,-67.8499984741211 -3.8959999084472656,-74.14800262451172 C10.557999610900879,-74.16699981689453 65.95500183105469,-68.76200103759766 73.04100036621094,-6.76800012588501 C78.05799865722656,37.12799835205078 45.91400146484375,68.06400299072266 10.140000343322754,73.37899780273438 C-9.055000305175781,76.23200225830078 -30.1299991607666,71.10099792480469 -45.52399826049805,58.641998291015625z"/></g></g></g><g id="__lottie_element_11386"><g transform="matrix(1,0,0,1,97.39900207519531,95.53500366210938)" opacity="1" style="display: block;"><path fill="rgb(255,0,0)" fill-opacity="1" d=" M-45.52399826049805,58.641998291015625 C-97.9800033569336,16.191999435424805 -72.70500183105469,-67.8499984741211 -3.8959999084472656,-74.14800262451172 C10.557999610900879,-74.16699981689453 65.95500183105469,-68.76200103759766 73.04100036621094,-6.76800012588501 C78.05799865722656,37.12799835205078 45.91400146484375,68.06400299072266 10.140000343322754,73.37899780273438 C-9.055000305175781,76.23200225830078 -30.1299991607666,71.10099792480469 -45.52399826049805,58.641998291015625z"/><g opacity="1" transform="matrix(1,0,0,1,0,0)"><path stroke-linecap="round" stroke-linejoin="round" fill-opacity="0" class="primary" stroke="rgb(42,48,107)" stroke-opacity="1" stroke-width="3" d=" M-45.52399826049805,58.641998291015625 C-97.9800033569336,16.191999435424805 -72.70500183105469,-67.8499984741211 -3.8959999084472656,-74.14800262451172 C10.557999610900879,-74.16699981689453 65.95500183105469,-68.76200103759766 73.04100036621094,-6.76800012588501 C78.05799865722656,37.12799835205078 45.91400146484375,68.06400299072266 10.140000343322754,73.37899780273438 C-9.055000305175781,76.23200225830078 -30.1299991607666,71.10099792480469 -45.52399826049805,58.641998291015625z"/></g></g></g><g id="__lottie_element_11392"><g transform="matrix(1,0,0,1,97.39900207519531,95.53500366210938)" opacity="1" style="display: block;"><path fill="rgb(255,0,0)" fill-opacity="1" d=" M-45.52399826049805,58.641998291015625 C-97.9800033569336,16.191999435424805 -72.70500183105469,-67.8499984741211 -3.8959999084472656,-74.14800262451172 C10.557999610900879,-74.16699981689453 65.95500183105469,-68.76200103759766 73.04100036621094,-6.76800012588501 C78.05799865722656,37.12799835205078 45.91400146484375,68.06400299072266 10.140000343322754,73.37899780273438 C-9.055000305175781,76.23200225830078 -30.1299991607666,71.10099792480469 -45.52399826049805,58.641998291015625z"/><g opacity="1" transform="matrix(1,0,0,1,0,0)"><path stroke-linecap="round" stroke-linejoin="round" fill-opacity="0" class="primary" stroke="rgb(42,48,107)" stroke-opacity="1" stroke-width="3" d=" M-45.52399826049805,58.641998291015625 C-97.9800033569336,16.191999435424805 -72.70500183105469,-67.8499984741211 -3.8959999084472656,-74.14800262451172 C10.557999610900879,-74.16699981689453 65.95500183105469,-68.76200103759766 73.04100036621094,-6.76800012588501 C78.05799865722656,37.12799835205078 45.91400146484375,68.06400299072266 10.140000343322754,73.37899780273438 C-9.055000305175781,76.23200225830078 -30.1299991607666,71.10099792480469 -45.52399826049805,58.641998291015625z"/></g></g></g><mask id="__lottie_element_11392_1" mask-type="alpha"><use xmlns:ns2="http://www.w3.org/1999/xlink" ns2:href="#__lottie_element_11392"/></mask><mask id="__lottie_element_11386_1" mask-type="alpha"><use xmlns:ns3="http://www.w3.org/1999/xlink" ns3:href="#__lottie_element_11386"/></mask><mask id="__lottie_element_11381_1" mask-type="alpha"><use xmlns:ns4="http://www.w3.org/1999/xlink" ns4:href="#__lottie_element_11381"/></mask><mask id="__lottie_element_11374_1" mask-type="alpha"><use xmlns:ns5="http://www.w3.org/1999/xlink" ns5:href="#__lottie_element_11374"/></mask><mask id="__lottie_element_11368_1" mask-type="alpha"><use xmlns:ns6="http://www.w3.org/1999/xlink" ns6:href="#__lottie_element_11368"/></mask><mask id="__lottie_element_11363_1" mask-type="alpha"><use xmlns:ns7="http://www.w3.org/1999/xlink" ns7:href="#__lottie_element_11363"/></mask><mask id="__lottie_element_11356_1" mask-type="alpha"><use xmlns:ns8="http://www.w3.org/1999/xlink" ns8:href="#__lottie_element_11356"/></mask><mask id="__lottie_element_11350_1" mask-type="alpha"><use xmlns:ns9="http://www.w3.org/1999/xlink" ns9:href="#__lottie_element_11350"/></mask><mask id="__lottie_element_11345_1" mask-type="alpha"><use xmlns:ns10="http://www.w3.org/1999/xlink" ns10:href="#__lottie_element_11345"/></mask></defs><g clip-path="url(#__lottie_element_11320)"><g clip-path="url(#__lottie_element_11322)" transform="matrix(1,0,0,1,0,0)" opacity="1" style="display: block;"><g mask="url(#__lottie_element_11330_2)" style="display: block;"><g clip-path="url(#__lottie_element_11327)" transform="matrix(1,0,0,1,0,0)" opacity="1"><g mask="url(#__lottie_element_11350_1)" style="display: block;"><g transform="matrix(1,0,0,1,458.24298095703125,94.06700134277344)" opacity="1"><g opacity="1" transform="matrix(1,0,0,1,0,0)"><path class="secondary" fill="rgb(230,142,110)" fill-opacity="1" d=" M-6.584000110626221,-16.38800048828125 C11.550000190734863,-18.388999938964844 9.0600004196167,-44.35900115966797 13.586999893188477,-47.08399963378906 C20.198999404907227,-51.06399917602539 40.79399871826172,-14.84000015258789 22.711000442504883,-11.159000396728516 C8.694000244140625,-8.305999755859375 3.5480000972747803,11.902000427246094 19.025999069213867,18.121000289916992 C30.19099998474121,22.60700035095215 29.222999572753906,13.140000343322754 34.4630012512207,14.543999671936035 C41.612998962402344,16.458999633789062 26.594999313354492,51.43600082397461 17.89299964904785,47 C10.121999740600586,43.03799819946289 22.972000122070312,21.523000717163086 -3.813999891281128,28.44700050354004 C-25.60300064086914,34.077999114990234 -29.97599983215332,36.665000915527344 -34.58399963378906,24.489999771118164 C-37.7239990234375,16.194000244140625 -40.479000091552734,-12.64900016784668 -6.584000110626221,-16.38800048828125z"/><path stroke-linecap="round" stroke-linejoin="round" fill-opacity="0" class="secondary" stroke="rgb(230,142,110)" stroke-opacity="1" stroke-width="1" d=" M-6.584000110626221,-16.38800048828125 C11.550000190734863,-18.388999938964844 9.0600004196167,-44.35900115966797 13.586999893188477,-47.08399963378906 C20.198999404907227,-51.06399917602539 40.79399871826172,-14.84000015258789 22.711000442504883,-11.159000396728516 C8.694000244140625,-8.305999755859375 3.5480000972747803,11.902000427246094 19.025999069213867,18.121000289916992 C30.19099998474121,22.60700035095215 29.222999572753906,13.140000343322754 34.4630012512207,14.543999671936035 C41.612998962402344,16.458999633789062 26.594999313354492,51.43600082397461 17.89299964904785,47 C10.121999740600586,43.03799819946289 22.972000122070312,21.523000717163086 -3.813999891281128,28.44700050354004 C-25.60300064086914,34.077999114990234 -29.97599983215332,36.665000915527344 -34.58399963378906,24.489999771118164 C-37.7239990234375,16.194000244140625 -40.479000091552734,-12.64900016784668 -6.584000110626221,-16.38800048828125z"/></g></g></g><g mask="url(#__lottie_element_11356_1)" style="display: block;"><g transform="matrix(1,0,0,1,374.2590026855469,81.65299987792969)" opacity="1"><g opacity="1" transform="matrix(1,0,0,1,0,0)"><path class="secondary" fill="rgb(230,142,110)" fill-opacity="1" d=" M-3.502000093460083,-31.281999588012695 C-5.309999942779541,-31.05699920654297 -24.93199920654297,-20.184999465942383 -18.329999923706055,17.368000030517578 C-16.54599952697754,27.51799964904785 -7.311999797821045,30.988000869750977 -2.188999891281128,31.40999984741211 C9.147000312805176,32.34199905395508 10.270999908447266,7.4629998207092285 14.194999694824219,5.171000003814697 C17.18899917602539,3.421999931335449 20.166000366210938,2.117000102996826 19.617000579833984,-1.8350000381469727 C18.625,-8.977999687194824 10.295000076293945,-5.895999908447266 7.7210001945495605,-11.913000106811523 C4.947000026702881,-18.398000717163086 11.055000305175781,-33.090999603271484 -3.502000093460083,-31.281999588012695z"/><path stroke-linecap="round" stroke-linejoin="round" fill-opacity="0" class="secondary" stroke="rgb(230,142,110)" stroke-opacity="1" stroke-width="1" d=" M-3.502000093460083,-31.281999588012695 C-5.309999942779541,-31.05699920654297 -24.93199920654297,-20.184999465942383 -18.329999923706055,17.368000030517578 C-16.54599952697754,27.51799964904785 -7.311999797821045,30.988000869750977 -2.188999891281128,31.40999984741211 C9.147000312805176,32.34199905395508 10.270999908447266,7.4629998207092285 14.194999694824219,5.171000003814697 C17.18899917602539,3.421999931335449 20.166000366210938,2.117000102996826 19.617000579833984,-1.8350000381469727 C18.625,-8.977999687194824 10.295000076293945,-5.895999908447266 7.7210001945495605,-11.913000106811523 C4.947000026702881,-18.398000717163086 11.055000305175781,-33.090999603271484 -3.502000093460083,-31.281999588012695z"/></g></g></g><g mask="url(#__lottie_element_11345_1)" style="display: block;"><g transform="matrix(1,0,0,1,326,0)" opacity="1"><g opacity="1" transform="matrix(1,0,0,1,125.44499969482422,94.86699676513672)"><g opacity="1" transform="matrix(1,0,0,1,0,0)"><path stroke-linecap="round" stroke-linejoin="round" fill-opacity="0" class="primary" stroke="rgb(42,48,107)" stroke-opacity="1" stroke-width="2" d=" M-4.953999996185303,-35.33300018310547 C-2.7190001010894775,-35.80400085449219 12.875,-28.625 17.400999069213867,-31.350000381469727 C24.01300048828125,-35.33100128173828 28.50200080871582,-48.40599822998047 29.37700080871582,-47.18000030517578 C47.07500076293945,-22.382999420166016 40.73899841308594,-10.35200023651123 24.94700050354004,-9.414999961853027 C20.452999114990234,-9.14900016784668 26.708999633789062,-0.3869999945163727 31.56999969482422,-1.434999942779541 C35.13399887084961,-2.2039999961853027 38.446998596191406,2.111999988555908 34.44599914550781,4.758999824523926 C32.551998138427734,6.01200008392334 25.986000061035156,5.031000137329102 25.339000701904297,6.823999881744385 C24.41699981689453,9.378000259399414 23.56100082397461,13.105999946594238 25.844999313354492,14.39900016784668 C31.125,17.38800048828125 35.983001708984375,6.140999794006348 38.167999267578125,11.107000350952148 C42.069000244140625,19.97100067138672 27.084999084472656,49.94200134277344 19.93899917602539,47.06700134277344 C14.562999725341797,44.90399932861328 21.684999465942383,33.55799865722656 19.101999282836914,33.74300003051758 C11.015000343322754,34.32099914550781 7.2210001945495605,35.4119987487793 0.27799999713897705,33.32899856567383 C-5.285999774932861,31.65999984741211 -12.255000114440918,40.91899871826172 -17.798999786376953,38.7859992980957 C-20.15999984741211,37.87799835205078 -23.523000717163086,37.361000061035156 -24.886999130249023,35.0890007019043 C-26.731000900268555,32.01499938964844 -24.743000030517578,26.951000213623047 -26.993000030517578,24.05699920654297 C-28.8799991607666,21.631000518798828 -33.50400161743164,21.73200035095215 -35.74800109863281,19.69099998474121 C-40.880001068115234,15.026000022888184 -40.99599838256836,6.267000198364258 -38.255001068115234,0.23600000143051147 C-35.486000061035156,-5.855000019073486 -30.114999771118164,-8.911999702453613 -23.69300079345703,-10.029000282287598 C-21.46299934387207,-10.416999816894531 -18.48699951171875,-9.920000076293945 -16.5310001373291,-11.342000007629395 C-13.48799991607666,-13.555000305175781 -14.291000366210938,-18.312000274658203 -14.501999855041504,-21.48699951171875 C-14.96399974822998,-28.40399932861328 -12.003000259399414,-33.8489990234375 -4.953999996185303,-35.33300018310547z"/></g></g><g opacity="1" transform="matrix(1,0,0,1,46.28099822998047,90.51699829101562)"><g opacity="1" transform="matrix(1,0,0,1,0,0)"><path stroke-linecap="round" stroke-linejoin="round" fill-opacity="0" class="primary" stroke="rgb(42,48,107)" stroke-opacity="1" stroke-width="2" d=" M-8.934000015258789,-37.36399841308594 C-10.081999778747559,-35.94900131225586 -27.54599952697754,-11.166999816894531 -20.593000411987305,22.014999389648438 C-19.986000061035156,24.90999984741211 -10.357000350952148,22.246999740600586 -9.02299976348877,24.47100067138672 C-7.4679999351501465,27.062000274658203 -7.520999908447266,30.51300048828125 -5.965000152587891,33.236000061035156 C-3.3499999046325684,37.8120002746582 3.0390000343322754,40.44900131225586 8.10099983215332,39.555999755859375 C19.301000595092773,37.57899856567383 21.018999099731445,26.926000595092773 17.06999969482422,17.336000442504883 C15.968000411987305,14.66100025177002 13.788000106811523,12.37399959564209 12.993000030517578,9.59000015258789 C11.588000297546387,4.675000190734863 15.079999923706055,0.36800000071525574 18.292999267578125,-2.8450000286102295 C20.7450008392334,-5.296999931335449 23.292999267578125,-7.315000057220459 21.757999420166016,-10.998000144958496 C18.985000610351562,-17.655000686645508 11.711000442504883,-12.559000015258789 7.692999839782715,-17.725000381469727 C3.36299991607666,-23.292999267578125 8.91100025177002,-32.202999114990234 4.2270002365112305,-36.887001037597656 C1.6130000352859497,-39.500999450683594 -5.5970001220703125,-41.47600173950195 -8.934000015258789,-37.36399841308594z"/></g></g><g opacity="1" transform="matrix(1,0,0,1,94.45800018310547,33.66999816894531)"><g opacity="1" transform="matrix(1,0,0,1,0,0)"><path stroke-linecap="round" stroke-linejoin="round" fill-opacity="0" class="primary" stroke="rgb(42,48,107)" stroke-opacity="1" stroke-width="2" d=" M-34.933998107910156,-1.0420000553131104 C-31.589000701904297,-4.205999851226807 -15.45300006866455,-12.354000091552734 2.8350000381469727,-12.333999633789062 C18.17799949645996,-12.317000389099121 37.48899841308594,-3.8380000591278076 36.93000030517578,-2.7200000286102295 C35.59299850463867,-0.04600000008940697 12.14799976348877,-7.26800012588501 0.35100001096725464,-4.144000053405762 C-8.26099967956543,-1.8630000352859497 -6.651000022888184,12.335000038146973 -11.116000175476074,12.335000038146973 C-14.052000045776367,12.335000038146973 -15.866999626159668,7.329999923706055 -18.718000411987305,6.617000102996826 C-22.74799919128418,5.610000133514404 -28.198999404907227,10.904999732971191 -32.26900100708008,9.277000427246094 C-33.882999420166016,8.631999969482422 -40.0890007019043,3.8340001106262207 -34.933998107910156,-1.0420000553131104z"/></g></g><g opacity="1" transform="matrix(1,0,0,1,94.93000030517578,159.87600708007812)"><g opacity="1" transform="matrix(1,0,0,1,0,0)"><path stroke-linecap="round" stroke-linejoin="round" fill-opacity="0" class="primary" stroke="rgb(42,48,107)" stroke-opacity="1" stroke-width="2" d=" M-37.41899871826172,-1.9980000257492065 C-37.41899871826172,-1.4889999628067017 -13.40999984741211,15.890999794006348 23.159000396728516,7.163000106811523 C27.427000045776367,6.144999980926514 30.889999389648438,3.365999937057495 34.75400161743164,1.434000015258789 C35.33300018310547,1.1449999809265137 37.88100051879883,0.18700000643730164 37.345001220703125,-0.8849999904632568 C35.76900100708008,-4.0370001792907715 29.19499969482422,-3.197000026702881 26.433000564575195,-3.749000072479248 C21.691999435424805,-4.697000026702881 15.824000358581543,-7.132999897003174 11.019000053405762,-5.932000160217285 C6.998000144958496,-4.926000118255615 4.00600004196167,-2.196000099182129 0.24199999868869781,-0.7480000257492065 C-3.50600004196167,0.6930000185966492 -7.4070000648498535,0.9459999799728394 -11.35200023651123,0.2070000022649765 C-18.777000427246094,-1.1859999895095825 -23.51099967956543,-11.383000373840332 -31.677000045776367,-9.342000007629395 C-34.10300064086914,-8.734999656677246 -37.41899871826172,-4.3420000076293945 -37.41899871826172,-1.9980000257492065z"/></g></g></g></g><g mask="url(#__lottie_element_11368_1)" style="display: block;"><g transform="matrix(1,0,0,1,296.8710021972656,94.06700134277344)" opacity="1"><g opacity="1" transform="matrix(1,0,0,1,0,0)"><path class="secondary" fill="rgb(230,142,110)" fill-opacity="1" d=" M-6.584000110626221,-16.38800048828125 C11.550000190734863,-18.388999938964844 9.0600004196167,-44.35900115966797 13.586999893188477,-47.08399963378906 C20.198999404907227,-51.06399917602539 40.79399871826172,-14.84000015258789 22.711000442504883,-11.159000396728516 C8.694000244140625,-8.305999755859375 3.5480000972747803,11.902000427246094 19.025999069213867,18.121000289916992 C30.19099998474121,22.60700035095215 29.222999572753906,13.140000343322754 34.4630012512207,14.543999671936035 C41.612998962402344,16.458999633789062 26.594999313354492,51.43600082397461 17.89299964904785,47 C10.121999740600586,43.03799819946289 22.972000122070312,21.523000717163086 -3.813999891281128,28.44700050354004 C-25.60300064086914,34.077999114990234 -29.97599983215332,36.665000915527344 -34.58399963378906,24.489999771118164 C-37.7239990234375,16.194000244140625 -40.479000091552734,-12.64900016784668 -6.584000110626221,-16.38800048828125z"/><path stroke-linecap="round" stroke-linejoin="round" fill-opacity="0" class="secondary" stroke="rgb(230,142,110)" stroke-opacity="1" stroke-width="1" d=" M-6.584000110626221,-16.38800048828125 C11.550000190734863,-18.388999938964844 9.0600004196167,-44.35900115966797 13.586999893188477,-47.08399963378906 C20.198999404907227,-51.06399917602539 40.79399871826172,-14.84000015258789 22.711000442504883,-11.159000396728516 C8.694000244140625,-8.305999755859375 3.5480000972747803,11.902000427246094 19.025999069213867,18.121000289916992 C30.19099998474121,22.60700035095215 29.222999572753906,13.140000343322754 34.4630012512207,14.543999671936035 C41.612998962402344,16.458999633789062 26.594999313354492,51.43600082397461 17.89299964904785,47 C10.121999740600586,43.03799819946289 22.972000122070312,21.523000717163086 -3.813999891281128,28.44700050354004 C-25.60300064086914,34.077999114990234 -29.97599983215332,36.665000915527344 -34.58399963378906,24.489999771118164 C-37.7239990234375,16.194000244140625 -40.479000091552734,-12.64900016784668 -6.584000110626221,-16.38800048828125z"/></g></g></g><g mask="url(#__lottie_element_11374_1)" style="display: block;"><g transform="matrix(1,0,0,1,212.88600158691406,81.65299987792969)" opacity="1"><g opacity="1" transform="matrix(1,0,0,1,0,0)"><path class="secondary" fill="rgb(230,142,110)" fill-opacity="1" d=" M-3.502000093460083,-31.281999588012695 C-5.309999942779541,-31.05699920654297 -24.93199920654297,-20.184999465942383 -18.329999923706055,17.368000030517578 C-16.54599952697754,27.51799964904785 -7.311999797821045,30.988000869750977 -2.188999891281128,31.40999984741211 C9.147000312805176,32.34199905395508 10.270999908447266,7.4629998207092285 14.194999694824219,5.171000003814697 C17.18899917602539,3.421999931335449 20.166000366210938,2.117000102996826 19.617000579833984,-1.8350000381469727 C18.625,-8.977999687194824 10.295000076293945,-5.895999908447266 7.7210001945495605,-11.913000106811523 C4.947000026702881,-18.398000717163086 11.055000305175781,-33.090999603271484 -3.502000093460083,-31.281999588012695z"/><path stroke-linecap="round" stroke-linejoin="round" fill-opacity="0" class="secondary" stroke="rgb(230,142,110)" stroke-opacity="1" stroke-width="1" d=" M-3.502000093460083,-31.281999588012695 C-5.309999942779541,-31.05699920654297 -24.93199920654297,-20.184999465942383 -18.329999923706055,17.368000030517578 C-16.54599952697754,27.51799964904785 -7.311999797821045,30.988000869750977 -2.188999891281128,31.40999984741211 C9.147000312805176,32.34199905395508 10.270999908447266,7.4629998207092285 14.194999694824219,5.171000003814697 C17.18899917602539,3.421999931335449 20.166000366210938,2.117000102996826 19.617000579833984,-1.8350000381469727 C18.625,-8.977999687194824 10.295000076293945,-5.895999908447266 7.7210001945495605,-11.913000106811523 C4.947000026702881,-18.398000717163086 11.055000305175781,-33.090999603271484 -3.502000093460083,-31.281999588012695z"/></g></g></g><g mask="url(#__lottie_element_11363_1)" style="display: block;"><g transform="matrix(1,0,0,1,164.5,0)" opacity="1"><g opacity="1" transform="matrix(1,0,0,1,125.44499969482422,94.86699676513672)"><g opacity="1" transform="matrix(1,0,0,1,0,0)"><path stroke-linecap="round" stroke-linejoin="round" fill-opacity="0" class="primary" stroke="rgb(42,48,107)" stroke-opacity="1" stroke-width="2" d=" M-4.953999996185303,-35.33300018310547 C-2.7190001010894775,-35.80400085449219 12.875,-28.625 17.400999069213867,-31.350000381469727 C24.01300048828125,-35.33100128173828 28.50200080871582,-48.40599822998047 29.37700080871582,-47.18000030517578 C47.07500076293945,-22.382999420166016 40.73899841308594,-10.35200023651123 24.94700050354004,-9.414999961853027 C20.452999114990234,-9.14900016784668 26.708999633789062,-0.3869999945163727 31.56999969482422,-1.434999942779541 C35.13399887084961,-2.2039999961853027 38.446998596191406,2.111999988555908 34.44599914550781,4.758999824523926 C32.551998138427734,6.01200008392334 25.986000061035156,5.031000137329102 25.339000701904297,6.823999881744385 C24.41699981689453,9.378000259399414 23.56100082397461,13.105999946594238 25.844999313354492,14.39900016784668 C31.125,17.38800048828125 35.983001708984375,6.140999794006348 38.167999267578125,11.107000350952148 C42.069000244140625,19.97100067138672 27.084999084472656,49.94200134277344 19.93899917602539,47.06700134277344 C14.562999725341797,44.90399932861328 21.684999465942383,33.55799865722656 19.101999282836914,33.74300003051758 C11.015000343322754,34.32099914550781 7.2210001945495605,35.4119987487793 0.27799999713897705,33.32899856567383 C-5.285999774932861,31.65999984741211 -12.255000114440918,40.91899871826172 -17.798999786376953,38.7859992980957 C-20.15999984741211,37.87799835205078 -23.523000717163086,37.361000061035156 -24.886999130249023,35.0890007019043 C-26.731000900268555,32.01499938964844 -24.743000030517578,26.951000213623047 -26.993000030517578,24.05699920654297 C-28.8799991607666,21.631000518798828 -33.50400161743164,21.73200035095215 -35.74800109863281,19.69099998474121 C-40.880001068115234,15.026000022888184 -40.99599838256836,6.267000198364258 -38.255001068115234,0.23600000143051147 C-35.486000061035156,-5.855000019073486 -30.114999771118164,-8.911999702453613 -23.69300079345703,-10.029000282287598 C-21.46299934387207,-10.416999816894531 -18.48699951171875,-9.920000076293945 -16.5310001373291,-11.342000007629395 C-13.48799991607666,-13.555000305175781 -14.291000366210938,-18.312000274658203 -14.501999855041504,-21.48699951171875 C-14.96399974822998,-28.40399932861328 -12.003000259399414,-33.8489990234375 -4.953999996185303,-35.33300018310547z"/></g></g><g opacity="1" transform="matrix(1,0,0,1,46.28099822998047,90.51699829101562)"><g opacity="1" transform="matrix(1,0,0,1,0,0)"><path stroke-linecap="round" stroke-linejoin="round" fill-opacity="0" class="primary" stroke="rgb(42,48,107)" stroke-opacity="1" stroke-width="2" d=" M-8.934000015258789,-37.36399841308594 C-10.081999778747559,-35.94900131225586 -27.54599952697754,-11.166999816894531 -20.593000411987305,22.014999389648438 C-19.986000061035156,24.90999984741211 -10.357000350952148,22.246999740600586 -9.02299976348877,24.47100067138672 C-7.4679999351501465,27.062000274658203 -7.520999908447266,30.51300048828125 -5.965000152587891,33.236000061035156 C-3.3499999046325684,37.8120002746582 3.0390000343322754,40.44900131225586 8.10099983215332,39.555999755859375 C19.301000595092773,37.57899856567383 21.018999099731445,26.926000595092773 17.06999969482422,17.336000442504883 C15.968000411987305,14.66100025177002 13.788000106811523,12.37399959564209 12.993000030517578,9.59000015258789 C11.588000297546387,4.675000190734863 15.079999923706055,0.36800000071525574 18.292999267578125,-2.8450000286102295 C20.7450008392334,-5.296999931335449 23.292999267578125,-7.315000057220459 21.757999420166016,-10.998000144958496 C18.985000610351562,-17.655000686645508 11.711000442504883,-12.559000015258789 7.692999839782715,-17.725000381469727 C3.36299991607666,-23.292999267578125 8.91100025177002,-32.202999114990234 4.2270002365112305,-36.887001037597656 C1.6130000352859497,-39.500999450683594 -5.5970001220703125,-41.47600173950195 -8.934000015258789,-37.36399841308594z"/></g></g><g opacity="1" transform="matrix(1,0,0,1,94.45800018310547,33.66999816894531)"><g opacity="1" transform="matrix(1,0,0,1,0,0)"><path stroke-linecap="round" stroke-linejoin="round" fill-opacity="0" class="primary" stroke="rgb(42,48,107)" stroke-opacity="1" stroke-width="2" d=" M-34.933998107910156,-1.0420000553131104 C-31.589000701904297,-4.205999851226807 -15.45300006866455,-12.354000091552734 2.8350000381469727,-12.333999633789062 C18.17799949645996,-12.317000389099121 37.48899841308594,-3.8380000591278076 36.93000030517578,-2.7200000286102295 C35.59299850463867,-0.04600000008940697 12.14799976348877,-7.26800012588501 0.35100001096725464,-4.144000053405762 C-8.26099967956543,-1.8630000352859497 -6.651000022888184,12.335000038146973 -11.116000175476074,12.335000038146973 C-14.052000045776367,12.335000038146973 -15.866999626159668,7.329999923706055 -18.718000411987305,6.617000102996826 C-22.74799919128418,5.610000133514404 -28.198999404907227,10.904999732971191 -32.26900100708008,9.277000427246094 C-33.882999420166016,8.631999969482422 -40.0890007019043,3.8340001106262207 -34.933998107910156,-1.0420000553131104z"/></g></g><g opacity="1" transform="matrix(1,0,0,1,94.93000030517578,159.87600708007812)"><g opacity="1" transform="matrix(1,0,0,1,0,0)"><path stroke-linecap="round" stroke-linejoin="round" fill-opacity="0" class="primary" stroke="rgb(42,48,107)" stroke-opacity="1" stroke-width="2" d=" M-37.41899871826172,-1.9980000257492065 C-37.41899871826172,-1.4889999628067017 -13.40999984741211,15.890999794006348 23.159000396728516,7.163000106811523 C27.427000045776367,6.144999980926514 30.889999389648438,3.365999937057495 34.75400161743164,1.434000015258789 C35.33300018310547,1.1449999809265137 37.88100051879883,0.18700000643730164 37.345001220703125,-0.8849999904632568 C35.76900100708008,-4.0370001792907715 29.19499969482422,-3.197000026702881 26.433000564575195,-3.749000072479248 C21.691999435424805,-4.697000026702881 15.824000358581543,-7.132999897003174 11.019000053405762,-5.932000160217285 C6.998000144958496,-4.926000118255615 4.00600004196167,-2.196000099182129 0.24199999868869781,-0.7480000257492065 C-3.50600004196167,0.6930000185966492 -7.4070000648498535,0.9459999799728394 -11.35200023651123,0.2070000022649765 C-18.777000427246094,-1.1859999895095825 -23.51099967956543,-11.383000373840332 -31.677000045776367,-9.342000007629395 C-34.10300064086914,-8.734999656677246 -37.41899871826172,-4.3420000076293945 -37.41899871826172,-1.9980000257492065z"/></g></g></g></g><g mask="url(#__lottie_element_11386_1)" style="display: block;"><g transform="matrix(1,0,0,1,132.24298095703125,94.06700134277344)" opacity="1"><g opacity="1" transform="matrix(1,0,0,1,0,0)"><path class="secondary" fill="rgb(230,142,110)" fill-opacity="1" d=" M-6.584000110626221,-16.38800048828125 C11.550000190734863,-18.388999938964844 9.0600004196167,-44.35900115966797 13.586999893188477,-47.08399963378906 C20.198999404907227,-51.06399917602539 40.79399871826172,-14.84000015258789 22.711000442504883,-11.159000396728516 C8.694000244140625,-8.305999755859375 3.5480000972747803,11.902000427246094 19.025999069213867,18.121000289916992 C30.19099998474121,22.60700035095215 29.222999572753906,13.140000343322754 34.4630012512207,14.543999671936035 C41.612998962402344,16.458999633789062 26.594999313354492,51.43600082397461 17.89299964904785,47 C10.121999740600586,43.03799819946289 22.972000122070312,21.523000717163086 -3.813999891281128,28.44700050354004 C-25.60300064086914,34.077999114990234 -29.97599983215332,36.665000915527344 -34.58399963378906,24.489999771118164 C-37.7239990234375,16.194000244140625 -40.479000091552734,-12.64900016784668 -6.584000110626221,-16.38800048828125z"/><path stroke-linecap="round" stroke-linejoin="round" fill-opacity="0" class="secondary" stroke="rgb(230,142,110)" stroke-opacity="1" stroke-width="1" d=" M-6.584000110626221,-16.38800048828125 C11.550000190734863,-18.388999938964844 9.0600004196167,-44.35900115966797 13.586999893188477,-47.08399963378906 C20.198999404907227,-51.06399917602539 40.79399871826172,-14.84000015258789 22.711000442504883,-11.159000396728516 C8.694000244140625,-8.305999755859375 3.5480000972747803,11.902000427246094 19.025999069213867,18.121000289916992 C30.19099998474121,22.60700035095215 29.222999572753906,13.140000343322754 34.4630012512207,14.543999671936035 C41.612998962402344,16.458999633789062 26.594999313354492,51.43600082397461 17.89299964904785,47 C10.121999740600586,43.03799819946289 22.972000122070312,21.523000717163086 -3.813999891281128,28.44700050354004 C-25.60300064086914,34.077999114990234 -29.97599983215332,36.665000915527344 -34.58399963378906,24.489999771118164 C-37.7239990234375,16.194000244140625 -40.479000091552734,-12.64900016784668 -6.584000110626221,-16.38800048828125z"/></g></g></g><g mask="url(#__lottie_element_11392_1)" style="display: block;"><g transform="matrix(1,0,0,1,48.259002685546875,81.65299987792969)" opacity="1"><g opacity="1" transform="matrix(1,0,0,1,0,0)"><path class="secondary" fill="rgb(230,142,110)" fill-opacity="1" d=" M-3.502000093460083,-31.281999588012695 C-5.309999942779541,-31.05699920654297 -24.93199920654297,-20.184999465942383 -18.329999923706055,17.368000030517578 C-16.54599952697754,27.51799964904785 -7.311999797821045,30.988000869750977 -2.188999891281128,31.40999984741211 C9.147000312805176,32.34199905395508 10.270999908447266,7.4629998207092285 14.194999694824219,5.171000003814697 C17.18899917602539,3.421999931335449 20.166000366210938,2.117000102996826 19.617000579833984,-1.8350000381469727 C18.625,-8.977999687194824 10.295000076293945,-5.895999908447266 7.7210001945495605,-11.913000106811523 C4.947000026702881,-18.398000717163086 11.055000305175781,-33.090999603271484 -3.502000093460083,-31.281999588012695z"/><path stroke-linecap="round" stroke-linejoin="round" fill-opacity="0" class="secondary" stroke="rgb(230,142,110)" stroke-opacity="1" stroke-width="1" d=" M-3.502000093460083,-31.281999588012695 C-5.309999942779541,-31.05699920654297 -24.93199920654297,-20.184999465942383 -18.329999923706055,17.368000030517578 C-16.54599952697754,27.51799964904785 -7.311999797821045,30.988000869750977 -2.188999891281128,31.40999984741211 C9.147000312805176,32.34199905395508 10.270999908447266,7.4629998207092285 14.194999694824219,5.171000003814697 C17.18899917602539,3.421999931335449 20.166000366210938,2.117000102996826 19.617000579833984,-1.8350000381469727 C18.625,-8.977999687194824 10.295000076293945,-5.895999908447266 7.7210001945495605,-11.913000106811523 C4.947000026702881,-18.398000717163086 11.055000305175781,-33.090999603271484 -3.502000093460083,-31.281999588012695z"/></g></g></g><g mask="url(#__lottie_element_11381_1)" style="display: block;"><g transform="matrix(1,0,0,1,0,0)" opacity="1"><g opacity="1" transform="matrix(1,0,0,1,125.44499969482422,94.86699676513672)"><g opacity="1" transform="matrix(1,0,0,1,0,0)"><path stroke-linecap="round" stroke-linejoin="round" fill-opacity="0" class="primary" stroke="rgb(42,48,107)" stroke-opacity="1" stroke-width="2" d=" M-4.953999996185303,-35.33300018310547 C-2.7190001010894775,-35.80400085449219 12.875,-28.625 17.400999069213867,-31.350000381469727 C24.01300048828125,-35.33100128173828 28.50200080871582,-48.40599822998047 29.37700080871582,-47.18000030517578 C47.07500076293945,-22.382999420166016 40.73899841308594,-10.35200023651123 24.94700050354004,-9.414999961853027 C20.452999114990234,-9.14900016784668 26.708999633789062,-0.3869999945163727 31.56999969482422,-1.434999942779541 C35.13399887084961,-2.2039999961853027 38.446998596191406,2.111999988555908 34.44599914550781,4.758999824523926 C32.551998138427734,6.01200008392334 25.986000061035156,5.031000137329102 25.339000701904297,6.823999881744385 C24.41699981689453,9.378000259399414 23.56100082397461,13.105999946594238 25.844999313354492,14.39900016784668 C31.125,17.38800048828125 35.983001708984375,6.140999794006348 38.167999267578125,11.107000350952148 C42.069000244140625,19.97100067138672 27.084999084472656,49.94200134277344 19.93899917602539,47.06700134277344 C14.562999725341797,44.90399932861328 21.684999465942383,33.55799865722656 19.101999282836914,33.74300003051758 C11.015000343322754,34.32099914550781 7.2210001945495605,35.4119987487793 0.27799999713897705,33.32899856567383 C-5.285999774932861,31.65999984741211 -12.255000114440918,40.91899871826172 -17.798999786376953,38.7859992980957 C-20.15999984741211,37.87799835205078 -23.523000717163086,37.361000061035156 -24.886999130249023,35.0890007019043 C-26.731000900268555,32.01499938964844 -24.743000030517578,26.951000213623047 -26.993000030517578,24.05699920654297 C-28.8799991607666,21.631000518798828 -33.50400161743164,21.73200035095215 -35.74800109863281,19.69099998474121 C-40.880001068115234,15.026000022888184 -40.99599838256836,6.267000198364258 -38.255001068115234,0.23600000143051147 C-35.486000061035156,-5.855000019073486 -30.114999771118164,-8.911999702453613 -23.69300079345703,-10.029000282287598 C-21.46299934387207,-10.416999816894531 -18.48699951171875,-9.920000076293945 -16.5310001373291,-11.342000007629395 C-13.48799991607666,-13.555000305175781 -14.291000366210938,-18.312000274658203 -14.501999855041504,-21.48699951171875 C-14.96399974822998,-28.40399932861328 -12.003000259399414,-33.8489990234375 -4.953999996185303,-35.33300018310547z"/></g></g><g opacity="1" transform="matrix(1,0,0,1,46.28099822998047,90.51699829101562)"><g opacity="1" transform="matrix(1,0,0,1,0,0)"><path stroke-linecap="round" stroke-linejoin="round" fill-opacity="0" class="primary" stroke="rgb(42,48,107)" stroke-opacity="1" stroke-width="2" d=" M-8.934000015258789,-37.36399841308594 C-10.081999778747559,-35.94900131225586 -27.54599952697754,-11.166999816894531 -20.593000411987305,22.014999389648438 C-19.986000061035156,24.90999984741211 -10.357000350952148,22.246999740600586 -9.02299976348877,24.47100067138672 C-7.4679999351501465,27.062000274658203 -7.520999908447266,30.51300048828125 -5.965000152587891,33.236000061035156 C-3.3499999046325684,37.8120002746582 3.0390000343322754,40.44900131225586 8.10099983215332,39.555999755859375 C19.301000595092773,37.57899856567383 21.018999099731445,26.926000595092773 17.06999969482422,17.336000442504883 C15.968000411987305,14.66100025177002 13.788000106811523,12.37399959564209 12.993000030517578,9.59000015258789 C11.588000297546387,4.675000190734863 15.079999923706055,0.36800000071525574 18.292999267578125,-2.8450000286102295 C20.7450008392334,-5.296999931335449 23.292999267578125,-7.315000057220459 21.757999420166016,-10.998000144958496 C18.985000610351562,-17.655000686645508 11.711000442504883,-12.559000015258789 7.692999839782715,-17.725000381469727 C3.36299991607666,-23.292999267578125 8.91100025177002,-32.202999114990234 4.2270002365112305,-36.887001037597656 C1.6130000352859497,-39.500999450683594 -5.5970001220703125,-41.47600173950195 -8.934000015258789,-37.36399841308594z"/></g></g><g opacity="1" transform="matrix(1,0,0,1,94.45800018310547,33.66999816894531)"><g opacity="1" transform="matrix(1,0,0,1,0,0)"><path stroke-linecap="round" stroke-linejoin="round" fill-opacity="0" class="primary" stroke="rgb(42,48,107)" stroke-opacity="1" stroke-width="2" d=" M-34.933998107910156,-1.0420000553131104 C-31.589000701904297,-4.205999851226807 -15.45300006866455,-12.354000091552734 2.8350000381469727,-12.333999633789062 C18.17799949645996,-12.317000389099121 37.48899841308594,-3.8380000591278076 36.93000030517578,-2.7200000286102295 C35.59299850463867,-0.04600000008940697 12.14799976348877,-7.26800012588501 0.35100001096725464,-4.144000053405762 C-8.26099967956543,-1.8630000352859497 -6.651000022888184,12.335000038146973 -11.116000175476074,12.335000038146973 C-14.052000045776367,12.335000038146973 -15.866999626159668,7.329999923706055 -18.718000411987305,6.617000102996826 C-22.74799919128418,5.610000133514404 -28.198999404907227,10.904999732971191 -32.26900100708008,9.277000427246094 C-33.882999420166016,8.631999969482422 -40.0890007019043,3.8340001106262207 -34.933998107910156,-1.0420000553131104z"/></g></g><g opacity="1" transform="matrix(1,0,0,1,94.93000030517578,159.87600708007812)"><g opacity="1" transform="matrix(1,0,0,1,0,0)"><path stroke-linecap="round" stroke-linejoin="round" fill-opacity="0" class="primary" stroke="rgb(42,48,107)" stroke-opacity="1" stroke-width="2" d=" M-37.41899871826172,-1.9980000257492065 C-37.41899871826172,-1.4889999628067017 -13.40999984741211,15.890999794006348 23.159000396728516,7.163000106811523 C27.427000045776367,6.144999980926514 30.889999389648438,3.365999937057495 34.75400161743164,1.434000015258789 C35.33300018310547,1.1449999809265137 37.88100051879883,0.18700000643730164 37.345001220703125,-0.8849999904632568 C35.76900100708008,-4.0370001792907715 29.19499969482422,-3.197000026702881 26.433000564575195,-3.749000072479248 C21.691999435424805,-4.697000026702881 15.824000358581543,-7.132999897003174 11.019000053405762,-5.932000160217285 C6.998000144958496,-4.926000118255615 4.00600004196167,-2.196000099182129 0.24199999868869781,-0.7480000257492065 C-3.50600004196167,0.6930000185966492 -7.4070000648498535,0.9459999799728394 -11.35200023651123,0.2070000022649765 C-18.777000427246094,-1.1859999895095825 -23.51099967956543,-11.383000373840332 -31.677000045776367,-9.342000007629395 C-34.10300064086914,-8.734999656677246 -37.41899871826172,-4.3420000076293945 -37.41899871826172,-1.9980000257492065z"/></g></g></g></g><g transform="matrix(1,0,0,1,97.39900207519531,95.53500366210938)" opacity="1" style="display: block;"><g opacity="1" transform="matrix(1,0,0,1,0,0)"><path stroke-linecap="round" stroke-linejoin="round" fill-opacity="0" class="primary" stroke="rgb(42,48,107)" stroke-opacity="1" stroke-width="3" d=" M-45.52399826049805,58.641998291015625 C-97.9800033569336,16.191999435424805 -72.70500183105469,-67.8499984741211 -3.8959999084472656,-74.14800262451172 C10.557999610900879,-74.16699981689453 65.95500183105469,-68.76200103759766 73.04100036621094,-6.76800012588501 C78.05799865722656,37.12799835205078 45.91400146484375,68.06400299072266 10.140000343322754,73.37899780273438 C-9.055000305175781,76.23200225830078 -30.1299991607666,71.10099792480469 -45.52399826049805,58.641998291015625z"/></g></g><g transform="matrix(1,0,0,1,95.61799621582031,96.51000213623047)" opacity="1" style="display: block;"><g opacity="1" transform="matrix(1,0,0,1,0,0)"><path stroke-linecap="round" stroke-linejoin="round" fill-opacity="0" class="primary" stroke="rgb(42,48,107)" stroke-opacity="1" stroke-width="2.002" d=" M-7.085999965667725,86.51599884033203 C-10.697999954223633,86.23100280761719 -14.302000045776367,85.72200012207031 -17.865999221801758,84.98999786376953"/></g></g><g transform="matrix(1,0,0,1,95.61799621582031,95.51000213623047)" opacity="1" style="display: block;"><g opacity="1" transform="matrix(1,0,0,1,0,0)"><path stroke-linecap="round" stroke-linejoin="round" fill-opacity="0" class="primary" stroke="rgb(42,48,107)" stroke-opacity="1" stroke-width="2.002" d=" M-23.165000915527344,83.73100280761719 C-34.07500076293945,80.77799987792969 -44.43000030517578,75.70500183105469 -53.20899963378906,68.5999984741211 C-53.20899963378906,68.5999984741211 -53.20899963378906,68.5999984741211 -53.20899963378906,68.5999984741211 C-61.856998443603516,61.60100173950195 -68.58499908447266,53.5260009765625 -73.55500030517578,44.81100082397461"/></g></g><g transform="matrix(1,0,0,1,95.61799621582031,96.51000213623047)" opacity="1" style="display: block;"><g opacity="1" transform="matrix(1,0,0,1,0,0)"><path stroke-linecap="round" stroke-linejoin="round" fill-opacity="0" class="primary" stroke="rgb(42,48,107)" stroke-opacity="1" stroke-width="2.002" d=" M16.410999298095703,-85.70899963378906 C21.474000930786133,-84.87200164794922 26.83300018310547,-83.60700225830078 32.24399948120117,-81.74199676513672"/></g></g><g transform="matrix(1,0,0,1,96.36799621582031,97.51000213623047)" opacity="1" style="display: block;"><g opacity="1" transform="matrix(1,0,0,1,0,0)"><path stroke-linecap="round" stroke-linejoin="round" fill-opacity="0" class="primary" stroke="rgb(42,48,107)" stroke-opacity="1" stroke-width="2.002" d=" M39.78300094604492,-78.74199676513672 C57.70399856567383,-70.58899688720703 74.95899963378906,-54.95100021362305 82.66699981689453,-25.511999130249023"/></g></g><g transform="matrix(1,0,0,1,94.86799621582031,96.51000213623047)" opacity="1" style="display: block;"><g opacity="1" transform="matrix(1,0,0,1,0,0)"><path stroke-linecap="round" stroke-linejoin="round" fill-opacity="0" class="primary" stroke="rgb(42,48,107)" stroke-opacity="1" stroke-width="2.002" d=" M-81.44000244140625,-21.975000381469727 C-74.91200256347656,-46.82400131225586 -58.564998626708984,-68.88400268554688 -35.47800064086914,-79.8489990234375"/></g></g></g></g><g transform="matrix(1,0,0,1,0,0)" opacity="1" style="display: block;"><g opacity="1" transform="matrix(1,0,0,1,127.81500244140625,65.19200134277344)"><g opacity="1" transform="matrix(0.9644006490707397,-0.26444539427757263,0.26444539427757263,0.9644006490707397,0,0)"><path stroke-linecap="round" stroke-linejoin="round" fill-opacity="0" class="primary" stroke="rgb(42,48,107)" stroke-opacity="1" stroke-width="3" d=" M-28.381999969482422,-28.117000579833984 C-31.50200080871582,-25.864999771118164 -27.736000061035156,15.324999809265137 -26.391000747680664,17.325000762939453 C-25.242000579833984,19.033000946044922 -14.039999961853027,18.03499984741211 -8.736000061035156,18.839000701904297 C-5.5879998207092285,19.31599998474121 -1.1480000019073486,31.08300018310547 0.009999999776482582,30.868999481201172 C2.549999952316284,30.39900016784668 6.368000030517578,20.429000854492188 7.446000099182129,18.958999633789062 C8.5600004196167,17.441999435424805 23.115999221801758,19.788000106811523 25.333999633789062,18.027999877929688 C27.51099967956543,16.301000595092773 31.30900001525879,-17.628999710083008 28.714000701904297,-27.92099952697754 C27.492000579833984,-32.76900100708008 -24.698999404907227,-30.770999908447266 -28.381999969482422,-28.117000579833984z"/></g></g><g opacity="1" transform="matrix(1,0,0,1,123.24299621582031,49.56399917602539)"><g opacity="1" transform="matrix(0.92594313621521,-0.3776630163192749,0.3776630163192749,0.92594313621521,0,0)"><path stroke-linecap="round" stroke-linejoin="round" fill-opacity="0" class="primary" stroke="rgb(42,48,107)" stroke-opacity="1" stroke-width="2" d=" M-14.550999641418457,1.5440000295639038 C-15.067000389099121,1.9459999799728394 -14.994000434875488,2.996999979019165 -15.142000198364258,4.908999919891357 C-7.520999908447266,5.395999908447266 13.27299976348877,7.24399995803833 14.49899959564209,7.439000129699707 C14.996999740600586,7.519000053405762 15.381999969482422,4.6579999923706055 14.96399974822998,4.245999813079834 C10.958000183105469,0.2800000011920929 1.13100004196167,-7.510000228881836 0.9129999876022339,-7.440000057220459 C0.20600000023841858,-7.210000038146973 -8.727999687194824,-2.989000082015991 -14.550999641418457,1.5440000295639038z"/></g></g><g opacity="1" transform="matrix(1,0,0,1,131.26199340820312,72.26200103759766)"><g opacity="1" transform="matrix(0.92594313621521,-0.3776630163192749,0.3776630163192749,0.92594313621521,0,0)"><path stroke-linecap="round" stroke-linejoin="round" fill-opacity="0" class="primary" stroke="rgb(42,48,107)" stroke-opacity="1" stroke-width="2" d=" M12.809000015258789,4.047999858856201 C13.77400016784668,4.124000072479248 14.770000457763672,1.784000039100647 15.052000045776367,-1.1419999599456787 C14.102999687194824,-1.1419999599456787 -7.936999797821045,-3.489000082015991 -14.946999549865723,-4.050000190734863 C-15.218999862670898,-4.072999954223633 -14.880999565124512,-0.7279999852180481 -14.859999656677246,0.8230000138282776 C-14.852999687194824,1.3200000524520874 5.629000186920166,3.4769999980926514 12.809000015258789,4.047999858856201z"/></g></g><g opacity="1" transform="matrix(1,0,0,1,124.10800170898438,63.67900085449219)"><g opacity="1" transform="matrix(0.92594313621521,-0.3776630163192749,0.3776630163192749,0.92594313621521,0,0)"><path stroke-linecap="round" stroke-linejoin="round" fill-opacity="0" class="primary" stroke="rgb(42,48,107)" stroke-opacity="1" stroke-width="2" d=" M-0.3540000021457672,7.078999996185303 C-0.3540000021457672,3.2950000762939453 0.4959999918937683,-6.125999927520752 0.33399999141693115,-7.078999996185303"/></g></g><g opacity="1" transform="matrix(1,0,0,1,131.36199951171875,61.54800033569336)"><g opacity="1" transform="matrix(0.92594313621521,-0.3776630163192749,0.3776630163192749,0.92594313621521,0,0)"><path stroke-linecap="round" stroke-linejoin="round" fill-opacity="0" class="primary" stroke="rgb(42,48,107)" stroke-opacity="1" stroke-width="2" d=" M-0.9890000224113464,7.011000156402588 C-0.7170000076293945,5.638999938964844 0.8330000042915344,-5.821000099182129 0.9890000224113464,-7.011000156402588"/></g></g><g opacity="1" transform="matrix(1,0,0,1,116.28299713134766,66.15699768066406)"><g opacity="1" transform="matrix(0.92594313621521,-0.3776630163192749,0.3776630163192749,0.92594313621521,0,0)"><path stroke-linecap="round" stroke-linejoin="round" fill-opacity="0" class="primary" stroke="rgb(42,48,107)" stroke-opacity="1" stroke-width="2" d=" M0.18400000035762787,7.10099983215332 C0.04399999976158142,4.829999923706055 -0.2329999953508377,-7.324999809265137 -0.1770000010728836,-7.0970001220703125"/></g></g><g opacity="1" transform="matrix(1,0,0,1,139.48899841308594,58.680999755859375)"><g opacity="1" transform="matrix(0.92594313621521,-0.3776630163192749,0.3776630163192749,0.92594313621521,0,0)"><path stroke-linecap="round" stroke-linejoin="round" fill-opacity="0" class="primary" stroke="rgb(42,48,107)" stroke-opacity="1" stroke-width="2" d=" M-1.5579999685287476,7.1539998054504395 C-0.9549999833106995,5.0320000648498535 1.5889999866485596,-7.329999923706055 1.5579999685287476,-7.1519999504089355"/></g></g></g><g transform="matrix(1,0,0,1,0,0)" opacity="1" style="display: block;"><g opacity="1" transform="matrix(1,0,0,1,78.77200317382812,126.59600067138672)"><g opacity="1" transform="matrix(0.9333926439285278,0.3588567078113556,-0.3588567078113556,0.9333926439285278,0,0)"><path stroke-linecap="round" stroke-linejoin="round" fill-opacity="0" class="primary" stroke="rgb(42,48,107)" stroke-opacity="1" stroke-width="3.005" d=" M-29.868000030517578,-28.62299919128418 C-33.152000427246094,-26.33099937438965 -29.187999725341797,15.600000381469727 -27.773000717163086,17.63599967956543 C-26.56399917602539,19.375 -14.774999618530273,18.358999252319336 -9.194000244140625,19.177000045776367 C-5.88100004196167,19.66200065612793 -1.2089999914169312,31.641000747680664 0.009999999776482582,31.42300033569336 C2.683000087738037,30.94499969482422 6.701000213623047,20.797000885009766 7.835999965667725,19.299999237060547 C9.008999824523926,17.756000518798828 24.326000213623047,20.14299964904785 26.65999984741211,18.351999282836914 C28.950000762939453,16.5939998626709 32.946998596191406,-17.94499969482422 30.216999053955078,-28.422000885009766 C28.930999755859375,-33.356998443603516 -25.992000579833984,-31.325000762939453 -29.868000030517578,-28.62299919128418z"/></g></g><g opacity="1" transform="matrix(1,0,0,1,84.41400146484375,111.01799774169922)"><g opacity="1" transform="matrix(0.9705232977867126,0.24100731313228607,-0.24100731313228607,0.9705232977867126,0,0)"><path stroke-linecap="round" stroke-linejoin="round" fill-opacity="0" class="primary" stroke="rgb(42,48,107)" stroke-opacity="1" stroke-width="2" d=" M-15.305000305175781,1.5729999542236328 C-15.847000122070312,1.9819999933242798 -15.770999908447266,3.052000045776367 -15.927000045776367,5 C-7.910999774932861,5.495999813079834 13.961000442504883,7.377999782562256 15.25,7.577000141143799 C15.77400016784668,7.6579999923706055 16.179000854492188,4.744999885559082 15.739999771118164,4.324999809265137 C11.527000427246094,0.2849999964237213 1.190000057220459,-7.650000095367432 0.9610000252723694,-7.578000068664551 C0.21799999475479126,-7.343999862670898 -9.180000305175781,-3.0439999103546143 -15.305000305175781,1.5729999542236328z"/></g></g><g opacity="1" transform="matrix(1,0,0,1,77.37000274658203,134.49400329589844)"><g opacity="1" transform="matrix(0.9705232977867126,0.24100731313228607,-0.24100731313228607,0.9705232977867126,0,0)"><path stroke-linecap="round" stroke-linejoin="round" fill-opacity="0" class="primary" stroke="rgb(42,48,107)" stroke-opacity="1" stroke-width="2" d=" M13.472000122070312,4.123000144958496 C14.487000465393066,4.201000213623047 15.53600025177002,1.8170000314712524 15.831999778747559,-1.1629999876022339 C14.833999633789062,-1.1629999876022339 -8.347999572753906,-3.552999973297119 -15.720999717712402,-4.125 C-16.006999969482422,-4.1479997634887695 -15.652000427246094,-0.7419999837875366 -15.630000114440918,0.8379999995231628 C-15.621999740600586,1.343999981880188 5.920000076293945,3.5420000553131104 13.472000122070312,4.123000144958496z"/></g></g><g opacity="1" transform="matrix(1,0,0,1,76.09700012207031,122.94300079345703)"><g opacity="1" transform="matrix(0.9705232977867126,0.24100731313228607,-0.24100731313228607,0.9705232977867126,0,0)"><path stroke-linecap="round" stroke-linejoin="round" fill-opacity="0" class="primary" stroke="rgb(42,48,107)" stroke-opacity="1" stroke-width="2" d=" M-0.37299999594688416,7.210999965667725 C-0.37299999594688416,3.3570001125335693 0.5210000276565552,-6.239999771118164 0.35100001096725464,-7.210999965667725"/></g></g><g opacity="1" transform="matrix(1,0,0,1,84.38200378417969,125.79499816894531)"><g opacity="1" transform="matrix(0.9705232977867126,0.24100731313228607,-0.24100731313228607,0.9705232977867126,0,0)"><path stroke-linecap="round" stroke-linejoin="round" fill-opacity="0" class="primary" stroke="rgb(42,48,107)" stroke-opacity="1" stroke-width="2" d=" M-1.0399999618530273,7.140999794006348 C-0.7540000081062317,5.743000030517578 0.8759999871253967,-5.928999900817871 1.0399999618530273,-7.140999794006348"/></g></g><g opacity="1" transform="matrix(1,0,0,1,68.34200286865234,120.2760009765625)"><g opacity="1" transform="matrix(0.9705232977867126,0.24100731313228607,-0.24100731313228607,0.9705232977867126,0,0)"><path stroke-linecap="round" stroke-linejoin="round" fill-opacity="0" class="primary" stroke="rgb(42,48,107)" stroke-opacity="1" stroke-width="2" d=" M0.1940000057220459,7.23199987411499 C0.04699999839067459,4.919000148773193 -0.24500000476837158,-7.460999965667725 -0.1860000044107437,-7.229000091552734"/></g></g><g opacity="1" transform="matrix(1,0,0,1,92.65299987792969,128.468994140625)"><g opacity="1" transform="matrix(0.9705232977867126,0.24100731313228607,-0.24100731313228607,0.9705232977867126,0,0)"><path stroke-linecap="round" stroke-linejoin="round" fill-opacity="0" class="primary" stroke="rgb(42,48,107)" stroke-opacity="1" stroke-width="2" d=" M-1.6390000581741333,7.285999774932861 C-1.0049999952316284,5.125 1.6710000038146973,-7.465000152587891 1.6390000581741333,-7.283999919891357"/></g></g></g></g></g></svg>