<svg xmlns="http://www.w3.org/2000/svg" xmlns:xlink="http://www.w3.org/1999/xlink" viewBox="0 0 192 192" width="192" height="192" preserveAspectRatio="xMidYMid meet" style="width: 100%; height: 100%; transform: translate3d(0px, 0px, 0px); content-visibility: visible;"><defs><clipPath id="__lottie_element_8213"><rect width="192" height="192" x="0" y="0"/></clipPath><clipPath id="__lottie_element_8215"><path d="M0,0 L192,0 L192,192 L0,192z"/></clipPath><g id="__lottie_element_8225"><g transform="matrix(0.800000011920929,0,0,0.800000011920929,96,93.5)" opacity="1" style="display: block;"><g opacity="0" transform="matrix(1,0,0,1,0,0)"><path fill="rgb(67,67,67)" fill-opacity="1" d=" M-54.52000045776367,47.59600067138672 C-52.70399856567383,47.07099914550781 -51.6510009765625,45.196998596191406 -52.167999267578125,43.409000396728516 C-52.685001373291016,41.62099838256836 -54.57699966430664,40.59600067138672 -56.393001556396484,41.12099838256836 C-56.32099914550781,41.06999969482422 -56.33399963378906,41.09700012207031 -56.33399963378906,41.09700012207031 C-56.33399963378906,41.09700012207031 -56.34600067138672,41.13399887084961 -56.395999908447266,41.1150016784668 C-58.21900177001953,41.6150016784668 -59.29199981689453,43.499000549316406 -58.79199981689453,45.321998596191406 C-58.29199981689453,47.14500045776367 -56.40800094604492,48.21799850463867 -54.584999084472656,47.71799850463867 C-54.54899978637695,47.766998291015625 -54.52799987792969,47.66699981689453 -54.52799987792969,47.66699981689453 C-54.52799987792969,47.66699981689453 -54.54100036621094,47.57099914550781 -54.52000045776367,47.59600067138672z"/></g><g opacity="0" transform="matrix(1,0,0,1,0,-17.75)"><path fill="rgb(67,67,67)" fill-opacity="1" d=" M-54.52000045776367,47.59600067138672 C-52.70399856567383,47.07099914550781 -51.6510009765625,45.196998596191406 -52.167999267578125,43.409000396728516 C-52.685001373291016,41.62099838256836 -54.57699966430664,40.59600067138672 -56.393001556396484,41.12099838256836 C-56.32099914550781,41.06999969482422 -56.33399963378906,41.09700012207031 -56.33399963378906,41.09700012207031 C-56.33399963378906,41.09700012207031 -56.34600067138672,41.13399887084961 -56.395999908447266,41.1150016784668 C-58.21900177001953,41.6150016784668 -59.29199981689453,43.499000549316406 -58.79199981689453,45.321998596191406 C-58.29199981689453,47.14500045776367 -56.40800094604492,48.21799850463867 -54.584999084472656,47.71799850463867 C-54.54899978637695,47.766998291015625 -54.52799987792969,47.66699981689453 -54.52799987792969,47.66699981689453 C-54.52799987792969,47.66699981689453 -54.54100036621094,47.57099914550781 -54.52000045776367,47.59600067138672z"/></g><g opacity="0" transform="matrix(1,0,0,1,0,-35.79999923706055)"><path fill="rgb(67,67,67)" fill-opacity="1" d=" M-54.52000045776367,47.59600067138672 C-52.70399856567383,47.07099914550781 -51.6510009765625,45.196998596191406 -52.167999267578125,43.409000396728516 C-52.685001373291016,41.62099838256836 -54.57699966430664,40.59600067138672 -56.393001556396484,41.12099838256836 C-56.32099914550781,41.06999969482422 -56.33399963378906,41.09700012207031 -56.33399963378906,41.09700012207031 C-56.33399963378906,41.09700012207031 -56.34600067138672,41.13399887084961 -56.395999908447266,41.1150016784668 C-58.21900177001953,41.6150016784668 -59.29199981689453,43.499000549316406 -58.79199981689453,45.321998596191406 C-58.29199981689453,47.14500045776367 -56.40800094604492,48.21799850463867 -54.584999084472656,47.71799850463867 C-54.54899978637695,47.766998291015625 -54.52799987792969,47.66699981689453 -54.52799987792969,47.66699981689453 C-54.52799987792969,47.66699981689453 -54.54100036621094,47.57099914550781 -54.52000045776367,47.59600067138672z"/></g><g opacity="0" transform="matrix(1,0,0,1,0,-53.099998474121094)"><path fill="rgb(67,67,67)" fill-opacity="1" d=" M-54.52000045776367,47.59600067138672 C-52.70399856567383,47.07099914550781 -51.6510009765625,45.196998596191406 -52.167999267578125,43.409000396728516 C-52.685001373291016,41.62099838256836 -54.57699966430664,40.59600067138672 -56.393001556396484,41.12099838256836 C-56.32099914550781,41.06999969482422 -56.33399963378906,41.09700012207031 -56.33399963378906,41.09700012207031 C-56.33399963378906,41.09700012207031 -56.34600067138672,41.13399887084961 -56.395999908447266,41.1150016784668 C-58.21900177001953,41.6150016784668 -59.29199981689453,43.499000549316406 -58.79199981689453,45.321998596191406 C-58.29199981689453,47.14500045776367 -56.40800094604492,48.21799850463867 -54.584999084472656,47.71799850463867 C-54.54899978637695,47.766998291015625 -54.52799987792969,47.66699981689453 -54.52799987792969,47.66699981689453 C-54.52799987792969,47.66699981689453 -54.54100036621094,47.57099914550781 -54.52000045776367,47.59600067138672z"/></g><g opacity="0" transform="matrix(1,0,0,1,0,-70.44999694824219)"><path fill="rgb(67,67,67)" fill-opacity="1" d=" M-54.52000045776367,47.59600067138672 C-52.70399856567383,47.07099914550781 -51.6510009765625,45.196998596191406 -52.167999267578125,43.409000396728516 C-52.685001373291016,41.62099838256836 -54.57699966430664,40.59600067138672 -56.393001556396484,41.12099838256836 C-56.32099914550781,41.06999969482422 -56.33399963378906,41.09700012207031 -56.33399963378906,41.09700012207031 C-56.33399963378906,41.09700012207031 -56.34600067138672,41.13399887084961 -56.395999908447266,41.1150016784668 C-58.21900177001953,41.6150016784668 -59.29199981689453,43.499000549316406 -58.79199981689453,45.321998596191406 C-58.29199981689453,47.14500045776367 -56.40800094604492,48.21799850463867 -54.584999084472656,47.71799850463867 C-54.54899978637695,47.766998291015625 -54.52799987792969,47.66699981689453 -54.52799987792969,47.66699981689453 C-54.52799987792969,47.66699981689453 -54.54100036621094,47.57099914550781 -54.52000045776367,47.59600067138672z"/></g><g opacity="0" transform="matrix(1,0,0,1,0,-86.94999694824219)"><path fill="rgb(67,67,67)" fill-opacity="1" d=" M-54.52000045776367,47.59600067138672 C-52.70399856567383,47.07099914550781 -51.6510009765625,45.196998596191406 -52.167999267578125,43.409000396728516 C-52.685001373291016,41.62099838256836 -54.57699966430664,40.59600067138672 -56.393001556396484,41.12099838256836 C-56.32099914550781,41.06999969482422 -56.33399963378906,41.09700012207031 -56.33399963378906,41.09700012207031 C-56.33399963378906,41.09700012207031 -56.34600067138672,41.13399887084961 -56.395999908447266,41.1150016784668 C-58.21900177001953,41.6150016784668 -59.29199981689453,43.499000549316406 -58.79199981689453,45.321998596191406 C-58.29199981689453,47.14500045776367 -56.40800094604492,48.21799850463867 -54.584999084472656,47.71799850463867 C-54.54899978637695,47.766998291015625 -54.52799987792969,47.66699981689453 -54.52799987792969,47.66699981689453 C-54.52799987792969,47.66699981689453 -54.54100036621094,47.57099914550781 -54.52000045776367,47.59600067138672z"/></g></g></g><filter id="__lottie_element_8255" filterUnits="objectBoundingBox" x="0%" y="0%" width="100%" height="100%"><feComponentTransfer in="SourceGraphic"><feFuncA type="table" tableValues="1.0 0.0"/></feComponentTransfer></filter><mask id="__lottie_element_8225_2" mask-type="alpha" maskUnits="userSpaceOnUse"><g filter="url(#__lottie_element_8255)"><rect width="192" height="192" x="0" y="0" fill="#ffffff" opacity="0"/><use xmlns:ns1="http://www.w3.org/1999/xlink" ns1:href="#__lottie_element_8225"/></g></mask></defs><g clip-path="url(#__lottie_element_8213)"><g clip-path="url(#__lottie_element_8215)" transform="matrix(1,0,0,1,0,0)" opacity="1" style="display: block;"><g mask="url(#__lottie_element_8225_2)" style="display: block;"><g transform="matrix(1,0,0,1,101.0510025024414,93.1709976196289)" opacity="1"><g opacity="1" transform="matrix(1,0,0,1,0,0)"><path class="secondary" fill="rgb(230,142,110)" fill-opacity="1" d=" M-2.0510001182556152,-18.6299991607666 C-1.6950000524520874,-18.667999267578125 0.4650000035762787,-18.722000122070312 1.4910000562667847,-18.597000122070312 C6.817999839782715,-17.94700050354004 16.816999435424805,-14.869000434875488 18.305999755859375,-1.7489999532699585 C19.562999725341797,9.331000328063965 11.508999824523926,17.138999938964844 2.5439999103546143,18.481000900268555 C-2.2660000324249268,19.201000213623047 -7.546999931335449,17.906999588012695 -11.404999732971191,14.76200008392334 C-24.27199935913086,4.2729997634887695 -18.493999481201172,-16.854000091552734 -2.0510001182556152,-18.6299991607666z"/><path stroke-linecap="round" stroke-linejoin="round" fill-opacity="0" class="secondary" stroke="rgb(230,142,110)" stroke-opacity="1" stroke-width="1.001" d=" M-2.0510001182556152,-18.6299991607666 C-1.6950000524520874,-18.667999267578125 0.4650000035762787,-18.722000122070312 1.4910000562667847,-18.597000122070312 C6.817999839782715,-17.94700050354004 16.816999435424805,-14.869000434875488 18.305999755859375,-1.7489999532699585 C19.562999725341797,9.331000328063965 11.508999824523926,17.138999938964844 2.5439999103546143,18.481000900268555 C-2.2660000324249268,19.201000213623047 -7.546999931335449,17.906999588012695 -11.404999732971191,14.76200008392334 C-24.27199935913086,4.2729997634887695 -18.493999481201172,-16.854000091552734 -2.0510001182556152,-18.6299991607666z"/></g></g></g><g transform="matrix(1,0,0,1,96.00700378417969,96.23400115966797)" opacity="1" style="display: block;"><g opacity="1" transform="matrix(1,0,0,1,0,0)"><path stroke-linecap="round" stroke-linejoin="round" fill-opacity="0" class="primary" stroke="rgb(42,48,107)" stroke-opacity="1" stroke-width="3" d=" M-2.0510001182556152,-18.6299991607666 C-1.6950000524520874,-18.667999267578125 0.4650000035762787,-18.722000122070312 1.4910000562667847,-18.597000122070312 C6.817999839782715,-17.94700050354004 16.816999435424805,-14.869000434875488 18.305999755859375,-1.7489999532699585 C19.562999725341797,9.331000328063965 11.508999824523926,17.138999938964844 2.5439999103546143,18.481000900268555 C-2.2660000324249268,19.201000213623047 -7.546999931335449,17.906999588012695 -11.404999732971191,14.76200008392334 C-24.27199935913086,4.2729997634887695 -18.493999481201172,-16.854000091552734 -2.0510001182556152,-18.6299991607666z"/></g></g><g transform="matrix(1,0,0,1,95.86400604248047,95.98200225830078)" opacity="1" style="display: block;"><g opacity="1" transform="matrix(1,0,0,1,0,0)"><path stroke-linecap="round" stroke-linejoin="round" fill-opacity="0" class="primary" stroke="rgb(42,48,107)" stroke-opacity="1" stroke-width="1.998" d=" M-4.110000133514404,-37.05500030517578 C-3.3970000743865967,-37.13100051879883 0.9300000071525574,-37.2400016784668 2.9860000610351562,-36.99100112915039 C13.659000396728516,-35.69900131225586 33.69300079345703,-29.576000213623047 36.67599868774414,-3.4790000915527344 C39.19499969482422,18.55900001525879 23.05699920654297,34.09199905395508 5.0960001945495605,36.7599983215332 C-4.540999889373779,38.19200134277344 -15.121999740600586,35.61600112915039 -22.85099983215332,29.361000061035156 C-48.63100051879883,8.498000144958496 -37.05500030517578,-33.52299880981445 -4.110000133514404,-37.05500030517578z"/></g></g><g transform="matrix(1,0,0,1,95.9590072631836,95.41000366210938)" opacity="1" style="display: block;"><g opacity="1" transform="matrix(1,0,0,1,0,0)"><path stroke-linecap="round" stroke-linejoin="round" fill-opacity="0" class="primary" stroke="rgb(42,48,107)" stroke-opacity="1" stroke-width="1.999" d=" M46.52899932861328,-29.489999771118164 C50.345001220703125,-23.08099937438965 53.15399932861328,-15.095999717712402 54.29100036621094,-5.150000095367432 C58.02000045776367,27.472999572753906 34.13100051879883,50.46500015258789 7.544000148773193,54.415000915527344 C-6.7220001220703125,56.53499984741211 -22.384000778198242,52.72200012207031 -33.82500076293945,43.4630012512207 C-71.98600006103516,12.579999923706055 -54.85100173950195,-49.625 -6.084000110626221,-54.85300064086914 C-6.084000110626221,-54.85300064086914 -6.084000110626221,-54.85300064086914 -6.084000110626221,-54.85300064086914 C-5.0289998054504395,-54.965999603271484 1.3769999742507935,-55.125999450683594 4.421000003814697,-54.75699996948242 C11.270999908447266,-53.928001403808594 20.726999282836914,-51.75400161743164 29.60099983215332,-46.40800094604492"/></g></g><g transform="matrix(1,0,0,1,96.03700256347656,95.56100463867188)" opacity="1" style="display: block;"><g opacity="1" transform="matrix(1,0,0,1,0,0)"><path stroke-linecap="round" stroke-linejoin="round" fill-opacity="0" class="primary" stroke="rgb(42,48,107)" stroke-opacity="1" stroke-width="3" d=" M60.53799819946289,-42.93600082397461 C66.72000122070312,-33.80500030517578 71.322998046875,-22.051000595092773 73.0510025024414,-6.928999900817871 C78.06800079345703,36.96699905395508 45.92399978637695,67.90299987792969 10.149999618530273,73.21800231933594 C-9.045000076293945,76.07099914550781 -30.1200008392334,70.94000244140625 -45.513999938964844,58.48099899291992 C-96.86199951171875,16.927000045776367 -73.80599975585938,-66.77200317382812 -8.187000274658203,-73.80699920654297 C-8.187000274658203,-73.80699920654297 -8.187000274658203,-73.80699920654297 -8.187000274658203,-73.80699920654297 C-6.767000198364258,-73.95899963378906 1.8519999980926514,-74.17400360107422 5.947999954223633,-73.6780014038086 C16.347000122070312,-72.41899871826172 31.208999633789062,-68.85700225830078 44.374000549316406,-59.46099853515625"/></g></g><g transform="matrix(1,0.00013350244262255728,-0.00013350244262255728,1,0.012847900390625,-0.0128173828125)" opacity="1" style="display: block;"><g opacity="1" transform="matrix(1,0,0,1,126.63999938964844,65.62799835205078)"><g opacity="1" transform="matrix(1,0,0,1,0,0)"><path stroke-linecap="round" stroke-linejoin="round" fill-opacity="0" class="primary" stroke="rgb(42,48,107)" stroke-opacity="1" stroke-width="3" d=" M30.899999618530273,-30.700000762939453 C26.68000030517578,-26.400999069213867 -23.656999588012695,23.832000732421875 -30.899999618530273,30.700000762939453"/></g></g><g opacity="1" transform="matrix(1,0,0,1,0,0)"><g opacity="1" transform="matrix(1,0,0,1,142.12399291992188,41.65700149536133)"><g opacity="1" transform="matrix(1,0,0,1,0,0)"><path stroke-linecap="round" stroke-linejoin="round" fill-opacity="0" class="primary" stroke="rgb(42,48,107)" stroke-opacity="1" stroke-width="3" d=" M15.45300006866455,-6.820000171661377 C16.68600082397461,-11.390999794006348 16.530000686645508,-24.104999542236328 16.222999572753906,-23.840999603271484 C11.814000129699707,-20.047000885009766 -8.871999740600586,1.7259999513626099 -16.084999084472656,8.937999725341797 C-16.77400016784668,9.626999855041504 -13.680000305175781,16.73200035095215 -16.43899917602539,23.84600067138672"/></g></g><g opacity="1" transform="matrix(-1,0,0,1,148.52099609375,50.47200012207031)"><g opacity="1" transform="matrix(0.008150597102940083,-0.9999668002128601,0.9999668002128601,0.008150597102940083,-2,0)"><path stroke-linecap="round" stroke-linejoin="round" fill-opacity="0" class="primary" stroke="rgb(42,48,107)" stroke-opacity="1" stroke-width="3" d=" M15.234000205993652,-6.651000022888184 C15.885000228881836,-10.918999671936035 16.534000396728516,-24.55500030517578 16.22800064086914,-24.291000366210938 C11.817999839782715,-20.496999740600586 -8.932999610900879,1.715999960899353 -16.145999908447266,8.928000450134277 C-16.834999084472656,9.616999626159668 -13.54699993133545,17.18199920654297 -16.305999755859375,24.295000076293945"/></g></g></g></g><g transform="matrix(1,0.00020690685778390616,-0.00020690685778390616,1,73.8035888671875,83.75540924072266)" opacity="1" style="display: block;"><g opacity="1" transform="matrix(1,0,0,1,0,0)"><path stroke-linecap="round" stroke-linejoin="round" fill-opacity="0" class="primary" stroke="rgb(42,48,107)" stroke-opacity="1" stroke-width="2" d=" M-5.624000072479248,11.272000312805176 C-5.572000026702881,1.7790000438690186 -2.26200008392334,-5.500999927520752 5.625,-11.482000350952148"/></g></g><g transform="matrix(1,0.0002049123140750453,-0.0002049123140750453,1,133.9991455078125,119.96778869628906)" opacity="1" style="display: block;"><g opacity="1" transform="matrix(1,0,0,1,0,0)"><path stroke-linecap="round" stroke-linejoin="round" fill-opacity="0" class="primary" stroke="rgb(42,48,107)" stroke-opacity="1" stroke-width="2" d=" M-7.311999797821045,9.902000427246094 C-1.3270000219345093,5.182000160217285 5.294000148773193,-1.5679999589920044 7.583000183105469,-10.114999771118164"/></g></g><g transform="matrix(1,0.00020690685778390616,-0.00020690685778390616,1,54.73567199707031,141.3274688720703)" opacity="1" style="display: block;"><g opacity="1" transform="matrix(1,0,0,1,0,0)"><path stroke-linecap="round" stroke-linejoin="round" fill-opacity="0" class="primary" stroke="rgb(42,48,107)" stroke-opacity="1" stroke-width="2" d=" M14.020999908447266,11.779000282287598 C1.4950000047683716,8.024999618530273 -10.946000099182129,-5.960000038146973 -14.020999908447266,-11.779000282287598"/></g></g><g transform="matrix(1,0.00020690685778390616,-0.00020690685778390616,1,41.97252655029297,30.875816345214844)" opacity="1" style="display: block;"><g opacity="1" transform="matrix(1,0,0,1,0,0)"><path stroke-linecap="round" stroke-linejoin="round" fill-opacity="0" class="primary" stroke="rgb(42,48,107)" stroke-opacity="1" stroke-width="2" d=" M-17.729000091552734,14.85200023651123 C-6.598999977111816,-1.2869999408721924 8.60200023651123,-10.612000465393066 17.729000091552734,-14.85200023651123"/></g></g><g transform="matrix(1,0.0002079041296383366,-0.0002079041296383366,1,155.25343322753906,151.9033203125)" opacity="1" style="display: block;"><g opacity="1" transform="matrix(1,0,0,1,0,0)"><path stroke-linecap="round" stroke-linejoin="round" fill-opacity="0" class="primary" stroke="rgb(42,48,107)" stroke-opacity="1" stroke-width="2" d=" M-21.981000900268555,23.110000610351562 C-6.114999771118164,16.746999740600586 12.458999633789062,-2.0309998989105225 21.841999053955078,-22.801000595092773"/></g></g></g></g></svg>