<svg xmlns="http://www.w3.org/2000/svg" xmlns:xlink="http://www.w3.org/1999/xlink" viewBox="0 0 192 192" width="192" height="192" preserveAspectRatio="xMidYMid meet" style="width: 100%; height: 100%; transform: translate3d(0px, 0px, 0px); content-visibility: visible;"><defs><clipPath id="__lottie_element_12108"><rect width="192" height="192" x="0" y="0"/></clipPath><clipPath id="__lottie_element_12110"><path d="M0,0 L192,0 L192,192 L0,192z"/></clipPath><g id="__lottie_element_12119"><g transform="matrix(1,0,0,1,0,0)" opacity="1" style="display: block;"><g opacity="1" transform="matrix(1,0,0,1,0,0)"><g opacity="1" transform="matrix(1,0,0,1,146.7270050048828,141.8820037841797)"><g opacity="1" transform="matrix(0.984616219997406,-0.17473092675209045,0.17473092675209045,0.984616219997406,0,0)"><path fill="rgb(255,255,255)" fill-opacity="1" d=" M-6.11899995803833,13.619000434875488 C-13.618000030517578,13.104000091552734 -7.581999778747559,-14.097999572753906 0.9539999961853027,-13.776000022888184 C9.291000366210938,-13.458999633789062 11.991000175476074,13.246999740600586 7.060999870300293,13.64900016784668 C4.245999813079834,13.880000114440918 -4.0920000076293945,13.760000228881836 -6.11899995803833,13.619000434875488z"/></g></g></g></g></g><filter id="__lottie_element_12144" filterUnits="objectBoundingBox" x="0%" y="0%" width="100%" height="100%"><feComponentTransfer in="SourceGraphic"><feFuncA type="table" tableValues="1.0 0.0"/></feComponentTransfer></filter><mask id="__lottie_element_12119_2" mask-type="alpha" maskUnits="userSpaceOnUse"><g filter="url(#__lottie_element_12144)"><rect width="192" height="192" x="0" y="0" fill="#ffffff" opacity="0"/><use xmlns:ns1="http://www.w3.org/1999/xlink" ns1:href="#__lottie_element_12119"/></g></mask></defs><g clip-path="url(#__lottie_element_12108)"><g clip-path="url(#__lottie_element_12110)" transform="matrix(1,0,0,1,0,0)" opacity="1" style="display: block;"><g transform="matrix(1,0,0,1,97.90799713134766,63.994998931884766)" opacity="1" style="display: block;"><g opacity="1" transform="matrix(1,0,0,1,0,0)"><path class="secondary" fill="rgb(230,142,110)" fill-opacity="1" d=" M-5.603000164031982,3.2920000553131104 C-9.217000007629395,-2.015000104904175 -2.062000036239624,-7.751999855041504 2.9560000896453857,-5.556000232696533 C7.942999839782715,-2.4820001125335693 7.26800012588501,2.5829999446868896 4.073999881744385,4.978000164031982 C1.8519999980926514,6.644999980926514 -3.3970000743865967,6.53000020980835 -5.603000164031982,3.2920000553131104z"/><path stroke-linecap="round" stroke-linejoin="round" fill-opacity="0" class="secondary" stroke="rgb(230,142,110)" stroke-opacity="1" stroke-width="1" d=" M-5.603000164031982,3.2920000553131104 C-9.217000007629395,-2.015000104904175 -2.062000036239624,-7.751999855041504 2.9560000896453857,-5.556000232696533 C7.942999839782715,-2.4820001125335693 7.26800012588501,2.5829999446868896 4.073999881744385,4.978000164031982 C1.8519999980926514,6.644999980926514 -3.3970000743865967,6.53000020980835 -5.603000164031982,3.2920000553131104z"/></g></g><g transform="matrix(1,0,0,1,127.25199890136719,30.948999404907227)" opacity="1" style="display: block;"><g opacity="1" transform="matrix(1,0,0,1,0,0)"><path stroke-linecap="round" stroke-linejoin="round" fill-opacity="0" class="primary" stroke-dasharray=" 44 10" stroke-dashoffset="0" stroke="rgb(29,77,141)" stroke-opacity="1" stroke-width="2.005" d=" M-20.256999969482422,-9.321000099182129 C-12.482999801635742,-5.579999923706055 37.513999938964844,17.365999221801758 53.4630012512207,24.618999481201172"/></g></g><g transform="matrix(1,0,0,1,60.88999938964844,53.96699905395508)" opacity="1" style="display: block;"><g opacity="1" transform="matrix(1,0,0,1,0,0)"><path stroke-linecap="round" stroke-linejoin="round" fill-opacity="0" class="primary" stroke="rgb(29,77,141)" stroke-opacity="1" stroke-width="2.005" d=" M21.950000762939453,-10.404999732971191 C7.085000038146973,-3.069999933242798 -16.648000717163086,8.336999893188477 -25.600000381469727,12.814000129699707 C-25.600000381469727,12.814000129699707 -25.36400032043457,12.930999755859375 -24.92099952697754,13.151000022888184"/></g></g><g transform="matrix(1,0,0,1,60.59000015258789,153.41400146484375)" opacity="1" style="display: block;"><g opacity="1" transform="matrix(1,0,0,1,0,0)"><path stroke-linecap="round" stroke-linejoin="round" fill-opacity="0" class="primary" stroke="rgb(29,77,141)" stroke-opacity="1" stroke-width="2" d=" M33.35499954223633,18.48200035095215 C-2.250999927520752,20.215999603271484 -34.77399826049805,-2.828000068664551 -34.38800048828125,-18.575000762939453"/></g></g><g mask="url(#__lottie_element_12119_2)" style="display: block;"><g transform="matrix(1,0,0,1,0,0)" opacity="1"><g opacity="1" transform="matrix(1,0,0,1,94.68499755859375,120.21600341796875)"><g opacity="1" transform="matrix(1,0,0,1,0,0)"><path stroke-linecap="round" stroke-linejoin="round" fill-opacity="0" class="primary" stroke="rgb(29,77,141)" stroke-opacity="1" stroke-width="3" d=" M55.76300048828125,-24.898000717163086 C55.9010009765625,-24.898000717163086 55.849998474121094,15.055000305175781 55.5,15.670999526977539 C49.15399932861328,26.881999969482422 25.073999404907227,41.28300094604492 0.6129999756813049,41.189998626708984 C-24.040000915527344,41.09700012207031 -49.07899856567383,26.413000106811523 -55.21799850463867,13.229999542236328 C-56.07500076293945,11.392999649047852 -55.47700119018555,-14.829999923706055 -55.255001068115234,-25.207000732421875"/></g></g><g opacity="1" transform="matrix(1,0,0,1,94.98699951171875,137.4810028076172)"><g opacity="1" transform="matrix(1,0,0,1,0,0)"><path stroke-linecap="round" stroke-linejoin="round" fill-opacity="0" class="primary" stroke="rgb(29,77,141)" stroke-opacity="1" stroke-width="2.005" d=" M55.38800048828125,-8.729999542236328 C48.50699996948242,-2.3399999141693115 24.64900016784668,15.60099983215332 1.3350000381469727,16.077999114990234 C-30.902999877929688,16.738000869750977 -52.05400085449219,-6.539999961853027 -55.38800048828125,-16.091999053955078"/></g></g></g></g><g transform="matrix(1,0,0,1,0,0)" opacity="1" style="display: block;"><g opacity="1" transform="matrix(1,0,0,1,0,0)"><g opacity="1" transform="matrix(1,0,0,1,52.75699996948242,95.79499816894531)"><g opacity="1" transform="matrix(1,0,0,1,0,0)"><path stroke-linecap="round" stroke-linejoin="round" fill-opacity="0" class="primary" stroke="rgb(29,77,141)" stroke-opacity="1" stroke-width="2.996" d=" M42.99300003051758,14.07800006866455 C43.09299850463867,17.875999450683594 43.18199920654297,24.268999099731445 43.13999938964844,26.222999572753906 C43.137001037597656,26.356000900268555 -42.891998291015625,-15.392000198364258 -42.891998291015625,-15.411999702453613 C-42.930999755859375,-18.158000946044922 -43.064998626708984,-23.440000534057617 -43.1510009765625,-26.222999572753906"/></g></g><g opacity="1" transform="matrix(-1,0,0,1,138.8769989013672,95.88500213623047)"><g opacity="1" transform="matrix(1,0,0,1,0,0)"><path stroke-linecap="round" stroke-linejoin="round" fill-opacity="0" class="primary" stroke="rgb(29,77,141)" stroke-opacity="1" stroke-width="2.996" d=" M43.117000579833984,14.369000434875488 C43.016998291015625,18.291000366210938 42.77899932861328,24.1299991607666 42.73500061035156,26.086000442504883 C42.733001708984375,26.2189998626709 -42.986000061035156,-15.493000030517578 -42.986000061035156,-15.512999534606934 C-43.025001525878906,-18.259000778198242 -43.03099822998047,-23.304000854492188 -43.117000579833984,-26.086999893188477"/></g></g><g opacity="1" transform="matrix(1,0,0,1,95.87000274658203,69.97799682617188)"><g opacity="1" transform="matrix(1,0,0,1,0,0)"><path stroke-linecap="round" stroke-linejoin="round" fill-opacity="0" class="primary" stroke="rgb(29,77,141)" stroke-opacity="1" stroke-width="3" d=" M-1.218000054359436,-40.2599983215332 C-2.4809999465942383,-40.23400115966797 -60.59299850463867,-12.355999946594238 -86.17500305175781,-0.6710000038146973 C-65.21700286865234,9.194999694824219 -4.026000022888184,40.41600036621094 0.382999986410141,40.2599983215332 C5.0929999351501465,40.09199905395508 61.20000076293945,11.23799991607666 86.17500305175781,-0.43299999833106995 C86.20500183105469,-0.44699999690055847 0.38100001215934753,-40.292999267578125 -1.218000054359436,-40.2599983215332z"/></g></g></g><g opacity="1" transform="matrix(1,0,0,1,94.2020034790039,67.35700225830078)"><g opacity="1" transform="matrix(1,0,0,1,0,0)"><path stroke-linecap="round" stroke-linejoin="round" fill-opacity="0" class="primary" stroke="rgb(29,77,141)" stroke-opacity="1" stroke-width="3.002" d=" M-5.603000164031982,3.2920000553131104 C-9.217000007629395,-2.015000104904175 -2.062000036239624,-7.751999855041504 2.9560000896453857,-5.556000232696533 C7.942999839782715,-2.4820001125335693 7.26800012588501,2.5829999446868896 4.073999881744385,4.978000164031982 C1.8519999980926514,6.644999980926514 -3.3970000743865967,6.53000020980835 -5.603000164031982,3.2920000553131104z"/></g></g></g><g transform="matrix(1,0,0,1,0,0)" opacity="1" style="display: block;"><g opacity="1" transform="matrix(1,0,0,1,118.2770004272461,81.46900177001953)"><g opacity="1" transform="matrix(0.39318782091140747,-0.9194582104682922,0.9194582104682922,0.39318782091140747,0,0)"><path stroke-linecap="round" stroke-linejoin="round" fill-opacity="0" class="primary" stroke="rgb(29,77,141)" stroke-opacity="1" stroke-width="3" d=" M-1.6449999809265137,21.024999618530273 C-1.7730000019073486,15.70300006866455 0.5059999823570251,-9.303000450134277 1.649999976158142,-21.024999618530273"/></g></g></g><g transform="matrix(1,0,0,1,151.82200622558594,144.59799194335938)" opacity="1" style="display: block;"><g opacity="1" transform="matrix(0.9758672714233398,-0.2183646708726883,0.2183646708726883,0.9758672714233398,0,0)"><path class="secondary" fill="rgb(230,142,110)" fill-opacity="1" d=" M-5.857999801635742,13.619000434875488 C-13.036999702453613,13.104000091552734 -7.257999897003174,-14.097999572753906 0.9129999876022339,-13.776000022888184 C8.895000457763672,-13.458999633789062 11.479000091552734,13.246999740600586 6.758999824523926,13.64900016784668 C4.064000129699707,13.880000114440918 -3.9170000553131104,13.760000228881836 -5.857999801635742,13.619000434875488z"/><path stroke-linecap="round" stroke-linejoin="round" fill-opacity="0" class="secondary" stroke="rgb(230,142,110)" stroke-opacity="1" stroke-width="1" d=" M-5.857999801635742,13.619000434875488 C-13.036999702453613,13.104000091552734 -7.257999897003174,-14.097999572753906 0.9129999876022339,-13.776000022888184 C8.895000457763672,-13.458999633789062 11.479000091552734,13.246999740600586 6.758999824523926,13.64900016784668 C4.064000129699707,13.880000114440918 -3.9170000553131104,13.760000228881836 -5.857999801635742,13.619000434875488z"/></g></g><g transform="matrix(1,0,0,1,0,0)" opacity="1" style="display: block;"><g opacity="1" transform="matrix(1,0,0,1,0,0)"><g opacity="1" transform="matrix(1,0,0,1,140.8470001220703,109.88800048828125)"><g opacity="1" transform="matrix(0.98459792137146,-0.17483402788639069,0.17483402788639069,0.98459792137146,0,0)"><path stroke-linecap="round" stroke-linejoin="round" fill-opacity="0" class="primary" stroke="rgb(29,77,141)" stroke-opacity="1" stroke-width="3" d=" M0.777999997138977,18.700000762939453 C0.527999997138977,3.7829999923706055 -0.6819999814033508,-17.41900062561035 -0.777999997138977,-18.700000762939453"/></g></g><g opacity="1" transform="matrix(1,0,0,1,146.7270050048828,141.8820037841797)"><g opacity="1" transform="matrix(0.984616219997406,-0.17473092675209045,0.17473092675209045,0.984616219997406,0,0)"><path stroke-linecap="round" stroke-linejoin="round" fill-opacity="0" class="primary" stroke="rgb(29,77,141)" stroke-opacity="1" stroke-width="3" d=" M-6.11899995803833,13.619000434875488 C-13.618000030517578,13.104000091552734 -7.581999778747559,-14.097999572753906 0.9539999961853027,-13.776000022888184 C9.291000366210938,-13.458999633789062 11.991000175476074,13.246999740600586 7.060999870300293,13.64900016784668 C4.245999813079834,13.880000114440918 -4.0920000076293945,13.760000228881836 -6.11899995803833,13.619000434875488z"/></g></g><g opacity="1" transform="matrix(1,0,0,1,145.343994140625,142.17300415039062)"><g opacity="1" transform="matrix(0.9887720346450806,0.14943179488182068,-0.14943179488182068,0.9887720346450806,0,0)"><path stroke-linecap="round" stroke-linejoin="round" fill-opacity="0" class="primary" stroke="rgb(29,77,141)" stroke-opacity="1" stroke-width="2.005" d=" M-2.7090001106262207,-13.326000213623047 C-2.8929998874664307,-4.144999980926514 0.6869999766349792,10.045999526977539 2.7160000801086426,13.326000213623047"/></g></g><g opacity="1" transform="matrix(1,0,0,1,148.38800048828125,141.30499267578125)"><g opacity="1" transform="matrix(0.9887720346450806,0.14943179488182068,-0.14943179488182068,0.9887720346450806,0,0)"><path stroke-linecap="round" stroke-linejoin="round" fill-opacity="0" class="primary" stroke="rgb(29,77,141)" stroke-opacity="1" stroke-width="2.005" d=" M-4.895999908447266,-12.192999839782715 C-1.2710000276565552,-10.65999984741211 5.136000156402588,7.940999984741211 4.888999938964844,12.192999839782715"/></g></g></g></g></g></g></svg>