<svg xmlns="http://www.w3.org/2000/svg" xmlns:xlink="http://www.w3.org/1999/xlink" viewBox="0 0 192 192" width="192" height="192" preserveAspectRatio="xMidYMid meet" style="width: 100%; height: 100%; transform: translate3d(0px, 0px, 0px); content-visibility: visible;"><defs><clipPath id="__lottie_element_1783"><rect width="192" height="192" x="0" y="0"/></clipPath><clipPath id="__lottie_element_1785"><path d="M0,0 L192,0 L192,192 L0,192z"/></clipPath><g id="__lottie_element_1792"><g transform="matrix(0.8999999761581421,0,0,0.8999999761581421,99.447998046875,88.04100036621094)" opacity="1" style="display: block;"><g opacity="1" transform="matrix(1,0,0,1,0,0)"><path fill="rgb(67,67,67)" fill-opacity="1" d=" M54.88600158691406,44.685001373291016 C60.409000396728516,44.641998291015625 64.85099792480469,40.130001068115234 64.80799865722656,34.606998443603516 C64.76499938964844,29.083999633789062 60.25299835205078,24.642000198364258 54.72999954223633,24.684999465942383 C39.49100112915039,24.804000854492188 17.604999542236328,25.625999450683594 -3.490999937057495,27.238000869750977 C-24.332000732421875,28.83099937438965 -45.290000915527344,31.256000518798828 -58.17399978637695,34.79100036621094 C-63.5,36.25199890136719 -66.63200378417969,41.75400161743164 -65.1709976196289,47.08000183105469 C-63.709999084472656,52.40599822998047 -58.20800018310547,55.53900146484375 -52.88199996948242,54.077999114990234 C-42.06399917602539,51.11000061035156 -22.863000869750977,48.777000427246094 -1.9670000076293945,47.18000030517578 C18.674999237060547,45.60200119018555 40.10499954223633,44.79999923706055 54.88600158691406,44.685001373291016z"/></g><g opacity="1" transform="matrix(1,0,0,1,0,-17.75)"><path fill="rgb(67,67,67)" fill-opacity="1" d=" M54.88600158691406,44.685001373291016 C60.409000396728516,44.641998291015625 64.85099792480469,40.130001068115234 64.80799865722656,34.606998443603516 C64.76499938964844,29.083999633789062 60.25299835205078,24.642000198364258 54.72999954223633,24.684999465942383 C39.49100112915039,24.804000854492188 17.604999542236328,25.625999450683594 -3.490999937057495,27.238000869750977 C-24.332000732421875,28.83099937438965 -45.290000915527344,31.256000518798828 -58.17399978637695,34.79100036621094 C-63.5,36.25199890136719 -66.63200378417969,41.75400161743164 -65.1709976196289,47.08000183105469 C-63.709999084472656,52.40599822998047 -58.20800018310547,55.53900146484375 -52.88199996948242,54.077999114990234 C-42.06399917602539,51.11000061035156 -22.863000869750977,48.777000427246094 -1.9670000076293945,47.18000030517578 C18.674999237060547,45.60200119018555 40.10499954223633,44.79999923706055 54.88600158691406,44.685001373291016z"/></g><g opacity="1" transform="matrix(1,0,0,1,0,-35.79999923706055)"><path fill="rgb(67,67,67)" fill-opacity="1" d=" M54.88600158691406,44.685001373291016 C60.409000396728516,44.641998291015625 64.85099792480469,40.130001068115234 64.80799865722656,34.606998443603516 C64.76499938964844,29.083999633789062 60.25299835205078,24.642000198364258 54.72999954223633,24.684999465942383 C39.49100112915039,24.804000854492188 17.604999542236328,25.625999450683594 -3.490999937057495,27.238000869750977 C-24.332000732421875,28.83099937438965 -45.290000915527344,31.256000518798828 -58.17399978637695,34.79100036621094 C-63.5,36.25199890136719 -66.63200378417969,41.75400161743164 -65.1709976196289,47.08000183105469 C-63.709999084472656,52.40599822998047 -58.20800018310547,55.53900146484375 -52.88199996948242,54.077999114990234 C-42.06399917602539,51.11000061035156 -22.863000869750977,48.777000427246094 -1.9670000076293945,47.18000030517578 C18.674999237060547,45.60200119018555 40.10499954223633,44.79999923706055 54.88600158691406,44.685001373291016z"/></g><g opacity="1" transform="matrix(1,0,0,1,0,-53.099998474121094)"><path fill="rgb(67,67,67)" fill-opacity="1" d=" M54.88600158691406,44.685001373291016 C60.409000396728516,44.641998291015625 64.85099792480469,40.130001068115234 64.80799865722656,34.606998443603516 C64.76499938964844,29.083999633789062 60.25299835205078,24.642000198364258 54.72999954223633,24.684999465942383 C39.49100112915039,24.804000854492188 17.604999542236328,25.625999450683594 -3.490999937057495,27.238000869750977 C-24.332000732421875,28.83099937438965 -45.290000915527344,31.256000518798828 -58.17399978637695,34.79100036621094 C-63.5,36.25199890136719 -66.63200378417969,41.75400161743164 -65.1709976196289,47.08000183105469 C-63.709999084472656,52.40599822998047 -58.20800018310547,55.53900146484375 -52.88199996948242,54.077999114990234 C-42.06399917602539,51.11000061035156 -22.863000869750977,48.777000427246094 -1.9670000076293945,47.18000030517578 C18.674999237060547,45.60200119018555 40.10499954223633,44.79999923706055 54.88600158691406,44.685001373291016z"/></g></g></g><g id="__lottie_element_1819"><g transform="matrix(0.9999999403953552,0,0,0.9999999403953552,130.0836944580078,29.8255615234375)" opacity="1" style="display: block;"><path fill="rgb(255,0,0)" fill-opacity="1" d=" M14.63,5.11 C17.46,-2.97 13.19,-11.81 5.11,-14.63 C-2.97,-17.46 -11.81,-13.19 -14.63,-5.11 C-17.46,2.97 -13.19,11.81 -5.11,14.63 C2.97,17.46 11.81,13.19 14.63,5.11z"/><g opacity="1" transform="matrix(0.329723596572876,-0.9440774917602539,0.9440774917602539,0.329723596572876,0,0)"><path stroke-linecap="round" stroke-linejoin="round" fill-opacity="0" class="primary" stroke="rgb(42,48,107)" stroke-opacity="1" stroke-width="3.001" d=" M0,15.5 C8.5600004196167,15.5 15.5,8.5600004196167 15.5,0 C15.5,-8.5600004196167 8.5600004196167,-15.5 0,-15.5 C-8.5600004196167,-15.5 -15.5,-8.5600004196167 -15.5,0 C-15.5,8.5600004196167 -8.5600004196167,15.5 0,15.5z"/></g></g></g><g id="__lottie_element_1834"><g transform="matrix(0.9510564804077148,0.30901700258255005,-0.30901700258255005,0.9510564804077148,129.79246520996094,155.05398559570312)" opacity="1" style="display: block;"><path fill="rgb(255,0,0)" fill-opacity="1" d=" M-8.7,21.09 C2.94,25.9 16.28,20.35 21.09,8.7 C25.9,-2.94 20.35,-16.28 8.7,-21.09 C-2.94,-25.9 -16.28,-20.35 -21.09,-8.7 C-25.9,2.94 -20.35,16.28 -8.7,21.09z"/><g opacity="1" transform="matrix(0.9243863224983215,0.3814576268196106,-0.3814576268196106,0.9243863224983215,0,0)"><path stroke-linecap="round" stroke-linejoin="round" fill-opacity="0" class="primary" stroke="rgb(42,48,107)" stroke-opacity="1" stroke-width="3" d=" M0,22.815000534057617 C12.600000381469727,22.815000534057617 22.815000534057617,12.600000381469727 22.815000534057617,0 C22.815000534057617,-12.600000381469727 12.600000381469727,-22.815000534057617 0,-22.815000534057617 C-12.600000381469727,-22.815000534057617 -22.815000534057617,-12.600000381469727 -22.815000534057617,0 C-22.815000534057617,12.600000381469727 -12.600000381469727,22.815000534057617 0,22.815000534057617z"/></g></g></g><g id="__lottie_element_1846"><g transform="matrix(-1,0,0,-1,36.51799774169922,148.96400451660156)" opacity="1" style="display: block;"><path fill="rgb(255,0,0)" fill-opacity="1" d=" M13.94,6.57 C17.58,-1.17 14.3,-10.38 6.6,-14.01 C-1.1,-17.64 -10.29,-14.3 -13.94,-6.57 C-17.58,1.17 -14.3,10.38 -6.6,14.01 C1.1,17.64 10.29,14.3 13.94,6.57z"/><g opacity="1" transform="matrix(0.4262056350708008,-0.9046263098716736,0.9046263098716736,0.4262056350708008,0,0)"><path stroke-linecap="round" stroke-linejoin="round" fill-opacity="0" stroke="rgb(42,48,107)" stroke-opacity="1" stroke-width="3.005" d=" M0,15.406000137329102 C8.553999900817871,15.406000137329102 15.48799991607666,8.508000373840332 15.48799991607666,0 C15.48799991607666,-8.508000373840332 8.553999900817871,-15.406000137329102 0,-15.406000137329102 C-8.553999900817871,-15.406000137329102 -15.48799991607666,-8.508000373840332 -15.48799991607666,0 C-15.48799991607666,8.508000373840332 -8.553999900817871,15.406000137329102 0,15.406000137329102z"/></g></g></g><filter id="__lottie_element_1864" filterUnits="objectBoundingBox" x="0%" y="0%" width="100%" height="100%"><feComponentTransfer in="SourceGraphic"><feFuncA type="table" tableValues="1.0 0.0"/></feComponentTransfer></filter><mask id="__lottie_element_1846_2" mask-type="alpha" maskUnits="userSpaceOnUse"><g filter="url(#__lottie_element_1864)"><rect width="192" height="192" x="0" y="0" fill="#ffffff" opacity="0"/><use xmlns:ns1="http://www.w3.org/1999/xlink" ns1:href="#__lottie_element_1846"/></g></mask><filter id="__lottie_element_1865" filterUnits="objectBoundingBox" x="0%" y="0%" width="100%" height="100%"><feComponentTransfer in="SourceGraphic"><feFuncA type="table" tableValues="1.0 0.0"/></feComponentTransfer></filter><mask id="__lottie_element_1834_2" mask-type="alpha" maskUnits="userSpaceOnUse"><g filter="url(#__lottie_element_1865)"><rect width="192" height="192" x="0" y="0" fill="#ffffff" opacity="0"/><use xmlns:ns2="http://www.w3.org/1999/xlink" ns2:href="#__lottie_element_1834"/></g></mask><filter id="__lottie_element_1866" filterUnits="objectBoundingBox" x="0%" y="0%" width="100%" height="100%"><feComponentTransfer in="SourceGraphic"><feFuncA type="table" tableValues="1.0 0.0"/></feComponentTransfer></filter><mask id="__lottie_element_1819_2" mask-type="alpha" maskUnits="userSpaceOnUse"><g filter="url(#__lottie_element_1866)"><rect width="192" height="192" x="0" y="0" fill="#ffffff" opacity="0"/><use xmlns:ns3="http://www.w3.org/1999/xlink" ns3:href="#__lottie_element_1819"/></g></mask><filter id="__lottie_element_1867" filterUnits="objectBoundingBox" x="0%" y="0%" width="100%" height="100%"><feComponentTransfer in="SourceGraphic"><feFuncA type="table" tableValues="1.0 0.0"/></feComponentTransfer></filter><mask id="__lottie_element_1792_2" mask-type="alpha" maskUnits="userSpaceOnUse"><g filter="url(#__lottie_element_1867)"><rect width="192" height="192" x="0" y="0" fill="#ffffff" opacity="0"/><use xmlns:ns4="http://www.w3.org/1999/xlink" ns4:href="#__lottie_element_1792"/></g></mask><g id="__lottie_element_1957"><g transform="matrix(0.8999999761581421,0,0,0.8999999761581421,99.447998046875,88.04100036621094)" opacity="1" style="display: block;"><g opacity="1" transform="matrix(1,0,0,1,0,0)"><path fill="rgb(67,67,67)" fill-opacity="1" d=" M54.88600158691406,44.685001373291016 C60.409000396728516,44.641998291015625 64.85099792480469,40.130001068115234 64.80799865722656,34.606998443603516 C64.76499938964844,29.083999633789062 60.25299835205078,24.642000198364258 54.72999954223633,24.684999465942383 C39.49100112915039,24.804000854492188 17.604999542236328,25.625999450683594 -3.490999937057495,27.238000869750977 C-24.332000732421875,28.83099937438965 -45.290000915527344,31.256000518798828 -58.17399978637695,34.79100036621094 C-63.5,36.25199890136719 -66.63200378417969,41.75400161743164 -65.1709976196289,47.08000183105469 C-63.709999084472656,52.40599822998047 -58.20800018310547,55.53900146484375 -52.88199996948242,54.077999114990234 C-42.06399917602539,51.11000061035156 -22.863000869750977,48.777000427246094 -1.9670000076293945,47.18000030517578 C18.674999237060547,45.60200119018555 40.10499954223633,44.79999923706055 54.88600158691406,44.685001373291016z"/></g><g opacity="1" transform="matrix(1,0,0,1,0,-17.75)"><path fill="rgb(67,67,67)" fill-opacity="1" d=" M54.88600158691406,44.685001373291016 C60.409000396728516,44.641998291015625 64.85099792480469,40.130001068115234 64.80799865722656,34.606998443603516 C64.76499938964844,29.083999633789062 60.25299835205078,24.642000198364258 54.72999954223633,24.684999465942383 C39.49100112915039,24.804000854492188 17.604999542236328,25.625999450683594 -3.490999937057495,27.238000869750977 C-24.332000732421875,28.83099937438965 -45.290000915527344,31.256000518798828 -58.17399978637695,34.79100036621094 C-63.5,36.25199890136719 -66.63200378417969,41.75400161743164 -65.1709976196289,47.08000183105469 C-63.709999084472656,52.40599822998047 -58.20800018310547,55.53900146484375 -52.88199996948242,54.077999114990234 C-42.06399917602539,51.11000061035156 -22.863000869750977,48.777000427246094 -1.9670000076293945,47.18000030517578 C18.674999237060547,45.60200119018555 40.10499954223633,44.79999923706055 54.88600158691406,44.685001373291016z"/></g><g opacity="1" transform="matrix(1,0,0,1,0,-35.79999923706055)"><path fill="rgb(67,67,67)" fill-opacity="1" d=" M54.88600158691406,44.685001373291016 C60.409000396728516,44.641998291015625 64.85099792480469,40.130001068115234 64.80799865722656,34.606998443603516 C64.76499938964844,29.083999633789062 60.25299835205078,24.642000198364258 54.72999954223633,24.684999465942383 C39.49100112915039,24.804000854492188 17.604999542236328,25.625999450683594 -3.490999937057495,27.238000869750977 C-24.332000732421875,28.83099937438965 -45.290000915527344,31.256000518798828 -58.17399978637695,34.79100036621094 C-63.5,36.25199890136719 -66.63200378417969,41.75400161743164 -65.1709976196289,47.08000183105469 C-63.709999084472656,52.40599822998047 -58.20800018310547,55.53900146484375 -52.88199996948242,54.077999114990234 C-42.06399917602539,51.11000061035156 -22.863000869750977,48.777000427246094 -1.9670000076293945,47.18000030517578 C18.674999237060547,45.60200119018555 40.10499954223633,44.79999923706055 54.88600158691406,44.685001373291016z"/></g><g opacity="1" transform="matrix(1,0,0,1,0,-53.099998474121094)"><path fill="rgb(67,67,67)" fill-opacity="1" d=" M54.88600158691406,44.685001373291016 C60.409000396728516,44.641998291015625 64.85099792480469,40.130001068115234 64.80799865722656,34.606998443603516 C64.76499938964844,29.083999633789062 60.25299835205078,24.642000198364258 54.72999954223633,24.684999465942383 C39.49100112915039,24.804000854492188 17.604999542236328,25.625999450683594 -3.490999937057495,27.238000869750977 C-24.332000732421875,28.83099937438965 -45.290000915527344,31.256000518798828 -58.17399978637695,34.79100036621094 C-63.5,36.25199890136719 -66.63200378417969,41.75400161743164 -65.1709976196289,47.08000183105469 C-63.709999084472656,52.40599822998047 -58.20800018310547,55.53900146484375 -52.88199996948242,54.077999114990234 C-42.06399917602539,51.11000061035156 -22.863000869750977,48.777000427246094 -1.9670000076293945,47.18000030517578 C18.674999237060547,45.60200119018555 40.10499954223633,44.79999923706055 54.88600158691406,44.685001373291016z"/></g></g></g><mask id="__lottie_element_1957_1" mask-type="alpha"><use xmlns:ns5="http://www.w3.org/1999/xlink" ns5:href="#__lottie_element_1957"/></mask></defs><g clip-path="url(#__lottie_element_1783)"><g clip-path="url(#__lottie_element_1785)" transform="matrix(1,0,0,1,0,0)" opacity="1" style="display: block;"><g mask="url(#__lottie_element_1792_2)" style="display: block;"><g transform="matrix(1,0,0,1,101.22699737548828,95.15599822998047)" opacity="1"><g opacity="1" transform="matrix(1,0,0,1,0,0)"><path class="secondary" fill="rgb(230,142,110)" fill-opacity="1" d=" M0,30.263999938964844 C16.714000701904297,30.263999938964844 30.263999938964844,16.714000701904297 30.263999938964844,0 C30.263999938964844,-16.714000701904297 16.714000701904297,-30.263999938964844 0,-30.263999938964844 C-16.714000701904297,-30.263999938964844 -30.263999938964844,-16.714000701904297 -30.263999938964844,0 C-30.263999938964844,16.714000701904297 -16.714000701904297,30.263999938964844 0,30.263999938964844z"/><path stroke-linecap="round" stroke-linejoin="round" fill-opacity="0" class="secondary" stroke="rgb(230,142,110)" stroke-opacity="1" stroke-width="1" d=" M0,30.263999938964844 C16.714000701904297,30.263999938964844 30.263999938964844,16.714000701904297 30.263999938964844,0 C30.263999938964844,-16.714000701904297 16.714000701904297,-30.263999938964844 0,-30.263999938964844 C-16.714000701904297,-30.263999938964844 -30.263999938964844,-16.714000701904297 -30.263999938964844,0 C-30.263999938964844,16.714000701904297 -16.714000701904297,30.263999938964844 0,30.263999938964844z"/></g></g></g><g mask="url(#__lottie_element_1957_1)" style="display: block;"><g transform="matrix(1,0,0,1,101.22699737548828,95.15599822998047)" opacity="1"><g opacity="1" transform="matrix(1,0,0,1,0,0)"><path class="secondary" fill="rgb(230,142,110)" fill-opacity="1" d=" M0,30.263999938964844 C16.714000701904297,30.263999938964844 30.263999938964844,16.714000701904297 30.263999938964844,0 C30.263999938964844,-16.714000701904297 16.714000701904297,-30.263999938964844 0,-30.263999938964844 C-16.714000701904297,-30.263999938964844 -30.263999938964844,-16.714000701904297 -30.263999938964844,0 C-30.263999938964844,16.714000701904297 -16.714000701904297,30.263999938964844 0,30.263999938964844z"/><path stroke-linecap="round" stroke-linejoin="round" fill-opacity="0" class="secondary" stroke="rgb(230,142,110)" stroke-opacity="1" stroke-width="1" d=" M0,30.263999938964844 C16.714000701904297,30.263999938964844 30.263999938964844,16.714000701904297 30.263999938964844,0 C30.263999938964844,-16.714000701904297 16.714000701904297,-30.263999938964844 0,-30.263999938964844 C-16.714000701904297,-30.263999938964844 -30.263999938964844,-16.714000701904297 -30.263999938964844,0 C-30.263999938964844,16.714000701904297 -16.714000701904297,30.263999938964844 0,30.263999938964844z"/></g></g></g><g transform="matrix(1,0,0,1,94.79299926757812,95.83499908447266)" opacity="1" style="display: block;"><g opacity="1" transform="matrix(1,0,0,1,0,0)"><path stroke-linecap="round" stroke-linejoin="round" fill-opacity="0" class="primary" stroke="rgb(42,48,107)" stroke-opacity="1" stroke-width="2.998" d=" M0,30.263999938964844 C16.714000701904297,30.263999938964844 30.263999938964844,16.714000701904297 30.263999938964844,0 C30.263999938964844,-16.714000701904297 16.714000701904297,-30.263999938964844 0,-30.263999938964844 C-16.714000701904297,-30.263999938964844 -30.263999938964844,-16.714000701904297 -30.263999938964844,0 C-30.263999938964844,16.714000701904297 -16.714000701904297,30.263999938964844 0,30.263999938964844z"/></g></g><g transform="matrix(0.5735764503479004,-0.8191520571708679,0.8191520571708679,0.5735764503479004,62.19788360595703,89.2590103149414)" opacity="1" style="display: none;"><g opacity="1" transform="matrix(0.9570416212081909,0.2899506390094757,-0.2899506390094757,0.9570416212081909,0,0)"><path stroke-linecap="round" stroke-linejoin="round" fill-opacity="0" class="primary" stroke="rgb(42,48,107)" stroke-opacity="1" stroke-width="2.001" d=" M14.74899959564209,-12.369999885559082 C14.762999534606934,-12.371000289916992 14.776000022888184,-12.371000289916992 14.788999557495117,-12.371999740600586"/></g></g><g transform="matrix(1,0,0,1,105.84400177001953,101.9990005493164)" opacity="1" style="display: block;"><g opacity="1" transform="matrix(1,0,0,1,0,0)"><path stroke-linecap="round" stroke-linejoin="round" fill-opacity="0" class="primary" stroke="rgb(42,48,107)" stroke-opacity="1" stroke-width="2.001" d=" M-8.314000129699707,15.625 C-7.228000164031982,15.505000114440918 -6.126999855041504,15.281999588012695 -5.01800012588501,14.942999839782715 C5.901000022888184,11.605999946594238 11.838000297546387,-3.630000114440918 7.190999984741211,-15.946000099182129"/></g></g><g transform="matrix(0.4226182699203491,-0.9063078165054321,0.9063078165054321,0.4226182699203491,61.30409622192383,95.1831283569336)" opacity="1" style="display: block;"><g opacity="1" transform="matrix(0.9570416212081909,0.2899506390094757,-0.2899506390094757,0.9570416212081909,0,0)"><path stroke-linecap="round" stroke-linejoin="round" fill-opacity="0" class="primary" stroke="rgb(42,48,107)" stroke-opacity="1" stroke-width="2.001" d=" M-14.211000442504883,11.947999954223633 C-11.586000442504883,-3.375 3.628999948501587,-11.890000343322754 14.788999557495117,-12.371999740600586"/></g></g><g transform="matrix(0.9510564804077148,0.30901700258255005,-0.30901700258255005,0.9510564804077148,129.79246520996094,155.05398559570312)" opacity="1" style="display: block;"><g opacity="1" transform="matrix(0.9243863224983215,0.3814576268196106,-0.3814576268196106,0.9243863224983215,0,0)"><path stroke-linecap="round" stroke-linejoin="round" fill-opacity="0" class="primary" stroke="rgb(42,48,107)" stroke-opacity="1" stroke-width="3" d=" M0,22.815000534057617 C12.600000381469727,22.815000534057617 22.815000534057617,12.600000381469727 22.815000534057617,0 C22.815000534057617,-12.600000381469727 12.600000381469727,-22.815000534057617 0,-22.815000534057617 C-12.600000381469727,-22.815000534057617 -22.815000534057617,-12.600000381469727 -22.815000534057617,0 C-22.815000534057617,12.600000381469727 -12.600000381469727,22.815000534057617 0,22.815000534057617z"/></g></g><g transform="matrix(-0.3583679497241974,0.9335803985595703,0.9335803985595703,0.3583679497241974,115.41780090332031,132.1470947265625)" opacity="1" style="display: block;"><g opacity="1" transform="matrix(0.6872143149375916,0.7264547348022461,-0.7264547348022461,0.6872143149375916,0,0)"><path stroke-linecap="round" stroke-linejoin="round" fill-opacity="0" class="primary" stroke="rgb(42,48,107)" stroke-opacity="1" stroke-width="2.996" d=" M1.7710000276565552,0.10300000011920929 C-2.9760000705718994,-0.1770000010728836 -8.277999877929688,-0.4909999966621399 -11.069000244140625,-0.5849999785423279"/></g></g><g transform="matrix(0.974370002746582,0.22495104372501373,-0.22495104372501373,0.974370002746582,107.58145904541016,165.2236328125)" opacity="1" style="display: block;"><g opacity="1" transform="matrix(0.7635256052017212,0.6457775831222534,-0.6457775831222534,0.7635256052017212,0,0)"><path stroke-linecap="round" stroke-linejoin="round" fill-opacity="0" class="primary" stroke="rgb(42,48,107)" stroke-opacity="1" stroke-width="2.001" d=" M19.395999908447266,1.6490000486373901 C6.001999855041504,14.154000282287598 -11.843000411987305,4.074999809265137 -16.43400001525879,-2.7130000591278076 C-17.514999389648438,-4.310999870300293 -18.464000701904297,-5.802999973297119 -19.28499984741211,-7.269999980926514"/></g></g><g transform="matrix(0.7563666701316833,0.6541478633880615,-0.6541478633880615,0.7563666701316833,71.36663818359375,160.62124633789062)" opacity="1" style="display: none;"><g opacity="1" transform="matrix(0.7635256052017212,0.6457775831222534,-0.6457775831222534,0.7635256052017212,0,0)"><path stroke-linecap="round" stroke-linejoin="round" fill-opacity="0" class="primary" stroke="rgb(42,48,107)" stroke-opacity="1" stroke-width="2.001" d="M0 0"/></g></g><g mask="url(#__lottie_element_1819_2)" style="display: block;"><g transform="matrix(1,0,0,1,159.76760864257812,91.28425598144531)" opacity="1"><g opacity="1" transform="matrix(0.9414882063865662,0.33704596757888794,-0.33704596757888794,0.9414882063865662,0,0)"><path stroke-linecap="round" stroke-linejoin="round" fill-opacity="0" class="primary" stroke="rgb(42,48,107)" stroke-opacity="1" stroke-width="3.001" d=" M0,15.5 C8.5600004196167,15.5 15.5,8.5600004196167 15.5,0 C15.5,-8.5600004196167 8.5600004196167,-15.5 0,-15.5 C-8.5600004196167,-15.5 -15.5,-8.5600004196167 -15.5,0 C-15.5,8.5600004196167 -8.5600004196167,15.5 0,15.5z"/></g></g></g><g transform="matrix(0.9743700623512268,-0.22495105862617493,-0.22495105862617493,-0.9743700623512268,135.05747985839844,94.33912658691406)" opacity="1" style="display: block;"><g opacity="1" transform="matrix(0.9924072623252869,-0.1229952722787857,0.1229952722787857,0.9924072623252869,0,0)"><path stroke-linecap="round" stroke-linejoin="round" fill-opacity="0" class="primary" stroke="rgb(42,48,107)" stroke-opacity="1" stroke-width="2.996" d=" M9.0649995803833,-0.024000000208616257 C6.535999774932861,-0.024000000208616257 -1.6649999618530273,0.0010000000474974513 -9.0649995803833,0.024000000208616257"/></g></g><g transform="matrix(1,0,0,1,170.05859375,107.22825622558594)" opacity="1" style="display: block;"><g opacity="1" transform="matrix(0.33704596757888794,-0.9414882063865662,0.9414882063865662,0.33704596757888794,0,0)"><path stroke-linecap="round" stroke-linejoin="round" fill-opacity="0" class="primary" stroke="rgb(42,48,107)" stroke-opacity="1" stroke-width="2.001" d=" M8.04800033569336,6.064000129699707 C-0.9779999852180481,5.176000118255615 -6.186999797821045,-0.6650000214576721 -8.045000076293945,-5.724999904632568"/></g></g><g transform="matrix(1,0,0,1,157.4626007080078,86.58226013183594)" opacity="1" style="display: block;"><g opacity="1" transform="matrix(0.9414882063865662,0.33704596757888794,-0.33704596757888794,0.9414882063865662,0,0)"><path stroke-linecap="round" stroke-linejoin="round" fill-opacity="0" class="primary" stroke="rgb(42,48,107)" stroke-opacity="1" stroke-width="2.001" d=" M-5.297999858856201,5.308000087738037 C-5.698999881744385,-1.4290000200271606 1.246999979019165,-5.586999893188477 5.361000061035156,-5.614999771118164"/></g></g><g transform="matrix(0.9940066933631897,0.10931894928216934,-0.10931894928216934,0.9940066933631897,168.3620147705078,115.38793182373047)" opacity="1" style="display: none;"><g opacity="1" transform="matrix(0.33704596757888794,-0.9414882063865662,0.9414882063865662,0.33704596757888794,0,0)"><path stroke-linecap="round" stroke-linejoin="round" fill-opacity="0" class="primary" stroke="rgb(42,48,107)" stroke-opacity="1" stroke-width="2.001" d=" M-6.635000228881836,-2.819999933242798 C-7.22599983215332,-3.7899999618530273 -7.695000171661377,-4.771999835968018 -8.045000076293945,-5.724999904632568"/></g></g><g transform="matrix(0.9990281462669373,0.04407588392496109,-0.04407588392496109,0.9990281462669373,157.80950927734375,89.35346984863281)" opacity="1" style="display: none;"><g opacity="1" transform="matrix(0.9414882063865662,0.33704596757888794,-0.33704596757888794,0.9414882063865662,0,0)"><path stroke-linecap="round" stroke-linejoin="round" fill-opacity="0" class="primary" stroke="rgb(42,48,107)" stroke-opacity="1" stroke-width="2.001" d=" M1.7510000467300415,-4.78000020980835 C3.0260000228881836,-5.320000171661377 4.289999961853027,-5.607999801635742 5.361000061035156,-5.614999771118164"/></g></g><g mask="url(#__lottie_element_1834_2)" style="display: block;"><g transform="matrix(0.9999999403953552,0,0,0.9999999403953552,130.0836944580078,29.8255615234375)" opacity="1"><g opacity="1" transform="matrix(0.329723596572876,-0.9440774917602539,0.9440774917602539,0.329723596572876,0,0)"><path stroke-linecap="round" stroke-linejoin="round" fill-opacity="0" class="primary" stroke="rgb(42,48,107)" stroke-opacity="1" stroke-width="3.001" d=" M0,15.5 C8.5600004196167,15.5 15.5,8.5600004196167 15.5,0 C15.5,-8.5600004196167 8.5600004196167,-15.5 0,-15.5 C-8.5600004196167,-15.5 -15.5,-8.5600004196167 -15.5,0 C-15.5,8.5600004196167 -8.5600004196167,15.5 0,15.5z"/></g></g></g><g transform="matrix(0.0523359552025795,0.9986295104026794,0.9986295104026794,-0.0523359552025795,126.79413604736328,55.54296875)" opacity="1" style="display: block;"><g opacity="1" transform="matrix(0.6873030662536621,-0.7263707518577576,0.7263707518577576,0.6873030662536621,0,0)"><path stroke-linecap="round" stroke-linejoin="round" fill-opacity="0" class="primary" stroke="rgb(42,48,107)" stroke-opacity="1" stroke-width="2.996" d=" M21.365999221801758,-3.119999885559082 C21.365999221801758,-3.119999885559082 -5.776000022888184,-10.015999794006348 -5.776000022888184,-10.015999794006348"/></g></g><g transform="matrix(-0.7986354231834412,-0.6018150448799133,0.6018150448799133,-0.7986354231834412,140.33802795410156,45.7859001159668)" opacity="1" style="display: block;"><g opacity="1" transform="matrix(0.2569809854030609,0.9664164781570435,-0.9664164781570435,0.2569809854030609,0,0)"><path stroke-linecap="round" stroke-linejoin="round" fill-opacity="0" class="primary" stroke="rgb(42,48,107)" stroke-opacity="1" stroke-width="2.001" d=" M9.800000190734863,6.197999954223633 C0.17900000512599945,5.76200008392334 -6.2179999351501465,-0.746999979019165 -8.045000076293945,-5.724999904632568"/></g></g><g transform="matrix(-0.571907639503479,-0.8203179836273193,0.8203179836273193,-0.571907639503479,155.18785095214844,65.08549499511719)" opacity="1" style="display: none;"><g opacity="1" transform="matrix(0.2569809854030609,0.9664164781570435,-0.9664164781570435,0.2569809854030609,0,0)"><path stroke-linecap="round" stroke-linejoin="round" fill-opacity="0" class="primary" stroke="rgb(42,48,107)" stroke-opacity="1" stroke-width="2.001" d=" M-4.751999855041504,-0.5260000228881836 C-6.322999954223633,-2.242000102996826 -7.436999797821045,-4.067999839782715 -8.045000076293945,-5.724999904632568"/></g></g><g mask="url(#__lottie_element_1846_2)" style="display: block;"><g transform="matrix(-1,0,0,-1,40.112003326416016,42.83000183105469)" opacity="1"><g opacity="1" transform="matrix(0.34254491329193115,0.9395014643669128,-0.9395014643669128,0.34254491329193115,0,0)"><path stroke-linecap="round" stroke-linejoin="round" fill-opacity="0" class="primary" stroke="rgb(42,48,107)" stroke-opacity="1" stroke-width="3.001" d=" M0,21.434999465942383 C11.838000297546387,21.434999465942383 21.434999465942383,11.838000297546387 21.434999465942383,0 C21.434999465942383,-11.838000297546387 11.838000297546387,-21.434999465942383 0,-21.434999465942383 C-11.838000297546387,-21.434999465942383 -21.434999465942383,-11.838000297546387 -21.434999465942383,0 C-21.434999465942383,11.838000297546387 -11.838000297546387,21.434999465942383 0,21.434999465942383z"/></g></g></g><g transform="matrix(-1,0,0,1,64.96499633789062,66.34700012207031)" opacity="1" style="display: block;"><g opacity="1" transform="matrix(0.7288849949836731,-0.6846361756324768,0.6846361756324768,0.7288849949836731,0,0)"><path stroke-linecap="round" stroke-linejoin="round" fill-opacity="0" class="primary" stroke="rgb(42,48,107)" stroke-opacity="1" stroke-width="2.995" d=" M12.076000213623047,-0.17800000309944153 C8.4350004196167,-0.17800000309944153 -2.48799991607666,0.07500000298023224 -12.076000213623047,0.17800000309944153"/></g></g><g transform="matrix(-1,0,0,-1,47.97300338745117,17.79199981689453)" opacity="1" style="display: block;"><g opacity="1" transform="matrix(0.9395014643669128,-0.34254491329193115,0.34254491329193115,0.9395014643669128,0,0)"><path stroke-linecap="round" stroke-linejoin="round" fill-opacity="0" class="primary" stroke="rgb(42,48,107)" stroke-opacity="1" stroke-width="2.002" d=" M11.190999984741211,8.605999946594238 C-0.11500000208616257,6.96999979019165 -8.847000122070312,-1.7100000381469727 -11.12600040435791,-7.918000221252441"/></g></g><g transform="matrix(-1,0,0,-1,39.33500289916992,49.60200119018555)" opacity="1" style="display: block;"><g opacity="1" transform="matrix(0.34254491329193115,0.9395014643669128,-0.9395014643669128,0.34254491329193115,0,0)"><path stroke-linecap="round" stroke-linejoin="round" fill-opacity="0" class="primary" stroke="rgb(42,48,107)" stroke-opacity="1" stroke-width="2.002" d=" M-5.10699987411499,11.288000106811523 C-13.654000282287598,-0.39399999380111694 0.16899999976158142,-12.79699993133545 7.958000183105469,-11.37600040435791"/></g></g><g transform="matrix(-0.9301530122756958,-0.36717215180397034,0.36717215180397034,-0.9301530122756958,81.20093536376953,8.872917175292969)" opacity="1" style="display: none;"><g opacity="1" transform="matrix(0.9395014643669128,-0.34254491329193115,0.34254491329193115,0.9395014643669128,0,0)"><path stroke-linecap="round" stroke-linejoin="round" fill-opacity="0" class="primary" stroke="rgb(42,48,107)" stroke-opacity="1" stroke-width="2.002" d=" M-11.116000175476074,-7.890999794006348 C-11.119000434875488,-7.900000095367432 -11.123000144958496,-7.908999919891357 -11.12600040435791,-7.918000221252441"/></g></g><g transform="matrix(-0.9772217869758606,-0.21222048997879028,0.21222048997879028,-0.9772217869758606,50.936885833740234,39.6650276184082)" opacity="1" style="display: none;"><g opacity="1" transform="matrix(0.34254491329193115,0.9395014643669128,-0.9395014643669128,0.34254491329193115,0,0)"><path stroke-linecap="round" stroke-linejoin="round" fill-opacity="0" class="primary" stroke="rgb(42,48,107)" stroke-opacity="1" stroke-width="2.002" d=" M7.926000118255615,-11.381999969482422 C7.936999797821045,-11.380000114440918 7.947000026702881,-11.378000259399414 7.958000183105469,-11.37600040435791"/></g></g><g transform="matrix(-1,0,0,-1,36.51799774169922,148.96400451660156)" opacity="1" style="display: block;"><g opacity="1" transform="matrix(0.4262056350708008,-0.9046263098716736,0.9046263098716736,0.4262056350708008,0,0)"><path stroke-linecap="round" stroke-linejoin="round" fill-opacity="0" class="primary" stroke="rgb(42,48,107)" stroke-opacity="1" stroke-width="3.005" d=" M0,15.406000137329102 C8.553999900817871,15.406000137329102 15.48799991607666,8.508000373840332 15.48799991607666,0 C15.48799991607666,-8.508000373840332 8.553999900817871,-15.406000137329102 0,-15.406000137329102 C-8.553999900817871,-15.406000137329102 -15.48799991607666,-8.508000373840332 -15.48799991607666,0 C-15.48799991607666,8.508000373840332 -8.553999900817871,15.406000137329102 0,15.406000137329102z"/></g></g><g transform="matrix(-1,0,0,1,61.569000244140625,128.78799438476562)" opacity="1" style="display: block;"><g opacity="1" transform="matrix(0.7600317597389221,0.649885892868042,-0.649885892868042,0.7600317597389221,0,0)"><path stroke-linecap="round" stroke-linejoin="round" fill-opacity="0" class="primary" stroke="rgb(42,48,107)" stroke-opacity="1" stroke-width="3" d=" M16.229999542236328,-0.032999999821186066 C13.576000213623047,-0.032999999821186066 -4.867000102996826,0.017999999225139618 -16.229999542236328,0.032999999821186066"/></g></g><g transform="matrix(-0.5983005166053772,-0.8012717962265015,0.8012717962265015,-0.5983005166053772,28.666976928710938,65.53096771240234)" opacity="1" style="display: none;"><g opacity="1" transform="matrix(0.5787404179573059,-0.8155118227005005,0.8155118227005005,0.5787404179573059,0,0)"><path stroke-linecap="round" stroke-linejoin="round" fill-opacity="0" class="primary" stroke="rgb(42,48,107)" stroke-opacity="1" stroke-width="2" d=" M-6.630000114440918,-2.811000108718872 C-7.188000202178955,-3.7230000495910645 -7.660999774932861,-4.688000202178955 -8.031999588012695,-5.696000099182129"/></g></g><g transform="matrix(-1,0,0,-1,30.947998046875,130.68899536132812)" opacity="1" style="display: block;"><g opacity="1" transform="matrix(0.5787404179573059,-0.8155118227005005,0.8155118227005005,0.5787404179573059,0,0)"><path stroke-linecap="round" stroke-linejoin="round" fill-opacity="0" class="primary" stroke="rgb(42,48,107)" stroke-opacity="1" stroke-width="2" d=" M7.98199987411499,5.409999847412109 C-0.18000000715255737,5.614999771118164 -6.304999828338623,-1.0089999437332153 -8.031999588012695,-5.696000099182129"/></g></g></g></g></svg>