<svg xmlns="http://www.w3.org/2000/svg" xmlns:xlink="http://www.w3.org/1999/xlink" viewBox="0 0 192 192" width="192" height="192" preserveAspectRatio="xMidYMid meet" style="width: 100%; height: 100%; transform: translate3d(0px, 0px, 0px); content-visibility: visible;"><defs><clipPath id="__lottie_element_16541"><rect width="192" height="192" x="0" y="0"/></clipPath><clipPath id="__lottie_element_16543"><path d="M0,0 L192,0 L192,192 L0,192z"/></clipPath></defs><g clip-path="url(#__lottie_element_16541)"><g clip-path="url(#__lottie_element_16543)" transform="matrix(1,0,0,1,0,0)" opacity="1" style="display: block;"><g transform="matrix(1,0,0,1,103.03700256347656,136.70799255371094)" opacity="1" style="display: block;"><g opacity="1" transform="matrix(1,0,0,1,0,0)"><path class="secondary" fill="rgb(230,142,110)" fill-opacity="1" d=" M-42.76499938964844,-24.16900062561035 C-42.874000549316406,-27.062999725341797 -40.32400131225586,-29.899999618530273 -37.11800003051758,-30.045000076293945 C-34.0629997253418,-30.18199920654297 -32.018001556396484,-30.145000457763672 -28.385000228881836,-30.094999313354492 C-26.680999755859375,-30.070999145507812 -23.451000213623047,-28.799999237060547 -23.24799919128418,-26.95400047302246 C-22.18899917602539,-17.30699920654297 -18.79400062561035,12.625 0.628000020980835,12.885000228881836 C20.336999893188477,13.14799976348877 22.52199935913086,-16.3799991607666 23.195999145507812,-26.533000946044922 C23.336000442504883,-28.628000259399414 26.040000915527344,-30.113000869750977 27.319000244140625,-30.167999267578125 C31.569000244140625,-30.354000091552734 35.95800018310547,-30.23699951171875 38.95500183105469,-30.06100082397461 C41.137001037597656,-29.93199920654297 42.7859992980957,-28.388999938964844 42.768001556396484,-26.2189998626709 C42.66299819946289,-13.428000450134277 39.249000549316406,30.503999710083008 -0.5680000185966492,30.261999130249023 C-36.90700149536133,30.041000366210938 -42.19300079345703,-9.04800033569336 -42.76499938964844,-24.16900062561035z"/><path stroke-linecap="round" stroke-linejoin="round" fill-opacity="0" class="secondary" stroke="rgb(230,142,110)" stroke-opacity="1" stroke-width="0.5" d=" M-42.76499938964844,-24.16900062561035 C-42.874000549316406,-27.062999725341797 -40.32400131225586,-29.899999618530273 -37.11800003051758,-30.045000076293945 C-34.0629997253418,-30.18199920654297 -32.018001556396484,-30.145000457763672 -28.385000228881836,-30.094999313354492 C-26.680999755859375,-30.070999145507812 -23.451000213623047,-28.799999237060547 -23.24799919128418,-26.95400047302246 C-22.18899917602539,-17.30699920654297 -18.79400062561035,12.625 0.628000020980835,12.885000228881836 C20.336999893188477,13.14799976348877 22.52199935913086,-16.3799991607666 23.195999145507812,-26.533000946044922 C23.336000442504883,-28.628000259399414 26.040000915527344,-30.113000869750977 27.319000244140625,-30.167999267578125 C31.569000244140625,-30.354000091552734 35.95800018310547,-30.23699951171875 38.95500183105469,-30.06100082397461 C41.137001037597656,-29.93199920654297 42.7859992980957,-28.388999938964844 42.768001556396484,-26.2189998626709 C42.66299819946289,-13.428000450134277 39.249000549316406,30.503999710083008 -0.5680000185966492,30.261999130249023 C-36.90700149536133,30.041000366210938 -42.19300079345703,-9.04800033569336 -42.76499938964844,-24.16900062561035z"/></g></g><g transform="matrix(1,0,0,1,40.222999572753906,30.913999557495117)" opacity="1" style="display: block;"><g opacity="1" transform="matrix(1,0,0,1,0,0)"><path stroke-linecap="round" stroke-linejoin="round" fill-opacity="0" class="primary" stroke="rgb(42,48,107)" stroke-opacity="1" stroke-width="1" d=" M1.3229999542236328,10.718999862670898 C1.2319999933242798,10.597999572753906 1.1380000114440918,10.473999977111816 1.0390000343322754,10.347999572753906 C-4.4070000648498535,3.3929998874664307 -2.0899999141693115,-7.248000144958496 2.1470000743865967,-10.347999572753906"/></g></g><g transform="matrix(1,0,0,1,0,0)" opacity="1" style="display: block;"><g opacity="1" transform="matrix(1,0,0,1,57.266998291015625,61.80799865722656)"><g opacity="1" transform="matrix(1,0,0,1,0,0)"><path stroke-linecap="round" stroke-linejoin="round" fill-opacity="0" class="primary" stroke="rgb(42,48,107)" stroke-opacity="1" stroke-width="1.5" d=" M6.245999813079834,-14.121999740600586 C7.11899995803833,-7.651000022888184 13.697999954223633,-8.253999710083008 15.02400016784668,-7.900000095367432 C27.461999893188477,-4.574999809265137 24.125,14.12600040435791 23.716999053955078,14.121999740600586 C16.900999069213867,14.045999526977539 -23.46299934387207,13.85099983215332 -23.81399917602539,13.67300033569336 C-23.913000106811523,13.623000144958496 -27.679000854492188,-1.3320000171661377 -15.243000030517578,-7.480999946594238 C-9.317999839782715,-10.41100025177002 -7.500999927520752,-8.168000221252441 -5.235000133514404,-13.777999877929688"/></g></g><g opacity="1" transform="matrix(1,0,0,1,57.62900161743164,57.94599914550781)"><g opacity="1" transform="matrix(1,0,0,1,0,0)"><path stroke-linecap="round" stroke-linejoin="round" fill-opacity="0" class="primary" stroke="rgb(42,48,107)" stroke-opacity="1" stroke-width="1.0005" d=" M7.133999824523926,-0.6949999928474426 C5.394000053405762,0.43799999356269836 2.6489999294281006,1.4049999713897705 -0.23000000417232513,1.3279999494552612 C-2.5320000648498535,1.2669999599456787 -4.960000038146973,0.13199999928474426 -7.133999824523926,-1.3320000171661377"/></g></g><g opacity="1" transform="matrix(1,0,0,1,57.073001861572266,35.428001403808594)"><g opacity="1" transform="matrix(1,0,0,1,0,0)"><path stroke-linecap="round" stroke-linejoin="round" fill-opacity="0" class="primary" stroke="rgb(42,48,107)" stroke-opacity="1" stroke-width="1.5" d=" M-10.267000198364258,-9.317999839782715 C-7.585999965667725,-13.967000007629395 -2.365000009536743,-14.746000289916992 0.41999998688697815,-14.795000076293945 C9.319000244140625,-14.951000213623047 10.79699993133545,-9.017000198364258 11.475000381469727,-5.580999851226807 C12.180000305175781,-2.009999990463257 12.15999984741211,5.540999889373779 7.323999881744385,11.133999824523926 C6.730999946594238,11.821000099182129 5.704999923706055,12.852999687194824 4.9679999351501465,13.35099983215332 C-0.05000000074505806,16.742000579833984 -5.307000160217285,13.70199966430664 -8.197999954223633,9.097000122070312 C-9.708000183105469,6.691999912261963 -10.684000015258789,3.619999885559082 -11.359999656677246,0.8799999952316284 C-12.138999938964844,-2.2790000438690186 -11.97599983215332,-6.353000164031982 -10.267000198364258,-9.317999839782715z"/></g></g></g><g transform="matrix(1,0,0,1,143.11199951171875,26.393999099731445)" opacity="1" style="display: block;"><g opacity="1" transform="matrix(1,0,0,1,0,0)"><path stroke-linecap="round" stroke-linejoin="round" fill-opacity="0" class="primary" stroke="rgb(42,48,107)" stroke-opacity="1" stroke-width="1" d=" M8.184000015258789,10.619000434875488 C8.973999977111816,1.0180000066757202 5.333000183105469,-11.02299976348877 -8.28600025177002,-10.607999801635742"/></g></g><g transform="matrix(1,0,0,1,107.31800079345703,59.70500183105469)" opacity="1" style="display: block;"><g opacity="1" transform="matrix(1,0,0,1,0,0)"><path stroke-linecap="round" stroke-linejoin="round" fill-opacity="0" class="primary" stroke="rgb(42,48,107)" stroke-opacity="1" stroke-width="1" d=" M-4.535999774932861,7.685999870300293 C-4.535999774932861,1.7799999713897705 -2.61899995803833,-5.986999988555908 3.7880001068115234,-7.5370001792907715"/></g></g><g transform="matrix(1,0,0,1,0,0)" opacity="1" style="display: block;"><g opacity="1" transform="matrix(1,0,0,1,134.36700439453125,62.321998596191406)"><g opacity="1" transform="matrix(1,0,0,1,0,0)"><path stroke-linecap="round" stroke-linejoin="round" fill-opacity="0" class="primary" stroke="rgb(42,48,107)" stroke-opacity="1" stroke-width="1.5" d=" M6.245999813079834,-14.121999740600586 C7.11899995803833,-7.651000022888184 13.697999954223633,-8.253999710083008 15.02400016784668,-7.900000095367432 C27.461999893188477,-4.574999809265137 24.125,14.12600040435791 23.716999053955078,14.121999740600586 C16.900999069213867,14.045999526977539 -23.46299934387207,13.85099983215332 -23.81399917602539,13.67300033569336 C-23.913000106811523,13.623000144958496 -27.679000854492188,-1.3320000171661377 -15.243000030517578,-7.480999946594238 C-9.317999839782715,-10.41100025177002 -7.500999927520752,-8.168000221252441 -5.235000133514404,-13.777999877929688"/></g></g><g opacity="1" transform="matrix(1,0,0,1,134.72999572753906,58.459999084472656)"><g opacity="1" transform="matrix(1,0,0,1,0,0)"><path stroke-linecap="round" stroke-linejoin="round" fill-opacity="0" class="primary" stroke="rgb(42,48,107)" stroke-opacity="1" stroke-width="1.0005" d=" M7.133999824523926,-0.6949999928474426 C5.394000053405762,0.43799999356269836 2.6489999294281006,1.4049999713897705 -0.23000000417232513,1.3279999494552612 C-2.5320000648498535,1.2669999599456787 -4.960000038146973,0.13199999928474426 -7.133999824523926,-1.3320000171661377"/></g></g><g opacity="1" transform="matrix(1,0,0,1,134.1739959716797,35.94200134277344)"><g opacity="1" transform="matrix(1,0,0,1,0,0)"><path stroke-linecap="round" stroke-linejoin="round" fill-opacity="0" class="primary" stroke="rgb(42,48,107)" stroke-opacity="1" stroke-width="1.5" d=" M-10.267000198364258,-9.317999839782715 C-7.585999965667725,-13.967000007629395 -2.365000009536743,-14.746000289916992 0.41999998688697815,-14.795000076293945 C9.319000244140625,-14.951000213623047 10.79699993133545,-9.017000198364258 11.475000381469727,-5.580999851226807 C12.180000305175781,-2.009999990463257 12.15999984741211,5.540999889373779 7.323999881744385,11.133999824523926 C6.730999946594238,11.821000099182129 5.704999923706055,12.852999687194824 4.9679999351501465,13.35099983215332 C-0.05000000074505806,16.742000579833984 -5.307000160217285,13.70199966430664 -8.197999954223633,9.097000122070312 C-9.708000183105469,6.691999912261963 -10.684000015258789,3.619999885559082 -11.359999656677246,0.8799999952316284 C-12.138999938964844,-2.2790000438690186 -11.97599983215332,-6.353000164031982 -10.267000198364258,-9.317999839782715z"/></g></g></g><g transform="matrix(1,0,0,1,118.96299743652344,144.73500061035156)" opacity="1" style="display: block;"><g opacity="1" transform="matrix(1,0,0,1,0,0)"><path stroke-linecap="round" stroke-linejoin="round" fill-opacity="0" class="primary" stroke="rgb(42,48,107)" stroke-opacity="1" stroke-width="0.9985" d=" M9.506999969482422,-15.87399959564209 C7.2769999504089355,-1.6019999980926514 0.3230000138282776,9.39900016784668 -9.506999969482422,15.87399959564209"/></g></g><g transform="matrix(1,0,0,1,0,0)" opacity="1" style="display: block;"><g opacity="1" transform="matrix(1,0,0,1,57.39099884033203,150.99600219726562)"><g opacity="1" transform="matrix(1,0,0,1,0,0)"><path stroke-linecap="round" stroke-linejoin="round" fill-opacity="0" class="primary" stroke-dasharray=" 117 7" stroke-dashoffset="102" stroke="rgb(42,48,107)" stroke-opacity="1" stroke-width="0.9985" d=" M-13.640999794006348,-44.99599838256836 C-13.640999794006348,-44.99599838256836 -13.291000366210938,-23.549999237060547 -13.291000366210938,-23.549999237060547 C-13.642999649047852,-2.23799991607666 -4.630000114440918,14.13700008392334 13.300999641418457,23.549999237060547 C13.300999641418457,23.549999237060547 13.300999641418457,23.549999237060547 13.300999641418457,23.549999237060547"/></g></g></g><g transform="matrix(1,0,0,1,0,0)" opacity="1" style="display: block;"><g opacity="1" transform="matrix(1,0,0,1,95.68499755859375,138.21099853515625)"><g opacity="1" transform="matrix(1,0,0,1,0,0)"><path stroke-linecap="round" stroke-linejoin="round" fill-opacity="0" class="primary" stroke="rgb(42,48,107)" stroke-opacity="1" stroke-width="1.5" d=" M-0.5410000085830688,32.340999603271484 C-43.83700180053711,32.060001373291016 -43.05099868774414,-27.18600082397461 -42.731998443603516,-31.82200050354004 C-38.99300003051758,-32.099998474121094 -30.690000534057617,-31.924999237060547 -23.670000076293945,-31.9689998626709 C-22.871999740600586,-31.972999572753906 -22.486000061035156,13.439000129699707 0.6539999842643738,13.770000457763672 C24.42799949645996,14.107999801635742 22.704999923706055,-31.875 23.58799934387207,-31.966999053955078 C31.761999130249023,-32.8129997253418 42.402000427246094,-32.00600051879883 42.724998474121094,-31.71299934387207 C42.79899978637695,-31.645000457763672 46.03300094604492,32.64400100708008 -0.5410000085830688,32.340999603271484z"/></g></g><g opacity="1" transform="matrix(1,0,0,1,63.369998931884766,114.74500274658203)"><g opacity="1" transform="matrix(1,0,0,1,0,0)"><path stroke-linecap="round" stroke-linejoin="round" fill-opacity="0" class="primary" stroke="rgb(42,48,107)" stroke-opacity="1" stroke-width="0.9985" d=" M9.543000221252441,-0.07900000363588333 C4.626999855041504,-0.07900000363588333 -4.855000019073486,-0.019999999552965164 -9.543000221252441,0.07900000363588333"/></g></g><g opacity="1" transform="matrix(1,0,0,1,128.5570068359375,114.68000030517578)"><g opacity="1" transform="matrix(1,0,0,1,0,0)"><path stroke-linecap="round" stroke-linejoin="round" fill-opacity="0" class="primary" stroke="rgb(42,48,107)" stroke-opacity="1" stroke-width="0.9985" d=" M9.543000221252441,-0.07900000363588333 C4.626999855041504,-0.07900000363588333 -4.855000019073486,-0.019999999552965164 -9.543000221252441,0.07900000363588333"/></g></g></g><g transform="matrix(1,0,0,1,59.553001403808594,90.8479995727539)" opacity="1" style="display: block;"><g opacity="1" transform="matrix(0.999851644039154,-0.01722554862499237,0.01722554862499237,0.999851644039154,0,0)"><path stroke-linecap="round" stroke-linejoin="round" fill-opacity="0" class="primary" stroke="rgb(42,48,107)" stroke-opacity="1" stroke-width="1.5" d=" M0.050999999046325684,5.1479997634887695 C0.11400000005960464,1.6019999980926514 0.18299999833106995,-2.3580000400543213 0.22699999809265137,-5.566999912261963"/></g></g><g transform="matrix(1,0,0,1,66.3030014038086,90.8479995727539)" opacity="1" style="display: block;"><g opacity="1" transform="matrix(0.999851644039154,-0.01722554862499237,0.01722554862499237,0.999851644039154,0,0)"><path stroke-linecap="round" stroke-linejoin="round" fill-opacity="0" class="primary" stroke="rgb(42,48,107)" stroke-opacity="1" stroke-width="1.5" d=" M-0.08299999684095383,13.223999977111816 C-0.057999998331069946,11.229000091552734 0.019999999552965164,6.966000080108643 0.09799999743700027,2.509999990463257"/></g></g><g transform="matrix(1,0,0,1,120.0530014038086,90.8479995727539)" opacity="1" style="display: block;"><g opacity="1" transform="matrix(0.999851644039154,-0.01722554862499237,0.01722554862499237,0.999851644039154,0,0)"><path stroke-linecap="round" stroke-linejoin="round" fill-opacity="0" class="primary" stroke="rgb(42,48,107)" stroke-opacity="1" stroke-width="1.5" d=" M0.06300000101327896,4.510000228881836 C0.12600000202655792,0.890999972820282 0.19499999284744263,-3.078000068664551 0.23499999940395355,-6.203999996185303"/></g></g><g transform="matrix(1,0,0,1,129.30299377441406,90.8479995727539)" opacity="1" style="display: block;"><g opacity="1" transform="matrix(0.999851644039154,-0.01722554862499237,0.01722554862499237,0.999851644039154,0,0)"><path stroke-linecap="round" stroke-linejoin="round" fill-opacity="0" class="primary" stroke="rgb(42,48,107)" stroke-opacity="1" stroke-width="1.5" d=" M-0.08799999952316284,13.777999877929688 C-0.07800000160932541,12.541000366210938 -0.027000000700354576,9.595999717712402 0.03400000184774399,6.125"/></g></g><g transform="matrix(1,0,0,1,137.80299377441406,90.8479995727539)" opacity="1" style="display: block;"><g opacity="1" transform="matrix(0.999851644039154,-0.01722554862499237,0.01722554862499237,0.999851644039154,0,0)"><path stroke-linecap="round" stroke-linejoin="round" fill-opacity="0" class="primary" stroke="rgb(42,48,107)" stroke-opacity="1" stroke-width="1.5" d=" M0.06300000101327896,4.510000228881836 C0.12600000202655792,0.890999972820282 0.19499999284744263,-3.078000068664551 0.23499999940395355,-6.203999996185303"/></g></g></g></g></svg>