<svg xmlns="http://www.w3.org/2000/svg" xmlns:xlink="http://www.w3.org/1999/xlink" viewBox="0 0 192 192" width="192" height="192" preserveAspectRatio="xMidYMid meet" style="width: 100%; height: 100%; transform: translate3d(0px, 0px, 0px); content-visibility: visible;"><defs><clipPath id="__lottie_element_997"><rect width="192" height="192" x="0" y="0"/></clipPath><clipPath id="__lottie_element_999"><path d="M0,0 L192,0 L192,192 L0,192z"/></clipPath><g id="__lottie_element_1015"><g transform="matrix(1,0,0,1,145.86900329589844,136.21200561523438)" opacity="1" style="display: none;"><g opacity="1" transform="matrix(1,0,0,1,0,0)"><path fill="rgb(255,255,255)" fill-opacity="1" d=" M17.868419647216797,-22.310047149658203 C17.868276596069336,-22.310190200805664 9.062463760375977,-24.189109802246094 9.062403678894043,-24.190214157104492 C9.062474250793457,-24.190214157104492 9.074348449707031,-24.218700408935547 9.074348449707031,-24.218700408935547 C9.074348449707031,-24.218700408935547 9.074348449707031,-24.218700408935547 9.074348449707031,-24.218700408935547 C9.074348449707031,-24.218700408935547 9.107492446899414,-24.296772003173828 9.119239807128906,-24.3181095123291 C9.120508193969727,-24.321622848510742 9.127556800842285,-24.33707618713379 9.12993049621582,-24.339448928833008 C9.131048202514648,-24.340566635131836 17.8810977935791,-22.33685874938965 17.8810977935791,-22.336856842041016 C17.8810977935791,-22.33677864074707 17.872587203979492,-22.320829391479492 17.87076187133789,-22.315811157226562 C17.87026596069336,-22.3144474029541 17.868661880493164,-22.310012817382812 17.868566513061523,-22.309917449951172 C17.868513107299805,-22.309865951538086 17.868436813354492,-22.310029983520508 17.868419647216797,-22.310047149658203z"/></g></g></g><g id="__lottie_element_1027"><g clip-path="url(#__lottie_element_1028)" transform="matrix(1,0,0,1,0,0)" opacity="1" style="display: block;"><g transform="matrix(-1,0,0,-1,104.53700256347656,38.05500030517578)" opacity="1" style="display: none;"><path fill="rgb(255,0,0)" fill-opacity="1" d=" M-0.04468800127506256,-7.382730007171631 C-0.045186664909124374,-7.384441375732422 -0.04510600119829178,-7.6057448387146 -0.04509866610169411,-7.608189105987549 C-0.04022400081157684,-7.608189105987549 0.18174932897090912,-7.609497547149658 0.18359999358654022,-7.607272624969482 C0.18547266721725464,-7.605011463165283 0.18198400735855103,-7.404690742492676 0.18396666646003723,-7.38253927230835 C0.18412066996097565,-7.378669261932373 -0.042888667434453964,-7.380571365356445 -0.04468800127506256,-7.382730007171631z"/><g opacity="1" transform="matrix(1,0,0,1,0,0)"/></g><g transform="matrix(-1,0,0,-1,48.237998962402344,88.51000213623047)" opacity="1" style="display: none;"><path fill="rgb(255,0,0)" fill-opacity="1" d=" M-0.27204933762550354,-8.87828254699707 C-0.2751706540584564,-8.882452011108398 -0.2741493284702301,-9.572958946228027 -0.27414798736572266,-9.58130168914795 C-0.25744932889938354,-9.58130168914795 0.4497426748275757,-9.583374977111816 0.4549493193626404,-9.576085090637207 C0.4601626694202423,-9.56878662109375 0.4507986605167389,-8.947115898132324 0.4570373296737671,-8.877236366271973 C0.4580746591091156,-8.866791725158691 -0.2668546736240387,-8.8720064163208 -0.27204933762550354,-8.87828254699707z"/><g opacity="1" transform="matrix(1,0,0,1,0,0)"/></g><g transform="matrix(-1,0,0,-1,47.672000885009766,144.49899291992188)" opacity="1" style="display: none;"><path fill="rgb(255,0,0)" fill-opacity="1" d=" M-9.826153755187988,1.291426658630371 C-9.827672958374023,1.2886933088302612 -9.827580451965332,0.8439266681671143 -9.827573776245117,0.8384400010108948 C-9.816593170166016,0.8384400010108948 -9.369126319885254,0.8381133079528809 -9.366239547729492,0.8423733115196228 C-9.363327026367188,0.846673309803009 -9.368873596191406,1.2481132745742798 -9.364859580993652,1.2926199436187744 C-9.364700317382812,1.299546718597412 -9.823320388793945,1.2956199645996094 -9.826153755187988,1.291426658630371z"/><g opacity="1" transform="matrix(1,0,0,1,0,0)"/></g><g transform="matrix(1,0,0,1,144.36199951171875,143.49099731445312)" opacity="1" style="display: none;"><path fill="rgb(255,0,0)" fill-opacity="1" d=" M-8.694000244140625,0.32199999690055847 C-8.694000244140625,0.3230000138282776 -8.694000244140625,0.3230000138282776 -8.694000244140625,0.3240000009536743 C-8.69384765625,0.32921671867370605 -8.697389602661133,0.33324888348579407 -8.701460838317871,0.33348894119262695 C-8.703548431396484,0.3336905241012573 -8.706424713134766,0.33253026008605957 -8.707910537719727,0.33128106594085693 C-8.707910537719727,0.33128106594085693 -8.707910537719727,0.33128106594085693 -8.707910537719727,0.33128106594085693 C-8.714009284973145,0.32639753818511963 -8.711586952209473,0.31613123416900635 -8.703598976135254,0.3154783248901367 C-8.703821182250977,0.3154771625995636 -8.702539443969727,0.3153753876686096 -8.702280044555664,0.3154933452606201 C-8.699999809265137,0.3149999976158142 -8.694999694824219,0.31700000166893005 -8.694000244140625,0.32199999690055847"/><g opacity="1" transform="matrix(1,0,0,1,0,0)"/></g></g></g><clipPath id="__lottie_element_1028"><path d="M0,0 L192,0 L192,192 L0,192z"/></clipPath><g id="__lottie_element_1049"><g transform="matrix(1,0,0,1,144.36199951171875,143.49099731445312)" opacity="1" style="display: none;"><g opacity="1" transform="matrix(1,0,0,1,0,0)"><path stroke-linecap="round" stroke-linejoin="round" fill-opacity="0" class="primary" stroke="rgb(42,48,107)" stroke-opacity="1" stroke-width="2.999" d=" M-8.694000244140625,0.32199999690055847 C-8.694000244140625,0.3230000138282776 -8.694000244140625,0.3230000138282776 -8.694000244140625,0.3240000009536743 C-8.69384765625,0.32921671867370605 -8.697389602661133,0.33324888348579407 -8.701460838317871,0.33348894119262695 C-8.703548431396484,0.3336905241012573 -8.706424713134766,0.33253026008605957 -8.707910537719727,0.33128106594085693 C-8.707910537719727,0.33128106594085693 -8.707910537719727,0.33128106594085693 -8.707910537719727,0.33128106594085693 C-8.714009284973145,0.32639753818511963 -8.711586952209473,0.31613123416900635 -8.703598976135254,0.3154783248901367 C-8.703821182250977,0.3154771625995636 -8.702539443969727,0.3153753876686096 -8.702280044555664,0.3154933452606201 C-8.699999809265137,0.3149999976158142 -8.694999694824219,0.31700000166893005 -8.694000244140625,0.32199999690055847"/><path fill="rgb(255,0,0)" fill-opacity="1" d=" M-8.694000244140625,0.32199999690055847 C-8.694000244140625,0.3230000138282776 -8.694000244140625,0.3230000138282776 -8.694000244140625,0.3240000009536743 C-8.69384765625,0.32921671867370605 -8.697389602661133,0.33324888348579407 -8.701460838317871,0.33348894119262695 C-8.703548431396484,0.3336905241012573 -8.706424713134766,0.33253026008605957 -8.707910537719727,0.33128106594085693 C-8.707910537719727,0.33128106594085693 -8.707910537719727,0.33128106594085693 -8.707910537719727,0.33128106594085693 C-8.714009284973145,0.32639753818511963 -8.711586952209473,0.31613123416900635 -8.703598976135254,0.3154783248901367 C-8.703821182250977,0.3154771625995636 -8.702539443969727,0.3153753876686096 -8.702280044555664,0.3154933452606201 C-8.699999809265137,0.3149999976158142 -8.694999694824219,0.31700000166893005 -8.694000244140625,0.32199999690055847"/></g></g></g><mask id="__lottie_element_1049_1" mask-type="alpha"><use xmlns:ns1="http://www.w3.org/1999/xlink" ns1:href="#__lottie_element_1049"/></mask><filter id="__lottie_element_1052" filterUnits="objectBoundingBox" x="0%" y="0%" width="100%" height="100%"><feComponentTransfer in="SourceGraphic"><feFuncA type="table" tableValues="1.0 0.0"/></feComponentTransfer></filter><mask id="__lottie_element_1027_2" mask-type="alpha" maskUnits="userSpaceOnUse"><g filter="url(#__lottie_element_1052)"><rect width="192" height="192" x="0" y="0" fill="#ffffff" opacity="0"/><use xmlns:ns2="http://www.w3.org/1999/xlink" ns2:href="#__lottie_element_1027"/></g></mask><filter id="__lottie_element_1053" filterUnits="objectBoundingBox" x="0%" y="0%" width="100%" height="100%"><feComponentTransfer in="SourceGraphic"><feFuncA type="table" tableValues="1.0 0.0"/></feComponentTransfer></filter><mask id="__lottie_element_1015_2" mask-type="alpha" maskUnits="userSpaceOnUse"><g filter="url(#__lottie_element_1053)"><rect width="192" height="192" x="0" y="0" fill="#ffffff" opacity="0"/><use xmlns:ns3="http://www.w3.org/1999/xlink" ns3:href="#__lottie_element_1015"/></g></mask><g id="__lottie_element_1142"><g clip-path="url(#__lottie_element_1143)" transform="matrix(1,0,0,1,0,0)" opacity="1" style="display: block;"><g transform="matrix(-1,0,0,-1,104.53700256347656,38.05500030517578)" opacity="1" style="display: block;"><path fill="rgb(255,0,0)" fill-opacity="1" d=" M-25.56399917602539,17.479999542236328 C-25.770000457763672,17.274999618530273 -25.735000610351562,-17.420000076293945 -25.73200035095215,-17.836999893188477 C-24.541000366210938,-17.836999893188477 25.23200035095215,-17.927000045776367 25.586000442504883,-17.573999404907227 C25.948999404907227,-17.209999084472656 25.32900047302246,14.031000137329102 25.736000061035156,17.535999298095703 C25.798999786376953,18.076000213623047 -25.229999542236328,17.815000534057617 -25.56399917602539,17.479999542236328z"/><g opacity="1" transform="matrix(1,0,0,1,0,0)"/></g><g transform="matrix(-1,0,0,-1,48.237998962402344,88.51000213623047)" opacity="1" style="display: block;"><path fill="rgb(255,0,0)" fill-opacity="1" d=" M-25.56399917602539,17.479999542236328 C-25.770000457763672,17.274999618530273 -25.735000610351562,-17.420000076293945 -25.73200035095215,-17.836999893188477 C-24.541000366210938,-17.836999893188477 25.23200035095215,-17.927000045776367 25.586000442504883,-17.573999404907227 C25.948999404907227,-17.209999084472656 25.32900047302246,14.031000137329102 25.736000061035156,17.535999298095703 C25.798999786376953,18.076000213623047 -25.229999542236328,17.815000534057617 -25.56399917602539,17.479999542236328z"/><g opacity="1" transform="matrix(1,0,0,1,0,0)"/></g><g transform="matrix(-1,0,0,-1,47.672000885009766,144.49899291992188)" opacity="1" style="display: block;"><path fill="rgb(255,0,0)" fill-opacity="1" d=" M-25.56399917602539,17.479999542236328 C-25.770000457763672,17.274999618530273 -25.735000610351562,-17.420000076293945 -25.73200035095215,-17.836999893188477 C-24.541000366210938,-17.836999893188477 25.23200035095215,-17.927000045776367 25.586000442504883,-17.573999404907227 C25.948999404907227,-17.209999084472656 25.32900047302246,14.031000137329102 25.736000061035156,17.535999298095703 C25.798999786376953,18.076000213623047 -25.229999542236328,17.815000534057617 -25.56399917602539,17.479999542236328z"/><g opacity="1" transform="matrix(1,0,0,1,0,0)"/></g><g transform="matrix(1,0,0,1,144.36199951171875,143.49099731445312)" opacity="1" style="display: block;"><path fill="rgb(255,0,0)" fill-opacity="1" d=" M-16.40399932861328,21.30299949645996 C-35.49700164794922,5.8520002365112305 -27.356000900268555,-24.618000030517578 -2.311000108718872,-26.90999984741211 C-1.6399999856948853,-26.910999298095703 0.3319999873638153,-26.999000549316406 1.4199999570846558,-26.89699935913086 C8.866000175476074,-26.200000762939453 24.500999450683594,-22.19099998474121 26.750999450683594,-2.505000114440918 C28.57699966430664,13.472000122070312 16.87700080871582,24.73200035095215 3.8559999465942383,26.66699981689453 C-3.13100004196167,27.704999923706055 -10.800999641418457,25.83799934387207 -16.40399932861328,21.30299949645996z"/><g opacity="1" transform="matrix(1,0,0,1,0,0)"/></g></g></g><clipPath id="__lottie_element_1143"><path d="M0,0 L192,0 L192,192 L0,192z"/></clipPath><filter id="__lottie_element_1146" filterUnits="objectBoundingBox" x="0%" y="0%" width="100%" height="100%"><feComponentTransfer in="SourceGraphic"><feFuncA type="table" tableValues="1.0 0.0"/></feComponentTransfer></filter><mask id="__lottie_element_1142_2" mask-type="alpha" maskUnits="userSpaceOnUse"><g filter="url(#__lottie_element_1146)"><rect width="192" height="192" x="0" y="0" fill="#ffffff" opacity="0"/><use xmlns:ns4="http://www.w3.org/1999/xlink" ns4:href="#__lottie_element_1142"/></g></mask><g id="__lottie_element_1318"><g style="display: block;" transform="matrix(1,0,0,1,145.86900329589844,136.21200561523438)" opacity="1"><g opacity="1" transform="matrix(1,0,0,1,0,0)"><path fill="rgb(255,255,255)" fill-opacity="1" d=" M-4.449999809265137,24.509000778198242 C-5.085999965667725,23.871999740600586 -17.784000396728516,1.6039999723434448 -18.052000045776367,1.1399999856948853 C-17.736000061035156,1.1399999856948853 -12.940999984741211,-3.7339999675750732 -12.62600040435791,-3.4189999103546143 C-11.795999526977539,-2.5880000591278076 -6.113999843597412,7.796000003814697 -5.896999835968018,7.578999996185303 C-5.364999771118164,7.046999931335449 2.9719998836517334,-13.404000282287598 6.040999889373779,-19.263999938964844 C6.51200008392334,-20.163999557495117 8.352999687194824,-24.4689998626709 9.008000373840332,-25.124000549316406 C9.21500015258789,-25.33099937438965 18.052000045776367,-22.09000015258789 18.052000045776367,-22.084999084472656 C18.052000045776367,-21.948999404907227 3.1570000648498535,5.960000038146973 -0.035999998450279236,14.741999626159668 C-0.9039999842643738,17.128999710083008 -3.371999979019165,24.660999298095703 -3.7980000972747803,25.08799934387207 C-4.0320000648498535,25.320999145507812 -4.375999927520752,24.58300018310547 -4.449999809265137,24.509000778198242z"/></g></g></g><filter id="__lottie_element_1321" filterUnits="objectBoundingBox" x="0%" y="0%" width="100%" height="100%"><feComponentTransfer in="SourceGraphic"><feFuncA type="table" tableValues="1.0 0.0"/></feComponentTransfer></filter><mask id="__lottie_element_1318_2" mask-type="alpha" maskUnits="userSpaceOnUse"><g filter="url(#__lottie_element_1321)"><rect width="192" height="192" x="0" y="0" fill="#ffffff" opacity="0"/><use xmlns:ns5="http://www.w3.org/1999/xlink" ns5:href="#__lottie_element_1318"/></g></mask></defs><g clip-path="url(#__lottie_element_997)"><g clip-path="url(#__lottie_element_999)" transform="matrix(1,0,0,1,0,0)" opacity="1" style="display: block;"><g transform="matrix(-1,0,0,-1,104.53700256347656,38.05500030517578)" opacity="1" style="display: none;"><g opacity="1" transform="matrix(1,0,0,1,0,0)"><path stroke-linecap="round" stroke-linejoin="round" fill-opacity="0" class="primary" stroke="rgb(42,48,107)" stroke-opacity="1" stroke-width="4.503" d=" M-0.04468800127506256,-7.382730007171631 C-0.045186664909124374,-7.384441375732422 -0.04510600119829178,-7.6057448387146 -0.04509866610169411,-7.608189105987549 C-0.04022400081157684,-7.608189105987549 0.18174932897090912,-7.609497547149658 0.18359999358654022,-7.607272624969482 C0.18547266721725464,-7.605011463165283 0.18198400735855103,-7.404690742492676 0.18396666646003723,-7.38253927230835 C0.18412066996097565,-7.378669261932373 -0.042888667434453964,-7.380571365356445 -0.04468800127506256,-7.382730007171631z"/></g></g><g transform="matrix(-1,0,0,-1,48.237998962402344,88.51000213623047)" opacity="1" style="display: none;"><g opacity="1" transform="matrix(1,0,0,1,0,0)"><path stroke-linecap="round" stroke-linejoin="round" fill-opacity="0" class="primary" stroke="rgb(42,48,107)" stroke-opacity="1" stroke-width="4.503" d=" M-0.27204933762550354,-8.87828254699707 C-0.2751706540584564,-8.882452011108398 -0.2741493284702301,-9.572958946228027 -0.27414798736572266,-9.58130168914795 C-0.25744932889938354,-9.58130168914795 0.4497426748275757,-9.583374977111816 0.4549493193626404,-9.576085090637207 C0.4601626694202423,-9.56878662109375 0.4507986605167389,-8.947115898132324 0.4570373296737671,-8.877236366271973 C0.4580746591091156,-8.866791725158691 -0.2668546736240387,-8.8720064163208 -0.27204933762550354,-8.87828254699707z"/></g></g><g transform="matrix(-1,0,0,-1,47.672000885009766,144.49899291992188)" opacity="1" style="display: none;"><g opacity="1" transform="matrix(1,0,0,1,0,0)"><path stroke-linecap="round" stroke-linejoin="round" fill-opacity="0" class="primary" stroke="rgb(42,48,107)" stroke-opacity="1" stroke-width="4.503" d=" M-9.826153755187988,1.291426658630371 C-9.827672958374023,1.2886933088302612 -9.827580451965332,0.8439266681671143 -9.827573776245117,0.8384400010108948 C-9.816593170166016,0.8384400010108948 -9.369126319885254,0.8381133079528809 -9.366239547729492,0.8423733115196228 C-9.363327026367188,0.846673309803009 -9.368873596191406,1.2481132745742798 -9.364859580993652,1.2926199436187744 C-9.364700317382812,1.299546718597412 -9.823320388793945,1.2956199645996094 -9.826153755187988,1.291426658630371z"/></g></g><g mask="url(#__lottie_element_1015_2)" style="display: none;"><g transform="matrix(1,0,0,1,0,0)" opacity="1"><g opacity="1" transform="matrix(1,0,0,1,150.2969970703125,141.92300415039062)"><g opacity="1" transform="matrix(1,0,0,1,0,0)"><path class="secondary" fill="rgb(230,142,110)" fill-opacity="1" d=" M-8.709101676940918,0.3345266878604889 C-8.718153953552246,0.32725268602371216 -8.714471817016602,0.31227239966392517 -8.702609062194824,0.31126484274864197 C-8.702728271484375,0.3112635314464569 -8.701141357421875,0.31114816665649414 -8.700714111328125,0.31128188967704773 C-8.696944236755371,0.3111970126628876 -8.689428329467773,0.3134569227695465 -8.6884765625,0.32328712940216064 C-8.688079833984375,0.33125072717666626 -8.693431854248047,0.33702489733695984 -8.699517250061035,0.3375643789768219 C-8.702685356140137,0.33792656660079956 -8.706748962402344,0.33647751808166504 -8.709101676940918,0.3345266878604889z"/><path stroke-linecap="round" stroke-linejoin="round" fill-opacity="0" class="secondary" stroke="rgb(230,142,110)" stroke-opacity="1" stroke-width="1.001" d=" M-8.709101676940918,0.3345266878604889 C-8.718153953552246,0.32725268602371216 -8.714471817016602,0.31227239966392517 -8.702609062194824,0.31126484274864197 C-8.702728271484375,0.3112635314464569 -8.701141357421875,0.31114816665649414 -8.700714111328125,0.31128188967704773 C-8.696944236755371,0.3111970126628876 -8.689428329467773,0.3134569227695465 -8.6884765625,0.32328712940216064 C-8.688079833984375,0.33125072717666626 -8.693431854248047,0.33702489733695984 -8.699517250061035,0.3375643789768219 C-8.702685356140137,0.33792656660079956 -8.706748962402344,0.33647751808166504 -8.709101676940918,0.3345266878604889z"/></g></g></g></g><g transform="matrix(1,0,0,1,144.36199951171875,143.49099731445312)" opacity="1" style="display: none;"><g opacity="1" transform="matrix(1,0,0,1,0,0)"><path stroke-linecap="round" stroke-linejoin="round" fill-opacity="0" class="primary" stroke="rgb(42,48,107)" stroke-opacity="1" stroke-width="2.999" d=" M-8.694000244140625,0.32199999690055847 C-8.694000244140625,0.3230000138282776 -8.694000244140625,0.3230000138282776 -8.694000244140625,0.3240000009536743 C-8.69384765625,0.32921671867370605 -8.697389602661133,0.33324888348579407 -8.701460838317871,0.33348894119262695 C-8.703548431396484,0.3336905241012573 -8.706424713134766,0.33253026008605957 -8.707910537719727,0.33128106594085693 C-8.707910537719727,0.33128106594085693 -8.707910537719727,0.33128106594085693 -8.707910537719727,0.33128106594085693 C-8.714009284973145,0.32639753818511963 -8.711586952209473,0.31613123416900635 -8.703598976135254,0.3154783248901367 C-8.703821182250977,0.3154771625995636 -8.702539443969727,0.3153753876686096 -8.702280044555664,0.3154933452606201 C-8.699999809265137,0.3149999976158142 -8.694999694824219,0.31700000166893005 -8.694000244140625,0.32199999690055847"/></g></g><g transform="matrix(1,0,0,1,145.86900329589844,136.21200561523438)" opacity="1" style="display: none;"><g opacity="1" transform="matrix(1,0,0,1,0,0)"><path stroke-linecap="round" stroke-linejoin="round" fill-opacity="0" class="primary" stroke="rgb(42,48,107)" stroke-opacity="1" stroke-width="3.002" d=" M17.868419647216797,-22.310047149658203 C17.868276596069336,-22.310190200805664 9.062463760375977,-24.189109802246094 9.062403678894043,-24.190214157104492 C9.062474250793457,-24.190214157104492 9.074348449707031,-24.218700408935547 9.074348449707031,-24.218700408935547 C9.074348449707031,-24.218700408935547 9.074348449707031,-24.218700408935547 9.074348449707031,-24.218700408935547 C9.074348449707031,-24.218700408935547 9.107492446899414,-24.296772003173828 9.119239807128906,-24.3181095123291 C9.120508193969727,-24.321622848510742 9.127556800842285,-24.33707618713379 9.12993049621582,-24.339448928833008 C9.131048202514648,-24.340566635131836 17.8810977935791,-22.33685874938965 17.8810977935791,-22.336856842041016 C17.8810977935791,-22.33677864074707 17.872587203979492,-22.320829391479492 17.87076187133789,-22.315811157226562 C17.87026596069336,-22.3144474029541 17.868661880493164,-22.310012817382812 17.868566513061523,-22.309917449951172 C17.868513107299805,-22.309865951538086 17.868436813354492,-22.310029983520508 17.868419647216797,-22.310047149658203z"/></g></g><g mask="url(#__lottie_element_1027_2)" style="display: none;"><g transform="matrix(-1,0,0,1,89.33699798583984,72.91899871826172)" opacity="1"><g opacity="1" transform="matrix(1,0,0,1,0,0)"><path stroke-linecap="round" stroke-linejoin="round" fill-opacity="0" class="primary" stroke="rgb(42,48,107)" stroke-opacity="1" stroke-width="3" d=" M-44.66299819946289,70.45700073242188 C-44.66299819946289,70.45700073242188 -44.66299819946289,70.45700073242188 -44.66299819946289,70.45700073242188"/></g></g></g><g transform="matrix(-1,0,0,-1,103.29100036621094,27.04800033569336)" opacity="1" style="display: none;"><g opacity="1" transform="matrix(1,0,0,1,0,0)"><path stroke-linecap="round" stroke-linejoin="round" fill-opacity="0" class="primary" stroke="rgb(42,48,107)" stroke-opacity="1" stroke-width="2.005" d="M0 0"/></g></g><g transform="matrix(1,0,0,1,70.19999694824219,37.29800033569336)" opacity="1" style="display: none;"><g opacity="1" transform="matrix(1,0,0,1,0,0)"><path stroke-linecap="round" stroke-linejoin="round" fill-opacity="0" class="primary" stroke="rgb(42,48,107)" stroke-opacity="1" stroke-width="2" d="M0 0"/></g></g><g transform="matrix(-1,0,0,-1,66.59100341796875,88.76800537109375)" opacity="1" style="display: none;"><g opacity="1" transform="matrix(1,0,0,1,0,0)"><path stroke-linecap="round" stroke-linejoin="round" fill-opacity="0" class="primary" stroke="rgb(42,48,107)" stroke-opacity="1" stroke-width="2" d="M0 0"/></g></g><g transform="matrix(-1,0,0,-1,38.29199981689453,170.04798889160156)" opacity="1" style="display: none;"><g opacity="1" transform="matrix(1,0,0,1,0,0)"><path stroke-linecap="round" stroke-linejoin="round" fill-opacity="0" class="primary" stroke="rgb(42,48,107)" stroke-opacity="1" stroke-width="2.005" d="M0 0"/></g></g><g transform="matrix(-1,0,0,-1,127.32099914550781,121.02400207519531)" opacity="1" style="display: none;"><g opacity="1" transform="matrix(0.051203012466430664,-0.998688280582428,0.998688280582428,0.051203012466430664,0,0)"><path stroke-linecap="round" stroke-linejoin="round" fill-opacity="0" class="primary" stroke="rgb(42,48,107)" stroke-opacity="1" stroke-width="2" d="M0 0"/></g></g><g mask="url(#__lottie_element_1049_1)" style="display: none;"><g transform="matrix(1,0,0,1,154.82000732421875,149.41200256347656)" opacity="1"><g opacity="1" transform="matrix(1,0,0,1,0,0)"><path stroke-linecap="round" stroke-linejoin="round" fill-opacity="0" class="primary" stroke="rgb(42,48,107)" stroke-opacity="1" stroke-width="2.001" d=" M5.572000026702881,-12.300999641418457 C5.591000080108643,-12.343000411987305 5.60099983215332,-12.366000175476074 5.6020002365112305,-12.369000434875488"/></g></g></g><g transform="matrix(-1,0,0,-1,104.53700256347656,38.05500030517578)" opacity="1" style="display: block;"><g opacity="1" transform="matrix(1,0,0,1,0,0)"><path stroke-linecap="round" stroke-linejoin="round" fill-opacity="0" class="primary" stroke="rgb(42,48,107)" stroke-opacity="1" stroke-width="3.002" d=" M-25.56399917602539,17.479999542236328 C-25.770000457763672,17.274999618530273 -25.735000610351562,-17.420000076293945 -25.73200035095215,-17.836999893188477 C-24.541000366210938,-17.836999893188477 25.23200035095215,-17.927000045776367 25.586000442504883,-17.573999404907227 C25.948999404907227,-17.209999084472656 25.32900047302246,14.031000137329102 25.736000061035156,17.535999298095703 C25.798999786376953,18.076000213623047 -25.229999542236328,17.815000534057617 -25.56399917602539,17.479999542236328z"/></g></g><g transform="matrix(-1,0,0,-1,48.237998962402344,88.51000213623047)" opacity="1" style="display: block;"><g opacity="1" transform="matrix(1,0,0,1,0,0)"><path stroke-linecap="round" stroke-linejoin="round" fill-opacity="0" class="primary" stroke="rgb(42,48,107)" stroke-opacity="1" stroke-width="3.002" d=" M-25.56399917602539,17.479999542236328 C-25.770000457763672,17.274999618530273 -25.735000610351562,-17.420000076293945 -25.73200035095215,-17.836999893188477 C-24.541000366210938,-17.836999893188477 25.23200035095215,-17.927000045776367 25.586000442504883,-17.573999404907227 C25.948999404907227,-17.209999084472656 25.32900047302246,14.031000137329102 25.736000061035156,17.535999298095703 C25.798999786376953,18.076000213623047 -25.229999542236328,17.815000534057617 -25.56399917602539,17.479999542236328z"/></g></g><g transform="matrix(-1,0,0,-1,47.672000885009766,144.49899291992188)" opacity="1" style="display: block;"><g opacity="1" transform="matrix(1,0,0,1,0,0)"><path stroke-linecap="round" stroke-linejoin="round" fill-opacity="0" class="primary" stroke="rgb(42,48,107)" stroke-opacity="1" stroke-width="3.002" d=" M-25.56399917602539,17.479999542236328 C-25.770000457763672,17.274999618530273 -25.735000610351562,-17.420000076293945 -25.73200035095215,-17.836999893188477 C-24.541000366210938,-17.836999893188477 25.23200035095215,-17.927000045776367 25.586000442504883,-17.573999404907227 C25.948999404907227,-17.209999084472656 25.32900047302246,14.031000137329102 25.736000061035156,17.535999298095703 C25.798999786376953,18.076000213623047 -25.229999542236328,17.815000534057617 -25.56399917602539,17.479999542236328z"/></g></g><g mask="url(#__lottie_element_1318_2)" style="display: block;"><g transform="matrix(1,0,0,1,0,0)" opacity="1"><g opacity="1" transform="matrix(1,0,0,1,150.2969970703125,141.92300415039062)"><g opacity="1" transform="matrix(1,0,0,1,0,0)"><path class="secondary" fill="rgb(230,142,110)" fill-opacity="1" d=" M-16.585012435913086,21.59589385986328 C-35.94493103027344,5.928842544555664 -27.690156936645508,-24.967172622680664 -2.294900894165039,-27.291236877441406 C-1.6145662069320679,-27.292236328125 0.3848968744277954,-27.381454467773438 1.4881842136383057,-27.278100967407227 C9.038219451904297,-26.571359634399414 24.891977310180664,-22.506216049194336 27.173498153686523,-2.5449094772338867 C29.025068283081055,13.655583381652832 17.1613712310791,25.072921752929688 3.9582762718200684,27.03497886657715 C-3.1264002323150635,28.087589263916016 -10.903547286987305,26.1942081451416 -16.585012435913086,21.59589385986328z"/><path stroke-linecap="round" stroke-linejoin="round" fill-opacity="0" class="secondary" stroke="rgb(230,142,110)" stroke-opacity="1" stroke-width="1.001" d=" M-16.585012435913086,21.59589385986328 C-35.94493103027344,5.928842544555664 -27.690156936645508,-24.967172622680664 -2.294900894165039,-27.291236877441406 C-1.6145662069320679,-27.292236328125 0.3848968744277954,-27.381454467773438 1.4881842136383057,-27.278100967407227 C9.038219451904297,-26.571359634399414 24.891977310180664,-22.506216049194336 27.173498153686523,-2.5449094772338867 C29.025068283081055,13.655583381652832 17.1613712310791,25.072921752929688 3.9582762718200684,27.03497886657715 C-3.1264002323150635,28.087589263916016 -10.903547286987305,26.1942081451416 -16.585012435913086,21.59589385986328z"/></g></g></g></g><g transform="matrix(1,0,0,1,144.36199951171875,143.49099731445312)" opacity="1" style="display: block;"><g opacity="1" transform="matrix(1,0,0,1,0,0)"><path stroke-linecap="round" stroke-linejoin="round" fill-opacity="0" class="primary" stroke="rgb(42,48,107)" stroke-opacity="1" stroke-width="2.999" d=" M16.572999954223633,-21.437999725341797 C21.465999603271484,-17.850000381469727 25.666000366210938,-12.00100040435791 26.750999450683594,-2.505000114440918 C28.57699966430664,13.472000122070312 16.87700080871582,24.73200035095215 3.8559999465942383,26.66699981689453 C-3.13100004196167,27.704999923706055 -10.800999641418457,25.83799934387207 -16.40399932861328,21.30299949645996 C-16.40399932861328,21.30299949645996 -16.40399932861328,21.30299949645996 -16.40399932861328,21.30299949645996 C-35.49700164794922,5.8520002365112305 -27.356000900268555,-24.618000030517578 -2.311000108718872,-26.90999984741211 C-1.6399999856948853,-26.910999298095703 0.3319999873638153,-26.999000549316406 1.4199999570846558,-26.89699935913086 C3.0920000076293945,-26.740999221801758 5.176000118255615,-26.41699981689453 7.428999900817871,-25.78700065612793"/></g></g><g transform="matrix(1,0,0,1,145.86900329589844,136.21200561523438)" opacity="1" style="display: block;"><g opacity="1" transform="matrix(1,0,0,1,0,0)"><path stroke-linecap="round" stroke-linejoin="round" fill-opacity="0" class="primary" stroke="rgb(42,48,107)" stroke-opacity="1" stroke-width="3.002" d=" M-4.449999809265137,24.509000778198242 C-5.085999965667725,23.871999740600586 -17.784000396728516,1.6039999723434448 -18.052000045776367,1.1399999856948853 C-17.736000061035156,1.1399999856948853 -12.940999984741211,-3.7339999675750732 -12.62600040435791,-3.4189999103546143 C-11.795999526977539,-2.5880000591278076 -6.113999843597412,7.796000003814697 -5.896999835968018,7.578999996185303 C-5.364999771118164,7.046999931335449 2.9719998836517334,-13.404000282287598 6.040999889373779,-19.263999938964844 C6.51200008392334,-20.163999557495117 8.352999687194824,-24.4689998626709 9.008000373840332,-25.124000549316406 C9.21500015258789,-25.33099937438965 18.052000045776367,-22.09000015258789 18.052000045776367,-22.084999084472656 C18.052000045776367,-21.948999404907227 3.1570000648498535,5.960000038146973 -0.035999998450279236,14.741999626159668 C-0.9039999842643738,17.128999710083008 -3.371999979019165,24.660999298095703 -3.7980000972747803,25.08799934387207 C-4.0320000648498535,25.320999145507812 -4.375999927520752,24.58300018310547 -4.449999809265137,24.509000778198242z"/></g></g><g mask="url(#__lottie_element_1142_2)" style="display: block;"><g transform="matrix(-1,0,0,1,89.33699798583984,72.91899871826172)" opacity="1"><g opacity="1" transform="matrix(1,0,0,1,0,0)"><path stroke-linecap="round" stroke-linejoin="round" fill-opacity="0" class="primary" stroke="rgb(42,48,107)" stroke-opacity="1" stroke-width="3" d=" M-44.66299819946289,70.45700073242188 C-44.66299819946289,70.45700073242188 25.836999893188477,70.58100128173828 32.33700180053711,70.58100128173828 C38.83700180053711,70.58100128173828 41.58700180053711,70.58100128173828 41.58700180053711,63.83100128173828 C41.58700180053711,57.08100128173828 41.83700180053711,37.33100128173828 41.83700180053711,27.08099937438965 C41.83700180053711,16.83099937438965 36.58700180053711,16.83099937438965 32.83700180053711,16.83099937438965 C29.086999893188477,16.83099937438965 16.05699920654297,16.823999404907227 15.043000221252441,16.847999572753906 C14.029000282287598,16.871999740600586 12.946000099182129,16.891000747680664 11.835000038146973,16.905000686645508 C8.333000183105469,16.950000762939453 4.544000148773193,16.94300079345703 1.7020000219345093,16.854999542236328 C-13.244000434875488,16.39299964904785 -14.968000411987305,9.687999725341797 -14.994999885559082,-11.49899959564209 C-14.996000289916992,-12.670000076293945 -15.020999908447266,-23.389999389648438 -15.04800033569336,-25.80699920654297"/></g></g></g><g transform="matrix(-1,0,0,-1,103.29100036621094,27.04800033569336)" opacity="1" style="display: block;"><g opacity="1" transform="matrix(1,0,0,1,0,0)"><path stroke-linecap="round" stroke-linejoin="round" fill-opacity="0" class="primary" stroke="rgb(42,48,107)" stroke-opacity="1" stroke-width="2.005" d=" M17.12700080871582,-0.07000000029802322 C10.444000244140625,-0.07000000029802322 -6.906000137329102,0.07599999755620956 -17.12700080871582,0.07000000029802322"/></g></g><g transform="matrix(1,0,0,1,70.20000457763672,37.297996520996094)" opacity="1" style="display: block;"><g opacity="1" transform="matrix(1,0,0,1,0,0)"><path stroke-linecap="round" stroke-linejoin="round" fill-opacity="0" class="primary" stroke="rgb(42,48,107)" stroke-opacity="1" stroke-width="2" d=" M-0.0729999989271164,17.20599937438965 C-0.16200000047683716,16.045000076293945 0.20900000631809235,-1.9329999685287476 0.2619999945163727,-17.040000915527344"/></g></g><g transform="matrix(-1,0,0,-1,66.59099578857422,88.76801300048828)" opacity="1" style="display: block;"><g opacity="1" transform="matrix(1,0,0,1,0,0)"><path stroke-linecap="round" stroke-linejoin="round" fill-opacity="0" class="primary" stroke="rgb(42,48,107)" stroke-opacity="1" stroke-width="2" d=" M0.013000000268220901,11.430000305175781 C0.013000000268220901,7.052000045776367 0,-4.353000164031982 -0.013000000268220901,-11.430000305175781"/></g></g><g transform="matrix(-1,0,0,-1,38.29198455810547,170.04798889160156)" opacity="1" style="display: block;"><g opacity="1" transform="matrix(1,0,0,1,0,0)"><path stroke-linecap="round" stroke-linejoin="round" fill-opacity="0" class="primary" stroke="rgb(42,48,107)" stroke-opacity="1" stroke-width="2.005" d=" M16.98900032043457,-0.1340000033378601 C5.408999919891357,-0.05700000002980232 -11.395999908447266,0.07400000095367432 -18.62700080871582,0.07000000029802322"/></g></g><g transform="matrix(-1,0,0,-1,127.32099914550781,121.02400207519531)" opacity="1" style="display: block;"><g opacity="1" transform="matrix(0.051203012466430664,-0.998688280582428,0.998688280582428,0.051203012466430664,0,0)"><path stroke-linecap="round" stroke-linejoin="round" fill-opacity="0" class="primary" stroke="rgb(42,48,107)" stroke-opacity="1" stroke-width="2" d=" M13.623000144958496,17.014999389648438 C-0.2029999941587448,14.753000259399414 -14.609999656677246,2.1019999980926514 -13.545999526977539,-16.937000274658203"/></g></g><g transform="matrix(1,0,0,1,154.82000732421875,149.41200256347656)" opacity="1" style="display: block;"><g opacity="1" transform="matrix(1,0,0,1,0,0)"><path stroke-linecap="round" stroke-linejoin="round" fill-opacity="0" class="primary" stroke="rgb(42,48,107)" stroke-opacity="1" stroke-width="2.001" d=" M-5.563000202178955,12.3149995803833 C-1.7309999465942383,3.8510000705718994 5.571000099182129,-12.279999732971191 5.6020002365112305,-12.369000434875488"/></g></g></g></g></svg>