<svg xmlns="http://www.w3.org/2000/svg" xmlns:xlink="http://www.w3.org/1999/xlink" viewBox="0 0 192 192" width="192" height="192" preserveAspectRatio="xMidYMid meet" style="width: 100%; height: 100%; transform: translate3d(0px, 0px, 0px); content-visibility: visible;"><defs><clipPath id="__lottie_element_3399"><rect width="192" height="192" x="0" y="0"/></clipPath><clipPath id="__lottie_element_3401"><path d="M0,0 L192,0 L192,192 L0,192z"/></clipPath></defs><g clip-path="url(#__lottie_element_3399)"><g clip-path="url(#__lottie_element_3401)" transform="matrix(1,0,0,1,0,0)" opacity="1" style="display: block;"><g transform="matrix(1,0,0,1,98.11599731445312,171.76499938964844)" opacity="1" style="display: block;"><g opacity="1" transform="matrix(1,0,0,1,0,0)"><path class="secondary" fill="rgb(230,142,110)" fill-opacity="1" d=" M-44.983001708984375,-0.5960000157356262 C-45.02000045776367,-3.186000108718872 -29.72599983215332,-11.053999900817871 0.11599999666213989,-10.54800033569336 C34.555999755859375,-9.965999603271484 44.99300003051758,-2.4609999656677246 44.98400115966797,0.02500000037252903 C44.970001220703125,3.865999937057495 26.562999725341797,10.482999801635742 -0.5189999938011169,10.571000099182129 C-13.312999725341797,10.61299991607666 -44.88600158691406,6.195000171661377 -44.983001708984375,-0.5960000157356262z"/><path stroke-linecap="round" stroke-linejoin="round" fill-opacity="0" class="secondary" stroke="rgb(230,142,110)" stroke-opacity="1" stroke-width="0.5" d=" M-44.983001708984375,-0.5960000157356262 C-45.02000045776367,-3.186000108718872 -29.72599983215332,-11.053999900817871 0.11599999666213989,-10.54800033569336 C34.555999755859375,-9.965999603271484 44.99300003051758,-2.4609999656677246 44.98400115966797,0.02500000037252903 C44.970001220703125,3.865999937057495 26.562999725341797,10.482999801635742 -0.5189999938011169,10.571000099182129 C-13.312999725341797,10.61299991607666 -44.88600158691406,6.195000171661377 -44.983001708984375,-0.5960000157356262z"/></g></g><g transform="matrix(1,0,0,1,0,0)" opacity="1" style="display: block;"><g opacity="1" transform="matrix(1,0,0,1,96.31999969482422,97.75700378417969)"><g opacity="1" transform="matrix(1,0,0,1,0,0)"><path stroke-linecap="round" stroke-linejoin="round" fill-opacity="0" class="primary" stroke="rgb(42,48,107)" stroke-opacity="1" stroke-width="1.5" d=" M-53.13100051879883,9.081999778747559 C-31.601999282836914,52.935001373291016 -8.878999710083008,67.98799896240234 0.16300000250339508,75.46600341796875 C10.86400032043457,66.25 36.441001892089844,45.16999816894531 53.8129997253418,9.09000015258789 C60.130001068115234,-4.0320000648498535 61.21699905395508,-18.503999710083008 60.67599868774414,-26.892000198364258 C59.63800048828125,-42.986000061035156 43.957000732421875,-75.44999694824219 0.9150000214576721,-75.46600341796875 C-30.312999725341797,-75.47799682617188 -60.03499984741211,-54.85300064086914 -60.78499984741211,-25.31399917602539 C-61.053001403808594,-14.753999710083008 -57.016998291015625,1.1670000553131104 -53.13100051879883,9.081999778747559z"/></g></g><g opacity="1" transform="matrix(1,0,0,1,96.98200225830078,80.11499786376953)"><g opacity="1" transform="matrix(1,0,0,1,0,0)"><path stroke-linecap="round" stroke-linejoin="round" fill-opacity="0" class="primary" stroke="rgb(42,48,107)" stroke-opacity="1" stroke-width="1.5" d=" M29.85700035095215,-0.0010000000474974513 C29.85700035095215,-16.479000091552734 16.479999542236328,-29.85700035095215 0.0010000000474974513,-29.85700035095215 C-16.47800064086914,-29.85700035095215 -29.85700035095215,-16.479000091552734 -29.85700035095215,-0.0010000000474974513 C-29.85700035095215,16.47800064086914 -16.47800064086914,29.85700035095215 0.0010000000474974513,29.85700035095215 C16.479999542236328,29.85700035095215 29.85700035095215,16.47800064086914 29.85700035095215,-0.0010000000474974513z"/></g></g></g><g transform="matrix(0.8100000023841858,0,0,0.8100000023841858,18.300796508789062,15.579360961914062)" opacity="1" style="display: block;"><g opacity="1" transform="matrix(1,0,0,1,96.31999969482422,97.75700378417969)"><g opacity="1" transform="matrix(1,0,0,1,0,0)"><path stroke-linecap="round" stroke-linejoin="round" fill-opacity="0" class="primary" stroke="rgb(42,48,107)" stroke-opacity="1" stroke-width="1.25" d=" M39.04399871826172,28.820999145507812 C45.18000030517578,22.952999114990234 50.319000244140625,16.104999542236328 53.8129997253418,9.09000015258789 C60.30699920654297,-3.944999933242798 61.21699905395508,-18.503999710083008 60.67599868774414,-26.892000198364258 C60.5,-29.614999771118164 59.88800048828125,-32.65800094604492 58.78300094604492,-35.83700180053711"/></g></g></g><g transform="matrix(0.8100000023841858,0,0,0.8100000023841858,18.300796508789062,15.579360961914062)" opacity="1" style="display: block;"><g opacity="1" transform="matrix(1,0,0,1,96.31999969482422,97.75700378417969)"><g opacity="1" transform="matrix(1,0,0,1,0,0)"><path stroke-linecap="round" stroke-linejoin="round" fill-opacity="0" class="primary" stroke="rgb(42,48,107)" stroke-opacity="1" stroke-width="1.25" d=" M-44.24700164794922,-56.8129997253418 C-53.61899948120117,-49.37900161743164 -59.62200164794922,-38.91699981689453 -59.96200180053711,-25.520000457763672 C-60.08000183105469,-20.868000030517578 -59.361000061035156,-15.178000450134277 -58.1879997253418,-9.58899974822998"/></g></g></g><g transform="matrix(1.2100023031234741,0,0,1.2100023031234741,-20.2274169921875,-21.37665367126465)" opacity="1" style="display: block;"><g opacity="1" transform="matrix(1,0,0,1,96.31999969482422,97.75700378417969)"><g opacity="1" transform="matrix(1,0,0,1,0,0)"><path stroke-linecap="round" stroke-linejoin="round" fill-opacity="0" class="primary" stroke="rgb(42,48,107)" stroke-opacity="1" stroke-width="0.85" d=" M48.95199966430664,18.14699935913086 C51.5369987487793,14.36400032043457 53.64799880981445,10.946999549865723 55.053001403808594,8.12600040435791 C58.231998443603516,1.7450000047683716 59.823001861572266,-4.822999954223633 60.41899871826172,-10.833000183105469"/></g></g></g><g transform="matrix(1.2100023031234741,0,0,1.2100023031234741,-20.2274169921875,-21.37665367126465)" opacity="1" style="display: block;"><g opacity="1" transform="matrix(1,0,0,1,96.31999969482422,97.75700378417969)"><g opacity="1" transform="matrix(1,0,0,1,0,0)"><path stroke-linecap="round" stroke-linejoin="round" fill-opacity="0" class="primary" stroke="rgb(42,48,107)" stroke-opacity="1" stroke-width="0.85" d=" M60.66600036621094,-18.77199935913086 C60.54999923706055,-21.85300064086914 60.194000244140625,-24.6299991607666 59.71200180053711,-26.959999084472656 C57.00199890136719,-40.05699920654297 49.237998962402344,-58.13399887084961 27.687999725341797,-66.5250015258789"/></g></g></g><g transform="matrix(1,0,0,1,96.01200103759766,177.21200561523438)" opacity="1" style="display: block;"><g opacity="1" transform="matrix(1,0,0,1,0,0)"><path stroke-linecap="round" stroke-linejoin="round" fill-opacity="0" class="primary" stroke="rgb(42,48,107)" stroke-opacity="1" stroke-width="0.9975" d=" M-0.0020000000949949026,1.409999966621399 C-3.4240000247955322,1.3890000581741333 -7.111000061035156,0.5450000166893005 -11.557000160217285,-1.409999966621399 M11.557000160217285,-1.36899995803833 C7.550000190734863,0.35899999737739563 3.9509999752044678,1.434000015258789 -0.0020000000949949026,1.409999966621399"/></g></g></g></g></svg>