<svg xmlns="http://www.w3.org/2000/svg" xmlns:xlink="http://www.w3.org/1999/xlink" viewBox="0 0 192 192" width="192" height="192" preserveAspectRatio="xMidYMid meet" style="width: 100%; height: 100%; transform: translate3d(0px, 0px, 0px); content-visibility: visible;"><defs><clipPath id="__lottie_element_14984"><rect width="192" height="192" x="0" y="0"/></clipPath><clipPath id="__lottie_element_14986"><path d="M0,0 L192,0 L192,192 L0,192z"/></clipPath></defs><g clip-path="url(#__lottie_element_14984)"><g clip-path="url(#__lottie_element_14986)" transform="matrix(1,0,0,1,0,0)" opacity="1" style="display: block;"><g transform="matrix(1,0,0,1,98.11599731445312,171.76499938964844)" opacity="1" style="display: block;"><g opacity="1" transform="matrix(1,0,0,1,0,0)"><path class="secondary" fill="rgb(230,142,110)" fill-opacity="1" d=" M-26.146265029907227,-0.4390982687473297 C-26.16791534423828,-1.9444297552108765 -17.280452728271484,-6.5157880783081055 0.06142548471689224,-6.222116947174072 C20.074993133544922,-5.883996963500977 26.140064239501953,-1.5230004787445068 26.13447380065918,-0.07817994058132172 C26.12644386291504,2.1537246704101562 15.42979907989502,5.999362468719482 -0.3075237572193146,6.050695419311523 C-7.742136001586914,6.0747880935668945 -26.09019660949707,3.5072052478790283 -26.146265029907227,-0.4390982687473297z"/><path stroke-linecap="round" stroke-linejoin="round" fill-opacity="0" class="secondary" stroke="rgb(230,142,110)" stroke-opacity="1" stroke-width="0.5" d=" M-26.146265029907227,-0.4390982687473297 C-26.16791534423828,-1.9444297552108765 -17.280452728271484,-6.5157880783081055 0.06142548471689224,-6.222116947174072 C20.074993133544922,-5.883996963500977 26.140064239501953,-1.5230004787445068 26.13447380065918,-0.07817994058132172 C26.12644386291504,2.1537246704101562 15.42979907989502,5.999362468719482 -0.3075237572193146,6.050695419311523 C-7.742136001586914,6.0747880935668945 -26.09019660949707,3.5072052478790283 -26.146265029907227,-0.4390982687473297z"/></g></g><g transform="matrix(0.9639306664466858,0.26615336537361145,-0.26615336537361145,0.9639306664466858,51.9075813293457,-37.24736022949219)" opacity="1" style="display: block;"><g opacity="1" transform="matrix(1,0,0,1,96.31999969482422,97.75700378417969)"><g opacity="1" transform="matrix(1,0,0,1,0,0)"><path stroke-linecap="round" stroke-linejoin="round" fill-opacity="0" class="primary" stroke="rgb(42,48,107)" stroke-opacity="1" stroke-width="1.5" d=" M-53.13100051879883,9.081999778747559 C-31.601999282836914,52.935001373291016 -8.878999710083008,67.98799896240234 0.16300000250339508,75.46600341796875 C10.86400032043457,66.25 36.441001892089844,45.16999816894531 53.8129997253418,9.09000015258789 C60.130001068115234,-4.0320000648498535 61.21699905395508,-18.503999710083008 60.67599868774414,-26.892000198364258 C59.63800048828125,-42.986000061035156 43.957000732421875,-75.44999694824219 0.9150000214576721,-75.46600341796875 C-30.312999725341797,-75.47799682617188 -60.03499984741211,-54.85300064086914 -60.78499984741211,-25.31399917602539 C-61.053001403808594,-14.753999710083008 -57.016998291015625,1.1670000553131104 -53.13100051879883,9.081999778747559z"/></g></g><g opacity="1" transform="matrix(1,0,0,1,96.98200225830078,80.11499786376953)"><g opacity="1" transform="matrix(1,0,0,1,0,0)"><path stroke-linecap="round" stroke-linejoin="round" fill-opacity="0" class="primary" stroke="rgb(42,48,107)" stroke-opacity="1" stroke-width="1.5" d=" M29.85700035095215,-0.0010000000474974513 C29.85700035095215,-16.479000091552734 16.479999542236328,-29.85700035095215 0.0010000000474974513,-29.85700035095215 C-16.47800064086914,-29.85700035095215 -29.85700035095215,-16.479000091552734 -29.85700035095215,-0.0010000000474974513 C-29.85700035095215,16.47800064086914 -16.47800064086914,29.85700035095215 0.0010000000474974513,29.85700035095215 C16.479999542236328,29.85700035095215 29.85700035095215,16.47800064086914 29.85700035095215,-0.0010000000474974513z"/></g></g></g><g transform="matrix(0.7807838320732117,0.21558423340320587,-0.21558423340320587,0.7807838320732117,65.40177917480469,-17.35911750793457)" opacity="1" style="display: block;"><g opacity="1" transform="matrix(1,0,0,1,96.31999969482422,97.75700378417969)"><g opacity="1" transform="matrix(1,0,0,1,0,0)"><path stroke-linecap="round" stroke-linejoin="round" fill-opacity="0" class="primary" stroke="rgb(42,48,107)" stroke-opacity="1" stroke-width="1.25" d=" M-1.9500000476837158,46.10300064086914 C-1.2339999675750732,46.176998138427734 -0.5429999828338623,46.224998474121094 0.11999999731779099,46.24800109863281 C21.45400047302246,46.987998962402344 44.04999923706055,28.687999725341797 53.8129997253418,9.09000015258789 C53.86800003051758,8.979999542236328 53.922000885009766,8.869000434875488 53.97700119018555,8.758999824523926"/></g></g></g><g transform="matrix(0.7807838320732117,0.21558423340320587,-0.21558423340320587,0.7807838320732117,65.40177917480469,-17.35911750793457)" opacity="1" style="display: block;"><g opacity="1" transform="matrix(1,0,0,1,96.31999969482422,97.75700378417969)"><g opacity="1" transform="matrix(1,0,0,1,0,0)"><path stroke-linecap="round" stroke-linejoin="round" fill-opacity="0" class="primary" stroke="rgb(42,48,107)" stroke-opacity="1" stroke-width="1.25" d=" M-22.49799919128418,-67.39700317382812 C-40.766998291015625,-62.41299819946289 -55.16899871826172,-51.10100173950195 -58.983001708984375,-33.73899841308594"/></g></g></g><g transform="matrix(1.1663583517074585,0.3220461905002594,-0.3220461905002594,1.1663583517074585,38.099220275878906,-63.236568450927734)" opacity="1" style="display: block;"><g opacity="1" transform="matrix(1,0,0,1,96.31999969482422,97.75700378417969)"><g opacity="1" transform="matrix(1,0,0,1,0,0)"><path stroke-linecap="round" stroke-linejoin="round" fill-opacity="0" class="primary" stroke="rgb(42,48,107)" stroke-opacity="1" stroke-width="0.85" d=" M23.20800018310547,51.10900115966797 C29.84600067138672,43.222999572753906 36.965999603271484,34.48400115966797 42.948001861572266,26.496999740600586"/></g></g></g><g transform="matrix(1.1663583517074585,0.3220461905002594,-0.3220461905002594,1.1663583517074585,38.099220275878906,-63.236568450927734)" opacity="1" style="display: block;"><g opacity="1" transform="matrix(1,0,0,1,96.31999969482422,97.75700378417969)"><g opacity="1" transform="matrix(1,0,0,1,0,0)"><path stroke-linecap="round" stroke-linejoin="round" fill-opacity="0" class="primary" stroke="rgb(42,48,107)" stroke-opacity="1" stroke-width="0.85" d=" M47.69200134277344,19.965999603271484 C50.85200119018555,15.458999633789062 53.42599868774414,11.392999649047852 55.053001403808594,8.12600040435791 C55.643001556396484,6.941999912261963 56.178001403808594,5.751999855041504 56.6619987487793,4.560999870300293"/></g></g></g><g transform="matrix(1,0,0,1,96.01200103759766,177.21200561523438)" opacity="1" style="display: block;"><g opacity="1" transform="matrix(1,0,0,1,0,0)"><path stroke-linecap="round" stroke-linejoin="round" fill-opacity="0" class="primary" stroke="rgb(42,48,107)" stroke-opacity="1" stroke-width="0.9975" d="M0 0"/></g></g></g></g></svg>