<svg xmlns="http://www.w3.org/2000/svg" xmlns:xlink="http://www.w3.org/1999/xlink" viewBox="0 0 192 192" width="192" height="192" preserveAspectRatio="xMidYMid meet" style="width: 100%; height: 100%; transform: translate3d(0px, 0px, 0px); content-visibility: visible;"><defs><clipPath id="__lottie_element_8695"><rect width="192" height="192" x="0" y="0"/></clipPath><clipPath id="__lottie_element_8697"><path d="M0,0 L192,0 L192,192 L0,192z"/></clipPath></defs><g clip-path="url(#__lottie_element_8695)"><g clip-path="url(#__lottie_element_8697)" transform="matrix(1,0,0,1,0,0)" opacity="1" style="display: block;"><g transform="matrix(1,0,0,1,7.5,0)" opacity="1" style="display: block;"><g opacity="1" transform="matrix(1,0,0,1,96.3010025024414,57.691001892089844)"><path stroke-linecap="round" stroke-linejoin="round" fill-opacity="0" class="secondary" stroke="rgb(230,142,110)" stroke-opacity="1" stroke-width="0.5" d=" M15.020000457763672,48.79499816894531 C12.232999801635742,48.71900177001953 -14.972999572753906,49.03799819946289 -14.97700023651123,48.46099853515625 C-14.980999946594238,47.70399856567383 -14.942999839782715,3.7960000038146973 -15.279000282287598,-19.670000076293945 C-15.282999992370605,-19.900999069213867 -29.260000228881836,-19.395000457763672 -28.923999786376953,-19.83099937438965 C-24.045000076293945,-26.163999557495117 -6.75600004196167,-49.03799819946289 -0.578000009059906,-48.89799880981445 C5.006999969482422,-48.77199935913086 22.851999282836914,-26.268999099731445 28.63800048828125,-19.55900001525879 C29.260000228881836,-18.836999893188477 14.119000434875488,-19.601999282836914 14.090999603271484,-19.134000778198242 C14.04699993133545,-18.41200065612793 15.020000457763672,48.79499816894531 15.020000457763672,48.79499816894531z"/><path class="secondary" fill="rgb(230,142,110)" fill-opacity="1" d=" M15.020000457763672,48.79499816894531 C12.232999801635742,48.71900177001953 -14.972999572753906,49.03799819946289 -14.97700023651123,48.46099853515625 C-14.980999946594238,47.70399856567383 -14.942999839782715,3.7960000038146973 -15.279000282287598,-19.670000076293945 C-15.282999992370605,-19.900999069213867 -29.260000228881836,-19.395000457763672 -28.923999786376953,-19.83099937438965 C-24.045000076293945,-26.163999557495117 -6.75600004196167,-49.03799819946289 -0.578000009059906,-48.89799880981445 C5.006999969482422,-48.77199935913086 22.851999282836914,-26.268999099731445 28.63800048828125,-19.55900001525879 C29.260000228881836,-18.836999893188477 14.119000434875488,-19.601999282836914 14.090999603271484,-19.134000778198242 C14.04699993133545,-18.41200065612793 15.020000457763672,48.79499816894531 15.020000457763672,48.79499816894531z"/></g></g><g transform="matrix(1,0,0,1,0,0)" opacity="1" style="display: block;"><g opacity="1" transform="matrix(1,0,0,1,79.26300048828125,177.81199645996094)"><path stroke-linecap="round" stroke-linejoin="round" fill-opacity="0" class="primary" stroke="rgb(29,77,141)" stroke-opacity="1" stroke-width="1.0005" d=" M27.525999069213867,0.1589999943971634 C12.713000297546387,0.17900000512599945 -16.483999252319336,-0.17900000512599945 -27.525999069213867,-0.17900000512599945 C-27.525999069213867,-0.17900000512599945 -27.525999069213867,-0.17900000512599945 -27.525999069213867,-0.17900000512599945"/></g></g><g transform="matrix(1,0,0,1,0,0)" opacity="1" style="display: block;"><g opacity="1" transform="matrix(1,0,0,1,162.9969940185547,139.53399658203125)"><path stroke-linecap="round" stroke-linejoin="round" fill-opacity="0" class="primary" stroke="rgb(29,77,141)" stroke-opacity="1" stroke-width="1.0005" d=" M-0.05000000074505806,-13.394000053405762 C-0.04899999871850014,-13.324000358581543 -0.04899999871850014,-13.255000114440918 -0.04800000041723251,-13.187000274658203 C0.01899999938905239,-6.751999855041504 -0.03999999910593033,6.11899995803833 0.04800000041723251,13.185999870300293 C0.04800000041723251,13.185999870300293 0.05000000074505806,13.345999717712402 0.04800000041723251,13.638999938964844"/></g></g><g transform="matrix(1,0,0,1,0,0)" opacity="1" style="display: block;"><g opacity="1" transform="matrix(1,0,0,1,162.9290008544922,88.62699890136719)"><path stroke-linecap="round" stroke-linejoin="round" fill-opacity="0" class="primary" stroke="rgb(29,77,141)" stroke-opacity="1" stroke-width="1.0005" d=" M-0.06300000101327896,-26.104000091552734 C0.06300000101327896,-18.165000915527344 0.009999999776482582,21.04199981689453 -0.0020000000949949026,26.104000091552734 C-0.0020000000949949026,26.104000091552734 -0.0020000000949949026,26.104000091552734 -0.0020000000949949026,26.104000091552734"/></g></g><g transform="matrix(1,0,0,1,0,0)" opacity="1" style="display: block;"><g opacity="1" transform="matrix(1,0,0,1,102.20800018310547,76.18699645996094)"><path stroke-linecap="round" stroke-linejoin="round" fill-opacity="0" class="primary" stroke="rgb(29,77,141)" stroke-opacity="1" stroke-width="0.9985" d=" M0.07800000160932541,18.33799934387207 C0.09799999743700027,15.288999557495117 -0.08100000023841858,-14.220999717712402 -0.09799999743700027,-17.979999542236328"/></g></g><g transform="matrix(1,0,0,1,0,0)" opacity="1" style="display: block;"><g opacity="1" transform="matrix(1,0,0,1,96.01699829101562,111.93499755859375)"><path stroke-linecap="round" stroke-linejoin="round" fill-opacity="0" class="primary" stroke="rgb(29,77,141)" stroke-opacity="1" stroke-width="1.5" d=" M-30.819000244140625,-55.60499954223633 C-30.82200050354004,-55.60499954223633 -30.825000762939453,-55.60499954223633 -30.827999114990234,-55.60499954223633 C-33.79399871826172,-55.57699966430664 -36.54499816894531,-55.54800033569336 -39.005001068115234,-55.52000045776367 C-52.340999603271484,-55.36899948120117 -51.84000015258789,-52.17599868774414 -51.96900177001953,-42.21200180053711 C-52.23500061035156,-21.511999130249023 -52.30799865722656,18.43600082397461 -51.65999984741211,40.06100082397461 C-51.2859992980957,52.49700164794922 -50.16999816894531,54.790000915527344 -38.99700164794922,55.03900146484375 C-19.378000259399414,55.47700119018555 18.695999145507812,55.895999908447266 38.56800079345703,55.319000244140625 C49.54999923706055,55 51.847999572753906,52.93000030517578 52.03200149536133,40.02199935913086 C52.340999603271484,18.476999282836914 51.582000732421875,-22.795000076293945 51.80400085449219,-42.33000183105469 C51.939998626708984,-54.30699920654297 50.242000579833984,-55.763999938964844 38.444000244140625,-55.858001708984375 C36.111000061035156,-55.87699890136719 33.505001068115234,-55.888999938964844 30.690000534057617,-55.895999908447266 C30.690000534057617,-55.895999908447266 30.606000900268555,-55.89500045776367 30.445999145507812,-55.893001556396484"/></g></g><g transform="matrix(1,0,0,1,0,0)" opacity="1" style="display: block;"><g opacity="1" transform="matrix(1,0,0,1,96.3010025024414,57.691001892089844)"><path stroke-linecap="round" stroke-linejoin="round" fill-opacity="0" class="primary" stroke="rgb(29,77,141)" stroke-opacity="1" stroke-width="1.5" d=" M15.020000457763672,48.79499816894531 C12.232999801635742,48.71900177001953 -14.972999572753906,49.03799819946289 -14.97700023651123,48.46099853515625 C-14.980999946594238,47.70399856567383 -14.942999839782715,3.7960000038146973 -15.279000282287598,-19.670000076293945 C-15.282999992370605,-19.900999069213867 -29.260000228881836,-19.395000457763672 -28.923999786376953,-19.83099937438965 C-24.045000076293945,-26.163999557495117 -6.75600004196167,-49.03799819946289 -0.578000009059906,-48.89799880981445 C5.006999969482422,-48.77199935913086 22.851999282836914,-26.268999099731445 28.63800048828125,-19.55900001525879 C29.260000228881836,-18.836999893188477 14.119000434875488,-19.601999282836914 14.090999603271484,-19.134000778198242 C14.04699993133545,-18.41200065612793 15.020000457763672,48.79499816894531 15.020000457763672,48.79499816894531z"/></g></g></g></g></svg>