<svg xmlns="http://www.w3.org/2000/svg" xmlns:xlink="http://www.w3.org/1999/xlink" viewBox="0 0 192 192" width="192" height="192" preserveAspectRatio="xMidYMid meet" style="width: 100%; height: 100%; transform: translate3d(0px, 0px, 0px); content-visibility: visible;"><defs><clipPath id="__lottie_element_5217"><rect width="192" height="192" x="0" y="0"/></clipPath><clipPath id="__lottie_element_5219"><path d="M0,0 L192,0 L192,192 L0,192z"/></clipPath></defs><g clip-path="url(#__lottie_element_5217)"><g clip-path="url(#__lottie_element_5219)" transform="matrix(1,0,0,1,0,0)" opacity="1" style="display: block;"><g transform="matrix(1,0,0,1,139.0189971923828,97.15799713134766)" opacity="1" style="display: block;"><g opacity="1" transform="matrix(1,0,0,1,0,0)"><path class="secondary" fill="rgb(230,142,110)" fill-opacity="1" d=" M-16.22599983215332,-14.168000221252441 C-16.16200065612793,-15.836000442504883 -15.085000038146973,-16.864999771118164 -13.58899974822998,-16.889999389648438 C-7.578000068664551,-16.990999221801758 7.7210001945495605,-17.211999893188477 13.824000358581543,-16.923999786376953 C14.543000221252441,-16.889999389648438 16.048999786376953,-15.585000038146973 16.20199966430664,-13.680999755859375 C16.725000381469727,-7.208000183105469 16.631000518798828,7.598999977111816 16.413999557495117,13.840999603271484 C16.360000610351562,15.378999710083008 15.305999755859375,16.82900047302246 13.8100004196167,16.895999908447266 C7.74399995803833,17.16900062561035 -8.005000114440918,17.13800048828125 -13.859000205993652,16.621999740600586 C-15.178999900817871,16.506000518798828 -16.32900047302246,15.137999534606934 -16.4060001373291,13.958999633789062 C-16.79599952697754,7.986000061035156 -16.4689998626709,-7.834000110626221 -16.22599983215332,-14.168000221252441z"/><path stroke-linecap="round" stroke-linejoin="round" fill-opacity="0" class="secondary" stroke="rgb(230,142,110)" stroke-opacity="1" stroke-width="1" d=" M-16.22599983215332,-14.168000221252441 C-16.16200065612793,-15.836000442504883 -15.085000038146973,-16.864999771118164 -13.58899974822998,-16.889999389648438 C-7.578000068664551,-16.990999221801758 7.7210001945495605,-17.211999893188477 13.824000358581543,-16.923999786376953 C14.543000221252441,-16.889999389648438 16.048999786376953,-15.585000038146973 16.20199966430664,-13.680999755859375 C16.725000381469727,-7.208000183105469 16.631000518798828,7.598999977111816 16.413999557495117,13.840999603271484 C16.360000610351562,15.378999710083008 15.305999755859375,16.82900047302246 13.8100004196167,16.895999908447266 C7.74399995803833,17.16900062561035 -8.005000114440918,17.13800048828125 -13.859000205993652,16.621999740600586 C-15.178999900817871,16.506000518798828 -16.32900047302246,15.137999534606934 -16.4060001373291,13.958999633789062 C-16.79599952697754,7.986000061035156 -16.4689998626709,-7.834000110626221 -16.22599983215332,-14.168000221252441z"/></g></g><g transform="matrix(1,0,0,1,94.58000183105469,99.45800018310547)" opacity="1" style="display: block;"><g opacity="1" transform="matrix(1,0,0,1,0,0)"><path stroke-linecap="round" stroke-linejoin="round" fill-opacity="0" class="primary" stroke="rgb(42,48,107)" stroke-opacity="1" stroke-width="3" d=" M-74.91500091552734,-40.64799880981445 C-74.78700256347656,-53.11399841308594 -72.8219985961914,-54.909000396728516 -56.6609992980957,-54.76499938964844 C-30.302000045776367,-54.529998779296875 25.38800048828125,-55.332000732421875 54.45899963378906,-55.00600051879883 C71.87699890136719,-54.81100082397461 73.58399963378906,-52.46699905395508 74.01499938964844,-40.86399841308594 C74.79299926757812,-19.868000030517578 75.31199645996094,20.444000244140625 74.72200012207031,41.17300033569336 C74.38600158691406,52.97800064086914 71.29199981689453,54.15800094604492 54.51100158691406,54.553001403808594 C25.332000732421875,55.237998962402344 -28.56999969482422,55.15999984741211 -56.500999450683594,54.87900161743164 C-69.94599914550781,54.74300003051758 -74.25399780273438,55.27199935913086 -74.45800018310547,41.180999755859375 C-74.76000213623047,20.343000411987305 -75.1240005493164,-20.14699935913086 -74.91500091552734,-40.64799880981445z"/></g></g><g transform="matrix(1,0,0,1,94.35199737548828,68.41600036621094)" opacity="1" style="display: block;"><g opacity="1" transform="matrix(1,0,0,1,0,0)"><path stroke-linecap="round" stroke-linejoin="round" fill-opacity="0" class="primary" stroke="rgb(42,48,107)" stroke-opacity="1" stroke-width="2.003" d=" M73.76200103759766,0.13199999928474426 C60.29499816894531,0.13199999928474426 -65.2490005493164,-0.11299999803304672 -73.76200103759766,-0.13199999928474426"/></g></g><g transform="matrix(1,0,0,1,127.1719970703125,137.72698974609375)" opacity="1" style="display: block;"><g opacity="1" transform="matrix(1,0,0,1,0,0)"><path stroke-linecap="round" stroke-linejoin="round" fill-opacity="0" class="primary" stroke="rgb(42,48,107)" stroke-opacity="1" stroke-width="2.003" d=" M-27.540000915527344,0.3310000002384186 C-23.920000076293945,0.3310000002384186 24.9060001373291,-0.37599998712539673 27.540000915527344,-0.32899999618530273"/></g></g><g transform="matrix(1,0,0,1,140.95899963378906,125.51199340820312)" opacity="1" style="display: block;"><g opacity="1" transform="matrix(1,0,0,1,0,0)"><path stroke-linecap="round" stroke-linejoin="round" fill-opacity="0" class="primary" stroke="rgb(42,48,107)" stroke-opacity="1" stroke-width="2.003" d=" M-13.423999786376953,0.11800000071525574 C-9.803999900817871,0.11800000071525574 10.788999557495117,-0.16099999845027924 13.423999786376953,-0.11299999803304672"/></g></g><g transform="matrix(1,0,0,1,178.88600158691406,112.56999969482422)" opacity="1" style="display: block;"><g opacity="1" transform="matrix(1,0,0,1,0,0)"><path stroke-linecap="round" stroke-linejoin="round" fill-opacity="0" class="primary" stroke="rgb(42,48,107)" stroke-opacity="1" stroke-width="2" d=" M-0.10899999737739563,29.94499969482422 C-0.10899999737739563,15.045000076293945 0.13300000131130219,-9.956999778747559 0.10700000077486038,-29.94499969482422"/></g></g><g transform="matrix(1,0,0,1,45.68899917602539,105.6240005493164)" opacity="1" style="display: block;"><g opacity="1" transform="matrix(1,0,0,1,0,0)"><path stroke-linecap="round" stroke-linejoin="round" fill-opacity="0" class="primary" stroke="rgb(42,48,107)" stroke-opacity="1" stroke-width="3" d=" M12.321000099182129,-20.73200035095215 C10.229999542236328,-14.157999992370605 0.3790000081062317,21.114999771118164 -1.11899995803833,21.121999740600586 C-2.4749999046325684,21.12700080871582 -11.347999572753906,-16.72800064086914 -12.321000099182129,-21.121999740600586"/></g></g><g transform="matrix(1,0,0,1,68.51000213623047,105.83999633789062)" opacity="1" style="display: block;"><g opacity="1" transform="matrix(1,0,0,1,0,0)"><path stroke-linecap="round" stroke-linejoin="round" fill-opacity="0" class="primary" stroke="rgb(42,48,107)" stroke-opacity="1" stroke-width="3" d=" M0.11500000208616257,20.665000915527344 C-0.2680000066757202,13.345999717712402 -0.05900000035762787,-16.743999481201172 -0.05900000035762787,-20.665000915527344"/></g></g><g transform="matrix(1,0,0,1,92.26399993896484,95.38999938964844)" opacity="1" style="display: block;"><g opacity="1" transform="matrix(1,0,0,1,0,0)"><path stroke-linecap="round" stroke-linejoin="round" fill-opacity="0" class="primary" stroke="rgb(42,48,107)" stroke-opacity="1" stroke-width="3" d=" M-8.449000358581543,10.288000106811523 C-2.937000036239624,10.89900016784668 9.484000205993652,9.520999908447266 9.531000137329102,0.6320000290870667 C9.592000007629395,-11.041000366210938 -5.239999771118164,-10.961999893188477 -9.531000137329102,-10.045999526977539"/></g></g><g transform="matrix(1,0,0,1,82.5510025024414,106.08899688720703)" opacity="1" style="display: block;"><g opacity="1" transform="matrix(1,0,0,1,0,0)"><path stroke-linecap="round" stroke-linejoin="round" fill-opacity="0" class="primary" stroke="rgb(42,48,107)" stroke-opacity="1" stroke-width="3" d=" M0.11500000208616257,20.665000915527344 C-0.2680000066757202,13.345999717712402 -0.05900000035762787,-16.743999481201172 -0.05900000035762787,-20.665000915527344"/></g></g><g transform="matrix(1,0,0,1,67.94400024414062,31.81299591064453)" opacity="1" style="display: block;"><g opacity="1" transform="matrix(1,0,0,1,0,0)"><path stroke-linecap="round" stroke-linejoin="round" fill-opacity="0" class="primary" stroke="rgb(42,48,107)" stroke-opacity="1" stroke-width="2" d=" M11.918000221252441,-0.00800000037997961 C-10.074000358581543,-0.11699999868869781 -31.184999465942383,-0.22100000083446503 -35.36800003051758,-0.21199999749660492"/></g></g><g transform="matrix(1,0,0,1,67.94400024414062,31.81299591064453)" opacity="1" style="display: block;"><g opacity="1" transform="matrix(1,0,0,1,0,0)"><path stroke-linecap="round" stroke-linejoin="round" fill-opacity="0" class="primary" stroke="rgb(42,48,107)" stroke-opacity="1" stroke-width="2" d=" M49.33599853515625,0.0989999994635582 C41.40700149536133,0.06800000369548798 31.351999282836914,0.03500000014901161 20.70400047302246,0.0010000000474974513"/></g></g></g></g></svg>