<svg xmlns="http://www.w3.org/2000/svg" xmlns:xlink="http://www.w3.org/1999/xlink" viewBox="0 0 192 192" width="192" height="192" preserveAspectRatio="xMidYMid meet" style="width: 100%; height: 100%; transform: translate3d(0px, 0px, 0px); content-visibility: visible;"><defs><clipPath id="__lottie_element_1507"><rect width="192" height="192" x="0" y="0"/></clipPath><clipPath id="__lottie_element_1509"><path d="M0,0 L192,0 L192,192 L0,192z"/></clipPath></defs><g clip-path="url(#__lottie_element_1507)"><g clip-path="url(#__lottie_element_1509)" transform="matrix(1,0,0,1,0,0)" opacity="1" style="display: block;"><g transform="matrix(1,0,0,1,69.33499908447266,151.13999938964844)" opacity="1" style="display: block;"><g opacity="1" transform="matrix(1,0,0,1,0,0)"><path class="secondary" fill="rgb(230,142,110)" fill-opacity="1" d=" M0,19.055999755859375 C10.52400016784668,19.055999755859375 19.055999755859375,10.52400016784668 19.055999755859375,0 C19.055999755859375,-10.52400016784668 10.52400016784668,-19.055999755859375 0,-19.055999755859375 C-10.52400016784668,-19.055999755859375 -19.055999755859375,-10.52400016784668 -19.055999755859375,0 C-19.055999755859375,10.52400016784668 -10.52400016784668,19.055999755859375 0,19.055999755859375z"/><path stroke-linecap="round" stroke-linejoin="round" fill-opacity="0" class="secondary" stroke="rgb(230,142,110)" stroke-opacity="1" stroke-width="1.004" d=" M0,19.055999755859375 C10.52400016784668,19.055999755859375 19.055999755859375,10.52400016784668 19.055999755859375,0 C19.055999755859375,-10.52400016784668 10.52400016784668,-19.055999755859375 0,-19.055999755859375 C-10.52400016784668,-19.055999755859375 -19.055999755859375,-10.52400016784668 -19.055999755859375,0 C-19.055999755859375,10.52400016784668 -10.52400016784668,19.055999755859375 0,19.055999755859375z"/></g></g><g transform="matrix(1,0,0,1,70.92400360107422,36.055999755859375)" opacity="1" style="display: block;"><g opacity="1" transform="matrix(1,0,0,1,0,0)"><path class="secondary" fill="rgb(230,142,110)" fill-opacity="1" d=" M0,19.055999755859375 C10.52400016784668,19.055999755859375 19.055999755859375,10.52400016784668 19.055999755859375,0 C19.055999755859375,-10.52400016784668 10.52400016784668,-19.055999755859375 0,-19.055999755859375 C-10.52400016784668,-19.055999755859375 -19.055999755859375,-10.52400016784668 -19.055999755859375,0 C-19.055999755859375,10.52400016784668 -10.52400016784668,19.055999755859375 0,19.055999755859375z"/><path stroke-linecap="round" stroke-linejoin="round" fill-opacity="0" class="secondary" stroke="rgb(230,142,110)" stroke-opacity="1" stroke-width="1.004" d=" M0,19.055999755859375 C10.52400016784668,19.055999755859375 19.055999755859375,10.52400016784668 19.055999755859375,0 C19.055999755859375,-10.52400016784668 10.52400016784668,-19.055999755859375 0,-19.055999755859375 C-10.52400016784668,-19.055999755859375 -19.055999755859375,-10.52400016784668 -19.055999755859375,0 C-19.055999755859375,10.52400016784668 -10.52400016784668,19.055999755859375 0,19.055999755859375z"/></g></g><g transform="matrix(1,0,0,1,139.802001953125,56.96900177001953)" opacity="1" style="display: block;"><g opacity="1" transform="matrix(1,0,0,1,0,0)"><path class="secondary" fill="rgb(230,142,110)" fill-opacity="1" d=" M0,19.055999755859375 C10.52400016784668,19.055999755859375 19.055999755859375,10.52400016784668 19.055999755859375,0 C19.055999755859375,-10.52400016784668 10.52400016784668,-19.055999755859375 0,-19.055999755859375 C-10.52400016784668,-19.055999755859375 -19.055999755859375,-10.52400016784668 -19.055999755859375,0 C-19.055999755859375,10.52400016784668 -10.52400016784668,19.055999755859375 0,19.055999755859375z"/><path stroke-linecap="round" stroke-linejoin="round" fill-opacity="0" class="secondary" stroke="rgb(230,142,110)" stroke-opacity="1" stroke-width="1.004" d=" M0,19.055999755859375 C10.52400016784668,19.055999755859375 19.055999755859375,10.52400016784668 19.055999755859375,0 C19.055999755859375,-10.52400016784668 10.52400016784668,-19.055999755859375 0,-19.055999755859375 C-10.52400016784668,-19.055999755859375 -19.055999755859375,-10.52400016784668 -19.055999755859375,0 C-19.055999755859375,10.52400016784668 -10.52400016784668,19.055999755859375 0,19.055999755859375z"/></g></g><g transform="matrix(1,0,0,1,65.07599639892578,152.97900390625)" opacity="1" style="display: block;"><g opacity="1" transform="matrix(1,0,0,1,0,0)"><path stroke-linecap="round" stroke-linejoin="round" fill-opacity="0" class="primary" stroke="rgb(42,48,107)" stroke-opacity="1" stroke-width="3.003" d=" M0,19.055999755859375 C10.52400016784668,19.055999755859375 19.055999755859375,10.52400016784668 19.055999755859375,0 C19.055999755859375,-10.52400016784668 10.52400016784668,-19.055999755859375 0,-19.055999755859375 C-10.52400016784668,-19.055999755859375 -19.055999755859375,-10.52400016784668 -19.055999755859375,0 C-19.055999755859375,10.52400016784668 -10.52400016784668,19.055999755859375 0,19.055999755859375z"/></g></g><g transform="matrix(1,0,0,1,64.80500030517578,37.854000091552734)" opacity="1" style="display: block;"><g opacity="1" transform="matrix(1,0,0,1,0,0)"><path stroke-linecap="round" stroke-linejoin="round" fill-opacity="0" class="primary" stroke="rgb(42,48,107)" stroke-opacity="1" stroke-width="3.003" d=" M0,19.055999755859375 C10.52400016784668,19.055999755859375 19.055999755859375,10.52400016784668 19.055999755859375,0 C19.055999755859375,-10.52400016784668 10.52400016784668,-19.055999755859375 0,-19.055999755859375 C-10.52400016784668,-19.055999755859375 -19.055999755859375,-10.52400016784668 -19.055999755859375,0 C-19.055999755859375,10.52400016784668 -10.52400016784668,19.055999755859375 0,19.055999755859375z"/></g></g><g transform="matrix(1,0,0,1,134.6959991455078,58.35100173950195)" opacity="1" style="display: block;"><g opacity="1" transform="matrix(1,0,0,1,0,0)"><path stroke-linecap="round" stroke-linejoin="round" fill-opacity="0" class="primary" stroke="rgb(42,48,107)" stroke-opacity="1" stroke-width="3.003" d=" M0,19.055999755859375 C10.52400016784668,19.055999755859375 19.055999755859375,10.52400016784668 19.055999755859375,0 C19.055999755859375,-10.52400016784668 10.52400016784668,-19.055999755859375 0,-19.055999755859375 C-10.52400016784668,-19.055999755859375 -19.055999755859375,-10.52400016784668 -19.055999755859375,0 C-19.055999755859375,10.52400016784668 -10.52400016784668,19.055999755859375 0,19.055999755859375z"/></g></g><g transform="matrix(1,0,0,1,100.30500030517578,101.2760009765625)" opacity="1" style="display: block;"><g opacity="1" transform="matrix(1,0,0,1,0,0)"/><g opacity="1" transform="matrix(0,-1,1,0,0,0)"><path stroke-linecap="round" stroke-linejoin="round" fill-opacity="0" class="primary" stroke="rgb(42,48,107)" stroke-opacity="1" stroke-width="3" d=" M22.45199966430664,34.26499938964844 C13.29800033569336,34.244998931884766 4.053999900817871,34.229000091552734 1.878000020980835,34.262001037597656 C-13.027999877929688,34.48500061035156 -22.450000762939453,25.207000732421875 -22.45199966430664,4.038000106811523 C-22.45199966430664,-1.2089999914169312 -22.218000411987305,-26.208999633789062 -22.31800079345703,-34.26599884033203"/></g></g><g transform="matrix(1,0,0,-1,65.13099670410156,95.30699920654297)" opacity="1" style="display: block;"><g opacity="1" transform="matrix(0,-1,1,0,0,0)"><path stroke-linecap="round" stroke-linejoin="round" fill-opacity="0" class="primary" stroke="rgb(42,48,107)" stroke-opacity="1" stroke-width="3.002" d=" M38.28900146484375,0.032999999821186066 C24.958999633789062,0.032999999821186066 -20.70199966430664,-0.08799999952316284 -38.28900146484375,-0.003000000026077032"/></g></g><g transform="matrix(1,0,0,1,58.27499771118164,155.7880096435547)" opacity="1" style="display: block;"><g opacity="1" transform="matrix(1,0,0,1,0,0)"><path stroke-linecap="round" stroke-linejoin="round" fill-opacity="0" class="primary" stroke="rgb(42,48,107)" stroke-opacity="1" stroke-width="2" d=" M5.23799991607666,8.791999816894531 C-3.0910000801086426,7.603000164031982 -7.454999923706055,-2.194000005722046 -3.7820000648498535,-8.670999526977539"/></g></g><g transform="matrix(1,0,0,1,47.016998291015625,24.9689998626709)" opacity="1" style="display: block;"><g opacity="1" transform="matrix(1,0,0,1,0,0)"><path stroke-linecap="round" stroke-linejoin="round" fill-opacity="0" class="primary" stroke="rgb(42,48,107)" stroke-opacity="1" stroke-width="2" d=" M-9.64900016784668,11.576000213623047 C-9.312999725341797,-3.63700008392334 3.385999917984009,-11.470000267028809 9.423999786376953,-11.869999885559082"/></g></g><g transform="matrix(1,0,0,1,135.281005859375,116.36700439453125)" opacity="1" style="display: block;"><g opacity="1" transform="matrix(0,-1,1,0,0,0)"><path stroke-linecap="round" stroke-linejoin="round" fill-opacity="0" class="primary" stroke="rgb(42,48,107)" stroke-opacity="1" stroke-width="2" d=" M11.263999938964844,8.105999946594238 C3.0260000228881836,8.229000091552734 -6.732999801635742,5.051000118255615 -10.937000274658203,-7.2179999351501465"/></g></g></g></g></svg>