<svg xmlns="http://www.w3.org/2000/svg" xmlns:xlink="http://www.w3.org/1999/xlink" viewBox="0 0 192 192" width="192" height="192" preserveAspectRatio="xMidYMid meet" style="width: 100%; height: 100%; transform: translate3d(0px, 0px, 0px); content-visibility: visible;"><defs><clipPath id="__lottie_element_4554"><rect width="192" height="192" x="0" y="0"/></clipPath><clipPath id="__lottie_element_4556"><path d="M0,0 L192,0 L192,192 L0,192z"/></clipPath><g id="__lottie_element_4567"><g transform="matrix(1,0,0,1,0,0)" opacity="1" style="display: block;"><g opacity="1" transform="matrix(1,0,0,1,0,0)"><g opacity="1" transform="matrix(1,0,0,1,96.13700103759766,90.65499877929688)"><g opacity="1" transform="matrix(1,0,0,1,0,0)"><path fill="rgb(255,0,0)" fill-opacity="1" d=" M0.6769999861717224,-62.66699981689453 C39.58000183105469,-62.59400177001953 46.018001556396484,-19.10700035095215 46.672000885009766,-9.15999984741211 C47.650001525878906,5.714000225067139 45.14899826049805,20.761999130249023 49.255001068115234,30.117000579833984 C52.946998596191406,38.52799987792969 75.02100372314453,56.52799987792969 75.02100372314453,56.52799987792969 C75.02100372314453,56.52799987792969 35.96099853515625,63.433998107910156 1.2619999647140503,62.59700012207031 C-36.577999114990234,61.683998107910156 -75.65799713134766,60.02199935913086 -75.01300048828125,56.792999267578125 C-74.7959976196289,55.70800018310547 -52.03799819946289,39.46799850463867 -48.1349983215332,29.70599937438965 C-44.17900085449219,19.81399917602539 -46.790000915527344,6.60099983215332 -45.87200164794922,-9.170999526977539 C-45.314998626708984,-18.753000259399414 -39.72200012207031,-62.742000579833984 0.6769999861717224,-62.66699981689453z"/></g></g></g></g></g><g id="__lottie_element_4572"><g transform="matrix(1,0,0,1,0,0)" opacity="1" style="display: block;"><g opacity="1" transform="matrix(1,0,0,1,0,0)"><g opacity="1" transform="matrix(1,0,0,1,96.13700103759766,90.65499877929688)"><g opacity="1" transform="matrix(1,0,0,1,0,0)"><path fill="rgb(255,0,0)" fill-opacity="1" d=" M0.6769999861717224,-62.66699981689453 C39.58000183105469,-62.59400177001953 46.018001556396484,-19.10700035095215 46.672000885009766,-9.15999984741211 C47.650001525878906,5.714000225067139 107.39900207519531,0.7620000243186951 111.50499725341797,10.116999626159668 C115.1969985961914,18.527999877929688 75.02100372314453,56.52799987792969 75.02100372314453,56.52799987792969 C75.02100372314453,56.52799987792969 35.96099853515625,63.433998107910156 1.2619999647140503,62.59700012207031 C-36.577999114990234,61.683998107910156 -75.65799713134766,60.02199935913086 -75.01300048828125,56.792999267578125 C-74.7959976196289,55.70800018310547 -109.28800201416016,23.968000411987305 -105.38500213623047,14.206000328063965 C-101.42900085449219,4.314000129699707 -46.79100036621094,6.60099983215332 -45.87200164794922,-9.170999526977539 C-45.314998626708984,-18.753000259399414 -39.72200012207031,-62.742000579833984 0.6769999861717224,-62.66699981689453z"/></g></g></g></g></g><filter id="__lottie_element_4593" filterUnits="objectBoundingBox" x="0%" y="0%" width="100%" height="100%"><feComponentTransfer in="SourceGraphic"><feFuncA type="table" tableValues="1.0 0.0"/></feComponentTransfer></filter><mask id="__lottie_element_4572_2" mask-type="alpha" maskUnits="userSpaceOnUse"><g filter="url(#__lottie_element_4593)"><rect width="192" height="192" x="0" y="0" fill="#ffffff" opacity="0"/><use xmlns:ns1="http://www.w3.org/1999/xlink" ns1:href="#__lottie_element_4572"/></g></mask><filter id="__lottie_element_4594" filterUnits="objectBoundingBox" x="0%" y="0%" width="100%" height="100%"><feComponentTransfer in="SourceGraphic"><feFuncA type="table" tableValues="1.0 0.0"/></feComponentTransfer></filter><mask id="__lottie_element_4567_2" mask-type="alpha" maskUnits="userSpaceOnUse"><g filter="url(#__lottie_element_4594)"><rect width="192" height="192" x="0" y="0" fill="#ffffff" opacity="0"/><use xmlns:ns2="http://www.w3.org/1999/xlink" ns2:href="#__lottie_element_4567"/></g></mask></defs><g clip-path="url(#__lottie_element_4554)"><g clip-path="url(#__lottie_element_4556)" transform="matrix(1,0,0,1,0,0)" opacity="1" style="display: block;"><g mask="url(#__lottie_element_4572_2)" style="display: block;"><g transform="matrix(1,0,0,1,102.21800231933594,166.67999267578125)" opacity="1"><g opacity="1" transform="matrix(1,0,0,1,0,0)"><path class="secondary" fill="rgb(230,142,110)" fill-opacity="1" d=" M2.171999931335449,-9.708999633789062 C9.314000129699707,-9.727999687194824 15.86400032043457,-10.26099967956543 16.69700050354004,-10.263999938964844 C18.354000091552734,-0.328000009059906 13.331000328063965,10.265000343322754 -0.03799999877810478,10.263999938964844 C-13.196999549865723,10.26200008392334 -18.03499984741211,0.05900000035762787 -16.82200050354004,-9.968999862670898 C-16.798999786376953,-10.159000396728516 -6.861999988555908,-9.6850004196167 2.171999931335449,-9.708999633789062z"/><path stroke-linecap="round" stroke-linejoin="round" fill-opacity="0" class="secondary" stroke="rgb(230,142,110)" stroke-opacity="1" stroke-width="1" d=" M2.171999931335449,-9.708999633789062 C9.314000129699707,-9.727999687194824 15.86400032043457,-10.26099967956543 16.69700050354004,-10.263999938964844 C18.354000091552734,-0.328000009059906 13.331000328063965,10.265000343322754 -0.03799999877810478,10.263999938964844 C-13.196999549865723,10.26200008392334 -18.03499984741211,0.05900000035762787 -16.82200050354004,-9.968999862670898 C-16.798999786376953,-10.159000396728516 -6.861999988555908,-9.6850004196167 2.171999931335449,-9.708999633789062z"/></g></g></g><g transform="matrix(1,0,0,1,102.29900360107422,22.45199966430664)" opacity="1" style="display: block;"><g opacity="1" transform="matrix(1,0,0,1,0,0)"><path class="secondary" fill="rgb(230,142,110)" fill-opacity="1" d=" M0.5040000081062317,4.855000019073486 C4.789000034332275,4.933000087738037 9.045999526977539,5.998000144958496 9.059000015258789,6.104000091552734 C9.291000366210938,3.7320001125335693 9.059000015258789,1.5770000219345093 8.217000007629395,-0.9710000157356262 C5.816999912261963,-8.222000122070312 -5.660999774932861,-7.2129998207092285 -8.062999725341797,-1.5420000553131104 C-8.993000030517578,0.6520000100135803 -9.281000137329102,2.996000051498413 -9.086999893188477,5.552000045776367 C-9.07699966430664,5.668000221252441 -4.249000072479248,4.76800012588501 0.5040000081062317,4.855000019073486z"/><path stroke-linecap="round" stroke-linejoin="round" fill-opacity="0" class="secondary" stroke="rgb(230,142,110)" stroke-opacity="1" stroke-width="0.999" d=" M0.5040000081062317,4.855000019073486 C4.789000034332275,4.933000087738037 9.045999526977539,5.998000144958496 9.059000015258789,6.104000091552734 C9.291000366210938,3.7320001125335693 9.059000015258789,1.5770000219345093 8.217000007629395,-0.9710000157356262 C5.816999912261963,-8.222000122070312 -5.660999774932861,-7.2129998207092285 -8.062999725341797,-1.5420000553131104 C-8.993000030517578,0.6520000100135803 -9.281000137329102,2.996000051498413 -9.086999893188477,5.552000045776367 C-9.07699966430664,5.668000221252441 -4.249000072479248,4.76800012588501 0.5040000081062317,4.855000019073486z"/></g></g><g transform="matrix(1,0,0,1,76.31700134277344,55.48599624633789)" opacity="1" style="display: block;"><g opacity="1" transform="matrix(1,0,0,1,0,0)"><path stroke-linecap="round" stroke-linejoin="round" fill-opacity="0" class="primary" stroke="rgb(42,48,107)" stroke-opacity="1" stroke-width="1.996" d=" M-15.281000137329102,19.06399917602539 C-14.505999565124512,2.878000020980835 -0.9110000133514404,-17.048999786376953 15.281000137329102,-19.06399917602539"/></g></g><g transform="matrix(1,0,0,1,59.381996154785156,103.82699584960938)" opacity="1" style="display: block;"><g opacity="1" transform="matrix(1,0,0,1,0,0)"><path stroke-linecap="round" stroke-linejoin="round" fill-opacity="0" class="primary" stroke="rgb(42,48,107)" stroke-opacity="1" stroke-width="1.996" d=" M-2.0320000648498535,22.604000091552734 C0.8560000061988831,19.368999481201172 2.200000047683716,15.206000328063965 2.0160000324249268,11.206999778747559 C1.6740000247955322,3.7679998874664307 0.13099999725818634,-6.901000022888184 1.2079999446868896,-22.604000091552734"/></g></g><g transform="matrix(1,0,0,1,139.96099853515625,65.93699645996094)" opacity="1" style="display: block;"><g opacity="1" transform="matrix(1,0,0,1,0,0)"><path stroke-linecap="round" stroke-linejoin="round" fill-opacity="0" class="primary" stroke="rgb(42,48,107)" stroke-opacity="1" stroke-width="1.996" d=" M12.616000175476074,37.37799835205078 C12.618000030517578,37.29800033569336 12.621000289916992,37.21900177001953 12.62399959564209,37.138999938964844 C13.791999816894531,6.77400016784668 8.098999977111816,-26.89299964904785 -12.82699966430664,-37.138999938964844"/></g></g><g transform="matrix(1,0,0,1,92.20199584960938,15.519996643066406)" opacity="1" style="display: block;"><g opacity="1" transform="matrix(1,0,0,1,0,0)"><path stroke-linecap="round" stroke-linejoin="round" fill-opacity="0" class="primary" stroke="rgb(42,48,107)" stroke-opacity="1" stroke-width="1.996" d=" M13.581999778747559,-4.544000148773193 C-0.3009999990463257,-12.109000205993652 -13.817999839782715,-1.6859999895095825 -13.579000473022461,7.1529998779296875"/></g></g><g transform="matrix(1,0,0,1,68.67400360107422,170.1699981689453)" opacity="1" style="display: block;"><g opacity="1" transform="matrix(1,0,0,1,0,0)"><path stroke-linecap="round" stroke-linejoin="round" fill-opacity="0" class="primary" stroke="rgb(42,48,107)" stroke-opacity="1" stroke-width="1.996" d=" M20.79199981689453,10.788000106811523 C3.884999990463257,8.10200023651123 1.371000051498413,-8.633000373840332 1.1759999990463257,-8.82800006866455 C0.8830000162124634,-9.119999885559082 -14.682000160217285,-8.468000411987305 -20.79199981689453,-10.788000106811523"/></g></g><g transform="matrix(1,0,0,1,0,0)" opacity="1" style="display: block;"><g opacity="1" transform="matrix(1,0,0,1,0,0)"><g opacity="1" transform="matrix(1,0,0,1,96.13700103759766,90.65499877929688)"><g opacity="1" transform="matrix(1,0,0,1,0,0)"><path stroke-linecap="round" stroke-linejoin="round" fill-opacity="0" class="primary" stroke="rgb(42,48,107)" stroke-opacity="1" stroke-width="2.999" d=" M0.6769999861717224,-62.66699981689453 C39.58000183105469,-62.59400177001953 46.018001556396484,-19.10700035095215 46.672000885009766,-9.15999984741211 C47.650001525878906,5.714000225067139 45.14899826049805,20.761999130249023 49.255001068115234,30.117000579833984 C52.946998596191406,38.52799987792969 75.02100372314453,56.52799987792969 75.02100372314453,56.52799987792969 C75.02100372314453,56.52799987792969 35.96099853515625,63.433998107910156 1.2619999647140503,62.59700012207031 C-36.577999114990234,61.683998107910156 -75.65799713134766,60.02199935913086 -75.01300048828125,56.792999267578125 C-74.7959976196289,55.70800018310547 -52.03799819946289,39.46799850463867 -48.1349983215332,29.70599937438965 C-44.17900085449219,19.81399917602539 -46.790000915527344,6.60099983215332 -45.87200164794922,-9.170999526977539 C-45.314998626708984,-18.753000259399414 -39.72200012207031,-62.742000579833984 0.6769999861717224,-62.66699981689453z"/></g></g><g opacity="1" transform="matrix(1,0,0,1,96.51799774169922,22.56399917602539)"><g opacity="1" transform="matrix(1,0,0,1,0,0)"><path stroke-linecap="round" stroke-linejoin="round" fill-opacity="0" class="primary" stroke="rgb(42,48,107)" stroke-opacity="1" stroke-width="2.998" d=" M9.059000015258789,6.046999931335449 C9.291000366210938,3.674999952316284 9.057999610900879,1.5210000276565552 8.215999603271484,-1.0269999504089355 C5.815999984741211,-8.277999877929688 -5.6620001792907715,-7.269000053405762 -8.064000129699707,-1.5980000495910645 C-9.072999954223633,0.7860000133514404 -9.324999809265137,3.3440001010894775 -9.024999618530273,6.159999847412109"/></g></g><g opacity="1" transform="matrix(1,0,0,1,96.7229995727539,139.67100524902344)"><g opacity="1" transform="matrix(1,0,0,1,0,0)"><path stroke-linecap="round" stroke-linejoin="round" fill-opacity="0" class="primary" stroke="rgb(42,48,107)" stroke-opacity="1" stroke-width="1.996" d=" M64.08899688720703,-1.7050000429153442 C45.750999450683594,0.32499998807907104 26.94499969482422,1.7949999570846558 0.3449999988079071,1.7109999656677246 C-29.256999969482422,1.6169999837875366 -56.071998596191406,-0.8849999904632568 -64.08899688720703,-1.7139999866485596"/></g></g></g></g><g mask="url(#__lottie_element_4567_2)" style="display: block;"><g transform="matrix(1,0,0,1,97.03800201416016,163.25799560546875)" opacity="1"><g opacity="1" transform="matrix(1,0,0,1,0,0)"><path stroke-linecap="round" stroke-linejoin="round" fill-opacity="0" class="primary" stroke="rgb(42,48,107)" stroke-opacity="1" stroke-width="3" d=" M-1.0379999876022339,-26.757999420166016 C-13.788000106811523,-26.757999420166016 -16.729000091552734,-10.366000175476074 -16.729000091552734,-10.366000175476074 C-18.40999984741211,0.01600000075995922 -13.595999717712402,10.36400032043457 0.009999999776482582,10.366000175476074 C13.378999710083008,10.366999626159668 18.402000427246094,-0.22599999606609344 16.7450008392334,-10.161999702453613 C16.7450008392334,-10.161999702453613 15.961999893188477,-26.757999420166016 -1.0379999876022339,-26.757999420166016z"/></g></g></g></g></g></svg>