<svg xmlns:dc="http://purl.org/dc/elements/1.1/" xmlns:cc="http://creativecommons.org/ns#" xmlns:rdf="http://www.w3.org/1999/02/22-rdf-syntax-ns#" xmlns:svg="http://www.w3.org/2000/svg" xmlns="http://www.w3.org/2000/svg" xmlns:sodipodi="http://sodipodi.sourceforge.net/DTD/sodipodi-0.dtd" xmlns:inkscape="http://www.inkscape.org/namespaces/inkscape" version="1.1" x="0px" y="0px" viewBox="0 0 100 125"><g transform="translate(0,-952.36218)"><path style="text-indent:0;text-transform:none;direction:ltr;block-progression:tb;baseline-shift:baseline;color:#000000;enable-background:accumulate;" d="m 67.000075,959.36217 c -0.10005,1 -11.5824,4.6454 -12.7813,10.8703 -1.975,-5.3864 -7.41002,-9.8703 -12.21875,-9.8703 0,5.9173 4.87325,12.7882 12.6875,13.9309 0.44633,2.9748 -0.14736,5.4729 -1.15625,8.0898 -1.18112,-3.5254 -4.36358,-6.0283 -7.53125,-6.0283 0,3.6316 1.66983,7.2364 6.46875,8.6209 -2.0363,4.1312 -3.79334,10.1689 -3.9375,14.39935 -5.40357,0.074 -9.97301,0.5597 -13.40625,2.03028 -3.74299,1.6034 -6.125,4.6021 -6.125,8.9333 0,5.2363 2.15118,9.5617 5.875,12.494 3.39232,2.6713 8.03667,4.2141 13.5,4.4667 1.29212,2.2406 1.5782,4.1789 1.59375,6.8092 -1.43514,3.35 -4.50515,4.3348 -7.53125,4.9664 -3.56843,0.7379 -7.85001,1.2557 -11.125,4.529 -0.43545,0.3509 -0.47503,1.0898 -0.0796,1.4851 0.39548,0.3953 1.13478,0.3558 1.4858,-0.079 2.72501,-2.7237 6.44343,-3.2056 10.125,-3.9668 3.01225,-0.6999 5.77172,-1.5304 7.625,-3.7795 1.48923,3.0071 3.57653,6.1542 6.09375,7.9337 0.46852,0.2632 1.13763,0.061 1.38134,-0.4181 0.24371,-0.4788 0.0136,-1.1387 -0.47509,-1.3623 -2.23286,-1.8148 -3.66815,-4.016 -4.90625,-6.4345 -0.5457,-0.9152 -0.60569,-1.7773 -0.5625,-2.6549 0,-2.5246 -0.26769,-4.7437 -1.34375,-7.0279 5.88077,-0.1084 10.87891,-1.6399 14.46875,-4.4667 3.72382,-2.9323 5.875,-7.2577 5.875,-12.494 0,-4.3312 -2.35076,-7.3299 -6.09375,-8.9333 -3.63099,-1.55528 -8.55604,-2.03428 -14.375,-2.06148 0.0323,-1.3811 0.1872,-2.6604 0.40625,-3.87315 7.0861,0.087 12.63619,-4.618 14.0625,-9.7142 -3.88186,-0.9957 -8.92077,0.7401 -12.375,3.9357 3.45737,-6.2741 4.93966,-12.5787 3.59375,-17.8041 6.69865,-1.8838 10.7813,-7.1025 10.7813,-12.5257 z m -17.00005,41.98053 c 5.94444,0 10.86799,0.5101 14.125,1.9053 3.25701,1.3953 4.875,3.4254 4.875,7.0904 0,4.7001 -1.84882,8.3525 -5.125,10.9323 -7.80341,4.8389 -19.84044,6.0338 -27.75,0 -3.27618,-2.5798 -5.125,-6.2322 -5.125,-10.9323 0,-3.665 1.64924,-5.6952 4.90625,-7.0904 3.25701,-1.3952 8.14931,-1.9053 14.09375,-1.9053 z m -7.28125,4.3104 c -2.20101,0.3882 -4.0565,0.9326 -5.3125,1.8741 -0.48499,0.2824 -0.6339,1.0111 -0.29854,1.461 0.33536,0.4499 1.0766,0.5157 1.48604,0.132 0.744,-0.5576 2.41976,-1.1378 4.46875,-1.4993 4.74255,-0.6381 9.36389,-0.7787 13.90625,0 2.04899,0.3615 3.6935,0.9417 4.4375,1.4993 0.40944,0.3837 1.15068,0.3179 1.48604,-0.132 0.33536,-0.4499 0.18645,-1.1786 -0.29854,-1.461 -1.256,-0.9415 -3.08024,-1.4859 -5.28125,-1.8741 -4.97106,-0.6907 -9.8749,-0.8104 -14.59375,0 z" fill="#000000" fill-opacity="1" stroke="none" marker="none" visibility="visible" display="inline" overflow="visible"/></g><text x="0" y="115" fill="#000000" font-size="5px" font-weight="bold" font-family="'Helvetica Neue', Helvetica, Arial-Unicode, Arial, Sans-serif">Created by Orin zuu</text><text x="0" y="120" fill="#000000" font-size="5px" font-weight="bold" font-family="'Helvetica Neue', Helvetica, Arial-Unicode, Arial, Sans-serif">from the Noun Project</text></svg>