<svg xmlns="http://www.w3.org/2000/svg" viewBox="0 0 32 40" x="0px" y="0px"><g><path d="M25.33,22.63l-1-.92a12.45,12.45,0,0,0-7.8-3.13V13.5H19A4.51,4.51,0,0,0,23.5,9a.5.5,0,0,0-.5-.5H20A4.5,4.5,0,0,0,16,11,4.5,4.5,0,0,0,12,8.5H9a.5.5,0,0,0-.5.5A4.51,4.51,0,0,0,13,13.5h2.5v5.08a12.45,12.45,0,0,0-7.8,3.13l-1,.92a.49.49,0,0,0-.14.55A.51.51,0,0,0,7,23.5H25a.51.51,0,0,0,.47-.32A.49.49,0,0,0,25.33,22.63ZM20,9.5h2.46a3.5,3.5,0,0,1-3.46,3H16.54A3.5,3.5,0,0,1,20,9.5Zm-7,3a3.5,3.5,0,0,1-3.46-3H12a3.5,3.5,0,0,1,3.46,3Zm-4.68,10,0,0a11.51,11.51,0,0,1,15.28,0l0,0Z"/></g><text x="0" y="47" fill="#000000" font-size="5px" font-weight="bold" font-family="'Helvetica Neue', Helvetica, Arial-Unicode, Arial, Sans-serif">Created by bastian vieri</text><text x="0" y="52" fill="#000000" font-size="5px" font-weight="bold" font-family="'Helvetica Neue', Helvetica, Arial-Unicode, Arial, Sans-serif">from the Noun Project</text></svg>