<svg xmlns="http://www.w3.org/2000/svg" viewBox="-25.6 -51.2 563.2 691.2" x="0px" y="0px"><g><path d="M132.0314,260.7625a4.5012,4.5012,0,0,0-3.4453,3.4453c-7.5508,34.8584,2.5849,70.3135,27.1132,94.8408a101.5012,101.5012,0,0,0,72.09,29.5635,107.4921,107.4921,0,0,0,22.751-2.45,4.5013,4.5013,0,0,0,3.4453-3.4453c7.5507-34.8584-2.585-70.3125-27.1133-94.8408S166.89,253.2127,132.0314,260.7625Zm30.0312,91.9228c-19.5984-19.5993-29.1035-46.89-26.5-74.7876A115.6395,115.6395,0,0,1,236.85,379.1838C208.9552,381.7843,181.6617,372.2826,162.0626,352.6853Zm83.7086,25.2314a124.6819,124.6819,0,0,0-108.94-108.94c30.9092-5.7416,62.0011,3.5859,83.6775,25.2623S251.5167,347.0084,245.7712,377.9167Z"/><path d="M370.1778,125.5359a4.4883,4.4883,0,0,0-4.3906-2.1133c-35.3955,4.3946-65.5068,25.68-80.5488,56.9366-15.042,31.2548-12.8887,68.0664,5.7588,98.4707a4.5,4.5,0,0,0,3.8349,2.1474,4.443,4.443,0,0,0,.5557-.0342c35.3945-4.3955,65.5059-25.68,80.5479-56.9365S388.8253,155.9383,370.1778,125.5359Zm-76.83,58.7256c13.2978-27.6328,39.5654-46.72,70.6513-51.5049v0a124.6633,124.6633,0,0,0-66.8368,138.828C281.5211,244.3105,280.0538,211.8852,293.3478,184.2615Zm74.4785,35.8428c-12.0191,24.9737-34.636,42.9649-61.8251,49.7293a115.6417,115.6417,0,0,1,62.117-129.0727C379.7967,166.23,379.8453,195.1286,367.8263,220.1043Z"/></g><text x="0.0" y="601.6" font-size="25.6" font-weight="bold" font-family="Arbeit Regular, Helvetica, Arial-Unicode, Arial, Sans-serif" fill="#000000">Created by Rafiico Creative Studio</text><text x="0.0" y="627.2" font-size="25.6" font-weight="bold" font-family="Arbeit Regular, Helvetica, Arial-Unicode, Arial, Sans-serif" fill="#000000">from Noun Project</text></svg>