<svg xmlns="http://www.w3.org/2000/svg" xmlns:xlink="http://www.w3.org/1999/xlink" viewBox="0 0 192 192" width="192" height="192" preserveAspectRatio="xMidYMid meet" style="width: 100%; height: 100%; transform: translate3d(0px, 0px, 0px); content-visibility: visible;"><defs><clipPath id="__lottie_element_748"><rect width="192" height="192" x="0" y="0"/></clipPath><clipPath id="__lottie_element_750"><path d="M0,0 L192,0 L192,192 L0,192z"/></clipPath><clipPath id="__lottie_element_755"><path d="M0,0 L192,0 L192,192 L0,192z"/></clipPath><g id="__lottie_element_758"><g clip-path="url(#__lottie_element_759)" transform="matrix(1,0,0,1,0,0)" opacity="1" style="display: block;"><g transform="matrix(0.9700000286102295,0,0,0.9700000286102295,24.546585083007812,2.546630859375)" opacity="1" style="display: block;"><path fill="rgb(255,0,0)" fill-opacity="1" d=" M81.91,95.5 C81.3,96.97 80.71,98.23 80.11,99.32 C74.86,108.87 69.5,104.91 55.5,111.83 C22.5,128.15 32.49,167.84 32.76,167.97 C33.69,168.45 140.8,168.96 158.89,169.17 C159.98,169.18 168.84,119.55 135.83,110.72 C132.69,109.88 118.46,111.07 113.77,99.15 C113.21,97.7 112.78,96.07 112.53,94.21"/><g opacity="1" transform="matrix(1,0,0,1,95.9530029296875,131.68800354003906)"><g opacity="1" transform="matrix(1,0,0,1,0,0)"/></g><g opacity="1" transform="matrix(1,0,0,1,96.95700073242188,114.86299896240234)"/></g><g transform="matrix(0.9700000286102295,0,0,0.9700000286102295,117.12300109863281,62.375999450683594)" opacity="1" style="display: block;"><path fill="rgb(255,0,0)" fill-opacity="1" d=" M-27.246999740600586,-24.729000091552734 C-20.131999969482422,-37.06700134277344 -6.276000022888184,-39.132999420166016 1.1139999628067017,-39.26300048828125 C24.729999542236328,-39.678001403808594 28.65399932861328,-23.929000854492188 30.452999114990234,-14.810999870300293 C32.323001861572266,-5.334000110626221 32.270999908447266,14.704999923706055 19.43600082397461,29.548999786376953 C17.861000061035156,31.371000289916992 15.138999938964844,34.10900115966797 13.184000015258789,35.430999755859375 C-0.1340000033378601,44.43000030517578 -14.083000183105469,36.36199951171875 -21.7549991607666,24.141000747680664 C-25.761999130249023,17.759000778198242 -28.354000091552734,9.607000350952148 -30.14699935913086,2.3350000381469727 C-32.2140007019043,-6.048999786376953 -31.783000946044922,-16.86199951171875 -27.246999740600586,-24.729000091552734z"/><g opacity="1" transform="matrix(1,0,0,1,0,0)"/></g></g></g><clipPath id="__lottie_element_759"><path d="M0,0 L192,0 L192,192 L0,192z"/></clipPath><g id="__lottie_element_766"><g transform="matrix(0.9700000286102295,0,0,0.9700000286102295,117.12300109863281,62.375999450683594)" opacity="1" style="display: block;"><path fill="rgb(255,0,0)" fill-opacity="1" d=" M-27.246999740600586,-24.729000091552734 C-20.131999969482422,-37.06700134277344 -6.276000022888184,-39.132999420166016 1.1139999628067017,-39.26300048828125 C24.729999542236328,-39.678001403808594 28.65399932861328,-23.929000854492188 30.452999114990234,-14.810999870300293 C32.323001861572266,-5.334000110626221 32.270999908447266,14.704999923706055 19.43600082397461,29.548999786376953 C17.861000061035156,31.371000289916992 15.138999938964844,34.10900115966797 13.184000015258789,35.430999755859375 C-0.1340000033378601,44.43000030517578 -14.083000183105469,36.36199951171875 -21.7549991607666,24.141000747680664 C-25.761999130249023,17.759000778198242 -28.354000091552734,9.607000350952148 -30.14699935913086,2.3350000381469727 C-32.2140007019043,-6.048999786376953 -31.783000946044922,-16.86199951171875 -27.246999740600586,-24.729000091552734z"/><g opacity="1" transform="matrix(1,0,0,1,0,0)"/></g></g><filter id="__lottie_element_786" filterUnits="objectBoundingBox" x="0%" y="0%" width="100%" height="100%"><feComponentTransfer in="SourceGraphic"><feFuncA type="table" tableValues="1.0 0.0"/></feComponentTransfer></filter><mask id="__lottie_element_766_2" mask-type="alpha" maskUnits="userSpaceOnUse"><g filter="url(#__lottie_element_786)"><rect width="192" height="192" x="0" y="0" fill="#ffffff" opacity="0"/><use xmlns:ns1="http://www.w3.org/1999/xlink" ns1:href="#__lottie_element_766"/></g></mask><filter id="__lottie_element_787" filterUnits="objectBoundingBox" x="0%" y="0%" width="100%" height="100%"><feComponentTransfer in="SourceGraphic"><feFuncA type="table" tableValues="1.0 0.0"/></feComponentTransfer></filter><mask id="__lottie_element_758_2" mask-type="alpha" maskUnits="userSpaceOnUse"><g filter="url(#__lottie_element_787)"><rect width="192" height="192" x="0" y="0" fill="#ffffff" opacity="0"/><use xmlns:ns2="http://www.w3.org/1999/xlink" ns2:href="#__lottie_element_758"/></g></mask><g id="__lottie_element_792"><g transform="matrix(0.7049999833106995,0,0,0.7049999833106995,59.10499954223633,53.05400085449219)" opacity="1" style="display: block;"><path fill="rgb(255,0,0)" fill-opacity="1" d=" M-27.246999740600586,-24.729000091552734 C-20.131999969482422,-37.06700134277344 -6.276000022888184,-39.132999420166016 1.1139999628067017,-39.26300048828125 C24.729999542236328,-39.678001403808594 28.65399932861328,-23.929000854492188 30.452999114990234,-14.810999870300293 C32.323001861572266,-5.334000110626221 32.270999908447266,14.704999923706055 19.43600082397461,29.548999786376953 C17.861000061035156,31.371000289916992 15.138999938964844,34.10900115966797 13.184000015258789,35.430999755859375 C-0.1340000033378601,44.43000030517578 -14.083000183105469,36.36199951171875 -21.7549991607666,24.141000747680664 C-25.761999130249023,17.759000778198242 -28.354000091552734,9.607000350952148 -30.14699935913086,2.3350000381469727 C-32.2140007019043,-6.048999786376953 -31.783000946044922,-16.86199951171875 -27.246999740600586,-24.729000091552734z"/><g opacity="1" transform="matrix(1,0,0,1,0,0)"/></g></g><filter id="__lottie_element_809" filterUnits="objectBoundingBox" x="0%" y="0%" width="100%" height="100%"><feComponentTransfer in="SourceGraphic"><feFuncA type="table" tableValues="1.0 0.0"/></feComponentTransfer></filter><mask id="__lottie_element_792_2" mask-type="alpha" maskUnits="userSpaceOnUse"><g filter="url(#__lottie_element_809)"><rect width="192" height="192" x="0" y="0" fill="#ffffff" opacity="0"/><use xmlns:ns3="http://www.w3.org/1999/xlink" ns3:href="#__lottie_element_792"/></g></mask></defs><g clip-path="url(#__lottie_element_748)"><g clip-path="url(#__lottie_element_750)" transform="matrix(1,0,0,1,0,0)" opacity="1" style="display: block;"><g mask="url(#__lottie_element_758_2)" style="display: block;"><g clip-path="url(#__lottie_element_755)" transform="matrix(1,0,0,1,0,0.33300018310546875)" opacity="1"><g transform="matrix(1.0000001192092896,0,0,1.0000001192092896,57.383018493652344,107.43382263183594)" opacity="1" style="display: block;"><g opacity="1" transform="matrix(1,0,0,1,0,0)"><path class="secondary" fill="rgb(230,142,110)" fill-opacity="1" d=" M13.720000267028809,-13.668999671936035 C23.5049991607666,-18.26300048828125 30.10700035095215,-11.647000312805176 30.98200035095215,-10.583000183105469 C39.1150016784668,-0.6899999976158142 38.95800018310547,15.388999938964844 37.60200119018555,15.897000312805176 C35.06100082397461,16.850000381469727 -15.77299976348877,14.388999938964844 -34.37099838256836,14.869000434875488 C-42.441001892089844,15.07699966430664 -37.090999603271484,-8.821000099182129 -27.45599937438965,-13.71399974822998 C-22.538999557495117,-16.211000442504883 -14.678999900817871,-17.13599967956543 -10.609999656677246,-14.668000221252441 C-7.5920000076293945,-12.83899974822998 -4.191999912261963,-10.276000022888184 3.0920000076293945,-10.281999588012695 C4.329999923706055,-10.282999992370605 9.512999534606934,-11.694000244140625 13.720000267028809,-13.668999671936035z"/><path stroke-linecap="butt" stroke-linejoin="miter" fill-opacity="0" stroke-miterlimit="4" class="secondary" stroke="rgb(230,142,110)" stroke-opacity="1" stroke-width="1" d=" M13.720000267028809,-13.668999671936035 C23.5049991607666,-18.26300048828125 30.10700035095215,-11.647000312805176 30.98200035095215,-10.583000183105469 C39.1150016784668,-0.6899999976158142 38.95800018310547,15.388999938964844 37.60200119018555,15.897000312805176 C35.06100082397461,16.850000381469727 -15.77299976348877,14.388999938964844 -34.37099838256836,14.869000434875488 C-42.441001892089844,15.07699966430664 -37.090999603271484,-8.821000099182129 -27.45599937438965,-13.71399974822998 C-22.538999557495117,-16.211000442504883 -14.678999900817871,-17.13599967956543 -10.609999656677246,-14.668000221252441 C-7.5920000076293945,-12.83899974822998 -4.191999912261963,-10.276000022888184 3.0920000076293945,-10.281999588012695 C4.329999923706055,-10.282999992370605 9.512999534606934,-11.694000244140625 13.720000267028809,-13.668999671936035z"/></g></g><g transform="matrix(0.7049999833106995,0,0,0.7049999833106995,-30.034866333007812,9.569961547851562)" opacity="1" style="display: block;"><g opacity="1" transform="matrix(1,0,0,1,67.5780029296875,179.66299438476562)"><g opacity="1" transform="matrix(1,0,0,1,0,0)"><path stroke-linecap="round" stroke-linejoin="round" fill-opacity="0" class="primary" stroke="rgb(42,48,107)" stroke-opacity="1" stroke-width="3" d=" M26.03700065612793,-0.10300000011920929 C22.417999267578125,-0.10300000011920929 3.828000068664551,0.11400000005960464 -4.390999794006348,0.08900000154972076"/></g></g><g opacity="1" transform="matrix(1,0,0,1,121.91899871826172,179.75)"><g opacity="1" transform="matrix(1,0,0,1,0,0)"><path stroke-linecap="round" stroke-linejoin="round" fill-opacity="0" class="primary" stroke="rgb(42,48,107)" stroke-opacity="1" stroke-width="3" d="M0 0"/></g></g></g><g transform="matrix(0.8600999712944031,0,0,0.8600999712944031,30.865999221801758,106.58899688720703)" opacity="1" style="display: block;"><g opacity="1" transform="matrix(1,0,0,1,0,0)"><path stroke-linecap="round" stroke-linejoin="round" fill-opacity="0" class="primary" stroke-dasharray=" 45 0" stroke-dashoffset="30" stroke="rgb(42,48,107)" stroke-opacity="1" stroke-width="2" d=" M0.8220000267028809,-13.656000137329102 C-5.671999931335449,-8.803000450134277 -12.17199993133545,1.5390000343322754 -11.47599983215332,14.345000267028809 C-11.461999893188477,14.600000381469727 -11.447999954223633,14.854000091552734 -11.434000015258789,15.104999542236328"/></g></g><g mask="url(#__lottie_element_792_2)" style="display: block;"><g transform="matrix(0.7049999833106995,0,0,0.7049999833106995,-8.179866790771484,9.569961547851562)" opacity="1"><g opacity="1" transform="matrix(1,0,0,1,95.9530029296875,131.68800354003906)"><g opacity="1" transform="matrix(1,0,0,1,0,0)"><path stroke-linecap="round" stroke-linejoin="round" fill-opacity="0" class="primary" stroke="rgb(42,48,107)" stroke-opacity="1" stroke-width="4" d=" M-14.045999526977539,-36.1879997253418 C-14.652999877929688,-34.71699905395508 -15.248000144958496,-33.45600128173828 -15.845000267028809,-32.369998931884766 C-21.09600067138672,-22.81800079345703 -26.45599937438965,-26.775999069213867 -40.45399856567383,-19.854000091552734 C-73.45800018310547,-3.5350000858306885 -63.459999084472656,36.152000427246094 -63.196998596191406,36.2859992980957 C-62.26499938964844,36.757999420166016 44.85100173950195,37.2760009765625 62.939998626708984,37.47700119018555 C64.02300262451172,37.48899841308594 72.88200378417969,-12.142000198364258 39.87200164794922,-20.965999603271484 C36.73400115966797,-21.804000854492188 22.503000259399414,-20.621000289916992 17.820999145507812,-32.54199981689453 C17.253999710083008,-33.986000061035156 16.826000213623047,-35.62200164794922 16.576000213623047,-37.47700119018555"/></g></g><g opacity="1" transform="matrix(1,0,0,1,96.95700073242188,114.86299896240234)"><g opacity="1" transform="matrix(1,0,0,1,0,0)"><path stroke-linecap="round" stroke-linejoin="round" fill-opacity="0" class="primary" stroke="rgb(42,48,107)" stroke-opacity="1" stroke-width="3" d=" M18.93199920654297,-1.8450000286102295 C14.3149995803833,1.1619999408721924 7.03000020980835,3.7279999256134033 -0.6110000014305115,3.5239999294281006 C-6.71999979019165,3.3610000610351562 -13.163000106811523,0.35100001096725464 -18.93199920654297,-3.5350000858306885"/></g></g></g></g><g transform="matrix(0.7049999833106995,0,0,0.7049999833106995,59.10499954223633,53.05400085449219)" opacity="1" style="display: block;"><g opacity="1" transform="matrix(1,0,0,1,0,0)"><path stroke-linecap="round" stroke-linejoin="round" fill-opacity="0" class="primary" stroke="rgb(42,48,107)" stroke-opacity="1" stroke-width="4" d=" M-27.246999740600586,-24.729000091552734 C-20.131999969482422,-37.06700134277344 -6.276000022888184,-39.132999420166016 1.1139999628067017,-39.26300048828125 C24.729999542236328,-39.678001403808594 28.65399932861328,-23.929000854492188 30.452999114990234,-14.810999870300293 C32.323001861572266,-5.334000110626221 32.270999908447266,14.704999923706055 19.43600082397461,29.548999786376953 C17.861000061035156,31.371000289916992 15.138999938964844,34.10900115966797 13.184000015258789,35.430999755859375 C-0.1340000033378601,44.43000030517578 -14.083000183105469,36.36199951171875 -21.7549991607666,24.141000747680664 C-25.761999130249023,17.759000778198242 -28.354000091552734,9.607000350952148 -30.14699935913086,2.3350000381469727 C-32.2140007019043,-6.048999786376953 -31.783000946044922,-16.86199951171875 -27.246999740600586,-24.729000091552734z"/></g></g><g transform="matrix(0.8600999712944031,0,0,0.8600999712944031,40.73622512817383,31.153881072998047)" opacity="1" style="display: block;"><g opacity="1" transform="matrix(1,0,0,1,0,0)"><path stroke-linecap="round" stroke-linejoin="round" fill-opacity="0" class="primary" stroke-dasharray=" 45 0" stroke-dashoffset="30" stroke="rgb(42,48,107)" stroke-opacity="1" stroke-width="2" d=" M11.517000198364258,-14.345000267028809 C4.01200008392334,-14.128000259399414 -12.440999984741211,-3.4110000133514404 -11.47599983215332,14.345000267028809 C-11.465999603271484,14.531999588012695 -11.456000328063965,14.717000007629395 -11.444999694824219,14.902000427246094"/></g></g></g></g><g transform="matrix(1.000002145767212,0,0,1.000002145767212,119.69486236572266,137.23016357421875)" opacity="1" style="display: block;"><g opacity="1" transform="matrix(1,0,0,1,0,0)"><path class="secondary" fill="rgb(230,142,110)" fill-opacity="1" d=" M19.867000579833984,-19.792999267578125 C34.0369987487793,-26.445999145507812 43.59700012207031,-16.865999221801758 44.86399841308594,-15.324999809265137 C56.64099884033203,-0.9990000128746033 56.41400146484375,22.284000396728516 54.45000076293945,23.020000457763672 C50.770999908447266,24.399999618530273 -22.840999603271484,20.836999893188477 -49.77199935913086,21.531999588012695 C-61.457000732421875,21.83300018310547 -53.709999084472656,-12.77299976348877 -39.757999420166016,-19.858999252319336 C-32.637001037597656,-23.475000381469727 -21.256999969482422,-24.815000534057617 -15.36400032043457,-21.240999221801758 C-10.994000434875488,-18.591999053955078 -6.070000171661377,-14.880999565124512 4.478000164031982,-14.890000343322754 C6.270999908447266,-14.892000198364258 13.774999618530273,-16.933000564575195 19.867000579833984,-19.792999267578125z"/><path stroke-linecap="butt" stroke-linejoin="miter" fill-opacity="0" stroke-miterlimit="4" class="secondary" stroke="rgb(230,142,110)" stroke-opacity="1" stroke-width="1" d=" M19.867000579833984,-19.792999267578125 C34.0369987487793,-26.445999145507812 43.59700012207031,-16.865999221801758 44.86399841308594,-15.324999809265137 C56.64099884033203,-0.9990000128746033 56.41400146484375,22.284000396728516 54.45000076293945,23.020000457763672 C50.770999908447266,24.399999618530273 -22.840999603271484,20.836999893188477 -49.77199935913086,21.531999588012695 C-61.457000732421875,21.83300018310547 -53.709999084472656,-12.77299976348877 -39.757999420166016,-19.858999252319336 C-32.637001037597656,-23.475000381469727 -21.256999969482422,-24.815000534057617 -15.36400032043457,-21.240999221801758 C-10.994000434875488,-18.591999053955078 -6.070000171661377,-14.880999565124512 4.478000164031982,-14.890000343322754 C6.270999908447266,-14.892000198364258 13.774999618530273,-16.933000564575195 19.867000579833984,-19.792999267578125z"/></g></g><g transform="matrix(0.9700000286102295,0,0,0.9700000286102295,-1.3398022651672363,2.546630859375)" opacity="1" style="display: block;"><g opacity="1" transform="matrix(1,0,0,1,67.5780029296875,179.66299438476562)"><g opacity="1" transform="matrix(1,0,0,1,0,0)"><path stroke-linecap="round" stroke-linejoin="round" fill-opacity="0" class="primary" stroke="rgb(42,48,107)" stroke-opacity="1" stroke-width="1.995" d=" M9.86299991607666,0.006000000052154064 C6.24399995803833,0.006000000052154064 0.8759999871253967,0.07100000232458115 -7.3429999351501465,0.04600000008940697"/></g></g><g opacity="1" transform="matrix(1,0,0,1,121.91899871826172,179.75)"><g opacity="1" transform="matrix(1,0,0,1,0,0)"><path stroke-linecap="round" stroke-linejoin="round" fill-opacity="0" class="primary" stroke="rgb(42,48,107)" stroke-opacity="1" stroke-width="1.995" d=" M26.81399917602539,-0.09300000220537186 C26.81399917602539,0.2460000067949295 -33.67399978637695,-0.027000000700354576 -32.994998931884766,-0.11599999666213989"/></g></g></g><g transform="matrix(0.9700000286102295,0,0,0.9700000286102295,24.546585083007812,2.546630859375)" opacity="1" style="display: block;"><g opacity="1" transform="matrix(1,0,0,1,69.43299865722656,159.7259979248047)"><g opacity="1" transform="matrix(1,0,0,1,0,0)"><path stroke-linecap="round" stroke-linejoin="round" fill-opacity="0" class="primary" stroke="rgb(42,48,107)" stroke-opacity="1" stroke-width="1.667" d=" M18.06100082397461,-0.032999999821186066 C14.425999641418457,0.06599999964237213 -16.579999923706055,0.13099999725818634 -18.06100082397461,-0.06199999898672104"/></g></g><g opacity="1" transform="matrix(1,0,0,1,104.91400146484375,159.81700134277344)"><g opacity="1" transform="matrix(1,0,0,1,0,0)"><path stroke-linecap="round" stroke-linejoin="round" fill-opacity="0" class="primary" stroke="rgb(42,48,107)" stroke-opacity="1" stroke-width="1.995" d=" M8.121999740600586,0.0949999988079071 C5.178999900817871,0.0949999988079071 -6.696000099182129,-0.2770000100135803 -8.121999740600586,0.020999999716877937"/></g></g></g><g transform="matrix(1.18340003490448,0,0,1.18340003490448,78.2699966430664,136.03399658203125)" opacity="1" style="display: block;"><g opacity="1" transform="matrix(1,0,0,1,0,0)"><path stroke-linecap="round" stroke-linejoin="round" fill-opacity="0" class="primary" stroke-dasharray=" 45 0" stroke-dashoffset="30" stroke="rgb(42,48,107)" stroke-opacity="1" stroke-width="1.996" d=" M0.8220000267028809,-13.656000137329102 C-5.671999931335449,-8.803000450134277 -12.17199993133545,1.5390000343322754 -11.47599983215332,14.345000267028809 C-11.461999893188477,14.600000381469727 -11.447999954223633,14.854000091552734 -11.434000015258789,15.104999542236328"/></g></g><g mask="url(#__lottie_element_766_2)" style="display: block;"><g transform="matrix(0.9700000286102295,0,0,0.9700000286102295,24.546585083007812,2.546630859375)" opacity="1"><g opacity="1" transform="matrix(1,0,0,1,95.9530029296875,131.68800354003906)"><g opacity="1" transform="matrix(1,0,0,1,0,0)"><path stroke-linecap="round" stroke-linejoin="round" fill-opacity="0" class="primary" stroke="rgb(42,48,107)" stroke-opacity="1" stroke-width="3.004" d=" M-14.045999526977539,-36.1879997253418 C-14.652999877929688,-34.71699905395508 -15.248000144958496,-33.45600128173828 -15.845000267028809,-32.369998931884766 C-21.09600067138672,-22.81800079345703 -26.45599937438965,-26.775999069213867 -40.45399856567383,-19.854000091552734 C-73.45800018310547,-3.5350000858306885 -63.459999084472656,36.152000427246094 -63.196998596191406,36.2859992980957 C-62.26499938964844,36.757999420166016 44.85100173950195,37.2760009765625 62.939998626708984,37.47700119018555 C64.02300262451172,37.48899841308594 72.88200378417969,-12.142000198364258 39.87200164794922,-20.965999603271484 C36.73400115966797,-21.804000854492188 22.503000259399414,-20.621000289916992 17.820999145507812,-32.54199981689453 C17.253999710083008,-33.986000061035156 16.826000213623047,-35.62200164794922 16.576000213623047,-37.47700119018555"/></g></g><g opacity="1" transform="matrix(1,0,0,1,96.95700073242188,114.86299896240234)"><g opacity="1" transform="matrix(1,0,0,1,0,0)"><path stroke-linecap="round" stroke-linejoin="round" fill-opacity="0" class="primary" stroke="rgb(42,48,107)" stroke-opacity="1" stroke-width="1.995" d=" M18.93199920654297,-1.8450000286102295 C14.3149995803833,1.1619999408721924 7.03000020980835,3.7279999256134033 -0.6110000014305115,3.5239999294281006 C-6.71999979019165,3.3610000610351562 -13.163000106811523,0.35100001096725464 -18.93199920654297,-3.5350000858306885"/></g></g></g></g><g transform="matrix(0.9700000286102295,0,0,0.9700000286102295,117.12300109863281,62.375999450683594)" opacity="1" style="display: block;"><g opacity="1" transform="matrix(1,0,0,1,0,0)"><path stroke-linecap="round" stroke-linejoin="round" fill-opacity="0" class="primary" stroke="rgb(42,48,107)" stroke-opacity="1" stroke-width="3.004" d=" M-27.246999740600586,-24.729000091552734 C-20.131999969482422,-37.06700134277344 -6.276000022888184,-39.132999420166016 1.1139999628067017,-39.26300048828125 C24.729999542236328,-39.678001403808594 28.65399932861328,-23.929000854492188 30.452999114990234,-14.810999870300293 C32.323001861572266,-5.334000110626221 32.270999908447266,14.704999923706055 19.43600082397461,29.548999786376953 C17.861000061035156,31.371000289916992 15.138999938964844,34.10900115966797 13.184000015258789,35.430999755859375 C-0.1340000033378601,44.43000030517578 -14.083000183105469,36.36199951171875 -21.7549991607666,24.141000747680664 C-25.761999130249023,17.759000778198242 -28.354000091552734,9.607000350952148 -30.14699935913086,2.3350000381469727 C-32.2140007019043,-6.048999786376953 -31.783000946044922,-16.86199951171875 -27.246999740600586,-24.729000091552734z"/></g></g><g transform="matrix(1.18340003490448,0,0,1.18340003490448,91.84964752197266,32.243919372558594)" opacity="1" style="display: block;"><g opacity="1" transform="matrix(1,0,0,1,0,0)"><path stroke-linecap="round" stroke-linejoin="round" fill-opacity="0" class="primary" stroke-dasharray=" 45 0" stroke-dashoffset="30" stroke="rgb(42,48,107)" stroke-opacity="1" stroke-width="1.996" d=" M21.458999633789062,-15.472999572753906 C15.734999656677246,-15.458000183105469 11.517000198364258,-14.345000267028809 11.517000198364258,-14.345000267028809 C7.271999835968018,-14.222000122070312 0.164000004529953,-10.739999771118164 -5.034999847412109,-4.526000022888184"/></g></g></g></g></svg>