<svg xmlns="http://www.w3.org/2000/svg" xmlns:xlink="http://www.w3.org/1999/xlink" viewBox="0 0 192 192" width="192" height="192" preserveAspectRatio="xMidYMid meet" style="width: 100%; height: 100%; transform: translate3d(0px, 0px, 0px); content-visibility: visible;"><defs><clipPath id="__lottie_element_12692"><rect width="192" height="192" x="0" y="0"/></clipPath><clipPath id="__lottie_element_12694"><path d="M0,0 L192,0 L192,192 L0,192z"/></clipPath></defs><g clip-path="url(#__lottie_element_12692)"><g clip-path="url(#__lottie_element_12694)" transform="matrix(1,0,0,1,0,0)" opacity="1" style="display: block;"><g transform="matrix(1,0,0,1,95.7490005493164,96.30899810791016)" opacity="1" style="display: block;"><g opacity="1" transform="matrix(1,0,0,1,0,0)"><path stroke-linecap="round" stroke-linejoin="round" fill-opacity="0" class="primary" stroke="rgb(42,48,107)" stroke-opacity="1" stroke-width="1.5" d=" M-78.95800018310547,58.56800079345703 C-79.38600158691406,58.57400131225586 -78.90399932861328,-55.665000915527344 -78.84100341796875,-58.05099868774414 C-75.6780014038086,-58.08100128173828 78.89099884033203,-58.6879997253418 79.05999755859375,-58.547000885009766 C79.25399780273438,-58.387001037597656 79.01300048828125,58.46200180053711 78.87200164794922,58.479000091552734 C78.61599731445312,58.512001037597656 -78.61100006103516,58.5620002746582 -78.95800018310547,58.56800079345703z"/></g></g><g transform="matrix(1,0,0,1,121.35900115966797,96.45299530029297)" opacity="1" style="display: block;"><g opacity="1" transform="matrix(1,0,0,1,0,0)"><path stroke-linecap="round" stroke-linejoin="round" fill-opacity="0" class="primary" stroke="rgb(42,48,107)" stroke-opacity="1" stroke-width="1.5" d=" M0.23800000548362732,58.20399856567383 C0.17499999701976776,41.499000549316406 -0.3840000033378601,-32.21099853515625 -0.20200000703334808,-58.20399856567383"/></g></g><g transform="matrix(1,0,0,1,48.871002197265625,165.5159912109375)" opacity="1" style="display: block;"><g opacity="1" transform="matrix(1,0,0,1,0,0)"><path stroke-linecap="round" stroke-linejoin="round" fill-opacity="0" class="primary" stroke="rgb(42,48,107)" stroke-opacity="1" stroke-width="1.002" d=" M30.62700080871582,0.15800000727176666 C-1.7589999437332153,0.10700000077486038 -31.684999465942383,0.02199999988079071 -31.68000030517578,-0.11400000005960464"/></g></g><g transform="matrix(1,0,0,1,112.00900268554688,165.48300170898438)" opacity="1" style="display: block;"><g opacity="1" transform="matrix(1,0,0,1,0,0)"><path stroke-linecap="round" stroke-linejoin="round" fill-opacity="0" class="primary" stroke="rgb(42,48,107)" stroke-opacity="1" stroke-width="1" d=" M24.030000686645508,-0.07800000160932541 C6.679999828338623,-0.08500000089406967 -13.729999542236328,-0.07400000095367432 -24.249000549316406,0.057999998331069946"/></g></g><g transform="matrix(1,0,0,1,127.13200378417969,27.31299591064453)" opacity="1" style="display: block;"><g opacity="1" transform="matrix(1,0,0,1,0,0)"><path stroke-linecap="round" stroke-linejoin="round" fill-opacity="0" class="primary" stroke="rgb(42,48,107)" stroke-opacity="1" stroke-width="1" d=" M38.90599822998047,-0.003000000026077032 C25.14299964904785,-0.003000000026077032 -11.928999900817871,0.032999999821186066 -39.14099884033203,0.05400000140070915"/></g></g><g transform="matrix(-1,0,0,-1,156.68800354003906,75.62899780273438)" opacity="1" style="display: block;"><g opacity="1" transform="matrix(1,0,0,1,0,0)"><path class="secondary" fill="rgb(230,142,110)" fill-opacity="1" d=" M0,4.138000011444092 C2.303999900817871,4.138000011444092 4.171999931335449,2.2850000858306885 4.171999931335449,0 C4.171999931335449,-2.2850000858306885 2.303999900817871,-4.138000011444092 0,-4.138000011444092 C-2.303999900817871,-4.138000011444092 -4.171999931335449,-2.2850000858306885 -4.171999931335449,0 C-4.171999931335449,2.2850000858306885 -2.303999900817871,4.138000011444092 0,4.138000011444092z"/><path stroke-linecap="round" stroke-linejoin="round" fill-opacity="0" class="secondary" stroke="rgb(230,142,110)" stroke-opacity="1" stroke-width="0.5005" d=" M0,4.138000011444092 C2.303999900817871,4.138000011444092 4.171999931335449,2.2850000858306885 4.171999931335449,0 C4.171999931335449,-2.2850000858306885 2.303999900817871,-4.138000011444092 0,-4.138000011444092 C-2.303999900817871,-4.138000011444092 -4.171999931335449,-2.2850000858306885 -4.171999931335449,0 C-4.171999931335449,2.2850000858306885 -2.303999900817871,4.138000011444092 0,4.138000011444092z"/></g></g><g transform="matrix(-1,0,0,-1,156.55499267578125,72.65699768066406)" opacity="1" style="display: block;"><g opacity="1" transform="matrix(1,0,0,1,0,0)"><path stroke-linecap="round" stroke-linejoin="round" fill-opacity="0" class="primary" stroke="rgb(42,48,107)" stroke-opacity="1" stroke-width="1.001" d=" M0,4.138000011444092 C2.303999900817871,4.138000011444092 4.171999931335449,2.2850000858306885 4.171999931335449,0 C4.171999931335449,-2.2850000858306885 2.303999900817871,-4.138000011444092 0,-4.138000011444092 C-2.303999900817871,-4.138000011444092 -4.171999931335449,-2.2850000858306885 -4.171999931335449,0 C-4.171999931335449,2.2850000858306885 -2.303999900817871,4.138000011444092 0,4.138000011444092z"/></g></g><g transform="matrix(1,0,0,1,98.75900268554688,69.70199584960938)" opacity="1" style="display: block;"><g opacity="1" transform="matrix(1,0,0,1,0,0)"><path class="secondary" fill="rgb(230,142,110)" fill-opacity="1" d=" M-0.30300000309944153,10.73900032043457 C-14.807000160217285,10.583000183105469 -14.368000030517578,-10.722999572753906 -0.3089999854564667,-10.739999771118164 C14.496000289916992,-10.758000373840332 15.086999893188477,10.904000282287598 -0.30300000309944153,10.73900032043457z"/><path stroke-linecap="round" stroke-linejoin="round" fill-opacity="0" class="secondary" stroke="rgb(230,142,110)" stroke-opacity="1" stroke-width="0.498" d=" M-0.30300000309944153,10.73900032043457 C-14.807000160217285,10.583000183105469 -14.368000030517578,-10.722999572753906 -0.3089999854564667,-10.739999771118164 C14.496000289916992,-10.758000373840332 15.086999893188477,10.904000282287598 -0.30300000309944153,10.73900032043457z"/></g></g><g transform="matrix(1,0,0,1,94.25599670410156,67.43000030517578)" opacity="1" style="display: block;"><g opacity="1" transform="matrix(1,0,0,1,0,0)"><path stroke-linecap="round" stroke-linejoin="round" fill-opacity="0" class="primary" stroke="rgb(42,48,107)" stroke-opacity="1" stroke-width="1.4975" d=" M-0.30300000309944153,10.73900032043457 C-14.807000160217285,10.583000183105469 -14.368000030517578,-10.722999572753906 -0.3089999854564667,-10.739999771118164 C14.496000289916992,-10.758000373840332 15.086999893188477,10.904000282287598 -0.30300000309944153,10.73900032043457z"/></g></g><g transform="matrix(1,0,0,1,88.75499725341797,127.32499694824219)" opacity="1" style="display: block;"><g opacity="1" transform="matrix(1,0,0,1,0,0)"><path stroke-linecap="round" stroke-linejoin="round" fill-opacity="0" class="primary" stroke="rgb(42,48,107)" stroke-opacity="1" stroke-width="1.498" d=" M32.57600021362305,-5.413000106811523 C25.121999740600586,-24.666000366210938 13.354999542236328,-26.26099967956543 4.605000019073486,-26.291000366210938 C-11.567999839782715,-26.344999313354492 -24.4689998626709,-6.559000015258789 -29.979000091552734,13.140000343322754 C-30.840999603271484,16.222000122070312 -31.184999465942383,18.084999084472656 -32.57600021362305,26.291000366210938"/></g></g><g transform="matrix(1,0,0,1,96.35900115966797,114.56599426269531)" opacity="1" style="display: block;"><g opacity="1" transform="matrix(1,0,0,1,0,0)"><path stroke-linecap="round" stroke-linejoin="round" fill-opacity="0" class="primary" stroke="rgb(42,48,107)" stroke-opacity="1" stroke-width="1.0015" d=" M20.860000610351562,-1.0110000371932983 C18.364999771118164,7.763999938964844 7.538000106811523,-4.89900016784668 3.8329999446868896,-2.055000066757202 C-1.7050000429153442,2.197000026702881 -11.067999839782715,8.562000274658203 -20.860000610351562,-3.4760000705718994"/></g></g><g transform="matrix(1,0,0,1,46.47200012207031,96.468994140625)" opacity="1" style="display: block;"><g opacity="1" transform="matrix(1,0,0,1,0,0)"><path stroke-linecap="round" stroke-linejoin="round" fill-opacity="0" class="primary" stroke="rgb(42,48,107)" stroke-opacity="1" stroke-width="1.0015" d=" M26.613000869750977,-8.802000045776367 C10.916999816894531,14.62600040435791 0.9919999837875366,-3.88100004196167 -8.093999862670898,6.340000152587891 C-13.529999732971191,12.454999923706055 -25.982999801635742,6.269000053405762 -26.613000869750977,-2.2200000286102295"/></g></g><g transform="matrix(1,0,0,1,49.479000091552734,85.43000030517578)" opacity="1" style="display: block;"><g opacity="1" transform="matrix(1,0,0,1,0,0)"><path stroke-linecap="round" stroke-linejoin="round" fill-opacity="0" class="primary" stroke="rgb(42,48,107)" stroke-opacity="1" stroke-width="1.499" d=" M32.6609992980957,18.363000869750977 C28.243000030517578,7.618000030517578 13.428000450134277,-19.716999053955078 -3.7070000171661377,-18.82900047302246 C-21.44700050354004,-17.909000396728516 -29.625999450683594,4.934999942779541 -32.6609992980957,18.850000381469727"/></g></g><g transform="matrix(1,0,0,1,57.702999114990234,128.0139923095703)" opacity="1" style="display: block;"><g opacity="1" transform="matrix(0.9698890447616577,0.24354730546474457,-0.24354730546474457,0.9698890447616577,0,0)"><path stroke-linecap="round" stroke-linejoin="round" fill-opacity="0" class="primary" stroke="rgb(42,48,107)" stroke-opacity="1" stroke-width="1" d=" M-3.8429999351501465,20.56399917602539 C-5.64300012588501,1.4859999418258667 1.2109999656677246,-16.10700035095215 4.3379998207092285,-20.78700065612793"/></g></g><g transform="matrix(1,0,0,1,33.50899887084961,85.7959976196289)" opacity="1" style="display: block;"><g opacity="1" transform="matrix(1,0,0,1,0,0)"><path stroke-linecap="round" stroke-linejoin="round" fill-opacity="0" class="primary" stroke="rgb(42,48,107)" stroke-opacity="1" stroke-width="1.0015" d=" M-3.984999895095825,7.109000205993652 C-1.3609999418258667,0.9070000052452087 2.0980000495910645,-4.831999778747559 3.933000087738037,-7.090000152587891"/></g></g><g transform="matrix(-1,0,0,-1,148.0159912109375,120.77400207519531)" opacity="1" style="display: block;"><g opacity="1" transform="matrix(1,0,0,1,0,0)"><path stroke-linecap="round" stroke-linejoin="round" fill-opacity="0" class="primary" stroke="rgb(42,48,107)" stroke-opacity="1" stroke-width="0.9995" d=" M17.382999420166016,-0.09000000357627869 C13.413000106811523,-0.035999998450279236 8.845000267028809,0.004000000189989805 4.171999931335449,0.03200000151991844"/></g><g opacity="1" transform="matrix(1,0,0,1,0,0)"><path stroke-linecap="round" stroke-linejoin="round" fill-opacity="0" class="primary" stroke="rgb(42,48,107)" stroke-opacity="1" stroke-width="0.9995" d=" M-5.215000152587891,0.07400000095367432 C-9.626999855041504,0.08799999952316284 -13.829999923706055,0.09200000017881393 -17.382999420166016,0.08900000154972076"/></g></g><g transform="matrix(-1,0,0,-1,148.79299926757812,123.86699676513672)" opacity="1" style="display: block;"><g opacity="1" transform="matrix(1,0,0,1,0,0)"><path class="secondary" fill="rgb(230,142,110)" fill-opacity="1" d=" M0,4.138000011444092 C2.303999900817871,4.138000011444092 4.171999931335449,2.2850000858306885 4.171999931335449,0 C4.171999931335449,-2.2850000858306885 2.303999900817871,-4.138000011444092 0,-4.138000011444092 C-2.303999900817871,-4.138000011444092 -4.171999931335449,-2.2850000858306885 -4.171999931335449,0 C-4.171999931335449,2.2850000858306885 -2.303999900817871,4.138000011444092 0,4.138000011444092z"/><path stroke-linecap="round" stroke-linejoin="round" fill-opacity="0" class="secondary" stroke="rgb(230,142,110)" stroke-opacity="1" stroke-width="0.5005" d=" M0,4.138000011444092 C2.303999900817871,4.138000011444092 4.171999931335449,2.2850000858306885 4.171999931335449,0 C4.171999931335449,-2.2850000858306885 2.303999900817871,-4.138000011444092 0,-4.138000011444092 C-2.303999900817871,-4.138000011444092 -4.171999931335449,-2.2850000858306885 -4.171999931335449,0 C-4.171999931335449,2.2850000858306885 -2.303999900817871,4.138000011444092 0,4.138000011444092z"/></g></g><g transform="matrix(-1,0,0,-1,148.66000366210938,120.8949966430664)" opacity="1" style="display: block;"><g opacity="1" transform="matrix(1,0,0,1,0,0)"><path stroke-linecap="round" stroke-linejoin="round" fill-opacity="0" class="primary" stroke="rgb(42,48,107)" stroke-opacity="1" stroke-width="1.001" d=" M0,4.138000011444092 C2.303999900817871,4.138000011444092 4.171999931335449,2.2850000858306885 4.171999931335449,0 C4.171999931335449,-2.2850000858306885 2.303999900817871,-4.138000011444092 0,-4.138000011444092 C-2.303999900817871,-4.138000011444092 -4.171999931335449,-2.2850000858306885 -4.171999931335449,0 C-4.171999931335449,2.2850000858306885 -2.303999900817871,4.138000011444092 0,4.138000011444092z"/></g></g><g transform="matrix(-1,0,0,-1,148.46800231933594,95.94300079345703)" opacity="1" style="display: block;"><g opacity="1" transform="matrix(1,0,0,1,0,0)"><path stroke-linecap="round" stroke-linejoin="round" fill-opacity="0" class="primary" stroke="rgb(42,48,107)" stroke-opacity="1" stroke-width="0.9995" d=" M17.391000747680664,-0.03700000047683716 C16.274999618530273,-0.02199999988079071 15.112000465393066,-0.008999999612569809 13.913000106811523,0.0010000000474974513"/></g><g opacity="1" transform="matrix(1,0,0,1,0,0)"><path stroke-linecap="round" stroke-linejoin="round" fill-opacity="0" class="primary" stroke="rgb(42,48,107)" stroke-opacity="1" stroke-width="0.9995" d=" M3.8259999752044678,0.03799999877810478 C-3.693000078201294,0.03999999910593033 -11.45199966430664,0 -17.391000747680664,-0.004999999888241291"/></g></g><g transform="matrix(-1,0,0,-1,140.42599487304688,98.87999725341797)" opacity="1" style="display: block;"><g opacity="1" transform="matrix(1,0,0,1,0,0)"><path class="secondary" fill="rgb(230,142,110)" fill-opacity="1" d=" M0,4.138000011444092 C2.303999900817871,4.138000011444092 4.171999931335449,2.2850000858306885 4.171999931335449,0 C4.171999931335449,-2.2850000858306885 2.303999900817871,-4.138000011444092 0,-4.138000011444092 C-2.303999900817871,-4.138000011444092 -4.171999931335449,-2.2850000858306885 -4.171999931335449,0 C-4.171999931335449,2.2850000858306885 -2.303999900817871,4.138000011444092 0,4.138000011444092z"/><path stroke-linecap="round" stroke-linejoin="round" fill-opacity="0" class="secondary" stroke="rgb(230,142,110)" stroke-opacity="1" stroke-width="0.5005" d=" M0,4.138000011444092 C2.303999900817871,4.138000011444092 4.171999931335449,2.2850000858306885 4.171999931335449,0 C4.171999931335449,-2.2850000858306885 2.303999900817871,-4.138000011444092 0,-4.138000011444092 C-2.303999900817871,-4.138000011444092 -4.171999931335449,-2.2850000858306885 -4.171999931335449,0 C-4.171999931335449,2.2850000858306885 -2.303999900817871,4.138000011444092 0,4.138000011444092z"/></g></g><g transform="matrix(-1,0,0,-1,140.29400634765625,95.90699768066406)" opacity="1" style="display: block;"><g opacity="1" transform="matrix(1,0,0,1,0,0)"><path stroke-linecap="round" stroke-linejoin="round" fill-opacity="0" class="primary" stroke="rgb(42,48,107)" stroke-opacity="1" stroke-width="1.001" d=" M0,4.138000011444092 C2.303999900817871,4.138000011444092 4.171999931335449,2.2850000858306885 4.171999931335449,0 C4.171999931335449,-2.2850000858306885 2.303999900817871,-4.138000011444092 0,-4.138000011444092 C-2.303999900817871,-4.138000011444092 -4.171999931335449,-2.2850000858306885 -4.171999931335449,0 C-4.171999931335449,2.2850000858306885 -2.303999900817871,4.138000011444092 0,4.138000011444092z"/></g></g><g transform="matrix(-1,0,0,-1,148.46400451660156,72.71499633789062)" opacity="1" style="display: block;"><g opacity="1" transform="matrix(1,0,0,1,0,0)"><path stroke-linecap="round" stroke-linejoin="round" fill-opacity="0" class="primary" stroke="rgb(42,48,107)" stroke-opacity="1" stroke-width="0.9995" d=" M17.224000930786133,-0.035999998450279236 C11.189000129699707,0.04600000008940697 3.875999927520752,0.04399999976158142 -3.0999999046325684,0.026000000536441803"/></g><g opacity="1" transform="matrix(1,0,0,1,0,0)"><path stroke-linecap="round" stroke-linejoin="round" fill-opacity="0" class="primary" stroke="rgb(42,48,107)" stroke-opacity="1" stroke-width="0.9995" d=" M-13.4350004196167,-0.004999999888241291 C-14.755999565124512,-0.00800000037997961 -16.024999618530273,-0.010999999940395355 -17.224000930786133,-0.012000000104308128"/></g></g></g></g></svg>