<svg xmlns="http://www.w3.org/2000/svg" xmlns:xlink="http://www.w3.org/1999/xlink" viewBox="0 0 192 192" width="192" height="192" preserveAspectRatio="xMidYMid meet" style="width: 100%; height: 100%; transform: translate3d(0px, 0px, 0px); content-visibility: visible;"><defs><clipPath id="__lottie_element_16275"><rect width="192" height="192" x="0" y="0"/></clipPath><clipPath id="__lottie_element_16277"><path d="M0,0 L192,0 L192,192 L0,192z"/></clipPath></defs><g clip-path="url(#__lottie_element_16275)"><g clip-path="url(#__lottie_element_16277)" transform="matrix(1,0,0,1,0,0)" opacity="1" style="display: block;"><g transform="matrix(1,0,0,1,5.75,0)" opacity="1" style="display: block;"><g opacity="1" transform="matrix(1,0,0,1,-0.000003814697265625,0)"><g opacity="1" transform="matrix(1,0,0,1,154.54600524902344,42.321998596191406)"><g opacity="1" transform="matrix(0.687125563621521,0.7265387177467346,-0.7265387177467346,0.687125563621521,0,0)"><path stroke-linecap="round" stroke-linejoin="round" fill-opacity="0" class="secondary" stroke="rgb(230,142,110)" stroke-opacity="1" stroke-width="0.5" d=" M20.05900001525879,-6.564000129699707 C23.68199920654297,-6.564000129699707 26.62299919128418,-3.622999906539917 26.62299919128418,0 C26.62299919128418,3.622999906539917 23.68199920654297,6.564000129699707 20.05900001525879,6.564000129699707 C20.05900001525879,6.564000129699707 -20.05900001525879,6.564000129699707 -20.05900001525879,6.564000129699707 C-23.68199920654297,6.564000129699707 -26.62299919128418,3.622999906539917 -26.62299919128418,0 C-26.62299919128418,-3.622999906539917 -23.68199920654297,-6.564000129699707 -20.05900001525879,-6.564000129699707 C-20.05900001525879,-6.564000129699707 20.05900001525879,-6.564000129699707 20.05900001525879,-6.564000129699707z"/><path class="secondary" fill="rgb(230,142,110)" fill-opacity="1" d=" M20.05900001525879,-6.564000129699707 C23.68199920654297,-6.564000129699707 26.62299919128418,-3.622999906539917 26.62299919128418,0 C26.62299919128418,3.622999906539917 23.68199920654297,6.564000129699707 20.05900001525879,6.564000129699707 C20.05900001525879,6.564000129699707 -20.05900001525879,6.564000129699707 -20.05900001525879,6.564000129699707 C-23.68199920654297,6.564000129699707 -26.62299919128418,3.622999906539917 -26.62299919128418,0 C-26.62299919128418,-3.622999906539917 -23.68199920654297,-6.564000129699707 -20.05900001525879,-6.564000129699707 C-20.05900001525879,-6.564000129699707 20.05900001525879,-6.564000129699707 20.05900001525879,-6.564000129699707z"/></g></g></g></g><g transform="matrix(1,0,0,1,0,0)" opacity="1" style="display: block;"><g opacity="1" transform="matrix(-1,0,0,-1,57.071998596191406,141.73699951171875)"><g opacity="1" transform="matrix(0.6881139874458313,0.7256026268005371,-0.7256026268005371,0.6881139874458313,0,0)"><path class="secondary" fill="rgb(230,142,110)" fill-opacity="1" d=" M-5.331999778747559,-17.73900032043457 C-5.468999862670898,4.2210001945495605 -5.579999923706055,38.62900161743164 -5.59499979019165,42.65399932861328 C-1.8289999961853027,42.65399932861328 1.7640000581741333,42.90999984741211 5.1620001792907715,42.69900131225586 C5.730000019073486,42.66400146484375 5.665999889373779,5.164999961853027 5.388999938964844,-18.024999618530273 C5.309000015258789,-24.726999282836914 1.4620000123977661,-42.02799987792969 0.3959999978542328,-42.763999938964844 C-0.5070000290870667,-43.38800048828125 -5.265999794006348,-28.38800048828125 -5.331999778747559,-17.73900032043457z"/><path stroke-linecap="round" stroke-linejoin="round" fill-opacity="0" class="secondary" stroke="rgb(230,142,110)" stroke-opacity="1" stroke-width="0.5" d=" M-5.331999778747559,-17.73900032043457 C-5.468999862670898,4.2210001945495605 -5.579999923706055,38.62900161743164 -5.59499979019165,42.65399932861328 C-1.8289999961853027,42.65399932861328 1.7640000581741333,42.90999984741211 5.1620001792907715,42.69900131225586 C5.730000019073486,42.66400146484375 5.665999889373779,5.164999961853027 5.388999938964844,-18.024999618530273 C5.309000015258789,-24.726999282836914 1.4620000123977661,-42.02799987792969 0.3959999978542328,-42.763999938964844 C-0.5070000290870667,-43.38800048828125 -5.265999794006348,-28.38800048828125 -5.331999778747559,-17.73900032043457z"/></g></g></g><g transform="matrix(1,0,0,1,68.48699951171875,144.33900451660156)" opacity="1" style="display: block;"><g opacity="1" transform="matrix(0.687125563621521,0.7265387177467346,-0.7265387177467346,0.687125563621521,0,0)"><path stroke-linecap="round" stroke-linejoin="round" fill-opacity="0" class="primary" stroke="rgb(42,48,107)" stroke-opacity="1" stroke-width="1.0005" d=" M0.27300000190734863,27.979999542236328 C0.2939999997615814,15.720999717712402 -0.14399999380111694,-18.54199981689453 -0.27399998903274536,-27.979999542236328"/></g></g><g transform="matrix(1,0,0,1,-0.000003814697265625,0)" opacity="1" style="display: block;"><g opacity="1" transform="matrix(1,0,0,1,62.130001068115234,58.470001220703125)"><g opacity="1" transform="matrix(0.687125563621521,0.7265387177467346,-0.7265387177467346,0.687125563621521,0,0)"><path stroke-linecap="round" stroke-linejoin="round" fill-opacity="0" class="primary" stroke="rgb(42,48,107)" stroke-opacity="1" stroke-width="1.0005" d=" M-9.89900016784668,17.155000686645508 C-10.260000228881836,1.065000057220459 1.7769999504089355,-14.12600040435791 9.906999588012695,-17.155000686645508 C9.906999588012695,-17.155000686645508 10.107000350952148,-17.128999710083008 10.437999725341797,-17.191999435424805"/></g></g><g opacity="1" transform="matrix(1,0,0,1,141.33799743652344,73.66500091552734)"><g opacity="1" transform="matrix(0.687125563621521,0.7265387177467346,-0.7265387177467346,0.687125563621521,0,0)"><path stroke-linecap="round" stroke-linejoin="round" fill-opacity="0" class="primary" stroke="rgb(42,48,107)" stroke-opacity="1" stroke-width="1.0005" d=" M4.052000045776367,17.11400032043457 C3.007999897003174,12.902000427246094 -3.1679999828338623,-12.850000381469727 -4.052000045776367,-17.11400032043457"/></g></g></g><g transform="matrix(1,0,0,1,0,0)" opacity="1" style="display: block;"><g opacity="1" transform="matrix(-1,0,0,-1,53.42100143432617,138.19400024414062)"><g opacity="1" transform="matrix(0.6881139874458313,0.7256026268005371,-0.7256026268005371,0.6881139874458313,0,0)"><path stroke-linecap="round" stroke-linejoin="round" fill-opacity="0" class="primary" stroke="rgb(42,48,107)" stroke-opacity="1" stroke-width="1.5" d=" M-5.331999778747559,-17.73900032043457 C-5.468999862670898,4.2210001945495605 -5.579999923706055,38.62900161743164 -5.59499979019165,42.65399932861328 C-1.8289999961853027,42.65399932861328 1.7640000581741333,42.90999984741211 5.1620001792907715,42.69900131225586 C5.730000019073486,42.66400146484375 5.664999961853027,5.164999961853027 5.388999938964844,-18.024999618530273 C5.309000015258789,-24.726999282836914 1.4620000123977661,-42.02799987792969 0.3959999978542328,-42.763999938964844 C-0.5070000290870667,-43.38800048828125 -5.265999794006348,-28.38800048828125 -5.331999778747559,-17.73900032043457z"/></g></g><g opacity="1" transform="matrix(1,0,0,1,-0.000003814697265625,0)"><g opacity="1" transform="matrix(1,0,0,1,96.53800201416016,97.59300231933594)"><g opacity="1" transform="matrix(0.687125563621521,0.7265387177467346,-0.7265387177467346,0.687125563621521,0,0)"><path stroke-linecap="round" stroke-linejoin="round" fill-opacity="0" class="primary" stroke="rgb(42,48,107)" stroke-opacity="1" stroke-width="1.498" d=" M51.415000915527344,16.11199951171875 C51.4119987487793,16.281999588012695 -46.869998931884766,16.17799949645996 -51.417999267578125,16.08799934387207 C-51.43000030517578,3.6429998874664307 -41.84299850463867,-11.347000122070312 -31.698999404907227,-15.977999687194824 C-31.469999313354492,-16.08300018310547 30.308000564575195,-16.358999252319336 30.93400001525879,-16.084999084472656 C39.22100067138672,-12.45199966430664 51.630001068115234,2.049999952316284 51.415000915527344,16.11199951171875z"/></g></g><g opacity="1" transform="matrix(1,0,0,1,128.81900024414062,66.53800201416016)"><g opacity="1" transform="matrix(0.687125563621521,0.7265387177467346,-0.7265387177467346,0.687125563621521,0,0)"><path stroke-linecap="round" stroke-linejoin="round" fill-opacity="0" class="primary" stroke="rgb(42,48,107)" stroke-opacity="1" stroke-width="1.5" d=" M-15.126999855041504,-28.767000198364258 C-15.35099983215332,-27.89699935913086 -30.46500015258789,25.606000900268555 -31.31800079345703,28.81399917602539 C-28.559999465942383,28.764999389648438 27.722000122070312,28.52899932861328 31.31800079345703,28.70800018310547 C31.327999114990234,28.708999633789062 15.276000022888184,-28.767000198364258 15.276000022888184,-28.767000198364258 C15.276000022888184,-28.767000198364258 -15.100000381469727,-28.871999740600586 -15.126999855041504,-28.767000198364258z"/></g></g><g opacity="1" transform="matrix(1,0,0,1,154.54600524902344,42.321998596191406)"><g opacity="1" transform="matrix(0.687125563621521,0.7265387177467346,-0.7265387177467346,0.687125563621521,0,0)"><path stroke-linecap="round" stroke-linejoin="round" fill-opacity="0" class="primary" stroke="rgb(42,48,107)" stroke-opacity="1" stroke-width="1.5" d=" M20.05900001525879,-6.564000129699707 C23.68199920654297,-6.564000129699707 26.62299919128418,-3.622999906539917 26.62299919128418,0 C26.62299919128418,3.622999906539917 23.68199920654297,6.564000129699707 20.05900001525879,6.564000129699707 C20.05900001525879,6.564000129699707 -20.05900001525879,6.564000129699707 -20.05900001525879,6.564000129699707 C-23.68199920654297,6.564000129699707 -26.62299919128418,3.622999906539917 -26.62299919128418,0 C-26.62299919128418,-3.622999906539917 -23.68199920654297,-6.564000129699707 -20.05900001525879,-6.564000129699707 C-20.05900001525879,-6.564000129699707 20.05900001525879,-6.564000129699707 20.05900001525879,-6.564000129699707z"/></g></g><g opacity="1" transform="matrix(1,0,0,1,114.11299896240234,79.97899627685547)"><g opacity="1" transform="matrix(1,0,0,1,0,0)"><path stroke-linecap="round" stroke-linejoin="round" fill-opacity="0" class="primary" stroke="rgb(42,48,107)" stroke-opacity="1" stroke-width="1" d=" M19.37700080871582,20.465999603271484 C15.902000427246094,17.110000610351562 -14.39900016784668,-15.392000198364258 -19.37700080871582,-20.465999603271484"/></g></g></g></g></g></g></svg>