<svg xmlns="http://www.w3.org/2000/svg" xmlns:xlink="http://www.w3.org/1999/xlink" viewBox="0 0 192 192" width="192" height="192" preserveAspectRatio="xMidYMid meet" style="width: 100%; height: 100%; transform: translate3d(0px, 0px, 0px); content-visibility: visible;"><defs><clipPath id="__lottie_element_16986"><rect width="192" height="192" x="0" y="0"/></clipPath><clipPath id="__lottie_element_16988"><path d="M0,0 L192,0 L192,192 L0,192z"/></clipPath><g id="__lottie_element_16996"><g transform="matrix(1,0,0,1,96.63899993896484,95.44599914550781)" opacity="1" style="display: block;"><path fill="rgb(255,0,0)" fill-opacity="1" d=" M-6.414000034332275,-62.5629997253418 C-5.241000175476074,-62.68899917602539 1.88100004196167,-62.86600112915039 5.265999794006348,-62.45600128173828 C22.832000732421875,-60.32899856567383 55.80699920654297,-50.250999450683594 60.715999603271484,-7.298999786376953 C64.86199951171875,28.974000930786133 38.29899978637695,54.53499984741211 8.73799991607666,58.92900085449219 C-7.124000072479248,61.2869987487793 -24.538000106811523,57.047000885009766 -37.25899887084961,46.75199890136719 C-79.69000244140625,12.413999557495117 -60.63800048828125,-56.75899887084961 -6.414000034332275,-62.5629997253418z"/><g opacity="1" transform="matrix(1,0,0,1,0,0)"/></g></g><g id="__lottie_element_17004"><g transform="matrix(1,0,0,1,96.63899993896484,95.44599914550781)" opacity="1" style="display: block;"><path fill="rgb(255,0,0)" fill-opacity="1" d=" M-6.414000034332275,-62.5629997253418 C-5.241000175476074,-62.68899917602539 1.88100004196167,-62.86600112915039 5.265999794006348,-62.45600128173828 C22.832000732421875,-60.32899856567383 55.80699920654297,-50.250999450683594 60.715999603271484,-7.298999786376953 C64.86199951171875,28.974000930786133 38.29899978637695,54.53499984741211 8.73799991607666,58.92900085449219 C-7.124000072479248,61.2869987487793 -24.538000106811523,57.047000885009766 -37.25899887084961,46.75199890136719 C-79.69000244140625,12.413999557495117 -60.63800048828125,-56.75899887084961 -6.414000034332275,-62.5629997253418z"/><g opacity="1" transform="matrix(1,0,0,1,0,0)"/></g></g><g id="__lottie_element_17011"><g transform="matrix(1,0,0,1,96.63899993896484,95.44599914550781)" opacity="1" style="display: block;"><path fill="rgb(255,0,0)" fill-opacity="1" d=" M-6.414000034332275,-62.5629997253418 C-5.241000175476074,-62.68899917602539 1.88100004196167,-62.86600112915039 5.265999794006348,-62.45600128173828 C22.832000732421875,-60.32899856567383 55.80699920654297,-50.250999450683594 60.715999603271484,-7.298999786376953 C64.86199951171875,28.974000930786133 38.29899978637695,54.53499984741211 8.73799991607666,58.92900085449219 C-7.124000072479248,61.2869987487793 -24.538000106811523,57.047000885009766 -37.25899887084961,46.75199890136719 C-79.69000244140625,12.413999557495117 -60.63800048828125,-56.75899887084961 -6.414000034332275,-62.5629997253418z"/><g opacity="1" transform="matrix(1,0,0,1,0,0)"/></g></g><g id="__lottie_element_17016"><g transform="matrix(1,0,0,1,96.63899993896484,95.44599914550781)" opacity="1" style="display: block;"><path fill="rgb(255,0,0)" fill-opacity="1" d=" M-6.414000034332275,-62.5629997253418 C-5.241000175476074,-62.68899917602539 1.88100004196167,-62.86600112915039 5.265999794006348,-62.45600128173828 C22.832000732421875,-60.32899856567383 55.80699920654297,-50.250999450683594 60.715999603271484,-7.298999786376953 C64.86199951171875,28.974000930786133 38.29899978637695,54.53499984741211 8.73799991607666,58.92900085449219 C-7.124000072479248,61.2869987487793 -24.538000106811523,57.047000885009766 -37.25899887084961,46.75199890136719 C-79.69000244140625,12.413999557495117 -60.63800048828125,-56.75899887084961 -6.414000034332275,-62.5629997253418z"/><g opacity="1" transform="matrix(1,0,0,1,0,0)"/></g></g><mask id="__lottie_element_17016_1" mask-type="alpha"><use xmlns:ns1="http://www.w3.org/1999/xlink" ns1:href="#__lottie_element_17016"/></mask><mask id="__lottie_element_17011_1" mask-type="alpha"><use xmlns:ns2="http://www.w3.org/1999/xlink" ns2:href="#__lottie_element_17011"/></mask><mask id="__lottie_element_17004_1" mask-type="alpha"><use xmlns:ns3="http://www.w3.org/1999/xlink" ns3:href="#__lottie_element_17004"/></mask><mask id="__lottie_element_16996_1" mask-type="alpha"><use xmlns:ns4="http://www.w3.org/1999/xlink" ns4:href="#__lottie_element_16996"/></mask></defs><g clip-path="url(#__lottie_element_16986)"><g clip-path="url(#__lottie_element_16988)" transform="matrix(1,0,0,1,0,0)" opacity="1" style="display: block;"><g mask="url(#__lottie_element_17004_1)" style="display: block;"><g transform="matrix(1,0,0,1,13.095999717712402,103.97100067138672)" opacity="1"><g opacity="1" transform="matrix(1,0,0,1,0,0)"><path class="secondary" fill="rgb(230,142,110)" fill-opacity="1" d=" M-23.8700008392334,-24.05900001525879 C-23.783000946044922,-27.392000198364258 -20.242000579833984,-29.913000106811523 -17.691999435424805,-28.593000411987305 C-4.125,-21.579999923706055 23.940000534057617,-5.434999942779541 24.062999725341797,-0.16599999368190765 C24.18600082397461,5.090000152587891 -3.3550000190734863,21.825000762939453 -16.391000747680664,28.28499984741211 C-20.131999969482422,30.138999938964844 -23.475000381469727,27.944000244140625 -23.636999130249023,23.91200065612793 C-24.097000122070312,12.258000373840332 -24.200000762939453,-11.295000076293945 -23.8700008392334,-24.05900001525879z"/><path stroke-linecap="round" stroke-linejoin="round" fill-opacity="0" class="secondary" stroke="rgb(230,142,110)" stroke-opacity="1" stroke-width="0.5015" d=" M-23.8700008392334,-24.05900001525879 C-23.783000946044922,-27.392000198364258 -20.242000579833984,-29.913000106811523 -17.691999435424805,-28.593000411987305 C-4.125,-21.579999923706055 23.940000534057617,-5.434999942779541 24.062999725341797,-0.16599999368190765 C24.18600082397461,5.090000152587891 -3.3550000190734863,21.825000762939453 -16.391000747680664,28.28499984741211 C-20.131999969482422,30.138999938964844 -23.475000381469727,27.944000244140625 -23.636999130249023,23.91200065612793 C-24.097000122070312,12.258000373840332 -24.200000762939453,-11.295000076293945 -23.8700008392334,-24.05900001525879z"/></g></g></g><g mask="url(#__lottie_element_17016_1)" style="display: block;"><g transform="matrix(1,0,0,1,112.09600067138672,103.97100067138672)" opacity="1"><g opacity="1" transform="matrix(1,0,0,1,0,0)"><path class="secondary" fill="rgb(230,142,110)" fill-opacity="1" d=" M-23.8700008392334,-24.05900001525879 C-23.783000946044922,-27.392000198364258 -20.242000579833984,-29.913000106811523 -17.691999435424805,-28.593000411987305 C-4.125,-21.579999923706055 23.940000534057617,-5.434999942779541 24.062999725341797,-0.16599999368190765 C24.18600082397461,5.090000152587891 -3.3550000190734863,21.825000762939453 -16.391000747680664,28.28499984741211 C-20.131999969482422,30.138999938964844 -23.475000381469727,27.944000244140625 -23.636999130249023,23.91200065612793 C-24.097000122070312,12.258000373840332 -24.200000762939453,-11.295000076293945 -23.8700008392334,-24.05900001525879z"/><path stroke-linecap="round" stroke-linejoin="round" fill-opacity="0" class="secondary" stroke="rgb(230,142,110)" stroke-opacity="1" stroke-width="0.5015" d=" M-23.8700008392334,-24.05900001525879 C-23.783000946044922,-27.392000198364258 -20.242000579833984,-29.913000106811523 -17.691999435424805,-28.593000411987305 C-4.125,-21.579999923706055 23.940000534057617,-5.434999942779541 24.062999725341797,-0.16599999368190765 C24.18600082397461,5.090000152587891 -3.3550000190734863,21.825000762939453 -16.391000747680664,28.28499984741211 C-20.131999969482422,30.138999938964844 -23.475000381469727,27.944000244140625 -23.636999130249023,23.91200065612793 C-24.097000122070312,12.258000373840332 -24.200000762939453,-11.295000076293945 -23.8700008392334,-24.05900001525879z"/></g></g></g><g transform="matrix(1,0,0,1,97.38899993896484,95.69599914550781)" opacity="1" style="display: block;"><g opacity="1" transform="matrix(1,0,0,1,0,0)"><path stroke-linecap="round" stroke-linejoin="round" fill-opacity="0" class="primary" stroke="rgb(42,48,107)" stroke-opacity="1" stroke-width="1.5" d=" M-73.16999816894531,7.989999771118164 C-77.0739974975586,-29.864999771118164 -52.20800018310547,-69.08699798583984 -8.187000274658203,-73.80699920654297 C-8.187000274658203,-73.80699920654297 -8.187000274658203,-73.80699920654297 -8.187000274658203,-73.80699920654297 C-6.767000198364258,-73.95899963378906 1.8519999980926514,-74.17400360107422 5.947999954223633,-73.6780014038086 C27.20599937438965,-71.10399627685547 67.11000061035156,-58.90800094604492 73.0510025024414,-6.928999900817871 C78.06800079345703,36.96699905395508 45.92399978637695,67.90299987792969 10.149999618530273,73.21800231933594 C-9.045000076293945,76.07099914550781 -30.1200008392334,70.94000244140625 -45.513999938964844,58.48099899291992 C-62.41400146484375,44.80400085449219 -71.25499725341797,26.562000274658203 -73.16999816894531,7.989999771118164"/></g></g><g transform="matrix(1,0,0,1,96.63899993896484,95.94599914550781)" opacity="1" style="display: block;"><g opacity="1" transform="matrix(1,0,0,1,0,0)"><path stroke-linecap="round" stroke-linejoin="round" fill-opacity="0" class="primary" stroke="rgb(42,48,107)" stroke-opacity="1" stroke-width="1" d=" M10.79800033569336,58.5880012512207 C10.11299991607666,58.7130012512207 9.425999641418457,58.82699966430664 8.73799991607666,58.92900085449219 C-7.124000072479248,61.2869987487793 -24.538000106811523,57.047000885009766 -37.25899887084961,46.75199890136719 C-79.69000244140625,12.413999557495117 -60.63800048828125,-56.75899887084961 -6.414000034332275,-62.5629997253418 C-6.414000034332275,-62.5629997253418 -6.414000034332275,-62.5629997253418 -6.414000034332275,-62.5629997253418 C-5.241000175476074,-62.68899917602539 1.88100004196167,-62.86600112915039 5.265999794006348,-62.45600128173828 C22.711000442504883,-60.34400177001953 55.35300064086914,-50.388999938964844 60.611000061035156,-8.182000160217285"/></g></g><g transform="matrix(0.9986295104026794,-0.0523359552025795,0.0523359552025795,0.9986295104026794,91.63899993896484,97.44599914550781)" opacity="1" style="display: block;"><g opacity="1" transform="matrix(1,0,0,1,0,0)"><path stroke-linecap="round" stroke-linejoin="round" fill-opacity="0" class="primary" stroke="rgb(42,48,107)" stroke-opacity="1" stroke-width="1" d=" M41.52899932861328,43.70100021362305 C34.80099868774414,49.65599822998047 26.79599952697754,54.099998474121094 18.25200080871582,56.75400161743164"/></g></g><g transform="matrix(1,0,0,1,96.88899993896484,94.69599914550781)" opacity="1" style="display: block;"><g opacity="1" transform="matrix(1,0,0,1,0,0)"><path stroke-linecap="round" stroke-linejoin="round" fill-opacity="0" class="primary" stroke="rgb(42,48,107)" stroke-opacity="1" stroke-width="1" d=" M-40.132999420166016,-36.18899917602539 C-33.3489990234375,-44.4379997253418 -23.92799949645996,-50.71200180053711 -12.291000366210938,-53.430999755859375"/></g></g><g transform="matrix(1,0,0,1,95.88899993896484,94.69599914550781)" opacity="1" style="display: block;"><g opacity="1" transform="matrix(1,0,0,1,0,0)"><path stroke-linecap="round" stroke-linejoin="round" fill-opacity="0" class="primary" stroke="rgb(42,48,107)" stroke-opacity="1" stroke-width="1" d=" M79.26399993896484,38.89699935913086 C73.76300048828125,50.9109992980957 65.53399658203125,61.14899826049805 55.604000091552734,69.2229995727539"/></g></g><g transform="matrix(1,0,0,1,97.38899993896484,95.19599914550781)" opacity="1" style="display: block;"><g opacity="1" transform="matrix(1,0,0,1,0,0)"><path stroke-linecap="round" stroke-linejoin="round" fill-opacity="0" class="primary" stroke="rgb(42,48,107)" stroke-opacity="1" stroke-width="1" d=" M-78.86900329589844,-39.76300048828125 C-71.45500183105469,-54.41400146484375 -60.029998779296875,-67.05599975585938 -45.159000396728516,-75.58300018310547"/></g></g><g mask="url(#__lottie_element_17011_1)" style="display: block;"><g transform="matrix(1,0,0,1,106.39600372314453,95.89600372314453)" opacity="1"><g opacity="1" transform="matrix(1,0,0,1,0,0)"><path stroke-linecap="round" stroke-linejoin="round" fill-opacity="0" class="primary" stroke="rgb(42,48,107)" stroke-opacity="1" stroke-width="1.5" d=" M-23.031999588012695,31.084999084472656 C-24.158000946044922,29.961999893188477 -24.423999786376953,-22.190000534057617 -23.520999908447266,-31.155000686645508 C-15.663000106811523,-27.740999221801758 23.91699981689453,-6.131999969482422 24.062999725341797,0.12700000405311584 C24.222000122070312,6.890999794006348 -21.448999404907227,32.67100143432617 -23.031999588012695,31.084999084472656z"/></g></g></g><g mask="url(#__lottie_element_16996_1)" style="display: none;"><g><g><path stroke-linecap="round" stroke-linejoin="round" fill-opacity="0" class="primary"/></g></g></g></g></g></svg>