<svg xmlns="http://www.w3.org/2000/svg" xmlns:xlink="http://www.w3.org/1999/xlink" viewBox="0 0 192 192" width="192" height="192" preserveAspectRatio="xMidYMid meet" style="width: 100%; height: 100%; transform: translate3d(0px, 0px, 0px); content-visibility: visible;"><defs><clipPath id="__lottie_element_15072"><rect width="192" height="192" x="0" y="0"/></clipPath><clipPath id="__lottie_element_15074"><path d="M0,0 L192,0 L192,192 L0,192z"/></clipPath><g id="__lottie_element_15082"><g transform="matrix(1.136649250984192,0,0,1.136649250984192,150.4474334716797,128.29071044921875)" opacity="1" style="display: block;"><g opacity="0" transform="matrix(1,0,0,1,0,0)"><path fill="rgb(67,67,67)" fill-opacity="1" d=" M-54.52000045776367,47.59600067138672 C-52.70399856567383,47.07099914550781 -51.6510009765625,45.196998596191406 -52.167999267578125,43.409000396728516 C-52.685001373291016,41.62099838256836 -54.57699966430664,40.59600067138672 -56.393001556396484,41.12099838256836 C-56.32099914550781,41.06999969482422 -56.33399963378906,41.09700012207031 -56.33399963378906,41.09700012207031 C-56.33399963378906,41.09700012207031 -56.34600067138672,41.13399887084961 -56.395999908447266,41.1150016784668 C-58.21900177001953,41.6150016784668 -59.29199981689453,43.499000549316406 -58.79199981689453,45.321998596191406 C-58.29199981689453,47.14500045776367 -56.40800094604492,48.21799850463867 -54.584999084472656,47.71799850463867 C-54.54899978637695,47.766998291015625 -54.52799987792969,47.66699981689453 -54.52799987792969,47.66699981689453 C-54.52799987792969,47.66699981689453 -54.54100036621094,47.57099914550781 -54.52000045776367,47.59600067138672z"/></g><g opacity="0" transform="matrix(1,0,0,1,0,-17.75)"><path fill="rgb(67,67,67)" fill-opacity="1" d=" M-54.52000045776367,47.59600067138672 C-52.70399856567383,47.07099914550781 -51.6510009765625,45.196998596191406 -52.167999267578125,43.409000396728516 C-52.685001373291016,41.62099838256836 -54.57699966430664,40.59600067138672 -56.393001556396484,41.12099838256836 C-56.32099914550781,41.06999969482422 -56.33399963378906,41.09700012207031 -56.33399963378906,41.09700012207031 C-56.33399963378906,41.09700012207031 -56.34600067138672,41.13399887084961 -56.395999908447266,41.1150016784668 C-58.21900177001953,41.6150016784668 -59.29199981689453,43.499000549316406 -58.79199981689453,45.321998596191406 C-58.29199981689453,47.14500045776367 -56.40800094604492,48.21799850463867 -54.584999084472656,47.71799850463867 C-54.54899978637695,47.766998291015625 -54.52799987792969,47.66699981689453 -54.52799987792969,47.66699981689453 C-54.52799987792969,47.66699981689453 -54.54100036621094,47.57099914550781 -54.52000045776367,47.59600067138672z"/></g><g opacity="0" transform="matrix(1,0,0,1,0,-35.79999923706055)"><path fill="rgb(67,67,67)" fill-opacity="1" d=" M-54.52000045776367,47.59600067138672 C-52.70399856567383,47.07099914550781 -51.6510009765625,45.196998596191406 -52.167999267578125,43.409000396728516 C-52.685001373291016,41.62099838256836 -54.57699966430664,40.59600067138672 -56.393001556396484,41.12099838256836 C-56.32099914550781,41.06999969482422 -56.33399963378906,41.09700012207031 -56.33399963378906,41.09700012207031 C-56.33399963378906,41.09700012207031 -56.34600067138672,41.13399887084961 -56.395999908447266,41.1150016784668 C-58.21900177001953,41.6150016784668 -59.29199981689453,43.499000549316406 -58.79199981689453,45.321998596191406 C-58.29199981689453,47.14500045776367 -56.40800094604492,48.21799850463867 -54.584999084472656,47.71799850463867 C-54.54899978637695,47.766998291015625 -54.52799987792969,47.66699981689453 -54.52799987792969,47.66699981689453 C-54.52799987792969,47.66699981689453 -54.54100036621094,47.57099914550781 -54.52000045776367,47.59600067138672z"/></g><g opacity="0" transform="matrix(1,0,0,1,0,-53.099998474121094)"><path fill="rgb(67,67,67)" fill-opacity="1" d=" M-54.52000045776367,47.59600067138672 C-52.70399856567383,47.07099914550781 -51.6510009765625,45.196998596191406 -52.167999267578125,43.409000396728516 C-52.685001373291016,41.62099838256836 -54.57699966430664,40.59600067138672 -56.393001556396484,41.12099838256836 C-56.32099914550781,41.06999969482422 -56.33399963378906,41.09700012207031 -56.33399963378906,41.09700012207031 C-56.33399963378906,41.09700012207031 -56.34600067138672,41.13399887084961 -56.395999908447266,41.1150016784668 C-58.21900177001953,41.6150016784668 -59.29199981689453,43.499000549316406 -58.79199981689453,45.321998596191406 C-58.29199981689453,47.14500045776367 -56.40800094604492,48.21799850463867 -54.584999084472656,47.71799850463867 C-54.54899978637695,47.766998291015625 -54.52799987792969,47.66699981689453 -54.52799987792969,47.66699981689453 C-54.52799987792969,47.66699981689453 -54.54100036621094,47.57099914550781 -54.52000045776367,47.59600067138672z"/></g></g></g><g id="__lottie_element_15088"><g transform="matrix(0.9714406132698059,0,0,0.9714406132698059,142.94740295410156,23.290752410888672)" opacity="1" style="display: block;"><g opacity="0" transform="matrix(1,0,0,1,0,0)"><path fill="rgb(67,67,67)" fill-opacity="1" d=" M-54.52000045776367,47.59600067138672 C-52.70399856567383,47.07099914550781 -51.6510009765625,45.196998596191406 -52.167999267578125,43.409000396728516 C-52.685001373291016,41.62099838256836 -54.57699966430664,40.59600067138672 -56.393001556396484,41.12099838256836 C-56.32099914550781,41.06999969482422 -56.33399963378906,41.09700012207031 -56.33399963378906,41.09700012207031 C-56.33399963378906,41.09700012207031 -56.34600067138672,41.13399887084961 -56.395999908447266,41.1150016784668 C-58.21900177001953,41.6150016784668 -59.29199981689453,43.499000549316406 -58.79199981689453,45.321998596191406 C-58.29199981689453,47.14500045776367 -56.40800094604492,48.21799850463867 -54.584999084472656,47.71799850463867 C-54.54899978637695,47.766998291015625 -54.52799987792969,47.66699981689453 -54.52799987792969,47.66699981689453 C-54.52799987792969,47.66699981689453 -54.54100036621094,47.57099914550781 -54.52000045776367,47.59600067138672z"/></g><g opacity="0" transform="matrix(1,0,0,1,0,-17.75)"><path fill="rgb(67,67,67)" fill-opacity="1" d=" M-54.52000045776367,47.59600067138672 C-52.70399856567383,47.07099914550781 -51.6510009765625,45.196998596191406 -52.167999267578125,43.409000396728516 C-52.685001373291016,41.62099838256836 -54.57699966430664,40.59600067138672 -56.393001556396484,41.12099838256836 C-56.32099914550781,41.06999969482422 -56.33399963378906,41.09700012207031 -56.33399963378906,41.09700012207031 C-56.33399963378906,41.09700012207031 -56.34600067138672,41.13399887084961 -56.395999908447266,41.1150016784668 C-58.21900177001953,41.6150016784668 -59.29199981689453,43.499000549316406 -58.79199981689453,45.321998596191406 C-58.29199981689453,47.14500045776367 -56.40800094604492,48.21799850463867 -54.584999084472656,47.71799850463867 C-54.54899978637695,47.766998291015625 -54.52799987792969,47.66699981689453 -54.52799987792969,47.66699981689453 C-54.52799987792969,47.66699981689453 -54.54100036621094,47.57099914550781 -54.52000045776367,47.59600067138672z"/></g><g opacity="0" transform="matrix(1,0,0,1,0,-35.79999923706055)"><path fill="rgb(67,67,67)" fill-opacity="1" d=" M-54.52000045776367,47.59600067138672 C-52.70399856567383,47.07099914550781 -51.6510009765625,45.196998596191406 -52.167999267578125,43.409000396728516 C-52.685001373291016,41.62099838256836 -54.57699966430664,40.59600067138672 -56.393001556396484,41.12099838256836 C-56.32099914550781,41.06999969482422 -56.33399963378906,41.09700012207031 -56.33399963378906,41.09700012207031 C-56.33399963378906,41.09700012207031 -56.34600067138672,41.13399887084961 -56.395999908447266,41.1150016784668 C-58.21900177001953,41.6150016784668 -59.29199981689453,43.499000549316406 -58.79199981689453,45.321998596191406 C-58.29199981689453,47.14500045776367 -56.40800094604492,48.21799850463867 -54.584999084472656,47.71799850463867 C-54.54899978637695,47.766998291015625 -54.52799987792969,47.66699981689453 -54.52799987792969,47.66699981689453 C-54.52799987792969,47.66699981689453 -54.54100036621094,47.57099914550781 -54.52000045776367,47.59600067138672z"/></g><g opacity="0" transform="matrix(1,0,0,1,0,-53.099998474121094)"><path fill="rgb(67,67,67)" fill-opacity="1" d=" M-54.52000045776367,47.59600067138672 C-52.70399856567383,47.07099914550781 -51.6510009765625,45.196998596191406 -52.167999267578125,43.409000396728516 C-52.685001373291016,41.62099838256836 -54.57699966430664,40.59600067138672 -56.393001556396484,41.12099838256836 C-56.32099914550781,41.06999969482422 -56.33399963378906,41.09700012207031 -56.33399963378906,41.09700012207031 C-56.33399963378906,41.09700012207031 -56.34600067138672,41.13399887084961 -56.395999908447266,41.1150016784668 C-58.21900177001953,41.6150016784668 -59.29199981689453,43.499000549316406 -58.79199981689453,45.321998596191406 C-58.29199981689453,47.14500045776367 -56.40800094604492,48.21799850463867 -54.584999084472656,47.71799850463867 C-54.54899978637695,47.766998291015625 -54.52799987792969,47.66699981689453 -54.52799987792969,47.66699981689453 C-54.52799987792969,47.66699981689453 -54.54100036621094,47.57099914550781 -54.52000045776367,47.59600067138672z"/></g></g></g><filter id="__lottie_element_15106" filterUnits="objectBoundingBox" x="0%" y="0%" width="100%" height="100%"><feComponentTransfer in="SourceGraphic"><feFuncA type="table" tableValues="1.0 0.0"/></feComponentTransfer></filter><mask id="__lottie_element_15088_2" mask-type="alpha" maskUnits="userSpaceOnUse"><g filter="url(#__lottie_element_15106)"><rect width="192" height="192" x="0" y="0" fill="#ffffff" opacity="0"/><use xmlns:ns1="http://www.w3.org/1999/xlink" ns1:href="#__lottie_element_15088"/></g></mask><filter id="__lottie_element_15107" filterUnits="objectBoundingBox" x="0%" y="0%" width="100%" height="100%"><feComponentTransfer in="SourceGraphic"><feFuncA type="table" tableValues="1.0 0.0"/></feComponentTransfer></filter><mask id="__lottie_element_15082_2" mask-type="alpha" maskUnits="userSpaceOnUse"><g filter="url(#__lottie_element_15107)"><rect width="192" height="192" x="0" y="0" fill="#ffffff" opacity="0"/><use xmlns:ns2="http://www.w3.org/1999/xlink" ns2:href="#__lottie_element_15082"/></g></mask><g id="__lottie_element_15345"><g transform="matrix(1.005810022354126,-0.7493336200714111,0.6288171410560608,0.8440440893173218,135.63333129882812,103.19575500488281)" opacity="1" style="display: none;"><g opacity="1" transform="matrix(1,0,0,1,0,0)"><path fill="rgb(67,67,67)" fill-opacity="1" d=" M-52.9119987487793,45.95600128173828 C-52.8390007019043,51.46699905395508 -48.29800033569336,55.72700119018555 -42.76900100708008,55.47200012207031 C-37.2400016784668,55.21699905395508 -32.819000244140625,50.54399871826172 -32.891998291015625,45.03300094604492 C-33.0620002746582,32.266998291015625 -34.231998443603516,14.02299976348877 -36.525001525878906,-3.561000108718872 C-38.77199935913086,-20.795000076293945 -42.250999450683594,-38.70100021362305 -47.52299880981445,-49.96200180053711 C-49.83300018310547,-54.895999908447266 -55.77799987792969,-56.893001556396484 -60.80099868774414,-54.42499923706055 C-65.8239974975586,-51.957000732421875 -68.0250015258789,-45.957000732421875 -65.71499633789062,-41.02299880981445 C-61.83599853515625,-32.737998962402344 -58.62200164794922,-17.527999877929688 -56.38100051879883,-0.3440000116825104 C-54.18600082397461,16.489999771118164 -53.071998596191406,33.96699905395508 -52.9119987487793,45.95600128173828z"/></g><g opacity="1" transform="matrix(0.9975640773773193,-0.06975647062063217,-0.06975647062063217,-0.9975640773773193,10.67947006225586,-4.087581634521484)"><path fill="rgb(67,67,67)" fill-opacity="1" d=" M-52.9119987487793,45.95600128173828 C-52.8390007019043,51.46699905395508 -48.29800033569336,55.72700119018555 -42.76900100708008,55.47200012207031 C-37.2400016784668,55.21699905395508 -32.819000244140625,50.54399871826172 -32.891998291015625,45.03300094604492 C-33.0620002746582,32.266998291015625 -34.231998443603516,14.02299976348877 -36.525001525878906,-3.561000108718872 C-38.77199935913086,-20.795000076293945 -42.250999450683594,-38.70100021362305 -47.52299880981445,-49.96200180053711 C-49.83300018310547,-54.895999908447266 -55.77799987792969,-56.893001556396484 -60.80099868774414,-54.42499923706055 C-65.8239974975586,-51.957000732421875 -68.0250015258789,-45.957000732421875 -65.71499633789062,-41.02299880981445 C-61.83599853515625,-32.737998962402344 -58.62200164794922,-17.527999877929688 -56.38100051879883,-0.3440000116825104 C-54.18600082397461,16.489999771118164 -53.071998596191406,33.96699905395508 -52.9119987487793,45.95600128173828z"/></g><g opacity="1" transform="matrix(1,0,0,1,22,0)"><path fill="rgb(67,67,67)" fill-opacity="1" d=" M-52.9119987487793,45.95600128173828 C-52.8390007019043,51.46699905395508 -48.29800033569336,55.72700119018555 -42.76900100708008,55.47200012207031 C-37.2400016784668,55.21699905395508 -32.819000244140625,50.54399871826172 -32.891998291015625,45.03300094604492 C-33.0620002746582,32.266998291015625 -34.231998443603516,14.02299976348877 -36.525001525878906,-3.561000108718872 C-38.77199935913086,-20.795000076293945 -42.250999450683594,-38.70100021362305 -47.52299880981445,-49.96200180053711 C-49.83300018310547,-54.895999908447266 -55.77799987792969,-56.893001556396484 -60.80099868774414,-54.42499923706055 C-65.8239974975586,-51.957000732421875 -68.0250015258789,-45.957000732421875 -65.71499633789062,-41.02299880981445 C-61.83599853515625,-32.737998962402344 -58.62200164794922,-17.527999877929688 -56.38100051879883,-0.3440000116825104 C-54.18600082397461,16.489999771118164 -53.071998596191406,33.96699905395508 -52.9119987487793,45.95600128173828z"/></g><g opacity="0.9001220012339076" transform="matrix(0.9975640773773193,-0.06975647062063217,-0.06975647062063217,-0.9975640773773193,32.679473876953125,-4.087581634521484)"><path fill="rgb(67,67,67)" fill-opacity="1" d=" M-52.9119987487793,45.95600128173828 C-52.8390007019043,51.46699905395508 -48.29800033569336,55.72700119018555 -42.76900100708008,55.47200012207031 C-37.2400016784668,55.21699905395508 -32.819000244140625,50.54399871826172 -32.891998291015625,45.03300094604492 C-33.0620002746582,32.266998291015625 -34.231998443603516,14.02299976348877 -36.525001525878906,-3.561000108718872 C-38.77199935913086,-20.795000076293945 -42.250999450683594,-38.70100021362305 -47.52299880981445,-49.96200180053711 C-49.83300018310547,-54.895999908447266 -55.77799987792969,-56.893001556396484 -60.80099868774414,-54.42499923706055 C-65.8239974975586,-51.957000732421875 -68.0250015258789,-45.957000732421875 -65.71499633789062,-41.02299880981445 C-61.83599853515625,-32.737998962402344 -58.62200164794922,-17.527999877929688 -56.38100051879883,-0.3440000116825104 C-54.18600082397461,16.489999771118164 -53.071998596191406,33.96699905395508 -52.9119987487793,45.95600128173828z"/></g><g opacity="0.63235913665513" transform="matrix(1,0,0,1,44,0)"><path fill="rgb(67,67,67)" fill-opacity="1" d=" M-59.171993255615234,-8.090269088745117 C-57.59538650512695,-2.906299591064453 -52.11479187011719,-0.1355467140674591 -46.9305534362793,-1.9027036428451538 C-41.746315002441406,-3.669860601425171 -38.82265090942383,-9.30591106414795 -40.39925765991211,-14.48988151550293 C-40.61164093017578,-19.452627182006836 -41.47456741333008,-26.23392677307129 -42.65514373779297,-32.8404655456543 C-43.81228256225586,-39.31510543823242 -45.511932373046875,-45.720726013183594 -47.52299880981445,-49.96200180053711 C-49.83300018310547,-54.895999908447266 -55.77799987792969,-56.893001556396484 -60.80099868774414,-54.42499923706055 C-65.8239974975586,-51.957000732421875 -68.0250015258789,-45.957000732421875 -65.71499633789062,-41.02299880981445 C-64.22863006591797,-37.928348541259766 -62.51738739013672,-32.06962203979492 -61.36351776123047,-25.613515853881836 C-60.2336311340332,-19.289310455322266 -59.41459274291992,-12.514488220214844 -59.171993255615234,-8.090269088745117z"/></g><g opacity="0" transform="matrix(0.9975640773773193,-0.06975647062063217,-0.06975647062063217,-0.9975640773773193,54.67947006225586,-4.087581634521484)"><path fill="rgb(67,67,67)" fill-opacity="1" d=" M-58.43000030517578,-44.48899841308594 C-57.97200012207031,-43.47700119018555 -56.78200149536133,-43.060001373291016 -55.77000045776367,-43.55699920654297 C-54.757999420166016,-44.05400085449219 -54.310001373291016,-45.27799987792969 -54.768001556396484,-46.290000915527344 C-54.742000579833984,-46.334999084472656 -54.77299880981445,-46.30500030517578 -54.77299880981445,-46.30500030517578 C-54.77299880981445,-46.30500030517578 -54.775001525878906,-46.29600143432617 -54.77899932861328,-46.30400085449219 C-55.244998931884766,-47.29899978637695 -56.44200134277344,-47.70199966430664 -57.45500183105469,-47.20399856567383 C-58.46799850463867,-46.707000732421875 -58.9119987487793,-45.49599838256836 -58.44599914550781,-44.50199890136719 C-58.439998626708984,-44.51499938964844 -58.448001861572266,-44.516998291015625 -58.448001861572266,-44.516998291015625 C-58.448001861572266,-44.516998291015625 -58.44499969482422,-44.520999908447266 -58.43000030517578,-44.48899841308594z"/></g><g opacity="0" transform="matrix(1,0,0,1,66,0)"><path fill="rgb(67,67,67)" fill-opacity="1" d=" M-58.43000030517578,-44.48899841308594 C-57.97200012207031,-43.47700119018555 -56.78200149536133,-43.060001373291016 -55.77000045776367,-43.55699920654297 C-54.757999420166016,-44.05400085449219 -54.310001373291016,-45.27799987792969 -54.768001556396484,-46.290000915527344 C-54.742000579833984,-46.334999084472656 -54.77299880981445,-46.30500030517578 -54.77299880981445,-46.30500030517578 C-54.77299880981445,-46.30500030517578 -54.775001525878906,-46.29600143432617 -54.77899932861328,-46.30400085449219 C-55.244998931884766,-47.29899978637695 -56.44200134277344,-47.70199966430664 -57.45500183105469,-47.20399856567383 C-58.46799850463867,-46.707000732421875 -58.9119987487793,-45.49599838256836 -58.44599914550781,-44.50199890136719 C-58.439998626708984,-44.51499938964844 -58.448001861572266,-44.516998291015625 -58.448001861572266,-44.516998291015625 C-58.448001861572266,-44.516998291015625 -58.44499969482422,-44.520999908447266 -58.43000030517578,-44.48899841308594z"/></g><g opacity="0" transform="matrix(0.9975640773773193,-0.06975647062063217,-0.06975647062063217,-0.9975640773773193,54.67947006225586,-4.087581634521484)"><path fill="rgb(67,67,67)" fill-opacity="1" d=" M-35.96099853515625,-45.66699981689453 C-35.50299835205078,-44.654998779296875 -34.3129997253418,-44.237998962402344 -33.30099868774414,-44.73500061035156 C-32.28900146484375,-45.231998443603516 -31.84000015258789,-46.45600128173828 -32.29800033569336,-47.46799850463867 C-32.27199935913086,-47.51300048828125 -32.30400085449219,-47.483001708984375 -32.30400085449219,-47.483001708984375 C-32.30400085449219,-47.483001708984375 -32.305999755859375,-47.4739990234375 -32.310001373291016,-47.481998443603516 C-32.7760009765625,-48.47700119018555 -33.972999572753906,-48.87900161743164 -34.986000061035156,-48.38100051879883 C-35.999000549316406,-47.88399887084961 -36.44300079345703,-46.67399978637695 -35.97700119018555,-45.68000030517578 C-35.97100067138672,-45.69300079345703 -35.979000091552734,-45.694000244140625 -35.979000091552734,-45.694000244140625 C-35.979000091552734,-45.694000244140625 -35.97600173950195,-45.69900131225586 -35.96099853515625,-45.66699981689453z"/></g><g opacity="0" transform="matrix(1,0,0,1,66,0)"><path fill="rgb(67,67,67)" fill-opacity="1" d=" M-37.731998443603516,-47.60100173950195 C-37.27399826049805,-46.5890007019043 -36.08300018310547,-46.172000885009766 -35.07099914550781,-46.66899871826172 C-34.058998107910156,-47.16600036621094 -33.611000061035156,-48.38999938964844 -34.069000244140625,-49.402000427246094 C-34.042999267578125,-49.446998596191406 -34.07400131225586,-49.41699981689453 -34.07400131225586,-49.41699981689453 C-34.07400131225586,-49.41699981689453 -34.07600021362305,-49.40800094604492 -34.08000183105469,-49.41600036621094 C-34.54600143432617,-50.4109992980957 -35.74300003051758,-50.8129997253418 -36.75600051879883,-50.314998626708984 C-37.76900100708008,-49.81800079345703 -38.2130012512207,-48.608001708984375 -37.74700164794922,-47.61399841308594 C-37.74100112915039,-47.62699890136719 -37.749000549316406,-47.62799835205078 -37.749000549316406,-47.62799835205078 C-37.749000549316406,-47.62799835205078 -37.74700164794922,-47.632999420166016 -37.731998443603516,-47.60100173950195z"/></g><g opacity="0" transform="matrix(0.9975640773773193,-0.06975647062063217,-0.06975647062063217,-0.9975640773773193,54.67947006225586,-4.087581634521484)"><path fill="rgb(67,67,67)" fill-opacity="1" d=" M-19.523000717163086,-47.279998779296875 C-19.065000534057617,-46.268001556396484 -17.875,-45.849998474121094 -16.863000869750977,-46.34700012207031 C-15.85099983215332,-46.84400177001953 -15.402000427246094,-48.06800079345703 -15.859999656677246,-49.08000183105469 C-15.833999633789062,-49.125 -15.864999771118164,-49.095001220703125 -15.864999771118164,-49.095001220703125 C-15.864999771118164,-49.095001220703125 -15.866999626159668,-49.08599853515625 -15.871000289916992,-49.09400177001953 C-16.336999893188477,-50.0890007019043 -17.53499984741211,-50.492000579833984 -18.54800033569336,-49.99399948120117 C-19.56100082397461,-49.49700164794922 -20.003999710083008,-48.2859992980957 -19.538000106811523,-47.29199981689453 C-19.531999588012695,-47.30500030517578 -19.540000915527344,-47.30699920654297 -19.540000915527344,-47.30699920654297 C-19.540000915527344,-47.30699920654297 -19.538000106811523,-47.3120002746582 -19.523000717163086,-47.279998779296875z"/></g><g opacity="0" transform="matrix(1,0,0,1,66,0)"><path fill="rgb(67,67,67)" fill-opacity="1" d=" M-16.958999633789062,-46.4640007019043 C-16.500999450683594,-45.45199966430664 -15.3100004196167,-45.034000396728516 -14.29800033569336,-45.53099822998047 C-13.28600025177002,-46.02799987792969 -12.838000297546387,-47.25199890136719 -13.295999526977539,-48.263999938964844 C-13.270000457763672,-48.308998107910156 -13.300999641418457,-48.27899932861328 -13.300999641418457,-48.27899932861328 C-13.300999641418457,-48.27899932861328 -13.303000450134277,-48.27000045776367 -13.307000160217285,-48.27799987792969 C-13.77299976348877,-49.27299880981445 -14.970000267028809,-49.67599868774414 -15.982999801635742,-49.178001403808594 C-16.996000289916992,-48.680999755859375 -17.440000534057617,-47.470001220703125 -16.974000930786133,-46.47600173950195 C-16.968000411987305,-46.48899841308594 -16.97599983215332,-46.49100112915039 -16.97599983215332,-46.49100112915039 C-16.97599983215332,-46.49100112915039 -16.974000930786133,-46.49599838256836 -16.958999633789062,-46.4640007019043z"/></g></g></g><g id="__lottie_element_15351"><g transform="matrix(1.005810022354126,-0.7493336200714111,0.6288171410560608,0.8440440893173218,74.29207611083984,41.179100036621094)" opacity="1" style="display: none;"><g opacity="1" transform="matrix(1,0,0,1,0,0)"><path fill="rgb(67,67,67)" fill-opacity="1" d=" M-52.9119987487793,45.95600128173828 C-52.8390007019043,51.46699905395508 -48.29800033569336,55.72700119018555 -42.76900100708008,55.47200012207031 C-37.2400016784668,55.21699905395508 -32.819000244140625,50.54399871826172 -32.891998291015625,45.03300094604492 C-33.0620002746582,32.266998291015625 -34.231998443603516,14.02299976348877 -36.525001525878906,-3.561000108718872 C-38.77199935913086,-20.795000076293945 -42.250999450683594,-38.70100021362305 -47.52299880981445,-49.96200180053711 C-49.83300018310547,-54.895999908447266 -55.77799987792969,-56.893001556396484 -60.80099868774414,-54.42499923706055 C-65.8239974975586,-51.957000732421875 -68.0250015258789,-45.957000732421875 -65.71499633789062,-41.02299880981445 C-61.83599853515625,-32.737998962402344 -58.62200164794922,-17.527999877929688 -56.38100051879883,-0.3440000116825104 C-54.18600082397461,16.489999771118164 -53.071998596191406,33.96699905395508 -52.9119987487793,45.95600128173828z"/></g><g opacity="1" transform="matrix(0.9975640773773193,-0.06975647062063217,-0.06975647062063217,-0.9975640773773193,10.67947006225586,-4.087581634521484)"><path fill="rgb(67,67,67)" fill-opacity="1" d=" M-52.9119987487793,45.95600128173828 C-52.8390007019043,51.46699905395508 -48.29800033569336,55.72700119018555 -42.76900100708008,55.47200012207031 C-37.2400016784668,55.21699905395508 -32.819000244140625,50.54399871826172 -32.891998291015625,45.03300094604492 C-33.0620002746582,32.266998291015625 -34.231998443603516,14.02299976348877 -36.525001525878906,-3.561000108718872 C-38.77199935913086,-20.795000076293945 -42.250999450683594,-38.70100021362305 -47.52299880981445,-49.96200180053711 C-49.83300018310547,-54.895999908447266 -55.77799987792969,-56.893001556396484 -60.80099868774414,-54.42499923706055 C-65.8239974975586,-51.957000732421875 -68.0250015258789,-45.957000732421875 -65.71499633789062,-41.02299880981445 C-61.83599853515625,-32.737998962402344 -58.62200164794922,-17.527999877929688 -56.38100051879883,-0.3440000116825104 C-54.18600082397461,16.489999771118164 -53.071998596191406,33.96699905395508 -52.9119987487793,45.95600128173828z"/></g><g opacity="1" transform="matrix(1,0,0,1,22,0)"><path fill="rgb(67,67,67)" fill-opacity="1" d=" M-52.9119987487793,45.95600128173828 C-52.8390007019043,51.46699905395508 -48.29800033569336,55.72700119018555 -42.76900100708008,55.47200012207031 C-37.2400016784668,55.21699905395508 -32.819000244140625,50.54399871826172 -32.891998291015625,45.03300094604492 C-33.0620002746582,32.266998291015625 -34.231998443603516,14.02299976348877 -36.525001525878906,-3.561000108718872 C-38.77199935913086,-20.795000076293945 -42.250999450683594,-38.70100021362305 -47.52299880981445,-49.96200180053711 C-49.83300018310547,-54.895999908447266 -55.77799987792969,-56.893001556396484 -60.80099868774414,-54.42499923706055 C-65.8239974975586,-51.957000732421875 -68.0250015258789,-45.957000732421875 -65.71499633789062,-41.02299880981445 C-61.83599853515625,-32.737998962402344 -58.62200164794922,-17.527999877929688 -56.38100051879883,-0.3440000116825104 C-54.18600082397461,16.489999771118164 -53.071998596191406,33.96699905395508 -52.9119987487793,45.95600128173828z"/></g><g opacity="0.9001220012339076" transform="matrix(0.9975640773773193,-0.06975647062063217,-0.06975647062063217,-0.9975640773773193,32.679473876953125,-4.087581634521484)"><path fill="rgb(67,67,67)" fill-opacity="1" d=" M-52.9119987487793,45.95600128173828 C-52.8390007019043,51.46699905395508 -48.29800033569336,55.72700119018555 -42.76900100708008,55.47200012207031 C-37.2400016784668,55.21699905395508 -32.819000244140625,50.54399871826172 -32.891998291015625,45.03300094604492 C-33.0620002746582,32.266998291015625 -34.231998443603516,14.02299976348877 -36.525001525878906,-3.561000108718872 C-38.77199935913086,-20.795000076293945 -42.250999450683594,-38.70100021362305 -47.52299880981445,-49.96200180053711 C-49.83300018310547,-54.895999908447266 -55.77799987792969,-56.893001556396484 -60.80099868774414,-54.42499923706055 C-65.8239974975586,-51.957000732421875 -68.0250015258789,-45.957000732421875 -65.71499633789062,-41.02299880981445 C-61.83599853515625,-32.737998962402344 -58.62200164794922,-17.527999877929688 -56.38100051879883,-0.3440000116825104 C-54.18600082397461,16.489999771118164 -53.071998596191406,33.96699905395508 -52.9119987487793,45.95600128173828z"/></g><g opacity="0.63235913665513" transform="matrix(1,0,0,1,44,0)"><path fill="rgb(67,67,67)" fill-opacity="1" d=" M-59.171993255615234,-8.090269088745117 C-57.59538650512695,-2.906299591064453 -52.11479187011719,-0.1355467140674591 -46.9305534362793,-1.9027036428451538 C-41.746315002441406,-3.669860601425171 -38.82265090942383,-9.30591106414795 -40.39925765991211,-14.48988151550293 C-40.61164093017578,-19.452627182006836 -41.47456741333008,-26.23392677307129 -42.65514373779297,-32.8404655456543 C-43.81228256225586,-39.31510543823242 -45.511932373046875,-45.720726013183594 -47.52299880981445,-49.96200180053711 C-49.83300018310547,-54.895999908447266 -55.77799987792969,-56.893001556396484 -60.80099868774414,-54.42499923706055 C-65.8239974975586,-51.957000732421875 -68.0250015258789,-45.957000732421875 -65.71499633789062,-41.02299880981445 C-64.22863006591797,-37.928348541259766 -62.51738739013672,-32.06962203979492 -61.36351776123047,-25.613515853881836 C-60.2336311340332,-19.289310455322266 -59.41459274291992,-12.514488220214844 -59.171993255615234,-8.090269088745117z"/></g><g opacity="0" transform="matrix(0.9975640773773193,-0.06975647062063217,-0.06975647062063217,-0.9975640773773193,54.67947006225586,-4.087581634521484)"><path fill="rgb(67,67,67)" fill-opacity="1" d=" M-58.43000030517578,-44.48899841308594 C-57.97200012207031,-43.47700119018555 -56.78200149536133,-43.060001373291016 -55.77000045776367,-43.55699920654297 C-54.757999420166016,-44.05400085449219 -54.310001373291016,-45.27799987792969 -54.768001556396484,-46.290000915527344 C-54.742000579833984,-46.334999084472656 -54.77299880981445,-46.30500030517578 -54.77299880981445,-46.30500030517578 C-54.77299880981445,-46.30500030517578 -54.775001525878906,-46.29600143432617 -54.77899932861328,-46.30400085449219 C-55.244998931884766,-47.29899978637695 -56.44200134277344,-47.70199966430664 -57.45500183105469,-47.20399856567383 C-58.46799850463867,-46.707000732421875 -58.9119987487793,-45.49599838256836 -58.44599914550781,-44.50199890136719 C-58.439998626708984,-44.51499938964844 -58.448001861572266,-44.516998291015625 -58.448001861572266,-44.516998291015625 C-58.448001861572266,-44.516998291015625 -58.44499969482422,-44.520999908447266 -58.43000030517578,-44.48899841308594z"/></g><g opacity="0" transform="matrix(1,0,0,1,66,0)"><path fill="rgb(67,67,67)" fill-opacity="1" d=" M-58.43000030517578,-44.48899841308594 C-57.97200012207031,-43.47700119018555 -56.78200149536133,-43.060001373291016 -55.77000045776367,-43.55699920654297 C-54.757999420166016,-44.05400085449219 -54.310001373291016,-45.27799987792969 -54.768001556396484,-46.290000915527344 C-54.742000579833984,-46.334999084472656 -54.77299880981445,-46.30500030517578 -54.77299880981445,-46.30500030517578 C-54.77299880981445,-46.30500030517578 -54.775001525878906,-46.29600143432617 -54.77899932861328,-46.30400085449219 C-55.244998931884766,-47.29899978637695 -56.44200134277344,-47.70199966430664 -57.45500183105469,-47.20399856567383 C-58.46799850463867,-46.707000732421875 -58.9119987487793,-45.49599838256836 -58.44599914550781,-44.50199890136719 C-58.439998626708984,-44.51499938964844 -58.448001861572266,-44.516998291015625 -58.448001861572266,-44.516998291015625 C-58.448001861572266,-44.516998291015625 -58.44499969482422,-44.520999908447266 -58.43000030517578,-44.48899841308594z"/></g><g opacity="0" transform="matrix(0.9975640773773193,-0.06975647062063217,-0.06975647062063217,-0.9975640773773193,54.67947006225586,-4.087581634521484)"><path fill="rgb(67,67,67)" fill-opacity="1" d=" M-35.96099853515625,-45.66699981689453 C-35.50299835205078,-44.654998779296875 -34.3129997253418,-44.237998962402344 -33.30099868774414,-44.73500061035156 C-32.28900146484375,-45.231998443603516 -31.84000015258789,-46.45600128173828 -32.29800033569336,-47.46799850463867 C-32.27199935913086,-47.51300048828125 -32.30400085449219,-47.483001708984375 -32.30400085449219,-47.483001708984375 C-32.30400085449219,-47.483001708984375 -32.305999755859375,-47.4739990234375 -32.310001373291016,-47.481998443603516 C-32.7760009765625,-48.47700119018555 -33.972999572753906,-48.87900161743164 -34.986000061035156,-48.38100051879883 C-35.999000549316406,-47.88399887084961 -36.44300079345703,-46.67399978637695 -35.97700119018555,-45.68000030517578 C-35.97100067138672,-45.69300079345703 -35.979000091552734,-45.694000244140625 -35.979000091552734,-45.694000244140625 C-35.979000091552734,-45.694000244140625 -35.97600173950195,-45.69900131225586 -35.96099853515625,-45.66699981689453z"/></g><g opacity="0" transform="matrix(1,0,0,1,66,0)"><path fill="rgb(67,67,67)" fill-opacity="1" d=" M-37.731998443603516,-47.60100173950195 C-37.27399826049805,-46.5890007019043 -36.08300018310547,-46.172000885009766 -35.07099914550781,-46.66899871826172 C-34.058998107910156,-47.16600036621094 -33.611000061035156,-48.38999938964844 -34.069000244140625,-49.402000427246094 C-34.042999267578125,-49.446998596191406 -34.07400131225586,-49.41699981689453 -34.07400131225586,-49.41699981689453 C-34.07400131225586,-49.41699981689453 -34.07600021362305,-49.40800094604492 -34.08000183105469,-49.41600036621094 C-34.54600143432617,-50.4109992980957 -35.74300003051758,-50.8129997253418 -36.75600051879883,-50.314998626708984 C-37.76900100708008,-49.81800079345703 -38.2130012512207,-48.608001708984375 -37.74700164794922,-47.61399841308594 C-37.74100112915039,-47.62699890136719 -37.749000549316406,-47.62799835205078 -37.749000549316406,-47.62799835205078 C-37.749000549316406,-47.62799835205078 -37.74700164794922,-47.632999420166016 -37.731998443603516,-47.60100173950195z"/></g><g opacity="0" transform="matrix(0.9975640773773193,-0.06975647062063217,-0.06975647062063217,-0.9975640773773193,54.67947006225586,-4.087581634521484)"><path fill="rgb(67,67,67)" fill-opacity="1" d=" M-19.523000717163086,-47.279998779296875 C-19.065000534057617,-46.268001556396484 -17.875,-45.849998474121094 -16.863000869750977,-46.34700012207031 C-15.85099983215332,-46.84400177001953 -15.402000427246094,-48.06800079345703 -15.859999656677246,-49.08000183105469 C-15.833999633789062,-49.125 -15.864999771118164,-49.095001220703125 -15.864999771118164,-49.095001220703125 C-15.864999771118164,-49.095001220703125 -15.866999626159668,-49.08599853515625 -15.871000289916992,-49.09400177001953 C-16.336999893188477,-50.0890007019043 -17.53499984741211,-50.492000579833984 -18.54800033569336,-49.99399948120117 C-19.56100082397461,-49.49700164794922 -20.003999710083008,-48.2859992980957 -19.538000106811523,-47.29199981689453 C-19.531999588012695,-47.30500030517578 -19.540000915527344,-47.30699920654297 -19.540000915527344,-47.30699920654297 C-19.540000915527344,-47.30699920654297 -19.538000106811523,-47.3120002746582 -19.523000717163086,-47.279998779296875z"/></g><g opacity="0" transform="matrix(1,0,0,1,66,0)"><path fill="rgb(67,67,67)" fill-opacity="1" d=" M-16.958999633789062,-46.4640007019043 C-16.500999450683594,-45.45199966430664 -15.3100004196167,-45.034000396728516 -14.29800033569336,-45.53099822998047 C-13.28600025177002,-46.02799987792969 -12.838000297546387,-47.25199890136719 -13.295999526977539,-48.263999938964844 C-13.270000457763672,-48.308998107910156 -13.300999641418457,-48.27899932861328 -13.300999641418457,-48.27899932861328 C-13.300999641418457,-48.27899932861328 -13.303000450134277,-48.27000045776367 -13.307000160217285,-48.27799987792969 C-13.77299976348877,-49.27299880981445 -14.970000267028809,-49.67599868774414 -15.982999801635742,-49.178001403808594 C-16.996000289916992,-48.680999755859375 -17.440000534057617,-47.470001220703125 -16.974000930786133,-46.47600173950195 C-16.968000411987305,-46.48899841308594 -16.97599983215332,-46.49100112915039 -16.97599983215332,-46.49100112915039 C-16.97599983215332,-46.49100112915039 -16.974000930786133,-46.49599838256836 -16.958999633789062,-46.4640007019043z"/></g></g></g><mask id="__lottie_element_15351_1" mask-type="alpha"><use xmlns:ns3="http://www.w3.org/1999/xlink" ns3:href="#__lottie_element_15351"/></mask><mask id="__lottie_element_15345_1" mask-type="alpha"><use xmlns:ns4="http://www.w3.org/1999/xlink" ns4:href="#__lottie_element_15345"/></mask></defs><g clip-path="url(#__lottie_element_15072)"><g clip-path="url(#__lottie_element_15074)" transform="matrix(1,0,0,1,0,0)" opacity="1" style="display: block;"><g mask="url(#__lottie_element_15082_2)" style="display: block;"><g transform="matrix(0.8799953460693359,0,0,0.8799953460693359,16.632339477539062,11.299633026123047)" opacity="1"><g opacity="1" transform="matrix(1,0,0,-1,139.01100158691406,145.01400756835938)"><g opacity="1" transform="matrix(1,0,0,1,0,0)"><path class="primary" fill="rgb(230,142,110)" fill-opacity="1" d=" M-35.255001068115234,-39.2859992980957 C-35.14799880981445,-40.893001556396484 -21.805999755859375,-39.90299987792969 -16.24799919128418,-38.983001708984375 C-14.770999908447266,-38.73899841308594 -15.937000274658203,21.63800048828125 -15.593000411987305,23.523000717163086 C-15.322999954223633,25.003000259399414 30.051000595092773,22.83099937438965 31.08799934387207,24.451000213623047 C31.714000701904297,25.43000030517578 32.986000061035156,39.62900161743164 32.66899871826172,42.643001556396484 C32.5629997253418,43.654998779296875 -32.78300094604492,45.16899871826172 -32.91899871826172,41.53499984741211 C-33.82899856567383,17.23900032043457 -35.51300048828125,-35.4640007019043 -35.255001068115234,-39.2859992980957z"/><path stroke-linecap="round" stroke-linejoin="round" fill-opacity="0" class="primary" stroke="rgb(230,142,110)" stroke-opacity="1" stroke-width="1.001" d=" M-35.255001068115234,-39.2859992980957 C-35.14799880981445,-40.893001556396484 -21.805999755859375,-39.90299987792969 -16.24799919128418,-38.983001708984375 C-14.770999908447266,-38.73899841308594 -15.937000274658203,21.63800048828125 -15.593000411987305,23.523000717163086 C-15.322999954223633,25.003000259399414 30.051000595092773,22.83099937438965 31.08799934387207,24.451000213623047 C31.714000701904297,25.43000030517578 32.986000061035156,39.62900161743164 32.66899871826172,42.643001556396484 C32.5629997253418,43.654998779296875 -32.78300094604492,45.16899871826172 -32.91899871826172,41.53499984741211 C-33.82899856567383,17.23900032043457 -35.51300048828125,-35.4640007019043 -35.255001068115234,-39.2859992980957z"/></g></g></g></g><g mask="url(#__lottie_element_15088_2)" style="display: block;"><g transform="matrix(0.8799953460693359,0,0,0.8799953460693359,16.632339477539062,11.299633026123047)" opacity="1"><g opacity="1" transform="matrix(1,0,0,-1,114.92400360107422,34.6870002746582)"><g opacity="1" transform="matrix(1,0,0,1,0,0)"><path class="primary" fill="rgb(230,142,110)" fill-opacity="1" d=" M-11.996999740600586,-30.656999588012695 C-11.895000457763672,-32.263999938964844 0.8579999804496765,-31.274999618530273 6.170000076293945,-30.354999542236328 C7.581999778747559,-30.111000061035156 6.4730000495910645,26.572999954223633 6.802000045776367,28.45800018310547 C7.059999942779541,29.937999725341797 -10.170000076293945,34.801998138427734 -10.401000022888184,27.94099998474121 C-11.239999771118164,3.0840001106262207 -12.1899995803833,-27.66200065612793 -11.996999740600586,-30.656999588012695z"/><path stroke-linecap="round" stroke-linejoin="round" fill-opacity="0" class="primary" stroke="rgb(230,142,110)" stroke-opacity="1" stroke-width="1" d=" M-11.996999740600586,-30.656999588012695 C-11.895000457763672,-32.263999938964844 0.8579999804496765,-31.274999618530273 6.170000076293945,-30.354999542236328 C7.581999778747559,-30.111000061035156 6.4730000495910645,26.572999954223633 6.802000045776367,28.45800018310547 C7.059999942779541,29.937999725341797 -10.170000076293945,34.801998138427734 -10.401000022888184,27.94099998474121 C-11.239999771118164,3.0840001106262207 -12.1899995803833,-27.66200065612793 -11.996999740600586,-30.656999588012695z"/></g></g></g></g><g mask="url(#__lottie_element_15345_1)" style="display: none;"><g transform="matrix(0.6063855886459351,-0.5997816324234009,0.5997816324234009,0.6063855886459351,-16.420059204101562,91.72972869873047)" opacity="1"><g opacity="1" transform="matrix(1,0,0,-1,139.01100158691406,145.01400756835938)"><g opacity="1" transform="matrix(1,0,0,1,0,0)"><path class="primary" fill="rgb(230,142,110)" fill-opacity="1" d=" M-35.255001068115234,-39.2859992980957 C-35.14799880981445,-40.893001556396484 -21.805999755859375,-39.90299987792969 -16.24799919128418,-38.983001708984375 C-14.770999908447266,-38.73899841308594 -15.937000274658203,21.63800048828125 -15.593000411987305,23.523000717163086 C-15.322999954223633,25.003000259399414 30.051000595092773,22.83099937438965 31.08799934387207,24.451000213623047 C31.714000701904297,25.43000030517578 32.986000061035156,39.62900161743164 32.66899871826172,42.643001556396484 C32.5629997253418,43.654998779296875 -32.78300094604492,45.16899871826172 -32.91899871826172,41.53499984741211 C-33.82899856567383,17.23900032043457 -35.51300048828125,-35.4640007019043 -35.255001068115234,-39.2859992980957z"/><path stroke-linecap="round" stroke-linejoin="round" fill-opacity="0" class="primary" stroke="rgb(230,142,110)" stroke-opacity="1" stroke-width="1.001" d=" M-35.255001068115234,-39.2859992980957 C-35.14799880981445,-40.893001556396484 -21.805999755859375,-39.90299987792969 -16.24799919128418,-38.983001708984375 C-14.770999908447266,-38.73899841308594 -15.937000274658203,21.63800048828125 -15.593000411987305,23.523000717163086 C-15.322999954223633,25.003000259399414 30.051000595092773,22.83099937438965 31.08799934387207,24.451000213623047 C31.714000701904297,25.43000030517578 32.986000061035156,39.62900161743164 32.66899871826172,42.643001556396484 C32.5629997253418,43.654998779296875 -32.78300094604492,45.16899871826172 -32.91899871826172,41.53499984741211 C-33.82899856567383,17.23900032043457 -35.51300048828125,-35.4640007019043 -35.255001068115234,-39.2859992980957z"/></g></g><g opacity="1" transform="matrix(1,0,0,-1,114.92400360107422,34.6870002746582)"><g opacity="1" transform="matrix(1,0,0,1,0,0)"><path class="primary" fill="rgb(230,142,110)" fill-opacity="1" d=" M-11.996999740600586,-30.656999588012695 C-11.895000457763672,-32.263999938964844 0.8579999804496765,-31.274999618530273 6.170000076293945,-30.354999542236328 C7.581999778747559,-30.111000061035156 6.4730000495910645,26.572999954223633 6.802000045776367,28.45800018310547 C7.059999942779541,29.937999725341797 -10.170000076293945,34.801998138427734 -10.401000022888184,27.94099998474121 C-11.239999771118164,3.0840001106262207 -12.1899995803833,-27.66200065612793 -11.996999740600586,-30.656999588012695z"/><path stroke-linecap="round" stroke-linejoin="round" fill-opacity="0" class="primary" stroke="rgb(230,142,110)" stroke-opacity="1" stroke-width="1" d=" M-11.996999740600586,-30.656999588012695 C-11.895000457763672,-32.263999938964844 0.8579999804496765,-31.274999618530273 6.170000076293945,-30.354999542236328 C7.581999778747559,-30.111000061035156 6.4730000495910645,26.572999954223633 6.802000045776367,28.45800018310547 C7.059999942779541,29.937999725341797 -10.170000076293945,34.801998138427734 -10.401000022888184,27.94099998474121 C-11.239999771118164,3.0840001106262207 -12.1899995803833,-27.66200065612793 -11.996999740600586,-30.656999588012695z"/></g></g></g></g><g mask="url(#__lottie_element_15351_1)" style="display: none;"><g transform="matrix(0.6063855886459351,-0.5997816324234009,0.5997816324234009,0.6063855886459351,-16.420059204101562,91.72972869873047)" opacity="1"><g opacity="1" transform="matrix(1,0,0,-1,114.92400360107422,34.6870002746582)"><g opacity="1" transform="matrix(1,0,0,1,0,0)"><path class="primary" fill="rgb(230,142,110)" fill-opacity="1" d=" M-11.996999740600586,-30.656999588012695 C-11.895000457763672,-32.263999938964844 0.8579999804496765,-31.274999618530273 6.170000076293945,-30.354999542236328 C7.581999778747559,-30.111000061035156 6.4730000495910645,26.572999954223633 6.802000045776367,28.45800018310547 C7.059999942779541,29.937999725341797 -10.170000076293945,34.801998138427734 -10.401000022888184,27.94099998474121 C-11.239999771118164,3.0840001106262207 -12.1899995803833,-27.66200065612793 -11.996999740600586,-30.656999588012695z"/><path stroke-linecap="round" stroke-linejoin="round" fill-opacity="0" class="primary" stroke="rgb(230,142,110)" stroke-opacity="1" stroke-width="1" d=" M-11.996999740600586,-30.656999588012695 C-11.895000457763672,-32.263999938964844 0.8579999804496765,-31.274999618530273 6.170000076293945,-30.354999542236328 C7.581999778747559,-30.111000061035156 6.4730000495910645,26.572999954223633 6.802000045776367,28.45800018310547 C7.059999942779541,29.937999725341797 -10.170000076293945,34.801998138427734 -10.401000022888184,27.94099998474121 C-11.239999771118164,3.0840001106262207 -12.1899995803833,-27.66200065612793 -11.996999740600586,-30.656999588012695z"/></g></g></g></g><g transform="matrix(0.9999948740005493,0,0,0.9999948740005493,95.97454833984375,93.9237289428711)" opacity="1" style="display: block;"><g opacity="1" transform="matrix(1,0,0,1,0,0)"><path stroke-linecap="round" stroke-linejoin="round" fill-opacity="0" class="secondary" stroke="rgb(29,77,141)" stroke-opacity="1" stroke-width="3" d=" M-18.040000915527344,-77.24099731445312 C-17.788000106811523,-80.70700073242188 5.791999816894531,-80.95099639892578 18.836999893188477,-78.96800231933594 C22.30299949645996,-78.44200134277344 17.7810001373291,-22.841999053955078 18.589000701904297,-18.78499984741211 C19.222000122070312,-15.593000411987305 68.02999877929688,-20.06999969482422 70.46700286865234,-16.57699966430664 C71.93499755859375,-14.468000411987305 72.93099975585938,9.630000114440918 72.19100189208984,16.124000549316406 C71.94300079345703,18.30500030517578 21.48699951171875,15.765999794006348 21.270000457763672,20.17799949645996 C20.81599998474121,29.291000366210938 21.44499969482422,79.927001953125 19.80900001525879,79.9990005493164 C10.614999771118164,80.41500091552734 -3.5199999809265137,80.29199981689453 -14.826000213623047,79.11000061035156 C-18.79199981689453,78.69400024414062 -15.847999572753906,19.457000732421875 -17.461000442504883,18.347000122070312 C-19.61199951171875,16.86400032043457 -69.94100189208984,19.652000427246094 -70.90599822998047,17.444000244140625 C-73.57499694824219,11.343000411987305 -72.08000183105469,-9.237000465393066 -71.47000122070312,-17.13800048828125 C-71.23699951171875,-20.14299964904785 -30.082000732421875,-17.583999633789062 -18.860000610351562,-18.31999969482422 C-15.39799976348877,-18.548999786376953 -18.969999313354492,-64.56999969482422 -18.040000915527344,-77.24099731445312z"/></g></g><g transform="matrix(0.9999948740005493,0,0,0.9999948740005493,147.5035858154297,146.06002807617188)" opacity="1" style="display: block;"><g opacity="1" transform="matrix(1,0,0,1,0,0)"><path stroke-linecap="round" stroke-linejoin="round" fill-opacity="0" class="secondary" stroke="rgb(29,77,141)" stroke-opacity="1" stroke-width="1.996" d=" M19.14699935913086,-23.128999710083008 C12.690999984741211,-23.128999710083008 -18.618000030517578,-23.645999908447266 -18.802000045776367,-22.006999969482422 C-19.11199951171875,-19.256000518798828 -19.17300033569336,14.869000434875488 -19.136999130249023,23.20599937438965"/></g></g><g transform="matrix(0.9999948740005493,0,0,0.9999948740005493,66.94023132324219,42.14508819580078)" opacity="1" style="display: block;"><g opacity="1" transform="matrix(1,0,0,1,0,0)"><path stroke-linecap="round" stroke-linejoin="round" fill-opacity="0" class="secondary" stroke="rgb(29,77,141)" stroke-opacity="1" stroke-width="1.996" d=" M0.2720000147819519,24.591999053955078 C0.4180000126361847,9.21399974822998 0.578000009059906,-10.819999694824219 -0.38199999928474426,-24.591999053955078"/></g></g><g transform="matrix(0.9999948740005493,0,0,0.9999948740005493,117.41149139404297,55.88554000854492)" opacity="1" style="display: block;"><g opacity="1" transform="matrix(1,0,0,1,0,0)"><path stroke-linecap="round" stroke-linejoin="round" fill-opacity="0" class="secondary" stroke="rgb(29,77,141)" stroke-opacity="1" stroke-width="2" d=" M10.697999954223633,28.018999099731445 C10.53499984741211,28.01799964904785 10.397000312805176,28.017000198364258 10.288000106811523,28.014999389648438 C7.0960001945495605,27.9689998626709 4.289999961853027,27.900999069213867 2.2079999446868896,27.805999755859375 C-2.177000045776367,27.604000091552734 -5.197000026702881,26.687999725341797 -6.375,25.982999801635742 C-8.82699966430664,24.51099967956543 -9.791000366210938,22.506000518798828 -10.145999908447266,20.70599937438965 C-10.465999603271484,19.107999801635742 -10.21500015258789,10.208000183105469 -9.699999809265137,-0.5490000247955322 C-9.310999870300293,-8.75100040435791 -9.170999526977539,-20.018999099731445 -9.121000289916992,-28.014999389648438"/></g></g><g transform="matrix(0.9999948740005493,0,0,0.9999948740005493,60.613189697265625,112.73385620117188)" opacity="1" style="display: block;"><g opacity="1" transform="matrix(1,0,0,1,0,0)"><path stroke-linecap="round" stroke-linejoin="round" fill-opacity="0" class="secondary" stroke="rgb(29,77,141)" stroke-opacity="1" stroke-width="2" d=" M-24.944000244140625,-7.880000114440918 C-13.86299991607666,-7.803999900817871 3.9519999027252197,-8.475000381469727 12.73799991607666,-8.345000267028809 C15.800000190734863,-8.298999786376953 23.013999938964844,-8.741999626159668 23.59000015258789,-7.322999954223633 C24.624000549316406,-4.752999782562256 24.707000732421875,0.8029999732971191 24.941999435424805,8.307000160217285"/></g></g></g></g></svg>