<svg xmlns="http://www.w3.org/2000/svg" xmlns:xlink="http://www.w3.org/1999/xlink" viewBox="0 0 192 192" width="192" height="192" preserveAspectRatio="xMidYMid meet" style="width: 100%; height: 100%; transform: translate3d(0px, 0px, 0px); content-visibility: visible;"><defs><clipPath id="__lottie_element_5660"><rect width="192" height="192" x="0" y="0"/></clipPath><clipPath id="__lottie_element_5662"><path d="M0,0 L192,0 L192,192 L0,192z"/></clipPath></defs><g clip-path="url(#__lottie_element_5660)"><g clip-path="url(#__lottie_element_5662)" transform="matrix(1,0,0,1,0,0)" opacity="1" style="display: block;"><g transform="matrix(1,0,0,1,73.6969985961914,108.90299987792969)" opacity="1" style="display: block;"><g opacity="1" transform="matrix(1,0,0,1,0,0)"><path class="secondary" fill="rgb(230,142,110)" fill-opacity="1" d=" M-1.0269999504089355,-23.371999740600586 C-0.4880000054836273,-24.80299949645996 1.746999979019165,-24.672000885009766 2.3350000381469727,-23.04800033569336 C4.300000190734863,-17.62299919128418 6.38100004196167,-9.614999771118164 7.458000183105469,-7.656000137329102 C7.797999858856201,-7.0370001792907715 16.56399917602539,-7.579999923706055 21.40999984741211,-7.71999979019165 C23.086999893188477,-7.769000053405762 23.257999420166016,-5.6519999504089355 21.3799991607666,-4.3480000495910645 C17.31800079345703,-1.527999997138977 10.718999862670898,1.9559999704360962 10.302000045776367,2.5820000171661377 C10.123000144958496,2.8489999771118164 20.625,22.33099937438965 18.264999389648438,23.62700080871582 C14.298999786376953,25.804000854492188 1.3200000524520874,9.932000160217285 0.6320000290870667,10.545000076293945 C-14.41100025177002,23.957000732421875 -16.822999954223633,24.889999389648438 -17.569000244140625,24.195999145507812 C-20.410999298095703,21.55500030517578 -9.043000221252441,3.7139999866485596 -9.605999946594238,3.1510000228881836 C-11.406999588012695,1.350000023841858 -18.525999069213867,-3.171999931335449 -22.190000534057617,-5.559999942779541 C-23.538999557495117,-6.439000129699707 -22.22800064086914,-7.651000022888184 -19.645999908447266,-7.685999870300293 C-14.355999946594238,-7.756999969482422 -6.513999938964844,-7.335000038146973 -6.192999839782715,-7.656000137329102 C-5.190999984741211,-8.657999992370605 -3.250999927520752,-17.476999282836914 -1.0269999504089355,-23.371999740600586z"/><path stroke-linecap="round" stroke-linejoin="round" fill-opacity="0" class="secondary" stroke="rgb(230,142,110)" stroke-opacity="1" stroke-width="1.001" d=" M-1.0269999504089355,-23.371999740600586 C-0.4880000054836273,-24.80299949645996 1.746999979019165,-24.672000885009766 2.3350000381469727,-23.04800033569336 C4.300000190734863,-17.62299919128418 6.38100004196167,-9.614999771118164 7.458000183105469,-7.656000137329102 C7.797999858856201,-7.0370001792907715 16.56399917602539,-7.579999923706055 21.40999984741211,-7.71999979019165 C23.086999893188477,-7.769000053405762 23.257999420166016,-5.6519999504089355 21.3799991607666,-4.3480000495910645 C17.31800079345703,-1.527999997138977 10.718999862670898,1.9559999704360962 10.302000045776367,2.5820000171661377 C10.123000144958496,2.8489999771118164 20.625,22.33099937438965 18.264999389648438,23.62700080871582 C14.298999786376953,25.804000854492188 1.3200000524520874,9.932000160217285 0.6320000290870667,10.545000076293945 C-14.41100025177002,23.957000732421875 -16.822999954223633,24.889999389648438 -17.569000244140625,24.195999145507812 C-20.410999298095703,21.55500030517578 -9.043000221252441,3.7139999866485596 -9.605999946594238,3.1510000228881836 C-11.406999588012695,1.350000023841858 -18.525999069213867,-3.171999931335449 -22.190000534057617,-5.559999942779541 C-23.538999557495117,-6.439000129699707 -22.22800064086914,-7.651000022888184 -19.645999908447266,-7.685999870300293 C-14.355999946594238,-7.756999969482422 -6.513999938964844,-7.335000038146973 -6.192999839782715,-7.656000137329102 C-5.190999984741211,-8.657999992370605 -3.250999927520752,-17.476999282836914 -1.0269999504089355,-23.371999740600586z"/></g></g><g transform="matrix(1,0,0,1,94.58000183105469,99.45800018310547)" opacity="1" style="display: block;"><g opacity="1" transform="matrix(1,0,0,1,0,0)"><path stroke-linecap="round" stroke-linejoin="round" fill-opacity="0" class="primary" stroke="rgb(42,48,107)" stroke-opacity="1" stroke-width="3" d=" M-74.91500091552734,-40.64799880981445 C-74.78700256347656,-53.11399841308594 -72.8219985961914,-54.909000396728516 -56.6609992980957,-54.76499938964844 C-30.302000045776367,-54.529998779296875 25.38800048828125,-55.332000732421875 54.45899963378906,-55.00600051879883 C71.87699890136719,-54.81100082397461 73.58399963378906,-52.46699905395508 74.01499938964844,-40.86399841308594 C74.79299926757812,-19.868000030517578 75.31199645996094,20.444000244140625 74.72200012207031,41.17300033569336 C74.38600158691406,52.97800064086914 71.29199981689453,54.15800094604492 54.51100158691406,54.553001403808594 C25.332000732421875,55.237998962402344 -28.56999969482422,55.15999984741211 -56.500999450683594,54.87900161743164 C-69.94599914550781,54.74300003051758 -74.25399780273438,55.27199935913086 -74.45800018310547,41.180999755859375 C-74.76000213623047,20.343000411987305 -75.1240005493164,-20.14699935913086 -74.91500091552734,-40.64799880981445z"/></g></g><g transform="matrix(1,0,0,1,94.35199737548828,68.41600036621094)" opacity="1" style="display: block;"><g opacity="1" transform="matrix(1,0,0,1,0,0)"><path stroke-linecap="round" stroke-linejoin="round" fill-opacity="0" class="primary" stroke="rgb(42,48,107)" stroke-opacity="1" stroke-width="2.003" d=" M73.76200103759766,0.13199999928474426 C60.29499816894531,0.13199999928474426 -65.2490005493164,-0.11299999803304672 -73.76200103759766,-0.13199999928474426"/></g></g><g transform="matrix(1,0,0,1,178.88600158691406,112.56999969482422)" opacity="1" style="display: block;"><g opacity="1" transform="matrix(1,0,0,1,0,0)"><path stroke-linecap="round" stroke-linejoin="round" fill-opacity="0" class="primary" stroke="rgb(42,48,107)" stroke-opacity="1" stroke-width="2" d=" M-0.10899999737739563,29.94499969482422 C-0.10899999737739563,15.045000076293945 0.13300000131130219,-9.956999778747559 0.10700000077486038,-29.94499969482422"/></g></g><g transform="matrix(1,0,0,1,67.94400024414062,31.81299591064453)" opacity="1" style="display: block;"><g opacity="1" transform="matrix(1,0,0,1,0,0)"><path stroke-linecap="round" stroke-linejoin="round" fill-opacity="0" class="primary" stroke="rgb(42,48,107)" stroke-opacity="1" stroke-width="2" d=" M11.918000221252441,-0.00800000037997961 C-10.074000358581543,-0.11699999868869781 -31.184999465942383,-0.22100000083446503 -35.36800003051758,-0.21199999749660492"/></g></g><g transform="matrix(1,0,0,1,67.94400024414062,31.81299591064453)" opacity="1" style="display: block;"><g opacity="1" transform="matrix(1,0,0,1,0,0)"><path stroke-linecap="round" stroke-linejoin="round" fill-opacity="0" class="primary" stroke="rgb(42,48,107)" stroke-opacity="1" stroke-width="2" d=" M49.33599853515625,0.0989999994635582 C41.40700149536133,0.06800000369548798 31.351999282836914,0.03500000014901161 20.70400047302246,0.0010000000474974513"/></g></g><g transform="matrix(1,0,0,1,43.92500305175781,81.7959976196289)" opacity="1" style="display: block;"><g opacity="1" transform="matrix(0,1,-1,0,0,0)"><path stroke-linecap="round" stroke-linejoin="round" fill-opacity="0" class="primary" stroke="rgb(42,48,107)" stroke-opacity="1" stroke-width="2.003" d=" M0.07900000363588333,7.570000171661377 C-0.12399999797344208,3.5450000762939453 0.05299999937415123,-5.195000171661377 -0.07900000363588333,-7.570000171661377"/></g></g><g transform="matrix(1,0,0,1,130.1060028076172,93.75499725341797)" opacity="1" style="display: block;"><g opacity="1" transform="matrix(1,0,0,1,0,0)"><path stroke-linecap="round" stroke-linejoin="round" fill-opacity="0" class="primary" stroke="rgb(42,48,107)" stroke-opacity="1" stroke-width="2.003" d=" M25.19700050354004,-0.17499999701976776 C11.730999946594238,-0.17499999701976776 -16.68400001525879,0.19300000369548798 -25.19700050354004,0.17399999499320984"/></g></g><g transform="matrix(1,0,0,1,130.06500244140625,123.56700134277344)" opacity="1" style="display: block;"><g opacity="1" transform="matrix(1,0,0,1,0,0)"><path stroke-linecap="round" stroke-linejoin="round" fill-opacity="0" class="primary" stroke="rgb(42,48,107)" stroke-opacity="1" stroke-width="2.003" d=" M25.19700050354004,-0.17499999701976776 C11.730999946594238,-0.17499999701976776 -16.68400001525879,0.19300000369548798 -25.19700050354004,0.17399999499320984"/></g></g><g transform="matrix(1,0,0,1,129.82699584960938,108.81399536132812)" opacity="1" style="display: block;"><g opacity="1" transform="matrix(1,0,0,1,0,0)"><path stroke-linecap="round" stroke-linejoin="round" fill-opacity="0" class="primary" stroke="rgb(42,48,107)" stroke-opacity="1" stroke-width="2.003" d=" M25.19700050354004,-0.17499999701976776 C11.730999946594238,-0.17499999701976776 -16.68400001525879,0.19300000369548798 -25.19700050354004,0.17399999499320984"/></g></g><g transform="matrix(1,0,0,1,66.76899719238281,108.71099853515625)" opacity="1" style="display: block;"><g opacity="1" transform="matrix(1,0,0,1,0,0)"><path stroke-linecap="round" stroke-linejoin="round" fill-opacity="0" class="primary" stroke="rgb(42,48,107)" stroke-opacity="1" stroke-width="3.003" d=" M-6.256999969482422,-6.261000156402588 C-5.013000011444092,-7.505000114440918 -2.318000078201294,-20.822999954223633 0.5690000057220459,-25.600000381469727 C2.9010000228881836,-21.566999435424805 5.994999885559082,-8.805999755859375 7.394000053405762,-6.261000156402588 C7.8520002365112305,-5.427000045776367 23.573999404907227,-6.702000141143799 24.457000732421875,-6.261000156402588 C24.56999969482422,-6.203999996185303 10.847999572753906,3.062000036239624 10.23799991607666,3.9769999980926514 C10.059000015258789,4.24399995803833 19.53499984741211,24.64699935913086 18.201000213623047,25.02199935913086 C15.737000465393066,25.71500015258789 1.2569999694824219,11.32699966430664 0.5690000057220459,11.9399995803833 C-14.473999977111816,25.351999282836914 -17.547000885009766,25.683000564575195 -17.631999969482422,25.59000015258789 C-19.270000457763672,23.79800033569336 -9.105999946594238,5.109000205993652 -9.668999671936035,4.546000003814697 C-12.133000373840332,2.0820000171661377 -24.55699920654297,-5.479000091552734 -24.45800018310547,-5.692999839782715 C-23.874000549316406,-6.951000213623047 -6.734000205993652,-5.783999919891357 -6.256999969482422,-6.261000156402588z"/></g></g></g></g></svg>