<svg xmlns="http://www.w3.org/2000/svg" xmlns:xlink="http://www.w3.org/1999/xlink" viewBox="0 0 192 192" width="192" height="192" preserveAspectRatio="xMidYMid meet" style="width: 100%; height: 100%; transform: translate3d(0px, 0px, 0px); content-visibility: visible;"><defs><clipPath id="__lottie_element_4557"><rect width="192" height="192" x="0" y="0"/></clipPath><clipPath id="__lottie_element_4559"><path d="M0,0 L192,0 L192,192 L0,192z"/></clipPath><g id="__lottie_element_4567"><g clip-path="url(#__lottie_element_4568)" transform="matrix(1,0,0,1,0,0)" opacity="1" style="display: block;"><g transform="matrix(0.6098300218582153,0,0,0.6098300218582153,81.48397064208984,76.57070922851562)" opacity="1" style="display: block;"><path fill="rgb(255,0,0)" fill-opacity="1" d=" M81.91,95.5 C81.3,96.97 80.71,98.23 80.11,99.32 C74.86,108.87 69.5,104.91 55.5,111.83 C22.5,128.15 32.49,167.84 32.76,167.97 C33.69,168.45 140.8,168.96 158.89,169.17 C159.98,169.18 168.84,119.55 135.83,110.72 C132.69,109.88 118.46,111.07 113.77,99.15 C113.21,97.7 112.78,96.07 112.53,94.21"/><g opacity="1" transform="matrix(1,0,0,1,95.9530029296875,131.68800354003906)"><g opacity="1" transform="matrix(1,0,0,1,0,0)"/></g></g><g transform="matrix(0.6098300218582153,0,0,0.6098300218582153,139.68600463867188,113.51899719238281)" opacity="1" style="display: block;"><path fill="rgb(255,0,0)" fill-opacity="1" d=" M-27.246999740600586,-24.729000091552734 C-20.131999969482422,-37.06700134277344 -6.276000022888184,-39.132999420166016 1.1139999628067017,-39.26300048828125 C24.729999542236328,-39.678001403808594 28.65399932861328,-23.929000854492188 30.452999114990234,-14.810999870300293 C32.323001861572266,-5.334000110626221 32.270999908447266,14.704999923706055 19.43600082397461,29.548999786376953 C17.861000061035156,31.371000289916992 15.138999938964844,34.10900115966797 13.184000015258789,35.430999755859375 C-0.1340000033378601,44.43000030517578 -14.083000183105469,36.36199951171875 -21.7549991607666,24.141000747680664 C-25.761999130249023,17.759000778198242 -28.354000091552734,9.607000350952148 -30.14699935913086,2.3350000381469727 C-32.2140007019043,-6.048999786376953 -31.783000946044922,-16.86199951171875 -27.246999740600586,-24.729000091552734z"/><g opacity="1" transform="matrix(1,0,0,1,0,0)"/></g></g></g><clipPath id="__lottie_element_4568"><path d="M0,0 L192,0 L192,192 L0,192z"/></clipPath><g id="__lottie_element_4594"><g transform="matrix(0.6098300218582153,0,0,0.6098300218582153,139.68600463867188,113.51899719238281)" opacity="1" style="display: block;"><path fill="rgb(255,0,0)" fill-opacity="1" d=" M-27.246999740600586,-24.729000091552734 C-20.131999969482422,-37.06700134277344 -6.276000022888184,-39.132999420166016 1.1139999628067017,-39.26300048828125 C24.729999542236328,-39.678001403808594 28.65399932861328,-23.929000854492188 30.452999114990234,-14.810999870300293 C32.323001861572266,-5.334000110626221 32.270999908447266,14.704999923706055 19.43600082397461,29.548999786376953 C17.861000061035156,31.371000289916992 15.138999938964844,34.10900115966797 13.184000015258789,35.430999755859375 C-0.1340000033378601,44.43000030517578 -14.083000183105469,36.36199951171875 -21.7549991607666,24.141000747680664 C-25.761999130249023,17.759000778198242 -28.354000091552734,9.607000350952148 -30.14699935913086,2.3350000381469727 C-32.2140007019043,-6.048999786376953 -31.783000946044922,-16.86199951171875 -27.246999740600586,-24.729000091552734z"/><g opacity="1" transform="matrix(1,0,0,1,0,0)"><path stroke-linecap="round" stroke-linejoin="round" fill-opacity="0" class="primary" stroke="rgb(42,48,107)" stroke-opacity="1" stroke-width="4.5" d=" M-27.246999740600586,-24.729000091552734 C-20.131999969482422,-37.06700134277344 -6.276000022888184,-39.132999420166016 1.1139999628067017,-39.26300048828125 C24.729999542236328,-39.678001403808594 28.65399932861328,-23.929000854492188 30.452999114990234,-14.810999870300293 C32.323001861572266,-5.334000110626221 32.270999908447266,14.704999923706055 19.43600082397461,29.548999786376953 C17.861000061035156,31.371000289916992 15.138999938964844,34.10900115966797 13.184000015258789,35.430999755859375 C-0.1340000033378601,44.43000030517578 -14.083000183105469,36.36199951171875 -21.7549991607666,24.141000747680664 C-25.761999130249023,17.759000778198242 -28.354000091552734,9.607000350952148 -30.14699935913086,2.3350000381469727 C-32.2140007019043,-6.048999786376953 -31.783000946044922,-16.86199951171875 -27.246999740600586,-24.729000091552734z"/></g></g></g><filter id="__lottie_element_4600" filterUnits="objectBoundingBox" x="0%" y="0%" width="100%" height="100%"><feComponentTransfer in="SourceGraphic"><feFuncA type="table" tableValues="1.0 0.0"/></feComponentTransfer></filter><mask id="__lottie_element_4594_2" mask-type="alpha" maskUnits="userSpaceOnUse"><g filter="url(#__lottie_element_4600)"><rect width="192" height="192" x="0" y="0" fill="#ffffff" opacity="0"/><use xmlns:ns1="http://www.w3.org/1999/xlink" ns1:href="#__lottie_element_4594"/></g></mask><filter id="__lottie_element_4601" filterUnits="objectBoundingBox" x="0%" y="0%" width="100%" height="100%"><feComponentTransfer in="SourceGraphic"><feFuncA type="table" tableValues="1.0 0.0"/></feComponentTransfer></filter><mask id="__lottie_element_4567_2" mask-type="alpha" maskUnits="userSpaceOnUse"><g filter="url(#__lottie_element_4601)"><rect width="192" height="192" x="0" y="0" fill="#ffffff" opacity="0"/><use xmlns:ns2="http://www.w3.org/1999/xlink" ns2:href="#__lottie_element_4567"/></g></mask></defs><g clip-path="url(#__lottie_element_4557)"><g clip-path="url(#__lottie_element_4559)" transform="matrix(1,0,0,1,0,0)" opacity="1" style="display: block;"><g transform="matrix(1,0,0,1,96.13800048828125,84.6989974975586)" opacity="1" style="display: block;"><g opacity="1" transform="matrix(1,0,0,1,0,0)"><path class="secondary" fill="rgb(230,142,110)" fill-opacity="1" d=" M-13.532999992370605,11.420999526977539 C-13.902999877929688,5.60099983215332 -13.930999755859375,-12.494999885559082 -13.942000389099121,-12.463000297546387 C-10.295000076293945,-12.463000297546387 13.289999961853027,-12.781000137329102 13.654999732971191,-11.944000244140625 C14.157999992370605,-10.788999557495117 13.95199966430664,12.385000228881836 13.41100025177002,12.32800006866455 C7.77400016784668,11.744999885559082 -13.392999649047852,13.619999885559082 -13.532999992370605,11.420999526977539z"/><path stroke-linecap="round" stroke-linejoin="round" fill-opacity="0" class="secondary" stroke="rgb(230,142,110)" stroke-opacity="1" stroke-width="1.001" d=" M-13.532999992370605,11.420999526977539 C-13.902999877929688,5.60099983215332 -13.930999755859375,-12.494999885559082 -13.942000389099121,-12.463000297546387 C-10.295000076293945,-12.463000297546387 13.289999961853027,-12.781000137329102 13.654999732971191,-11.944000244140625 C14.157999992370605,-10.788999557495117 13.95199966430664,12.385000228881836 13.41100025177002,12.32800006866455 C7.77400016784668,11.744999885559082 -13.392999649047852,13.619999885559082 -13.532999992370605,11.420999526977539z"/></g></g><g mask="url(#__lottie_element_4567_2)" style="display: block;"><g transform="matrix(1,0,0,1,0,0)" opacity="1"><g opacity="1" transform="matrix(1,0,0,1,92.33300018310547,86.48200225830078)"><g opacity="1" transform="matrix(1,0,0,1,0,0)"><path stroke-linecap="round" stroke-linejoin="round" fill-opacity="0" class="primary" stroke="rgb(42,48,107)" stroke-opacity="1" stroke-width="3" d=" M-72.85700225830078,46.441001892089844 C-74.42500305175781,41.749000549316406 -75.5989990234375,-37.805999755859375 -75.02799987792969,-46.72700119018555 C-59.762001037597656,-46.66600036621094 74.61000061035156,-48.32400131225586 74.84100341796875,-46.85599899291992 C75.3290023803711,-43.75 75.49600219726562,46.887001037597656 73.7959976196289,46.816001892089844 C66.76200103759766,46.52199935913086 -72.11199951171875,48.66699981689453 -72.85700225830078,46.441001892089844z"/></g></g><g opacity="1" transform="matrix(1,0,0,1,92.3290023803711,28.607999801635742)"><g opacity="1" transform="matrix(1,0,0,1,0,0)"><path stroke-linecap="round" stroke-linejoin="round" fill-opacity="0" class="primary" stroke="rgb(42,48,107)" stroke-opacity="1" stroke-width="3.004" d=" M28.18600082397461,10.142000198364258 C28.165000915527344,8.314000129699707 28.32699966430664,1.8580000400543213 28.26300048828125,-3.253999948501587 C28.2189998626709,-6.909999847412109 24.266000747680664,-10.206999778747559 20.06999969482422,-10.312999725341797 C8.880999565124512,-10.597999572753906 -11.711999893188477,-10.753000259399414 -21.677000045776367,-10.152000427246094 C-25.079999923706055,-9.946000099182129 -28.01300048828125,-5.968999862670898 -28.07200050354004,-3.7190001010894775 C-28.156999588012695,-0.4309999942779541 -28.011999130249023,3.9730000495910645 -28.277999877929688,10.5649995803833"/></g></g><g opacity="1" transform="matrix(1,0,0,1,92.44400024414062,32.56800079345703)"><g opacity="1" transform="matrix(1,0,0,1,0,0)"><path stroke-linecap="round" stroke-linejoin="round" fill-opacity="0" class="primary" stroke="rgb(42,48,107)" stroke-opacity="1" stroke-width="3" d=" M20.016000747680664,4.933000087738037 C20.02400016784668,-1.7330000400543213 19.75,-5.138000011444092 17.402999877929688,-6.316999912261963 C15.406999588012695,-7.321000099182129 -11.569999694824219,-6.589000225067139 -17.236000061035156,-6.418000221252441 C-20.719999313354492,-6.313000202178955 -19.725000381469727,3.312000036239624 -20.017000198364258,6.835000038146973"/></g></g><g opacity="1" transform="matrix(1,0,0,1,92.66000366210938,87.95099639892578)"><g opacity="1" transform="matrix(1,0,0,1,0,0)"><path stroke-linecap="round" stroke-linejoin="round" fill-opacity="0" class="primary" stroke="rgb(42,48,107)" stroke-opacity="1" stroke-width="3.004" d=" M-13.532999992370605,11.420999526977539 C-13.902999877929688,5.60099983215332 -13.930999755859375,-12.494999885559082 -13.942000389099121,-12.463000297546387 C-10.295000076293945,-12.463000297546387 13.289999961853027,-12.781000137329102 13.654999732971191,-11.944000244140625 C14.157999992370605,-10.788999557495117 13.95199966430664,12.385000228881836 13.41100025177002,12.32800006866455 C7.77400016784668,11.744999885559082 -13.392999649047852,13.619999885559082 -13.532999992370605,11.420999526977539z"/></g></g><g opacity="1" transform="matrix(1,0,0,1,92.56700134277344,88.55999755859375)"><g opacity="1" transform="matrix(1,0,0,1,0,0)"><path stroke-linecap="round" stroke-linejoin="round" fill-opacity="0" class="primary" stroke="rgb(42,48,107)" stroke-opacity="1" stroke-width="2.003" d=" M-6.73799991607666,5.34499979019165 C-7.267000198364258,5.179999828338623 -6.940999984741211,-3.2330000400543213 -7.01800012588501,-5.5269999504089355 C-2.677999973297119,-5.5269999504089355 2.618000030517578,-5.656000137329102 6.706999778747559,-5.492000102996826 C7.144999980926514,-5.474999904632568 7.076000213623047,3.806999921798706 6.961999893188477,5.193999767303467 C6.925000190734863,5.644999980926514 -5.611000061035156,5.696000099182129 -6.73799991607666,5.34499979019165z"/></g></g><g opacity="1" transform="matrix(1,0,0,1,85.20899963378906,57.321998596191406)"><g opacity="1" transform="matrix(1,0,0,1,0,0)"><path stroke-linecap="round" stroke-linejoin="round" fill-opacity="0" class="primary" stroke="rgb(42,48,107)" stroke-opacity="1" stroke-width="2.003" d=" M0.3569999933242798,17.25200080871582 C-0.13699999451637268,4.664999961853027 -0.07699999958276749,-9.336000442504883 -0.3569999933242798,-17.25200080871582"/></g></g><g opacity="1" transform="matrix(1,0,0,1,85.48300170898438,117.16100311279297)"><g opacity="1" transform="matrix(0.9999794960021973,-0.006405314430594444,0.006405314430594444,0.9999794960021973,0,0)"><path stroke-linecap="round" stroke-linejoin="round" fill-opacity="0" class="primary" stroke="rgb(42,48,107)" stroke-opacity="1" stroke-width="2" d=" M-0.07900000363588333,15.88700008392334 C-0.14399999380111694,4.160999774932861 0.061000000685453415,-8.347999572753906 0.09200000017881393,-15.88700008392334"/></g></g><g opacity="1" transform="matrix(1,0,0,1,100.40399932861328,57.553001403808594)"><g opacity="1" transform="matrix(1,0,0,1,0,0)"><path stroke-linecap="round" stroke-linejoin="round" fill-opacity="0" class="primary" stroke="rgb(42,48,107)" stroke-opacity="1" stroke-width="2.003" d=" M0.2759999930858612,17.677000045776367 C0.2759999930858612,9.170000076293945 -0.3880000114440918,-9.13599967956543 -0.25999999046325684,-17.677000045776367"/></g></g><g opacity="1" transform="matrix(1,0,0,1,100.677001953125,117.322998046875)"><g opacity="1" transform="matrix(1,0,0,1,0,0)"><path stroke-linecap="round" stroke-linejoin="round" fill-opacity="0" class="primary" stroke="rgb(42,48,107)" stroke-opacity="1" stroke-width="2.003" d=" M0.09700000286102295,16.273000717163086 C0.09700000286102295,7.765999794006348 -0.08799999952316284,-7.585000038146973 -0.09700000286102295,-16.273000717163086"/></g></g><g opacity="1" transform="matrix(1,0,0,1,48.61199951171875,62.007999420166016)"><g opacity="1" transform="matrix(1,0,0,1,0,0)"><path stroke-linecap="round" stroke-linejoin="round" fill-opacity="0" class="primary" stroke="rgb(42,48,107)" stroke-opacity="1" stroke-width="3.004" d=" M30.006999969482422,21.527000427246094 C21.17099952697754,21.466999053955078 11.529000282287598,21.43000030517578 -0.15700000524520874,21.545000076293945 C-13.086000442504883,21.67300033569336 -29.759000778198242,-22.038000106811523 -30.006999969482422,-21.541000366210938"/></g></g><g opacity="1" transform="matrix(1,0,0,1,136.91099548339844,61.71099853515625)"><g opacity="1" transform="matrix(1,0,0,1,0,0)"><path stroke-linecap="round" stroke-linejoin="round" fill-opacity="0" class="primary" stroke="rgb(42,48,107)" stroke-opacity="1" stroke-width="3.004" d=" M30.027000427246094,-21.74799919128418 C17.972999572753906,1.3480000495910645 9.324000358581543,20.843000411987305 0.6850000023841858,21.19700050354004 C-11.255000114440918,21.687999725341797 -20.87700080871582,21.69499969482422 -30.027000427246094,21.74799919128418"/></g></g></g></g><g transform="matrix(1,0,0,1,52.86199951171875,145.30099487304688)" opacity="1" style="display: block;"><g opacity="1" transform="matrix(1,0,0,1,0,0)"><path stroke-linecap="round" stroke-linejoin="round" fill-opacity="0" class="primary" stroke="rgb(42,48,107)" stroke-opacity="1" stroke-width="2.003" d=" M34.479000091552734,0.09099999815225601 C24.724000930786133,-0.20600000023841858 0.8199999928474426,-0.06300000101327896 -17.929000854492188,-0.009999999776482582"/></g></g><g transform="matrix(1,0,0,1,112.9540023803711,17.7450008392334)" opacity="1" style="display: block;"><g opacity="1" transform="matrix(1,0,0,1,0,0)"><path stroke-linecap="round" stroke-linejoin="round" fill-opacity="0" class="primary" stroke-dasharray=" 47 8" stroke-dashoffset="-55" stroke="rgb(42,48,107)" stroke-opacity="1" stroke-width="2.003" d=" M15.845000267028809,8.451000213623047 C15.538000106811523,-5.0929999351501465 16.309999465942383,-8.345000267028809 11.217000007629395,-8.430999755859375 C10.12600040435791,-8.449000358581543 -10.246000289916992,-8.434000015258789 -15.845000267028809,-8.451000213623047 C-15.845000267028809,-8.451000213623047 -37.301998138427734,-8.482000350952148 -49.0099983215332,-8.491999626159668"/></g></g><g transform="matrix(1,0,0,1,126.40799713134766,73.27799987792969)" opacity="1" style="display: block;"><g opacity="1" transform="matrix(1,0,0,1,0,0)"><path stroke-linecap="round" stroke-linejoin="round" fill-opacity="0" class="primary" stroke="rgb(42,48,107)" stroke-opacity="1" stroke-width="2.003" d=" M9.012999534606934,0.08399999886751175 C5.27400016784668,0.06499999761581421 -0.10700000077486038,-0.04100000113248825 -4.686999797821045,-0.07400000095367432"/></g></g><g transform="matrix(1,0,0,1,26.98900032043457,90.56800079345703)" opacity="1" style="display: block;"><g opacity="1" transform="matrix(1,0,0,1,0,0)"><path stroke-linecap="round" stroke-linejoin="round" fill-opacity="0" class="primary" stroke-dasharray=" 44 6" stroke-dashoffset="31" stroke="rgb(42,48,107)" stroke-opacity="1" stroke-width="2.003" d=" M0.16599999368190765,34.04600143432617 C0.16599999368190765,24.891000747680664 0.04100000113248825,8.767000198364258 -0.0820000022649765,-3.6440000534057617"/></g></g><g transform="matrix(1,0,0,1,139.3769989013672,162.48599243164062)" opacity="1" style="display: block;"><g opacity="1" transform="matrix(1,0,0,1,0,0)"><path class="secondary" fill="rgb(230,142,110)" fill-opacity="1" d=" M13.024999618530273,-12.97599983215332 C22.315000534057617,-17.33799934387207 28.582000732421875,-11.057000160217285 29.41200065612793,-10.04699993133545 C37.132999420166016,-0.6549999713897705 36.98500061035156,14.609000205993652 35.696998596191406,15.092000007629395 C33.28499984741211,15.996000289916992 -14.975000381469727,13.65999984741211 -32.630001068115234,14.116000175476074 C-40.29100036621094,14.314000129699707 -35.21200180053711,-8.37399959564209 -26.065000534057617,-13.019000053405762 C-21.39699935913086,-15.390000343322754 -13.9350004196167,-16.26799964904785 -10.071999549865723,-13.925000190734863 C-7.206999778747559,-12.187999725341797 -3.9800000190734863,-9.755000114440918 2.934999942779541,-9.76099967956543 C4.111000061035156,-9.76200008392334 9.031000137329102,-11.10099983215332 13.024999618530273,-12.97599983215332z"/><path stroke-linecap="butt" stroke-linejoin="miter" fill-opacity="0" stroke-miterlimit="4" class="secondary" stroke="rgb(230,142,110)" stroke-opacity="1" stroke-width="1" d=" M13.024999618530273,-12.97599983215332 C22.315000534057617,-17.33799934387207 28.582000732421875,-11.057000160217285 29.41200065612793,-10.04699993133545 C37.132999420166016,-0.6549999713897705 36.98500061035156,14.609000205993652 35.696998596191406,15.092000007629395 C33.28499984741211,15.996000289916992 -14.975000381469727,13.65999984741211 -32.630001068115234,14.116000175476074 C-40.29100036621094,14.314000129699707 -35.21200180053711,-8.37399959564209 -26.065000534057617,-13.019000053405762 C-21.39699935913086,-15.390000343322754 -13.9350004196167,-16.26799964904785 -10.071999549865723,-13.925000190734863 C-7.206999778747559,-12.187999725341797 -3.9800000190734863,-9.755000114440918 2.934999942779541,-9.76099967956543 C4.111000061035156,-9.76200008392334 9.031000137329102,-11.10099983215332 13.024999618530273,-12.97599983215332z"/></g></g><g transform="matrix(0.7439900040626526,0,0,0.7439900040626526,115.25900268554688,160.4929962158203)" opacity="1" style="display: block;"><g opacity="1" transform="matrix(1,0,0,1,0,0)"><path stroke-linecap="round" stroke-linejoin="round" fill-opacity="0" class="primary" stroke-dasharray=" 45 0" stroke-dashoffset="30" stroke="rgb(42,48,107)" stroke-opacity="1" stroke-width="2.5" d=" M0.8220000267028809,-13.656000137329102 C-5.671999931335449,-8.803000450134277 -12.17199993133545,1.5390000343322754 -11.47599983215332,14.345000267028809 C-11.461999893188477,14.600000381469727 -11.447999954223633,14.854000091552734 -11.434000015258789,15.104999542236328"/></g></g><g mask="url(#__lottie_element_4594_2)" style="display: block;"><g transform="matrix(0.6098300218582153,0,0,0.6098300218582153,81.48397064208984,76.57070922851562)" opacity="1"><g opacity="1" transform="matrix(1,0,0,1,95.9530029296875,131.68800354003906)"><g opacity="1" transform="matrix(1,0,0,1,0,0)"><path stroke-linecap="round" stroke-linejoin="round" fill-opacity="0" class="primary" stroke="rgb(42,48,107)" stroke-opacity="1" stroke-width="4.5" d=" M-14.045999526977539,-36.1879997253418 C-14.652999877929688,-34.71699905395508 -15.248000144958496,-33.45600128173828 -15.845000267028809,-32.369998931884766 C-21.09600067138672,-22.81800079345703 -26.45599937438965,-26.775999069213867 -40.45399856567383,-19.854000091552734 C-73.45800018310547,-3.5350000858306885 -63.459999084472656,36.152000427246094 -63.196998596191406,36.2859992980957 C-62.26499938964844,36.757999420166016 44.85100173950195,37.2760009765625 62.939998626708984,37.47700119018555 C64.02300262451172,37.48899841308594 72.88200378417969,-12.142000198364258 39.87200164794922,-20.965999603271484 C36.73400115966797,-21.804000854492188 22.503000259399414,-20.621000289916992 17.820999145507812,-32.54199981689453 C17.253999710083008,-33.986000061035156 16.826000213623047,-35.62200164794922 16.576000213623047,-37.47700119018555"/></g></g><g opacity="1" transform="matrix(1,0,0,1,96.95700073242188,114.86299896240234)"><g opacity="1" transform="matrix(1,0,0,1,0,0)"><path stroke-linecap="round" stroke-linejoin="round" fill-opacity="0" class="primary" stroke="rgb(42,48,107)" stroke-opacity="1" stroke-width="3.5" d=" M18.93199920654297,-1.8450000286102295 C14.3149995803833,1.1619999408721924 7.03000020980835,3.7279999256134033 -0.6110000014305115,3.5239999294281006 C-6.71999979019165,3.3610000610351562 -13.163000106811523,0.35100001096725464 -18.93199920654297,-3.5350000858306885"/></g></g></g></g><g transform="matrix(0.6098300218582153,0,0,0.6098300218582153,139.68600463867188,113.51899719238281)" opacity="1" style="display: block;"><g opacity="1" transform="matrix(1,0,0,1,0,0)"><path stroke-linecap="round" stroke-linejoin="round" fill-opacity="0" class="primary" stroke="rgb(42,48,107)" stroke-opacity="1" stroke-width="4.5" d=" M-27.246999740600586,-24.729000091552734 C-20.131999969482422,-37.06700134277344 -6.276000022888184,-39.132999420166016 1.1139999628067017,-39.26300048828125 C24.729999542236328,-39.678001403808594 28.65399932861328,-23.929000854492188 30.452999114990234,-14.810999870300293 C32.323001861572266,-5.334000110626221 32.270999908447266,14.704999923706055 19.43600082397461,29.548999786376953 C17.861000061035156,31.371000289916992 15.138999938964844,34.10900115966797 13.184000015258789,35.430999755859375 C-0.1340000033378601,44.43000030517578 -14.083000183105469,36.36199951171875 -21.7549991607666,24.141000747680664 C-25.761999130249023,17.759000778198242 -28.354000091552734,9.607000350952148 -30.14699935913086,2.3350000381469727 C-32.2140007019043,-6.048999786376953 -31.783000946044922,-16.86199951171875 -27.246999740600586,-24.729000091552734z"/></g></g></g></g></svg>