<svg xmlns="http://www.w3.org/2000/svg" xmlns:xlink="http://www.w3.org/1999/xlink" viewBox="0 0 192 192" width="192" height="192" preserveAspectRatio="xMidYMid meet" style="width: 100%; height: 100%; transform: translate3d(0px, 0px, 0px); content-visibility: visible;"><defs><clipPath id="__lottie_element_10613"><rect width="192" height="192" x="0" y="0"/></clipPath><clipPath id="__lottie_element_10615"><path d="M0,0 L192,0 L192,192 L0,192z"/></clipPath><g id="__lottie_element_10630"><g clip-path="url(#__lottie_element_10631)" transform="matrix(1,0,0,1,0,0)" opacity="1" style="display: block;"><g transform="matrix(1,0,0,1,67.6989974975586,25.761999130249023)" opacity="1" style="display: block;"><path class="primary" fill="rgb(42,48,107)" fill-opacity="1" d=" M-6.409999847412109,6.085000038146973 C-6.585000038146973,2.9839999675750732 -6.598999977111816,-6.6570000648498535 -6.604000091552734,-6.639999866485596 C-4.876999855041504,-6.639999866485596 6.295000076293945,-6.809999942779541 6.4679999351501465,-6.363999843597412 C6.705999851226807,-5.749000072479248 6.607999801635742,6.5980000495910645 6.3520002365112305,6.567999839782715 C3.681999921798706,6.257999897003174 -6.343999862670898,7.25600004196167 -6.409999847412109,6.085000038146973z"/><g opacity="1" transform="matrix(1,0,0,1,0,0)"/></g><g transform="matrix(1,0,0,1,123.90299987792969,25.496000289916992)" opacity="1" style="display: block;"><path class="primary" fill="rgb(42,48,107)" fill-opacity="1" d=" M-6.409999847412109,6.085000038146973 C-6.585000038146973,2.9839999675750732 -6.598999977111816,-6.6570000648498535 -6.604000091552734,-6.639999866485596 C-4.876999855041504,-6.639999866485596 6.295000076293945,-6.809999942779541 6.4679999351501465,-6.363999843597412 C6.705999851226807,-5.749000072479248 6.607999801635742,6.5980000495910645 6.3520002365112305,6.567999839782715 C3.681999921798706,6.257999897003174 -6.343999862670898,7.25600004196167 -6.409999847412109,6.085000038146973z"/><g opacity="1" transform="matrix(1,0,0,1,0,0)"/></g></g></g><clipPath id="__lottie_element_10631"><path d="M0,0 L192,0 L192,192 L0,192z"/></clipPath><filter id="__lottie_element_10688" filterUnits="objectBoundingBox" x="0%" y="0%" width="100%" height="100%"><feComponentTransfer in="SourceGraphic"><feFuncA type="table" tableValues="1.0 0.0"/></feComponentTransfer></filter><mask id="__lottie_element_10630_2" mask-type="alpha" maskUnits="userSpaceOnUse"><g filter="url(#__lottie_element_10688)"><rect width="192" height="192" x="0" y="0" fill="#ffffff" opacity="0"/><use xmlns:ns1="http://www.w3.org/1999/xlink" ns1:href="#__lottie_element_10630"/></g></mask></defs><g clip-path="url(#__lottie_element_10613)"><g clip-path="url(#__lottie_element_10615)" transform="matrix(1,0,0,1,0,0)" opacity="1" style="display: block;"><g transform="matrix(0.9999948143959045,0,0,0.9999948143959045,115.68974304199219,61.59821319580078)" opacity="1" style="display: block;"><g opacity="1" transform="matrix(1,0,0,1,0,0)"><path class="secondary" fill="rgb(230,142,110)" fill-opacity="1" d=" M-0.21199999749660492,7.390999794006348 C-10.342000007629395,7.2829999923706055 -10.03600025177002,-7.379000186920166 -0.2160000056028366,-7.390999794006348 C10.125,-7.4029998779296875 10.536999702453613,7.505000114440918 -0.21199999749660492,7.390999794006348z"/><path stroke-linecap="round" stroke-linejoin="round" fill-opacity="0" class="secondary" stroke="rgb(230,142,110)" stroke-opacity="1" stroke-width="0.999" d=" M-0.21199999749660492,7.390999794006348 C-10.342000007629395,7.2829999923706055 -10.03600025177002,-7.379000186920166 -0.2160000056028366,-7.390999794006348 C10.125,-7.4029998779296875 10.536999702453613,7.505000114440918 -0.21199999749660492,7.390999794006348z"/></g></g><g transform="matrix(0.9999948143959045,0,0,0.9999948143959045,106.33805084228516,99.72660064697266)" opacity="1" style="display: block;"><g opacity="1" transform="matrix(1,0,0,1,0,0)"><path class="secondary" fill="rgb(230,142,110)" fill-opacity="1" d=" M17.084999084472656,17.131000518798828 C19.049999237060547,17.170000076293945 20.417999267578125,14.649999618530273 20.472000122070312,13.428000450134277 C21.829999923706055,-17.316999435424805 6.53000020980835,-17.1299991607666 1.5839999914169312,-17.131999969482422 C-8.050000190734863,-17.13599967956543 -18.07200050354004,-2.055000066757202 -20.540000915527344,13.996999740600586 C-20.670000076293945,14.842000007629395 -20.045000076293945,16.600000381469727 -18.62700080871582,16.631999969482422 C-11.744000434875488,16.788000106811523 9.11299991607666,16.972999572753906 17.084999084472656,17.131000518798828z"/><path stroke-linecap="round" stroke-linejoin="round" fill-opacity="0" class="secondary" stroke="rgb(230,142,110)" stroke-opacity="1" stroke-width="1.002" d=" M17.084999084472656,17.131000518798828 C19.049999237060547,17.170000076293945 20.417999267578125,14.649999618530273 20.472000122070312,13.428000450134277 C21.829999923706055,-17.316999435424805 6.53000020980835,-17.1299991607666 1.5839999914169312,-17.131999969482422 C-8.050000190734863,-17.13599967956543 -18.07200050354004,-2.055000066757202 -20.540000915527344,13.996999740600586 C-20.670000076293945,14.842000007629395 -20.045000076293945,16.600000381469727 -18.62700080871582,16.631999969482422 C-11.744000434875488,16.788000106811523 9.11299991607666,16.972999572753906 17.084999084472656,17.131000518798828z"/></g></g><g mask="url(#__lottie_element_10630_2)" style="display: block;"><g transform="matrix(0.9999948143959045,0,0,0.9999948143959045,95.35791778564453,98.23524475097656)" opacity="1"><g opacity="1" transform="matrix(1,0,0,1,0,0)"><path stroke-linecap="round" stroke-linejoin="round" fill-opacity="0" class="primary" stroke="rgb(42,48,107)" stroke-opacity="1" stroke-width="3" d=" M-52.88399887084961,-71.64800262451172 C-52.88800048828125,-71.51399993896484 -52.808998107910156,-67.53900146484375 -52.67399978637695,-60.987998962402344 C-52.2400016784668,-39.9900016784668 -51.224998474121094,7.4710001945495605 -50.487998962402344,39.744998931884766 C-50.05799865722656,58.566001892089844 -49.722999572753906,72.2229995727539 -49.652000427246094,72.4530029296875 C-49.50899887084961,72.91799926757812 52.792999267578125,72.58100128173828 52.86000061035156,71.60600280761719 C52.880001068115234,71.30999755859375 52.88800048828125,58.79800033569336 52.882999420166016,41.26499938964844 C52.875,11.427000045776367 52.83100128173828,-32.95199966430664 52.750999450683594,-56.41600036621094 C52.72100067138672,-65.2249984741211 52.68600082397461,-71.08699798583984 52.645999908447266,-72.1240005493164 C52.597999572753906,-73.36199951171875 -52.869998931884766,-72.12899780273438 -52.88399887084961,-71.64800262451172z"/></g></g></g><g transform="matrix(1,0,0,1,67.51100158691406,12.645000457763672)" opacity="1" style="display: block;"><g opacity="1" transform="matrix(1,0,0,1,0,0)"><path stroke-linecap="round" stroke-linejoin="round" fill-opacity="0" class="primary" stroke="rgb(42,48,107)" stroke-opacity="1" stroke-width="3" d=" M-0.054999999701976776,-5.631999969482422 C-0.052000001072883606,-1.4800000190734863 0.03200000151991844,3.796999931335449 0.054999999701976776,5.631999969482422"/></g></g><g transform="matrix(1,0,0,1,67.6989974975586,25.761999130249023)" opacity="1" style="display: block;"><g opacity="1" transform="matrix(1,0,0,1,0,0)"><path stroke-linecap="round" stroke-linejoin="round" fill-opacity="0" class="primary" stroke="rgb(42,48,107)" stroke-opacity="1" stroke-width="3" d=" M-6.409999847412109,6.085000038146973 C-6.585000038146973,2.9839999675750732 -6.598999977111816,-6.6570000648498535 -6.604000091552734,-6.639999866485596 C-4.876999855041504,-6.639999866485596 6.295000076293945,-6.809999942779541 6.4679999351501465,-6.363999843597412 C6.705999851226807,-5.749000072479248 6.607999801635742,6.5980000495910645 6.3520002365112305,6.567999839782715 C3.681999921798706,6.257999897003174 -6.343999862670898,7.25600004196167 -6.409999847412109,6.085000038146973z"/></g></g><g transform="matrix(1,0,0,1,123.5270004272461,12.569000244140625)" opacity="1" style="display: block;"><g opacity="1" transform="matrix(1,0,0,1,0,0)"><path stroke-linecap="round" stroke-linejoin="round" fill-opacity="0" class="primary" stroke="rgb(42,48,107)" stroke-opacity="1" stroke-width="3" d=" M-0.009999999776482582,-5.622000217437744 C0.05900000035762787,-3.9709999561309814 -0.05999999865889549,4.052000045776367 0.012000000104308128,5.622000217437744"/></g></g><g transform="matrix(1,0,0,1,123.90299987792969,25.496000289916992)" opacity="1" style="display: block;"><g opacity="1" transform="matrix(1,0,0,1,0,0)"><path stroke-linecap="round" stroke-linejoin="round" fill-opacity="0" class="primary" stroke="rgb(42,48,107)" stroke-opacity="1" stroke-width="3" d=" M-6.409999847412109,6.085000038146973 C-6.585000038146973,2.9839999675750732 -6.598999977111816,-6.6570000648498535 -6.604000091552734,-6.639999866485596 C-4.876999855041504,-6.639999866485596 6.295000076293945,-6.809999942779541 6.4679999351501465,-6.363999843597412 C6.705999851226807,-5.749000072479248 6.607999801635742,6.5980000495910645 6.3520002365112305,6.567999839782715 C3.681999921798706,6.257999897003174 -6.343999862670898,7.25600004196167 -6.409999847412109,6.085000038146973z"/></g></g><g transform="matrix(0.9999948143959045,0,0,0.9999948143959045,95.22991943359375,136.77005004882812)" opacity="1" style="display: block;"><g opacity="1" transform="matrix(1,0,0,1,0,0)"><path stroke-linecap="round" stroke-linejoin="round" fill-opacity="0" class="primary" stroke="rgb(42,48,107)" stroke-opacity="1" stroke-width="2" d=" M27.42099952697754,-5.928999900817871 C18.551000595092773,-5.973999977111816 -18.365999221801758,-5.86899995803833 -27.42099952697754,-5.934999942779541"/></g></g><g transform="matrix(0.9999948143959045,0,0,0.9999948143959045,95.22991943359375,136.77005004882812)" opacity="1" style="display: block;"><g opacity="1" transform="matrix(1,0,0,1,0,0)"><path stroke-linecap="round" stroke-linejoin="round" fill-opacity="0" class="primary" stroke="rgb(42,48,107)" stroke-opacity="1" stroke-width="2" d=" M27.1200008392334,5.9079999923706055 C12.057000160217285,6.035999774932861 -10.302000045776367,5.73799991607666 -27.118999481201172,5.749000072479248"/></g></g><g transform="matrix(0.9999948143959045,0,0,0.9999948143959045,95.94291687011719,119.99012756347656)" opacity="1" style="display: block;"><g opacity="1" transform="matrix(1,0,0,1,0,0)"><path stroke-linecap="round" stroke-linejoin="round" fill-opacity="0" class="primary" stroke="rgb(42,48,107)" stroke-opacity="1" stroke-width="2" d=" M36.04399871826172,0.019999999552965164 C22.83099937438965,-0.026000000536441803 -28.974000930786133,-0.007000000216066837 -36.04399871826172,-0.019999999552965164"/></g></g><g transform="matrix(0.9999948143959045,0,0,0.9999948143959045,80.13299560546875,84.19432067871094)" opacity="1" style="display: block;"><g opacity="1" transform="matrix(1,0,0,1,0,0)"><path stroke-linecap="round" stroke-linejoin="round" fill-opacity="0" class="primary" stroke="rgb(42,48,107)" stroke-opacity="1" stroke-width="2" d=" M18.43899917602539,-6.076000213623047 C7.47599983215332,10.04699993133545 0.5429999828338623,-2.688999891281128 -5.802999973297119,4.34499979019165 C-9.600000381469727,8.553000450134277 -17.999000549316406,4.478000164031982 -18.43899917602539,-1.3639999628067017"/></g></g><g transform="matrix(0.9999948143959045,0,0,0.9999948143959045,81.99698638916016,91.77327728271484)" opacity="1" style="display: block;"><g opacity="1" transform="matrix(1,0,0,1,0,0)"><path stroke-linecap="round" stroke-linejoin="round" fill-opacity="0" class="primary" stroke="rgb(42,48,107)" stroke-opacity="1" stroke-width="2" d=" M22.899999618530273,-2.555999994277954 C19.81399917602539,-9.951000213623047 9.467000007629395,-28.76300048828125 -2.502000093460083,-28.152000427246094 C-14.892999649047852,-27.518999099731445 -25.312000274658203,-13.065999984741211 -22.40999984741211,28.16699981689453"/></g></g><g transform="matrix(0.9999948143959045,0,0,0.9999948143959045,111.55982971191406,102.74822998046875)" opacity="1" style="display: block;"><g opacity="1" transform="matrix(1,0,0,1,0,0)"><path stroke-linecap="round" stroke-linejoin="round" fill-opacity="0" class="primary" stroke="rgb(42,48,107)" stroke-opacity="1" stroke-width="1.999" d=" M20.413000106811523,17.187000274658203 C23.246000289916992,-17.38800048828125 6.910999774932861,-17.184999465942383 1.7680000066757202,-17.187000274658203 C-8.494999885559082,-17.19099998474121 -19.200000762939453,-0.07599999755620956 -20.740999221801758,17.097000122070312"/></g></g><g transform="matrix(0.9999948143959045,0,0,0.9999948143959045,114.82781982421875,96.63125610351562)" opacity="1" style="display: block;"><g opacity="1" transform="matrix(1,0,0,1,0,0)"><path stroke-linecap="round" stroke-linejoin="round" fill-opacity="0" class="primary" stroke="rgb(42,48,107)" stroke-opacity="1" stroke-width="1.999" d=" M14.569999694824219,-0.6959999799728394 C12.82699966430664,5.3429999351501465 5.264999866485596,-3.371000051498413 2.677000045776367,-1.4140000343322754 C-1.190999984741211,1.5119999647140503 -7.730000019073486,5.89300012588501 -14.569999694824219,-2.3919999599456787"/></g></g><g transform="matrix(0.9999948143959045,0,0,0.9999948143959045,113.35882568359375,64.19142150878906)" opacity="1" style="display: block;"><g opacity="1" transform="matrix(1,0,0,1,0,0)"><path stroke-linecap="round" stroke-linejoin="round" fill-opacity="0" class="primary" stroke="rgb(42,48,107)" stroke-opacity="1" stroke-width="1.997" d=" M-0.21199999749660492,7.390999794006348 C-10.342000007629395,7.2829999923706055 -10.03600025177002,-7.379000186920166 -0.2160000056028366,-7.390999794006348 C10.125,-7.4029998779296875 10.536999702453613,7.505000114440918 -0.21199999749660492,7.390999794006348z"/></g></g><g transform="matrix(0.9999948143959045,0,0,0.9999948143959045,72.44203186035156,180.5438232421875)" opacity="1" style="display: block;"><g opacity="1" transform="matrix(1,0,0,1,0,0)"><path stroke-linecap="round" stroke-linejoin="round" fill-opacity="0" class="primary" stroke="rgb(42,48,107)" stroke-opacity="1" stroke-width="2" d=" M28.742000579833984,-0.07500000298023224 C19.985000610351562,-0.07500000298023224 -9.883000373840332,0.052000001072883606 -28.246999740600586,-0.008999999612569809"/></g></g><g transform="matrix(0.9999948143959045,0,0,0.9999948143959045,38.47421646118164,126.70110321044922)" opacity="1" style="display: block;"><g opacity="1" transform="matrix(1,0,0,1,0,0)"><path stroke-linecap="round" stroke-linejoin="round" fill-opacity="0" class="primary" stroke="rgb(42,48,107)" stroke-opacity="1" stroke-width="2" d=" M-5.046999931335449,21.27199935913086 C-5.75600004196167,3.6419999599456787 -6.757999897003174,-21.356000900268555 -7.460999965667725,-39.85200119018555"/></g></g><g transform="matrix(0.9999948143959045,0,0,0.9999948143959045,38.47421646118164,126.70110321044922)" opacity="1" style="display: block;"><g opacity="1" transform="matrix(1,0,0,1,0,0)"><path stroke-linecap="round" stroke-linejoin="round" fill-opacity="0" class="primary" stroke="rgb(42,48,107)" stroke-opacity="1" stroke-width="2" d=" M-3.9609999656677246,42.51900100708008 C-3.9609999656677246,42.51900100708008 -4.223999977111816,36.33300018310547 -4.623000144958496,26.985000610351562"/></g></g><g transform="matrix(-0.9999948143959045,0,0,-0.9999948143959045,160.7915802001953,57.87245559692383)" opacity="1" style="display: block;"><g opacity="1" transform="matrix(0.04705414921045303,0.9988923668861389,-0.9988923668861389,0.04705414921045303,0,0)"><path stroke-linecap="round" stroke-linejoin="round" fill-opacity="0" class="primary" stroke="rgb(42,48,107)" stroke-opacity="1" stroke-width="2.003" d=" M31.22599983215332,0.8180000185966492 C29.452999114990234,0.8529999852180481 -22.420000076293945,-1.8300000429153442 -56.96099853515625,-3.3580000400543213"/></g></g><g transform="matrix(0.9999948143959045,0,0,0.9999948143959045,68.51205444335938,68.36540222167969)" opacity="1" style="display: block;"><g opacity="1" transform="matrix(1,0,0,1,0,0)"><path stroke-linecap="round" stroke-linejoin="round" fill-opacity="0" class="primary" stroke="rgb(42,48,107)" stroke-opacity="1" stroke-width="2" d=" M12.743000030517578,-11.220999717712402 C-2.2799999713897705,-12.137999534606934 -10.149999618530273,2.0360000133514404 -12.331000328063965,9.597999572753906 C-12.37399959564209,9.746999740600586 -12.522000312805176,10.248000144958496 -12.727999687194824,11.060999870300293"/></g></g><g transform="matrix(0.9999948143959045,0,0,0.9999948143959045,130.74073791503906,93.1502685546875)" opacity="1" style="display: block;"><g opacity="1" transform="matrix(1,0,0,1,0,0)"><path stroke-linecap="round" stroke-linejoin="round" fill-opacity="0" class="primary" stroke="rgb(42,48,107)" stroke-opacity="1" stroke-width="2" d=" M6.433000087738037,11.74899959564209 C6.732999801635742,1.3009999990463257 3.309999942779541,-7.218999862670898 -4.89300012588501,-11.092000007629395 C-5.0329999923706055,-11.157999992370605 -5.4730000495910645,-11.338000297546387 -6.236000061035156,-11.555000305175781"/></g></g></g></g></svg>