<svg xmlns="http://www.w3.org/2000/svg" xmlns:xlink="http://www.w3.org/1999/xlink" viewBox="0 0 192 192" width="192" height="192" preserveAspectRatio="xMidYMid meet" style="width: 100%; height: 100%; transform: translate3d(0px, 0px, 0px); content-visibility: visible;"><defs><clipPath id="__lottie_element_11396"><rect width="192" height="192" x="0" y="0"/></clipPath><clipPath id="__lottie_element_11398"><path d="M0,0 L192,0 L192,192 L0,192z"/></clipPath><g id="__lottie_element_11408"><g transform="matrix(0.9486498832702637,-0.3163279592990875,0.3163279592990875,0.9486498832702637,148.08099365234375,140.52000427246094)" opacity="1" style="display: block;"><g opacity="1" transform="matrix(1,0,0,1,0,0)"><path fill="rgb(255,255,255)" fill-opacity="1" d=" M13.906999588012695,0 C13.906999588012695,-7.353000164031982 7.676000118255615,-13.322999954223633 0,-13.322999954223633 C-7.676000118255615,-13.322999954223633 -13.906999588012695,-7.353000164031982 -13.906999588012695,0 C-13.906999588012695,7.353000164031982 -7.676000118255615,13.321999549865723 0,13.321999549865723 C7.676000118255615,13.321999549865723 13.906999588012695,7.353000164031982 13.906999588012695,0z M-4.913000106811523,-32.16400146484375 C-1.6549999713897705,-32.62099838256836 1.6549999713897705,-32.62099838256836 4.913000106811523,-32.16400146484375 C4.913000106811523,-32.16400146484375 6.513000011444092,-26.917999267578125 6.513000011444092,-26.917999267578125 C9.609999656677246,-26.229999542236328 12.565999984741211,-25.05699920654297 15.263999938964844,-23.44499969482422 C15.263999938964844,-23.44499969482422 20.26799964904785,-26.070999145507812 20.26799964904785,-26.070999145507812 C22.908000946044922,-24.187999725341797 25.25,-21.94499969482422 27.216999053955078,-19.415000915527344 C27.216999053955078,-19.415000915527344 24.475000381469727,-14.621999740600586 24.475000381469727,-14.621999740600586 C26.158000946044922,-12.038999557495117 27.381999969482422,-9.206000328063965 28.099000930786133,-6.238999843597412 C28.099000930786133,-6.238999843597412 33.57699966430664,-4.705999851226807 33.57699966430664,-4.705999851226807 C34.053001403808594,-1.5850000381469727 34.053001403808594,1.5850000381469727 33.57699966430664,4.705999851226807 C33.57699966430664,4.705999851226807 28.099000930786133,6.238999843597412 28.099000930786133,6.238999843597412 C27.381999969482422,9.204999923706055 26.158000946044922,12.038999557495117 24.475000381469727,14.621999740600586 C24.475000381469727,14.621999740600586 27.216999053955078,19.415000915527344 27.216999053955078,19.415000915527344 C25.25,21.94499969482422 22.908000946044922,24.187000274658203 20.26799964904785,26.070999145507812 C20.26799964904785,26.070999145507812 15.263999938964844,23.44499969482422 15.263999938964844,23.44499969482422 C12.565999984741211,25.05699920654297 9.609999656677246,26.229000091552734 6.513000011444092,26.916000366210938 C6.513000011444092,26.916000366210938 4.913000106811523,32.16400146484375 4.913000106811523,32.16400146484375 C1.6549999713897705,32.62099838256836 -1.6549999713897705,32.62099838256836 -4.913000106811523,32.16400146484375 C-4.913000106811523,32.16400146484375 -6.513000011444092,26.916000366210938 -6.513000011444092,26.916000366210938 C-9.609999656677246,26.229000091552734 -12.565999984741211,25.05699920654297 -15.262999534606934,23.44499969482422 C-15.262999534606934,23.44499969482422 -20.267000198364258,26.070999145507812 -20.267000198364258,26.070999145507812 C-22.908000946044922,24.187000274658203 -25.25,21.94499969482422 -27.216999053955078,19.415000915527344 C-27.216999053955078,19.415000915527344 -24.475000381469727,14.621999740600586 -24.475000381469727,14.621999740600586 C-26.1560001373291,12.038999557495117 -27.381000518798828,9.204999923706055 -28.099000930786133,6.238999843597412 C-28.099000930786133,6.238999843597412 -33.57699966430664,4.705999851226807 -33.57699966430664,4.705999851226807 C-34.053001403808594,1.5850000381469727 -34.053001403808594,-1.5850000381469727 -33.57699966430664,-4.705999851226807 C-33.57699966430664,-4.705999851226807 -28.099000930786133,-6.238999843597412 -28.099000930786133,-6.238999843597412 C-27.381000518798828,-9.206000328063965 -26.1560001373291,-12.038999557495117 -24.475000381469727,-14.621999740600586 C-24.475000381469727,-14.621999740600586 -27.216999053955078,-19.415000915527344 -27.216999053955078,-19.415000915527344 C-25.25,-21.94499969482422 -22.908000946044922,-24.187999725341797 -20.267000198364258,-26.070999145507812 C-20.267000198364258,-26.070999145507812 -15.262999534606934,-23.44499969482422 -15.262999534606934,-23.44499969482422 C-12.565999984741211,-25.05699920654297 -9.609999656677246,-26.229999542236328 -6.513000011444092,-26.917999267578125 C-6.513000011444092,-26.917999267578125 -4.913000106811523,-32.16400146484375 -4.913000106811523,-32.16400146484375z"/><path stroke-linecap="round" stroke-linejoin="round" fill-opacity="0" class="primary" stroke="rgb(42,48,107)" stroke-opacity="1" stroke-width="3" d=" M13.906999588012695,0 C13.906999588012695,-7.353000164031982 7.676000118255615,-13.322999954223633 0,-13.322999954223633 C-7.676000118255615,-13.322999954223633 -13.906999588012695,-7.353000164031982 -13.906999588012695,0 C-13.906999588012695,7.353000164031982 -7.676000118255615,13.321999549865723 0,13.321999549865723 C7.676000118255615,13.321999549865723 13.906999588012695,7.353000164031982 13.906999588012695,0z M-4.913000106811523,-32.16400146484375 C-1.6549999713897705,-32.62099838256836 1.6549999713897705,-32.62099838256836 4.913000106811523,-32.16400146484375 C4.913000106811523,-32.16400146484375 6.513000011444092,-26.917999267578125 6.513000011444092,-26.917999267578125 C9.609999656677246,-26.229999542236328 12.565999984741211,-25.05699920654297 15.263999938964844,-23.44499969482422 C15.263999938964844,-23.44499969482422 20.26799964904785,-26.070999145507812 20.26799964904785,-26.070999145507812 C22.908000946044922,-24.187999725341797 25.25,-21.94499969482422 27.216999053955078,-19.415000915527344 C27.216999053955078,-19.415000915527344 24.475000381469727,-14.621999740600586 24.475000381469727,-14.621999740600586 C26.158000946044922,-12.038999557495117 27.381999969482422,-9.206000328063965 28.099000930786133,-6.238999843597412 C28.099000930786133,-6.238999843597412 33.57699966430664,-4.705999851226807 33.57699966430664,-4.705999851226807 C34.053001403808594,-1.5850000381469727 34.053001403808594,1.5850000381469727 33.57699966430664,4.705999851226807 C33.57699966430664,4.705999851226807 28.099000930786133,6.238999843597412 28.099000930786133,6.238999843597412 C27.381999969482422,9.204999923706055 26.158000946044922,12.038999557495117 24.475000381469727,14.621999740600586 C24.475000381469727,14.621999740600586 27.216999053955078,19.415000915527344 27.216999053955078,19.415000915527344 C25.25,21.94499969482422 22.908000946044922,24.187000274658203 20.26799964904785,26.070999145507812 C20.26799964904785,26.070999145507812 15.263999938964844,23.44499969482422 15.263999938964844,23.44499969482422 C12.565999984741211,25.05699920654297 9.609999656677246,26.229000091552734 6.513000011444092,26.916000366210938 C6.513000011444092,26.916000366210938 4.913000106811523,32.16400146484375 4.913000106811523,32.16400146484375 C1.6549999713897705,32.62099838256836 -1.6549999713897705,32.62099838256836 -4.913000106811523,32.16400146484375 C-4.913000106811523,32.16400146484375 -6.513000011444092,26.916000366210938 -6.513000011444092,26.916000366210938 C-9.609999656677246,26.229000091552734 -12.565999984741211,25.05699920654297 -15.262999534606934,23.44499969482422 C-15.262999534606934,23.44499969482422 -20.267000198364258,26.070999145507812 -20.267000198364258,26.070999145507812 C-22.908000946044922,24.187000274658203 -25.25,21.94499969482422 -27.216999053955078,19.415000915527344 C-27.216999053955078,19.415000915527344 -24.475000381469727,14.621999740600586 -24.475000381469727,14.621999740600586 C-26.1560001373291,12.038999557495117 -27.381000518798828,9.204999923706055 -28.099000930786133,6.238999843597412 C-28.099000930786133,6.238999843597412 -33.57699966430664,4.705999851226807 -33.57699966430664,4.705999851226807 C-34.053001403808594,1.5850000381469727 -34.053001403808594,-1.5850000381469727 -33.57699966430664,-4.705999851226807 C-33.57699966430664,-4.705999851226807 -28.099000930786133,-6.238999843597412 -28.099000930786133,-6.238999843597412 C-27.381000518798828,-9.206000328063965 -26.1560001373291,-12.038999557495117 -24.475000381469727,-14.621999740600586 C-24.475000381469727,-14.621999740600586 -27.216999053955078,-19.415000915527344 -27.216999053955078,-19.415000915527344 C-25.25,-21.94499969482422 -22.908000946044922,-24.187999725341797 -20.267000198364258,-26.070999145507812 C-20.267000198364258,-26.070999145507812 -15.262999534606934,-23.44499969482422 -15.262999534606934,-23.44499969482422 C-12.565999984741211,-25.05699920654297 -9.609999656677246,-26.229999542236328 -6.513000011444092,-26.917999267578125 C-6.513000011444092,-26.917999267578125 -4.913000106811523,-32.16400146484375 -4.913000106811523,-32.16400146484375z"/></g></g></g><filter id="__lottie_element_11435" filterUnits="objectBoundingBox" x="0%" y="0%" width="100%" height="100%"><feComponentTransfer in="SourceGraphic"><feFuncA type="table" tableValues="1.0 0.0"/></feComponentTransfer></filter><mask id="__lottie_element_11408_2" mask-type="alpha" maskUnits="userSpaceOnUse"><g filter="url(#__lottie_element_11435)"><rect width="192" height="192" x="0" y="0" fill="#ffffff" opacity="0"/><use xmlns:ns1="http://www.w3.org/1999/xlink" ns1:href="#__lottie_element_11408"/></g></mask></defs><g clip-path="url(#__lottie_element_11396)"><g clip-path="url(#__lottie_element_11398)" transform="matrix(1,0,0,1,0,0)" opacity="1" style="display: block;"><g transform="matrix(0.9486498832702637,-0.3163279592990875,0.3163279592990875,0.9486498832702637,153.61599731445312,137.9499969482422)" opacity="1" style="display: block;"><g opacity="1" transform="matrix(1,0,0,1,0,0)"><path class="secondary" fill="rgb(230,142,110)" fill-opacity="1" d=" M13.906999588012695,0 C13.906999588012695,-7.353000164031982 7.676000118255615,-13.322999954223633 0,-13.322999954223633 C-7.676000118255615,-13.322999954223633 -13.906999588012695,-7.353000164031982 -13.906999588012695,0 C-13.906999588012695,7.353000164031982 -7.676000118255615,13.321999549865723 0,13.321999549865723 C7.676000118255615,13.321999549865723 13.906999588012695,7.353000164031982 13.906999588012695,0z M-4.913000106811523,-32.16400146484375 C-1.6549999713897705,-32.62099838256836 1.6549999713897705,-32.62099838256836 4.913000106811523,-32.16400146484375 C4.913000106811523,-32.16400146484375 6.513000011444092,-26.917999267578125 6.513000011444092,-26.917999267578125 C9.609999656677246,-26.229999542236328 12.565999984741211,-25.05699920654297 15.263999938964844,-23.44499969482422 C15.263999938964844,-23.44499969482422 20.26799964904785,-26.070999145507812 20.26799964904785,-26.070999145507812 C22.908000946044922,-24.187999725341797 25.25,-21.94499969482422 27.216999053955078,-19.415000915527344 C27.216999053955078,-19.415000915527344 24.475000381469727,-14.621999740600586 24.475000381469727,-14.621999740600586 C26.158000946044922,-12.038999557495117 27.381999969482422,-9.206000328063965 28.099000930786133,-6.238999843597412 C28.099000930786133,-6.238999843597412 33.57699966430664,-4.705999851226807 33.57699966430664,-4.705999851226807 C34.053001403808594,-1.5850000381469727 34.053001403808594,1.5850000381469727 33.57699966430664,4.705999851226807 C33.57699966430664,4.705999851226807 28.099000930786133,6.238999843597412 28.099000930786133,6.238999843597412 C27.381999969482422,9.204999923706055 26.158000946044922,12.038999557495117 24.475000381469727,14.621999740600586 C24.475000381469727,14.621999740600586 27.216999053955078,19.415000915527344 27.216999053955078,19.415000915527344 C25.25,21.94499969482422 22.908000946044922,24.187000274658203 20.26799964904785,26.070999145507812 C20.26799964904785,26.070999145507812 15.263999938964844,23.44499969482422 15.263999938964844,23.44499969482422 C12.565999984741211,25.05699920654297 9.609999656677246,26.229000091552734 6.513000011444092,26.916000366210938 C6.513000011444092,26.916000366210938 4.913000106811523,32.16400146484375 4.913000106811523,32.16400146484375 C1.6549999713897705,32.62099838256836 -1.6549999713897705,32.62099838256836 -4.913000106811523,32.16400146484375 C-4.913000106811523,32.16400146484375 -6.513000011444092,26.916000366210938 -6.513000011444092,26.916000366210938 C-9.609999656677246,26.229000091552734 -12.565999984741211,25.05699920654297 -15.262999534606934,23.44499969482422 C-15.262999534606934,23.44499969482422 -20.267000198364258,26.070999145507812 -20.267000198364258,26.070999145507812 C-22.908000946044922,24.187000274658203 -25.25,21.94499969482422 -27.216999053955078,19.415000915527344 C-27.216999053955078,19.415000915527344 -24.475000381469727,14.621999740600586 -24.475000381469727,14.621999740600586 C-26.1560001373291,12.038999557495117 -27.381000518798828,9.204999923706055 -28.099000930786133,6.238999843597412 C-28.099000930786133,6.238999843597412 -33.57699966430664,4.705999851226807 -33.57699966430664,4.705999851226807 C-34.053001403808594,1.5850000381469727 -34.053001403808594,-1.5850000381469727 -33.57699966430664,-4.705999851226807 C-33.57699966430664,-4.705999851226807 -28.099000930786133,-6.238999843597412 -28.099000930786133,-6.238999843597412 C-27.381000518798828,-9.206000328063965 -26.1560001373291,-12.038999557495117 -24.475000381469727,-14.621999740600586 C-24.475000381469727,-14.621999740600586 -27.216999053955078,-19.415000915527344 -27.216999053955078,-19.415000915527344 C-25.25,-21.94499969482422 -22.908000946044922,-24.187999725341797 -20.267000198364258,-26.070999145507812 C-20.267000198364258,-26.070999145507812 -15.262999534606934,-23.44499969482422 -15.262999534606934,-23.44499969482422 C-12.565999984741211,-25.05699920654297 -9.609999656677246,-26.229999542236328 -6.513000011444092,-26.917999267578125 C-6.513000011444092,-26.917999267578125 -4.913000106811523,-32.16400146484375 -4.913000106811523,-32.16400146484375z"/><path stroke-linecap="round" stroke-linejoin="round" fill-opacity="0" class="secondary" stroke="rgb(230,142,110)" stroke-opacity="1" stroke-width="0.997" d=" M13.906999588012695,0 C13.906999588012695,-7.353000164031982 7.676000118255615,-13.322999954223633 0,-13.322999954223633 C-7.676000118255615,-13.322999954223633 -13.906999588012695,-7.353000164031982 -13.906999588012695,0 C-13.906999588012695,7.353000164031982 -7.676000118255615,13.321999549865723 0,13.321999549865723 C7.676000118255615,13.321999549865723 13.906999588012695,7.353000164031982 13.906999588012695,0z M-4.913000106811523,-32.16400146484375 C-1.6549999713897705,-32.62099838256836 1.6549999713897705,-32.62099838256836 4.913000106811523,-32.16400146484375 C4.913000106811523,-32.16400146484375 6.513000011444092,-26.917999267578125 6.513000011444092,-26.917999267578125 C9.609999656677246,-26.229999542236328 12.565999984741211,-25.05699920654297 15.263999938964844,-23.44499969482422 C15.263999938964844,-23.44499969482422 20.26799964904785,-26.070999145507812 20.26799964904785,-26.070999145507812 C22.908000946044922,-24.187999725341797 25.25,-21.94499969482422 27.216999053955078,-19.415000915527344 C27.216999053955078,-19.415000915527344 24.475000381469727,-14.621999740600586 24.475000381469727,-14.621999740600586 C26.158000946044922,-12.038999557495117 27.381999969482422,-9.206000328063965 28.099000930786133,-6.238999843597412 C28.099000930786133,-6.238999843597412 33.57699966430664,-4.705999851226807 33.57699966430664,-4.705999851226807 C34.053001403808594,-1.5850000381469727 34.053001403808594,1.5850000381469727 33.57699966430664,4.705999851226807 C33.57699966430664,4.705999851226807 28.099000930786133,6.238999843597412 28.099000930786133,6.238999843597412 C27.381999969482422,9.204999923706055 26.158000946044922,12.038999557495117 24.475000381469727,14.621999740600586 C24.475000381469727,14.621999740600586 27.216999053955078,19.415000915527344 27.216999053955078,19.415000915527344 C25.25,21.94499969482422 22.908000946044922,24.187000274658203 20.26799964904785,26.070999145507812 C20.26799964904785,26.070999145507812 15.263999938964844,23.44499969482422 15.263999938964844,23.44499969482422 C12.565999984741211,25.05699920654297 9.609999656677246,26.229000091552734 6.513000011444092,26.916000366210938 C6.513000011444092,26.916000366210938 4.913000106811523,32.16400146484375 4.913000106811523,32.16400146484375 C1.6549999713897705,32.62099838256836 -1.6549999713897705,32.62099838256836 -4.913000106811523,32.16400146484375 C-4.913000106811523,32.16400146484375 -6.513000011444092,26.916000366210938 -6.513000011444092,26.916000366210938 C-9.609999656677246,26.229000091552734 -12.565999984741211,25.05699920654297 -15.262999534606934,23.44499969482422 C-15.262999534606934,23.44499969482422 -20.267000198364258,26.070999145507812 -20.267000198364258,26.070999145507812 C-22.908000946044922,24.187000274658203 -25.25,21.94499969482422 -27.216999053955078,19.415000915527344 C-27.216999053955078,19.415000915527344 -24.475000381469727,14.621999740600586 -24.475000381469727,14.621999740600586 C-26.1560001373291,12.038999557495117 -27.381000518798828,9.204999923706055 -28.099000930786133,6.238999843597412 C-28.099000930786133,6.238999843597412 -33.57699966430664,4.705999851226807 -33.57699966430664,4.705999851226807 C-34.053001403808594,1.5850000381469727 -34.053001403808594,-1.5850000381469727 -33.57699966430664,-4.705999851226807 C-33.57699966430664,-4.705999851226807 -28.099000930786133,-6.238999843597412 -28.099000930786133,-6.238999843597412 C-27.381000518798828,-9.206000328063965 -26.1560001373291,-12.038999557495117 -24.475000381469727,-14.621999740600586 C-24.475000381469727,-14.621999740600586 -27.216999053955078,-19.415000915527344 -27.216999053955078,-19.415000915527344 C-25.25,-21.94499969482422 -22.908000946044922,-24.187999725341797 -20.267000198364258,-26.070999145507812 C-20.267000198364258,-26.070999145507812 -15.262999534606934,-23.44499969482422 -15.262999534606934,-23.44499969482422 C-12.565999984741211,-25.05699920654297 -9.609999656677246,-26.229999542236328 -6.513000011444092,-26.917999267578125 C-6.513000011444092,-26.917999267578125 -4.913000106811523,-32.16400146484375 -4.913000106811523,-32.16400146484375z"/></g></g><g mask="url(#__lottie_element_11408_2)" style="display: block;"><g transform="matrix(1,0,0,1,96.61000061035156,97.47599792480469)" opacity="1"><g opacity="1" transform="matrix(1,0,0,1,-40.446998596191406,-57.987998962402344)"><path class="primary" fill="rgb(42,48,107)" fill-opacity="1" d=" M-9.35200023651123,0.014000000432133675 C-9.35200023651123,1.4490000009536743 -10.569999694824219,2.611999988555908 -12.074000358581543,2.611999988555908 C-13.57800006866455,2.611999988555908 -14.79699993133545,1.4490000009536743 -14.79699993133545,0.014000000432133675 C-14.79699993133545,-1.4210000038146973 -13.57800006866455,-2.5840001106262207 -12.074000358581543,-2.5840001106262207 C-10.569999694824219,-2.5840001106262207 -9.35200023651123,-1.4210000038146973 -9.35200023651123,0.014000000432133675z"/><path stroke-linecap="round" stroke-linejoin="round" fill-opacity="0" class="primary" stroke="rgb(42,48,107)" stroke-opacity="1" stroke-width="1.997" d=" M-9.35200023651123,0.014000000432133675 C-9.35200023651123,1.4490000009536743 -10.569999694824219,2.611999988555908 -12.074000358581543,2.611999988555908 C-13.57800006866455,2.611999988555908 -14.79699993133545,1.4490000009536743 -14.79699993133545,0.014000000432133675 C-14.79699993133545,-1.4210000038146973 -13.57800006866455,-2.5840001106262207 -12.074000358581543,-2.5840001106262207 C-10.569999694824219,-2.5840001106262207 -9.35200023651123,-1.4210000038146973 -9.35200023651123,0.014000000432133675z"/></g><g opacity="1" transform="matrix(1,0,0,1,-40.446998596191406,-57.987998962402344)"><path class="primary" fill="rgb(42,48,107)" fill-opacity="1" d=" M3.059000015258789,-0.014000000432133675 C3.059000015258789,1.4210000038146973 1.840000033378601,2.5840001106262207 0.335999995470047,2.5840001106262207 C-1.1679999828338623,2.5840001106262207 -2.385999917984009,1.4210000038146973 -2.385999917984009,-0.014000000432133675 C-2.385999917984009,-1.4490000009536743 -1.1679999828338623,-2.611999988555908 0.335999995470047,-2.611999988555908 C1.840000033378601,-2.611999988555908 3.059000015258789,-1.4490000009536743 3.059000015258789,-0.014000000432133675z"/><path stroke-linecap="round" stroke-linejoin="round" fill-opacity="0" class="primary" stroke="rgb(42,48,107)" stroke-opacity="1" stroke-width="1.997" d=" M3.059000015258789,-0.014000000432133675 C3.059000015258789,1.4210000038146973 1.840000033378601,2.5840001106262207 0.335999995470047,2.5840001106262207 C-1.1679999828338623,2.5840001106262207 -2.385999917984009,1.4210000038146973 -2.385999917984009,-0.014000000432133675 C-2.385999917984009,-1.4490000009536743 -1.1679999828338623,-2.611999988555908 0.335999995470047,-2.611999988555908 C1.840000033378601,-2.611999988555908 3.059000015258789,-1.4490000009536743 3.059000015258789,-0.014000000432133675z"/></g><g opacity="1" transform="matrix(1,0,0,1,-40.446998596191406,-57.987998962402344)"><path class="primary" fill="rgb(42,48,107)" fill-opacity="1" d=" M14.79699993133545,0.0020000000949949026 C14.79699993133545,1.437000036239624 13.57800006866455,2.5999999046325684 12.074000358581543,2.5999999046325684 C10.569999694824219,2.5999999046325684 9.35200023651123,1.437000036239624 9.35200023651123,0.0020000000949949026 C9.35200023651123,-1.4329999685287476 10.569999694824219,-2.5959999561309814 12.074000358581543,-2.5959999561309814 C13.57800006866455,-2.5959999561309814 14.79699993133545,-1.4329999685287476 14.79699993133545,0.0020000000949949026z"/><path stroke-linecap="round" stroke-linejoin="round" fill-opacity="0" class="primary" stroke="rgb(42,48,107)" stroke-opacity="1" stroke-width="1.997" d=" M14.79699993133545,0.0020000000949949026 C14.79699993133545,1.437000036239624 13.57800006866455,2.5999999046325684 12.074000358581543,2.5999999046325684 C10.569999694824219,2.5999999046325684 9.35200023651123,1.437000036239624 9.35200023651123,0.0020000000949949026 C9.35200023651123,-1.4329999685287476 10.569999694824219,-2.5959999561309814 12.074000358581543,-2.5959999561309814 C13.57800006866455,-2.5959999561309814 14.79699993133545,-1.4329999685287476 14.79699993133545,0.0020000000949949026z"/></g><g opacity="1" transform="matrix(1,0,0,1,0,0)"><path stroke-linecap="round" stroke-linejoin="round" fill-opacity="0" class="primary" stroke="rgb(42,48,107)" stroke-opacity="1" stroke-width="2.998" d=" M67.22000122070312,-48.108001708984375 C43.25400161743164,-47.78300094604492 -44.12300109863281,-48.14799880981445 -67.16200256347656,-48.28099822998047 M-67.99099731445312,-54.15299987792969 C-68.2249984741211,-60.81100082397461 -66.46199798583984,-69.2979965209961 -57.56100082397461,-69.54399871826172 C-44.395999908447266,-69.91000366210938 48.275001525878906,-69.4229965209961 56.43000030517578,-68.8479995727539 C62.715999603271484,-68.40399932861328 67.70099639892578,-63.652000427246094 67.99199676513672,-51.4010009765625 C68.1729965209961,-43.77199935913086 67.48200225830078,45.768001556396484 67.31199645996094,52.737998962402344 C67.10299682617188,61.25400161743164 65.552001953125,68.37799835205078 54.42499923706055,69.12699890136719 C42.28200149536133,69.94599914550781 -52.23899841308594,69.70899963378906 -57.4739990234375,69.26000213623047 C-64.5510025024414,68.65399932861328 -67.28700256347656,60.369998931884766 -67.49099731445312,53.09000015258789 C-68.33300018310547,23.05900001525879 -67.89700317382812,-51.507999420166016 -67.99099731445312,-54.15299987792969z"/></g></g></g><g transform="matrix(1,0,0,1,162.30099487304688,46.843997955322266)" opacity="1" style="display: block;"><g opacity="1" transform="matrix(1,0,0,1,0,0)"><path stroke-linecap="round" stroke-linejoin="round" fill-opacity="0" class="primary" stroke="rgb(42,48,107)" stroke-opacity="1" stroke-width="2.001" d=" M13.444999694824219,2.9560000896453857 C13.444999694824219,2.9119999408721924 13.444999694824219,2.86899995803833 13.444999694824219,2.8259999752044678 C13.39799976348877,-13.083000183105469 14.324999809265137,-30.89900016784668 -12.236000061035156,-31.610000610351562"/></g></g><g transform="matrix(1,0,0,1,162.30099487304688,46.843997955322266)" opacity="1" style="display: block;"><g opacity="1" transform="matrix(1,0,0,1,0,0)"><path stroke-linecap="round" stroke-linejoin="round" fill-opacity="0" class="primary" stroke="rgb(42,48,107)" stroke-opacity="1" stroke-width="2.001" d=" M13.449000358581543,30.968000411987305 C13.449000358581543,30.968000411987305 13.479999542236328,22.59600067138672 13.461999893188477,10.425999641418457"/></g></g><g transform="matrix(1,0,0,1,27.15599822998047,152.5469970703125)" opacity="1" style="display: block;"><g opacity="1" transform="matrix(1,0,0,1,0,0)"><path stroke-linecap="round" stroke-linejoin="round" fill-opacity="0" class="primary" stroke="rgb(42,48,107)" stroke-opacity="1" stroke-width="2.001" d=" M-9.13700008392334,-2.8550000190734863 C-9.144000053405762,-11.350000381469727 -9.156000137329102,-25.297000885009766 -9.156000137329102,-25.297000885009766"/></g></g><g transform="matrix(1,0,0,1,27.15599822998047,152.5469970703125)" opacity="1" style="display: block;"><g opacity="1" transform="matrix(1,0,0,1,0,0)"><path stroke-linecap="round" stroke-linejoin="round" fill-opacity="0" class="primary" stroke="rgb(42,48,107)" stroke-opacity="1" stroke-width="2.001" d=" M8.510000228881836,25.35099983215332 C-9.392000198364258,25.229999542236328 -9.003000259399414,9.48799991607666 -9.131999969482422,3.5409998893737793 C-9.131999969482422,3.5409998893737793 -9.131999969482422,3.5409998893737793 -9.131999969482422,3.5409998893737793"/></g></g><g transform="matrix(0.9486498832702637,-0.3163279592990875,0.3163279592990875,0.9486498832702637,148.08099365234375,140.52000427246094)" opacity="1" style="display: block;"><g opacity="1" transform="matrix(1,0,0,1,0,0)"><path stroke-linecap="round" stroke-linejoin="round" fill-opacity="0" class="primary" stroke="rgb(42,48,107)" stroke-opacity="1" stroke-width="3" d=" M13.906999588012695,0 C13.906999588012695,-7.353000164031982 7.676000118255615,-13.322999954223633 0,-13.322999954223633 C-7.676000118255615,-13.322999954223633 -13.906999588012695,-7.353000164031982 -13.906999588012695,0 C-13.906999588012695,7.353000164031982 -7.676000118255615,13.321999549865723 0,13.321999549865723 C7.676000118255615,13.321999549865723 13.906999588012695,7.353000164031982 13.906999588012695,0z M-4.913000106811523,-32.16400146484375 C-1.6549999713897705,-32.62099838256836 1.6549999713897705,-32.62099838256836 4.913000106811523,-32.16400146484375 C4.913000106811523,-32.16400146484375 6.513000011444092,-26.917999267578125 6.513000011444092,-26.917999267578125 C9.609999656677246,-26.229999542236328 12.565999984741211,-25.05699920654297 15.263999938964844,-23.44499969482422 C15.263999938964844,-23.44499969482422 20.26799964904785,-26.070999145507812 20.26799964904785,-26.070999145507812 C22.908000946044922,-24.187999725341797 25.25,-21.94499969482422 27.216999053955078,-19.415000915527344 C27.216999053955078,-19.415000915527344 24.475000381469727,-14.621999740600586 24.475000381469727,-14.621999740600586 C26.158000946044922,-12.038999557495117 27.381999969482422,-9.206000328063965 28.099000930786133,-6.238999843597412 C28.099000930786133,-6.238999843597412 33.57699966430664,-4.705999851226807 33.57699966430664,-4.705999851226807 C34.053001403808594,-1.5850000381469727 34.053001403808594,1.5850000381469727 33.57699966430664,4.705999851226807 C33.57699966430664,4.705999851226807 28.099000930786133,6.238999843597412 28.099000930786133,6.238999843597412 C27.381999969482422,9.204999923706055 26.158000946044922,12.038999557495117 24.475000381469727,14.621999740600586 C24.475000381469727,14.621999740600586 27.216999053955078,19.415000915527344 27.216999053955078,19.415000915527344 C25.25,21.94499969482422 22.908000946044922,24.187000274658203 20.26799964904785,26.070999145507812 C20.26799964904785,26.070999145507812 15.263999938964844,23.44499969482422 15.263999938964844,23.44499969482422 C12.565999984741211,25.05699920654297 9.609999656677246,26.229000091552734 6.513000011444092,26.916000366210938 C6.513000011444092,26.916000366210938 4.913000106811523,32.16400146484375 4.913000106811523,32.16400146484375 C1.6549999713897705,32.62099838256836 -1.6549999713897705,32.62099838256836 -4.913000106811523,32.16400146484375 C-4.913000106811523,32.16400146484375 -6.513000011444092,26.916000366210938 -6.513000011444092,26.916000366210938 C-9.609999656677246,26.229000091552734 -12.565999984741211,25.05699920654297 -15.262999534606934,23.44499969482422 C-15.262999534606934,23.44499969482422 -20.267000198364258,26.070999145507812 -20.267000198364258,26.070999145507812 C-22.908000946044922,24.187000274658203 -25.25,21.94499969482422 -27.216999053955078,19.415000915527344 C-27.216999053955078,19.415000915527344 -24.475000381469727,14.621999740600586 -24.475000381469727,14.621999740600586 C-26.1560001373291,12.038999557495117 -27.381000518798828,9.204999923706055 -28.099000930786133,6.238999843597412 C-28.099000930786133,6.238999843597412 -33.57699966430664,4.705999851226807 -33.57699966430664,4.705999851226807 C-34.053001403808594,1.5850000381469727 -34.053001403808594,-1.5850000381469727 -33.57699966430664,-4.705999851226807 C-33.57699966430664,-4.705999851226807 -28.099000930786133,-6.238999843597412 -28.099000930786133,-6.238999843597412 C-27.381000518798828,-9.206000328063965 -26.1560001373291,-12.038999557495117 -24.475000381469727,-14.621999740600586 C-24.475000381469727,-14.621999740600586 -27.216999053955078,-19.415000915527344 -27.216999053955078,-19.415000915527344 C-25.25,-21.94499969482422 -22.908000946044922,-24.187999725341797 -20.267000198364258,-26.070999145507812 C-20.267000198364258,-26.070999145507812 -15.262999534606934,-23.44499969482422 -15.262999534606934,-23.44499969482422 C-12.565999984741211,-25.05699920654297 -9.609999656677246,-26.229999542236328 -6.513000011444092,-26.917999267578125 C-6.513000011444092,-26.917999267578125 -4.913000106811523,-32.16400146484375 -4.913000106811523,-32.16400146484375z"/></g></g><g transform="matrix(1,0,0,1,85.80599975585938,81.49099731445312)" opacity="1" style="display: block;"><g opacity="1" transform="matrix(1,0,0,1,0,0)"><path stroke-linecap="round" stroke-linejoin="round" fill-opacity="0" class="primary" stroke="rgb(42,48,107)" stroke-opacity="1" stroke-width="1.998" d=" M36.83399963378906,-14.539999961853027 C29.906999588012695,-14.545000076293945 -31.975000381469727,-14.489999771118164 -36.608001708984375,-14.53600025177002"/></g></g><g transform="matrix(1,0,0,1,85.80599975585938,81.49099731445312)" opacity="1" style="display: block;"><g opacity="1" transform="matrix(1,0,0,1,0,0)"><path stroke-linecap="round" stroke-linejoin="round" fill-opacity="0" class="primary" stroke="rgb(42,48,107)" stroke-opacity="1" stroke-width="1.998" d=" M36.65399932861328,-0.31299999356269836 C29.726999282836914,-0.3179999887943268 -32.20100021362305,-0.1940000057220459 -36.83399963378906,-0.23999999463558197"/></g></g><g transform="matrix(1,0,0,1,85.80599975585938,81.49099731445312)" opacity="1" style="display: block;"><g opacity="1" transform="matrix(1,0,0,1,0,0)"><path stroke-linecap="round" stroke-linejoin="round" fill-opacity="0" class="primary" stroke="rgb(42,48,107)" stroke-opacity="1" stroke-width="1.998" d=" M3.811000108718872,14.539999961853027 C-3.115999937057495,14.53499984741211 -31.98200035095215,14.538000106811523 -36.6150016784668,14.491999626159668"/></g></g></g></g></svg>