<svg xmlns="http://www.w3.org/2000/svg" xmlns:xlink="http://www.w3.org/1999/xlink" viewBox="0 0 192 192" width="192" height="192" preserveAspectRatio="xMidYMid meet" style="width: 100%; height: 100%; transform: translate3d(0px, 0px, 0px); content-visibility: visible;"><defs><clipPath id="__lottie_element_2372"><rect width="192" height="192" x="0" y="0"/></clipPath><clipPath id="__lottie_element_2374"><path d="M0,0 L192,0 L192,192 L0,192z"/></clipPath></defs><g clip-path="url(#__lottie_element_2372)"><g clip-path="url(#__lottie_element_2374)" transform="matrix(1,0,0,1,0,0)" opacity="1" style="display: block;"><g transform="matrix(1,0,0,1,49.49300003051758,127.49500274658203)" opacity="1" style="display: block;"><g opacity="1" transform="matrix(0,-1,1,0,0,0)"><path class="secondary" fill="rgb(230,142,110)" fill-opacity="1" d=" M0,11.267999649047852 C6.136000156402588,11.267999649047852 11.109999656677246,6.2230000495910645 11.109999656677246,0 C11.109999656677246,-6.2230000495910645 6.136000156402588,-11.267999649047852 0,-11.267999649047852 C-6.136000156402588,-11.267999649047852 -11.109999656677246,-6.2230000495910645 -11.109999656677246,0 C-11.109999656677246,6.2230000495910645 -6.136000156402588,11.267999649047852 0,11.267999649047852z"/><path stroke-linecap="round" stroke-linejoin="round" fill-opacity="0" class="secondary" stroke="rgb(230,142,110)" stroke-opacity="1" stroke-width="1" d=" M0,11.267999649047852 C6.136000156402588,11.267999649047852 11.109999656677246,6.2230000495910645 11.109999656677246,0 C11.109999656677246,-6.2230000495910645 6.136000156402588,-11.267999649047852 0,-11.267999649047852 C-6.136000156402588,-11.267999649047852 -11.109999656677246,-6.2230000495910645 -11.109999656677246,0 C-11.109999656677246,6.2230000495910645 -6.136000156402588,11.267999649047852 0,11.267999649047852z"/></g></g><g transform="matrix(1,0,0,1,83.30799865722656,67.1709976196289)" opacity="1" style="display: block;"><g opacity="1" transform="matrix(0,-1,1,0,0,0)"><path class="secondary" fill="rgb(230,142,110)" fill-opacity="1" d=" M0,11.267999649047852 C6.136000156402588,11.267999649047852 11.109999656677246,6.2230000495910645 11.109999656677246,0 C11.109999656677246,-6.2230000495910645 6.136000156402588,-11.267999649047852 0,-11.267999649047852 C-6.136000156402588,-11.267999649047852 -11.109999656677246,-6.2230000495910645 -11.109999656677246,0 C-11.109999656677246,6.2230000495910645 -6.136000156402588,11.267999649047852 0,11.267999649047852z"/><path stroke-linecap="round" stroke-linejoin="round" fill-opacity="0" class="secondary" stroke="rgb(230,142,110)" stroke-opacity="1" stroke-width="1" d=" M0,11.267999649047852 C6.136000156402588,11.267999649047852 11.109999656677246,6.2230000495910645 11.109999656677246,0 C11.109999656677246,-6.2230000495910645 6.136000156402588,-11.267999649047852 0,-11.267999649047852 C-6.136000156402588,-11.267999649047852 -11.109999656677246,-6.2230000495910645 -11.109999656677246,0 C-11.109999656677246,6.2230000495910645 -6.136000156402588,11.267999649047852 0,11.267999649047852z"/></g></g><g transform="matrix(1,0,0,1,117.2760009765625,94.57099914550781)" opacity="1" style="display: block;"><g opacity="1" transform="matrix(0,-1,1,0,0,0)"><path class="secondary" fill="rgb(230,142,110)" fill-opacity="1" d=" M0,11.267999649047852 C6.136000156402588,11.267999649047852 11.109999656677246,6.2230000495910645 11.109999656677246,0 C11.109999656677246,-6.2230000495910645 6.136000156402588,-11.267999649047852 0,-11.267999649047852 C-6.136000156402588,-11.267999649047852 -11.109999656677246,-6.2230000495910645 -11.109999656677246,0 C-11.109999656677246,6.2230000495910645 -6.136000156402588,11.267999649047852 0,11.267999649047852z"/><path stroke-linecap="round" stroke-linejoin="round" fill-opacity="0" class="secondary" stroke="rgb(230,142,110)" stroke-opacity="1" stroke-width="1" d=" M0,11.267999649047852 C6.136000156402588,11.267999649047852 11.109999656677246,6.2230000495910645 11.109999656677246,0 C11.109999656677246,-6.2230000495910645 6.136000156402588,-11.267999649047852 0,-11.267999649047852 C-6.136000156402588,-11.267999649047852 -11.109999656677246,-6.2230000495910645 -11.109999656677246,0 C-11.109999656677246,6.2230000495910645 -6.136000156402588,11.267999649047852 0,11.267999649047852z"/></g></g><g transform="matrix(1,0,0,1,150.77099609375,51.729000091552734)" opacity="1" style="display: block;"><g opacity="1" transform="matrix(0,-1,1,0,0,-0.0000037562463148788083)"><path class="secondary" fill="rgb(230,142,110)" fill-opacity="1" d=" M0,11.267999649047852 C6.136000156402588,11.267999649047852 11.109999656677246,6.2230000495910645 11.109999656677246,0 C11.109999656677246,-6.2230000495910645 6.136000156402588,-11.267999649047852 0,-11.267999649047852 C-6.136000156402588,-11.267999649047852 -11.109999656677246,-6.2230000495910645 -11.109999656677246,0 C-11.109999656677246,6.2230000495910645 -6.136000156402588,11.267999649047852 0,11.267999649047852z"/><path stroke-linecap="round" stroke-linejoin="round" fill-opacity="0" class="secondary" stroke="rgb(230,142,110)" stroke-opacity="1" stroke-width="1" d=" M0,11.267999649047852 C6.136000156402588,11.267999649047852 11.109999656677246,6.2230000495910645 11.109999656677246,0 C11.109999656677246,-6.2230000495910645 6.136000156402588,-11.267999649047852 0,-11.267999649047852 C-6.136000156402588,-11.267999649047852 -11.109999656677246,-6.2230000495910645 -11.109999656677246,0 C-11.109999656677246,6.2230000495910645 -6.136000156402588,11.267999649047852 0,11.267999649047852z"/></g></g><g transform="matrix(1,0,0,1,44.36800003051758,95.4739990234375)" opacity="1" style="display: block;"><g opacity="1" transform="matrix(0,-1,1,0,0,0)"><path stroke-linecap="round" stroke-linejoin="round" fill-opacity="0" class="primary" stroke="rgb(29,77,141)" stroke-opacity="1" stroke-width="3.002" d=" M-45.814998626708984,-0.05000000074505806 C-52.9109992980957,-0.0689999982714653 -59.02399826049805,-0.08299999684095383 -63.63100051879883,-0.08699999749660492"/></g><g opacity="1" transform="matrix(0,-1,1,0,0,0)"><path stroke-linecap="round" stroke-linejoin="round" fill-opacity="0" class="primary" stroke="rgb(29,77,141)" stroke-opacity="1" stroke-width="3.002" d=" M63.63100051879883,-0.08799999952316284 C46.047000885009766,0.15600000321865082 10.184000015258789,0.10000000149011612 -20.36199951171875,0.020999999716877937"/></g></g><g transform="matrix(1,0,0,1,44.24300003051758,128.2449951171875)" opacity="1" style="display: block;"><g opacity="1" transform="matrix(0,-1,1,0,0,0)"><path stroke-linecap="round" stroke-linejoin="round" fill-opacity="0" class="primary" stroke="rgb(29,77,141)" stroke-opacity="1" stroke-width="2" d=" M0,11.267999649047852 C6.136000156402588,11.267999649047852 11.109999656677246,6.2230000495910645 11.109999656677246,0 C11.109999656677246,-6.2230000495910645 6.136000156402588,-11.267999649047852 0,-11.267999649047852 C-6.136000156402588,-11.267999649047852 -11.109999656677246,-6.2230000495910645 -11.109999656677246,0 C-11.109999656677246,6.2230000495910645 -6.136000156402588,11.267999649047852 0,11.267999649047852z"/></g></g><g transform="matrix(1,0,0,1,77.77799987792969,95.76300048828125)" opacity="1" style="display: block;"><g opacity="1" transform="matrix(0,-1,1,0,0,0)"><path stroke-linecap="round" stroke-linejoin="round" fill-opacity="0" class="primary" stroke="rgb(29,77,141)" stroke-opacity="1" stroke-width="3.002" d=" M63.63100051879883,-0.08799999952316284 C57.74700164794922,-0.006000000052154064 49.81800079345703,0.041999999433755875 40.724998474121094,0.06700000166893005"/></g><g opacity="1" transform="matrix(0,-1,1,0,0,0)"><path stroke-linecap="round" stroke-linejoin="round" fill-opacity="0" class="primary" stroke="rgb(29,77,141)" stroke-opacity="1" stroke-width="3.002" d=" M15.272000312805176,0.0860000029206276 C-14.663999557495117,0.06400000303983688 -47.91600036621094,-0.07500000298023224 -63.63100051879883,-0.08699999749660492"/></g></g><g transform="matrix(1,0,0,1,78.05799865722656,67.9209976196289)" opacity="1" style="display: block;"><g opacity="1" transform="matrix(0,-1,1,0,0,0)"><path stroke-linecap="round" stroke-linejoin="round" fill-opacity="0" class="primary" stroke="rgb(29,77,141)" stroke-opacity="1" stroke-width="2" d=" M0,11.267999649047852 C6.136000156402588,11.267999649047852 11.109999656677246,6.2230000495910645 11.109999656677246,0 C11.109999656677246,-6.2230000495910645 6.136000156402588,-11.267999649047852 0,-11.267999649047852 C-6.136000156402588,-11.267999649047852 -11.109999656677246,-6.2230000495910645 -11.109999656677246,0 C-11.109999656677246,6.2230000495910645 -6.136000156402588,11.267999649047852 0,11.267999649047852z"/></g></g><g transform="matrix(1,0,0,1,111.8270034790039,95.58899688720703)" opacity="1" style="display: block;"><g opacity="1" transform="matrix(0,-1,1,0,0,0)"><path stroke-linecap="round" stroke-linejoin="round" fill-opacity="0" class="primary" stroke="rgb(29,77,141)" stroke-opacity="1" stroke-width="3.002" d=" M-11.454000473022461,0.041999999433755875 C-32.69499969482422,-0.007000000216066837 -52.53499984741211,-0.07800000160932541 -63.63100051879883,-0.08699999749660492"/></g><g opacity="1" transform="matrix(0,-1,1,0,0,0)"><path stroke-linecap="round" stroke-linejoin="round" fill-opacity="0" class="primary" stroke="rgb(29,77,141)" stroke-opacity="1" stroke-width="3.002" d=" M63.63100051879883,-0.08799999952316284 C52.21500015258789,0.07000000029802322 33.095001220703125,0.10199999809265137 12.72700023651123,0.08399999886751175"/></g></g><g transform="matrix(1,0,0,1,112.0260009765625,95.32099914550781)" opacity="1" style="display: block;"><g opacity="1" transform="matrix(0,-1,1,0,0,0)"><path stroke-linecap="round" stroke-linejoin="round" fill-opacity="0" class="primary" stroke="rgb(29,77,141)" stroke-opacity="1" stroke-width="2" d=" M0,11.267999649047852 C6.136000156402588,11.267999649047852 11.109999656677246,6.2230000495910645 11.109999656677246,0 C11.109999656677246,-6.2230000495910645 6.136000156402588,-11.267999649047852 0,-11.267999649047852 C-6.136000156402588,-11.267999649047852 -11.109999656677246,-6.2230000495910645 -11.109999656677246,0 C-11.109999656677246,6.2230000495910645 -6.136000156402588,11.267999649047852 0,11.267999649047852z"/></g></g><g transform="matrix(1,0,0,1,145.60400390625,96.62000274658203)" opacity="1" style="display: block;"><g opacity="1" transform="matrix(0,-1,1,0,0,0)"><path stroke-linecap="round" stroke-linejoin="round" fill-opacity="0" class="primary" stroke="rgb(29,77,141)" stroke-opacity="1" stroke-width="3.002" d=" M63.63100051879883,-0.08799999952316284 C61.37099838256836,-0.05700000002980232 58.810001373291016,-0.029999999329447746 55.99599838256836,-0.00800000037997961"/></g><g opacity="1" transform="matrix(0,-1,1,0,0,0)"><path stroke-linecap="round" stroke-linejoin="round" fill-opacity="0" class="primary" stroke="rgb(29,77,141)" stroke-opacity="1" stroke-width="3.002" d=" M31.816999435424805,0.08299999684095383 C-1.409999966621399,0.12200000137090683 -44.93299865722656,-0.0729999989271164 -63.63100051879883,-0.08699999749660492"/></g></g><g transform="matrix(1,0,0,1,145.52099609375,52.479000091552734)" opacity="1" style="display: block;"><g opacity="1" transform="matrix(0,-1,1,0,0,-0.0000037562463148788083)"><path stroke-linecap="round" stroke-linejoin="round" fill-opacity="0" class="primary" stroke="rgb(29,77,141)" stroke-opacity="1" stroke-width="2" d=" M0,11.267999649047852 C6.136000156402588,11.267999649047852 11.109999656677246,6.2230000495910645 11.109999656677246,0 C11.109999656677246,-6.2230000495910645 6.136000156402588,-11.267999649047852 0,-11.267999649047852 C-6.136000156402588,-11.267999649047852 -11.109999656677246,-6.2230000495910645 -11.109999656677246,0 C-11.109999656677246,6.2230000495910645 -6.136000156402588,11.267999649047852 0,11.267999649047852z"/></g></g><g transform="matrix(1,0,0,1,160.45899963378906,95.83699798583984)" opacity="1" style="display: block;"><g opacity="1" transform="matrix(1,0,0,1,0,0)"><path stroke-linecap="round" stroke-linejoin="round" fill-opacity="0" class="primary" stroke="rgb(29,77,141)" stroke-opacity="1" stroke-width="1.996" d=" M-0.04800000041723251,11.793999671936035 C-0.0560000017285347,-0.49799999594688416 -0.04899999871850014,-10.145999908447266 -0.010999999940395355,-12.397000312805176"/></g></g><g transform="matrix(1,0,0,1,160.3520050048828,138.625)" opacity="1" style="display: block;"><g opacity="1" transform="matrix(1,0,0,1,0,0)"><path stroke-linecap="round" stroke-linejoin="round" fill-opacity="0" class="primary" stroke="rgb(29,77,141)" stroke-opacity="1" stroke-width="1.996" d=" M-0.1979999989271164,22.554000854492188 C-0.13600000739097595,6.175000190734863 -0.029999999329447746,-17.540000915527344 0.050999999046325684,-22.320999145507812"/></g></g><g transform="matrix(1,0,0,1,32.106998443603516,55.14400100708008)" opacity="1" style="display: block;"><g opacity="1" transform="matrix(1,0,0,1,0,0)"><path stroke-linecap="round" stroke-linejoin="round" fill-opacity="0" class="primary" stroke="rgb(29,77,141)" stroke-opacity="1" stroke-width="1.996" d=" M-0.05299999937415123,-21.982999801635742 C-0.1420000046491623,-5.803999900817871 -0.2549999952316284,15.069999694824219 -0.21299999952316284,22.441999435424805"/></g></g></g></g></svg>