<svg xmlns="http://www.w3.org/2000/svg" xmlns:xlink="http://www.w3.org/1999/xlink" viewBox="0 0 192 192" width="192" height="192" preserveAspectRatio="xMidYMid meet" style="width: 100%; height: 100%; transform: translate3d(0px, 0px, 0px); content-visibility: visible;"><defs><clipPath id="__lottie_element_8737"><rect width="192" height="192" x="0" y="0"/></clipPath><clipPath id="__lottie_element_8739"><path d="M0,0 L192,0 L192,192 L0,192z"/></clipPath></defs><g clip-path="url(#__lottie_element_8737)"><g clip-path="url(#__lottie_element_8739)" transform="matrix(1,0,0,1,0,0)" opacity="1" style="display: block;"><g transform="matrix(0.9399573802947998,-0.3412770926952362,0.3412770926952362,0.9399573802947998,110.84518432617188,121.53761291503906)" opacity="1" style="display: block;"><g opacity="1" transform="matrix(1,0,0,1,0,0)"><path stroke-linecap="round" stroke-linejoin="round" fill-opacity="0" class="primary" stroke="rgb(42,48,107)" stroke-opacity="1" stroke-width="3" d=" M39.983001708984375,-74.64900207519531 C26.625,-71.34500122070312 13.593000411987305,-66.11900329589844 13.256999969482422,-66.15299987792969 C-5.829999923706055,-58.361000061035156 -53.563636779785156,-17.691364288330078 -68.30017852783203,27.36001205444336 C-67.80618286132812,28.14501190185547 -68.1121826171875,27.745012283325195 -68.1121826171875,27.745012283325195 C-68.1121826171875,27.745012283325195 -7.114171028137207,60.53336715698242 2.6728291511535645,66.83536529541016 C19.91398811340332,33.36228561401367 27.268173217773438,7.243185520172119 71.37699890136719,-27.711000442504883 C71.91999816894531,-26.861000061035156 75.66400146484375,-69.5790023803711 68.23300170898438,-75.59700012207031 C68.23300170898438,-75.59700012207031 68.23300170898438,-75.59700012207031 68.23300170898438,-75.59700012207031 C65.20899963378906,-78.0459976196289 56.95399856567383,-77.78399658203125 49.073001861572266,-76.53099822998047 C48.86399841308594,-76.49800109863281 48.65399932861328,-76.46399688720703 48.44300079345703,-76.4280014038086"/></g></g><g transform="matrix(0.9399573802947998,-0.3412770926952362,0.3412770926952362,0.9399573802947998,110.84516906738281,121.53779602050781)" opacity="1" style="display: block;"><g opacity="1" transform="matrix(1,0,0,1,0,0)"><path stroke-linecap="round" stroke-linejoin="round" fill-opacity="0" class="primary" stroke="rgb(42,48,107)" stroke-opacity="1" stroke-width="3" d=" M50.98500061035156,-66.75800323486328 C51.20100021362305,-66.86000061035156 51.42300033569336,-66.95999908447266 51.652000427246094,-67.05999755859375 C53.779998779296875,-67.98799896240234 57.99700164794922,-67.39299774169922 59.48899841308594,-66.19400024414062 C61.91400146484375,-64.24400329589844 63.018001556396484,-59.85200119018555 62.0989990234375,-57.474998474121094 C62.0989990234375,-57.474998474121094 62.0989990234375,-57.474998474121094 62.0989990234375,-57.474998474121094 C57.96900177001953,-46.79600143432617 41.12099838256836,-54.220001220703125 45.02399826049805,-61.86399841308594"/></g></g><g transform="matrix(0.9399573802947998,-0.3412770926952362,0.3412770926952362,0.9399573802947998,143.7764129638672,28.135608673095703)" opacity="1" style="display: block;"><g opacity="1" transform="matrix(1,0,0,1,0,0)"><path stroke-linecap="round" stroke-linejoin="round" fill-opacity="0" class="primary" stroke="rgb(42,48,107)" stroke-opacity="1" stroke-width="2.004" d=" M9.4399995803833,17.6560001373291 C16.927000045776367,14.489999771118164 22.395000457763672,8.005999565124512 22.395000457763672,-0.07599999755620956 C22.395000457763672,-0.07599999755620956 22.395000457763672,-0.07599999755620956 22.395000457763672,-0.07599999755620956 C22.395000457763672,-11.62600040435791 11.486000061035156,-19.761999130249023 -0.7870000004768372,-19.761999130249023 C-13.059000015258789,-19.761999130249023 -22.395000457763672,-10.715999603271484 -22.395000457763672,0.8339999914169312 C-22.395000457763672,11.99899959564209 -13.913000106811523,19.264999389648438 -2.263000011444092,19.73699951171875"/></g></g><g transform="matrix(0.9399573802947998,-0.3412770926952362,0.3412770926952362,0.9399573802947998,143.7764129638672,28.135608673095703)" opacity="1" style="display: block;"><g opacity="1" transform="matrix(1,0,0,1,0,0)"><path stroke-linecap="round" stroke-linejoin="round" fill-opacity="0" class="primary" stroke="rgb(42,48,107)" stroke-opacity="1" stroke-width="2.004" d=" M9.130000114440918,11.069999694824219 C12.777999877929688,9.156000137329102 15.590999603271484,5.806000232696533 15.564000129699707,-0.18299999833106995 C15.564000129699707,-0.18299999833106995 15.564000129699707,-0.18299999833106995 15.564000129699707,-0.18299999833106995 C15.538000106811523,-5.958000183105469 6.4039998054504395,-15.38700008392334 -1.5740000009536743,-14.47700023651123 C-12.800000190734863,-13.196000099182129 -16.673999786376953,-5.315000057220459 -16.249000549316406,0.4449999928474426 C-15.397000312805176,11.984000205993652 -8.734999656677246,13.869000434875488 -2.8380000591278076,13.71399974822998"/></g></g><g transform="matrix(0.9399573802947998,-0.3412770926952362,0.3412770926952362,0.9399573802947998,169.23143005371094,108.21048736572266)" opacity="1" style="display: block;"><g opacity="1" transform="matrix(1,0,0,1,0,0)"><path stroke-linecap="round" stroke-linejoin="round" fill-opacity="0" class="primary" stroke="rgb(42,48,107)" stroke-opacity="1" stroke-width="2" d="M0 0"/></g></g><g transform="matrix(0.8390957117080688,-0.5439745783805847,0.5439745783805847,0.8390957117080688,57.61379623413086,175.7305145263672)" opacity="1" style="display: block;"><g opacity="1" transform="matrix(1,0,0,1,0,0)"><path stroke-linecap="round" stroke-linejoin="round" fill-opacity="0" class="primary" stroke="rgb(42,48,107)" stroke-opacity="1" stroke-width="2" d="M0 0"/></g></g><g transform="matrix(0.8390957117080688,-0.5439745783805847,0.5439745783805847,0.8390957117080688,23.36246681213379,167.00697326660156)" opacity="1" style="display: block;"><g opacity="1" transform="matrix(1,0,0,1,0,0)"><path stroke-linecap="round" stroke-linejoin="round" fill-opacity="0" class="primary" stroke="rgb(42,48,107)" stroke-opacity="1" stroke-width="2" d="M0 0"/></g></g><g transform="matrix(0.9399573802947998,-0.3412770926952362,0.3412770926952362,0.9399573802947998,76.81227111816406,78.9992904663086)" opacity="1" style="display: block;"><g opacity="1" transform="matrix(1,0,0,1,0,0)"><path stroke-linecap="round" stroke-linejoin="round" fill-opacity="0" class="primary" stroke="rgb(42,48,107)" stroke-opacity="1" stroke-width="2" d="M0 0"/></g></g><g transform="matrix(0.9565302729606628,-0.2916158139705658,0.2916158139705658,0.9565302729606628,116.00077056884766,120.5665054321289)" opacity="1" style="display: block;"><g opacity="1" transform="matrix(0.13969159126281738,0.9901950359344482,-0.9901950359344482,0.13969159126281738,0,0)"><path class="secondary" fill="rgb(230,142,110)" fill-opacity="1" d=" M-5.173316955566406,-29.45172691345215 C-3.05031681060791,-28.82072639465332 -2.4103169441223145,-25.444726943969727 -3.2753169536590576,-24.477725982666016 C-4.06831693649292,-23.593727111816406 -4.7143168449401855,-22.5709285736084 -5.454317092895508,-21.80992889404297 C-6.78831672668457,-20.435928344726562 -9.496316909790039,-20.196727752685547 -10.331316947937012,-20.402727127075195 C-17.739316940307617,-22.22172737121582 -19.631866455078125,-14.483786582946777 -17.550867080688477,-11.487786293029785 C-15.728867530822754,-8.8657865524292 1.1078011989593506,-10.901644706726074 12.38332748413086,-8.777815818786621 C28.514301300048828,-5.786862850189209 32.82818603515625,5.431494235992432 30.501184463500977,15.90749454498291 C30.303184509277344,16.797494888305664 40.5434455871582,22.816326141357422 42.29044723510742,24.51352882385254 C44.063446044921875,26.23552894592285 38.16190719604492,33.40925598144531 36.25590896606445,34.58745574951172 C32.12890625,37.138458251953125 19.998327255249023,22.70818519592285 17.439327239990234,25.441184997558594 C11.196328163146973,32.11018371582031 1.4097177982330322,30.12147331237793 -3.1802821159362793,27.09547233581543 C-5.928282260894775,25.284473419189453 -5.824079513549805,22.137474060058594 -5.335079669952393,21.425472259521484 C-3.9720797538757324,19.440473556518555 -2.8880796432495117,17.375473022460938 -1.3850797414779663,15.807473182678223 C-0.272079735994339,14.64547348022461 1.5547178983688354,13.078675270080566 3.480717897415161,14.346675872802734 C7.172718048095703,16.77767562866211 12.121125221252441,19.223981857299805 15.97432804107666,11.730184555053711 C22.63532829284668,-1.2258155345916748 -22.508867263793945,9.895214080810547 -30.53386688232422,-6.861786365509033 C-33.497867584228516,-13.050786018371582 -33.500999450683594,-19.79599952697754 -29.215999603271484,-25.312999725341797 C-28.683000564575195,-26 -35.957000732421875,-33.75 -36.28499984741211,-35.060001373291016 C-36.77899932861328,-37.03900146484375 -34.33100128173828,-42.4640007019043 -27.386999130249023,-43.33100128173828 C-24.701000213623047,-43.66699981689453 -21.274999618530273,-35.31100082397461 -19.07699966430664,-32.652000427246094 C-16.926000595092773,-30.049999237060547 -9.69931697845459,-30.79872703552246 -5.173316955566406,-29.45172691345215z"/><path stroke-linecap="round" stroke-linejoin="round" fill-opacity="0" class="secondary" stroke="rgb(230,142,110)" stroke-opacity="1" stroke-width="0.999" d=" M-5.173316955566406,-29.45172691345215 C-3.05031681060791,-28.82072639465332 -2.4103169441223145,-25.444726943969727 -3.2753169536590576,-24.477725982666016 C-4.06831693649292,-23.593727111816406 -4.7143168449401855,-22.5709285736084 -5.454317092895508,-21.80992889404297 C-6.78831672668457,-20.435928344726562 -9.496316909790039,-20.196727752685547 -10.331316947937012,-20.402727127075195 C-17.739316940307617,-22.22172737121582 -19.631866455078125,-14.483786582946777 -17.550867080688477,-11.487786293029785 C-15.728867530822754,-8.8657865524292 1.1078011989593506,-10.901644706726074 12.38332748413086,-8.777815818786621 C28.514301300048828,-5.786862850189209 32.82818603515625,5.431494235992432 30.501184463500977,15.90749454498291 C30.303184509277344,16.797494888305664 40.5434455871582,22.816326141357422 42.29044723510742,24.51352882385254 C44.063446044921875,26.23552894592285 38.16190719604492,33.40925598144531 36.25590896606445,34.58745574951172 C32.12890625,37.138458251953125 19.998327255249023,22.70818519592285 17.439327239990234,25.441184997558594 C11.196328163146973,32.11018371582031 1.4097177982330322,30.12147331237793 -3.1802821159362793,27.09547233581543 C-5.928282260894775,25.284473419189453 -5.824079513549805,22.137474060058594 -5.335079669952393,21.425472259521484 C-3.9720797538757324,19.440473556518555 -2.8880796432495117,17.375473022460938 -1.3850797414779663,15.807473182678223 C-0.272079735994339,14.64547348022461 1.5547178983688354,13.078675270080566 3.480717897415161,14.346675872802734 C7.172718048095703,16.77767562866211 12.121125221252441,19.223981857299805 15.97432804107666,11.730184555053711 C22.63532829284668,-1.2258155345916748 -22.508867263793945,9.895214080810547 -30.53386688232422,-6.861786365509033 C-33.497867584228516,-13.050786018371582 -33.500999450683594,-19.79599952697754 -29.215999603271484,-25.312999725341797 C-28.683000564575195,-26 -35.957000732421875,-33.75 -36.28499984741211,-35.060001373291016 C-36.77899932861328,-37.03900146484375 -34.33100128173828,-42.4640007019043 -27.386999130249023,-43.33100128173828 C-24.701000213623047,-43.66699981689453 -21.274999618530273,-35.31100082397461 -19.07699966430664,-32.652000427246094 C-16.926000595092773,-30.049999237060547 -9.69931697845459,-30.79872703552246 -5.173316955566406,-29.45172691345215z"/></g></g><g transform="matrix(0.9565302729606628,-0.2916158139705658,0.2916158139705658,0.9565302729606628,129.81314086914062,77.05451965332031)" opacity="1" style="display: block;"><g opacity="1" transform="matrix(1,0,0,1,0,0)"><path stroke-linecap="round" stroke-linejoin="round" fill-opacity="0" class="primary" stroke="rgb(42,48,107)" stroke-opacity="1" stroke-width="2.998" d=" M0.02500000037252903,9.722000122070312 C0.02500000037252903,9.350000381469727 11.211000442504883,-0.42800000309944153 10.395000457763672,-1.246999979019165 C9.20300006866455,-2.443000078201294 2.181999921798706,-9.98900032043457 0.3449999988079071,-9.71399974822998 C-1.8819999694824219,-9.380999565124512 -10.527000427246094,0.6129999756813049 -10.437000274658203,0.796999990940094"/></g></g><g transform="matrix(0.9565302729606628,-0.2916158139705658,0.2916158139705658,0.9565302729606628,90.95840454101562,155.03953552246094)" opacity="1" style="display: block;"><g opacity="1" transform="matrix(1,0,0,1,0,0)"><path stroke-linecap="round" stroke-linejoin="round" fill-opacity="0" class="primary" stroke="rgb(42,48,107)" stroke-opacity="1" stroke-width="2.998" d=" M17.967554092407227,2.250471830368042 C17.86466407775879,1.9766020774841309 11.684574127197266,17.167089462280273 10.92187213897705,17.17966651916504 C7.902863502502441,17.230199813842773 -2.528594493865967,11.111234664916992 -3.5994112491607666,10.715738296508789 C-5.313475131988525,10.082378387451172 2.794682741165161,-3.6726014614105225 3.8217861652374268,-6.130529880523682"/></g></g><g transform="matrix(0.9565302729606628,-0.2916158139705658,0.2916158139705658,0.9565302729606628,110.26995849609375,116.74044036865234)" opacity="1" style="display: block;"><g opacity="1" transform="matrix(0.13969159126281738,0.9901950359344482,-0.9901950359344482,0.13969159126281738,0,0)"><path stroke-linecap="round" stroke-linejoin="round" fill-opacity="0" class="primary" stroke="rgb(42,48,107)" stroke-opacity="1" stroke-width="2.997" d=" M-25.278226852416992,-27.181045532226562 C-22.42143440246582,-31.386280059814453 -10.535442352294922,-42.04995346069336 2.0121166706085205,-26.48221778869629 C-1.1449705362319946,-23.861234664916992 -5.657786846160889,-19.515718460083008 -5.80296516418457,-19.60814666748047 C-13.004053115844727,-24.19390869140625 -18.003339767456055,-15.285106658935547 -15.403179168701172,-12.009222030639648 C-13.419265747070312,-9.510052680969238 1.0945899486541748,-9.100672721862793 12.543195724487305,-8.359084129333496 C32.098262786865234,-7.092541694641113 36.277549743652344,9.065987586975098 30.829320907592773,17.680503845214844 C15.468534469604492,41.97005081176758 -3.063455104827881,27.748760223388672 -7.558614730834961,23.476919174194336 C-7.894352436065674,23.157657623291016 -1.0052810907363892,15.304608345031738 0.6411149501800537,13.213337898254395 C1.7493789196014404,11.805755615234375 12.30926513671875,23.61472511291504 17.43129539489746,11.86816120147705 C23.25082778930664,-1.4786627292633057 -18.989307403564453,9.634390830993652 -28.059162139892578,-6.569872856140137 C-31.40920066833496,-12.5546875 -29.201913833618164,-21.405624389648438 -25.278226852416992,-27.181045532226562z"/></g></g><g transform="matrix(0.9565302729606628,-0.2916158139705658,0.2916158139705658,0.9565302729606628,75.01350402832031,129.16693115234375)" opacity="1" style="display: block;"><g opacity="1" transform="matrix(1,0,0,1,0,0)"><path stroke-linecap="round" stroke-linejoin="round" fill-opacity="0" class="primary" stroke="rgb(42,48,107)" stroke-opacity="1" stroke-width="2.003" d="M0 0"/></g></g><g transform="matrix(0.9565302729606628,-0.2916158139705658,0.2916158139705658,0.9565302729606628,143.2193145751953,98.95481872558594)" opacity="1" style="display: block;"><g opacity="1" transform="matrix(0.9336367249488831,-0.35822129249572754,0.35822129249572754,0.9336367249488831,0,0)"><path stroke-linecap="round" stroke-linejoin="round" fill-opacity="0" class="primary" stroke="rgb(42,48,107)" stroke-opacity="1" stroke-width="2.003" d="M0 0"/></g></g><g transform="matrix(0.9399573802947998,-0.3412770926952362,0.3412770926952362,0.9399573802947998,158.69935607910156,63.217308044433594)" opacity="1" style="display: block;"><g opacity="1" transform="matrix(1,0,0,1,0,0)"><path stroke-linecap="round" stroke-linejoin="round" fill-opacity="0" class="primary" stroke="rgb(42,48,107)" stroke-opacity="1" stroke-width="2" d="M0 0"/></g></g></g></g></svg>