<svg xmlns="http://www.w3.org/2000/svg" xmlns:xlink="http://www.w3.org/1999/xlink" viewBox="0 0 192 192" width="192" height="192" preserveAspectRatio="xMidYMid meet" style="width: 100%; height: 100%; transform: translate3d(0px, 0px, 0px); content-visibility: visible;"><defs><clipPath id="__lottie_element_3925"><rect width="192" height="192" x="0" y="0"/></clipPath><clipPath id="__lottie_element_3927"><path d="M0,0 L192,0 L192,192 L0,192z"/></clipPath><g id="__lottie_element_3935"><g transform="matrix(-1.559999942779541,0,0,-2.119999885559082,72.71800231933594,87.49799346923828)" opacity="1" style="display: block;"><g opacity="0" transform="matrix(1,0,0,1,0,0)"><path fill="rgb(67,67,67)" fill-opacity="1" d=" M-58.43000030517578,-44.48899841308594 C-57.97200012207031,-43.47700119018555 -56.78200149536133,-43.060001373291016 -55.77000045776367,-43.55699920654297 C-54.757999420166016,-44.05400085449219 -54.310001373291016,-45.27799987792969 -54.768001556396484,-46.290000915527344 C-54.742000579833984,-46.334999084472656 -54.77299880981445,-46.30500030517578 -54.77299880981445,-46.30500030517578 C-54.77299880981445,-46.30500030517578 -54.775001525878906,-46.29600143432617 -54.77899932861328,-46.30400085449219 C-55.244998931884766,-47.29899978637695 -56.44200134277344,-47.70199966430664 -57.45500183105469,-47.20399856567383 C-58.46799850463867,-46.707000732421875 -58.9119987487793,-45.49599838256836 -58.44599914550781,-44.50199890136719 C-58.439998626708984,-44.51499938964844 -58.448001861572266,-44.516998291015625 -58.448001861572266,-44.516998291015625 C-58.448001861572266,-44.516998291015625 -58.44499969482422,-44.520999908447266 -58.43000030517578,-44.48899841308594z"/></g><g opacity="0" transform="matrix(0.9975640773773193,-0.06975647062063217,-0.06975647062063217,-0.9975640773773193,10.67947006225586,-4.087581634521484)"><path fill="rgb(67,67,67)" fill-opacity="1" d=" M-58.43000030517578,-44.48899841308594 C-57.97200012207031,-43.47700119018555 -56.78200149536133,-43.060001373291016 -55.77000045776367,-43.55699920654297 C-54.757999420166016,-44.05400085449219 -54.310001373291016,-45.27799987792969 -54.768001556396484,-46.290000915527344 C-54.742000579833984,-46.334999084472656 -54.77299880981445,-46.30500030517578 -54.77299880981445,-46.30500030517578 C-54.77299880981445,-46.30500030517578 -54.775001525878906,-46.29600143432617 -54.77899932861328,-46.30400085449219 C-55.244998931884766,-47.29899978637695 -56.44200134277344,-47.70199966430664 -57.45500183105469,-47.20399856567383 C-58.46799850463867,-46.707000732421875 -58.9119987487793,-45.49599838256836 -58.44599914550781,-44.50199890136719 C-58.439998626708984,-44.51499938964844 -58.448001861572266,-44.516998291015625 -58.448001861572266,-44.516998291015625 C-58.448001861572266,-44.516998291015625 -58.44499969482422,-44.520999908447266 -58.43000030517578,-44.48899841308594z"/></g><g opacity="0" transform="matrix(1,0,0,1,22,0)"><path fill="rgb(67,67,67)" fill-opacity="1" d=" M-58.43000030517578,-44.48899841308594 C-57.97200012207031,-43.47700119018555 -56.78200149536133,-43.060001373291016 -55.77000045776367,-43.55699920654297 C-54.757999420166016,-44.05400085449219 -54.310001373291016,-45.27799987792969 -54.768001556396484,-46.290000915527344 C-54.742000579833984,-46.334999084472656 -54.77299880981445,-46.30500030517578 -54.77299880981445,-46.30500030517578 C-54.77299880981445,-46.30500030517578 -54.775001525878906,-46.29600143432617 -54.77899932861328,-46.30400085449219 C-55.244998931884766,-47.29899978637695 -56.44200134277344,-47.70199966430664 -57.45500183105469,-47.20399856567383 C-58.46799850463867,-46.707000732421875 -58.9119987487793,-45.49599838256836 -58.44599914550781,-44.50199890136719 C-58.439998626708984,-44.51499938964844 -58.448001861572266,-44.516998291015625 -58.448001861572266,-44.516998291015625 C-58.448001861572266,-44.516998291015625 -58.44499969482422,-44.520999908447266 -58.43000030517578,-44.48899841308594z"/></g><g opacity="0" transform="matrix(0.9975640773773193,-0.06975647062063217,-0.06975647062063217,-0.9975640773773193,32.679473876953125,-4.087581634521484)"><path fill="rgb(67,67,67)" fill-opacity="1" d=" M-58.43000030517578,-44.48899841308594 C-57.97200012207031,-43.47700119018555 -56.78200149536133,-43.060001373291016 -55.77000045776367,-43.55699920654297 C-54.757999420166016,-44.05400085449219 -54.310001373291016,-45.27799987792969 -54.768001556396484,-46.290000915527344 C-54.742000579833984,-46.334999084472656 -54.77299880981445,-46.30500030517578 -54.77299880981445,-46.30500030517578 C-54.77299880981445,-46.30500030517578 -54.775001525878906,-46.29600143432617 -54.77899932861328,-46.30400085449219 C-55.244998931884766,-47.29899978637695 -56.44200134277344,-47.70199966430664 -57.45500183105469,-47.20399856567383 C-58.46799850463867,-46.707000732421875 -58.9119987487793,-45.49599838256836 -58.44599914550781,-44.50199890136719 C-58.439998626708984,-44.51499938964844 -58.448001861572266,-44.516998291015625 -58.448001861572266,-44.516998291015625 C-58.448001861572266,-44.516998291015625 -58.44499969482422,-44.520999908447266 -58.43000030517578,-44.48899841308594z"/></g><g opacity="0" transform="matrix(1,0,0,1,44,0)"><path fill="rgb(67,67,67)" fill-opacity="1" d=" M-58.43000030517578,-44.48899841308594 C-57.97200012207031,-43.47700119018555 -56.78200149536133,-43.060001373291016 -55.77000045776367,-43.55699920654297 C-54.757999420166016,-44.05400085449219 -54.310001373291016,-45.27799987792969 -54.768001556396484,-46.290000915527344 C-54.742000579833984,-46.334999084472656 -54.77299880981445,-46.30500030517578 -54.77299880981445,-46.30500030517578 C-54.77299880981445,-46.30500030517578 -54.775001525878906,-46.29600143432617 -54.77899932861328,-46.30400085449219 C-55.244998931884766,-47.29899978637695 -56.44200134277344,-47.70199966430664 -57.45500183105469,-47.20399856567383 C-58.46799850463867,-46.707000732421875 -58.9119987487793,-45.49599838256836 -58.44599914550781,-44.50199890136719 C-58.439998626708984,-44.51499938964844 -58.448001861572266,-44.516998291015625 -58.448001861572266,-44.516998291015625 C-58.448001861572266,-44.516998291015625 -58.44499969482422,-44.520999908447266 -58.43000030517578,-44.48899841308594z"/></g><g opacity="0" transform="matrix(0.9975640773773193,-0.06975647062063217,-0.06975647062063217,-0.9975640773773193,54.67947006225586,-4.087581634521484)"><path fill="rgb(67,67,67)" fill-opacity="1" d=" M-58.43000030517578,-44.48899841308594 C-57.97200012207031,-43.47700119018555 -56.78200149536133,-43.060001373291016 -55.77000045776367,-43.55699920654297 C-54.757999420166016,-44.05400085449219 -54.310001373291016,-45.27799987792969 -54.768001556396484,-46.290000915527344 C-54.742000579833984,-46.334999084472656 -54.77299880981445,-46.30500030517578 -54.77299880981445,-46.30500030517578 C-54.77299880981445,-46.30500030517578 -54.775001525878906,-46.29600143432617 -54.77899932861328,-46.30400085449219 C-55.244998931884766,-47.29899978637695 -56.44200134277344,-47.70199966430664 -57.45500183105469,-47.20399856567383 C-58.46799850463867,-46.707000732421875 -58.9119987487793,-45.49599838256836 -58.44599914550781,-44.50199890136719 C-58.439998626708984,-44.51499938964844 -58.448001861572266,-44.516998291015625 -58.448001861572266,-44.516998291015625 C-58.448001861572266,-44.516998291015625 -58.44499969482422,-44.520999908447266 -58.43000030517578,-44.48899841308594z"/></g><g opacity="0" transform="matrix(1,0,0,1,66,0)"><path fill="rgb(67,67,67)" fill-opacity="1" d=" M-58.43000030517578,-44.48899841308594 C-57.97200012207031,-43.47700119018555 -56.78200149536133,-43.060001373291016 -55.77000045776367,-43.55699920654297 C-54.757999420166016,-44.05400085449219 -54.310001373291016,-45.27799987792969 -54.768001556396484,-46.290000915527344 C-54.742000579833984,-46.334999084472656 -54.77299880981445,-46.30500030517578 -54.77299880981445,-46.30500030517578 C-54.77299880981445,-46.30500030517578 -54.775001525878906,-46.29600143432617 -54.77899932861328,-46.30400085449219 C-55.244998931884766,-47.29899978637695 -56.44200134277344,-47.70199966430664 -57.45500183105469,-47.20399856567383 C-58.46799850463867,-46.707000732421875 -58.9119987487793,-45.49599838256836 -58.44599914550781,-44.50199890136719 C-58.439998626708984,-44.51499938964844 -58.448001861572266,-44.516998291015625 -58.448001861572266,-44.516998291015625 C-58.448001861572266,-44.516998291015625 -58.44499969482422,-44.520999908447266 -58.43000030517578,-44.48899841308594z"/></g></g></g><g id="__lottie_element_3942"><g transform="matrix(1,0,0,1,96.08900451660156,92.75799560546875)" opacity="1" style="display: block;"><path fill="rgb(255,0,0)" fill-opacity="1" d=" M-53.00400161743164,-71.91999816894531 C-53.027000427246094,-71.10600280761719 -50.000999450683594,71.43399810791016 -49.770999908447266,72.18099975585938 C-49.62799835205078,72.64600372314453 52.67399978637695,72.30999755859375 52.74100112915039,71.33499908447266 C52.775001525878906,70.83399963378906 52.849998474121094,52.86600112915039 52.9109992980957,29.83099937438965 C52.97100067138672,7.341000080108643 53.018001556396484,-19.979999542236328 53.000999450683594,-40.59299850463867 C52.98899841308594,-55.15599822998047 36.96799850463867,-49.66899871826172 33.70600128173828,-52.5890007019043 C31.138999938964844,-54.8849983215332 36.98699951171875,-72.26100158691406 25.621000289916992,-72.31500244140625 C-5.808000087738037,-72.46700286865234 -52.9900016784668,-72.4010009765625 -53.00400161743164,-71.91999816894531z"/><g opacity="1" transform="matrix(1,0,0,1,0,0)"><path stroke-linecap="round" stroke-linejoin="round" fill-opacity="0" class="primary" stroke="rgb(29,77,141)" stroke-opacity="1" stroke-width="3" d=" M-53.00400161743164,-71.91999816894531 C-53.027000427246094,-71.10600280761719 -50.000999450683594,71.43399810791016 -49.770999908447266,72.18099975585938 C-49.62799835205078,72.64600372314453 52.67399978637695,72.30999755859375 52.74100112915039,71.33499908447266 C52.775001525878906,70.83399963378906 52.849998474121094,52.86600112915039 52.9109992980957,29.83099937438965 C52.97100067138672,7.341000080108643 53.018001556396484,-19.979999542236328 53.000999450683594,-40.59299850463867 C52.98899841308594,-55.15599822998047 36.96799850463867,-49.66899871826172 33.70600128173828,-52.5890007019043 C31.138999938964844,-54.8849983215332 36.98699951171875,-72.26100158691406 25.621000289916992,-72.31500244140625 C-5.808000087738037,-72.46700286865234 -52.9900016784668,-72.4010009765625 -53.00400161743164,-71.91999816894531z"/></g></g></g><clipPath id="__lottie_element_3964"><path d="M0,0 L192,0 L192,192 L0,192z"/></clipPath><clipPath id="__lottie_element_3965"><path fill="#ffffff" clip-rule="nonzero" d=" M43.266998291015625,21 C43.24399948120117,21.81399917602539 46.27000045776367,164.35400390625 46.5,165.1009979248047 C46.643001556396484,165.5659942626953 148.94500732421875,165.22900390625 149.01199340820312,164.25399780273438 C149.04600524902344,163.7530059814453 149.12100219726562,145.78500366210938 149.1820068359375,122.75 C149.24200439453125,100.26000213623047 149.28900146484375,72.93900299072266 149.27200317382812,52.32600021362305 C149.25999450683594,37.76300048828125 133.24000549316406,43.250999450683594 129.97799682617188,40.33100128173828 C127.41100311279297,38.03499984741211 133.25900268554688,20.659000396728516 121.89299774169922,20.604999542236328 C90.46399688720703,20.452999114990234 43.28099822998047,20.518999099731445 43.266998291015625,21" fill-opacity="1"/></clipPath><mask id="__lottie_element_3942_1" mask-type="alpha"><use xmlns:ns1="http://www.w3.org/1999/xlink" ns1:href="#__lottie_element_3942"/></mask><filter id="__lottie_element_3967" filterUnits="objectBoundingBox" x="0%" y="0%" width="100%" height="100%"><feComponentTransfer in="SourceGraphic"><feFuncA type="table" tableValues="1.0 0.0"/></feComponentTransfer></filter><mask id="__lottie_element_3935_2" mask-type="alpha" maskUnits="userSpaceOnUse"><g filter="url(#__lottie_element_3967)"><rect width="192" height="192" x="0" y="0" fill="#ffffff" opacity="0"/><use xmlns:ns2="http://www.w3.org/1999/xlink" ns2:href="#__lottie_element_3935"/></g></mask></defs><g clip-path="url(#__lottie_element_3925)"><g clip-path="url(#__lottie_element_3927)" transform="matrix(1,0,0,1,0,0)" opacity="1" style="display: block;"><g mask="url(#__lottie_element_3935_2)" style="display: block;"><g transform="matrix(1,0,0,1,140.89401245117188,31.212993621826172)" opacity="1"><g opacity="1" transform="matrix(1,0,0,1,0,0)"><path class="secondary" fill="rgb(230,142,110)" fill-opacity="1" d=" M9.807000160217285,12.218999862670898 C10.369999885559082,12.685999870300293 11.180000305175781,12.04699993133545 11.109000205993652,11.446000099182129 C9.701000213623047,-0.48500001430511475 -3.0789999961853027,-11.263999938964844 -9.972000122070312,-12.366000175476074 C-10.723999977111816,-12.486000061035156 -11.380000114440918,-11.842000007629395 -11.005999565124512,-11.083000183105469 C-9.696000099182129,-8.42199993133545 -6.743000030517578,-1.7790000438690186 -7.607999801635742,5.926000118255615 C-7.849999904632568,8.079000473022461 1.4299999475479126,5.26200008392334 9.807000160217285,12.218999862670898z"/><path stroke-linecap="round" stroke-linejoin="round" fill-opacity="0" class="secondary" stroke="rgb(230,142,110)" stroke-opacity="1" stroke-width="0.998" d=" M9.807000160217285,12.218999862670898 C10.369999885559082,12.685999870300293 11.180000305175781,12.04699993133545 11.109000205993652,11.446000099182129 C9.701000213623047,-0.48500001430511475 -3.0789999961853027,-11.263999938964844 -9.972000122070312,-12.366000175476074 C-10.723999977111816,-12.486000061035156 -11.380000114440918,-11.842000007629395 -11.005999565124512,-11.083000183105469 C-9.696000099182129,-8.42199993133545 -6.743000030517578,-1.7790000438690186 -7.607999801635742,5.926000118255615 C-7.849999904632568,8.079000473022461 1.4299999475479126,5.26200008392334 9.807000160217285,12.218999862670898z"/></g></g></g><g mask="url(#__lottie_element_3942_1)" style="display: block;"><g transform="matrix(1,0,0,1,100.38800811767578,115.29499816894531)" opacity="1"><g opacity="1" transform="matrix(1,0.000052359879191499203,-0.000052359879191499203,1,0,0)"><path class="secondary" fill="rgb(230,142,110)" fill-opacity="1" d=" M-1.9160000085830688,22.000999450683594 C-21.38599967956543,13.890000343322754 -19.323999404907227,-12.071999549865723 -19.10099983215332,-16.781999588012695 C-6.21999979019165,-26.483999252319336 12.972999572753906,-22.618999481201172 18.85300064086914,-16.746000289916992 C19.05900001525879,-16.540000915527344 22.948999404907227,13.86400032043457 2.078000068664551,21.951000213623047 C1.2000000476837158,22.291000366210938 0.4410000145435333,22.867000579833984 -0.21899999678134918,22.642000198364258 C-0.8019999861717224,22.44300079345703 -1.3680000305175781,22.229000091552734 -1.9160000085830688,22.000999450683594z"/><path stroke-linecap="round" stroke-linejoin="round" fill-opacity="0" class="secondary" stroke="rgb(230,142,110)" stroke-opacity="1" stroke-width="1.001" d=" M-1.9160000085830688,22.000999450683594 C-21.38599967956543,13.890000343322754 -19.323999404907227,-12.071999549865723 -19.10099983215332,-16.781999588012695 C-6.21999979019165,-26.483999252319336 12.972999572753906,-22.618999481201172 18.85300064086914,-16.746000289916992 C19.05900001525879,-16.540000915527344 22.948999404907227,13.86400032043457 2.078000068664551,21.951000213623047 C1.2000000476837158,22.291000366210938 0.4410000145435333,22.867000579833984 -0.21899999678134918,22.642000198364258 C-0.8019999861717224,22.44300079345703 -1.3680000305175781,22.229000091552734 -1.9160000085830688,22.000999450683594z"/></g></g></g><g transform="matrix(1,0,0,1,96.08900451660156,92.75799560546875)" opacity="1" style="display: block;"><g opacity="1" transform="matrix(1,0,0,1,0,0)"><path stroke-linecap="round" stroke-linejoin="round" fill-opacity="0" class="primary" stroke="rgb(29,77,141)" stroke-opacity="1" stroke-width="3" d=" M-53.00400161743164,-71.91999816894531 C-53.027000427246094,-71.10600280761719 -50.000999450683594,71.43399810791016 -49.770999908447266,72.18099975585938 C-49.62799835205078,72.64600372314453 52.67399978637695,72.30999755859375 52.74100112915039,71.33499908447266 C52.775001525878906,70.83399963378906 52.849998474121094,52.86600112915039 52.9109992980957,29.83099937438965 C52.97100067138672,7.341000080108643 53.018001556396484,-19.979999542236328 53.000999450683594,-40.59299850463867 C52.98899841308594,-55.15599822998047 36.96799850463867,-49.66899871826172 33.70600128173828,-52.5890007019043 C31.138999938964844,-54.8849983215332 36.98699951171875,-72.26100158691406 25.621000289916992,-72.31500244140625 C-5.808000087738037,-72.46700286865234 -52.9900016784668,-72.4010009765625 -53.00400161743164,-71.91999816894531z"/></g></g><g transform="matrix(1,0,0,1,135.72801208496094,36.16199493408203)" opacity="1" style="display: block;"><g opacity="1" transform="matrix(1,0,0,1,0,0)"><path stroke-linecap="round" stroke-linejoin="round" fill-opacity="0" class="primary" stroke="rgb(29,77,141)" stroke-opacity="1" stroke-width="1.997" d=" M13.789999961853027,16.215999603271484 C13.612000465393066,1.5110000371932983 -3.6110000610351562,-17.023000717163086 -13.789999961853027,-16.187999725341797"/></g></g><g transform="matrix(1,0,0,1,33.582008361816406,122.14599609375)" opacity="1" style="display: block;"><g opacity="1" transform="matrix(1,0,0,1,0,0)"><path stroke-linecap="round" stroke-linejoin="round" fill-opacity="0" class="primary" stroke="rgb(29,77,141)" stroke-opacity="1" stroke-width="2" d=" M0.3659999966621399,19.680999755859375 C-0.3700000047683716,-5.441999912261963 -1.3519999980926514,-38.388999938964844 -1.534000039100647,-41.29600143432617"/></g></g><g transform="matrix(1,0,0,1,33.582008361816406,122.14599609375)" opacity="1" style="display: block;"><g opacity="1" transform="matrix(1,0,0,1,0,0)"><path stroke-linecap="round" stroke-linejoin="round" fill-opacity="0" class="primary" stroke="rgb(29,77,141)" stroke-opacity="1" stroke-width="2" d=" M1.5269999504089355,40.2239990234375 C1.4869999885559082,36.3849983215332 1.4429999589920044,31.43400001525879 1.3990000486373901,25.8700008392334"/></g></g><g transform="matrix(1,0,0,1,69.14000701904297,176.31698608398438)" opacity="1" style="display: block;"><g opacity="1" transform="matrix(1,0,0,1,0,0)"><path stroke-linecap="round" stroke-linejoin="round" fill-opacity="0" class="primary" stroke="rgb(29,77,141)" stroke-opacity="1" stroke-width="2" d=" M29.160999298095703,-0.029999999329447746 C8.071000099182129,0.052000001072883606 -23.96299934387207,0.1809999942779541 -28.742000579833984,-0.07800000160932541"/></g></g><g transform="matrix(1,0,0,1,160.44400024414062,65.10899353027344)" opacity="1" style="display: block;"><g opacity="1" transform="matrix(1,0,0,1,0,0)"><path stroke-linecap="round" stroke-linejoin="round" fill-opacity="0" class="primary" stroke="rgb(29,77,141)" stroke-opacity="1" stroke-width="2" d=" M-0.05000000074505806,44.36000061035156 C-0.23199999332427979,37.625 0.019999999552965164,-23.91699981689453 0.1420000046491623,-44.89400100708008"/></g></g><g clip-path="url(#__lottie_element_3964)" transform="matrix(1,0,0,1,0.00000762939453125,-0.00000762939453125)" opacity="1" style="display: block;"><g clip-path="url(#__lottie_element_3965)"><g transform="matrix(1,0,0,1,96.46299743652344,63.80799865722656)" opacity="1" style="display: block;"><g opacity="1" transform="matrix(1,0,0,1,0,0)"><path stroke-linecap="round" stroke-linejoin="round" fill-opacity="0" class="primary" stroke="rgb(29,77,141)" stroke-opacity="1" stroke-width="2" d=" M27.691999435424805,9.960000038146973 C16.73900032043457,9.960000038146973 -25.74799919128418,10.406999588012695 -27.582000732421875,9.937000274658203 M27.458999633789062,0.15299999713897705 C16.506000518798828,0.15299999713897705 -25.981000900268555,0.6000000238418579 -27.815000534057617,0.12999999523162842 M27.815000534057617,-10.128999710083008 C16.86199951171875,-10.128999710083008 -25.625,-9.682000160217285 -27.458999633789062,-10.152000427246094"/></g></g><g transform="matrix(1,0,0,1,97.15399932861328,117.86900329589844)" opacity="1" style="display: block;"><g opacity="1" transform="matrix(1,0,0,1,0,0)"><path stroke-linecap="round" stroke-linejoin="round" fill-opacity="0" class="primary" stroke="rgb(29,77,141)" stroke-opacity="1" stroke-width="2.998" d=" M-2.5910000801086426,28.941999435424805 C-28.920000076293945,18.27199935913086 -26.131999969482422,-15.880999565124512 -25.829999923706055,-22.076000213623047 C-8.41100025177002,-34.8390007019043 17.54400062561035,-29.756000518798828 25.496000289916992,-22.030000686645508 C25.77400016784668,-21.760000228881836 31.034000396728516,18.238000869750977 2.809999942779541,28.875999450683594 C1.6230000257492065,29.322999954223633 0.5950000286102295,30.083999633789062 -0.296999990940094,29.78700065612793 C-1.0850000381469727,29.524999618530273 -1.850000023841858,29.242000579833984 -2.5910000801086426,28.941999435424805z"/></g></g><g transform="matrix(1,0,0,1,97.14600372314453,117.61699676513672)" opacity="1" style="display: block;"><g opacity="1" transform="matrix(1,0.000052359879191499203,-0.000052359879191499203,1,0,0)"><path stroke-linecap="round" stroke-linejoin="round" fill-opacity="0" class="primary" stroke="rgb(29,77,141)" stroke-opacity="1" stroke-width="1.999" d=" M-1.9160000085830688,22.000999450683594 C-21.38599967956543,13.890000343322754 -19.323999404907227,-12.071999549865723 -19.10099983215332,-16.781999588012695 C-6.21999979019165,-26.483999252319336 12.972999572753906,-22.618999481201172 18.85300064086914,-16.746000289916992 C19.05900001525879,-16.540000915527344 22.948999404907227,13.86400032043457 2.078000068664551,21.951000213623047 C1.2000000476837158,22.291000366210938 0.4410000145435333,22.867000579833984 -0.21899999678134918,22.642000198364258 C-0.8019999861717224,22.44300079345703 -1.3680000305175781,22.229000091552734 -1.9160000085830688,22.000999450683594z"/></g></g><g transform="matrix(1,0,0,1,75.2770004272461,136.47999572753906)" opacity="1" style="display: block;"><g opacity="1" transform="matrix(1,0,0,1,0,0)"><path stroke-linecap="round" stroke-linejoin="round" fill-opacity="0" class="primary" stroke="rgb(29,77,141)" stroke-opacity="1" stroke-width="1.999" d=" M-8.817000389099121,-7.4029998779296875 C-9.26099967956543,-8.25100040435791 -10.170999526977539,-10.894000053405762 -10.954999923706055,-14.204000473022461"/></g></g><g transform="matrix(1,0,0,1,75.2770004272461,136.47999572753906)" opacity="1" style="display: block;"><g opacity="1" transform="matrix(1,0,0,1,0,0)"><path stroke-linecap="round" stroke-linejoin="round" fill-opacity="0" class="primary" stroke="rgb(29,77,141)" stroke-opacity="1" stroke-width="1.999" d=" M10.937000274658203,14.11400032043457 C8.32699966430664,13.128999710083008 -0.8489999771118164,8.378000259399414 -6.800000190734863,-2.23799991607666"/></g></g><g transform="matrix(1,0,0,1,85.33999633789062,113.23500061035156)" opacity="1" style="display: block;"><g opacity="1" transform="matrix(1,0,0,1,0,0)"><path stroke-linecap="round" stroke-linejoin="round" fill-opacity="0" class="primary" stroke="rgb(29,77,141)" stroke-opacity="1" stroke-width="1.999" d=" M1.2610000371932983,8.911999702453613 C-1.1180000305175781,1.8559999465942383 -1.2239999771118164,-4.803999900817871 -1.0770000219345093,-9.003000259399414"/></g></g></g></g></g></g></svg>