<svg xmlns="http://www.w3.org/2000/svg" xmlns:xlink="http://www.w3.org/1999/xlink" viewBox="0 0 192 192" width="192" height="192" preserveAspectRatio="xMidYMid meet" style="width: 100%; height: 100%; transform: translate3d(0px, 0px, 0px); content-visibility: visible;"><defs><clipPath id="__lottie_element_5912"><rect width="192" height="192" x="0" y="0"/></clipPath><clipPath id="__lottie_element_5914"><path d="M0,0 L192,0 L192,192 L0,192z"/></clipPath><g id="__lottie_element_5928"><g transform="matrix(1,0,0,1,97,71.5)" opacity="1" style="display: block;"><path fill="rgb(255,0,0)" fill-opacity="1" d=" M0.0010000000474974513,-60.5 C-6.204999923706055,-60.5 -11.678000450134277,-57.04399871826172 -13.965999603271484,-52.55699920654297 C-18.172000885009766,-55.290000915527344 -24.625999450683594,-55.52299880981445 -30,-52.39400100708008 C-35.374000549316406,-49.26499938964844 -38.400001525878906,-43.513999938964844 -38.15700149536133,-38.474998474121094 C-43.15399932861328,-38.720001220703125 -48.858001708984375,-35.66899871826172 -51.96099853515625,-30.25 C-55.06399917602539,-24.83099937438965 -54.83300018310547,-18.323999404907227 -52.12300109863281,-14.083000183105469 C-56.573001861572266,-11.776000022888184 -60,-6.256999969482422 -60,0.0010000000474974513 C-60,6.257999897003174 -56.573001861572266,11.776000022888184 -52.12300109863281,14.083000183105469 C-54.83300018310547,18.323999404907227 -55.06399917602539,24.83099937438965 -51.96099853515625,30.25 C-48.858001708984375,35.66999816894531 -43.15399932861328,38.72200012207031 -38.15700149536133,38.474998474121094 C-38.400001525878906,43.51499938964844 -35.374000549316406,49.26499938964844 -30,52.39400100708008 C-24.625999450683594,55.52299880981445 -18.172000885009766,55.29100036621094 -13.965999603271484,52.55699920654297 C-11.678000450134277,57.04399871826172 -6.204999923706055,60.5 0.0010000000474974513,60.5 C6.205999851226807,60.5 11.678000450134277,57.04399871826172 13.965999603271484,52.55699920654297 C18.172000885009766,55.29100036621094 24.625999450683594,55.52299880981445 30,52.39400100708008 C35.375,49.26499938964844 38.402000427246094,43.51499938964844 38.15700149536133,38.474998474121094 C43.154998779296875,38.72200012207031 48.858001708984375,35.66999816894531 51.96099853515625,30.25 C55.06399917602539,24.83099937438965 54.83399963378906,18.323999404907227 52.124000549316406,14.083000183105469 C56.573001861572266,11.776000022888184 60,6.257999897003174 60,0.0010000000474974513 C60,-6.256999969482422 56.573001861572266,-11.776000022888184 52.124000549316406,-14.083000183105469 C54.83399963378906,-18.323999404907227 55.06399917602539,-24.83099937438965 51.96099853515625,-30.25 C48.858001708984375,-35.66899871826172 43.154998779296875,-38.720001220703125 38.15700149536133,-38.474998474121094 C38.402000427246094,-43.513999938964844 35.375,-49.26499938964844 30,-52.39400100708008 C24.625999450683594,-55.52299880981445 18.172000885009766,-55.290000915527344 13.965999603271484,-52.55699920654297 C11.678000450134277,-57.04399871826172 6.205999851226807,-60.5 0.0010000000474974513,-60.5z"/><g opacity="1" transform="matrix(1,0,0,1,0,0)"><path stroke-linecap="round" stroke-linejoin="round" fill-opacity="0" stroke="rgb(42,48,107)" stroke-opacity="1" stroke-width="3.001" d=" M0.0010000000474974513,-60.5 C-6.204999923706055,-60.5 -11.678000450134277,-57.04399871826172 -13.965999603271484,-52.55699920654297 C-18.172000885009766,-55.290000915527344 -24.625999450683594,-55.52299880981445 -30,-52.39400100708008 C-35.374000549316406,-49.26499938964844 -38.400001525878906,-43.513999938964844 -38.15700149536133,-38.474998474121094 C-43.15399932861328,-38.720001220703125 -48.858001708984375,-35.66899871826172 -51.96099853515625,-30.25 C-55.06399917602539,-24.83099937438965 -54.83300018310547,-18.323999404907227 -52.12300109863281,-14.083000183105469 C-56.573001861572266,-11.776000022888184 -60,-6.256999969482422 -60,0.0010000000474974513 C-60,6.257999897003174 -56.573001861572266,11.776000022888184 -52.12300109863281,14.083000183105469 C-54.83300018310547,18.323999404907227 -55.06399917602539,24.83099937438965 -51.96099853515625,30.25 C-48.858001708984375,35.66999816894531 -43.15399932861328,38.72200012207031 -38.15700149536133,38.474998474121094 C-38.400001525878906,43.51499938964844 -35.374000549316406,49.26499938964844 -30,52.39400100708008 C-24.625999450683594,55.52299880981445 -18.172000885009766,55.29100036621094 -13.965999603271484,52.55699920654297 C-11.678000450134277,57.04399871826172 -6.204999923706055,60.5 0.0010000000474974513,60.5 C6.205999851226807,60.5 11.678000450134277,57.04399871826172 13.965999603271484,52.55699920654297 C18.172000885009766,55.29100036621094 24.625999450683594,55.52299880981445 30,52.39400100708008 C35.375,49.26499938964844 38.402000427246094,43.51499938964844 38.15700149536133,38.474998474121094 C43.154998779296875,38.72200012207031 48.858001708984375,35.66999816894531 51.96099853515625,30.25 C55.06399917602539,24.83099937438965 54.83399963378906,18.323999404907227 52.124000549316406,14.083000183105469 C56.573001861572266,11.776000022888184 60,6.257999897003174 60,0.0010000000474974513 C60,-6.256999969482422 56.573001861572266,-11.776000022888184 52.124000549316406,-14.083000183105469 C54.83399963378906,-18.323999404907227 55.06399917602539,-24.83099937438965 51.96099853515625,-30.25 C48.858001708984375,-35.66899871826172 43.154998779296875,-38.720001220703125 38.15700149536133,-38.474998474121094 C38.402000427246094,-43.513999938964844 35.375,-49.26499938964844 30,-52.39400100708008 C24.625999450683594,-55.52299880981445 18.172000885009766,-55.290000915527344 13.965999603271484,-52.55699920654297 C11.678000450134277,-57.04399871826172 6.205999851226807,-60.5 0.0010000000474974513,-60.5z"/></g></g></g><g id="__lottie_element_5934"><g transform="matrix(1,0,0,1,97,71.5)" opacity="1" style="display: block;"><path fill="rgb(255,0,0)" fill-opacity="1" d=" M0.0010000000474974513,-60.5 C-6.204999923706055,-60.5 -11.678000450134277,-57.04399871826172 -13.965999603271484,-52.55699920654297 C-18.172000885009766,-55.290000915527344 -24.625999450683594,-55.52299880981445 -30,-52.39400100708008 C-35.374000549316406,-49.26499938964844 -38.400001525878906,-43.513999938964844 -38.15700149536133,-38.474998474121094 C-43.15399932861328,-38.720001220703125 -48.858001708984375,-35.66899871826172 -51.96099853515625,-30.25 C-55.06399917602539,-24.83099937438965 -54.83300018310547,-18.323999404907227 -52.12300109863281,-14.083000183105469 C-56.573001861572266,-11.776000022888184 -60,-6.256999969482422 -60,0.0010000000474974513 C-60,6.257999897003174 -56.573001861572266,11.776000022888184 -52.12300109863281,14.083000183105469 C-54.83300018310547,18.323999404907227 -55.06399917602539,24.83099937438965 -51.96099853515625,30.25 C-48.858001708984375,35.66999816894531 -43.15399932861328,38.72200012207031 -38.15700149536133,38.474998474121094 C-38.400001525878906,43.51499938964844 -35.374000549316406,49.26499938964844 -30,52.39400100708008 C-24.625999450683594,55.52299880981445 -18.172000885009766,55.29100036621094 -13.965999603271484,52.55699920654297 C-11.678000450134277,57.04399871826172 -6.204999923706055,60.5 0.0010000000474974513,60.5 C6.205999851226807,60.5 11.678000450134277,57.04399871826172 13.965999603271484,52.55699920654297 C18.172000885009766,55.29100036621094 24.625999450683594,55.52299880981445 30,52.39400100708008 C35.375,49.26499938964844 38.402000427246094,43.51499938964844 38.15700149536133,38.474998474121094 C43.154998779296875,38.72200012207031 48.858001708984375,35.66999816894531 51.96099853515625,30.25 C55.06399917602539,24.83099937438965 54.83399963378906,18.323999404907227 52.124000549316406,14.083000183105469 C56.573001861572266,11.776000022888184 60,6.257999897003174 60,0.0010000000474974513 C60,-6.256999969482422 56.573001861572266,-11.776000022888184 52.124000549316406,-14.083000183105469 C54.83399963378906,-18.323999404907227 55.06399917602539,-24.83099937438965 51.96099853515625,-30.25 C48.858001708984375,-35.66899871826172 43.154998779296875,-38.720001220703125 38.15700149536133,-38.474998474121094 C38.402000427246094,-43.513999938964844 35.375,-49.26499938964844 30,-52.39400100708008 C24.625999450683594,-55.52299880981445 18.172000885009766,-55.290000915527344 13.965999603271484,-52.55699920654297 C11.678000450134277,-57.04399871826172 6.205999851226807,-60.5 0.0010000000474974513,-60.5z"/><g opacity="1" transform="matrix(1,0,0,1,0,0)"><path stroke-linecap="round" stroke-linejoin="round" fill-opacity="0" stroke="rgb(42,48,107)" stroke-opacity="1" stroke-width="3.001" d=" M0.0010000000474974513,-60.5 C-6.204999923706055,-60.5 -11.678000450134277,-57.04399871826172 -13.965999603271484,-52.55699920654297 C-18.172000885009766,-55.290000915527344 -24.625999450683594,-55.52299880981445 -30,-52.39400100708008 C-35.374000549316406,-49.26499938964844 -38.400001525878906,-43.513999938964844 -38.15700149536133,-38.474998474121094 C-43.15399932861328,-38.720001220703125 -48.858001708984375,-35.66899871826172 -51.96099853515625,-30.25 C-55.06399917602539,-24.83099937438965 -54.83300018310547,-18.323999404907227 -52.12300109863281,-14.083000183105469 C-56.573001861572266,-11.776000022888184 -60,-6.256999969482422 -60,0.0010000000474974513 C-60,6.257999897003174 -56.573001861572266,11.776000022888184 -52.12300109863281,14.083000183105469 C-54.83300018310547,18.323999404907227 -55.06399917602539,24.83099937438965 -51.96099853515625,30.25 C-48.858001708984375,35.66999816894531 -43.15399932861328,38.72200012207031 -38.15700149536133,38.474998474121094 C-38.400001525878906,43.51499938964844 -35.374000549316406,49.26499938964844 -30,52.39400100708008 C-24.625999450683594,55.52299880981445 -18.172000885009766,55.29100036621094 -13.965999603271484,52.55699920654297 C-11.678000450134277,57.04399871826172 -6.204999923706055,60.5 0.0010000000474974513,60.5 C6.205999851226807,60.5 11.678000450134277,57.04399871826172 13.965999603271484,52.55699920654297 C18.172000885009766,55.29100036621094 24.625999450683594,55.52299880981445 30,52.39400100708008 C35.375,49.26499938964844 38.402000427246094,43.51499938964844 38.15700149536133,38.474998474121094 C43.154998779296875,38.72200012207031 48.858001708984375,35.66999816894531 51.96099853515625,30.25 C55.06399917602539,24.83099937438965 54.83399963378906,18.323999404907227 52.124000549316406,14.083000183105469 C56.573001861572266,11.776000022888184 60,6.257999897003174 60,0.0010000000474974513 C60,-6.256999969482422 56.573001861572266,-11.776000022888184 52.124000549316406,-14.083000183105469 C54.83399963378906,-18.323999404907227 55.06399917602539,-24.83099937438965 51.96099853515625,-30.25 C48.858001708984375,-35.66899871826172 43.154998779296875,-38.720001220703125 38.15700149536133,-38.474998474121094 C38.402000427246094,-43.513999938964844 35.375,-49.26499938964844 30,-52.39400100708008 C24.625999450683594,-55.52299880981445 18.172000885009766,-55.290000915527344 13.965999603271484,-52.55699920654297 C11.678000450134277,-57.04399871826172 6.205999851226807,-60.5 0.0010000000474974513,-60.5z"/></g></g></g><filter id="__lottie_element_5955" filterUnits="objectBoundingBox" x="0%" y="0%" width="100%" height="100%"><feComponentTransfer in="SourceGraphic"><feFuncA type="table" tableValues="1.0 0.0"/></feComponentTransfer></filter><mask id="__lottie_element_5934_2" mask-type="alpha" maskUnits="userSpaceOnUse"><g filter="url(#__lottie_element_5955)"><rect width="192" height="192" x="0" y="0" fill="#ffffff" opacity="0"/><use xmlns:ns1="http://www.w3.org/1999/xlink" ns1:href="#__lottie_element_5934"/></g></mask><filter id="__lottie_element_5956" filterUnits="objectBoundingBox" x="0%" y="0%" width="100%" height="100%"><feComponentTransfer in="SourceGraphic"><feFuncA type="table" tableValues="1.0 0.0"/></feComponentTransfer></filter><mask id="__lottie_element_5928_2" mask-type="alpha" maskUnits="userSpaceOnUse"><g filter="url(#__lottie_element_5956)"><rect width="192" height="192" x="0" y="0" fill="#ffffff" opacity="0"/><use xmlns:ns2="http://www.w3.org/1999/xlink" ns2:href="#__lottie_element_5928"/></g></mask></defs><g clip-path="url(#__lottie_element_5912)"><g clip-path="url(#__lottie_element_5914)" transform="matrix(1,0,0,1,0,0)" opacity="1" style="display: block;"><g transform="matrix(1,0,0,1,97,71.5)" opacity="1" style="display: block;"><g opacity="1" transform="matrix(1,0,0,1,0,0)"><path stroke-linecap="round" stroke-linejoin="round" fill-opacity="0" class="primary" stroke="rgb(42,48,107)" stroke-opacity="1" stroke-width="3.001" d=" M0.0010000000474974513,-60.5 C-6.204999923706055,-60.5 -11.678000450134277,-57.04399871826172 -13.965999603271484,-52.55699920654297 C-18.172000885009766,-55.290000915527344 -24.625999450683594,-55.52299880981445 -30,-52.39400100708008 C-35.374000549316406,-49.26499938964844 -38.400001525878906,-43.513999938964844 -38.15700149536133,-38.474998474121094 C-43.15399932861328,-38.720001220703125 -48.858001708984375,-35.66899871826172 -51.96099853515625,-30.25 C-55.06399917602539,-24.83099937438965 -54.83300018310547,-18.323999404907227 -52.12300109863281,-14.083000183105469 C-56.573001861572266,-11.776000022888184 -60,-6.256999969482422 -60,0.0010000000474974513 C-60,6.257999897003174 -56.573001861572266,11.776000022888184 -52.12300109863281,14.083000183105469 C-54.83300018310547,18.323999404907227 -55.06399917602539,24.83099937438965 -51.96099853515625,30.25 C-48.858001708984375,35.66999816894531 -43.15399932861328,38.72200012207031 -38.15700149536133,38.474998474121094 C-38.400001525878906,43.51499938964844 -35.374000549316406,49.26499938964844 -30,52.39400100708008 C-24.625999450683594,55.52299880981445 -18.172000885009766,55.29100036621094 -13.965999603271484,52.55699920654297 C-11.678000450134277,57.04399871826172 -6.204999923706055,60.5 0.0010000000474974513,60.5 C6.205999851226807,60.5 11.678000450134277,57.04399871826172 13.965999603271484,52.55699920654297 C18.172000885009766,55.29100036621094 24.625999450683594,55.52299880981445 30,52.39400100708008 C35.375,49.26499938964844 38.402000427246094,43.51499938964844 38.15700149536133,38.474998474121094 C43.154998779296875,38.72200012207031 48.858001708984375,35.66999816894531 51.96099853515625,30.25 C55.06399917602539,24.83099937438965 54.83399963378906,18.323999404907227 52.124000549316406,14.083000183105469 C56.573001861572266,11.776000022888184 60,6.257999897003174 60,0.0010000000474974513 C60,-6.256999969482422 56.573001861572266,-11.776000022888184 52.124000549316406,-14.083000183105469 C54.83399963378906,-18.323999404907227 55.06399917602539,-24.83099937438965 51.96099853515625,-30.25 C48.858001708984375,-35.66899871826172 43.154998779296875,-38.720001220703125 38.15700149536133,-38.474998474121094 C38.402000427246094,-43.513999938964844 35.375,-49.26499938964844 30,-52.39400100708008 C24.625999450683594,-55.52299880981445 18.172000885009766,-55.290000915527344 13.965999603271484,-52.55699920654297 C11.678000450134277,-57.04399871826172 6.205999851226807,-60.5 0.0010000000474974513,-60.5z"/></g></g><g transform="matrix(1,0,0,1,97.5,71.5)" opacity="1" style="display: block;"><g opacity="1" transform="matrix(1,0,0,1,0,0)"><path stroke-linecap="round" stroke-linejoin="round" fill-opacity="0" class="primary" stroke="rgb(42,48,107)" stroke-opacity="1" stroke-width="1.996" d=" M48.5,0 C48.5,26.785999298095703 26.785999298095703,48.5 0,48.5 C-26.785999298095703,48.5 -48.5,26.785999298095703 -48.5,0 C-48.5,-26.785999298095703 -26.785999298095703,-48.5 0,-48.5 C26.785999298095703,-48.5 48.5,-26.785999298095703 48.5,0z M40.5,0 C40.5,22.368000030517578 22.368000030517578,40.5 0,40.5 C-22.368000030517578,40.5 -40.5,22.368000030517578 -40.5,0 C-40.5,-22.368000030517578 -22.368000030517578,-40.5 0,-40.5 C22.368000030517578,-40.5 40.5,-22.368000030517578 40.5,0z"/></g></g><g mask="url(#__lottie_element_5928_2)" style="display: block;"><g transform="matrix(1,0,0,-1,62.51499938964844,140.4080047607422)" opacity="1"><g opacity="1" transform="matrix(1,0,0,1,0,0)"><path stroke-linecap="round" stroke-linejoin="round" fill-opacity="0" class="primary" stroke="rgb(42,48,107)" stroke-opacity="1" stroke-width="3" d=" M1.1239999532699585,32.15399932861328 C-4.271999835968018,24.010000228881836 -21.152999877929688,-1.4259999990463257 -30.32699966430664,-19.27199935913086 C-32.803001403808594,-24.08799934387207 -28.030000686645508,-25.179000854492188 -26.36400032043457,-23.679000854492188 C-19.003999710083008,-17.05299949645996 -8.130999565124512,-9.46399974822998 -6.00600004196167,-9.961999893188477 C-3.50600004196167,-10.548999786376953 0.5960000157356262,-32.15299987792969 5.421000003814697,-32.15399932861328 C6.117000102996826,-32.15399932861328 25.841999053955078,6.7820000648498535 31.025999069213867,17.06399917602539"/></g></g></g><g mask="url(#__lottie_element_5934_2)" style="display: block;"><g transform="matrix(-1,0,0,-1,130.37600708007812,139.99700927734375)" opacity="1"><g opacity="1" transform="matrix(1,0,0,1,0,0)"><path stroke-linecap="round" stroke-linejoin="round" fill-opacity="0" class="primary" stroke="rgb(42,48,107)" stroke-opacity="1" stroke-width="3" d=" M-0.5680000185966492,32.27000045776367 C-0.5870000123977661,32.23699951171875 -0.6050000190734863,32.20399856567383 -0.6240000128746033,32.16999816894531 C-5.949999809265137,22.694000244140625 -20.48200035095215,-3.7019999027252197 -29.39299964904785,-21.035999298095703 C-31.868999481201172,-25.851999282836914 -28.27199935913086,-26.844999313354492 -26.60700035095215,-25.34600067138672 C-19.246999740600586,-18.719999313354492 -8.64900016784668,-9.579999923706055 -6.52400016784668,-10.07800006866455 C-4.02400016784668,-10.664999961853027 0.07800000160932541,-32.26900100708008 4.9029998779296875,-32.27000045776367 C5.5980000495910645,-32.27000045776367 25.06599998474121,6.063000202178955 30.23699951171875,16.29599952697754"/></g></g></g><g transform="matrix(1,0,0,1,102.47999572753906,67)" opacity="1" style="display: block;"><g opacity="1" transform="matrix(1,0,0,1,0,0)"><path class="secondary" fill="rgb(230,142,110)" fill-opacity="1" d=" M-7.011000156402588,-6.605000019073486 C-5.697999954223633,-7.918000221252441 -2.8570001125335693,-21.965999603271484 0.1889999955892563,-27.0049991607666 C2.6489999294281006,-22.750999450683594 5.913000106811523,-9.288999557495117 7.388999938964844,-6.605000019073486 C7.677000045776367,-6.081999778747559 13.659000396728516,-6.34499979019165 18.656999588012695,-6.546999931335449 C22.062999725341797,-6.684999942779541 23.089000701904297,-4.960999965667725 20.235000610351562,-2.9790000915527344 C16.047000885009766,-0.0689999982714653 10.772000312805176,3.621000051498413 10.388999938964844,4.195000171661377 C10.201000213623047,4.4770002365112305 20.19700050354004,25.999000549316406 18.788999557495117,26.395000457763672 C16.190000534057617,27.125999450683594 0.9150000214576721,11.947999954223633 0.1889999955892563,12.595000267028809 C-15.680000305175781,26.743000030517578 -18.92099952697754,27.093000411987305 -19.01099967956543,26.9950008392334 C-20.73900032043457,25.104999542236328 -10.017000198364258,5.388999938964844 -10.611000061035156,4.795000076293945 C-12.072999954223633,3.3329999446868896 -16.860000610351562,0.17000000178813934 -20.749000549316406,-2.3580000400543213 C-23.77400016784668,-4.324999809265137 -20.39299964904785,-6.692999839782715 -15.369999885559082,-6.5920000076293945 C-11.142000198364258,-6.507999897003174 -7.241000175476074,-6.375 -7.011000156402588,-6.605000019073486z"/><path stroke-linecap="round" stroke-linejoin="round" fill-opacity="0" class="secondary" stroke="rgb(230,142,110)" stroke-opacity="1" stroke-width="1" d=" M-7.011000156402588,-6.605000019073486 C-5.697999954223633,-7.918000221252441 -2.8570001125335693,-21.965999603271484 0.1889999955892563,-27.0049991607666 C2.6489999294281006,-22.750999450683594 5.913000106811523,-9.288999557495117 7.388999938964844,-6.605000019073486 C7.677000045776367,-6.081999778747559 13.659000396728516,-6.34499979019165 18.656999588012695,-6.546999931335449 C22.062999725341797,-6.684999942779541 23.089000701904297,-4.960999965667725 20.235000610351562,-2.9790000915527344 C16.047000885009766,-0.0689999982714653 10.772000312805176,3.621000051498413 10.388999938964844,4.195000171661377 C10.201000213623047,4.4770002365112305 20.19700050354004,25.999000549316406 18.788999557495117,26.395000457763672 C16.190000534057617,27.125999450683594 0.9150000214576721,11.947999954223633 0.1889999955892563,12.595000267028809 C-15.680000305175781,26.743000030517578 -18.92099952697754,27.093000411987305 -19.01099967956543,26.9950008392334 C-20.73900032043457,25.104999542236328 -10.017000198364258,5.388999938964844 -10.611000061035156,4.795000076293945 C-12.072999954223633,3.3329999446868896 -16.860000610351562,0.17000000178813934 -20.749000549316406,-2.3580000400543213 C-23.77400016784668,-4.324999809265137 -20.39299964904785,-6.692999839782715 -15.369999885559082,-6.5920000076293945 C-11.142000198364258,-6.507999897003174 -7.241000175476074,-6.375 -7.011000156402588,-6.605000019073486z"/></g></g><g transform="matrix(1,0,0,1,96.5,67)" opacity="1" style="display: block;"><g opacity="1" transform="matrix(1,0,0,1,0,0)"><path stroke-linecap="round" stroke-linejoin="round" fill-opacity="0" class="primary" stroke="rgb(42,48,107)" stroke-opacity="1" stroke-width="3" d=" M-6.5229997634887695,-6.604000091552734 C-5.224999904632568,-7.916999816894531 -2.4170000553131104,-21.961999893188477 0.5929999947547913,-27 C3.0239999294281006,-22.746999740600586 6.25,-9.288000106811523 7.709000110626221,-6.604000091552734 C8.187000274658203,-5.724999904632568 24.57900047302246,-7.070000171661377 25.499000549316406,-6.604000091552734 C25.615999221801758,-6.544000148773193 11.3100004196167,3.2290000915527344 10.673999786376953,4.193999767303467 C10.48799991607666,4.47599983215332 20.367000579833984,25.993999481201172 18.97599983215332,26.389999389648438 C16.406999588012695,27.121000289916992 1.3109999895095825,11.946000099182129 0.5929999947547913,12.593000411987305 C-15.090999603271484,26.738000869750977 -18.29400062561035,27.08799934387207 -18.382999420166016,26.989999771118164 C-20.090999603271484,25.100000381469727 -9.494000434875488,5.388000011444092 -10.081000328063965,4.794000148773193 C-12.649999618530273,2.194999933242798 -25.601999282836914,-5.7779998779296875 -25.499000549316406,-6.004000186920166 C-24.891000747680664,-7.330999851226807 -7.019999980926514,-6.10099983215332 -6.5229997634887695,-6.604000091552734z"/></g></g><g transform="matrix(0.9945219159126282,-0.10452846437692642,-0.10452846437692642,-0.9945219159126282,75.947998046875,143.25900268554688)" opacity="1" style="display: block;"><g opacity="1" transform="matrix(0.9984241724014282,-0.056117746978998184,0.056117746978998184,0.9984241724014282,0,0)"><path stroke-linecap="round" stroke-linejoin="round" fill-opacity="0" class="primary" stroke="rgb(42,48,107)" stroke-opacity="1" stroke-width="2" d=" M6.796000003814697,11.517999649047852 C0.6190000176429749,1.1319999694824219 -7.6529998779296875,-12.817000389099121 -9.956000328063965,-16.805999755859375"/></g></g><g transform="matrix(1,0,0,-1,106.30999755859375,154.90499877929688)" opacity="1" style="display: block;"><g opacity="1" transform="matrix(1,0,0,1,0,0)"><path stroke-linecap="round" stroke-linejoin="round" fill-opacity="0" class="primary" stroke="rgb(42,48,107)" stroke-opacity="1" stroke-width="1.999" d=" M-5.39300012588501,9.847999572753906 C-0.23999999463558197,0.8159999847412109 6.544000148773193,-11.112000465393066 5.480000019073486,-9.505000114440918"/></g></g><g transform="matrix(1,0,0,-1,163.43600463867188,70.99700164794922)" opacity="1" style="display: block;"><g opacity="1" transform="matrix(1,0,0,1,0,0)"><path stroke-linecap="round" stroke-linejoin="round" fill-opacity="0" class="primary" stroke="rgb(42,48,107)" stroke-opacity="1" stroke-width="2" d=" M-3.0280001163482666,14.22700023651123 C5.13700008392334,8.637999534606934 6.440999984741211,-9.678999900817871 -3.5260000228881836,-14.22700023651123"/></g></g><g transform="matrix(-1,0,0,-1,31.999000549316406,67.63300323486328)" opacity="1" style="display: block;"><g opacity="1" transform="matrix(0.9345589280128479,-0.35580843687057495,0.35580843687057495,0.9345589280128479,0,0)"><path stroke-linecap="round" stroke-linejoin="round" fill-opacity="0" class="primary" stroke="rgb(42,48,107)" stroke-opacity="1" stroke-width="2" d=" M-5.882999897003174,9.467000007629395 C2.6640000343322754,7.809999942779541 5.886000156402588,-2.815000057220459 5.882999897003174,-9.467000007629395"/></g></g></g></g></svg>