<svg xmlns="http://www.w3.org/2000/svg" xmlns:xlink="http://www.w3.org/1999/xlink" viewBox="0 0 192 192" width="192" height="192" preserveAspectRatio="xMidYMid meet" style="width: 100%; height: 100%; transform: translate3d(0px, 0px, 0px); content-visibility: visible;"><defs><clipPath id="__lottie_element_3765"><rect width="192" height="192" x="0" y="0"/></clipPath><clipPath id="__lottie_element_3767"><path d="M0,0 L192,0 L192,192 L0,192z"/></clipPath><g id="__lottie_element_3792"><g transform="matrix(1,0,0,1,95.26499938964844,82.24800109863281)" opacity="1" style="display: block;"><g opacity="1" transform="matrix(1,0,0,1,0,0)"><path fill="rgb(255,0,0)" fill-opacity="1" d=" M-22.233999252319336,-20.18000030517578 C-16.42799949645996,-30.24799919128418 -5.120999813079834,-31.93400001525879 0.9089999794960022,-32.040000915527344 C20.180999755859375,-32.37799835205078 23.382999420166016,-19.527000427246094 24.85099983215332,-12.086000442504883 C26.37700080871582,-4.353000164031982 26.333999633789062,12 15.859999656677246,24.113000869750977 C14.574999809265137,25.600000381469727 12.354999542236328,27.833999633789062 10.758999824523926,28.913000106811523 C-0.10899999737739563,36.25699996948242 -11.491999626159668,29.67300033569336 -17.753000259399414,19.700000762939453 C-21.02199935913086,14.491999626159668 -23.136999130249023,7.839000225067139 -24.600000381469727,1.9049999713897705 C-26.28700065612793,-4.935999870300293 -25.93600082397461,-13.760000228881836 -22.233999252319336,-20.18000030517578z"/></g></g></g><filter id="__lottie_element_3798" filterUnits="objectBoundingBox" x="0%" y="0%" width="100%" height="100%"><feComponentTransfer in="SourceGraphic"><feFuncA type="table" tableValues="1.0 0.0"/></feComponentTransfer></filter><mask id="__lottie_element_3792_2" mask-type="alpha" maskUnits="userSpaceOnUse"><g filter="url(#__lottie_element_3798)"><rect width="192" height="192" x="0" y="0" fill="#ffffff" opacity="0"/><use xmlns:ns1="http://www.w3.org/1999/xlink" ns1:href="#__lottie_element_3792"/></g></mask></defs><g clip-path="url(#__lottie_element_3765)"><g clip-path="url(#__lottie_element_3767)" transform="matrix(1,0,0,1,0,0)" opacity="1" style="display: block;"><g transform="matrix(1,0,0,1,98.0979995727539,145.50100708007812)" opacity="1" style="display: block;"><g opacity="1" transform="matrix(0.9992828965187073,-0.03786459192633629,0.03786459192633629,0.9992828965187073,0,0)"><path class="secondary" fill="rgb(230,142,110)" fill-opacity="1" d=" M17.26099967956543,-16.2810001373291 C29.503999710083008,-21.989999771118164 37.76499938964844,-13.769000053405762 38.85900115966797,-12.446999549865723 C42.415000915527344,-8.152000427246094 44.702999114990234,-2.9170000553131104 46.10499954223633,2.1010000705718994 C47.375999450683594,6.656000137329102 24.89699935913086,19.518999099731445 1.7790000438690186,19.322999954223633 C-22.540000915527344,19.117000579833984 -47.558998107910156,5.614999771118164 -46.095001220703125,0.8880000114440918 C-43.84400177001953,-6.382999897003174 -39.57099914550781,-13.656000137329102 -34.25600051879883,-16.336999893188477 C-28.104000091552734,-19.440000534057617 -18.270000457763672,-20.59000015258789 -13.178999900817871,-17.523000717163086 C-9.402999877929688,-15.25 -5.150000095367432,-12.0649995803833 3.9639999866485596,-12.072999954223633 C5.513000011444092,-12.074999809265137 11.996999740600586,-13.82699966430664 17.26099967956543,-16.2810001373291z"/><path stroke-linecap="butt" stroke-linejoin="miter" fill-opacity="0" stroke-miterlimit="4" class="secondary" stroke="rgb(230,142,110)" stroke-opacity="1" stroke-width="1" d=" M17.26099967956543,-16.2810001373291 C29.503999710083008,-21.989999771118164 37.76499938964844,-13.769000053405762 38.85900115966797,-12.446999549865723 C42.415000915527344,-8.152000427246094 44.702999114990234,-2.9170000553131104 46.10499954223633,2.1010000705718994 C47.375999450683594,6.656000137329102 24.89699935913086,19.518999099731445 1.7790000438690186,19.322999954223633 C-22.540000915527344,19.117000579833984 -47.558998107910156,5.614999771118164 -46.095001220703125,0.8880000114440918 C-43.84400177001953,-6.382999897003174 -39.57099914550781,-13.656000137329102 -34.25600051879883,-16.336999893188477 C-28.104000091552734,-19.440000534057617 -18.270000457763672,-20.59000015258789 -13.178999900817871,-17.523000717163086 C-9.402999877929688,-15.25 -5.150000095367432,-12.0649995803833 3.9639999866485596,-12.072999954223633 C5.513000011444092,-12.074999809265137 11.996999740600586,-13.82699966430664 17.26099967956543,-16.2810001373291z"/></g></g><g transform="matrix(1,0,0,1,125.35800170898438,91.68900299072266)" opacity="1" style="display: block;"><g opacity="1" transform="matrix(1,0,0,1,0,0)"><path stroke-linecap="round" stroke-linejoin="round" fill-opacity="0" class="primary" stroke="rgb(42,48,107)" stroke-opacity="1" stroke-width="1.996" d=" M4.7729997634887695,-17.23900032043457 C6.513999938964844,-5.363999843597412 4.830999851226807,8.289999961853027 -5.205999851226807,17.190000534057617"/></g></g><g transform="matrix(1,0,0,1,74.43499755859375,58.0620002746582)" opacity="1" style="display: block;"><g opacity="1" transform="matrix(1,0,0,1,0,0)"><path stroke-linecap="round" stroke-linejoin="round" fill-opacity="0" class="primary" stroke-dasharray=" 45 7" stroke-dashoffset="30" stroke="rgb(42,48,107)" stroke-opacity="1" stroke-width="1.996" d=" M32.064998626708984,-14.062000274658203 C21.815000534057617,-17.062000274658203 11.517000198364258,-14.345000267028809 11.517000198364258,-14.345000267028809 C4.01200008392334,-14.128000259399414 -12.440999984741211,-3.4110000133514404 -11.47599983215332,14.345000267028809 C-11.241000175476074,18.666000366210938 -10.925999641418457,22.413999557495117 -10.477999687194824,25.76099967956543"/></g></g><g transform="matrix(1,0,0,1,73.00399780273438,153.9980010986328)" opacity="1" style="display: block;"><g opacity="1" transform="matrix(0.9308773875236511,0.3653317391872406,-0.3653317391872406,0.9308773875236511,0,0)"><path stroke-linecap="round" stroke-linejoin="round" fill-opacity="0" class="primary" stroke="rgb(42,48,107)" stroke-opacity="1" stroke-width="2.003" d=" M17.96500015258789,-0.42100000381469727 C6.8480000495910645,2.499000072479248 -4.9710001945495605,2.325000047683716 -17.96500015258789,-1.5829999446868896"/></g></g><g transform="matrix(1,0,0,1,0,0)" opacity="1" style="display: block;"><g opacity="1" transform="matrix(1,0,0,1,35.310001373291016,37.91899871826172)"><g opacity="1" transform="matrix(1,0,0,1,0,0)"><path stroke-linecap="round" stroke-linejoin="round" fill-opacity="0" class="primary" stroke="rgb(42,48,107)" stroke-opacity="1" stroke-width="2" d=" M-16.917999267578125,17.70400047302246 C-12.42199993133545,9.854999542236328 -1.0130000114440918,-8.055000305175781 16.917999267578125,-17.70400047302246"/></g></g><g opacity="1" transform="matrix(1,0,0,1,163.43600463867188,148.86300659179688)"><g opacity="1" transform="matrix(1,0,0,1,0,0)"><path stroke-linecap="round" stroke-linejoin="round" fill-opacity="0" class="primary" stroke="rgb(42,48,107)" stroke-opacity="1" stroke-width="2" d=" M-12.265999794006348,15.104000091552734 C-1.7970000505447388,7.824999809265137 6.873000144958496,-3.759999990463257 12.265999794006348,-15.104000091552734"/></g></g></g><g mask="url(#__lottie_element_3792_2)" style="display: block;"><g transform="matrix(1,0,0,1,0,0)" opacity="1"><g opacity="1" transform="matrix(1,0,0,1,96.99600219726562,140.2740020751953)"><g opacity="1" transform="matrix(1,0,0,1,0,0)"><path stroke-linecap="round" stroke-linejoin="round" fill-opacity="0" class="primary" stroke="rgb(42,48,107)" stroke-opacity="1" stroke-width="3" d=" M-11.010000228881836,-29.086999893188477 C-11.128000259399414,-39.452999114990234 -5.882999897003174,-44.16899871826172 -0.5849999785423279,-43.96900177001953 C4.690999984741211,-43.77000045776367 10.019000053405762,-38.69599914550781 10.157999992370605,-29.469999313354492 C14.060999870300293,-14.565999984741211 25.658000946044922,-17.054000854492188 28.267000198364258,-16.35700035095215 C40.051998138427734,-13.204000473022461 50.055999755859375,0.3569999933242798 49.689998626708984,10.166999816894531 C49.63199996948242,11.72700023651123 28.01799964904785,29.30299949645996 -0.6069999933242798,29.4689998626709 C-26.607999801635742,29.6200008392334 -49.70000076293945,10.4399995803833 -49.70000076293945,9.057000160217285 C-49.70199966430664,0.4259999990463257 -42.69900131225586,-9.890999794006348 -31.29800033569336,-15.531999588012695 C-20.374000549316406,-20.93899917602539 -15.583999633789062,-17.184999465942383 -11.010000228881836,-29.086999893188477z"/></g></g><g opacity="1" transform="matrix(1,0,0,1,96.13800048828125,127.26799774169922)"><g opacity="1" transform="matrix(1,0,0,1,0,0)"><path stroke-linecap="round" stroke-linejoin="round" fill-opacity="0" class="primary" stroke="rgb(42,48,107)" stroke-opacity="1" stroke-width="2.004" d=" M14.142999649047852,-1.378000020980835 C10.694000244140625,0.8679999709129333 5.251999855041504,2.7850000858306885 -0.4560000002384186,2.632999897003174 C-5.019000053405762,2.510999917984009 -9.833000183105469,0.2619999945163727 -14.142999649047852,-2.6410000324249268"/></g></g></g></g><g transform="matrix(1,0,0,1,97.38899993896484,95.69599914550781)" opacity="1" style="display: block;"><g opacity="1" transform="matrix(1,0,0,1,0,0)"><path stroke-linecap="round" stroke-linejoin="round" fill-opacity="0" class="primary" stroke="rgb(42,48,107)" stroke-opacity="1" stroke-width="3" d=" M-0.42899999022483826,-73.98200225830078 C1.9199999570846558,-73.96199798583984 4.300000190734863,-73.87799835205078 5.947999954223633,-73.6780014038086 C27.20599937438965,-71.10399627685547 67.11000061035156,-58.90800094604492 73.0510025024414,-6.928999900817871 C78.06800079345703,36.96699905395508 45.92399978637695,67.90299987792969 10.149999618530273,73.21800231933594 C-9.045000076293945,76.07099914550781 -30.1200008392334,70.94000244140625 -45.513999938964844,58.48099899291992 C-96.86199951171875,16.927000045776367 -73.80599975585938,-66.77200317382812 -8.187000274658203,-73.80699920654297 C-8.187000274658203,-73.80699920654297 -8.187000274658203,-73.80699920654297 -8.187000274658203,-73.80699920654297 C-7.3379998207092285,-73.89800262451172 -3.9179999828338623,-74.01100158691406 -0.42899999022483826,-73.98200225830078"/></g></g><g transform="matrix(1,0,0,1,95.26499938964844,82.24800109863281)" opacity="1" style="display: block;"><g opacity="1" transform="matrix(1,0,0,1,0,0)"><path stroke-linecap="round" stroke-linejoin="round" fill-opacity="0" class="primary" stroke="rgb(42,48,107)" stroke-opacity="1" stroke-width="3.003" d=" M-22.233999252319336,-20.18000030517578 C-16.42799949645996,-30.24799919128418 -5.120999813079834,-31.93400001525879 0.9089999794960022,-32.040000915527344 C20.180999755859375,-32.37799835205078 23.382999420166016,-19.527000427246094 24.85099983215332,-12.086000442504883 C26.37700080871582,-4.353000164031982 26.333999633789062,12 15.859999656677246,24.113000869750977 C14.574999809265137,25.600000381469727 12.354999542236328,27.833999633789062 10.758999824523926,28.913000106811523 C-0.10899999737739563,36.25699996948242 -11.491999626159668,29.67300033569336 -17.753000259399414,19.700000762939453 C-21.02199935913086,14.491999626159668 -23.136999130249023,7.839000225067139 -24.600000381469727,1.9049999713897705 C-26.28700065612793,-4.935999870300293 -25.93600082397461,-13.760000228881836 -22.233999252319336,-20.18000030517578z"/></g></g></g></g></svg>