<svg xmlns="http://www.w3.org/2000/svg" xmlns:xlink="http://www.w3.org/1999/xlink" viewBox="0 0 192 192" width="192" height="192" preserveAspectRatio="xMidYMid meet" style="width: 100%; height: 100%; transform: translate3d(0px, 0px, 0px); content-visibility: visible;"><defs><clipPath id="__lottie_element_11834"><rect width="192" height="192" x="0" y="0"/></clipPath><clipPath id="__lottie_element_11836"><path d="M0,0 L192,0 L192,192 L0,192z"/></clipPath><g id="__lottie_element_11844"><g transform="matrix(1.1162749528884888,0,0,1.1162749528884888,96.00048828125,91.0003662109375)" opacity="1" style="display: block;"><g opacity="1" transform="matrix(1,0,0,1,0,0)"><path fill="rgb(67,67,67)" fill-opacity="1" d=" M54.88600158691406,44.685001373291016 C60.409000396728516,44.641998291015625 64.85099792480469,40.130001068115234 64.80799865722656,34.606998443603516 C64.76499938964844,29.083999633789062 60.25299835205078,24.642000198364258 54.72999954223633,24.684999465942383 C39.49100112915039,24.804000854492188 17.604999542236328,25.625999450683594 -3.490999937057495,27.238000869750977 C-24.332000732421875,28.83099937438965 -45.290000915527344,31.256000518798828 -58.17399978637695,34.79100036621094 C-63.5,36.25199890136719 -66.63200378417969,41.75400161743164 -65.1709976196289,47.08000183105469 C-63.709999084472656,52.40599822998047 -58.20800018310547,55.53900146484375 -52.88199996948242,54.077999114990234 C-42.06399917602539,51.11000061035156 -22.863000869750977,48.777000427246094 -1.9670000076293945,47.18000030517578 C18.674999237060547,45.60200119018555 40.10499954223633,44.79999923706055 54.88600158691406,44.685001373291016z"/></g><g opacity="1" transform="matrix(1,0,0,1,0,-17.75)"><path fill="rgb(67,67,67)" fill-opacity="1" d=" M54.88600158691406,44.685001373291016 C60.409000396728516,44.641998291015625 64.85099792480469,40.130001068115234 64.80799865722656,34.606998443603516 C64.76499938964844,29.083999633789062 60.25299835205078,24.642000198364258 54.72999954223633,24.684999465942383 C39.49100112915039,24.804000854492188 17.604999542236328,25.625999450683594 -3.490999937057495,27.238000869750977 C-24.332000732421875,28.83099937438965 -45.290000915527344,31.256000518798828 -58.17399978637695,34.79100036621094 C-63.5,36.25199890136719 -66.63200378417969,41.75400161743164 -65.1709976196289,47.08000183105469 C-63.709999084472656,52.40599822998047 -58.20800018310547,55.53900146484375 -52.88199996948242,54.077999114990234 C-42.06399917602539,51.11000061035156 -22.863000869750977,48.777000427246094 -1.9670000076293945,47.18000030517578 C18.674999237060547,45.60200119018555 40.10499954223633,44.79999923706055 54.88600158691406,44.685001373291016z"/></g><g opacity="1" transform="matrix(1,0,0,1,0,-35.79999923706055)"><path fill="rgb(67,67,67)" fill-opacity="1" d=" M54.88600158691406,44.685001373291016 C60.409000396728516,44.641998291015625 64.85099792480469,40.130001068115234 64.80799865722656,34.606998443603516 C64.76499938964844,29.083999633789062 60.25299835205078,24.642000198364258 54.72999954223633,24.684999465942383 C39.49100112915039,24.804000854492188 17.604999542236328,25.625999450683594 -3.490999937057495,27.238000869750977 C-24.332000732421875,28.83099937438965 -45.290000915527344,31.256000518798828 -58.17399978637695,34.79100036621094 C-63.5,36.25199890136719 -66.63200378417969,41.75400161743164 -65.1709976196289,47.08000183105469 C-63.709999084472656,52.40599822998047 -58.20800018310547,55.53900146484375 -52.88199996948242,54.077999114990234 C-42.06399917602539,51.11000061035156 -22.863000869750977,48.777000427246094 -1.9670000076293945,47.18000030517578 C18.674999237060547,45.60200119018555 40.10499954223633,44.79999923706055 54.88600158691406,44.685001373291016z"/></g><g opacity="1" transform="matrix(1,0,0,1,0,-53.099998474121094)"><path fill="rgb(67,67,67)" fill-opacity="1" d=" M54.88600158691406,44.685001373291016 C60.409000396728516,44.641998291015625 64.85099792480469,40.130001068115234 64.80799865722656,34.606998443603516 C64.76499938964844,29.083999633789062 60.25299835205078,24.642000198364258 54.72999954223633,24.684999465942383 C39.49100112915039,24.804000854492188 17.604999542236328,25.625999450683594 -3.490999937057495,27.238000869750977 C-24.332000732421875,28.83099937438965 -45.290000915527344,31.256000518798828 -58.17399978637695,34.79100036621094 C-63.5,36.25199890136719 -66.63200378417969,41.75400161743164 -65.1709976196289,47.08000183105469 C-63.709999084472656,52.40599822998047 -58.20800018310547,55.53900146484375 -52.88199996948242,54.077999114990234 C-42.06399917602539,51.11000061035156 -22.863000869750977,48.777000427246094 -1.9670000076293945,47.18000030517578 C18.674999237060547,45.60200119018555 40.10499954223633,44.79999923706055 54.88600158691406,44.685001373291016z"/></g><g opacity="1" transform="matrix(1,0,0,1,0,-70.44999694824219)"><path fill="rgb(67,67,67)" fill-opacity="1" d=" M54.88600158691406,44.685001373291016 C60.409000396728516,44.641998291015625 64.85099792480469,40.130001068115234 64.80799865722656,34.606998443603516 C64.76499938964844,29.083999633789062 60.25299835205078,24.642000198364258 54.72999954223633,24.684999465942383 C39.49100112915039,24.804000854492188 17.604999542236328,25.625999450683594 -3.490999937057495,27.238000869750977 C-24.332000732421875,28.83099937438965 -45.290000915527344,31.256000518798828 -58.17399978637695,34.79100036621094 C-63.5,36.25199890136719 -66.63200378417969,41.75400161743164 -65.1709976196289,47.08000183105469 C-63.709999084472656,52.40599822998047 -58.20800018310547,55.53900146484375 -52.88199996948242,54.077999114990234 C-42.06399917602539,51.11000061035156 -22.863000869750977,48.777000427246094 -1.9670000076293945,47.18000030517578 C18.674999237060547,45.60200119018555 40.10499954223633,44.79999923706055 54.88600158691406,44.685001373291016z"/></g><g opacity="0.9999995037057895" transform="matrix(1,0,0,1,0,-86.94999694824219)"><path fill="rgb(67,67,67)" fill-opacity="1" d=" M54.88600158691406,44.685001373291016 C60.409000396728516,44.641998291015625 64.85099792480469,40.130001068115234 64.80799865722656,34.606998443603516 C64.76499938964844,29.083999633789062 60.25299835205078,24.642000198364258 54.72999954223633,24.684999465942383 C39.49100112915039,24.804000854492188 17.604999542236328,25.625999450683594 -3.490999937057495,27.238000869750977 C-24.332000732421875,28.83099937438965 -45.290000915527344,31.256000518798828 -58.17399978637695,34.79100036621094 C-63.5,36.25199890136719 -66.63200378417969,41.75400161743164 -65.1709976196289,47.08000183105469 C-63.709999084472656,52.40599822998047 -58.20800018310547,55.53900146484375 -52.88199996948242,54.077999114990234 C-42.06399917602539,51.11000061035156 -22.863000869750977,48.777000427246094 -1.9670000076293945,47.18000030517578 C18.674999237060547,45.60200119018555 40.10499954223633,44.79999923706055 54.88600158691406,44.685001373291016z"/></g></g></g><g id="__lottie_element_11850"><g transform="matrix(1.1162749528884888,0,0,1.1162749528884888,96.00048828125,91.0003662109375)" opacity="1" style="display: block;"><g opacity="1" transform="matrix(1,0,0,1,0,0)"><path fill="rgb(67,67,67)" fill-opacity="1" d=" M54.88600158691406,44.685001373291016 C60.409000396728516,44.641998291015625 64.85099792480469,40.130001068115234 64.80799865722656,34.606998443603516 C64.76499938964844,29.083999633789062 60.25299835205078,24.642000198364258 54.72999954223633,24.684999465942383 C39.49100112915039,24.804000854492188 17.604999542236328,25.625999450683594 -3.490999937057495,27.238000869750977 C-24.332000732421875,28.83099937438965 -45.290000915527344,31.256000518798828 -58.17399978637695,34.79100036621094 C-63.5,36.25199890136719 -66.63200378417969,41.75400161743164 -65.1709976196289,47.08000183105469 C-63.709999084472656,52.40599822998047 -58.20800018310547,55.53900146484375 -52.88199996948242,54.077999114990234 C-42.06399917602539,51.11000061035156 -22.863000869750977,48.777000427246094 -1.9670000076293945,47.18000030517578 C18.674999237060547,45.60200119018555 40.10499954223633,44.79999923706055 54.88600158691406,44.685001373291016z"/></g><g opacity="1" transform="matrix(1,0,0,1,0,-17.75)"><path fill="rgb(67,67,67)" fill-opacity="1" d=" M54.88600158691406,44.685001373291016 C60.409000396728516,44.641998291015625 64.85099792480469,40.130001068115234 64.80799865722656,34.606998443603516 C64.76499938964844,29.083999633789062 60.25299835205078,24.642000198364258 54.72999954223633,24.684999465942383 C39.49100112915039,24.804000854492188 17.604999542236328,25.625999450683594 -3.490999937057495,27.238000869750977 C-24.332000732421875,28.83099937438965 -45.290000915527344,31.256000518798828 -58.17399978637695,34.79100036621094 C-63.5,36.25199890136719 -66.63200378417969,41.75400161743164 -65.1709976196289,47.08000183105469 C-63.709999084472656,52.40599822998047 -58.20800018310547,55.53900146484375 -52.88199996948242,54.077999114990234 C-42.06399917602539,51.11000061035156 -22.863000869750977,48.777000427246094 -1.9670000076293945,47.18000030517578 C18.674999237060547,45.60200119018555 40.10499954223633,44.79999923706055 54.88600158691406,44.685001373291016z"/></g><g opacity="1" transform="matrix(1,0,0,1,0,-35.79999923706055)"><path fill="rgb(67,67,67)" fill-opacity="1" d=" M54.88600158691406,44.685001373291016 C60.409000396728516,44.641998291015625 64.85099792480469,40.130001068115234 64.80799865722656,34.606998443603516 C64.76499938964844,29.083999633789062 60.25299835205078,24.642000198364258 54.72999954223633,24.684999465942383 C39.49100112915039,24.804000854492188 17.604999542236328,25.625999450683594 -3.490999937057495,27.238000869750977 C-24.332000732421875,28.83099937438965 -45.290000915527344,31.256000518798828 -58.17399978637695,34.79100036621094 C-63.5,36.25199890136719 -66.63200378417969,41.75400161743164 -65.1709976196289,47.08000183105469 C-63.709999084472656,52.40599822998047 -58.20800018310547,55.53900146484375 -52.88199996948242,54.077999114990234 C-42.06399917602539,51.11000061035156 -22.863000869750977,48.777000427246094 -1.9670000076293945,47.18000030517578 C18.674999237060547,45.60200119018555 40.10499954223633,44.79999923706055 54.88600158691406,44.685001373291016z"/></g><g opacity="1" transform="matrix(1,0,0,1,0,-53.099998474121094)"><path fill="rgb(67,67,67)" fill-opacity="1" d=" M54.88600158691406,44.685001373291016 C60.409000396728516,44.641998291015625 64.85099792480469,40.130001068115234 64.80799865722656,34.606998443603516 C64.76499938964844,29.083999633789062 60.25299835205078,24.642000198364258 54.72999954223633,24.684999465942383 C39.49100112915039,24.804000854492188 17.604999542236328,25.625999450683594 -3.490999937057495,27.238000869750977 C-24.332000732421875,28.83099937438965 -45.290000915527344,31.256000518798828 -58.17399978637695,34.79100036621094 C-63.5,36.25199890136719 -66.63200378417969,41.75400161743164 -65.1709976196289,47.08000183105469 C-63.709999084472656,52.40599822998047 -58.20800018310547,55.53900146484375 -52.88199996948242,54.077999114990234 C-42.06399917602539,51.11000061035156 -22.863000869750977,48.777000427246094 -1.9670000076293945,47.18000030517578 C18.674999237060547,45.60200119018555 40.10499954223633,44.79999923706055 54.88600158691406,44.685001373291016z"/></g><g opacity="0.9777128378238044" transform="matrix(1,0,0,1,0,-70.44999694824219)"><path fill="rgb(67,67,67)" fill-opacity="1" d=" M54.88600158691406,44.685001373291016 C60.409000396728516,44.641998291015625 64.85099792480469,40.130001068115234 64.80799865722656,34.606998443603516 C64.76499938964844,29.083999633789062 60.25299835205078,24.642000198364258 54.72999954223633,24.684999465942383 C39.49100112915039,24.804000854492188 17.604999542236328,25.625999450683594 -3.490999937057495,27.238000869750977 C-24.332000732421875,28.83099937438965 -45.290000915527344,31.256000518798828 -58.17399978637695,34.79100036621094 C-63.5,36.25199890136719 -66.63200378417969,41.75400161743164 -65.1709976196289,47.08000183105469 C-63.709999084472656,52.40599822998047 -58.20800018310547,55.53900146484375 -52.88199996948242,54.077999114990234 C-42.06399917602539,51.11000061035156 -22.863000869750977,48.777000427246094 -1.9670000076293945,47.18000030517578 C18.674999237060547,45.60200119018555 40.10499954223633,44.79999923706055 54.88600158691406,44.685001373291016z"/></g><g opacity="0.7603848922070392" transform="matrix(1,0,0,1,0,-86.94999694824219)"><path fill="rgb(67,67,67)" fill-opacity="1" d=" M48.688079833984375,44.84743881225586 C54.195919036865234,44.69374465942383 58.537269592285156,40.10801315307617 58.38490295410156,34.604915618896484 C58.23253631591797,29.101818084716797 53.64414978027344,24.765583038330078 48.13631057739258,24.91927719116211 C33.78949737548828,25.070499420166016 13.167571067810059,25.918657302856445 -6.705108165740967,27.504119873046875 C-26.33776092529297,29.07077407836914 -46.025054931640625,31.463172912597656 -58.17399978637695,34.79100036621094 C-63.5,36.25199890136719 -66.63200378417969,41.75400161743164 -65.1709976196289,47.08000183105469 C-63.709999084472656,52.40599822998047 -58.20800018310547,55.53900146484375 -52.88199996948242,54.077999114990234 C-42.682106018066406,51.28949737548828 -24.559803009033203,48.960289001464844 -4.875372409820557,47.3896369934082 C14.569653511047363,45.83779525756836 34.75718688964844,44.99826431274414 48.688079833984375,44.84743881225586z"/></g></g></g><mask id="__lottie_element_11850_1" mask-type="alpha"><use xmlns:ns1="http://www.w3.org/1999/xlink" ns1:href="#__lottie_element_11850"/></mask><filter id="__lottie_element_11922" filterUnits="objectBoundingBox" x="0%" y="0%" width="100%" height="100%"><feComponentTransfer in="SourceGraphic"><feFuncA type="table" tableValues="1.0 0.0"/></feComponentTransfer></filter><mask id="__lottie_element_11844_2" mask-type="alpha" maskUnits="userSpaceOnUse"><g filter="url(#__lottie_element_11922)"><rect width="192" height="192" x="0" y="0" fill="#ffffff" opacity="0"/><use xmlns:ns2="http://www.w3.org/1999/xlink" ns2:href="#__lottie_element_11844"/></g></mask></defs><g clip-path="url(#__lottie_element_11834)"><g clip-path="url(#__lottie_element_11836)" transform="matrix(1,0,0,1,0,0)" opacity="1" style="display: block;"><g mask="url(#__lottie_element_11844_2)" style="display: block;"><g transform="matrix(0.9999948143959045,0,0,0.9999948143959045,103.76842498779297,84.0848159790039)" opacity="1"><g opacity="1" transform="matrix(0,-1,1,0,0,0)"><path class="secondary" fill="rgb(230,142,110)" fill-opacity="1" d=" M-52.18899917602539,-29.70199966430664 C-52.099998474121094,-38.81100082397461 -50.731998443603516,-40.12200164794922 -39.472999572753906,-40.016998291015625 C-21.110000610351562,-39.845001220703125 17.687000274658203,-40.43199920654297 37.93899917602539,-40.194000244140625 C50.073001861572266,-40.051998138427734 51.26100158691406,-38.3390007019043 51.5620002746582,-29.860000610351562 C52.104000091552734,-14.517999649047852 52.465999603271484,14.939000129699707 52.05500030517578,30.086000442504883 C51.82099914550781,38.71200180053711 49.665000915527344,39.57400131225586 37.974998474121094,39.862998962402344 C17.64699935913086,40.362998962402344 -19.902999877929688,40.30699920654297 -39.361000061035156,40.10100173950195 C-48.72700119018555,40.00199890136719 -51.729000091552734,40.38800048828125 -51.87099838256836,30.091999053955078 C-52.08100128173828,14.864999771118164 -52.33399963378906,-14.720999717712402 -52.18899917602539,-29.70199966430664z"/><path stroke-linecap="round" stroke-linejoin="round" fill-opacity="0" class="secondary" stroke="rgb(230,142,110)" stroke-opacity="1" stroke-width="1" d=" M-52.18899917602539,-29.70199966430664 C-52.099998474121094,-38.81100082397461 -50.731998443603516,-40.12200164794922 -39.472999572753906,-40.016998291015625 C-21.110000610351562,-39.845001220703125 17.687000274658203,-40.43199920654297 37.93899917602539,-40.194000244140625 C50.073001861572266,-40.051998138427734 51.26100158691406,-38.3390007019043 51.5620002746582,-29.860000610351562 C52.104000091552734,-14.517999649047852 52.465999603271484,14.939000129699707 52.05500030517578,30.086000442504883 C51.82099914550781,38.71200180053711 49.665000915527344,39.57400131225586 37.974998474121094,39.862998962402344 C17.64699935913086,40.362998962402344 -19.902999877929688,40.30699920654297 -39.361000061035156,40.10100173950195 C-48.72700119018555,40.00199890136719 -51.729000091552734,40.38800048828125 -51.87099838256836,30.091999053955078 C-52.08100128173828,14.864999771118164 -52.33399963378906,-14.720999717712402 -52.18899917602539,-29.70199966430664z"/></g></g></g><g mask="url(#__lottie_element_11850_1)" style="display: block;"><g transform="matrix(0.9999948143959045,0,0,0.9999948143959045,103.76842498779297,84.0848159790039)" opacity="1"><g opacity="1" transform="matrix(0,-1,1,0,0,0)"><path class="secondary" fill="rgb(230,142,110)" fill-opacity="1" d=" M-52.18899917602539,-29.70199966430664 C-52.099998474121094,-38.81100082397461 -50.731998443603516,-40.12200164794922 -39.472999572753906,-40.016998291015625 C-21.110000610351562,-39.845001220703125 17.687000274658203,-40.43199920654297 37.93899917602539,-40.194000244140625 C50.073001861572266,-40.051998138427734 51.26100158691406,-38.3390007019043 51.5620002746582,-29.860000610351562 C52.104000091552734,-14.517999649047852 52.465999603271484,14.939000129699707 52.05500030517578,30.086000442504883 C51.82099914550781,38.71200180053711 49.665000915527344,39.57400131225586 37.974998474121094,39.862998962402344 C17.64699935913086,40.362998962402344 -19.902999877929688,40.30699920654297 -39.361000061035156,40.10100173950195 C-48.72700119018555,40.00199890136719 -51.729000091552734,40.38800048828125 -51.87099838256836,30.091999053955078 C-52.08100128173828,14.864999771118164 -52.33399963378906,-14.720999717712402 -52.18899917602539,-29.70199966430664z"/><path stroke-linecap="round" stroke-linejoin="round" fill-opacity="0" class="secondary" stroke="rgb(230,142,110)" stroke-opacity="1" stroke-width="1" d=" M-52.18899917602539,-29.70199966430664 C-52.099998474121094,-38.81100082397461 -50.731998443603516,-40.12200164794922 -39.472999572753906,-40.016998291015625 C-21.110000610351562,-39.845001220703125 17.687000274658203,-40.43199920654297 37.93899917602539,-40.194000244140625 C50.073001861572266,-40.051998138427734 51.26100158691406,-38.3390007019043 51.5620002746582,-29.860000610351562 C52.104000091552734,-14.517999649047852 52.465999603271484,14.939000129699707 52.05500030517578,30.086000442504883 C51.82099914550781,38.71200180053711 49.665000915527344,39.57400131225586 37.974998474121094,39.862998962402344 C17.64699935913086,40.362998962402344 -19.902999877929688,40.30699920654297 -39.361000061035156,40.10100173950195 C-48.72700119018555,40.00199890136719 -51.729000091552734,40.38800048828125 -51.87099838256836,30.091999053955078 C-52.08100128173828,14.864999771118164 -52.33399963378906,-14.720999717712402 -52.18899917602539,-29.70199966430664z"/></g></g></g><g transform="matrix(0.9999948143959045,0,0,0.9999948143959045,99.52345275878906,157.95631408691406)" opacity="1" style="display: block;"><g opacity="1" transform="matrix(1,0,0,1,0,0)"><path class="secondary" fill="rgb(230,142,110)" fill-opacity="1" d=" M-0.6620000004768372,-5.96999979019165 C-0.546999990940094,-5.98199987411499 0.15000000596046448,-6 0.48100000619888306,-5.960000038146973 C2.2009999752044678,-5.751999855041504 5.427999973297119,-4.765999794006348 5.908999919891357,-0.5609999895095825 C6.315000057220459,2.990000009536743 3.7149999141693115,5.493000030517578 0.8209999799728394,5.922999858856201 C-0.7319999933242798,6.1539998054504395 -2.437000036239624,5.738999843597412 -3.681999921798706,4.730999946594238 C-7.835999965667725,1.3700000047683716 -5.96999979019165,-5.401000022888184 -0.6620000004768372,-5.96999979019165z"/><path stroke-linecap="round" stroke-linejoin="round" fill-opacity="0" class="secondary" stroke="rgb(230,142,110)" stroke-opacity="1" stroke-width="1" d=" M-0.6620000004768372,-5.96999979019165 C-0.546999990940094,-5.98199987411499 0.15000000596046448,-6 0.48100000619888306,-5.960000038146973 C2.2009999752044678,-5.751999855041504 5.427999973297119,-4.765999794006348 5.908999919891357,-0.5609999895095825 C6.315000057220459,2.990000009536743 3.7149999141693115,5.493000030517578 0.8209999799728394,5.922999858856201 C-0.7319999933242798,6.1539998054504395 -2.437000036239624,5.738999843597412 -3.681999921798706,4.730999946594238 C-7.835999965667725,1.3700000047683716 -5.96999979019165,-5.401000022888184 -0.6620000004768372,-5.96999979019165z"/></g></g><g transform="matrix(0.9999948143959045,0,0,0.9999948143959045,95.93529510498047,96.05842590332031)" opacity="1" style="display: block;"><g opacity="1" transform="matrix(0,-1,1,0,0,0)"><path stroke-linecap="round" stroke-linejoin="round" fill-opacity="0" class="primary" stroke="rgb(42,48,107)" stroke-opacity="1" stroke-width="3" d=" M-74.91500091552734,-40.64799880981445 C-74.78700256347656,-53.11399841308594 -72.8219985961914,-54.909000396728516 -56.6609992980957,-54.76499938964844 C-30.302000045776367,-54.529998779296875 25.38800048828125,-55.332000732421875 54.45899963378906,-55.00600051879883 C71.87699890136719,-54.81100082397461 73.58399963378906,-52.46699905395508 74.01499938964844,-40.86399841308594 C74.79299926757812,-19.868000030517578 75.31199645996094,20.444000244140625 74.72200012207031,41.17300033569336 C74.38600158691406,52.97800064086914 71.29199981689453,54.15800094604492 54.51100158691406,54.553001403808594 C25.332000732421875,55.237998962402344 -28.56999969482422,55.15999984741211 -56.500999450683594,54.87900161743164 C-69.94599914550781,54.74300003051758 -74.25399780273438,55.27199935913086 -74.45800018310547,41.180999755859375 C-74.76000213623047,20.343000411987305 -75.1240005493164,-20.14699935913086 -74.91500091552734,-40.64799880981445z"/></g></g><g transform="matrix(0.9999948143959045,0,0,0.9999948143959045,95.84331512451172,90.01536560058594)" opacity="1" style="display: block;"><g opacity="1" transform="matrix(0,-1,1,0,0,0)"><path stroke-linecap="round" stroke-linejoin="round" fill-opacity="0" class="primary" stroke="rgb(42,48,107)" stroke-opacity="1" stroke-width="3" d=" M-57.66299819946289,-31.621999740600586 C-57.564998626708984,-41.319000244140625 -56.053001403808594,-42.715999603271484 -43.612998962402344,-42.604000091552734 C-23.323999404907227,-42.42100143432617 19.541000366210938,-43.04399871826172 41.917999267578125,-42.79100036621094 C55.32400131225586,-42.638999938964844 56.638999938964844,-40.816001892089844 56.97100067138672,-31.790000915527344 C57.56999969482422,-15.456000328063965 57.96799850463867,15.904000282287598 57.513999938964844,32.029998779296875 C57.255001068115234,41.2130012512207 54.874000549316406,42.13199996948242 41.95800018310547,42.43899917602539 C19.49799919128418,42.97200012207031 -21.990999221801758,42.9119987487793 -43.4900016784668,42.69300079345703 C-53.8390007019043,42.58700180053711 -57.15399932861328,42.999000549316406 -57.31100082397461,32.0369987487793 C-57.542999267578125,15.826000213623047 -57.82400131225586,-15.67300033569336 -57.66299819946289,-31.621999740600586z"/></g></g><g transform="matrix(0.9999948143959045,0,0,0.9999948143959045,116.83419799804688,159.08375549316406)" opacity="1" style="display: block;"><g opacity="1" transform="matrix(1,0,0,1,0,0)"><path stroke-linecap="round" stroke-linejoin="round" fill-opacity="0" class="primary" stroke="rgb(42,48,107)" stroke-opacity="1" stroke-width="2" d=" M5.989999771118164,-0.013000000268220901 C2.5769999027252197,-0.01600000075995922 -5.826000213623047,0.03500000014901161 -6.355999946594238,0.0020000000949949026"/></g></g><g transform="matrix(0.9999948143959045,0,0,0.9999948143959045,75.55078125,159.3271026611328)" opacity="1" style="display: block;"><g opacity="1" transform="matrix(1,0,0,1,0,0)"><path stroke-linecap="round" stroke-linejoin="round" fill-opacity="0" class="primary" stroke="rgb(42,48,107)" stroke-opacity="1" stroke-width="2" d=" M6.446000099182129,0.04399999976158142 C3.315000057220459,0.035999998450279236 -5.895999908447266,-0.009999999776482582 -6.446000099182129,-0.04399999976158142"/></g></g><g transform="matrix(0.9999948143959045,0,0,0.9999948143959045,96.05719757080078,160.1049346923828)" opacity="1" style="display: block;"><g opacity="1" transform="matrix(1,0,0,1,0,0)"><path stroke-linecap="round" stroke-linejoin="round" fill-opacity="0" class="primary" stroke="rgb(42,48,107)" stroke-opacity="1" stroke-width="3" d=" M-0.6620000004768372,-5.96999979019165 C-0.546999990940094,-5.98199987411499 0.15000000596046448,-6 0.48100000619888306,-5.960000038146973 C2.2009999752044678,-5.751999855041504 5.427999973297119,-4.765999794006348 5.908999919891357,-0.5609999895095825 C6.315000057220459,2.990000009536743 3.7149999141693115,5.493000030517578 0.8209999799728394,5.922999858856201 C-0.7319999933242798,6.1539998054504395 -2.437000036239624,5.738999843597412 -3.681999921798706,4.730999946594238 C-7.835999965667725,1.3700000047683716 -5.96999979019165,-5.401000022888184 -0.6620000004768372,-5.96999979019165z"/></g></g><g transform="matrix(0.9999948143959045,0,0,0.9999948143959045,110.10975646972656,11.897544860839844)" opacity="1" style="display: block;"><g opacity="1" transform="matrix(0,-1,1,0,0,0)"><path stroke-linecap="round" stroke-linejoin="round" fill-opacity="0" class="primary" stroke="rgb(42,48,107)" stroke-opacity="1" stroke-width="2" d=" M0.07000000029802322,29.972000122070312 C0.09300000220537186,9.470000267028809 0.12399999797344208,-16.708999633789062 0.10700000077486038,-29.94499969482422"/></g></g><g transform="matrix(0.9999948143959045,0,0,0.9999948143959045,29.131155014038086,134.31539916992188)" opacity="1" style="display: block;"><g opacity="1" transform="matrix(0,-1,1,0,0,0)"><path stroke-linecap="round" stroke-linejoin="round" fill-opacity="0" class="primary" stroke="rgb(42,48,107)" stroke-opacity="1" stroke-width="2" d=" M23.634000778198242,-0.1340000033378601 C1.9989999532699585,-0.04899999871850014 -18.763999938964844,0.05299999937415123 -23.697999954223633,0.13099999725818634"/></g></g><g transform="matrix(0.9999948143959045,0,0,0.9999948143959045,28.660533905029297,89.01249694824219)" opacity="1" style="display: block;"><g opacity="1" transform="matrix(0,-1,1,0,0,0)"><path stroke-linecap="round" stroke-linejoin="round" fill-opacity="0" class="primary" stroke="rgb(42,48,107)" stroke-opacity="1" stroke-width="2" d=" M13.553000450134277,0.006000000052154064 C2.885999917984009,0.01899999938905239 -8.446999549865723,0.019999999552965164 -13.33899974822998,0.07100000232458115"/></g></g><g transform="matrix(0.9999948143959045,0,0,0.9999948143959045,74.7247314453125,124.6823959350586)" opacity="1" style="display: block;"><g opacity="1" transform="matrix(1,0,0,1,0,0)"><path stroke-linecap="round" stroke-linejoin="round" fill-opacity="0" class="primary" stroke="rgb(42,48,107)" stroke-opacity="1" stroke-width="2" d=" M9.489999771118164,0.06300000101327896 C0.5170000195503235,0.16699999570846558 -8.824000358581543,0.21799999475479126 -9.489999771118164,-0.13899999856948853"/></g></g><g transform="matrix(0.9999948143959045,0,0,0.9999948143959045,124.89995574951172,113.24727630615234)" opacity="1" style="display: block;"><g opacity="1" transform="matrix(1,0,0,1,0,0)"><path stroke-linecap="round" stroke-linejoin="round" fill-opacity="0" class="primary" stroke="rgb(42,48,107)" stroke-opacity="1" stroke-width="2" d=" M2.4800000190734863,-0.02500000037252903 C-0.26600000262260437,-0.02800000086426735 -2.2660000324249268,0.0560000017285347 -2.756999969482422,0.013000000268220901"/></g></g><g transform="matrix(0.9999948143959045,0,0,0.9999948143959045,99.78868103027344,113.21200561523438)" opacity="1" style="display: block;"><g opacity="1" transform="matrix(1,0,0,1,0,0)"><path stroke-linecap="round" stroke-linejoin="round" fill-opacity="0" class="primary" stroke="rgb(42,48,107)" stroke-opacity="1" stroke-width="2" d=" M17.111000061035156,-0.012000000104308128 C10.329999923706055,-0.012000000104308128 -15.135000228881836,0.12600000202655792 -17.111000061035156,-0.041999999433755875"/></g></g><g transform="matrix(0.9999948143959045,0,0,0.9999948143959045,71.24463653564453,113.04902648925781)" opacity="1" style="display: block;"><g opacity="1" transform="matrix(1,0,0,1,0,0)"><path stroke-linecap="round" stroke-linejoin="round" fill-opacity="0" class="primary" stroke="rgb(42,48,107)" stroke-opacity="1" stroke-width="2" d=" M6.188000202178955,0.04100000113248825 C-0.061000000685453415,0.04600000008940697 -5.331999778747559,0.03200000151991844 -6.188000202178955,-0.041999999433755875"/></g></g><g transform="matrix(0.9999948143959045,0,0,0.9999948143959045,110.27228546142578,100.37260437011719)" opacity="1" style="display: block;"><g opacity="1" transform="matrix(1,0,0,1,0,0)"><path stroke-linecap="round" stroke-linejoin="round" fill-opacity="0" class="primary" stroke="rgb(42,48,107)" stroke-opacity="1" stroke-width="2" d=" M16.809999465942383,-0.012000000104308128 C9.609999656677246,-0.00800000037997961 -15.163000106811523,0.12399999797344208 -17.111000061035156,-0.041999999433755875"/></g></g><g transform="matrix(0.9999948143959045,0,0,0.9999948143959045,76.32011413574219,100.3248291015625)" opacity="1" style="display: block;"><g opacity="1" transform="matrix(1,0,0,1,0,0)"><path stroke-linecap="round" stroke-linejoin="round" fill-opacity="0" class="primary" stroke="rgb(42,48,107)" stroke-opacity="1" stroke-width="2" d=" M11.407999992370605,0.01600000075995922 C1.781999945640564,0.019999999552965164 -9.88599967956543,0.017999999225139618 -11.407999992370605,-0.017999999225139618"/></g></g><g transform="matrix(0.9999948143959045,0,0,0.9999948143959045,81.98275756835938,87.14564514160156)" opacity="1" style="display: block;"><g opacity="1" transform="matrix(1,0,0,1,0,0)"><path stroke-linecap="round" stroke-linejoin="round" fill-opacity="0" class="primary" stroke="rgb(42,48,107)" stroke-opacity="1" stroke-width="2" d=" M17.111000061035156,-0.10899999737739563 C10.329999923706055,-0.10899999737739563 -15.97599983215332,0.4699999988079071 -17.111000061035156,-0.13899999856948853"/></g></g><g transform="matrix(0.9999948143959045,0,0,0.9999948143959045,124.46014404296875,74.07093811035156)" opacity="1" style="display: block;"><g opacity="1" transform="matrix(1,0,0,1,0,0)"><path stroke-linecap="round" stroke-linejoin="round" fill-opacity="0" class="primary" stroke="rgb(42,48,107)" stroke-opacity="1" stroke-width="2" d=" M2.756999969482422,-0.024000000208616257 C-0.13099999725818634,-0.03400000184774399 -2.25,0.05700000002980232 -2.756999969482422,0.013000000268220901"/></g></g><g transform="matrix(0.9999948143959045,0,0,0.9999948143959045,99.34886932373047,74.03521728515625)" opacity="1" style="display: block;"><g opacity="1" transform="matrix(1,0,0,1,0,0)"><path stroke-linecap="round" stroke-linejoin="round" fill-opacity="0" class="primary" stroke="rgb(42,48,107)" stroke-opacity="1" stroke-width="2" d=" M17.111000061035156,-0.012000000104308128 C10.329999923706055,-0.012000000104308128 -15.135000228881836,0.12600000202655792 -17.111000061035156,-0.041999999433755875"/></g></g><g transform="matrix(0.9999948143959045,0,0,0.9999948143959045,70.80482482910156,73.87268829345703)" opacity="1" style="display: block;"><g opacity="1" transform="matrix(1,0,0,1,0,0)"><path stroke-linecap="round" stroke-linejoin="round" fill-opacity="0" class="primary" stroke="rgb(42,48,107)" stroke-opacity="1" stroke-width="2" d=" M6.188000202178955,0.04100000113248825 C-0.061000000685453415,0.04600000008940697 -5.331999778747559,0.03200000151991844 -6.188000202178955,-0.041999999433755875"/></g></g><g transform="matrix(0.9999948143959045,0,0,0.9999948143959045,109.83247375488281,61.19581985473633)" opacity="1" style="display: block;"><g opacity="1" transform="matrix(1,0,0,1,0,0)"><path stroke-linecap="round" stroke-linejoin="round" fill-opacity="0" class="primary" stroke="rgb(42,48,107)" stroke-opacity="1" stroke-width="2" d=" M17.111000061035156,-0.012000000104308128 C10.329999923706055,-0.012000000104308128 -15.135000228881836,0.12600000202655792 -17.111000061035156,-0.041999999433755875"/></g></g><g transform="matrix(0.9999948143959045,0,0,0.9999948143959045,75.88030242919922,61.14849090576172)" opacity="1" style="display: block;"><g opacity="1" transform="matrix(1,0,0,1,0,0)"><path stroke-linecap="round" stroke-linejoin="round" fill-opacity="0" class="primary" stroke="rgb(42,48,107)" stroke-opacity="1" stroke-width="2" d=" M11.407999992370605,0.01600000075995922 C1.781999945640564,0.019999999552965164 -9.88599967956543,0.017999999225139618 -11.407999992370605,-0.017999999225139618"/></g></g><g transform="matrix(0.9999948143959045,0,0,0.9999948143959045,116.56361389160156,48.03315353393555)" opacity="1" style="display: block;"><g opacity="1" transform="matrix(1,0,0,1,0,0)"><path stroke-linecap="round" stroke-linejoin="round" fill-opacity="0" class="primary" stroke="rgb(42,48,107)" stroke-opacity="1" stroke-width="2" d=" M10.395999908447266,-0.06199999898672104 C0.8009999990463257,0.017000000923871994 -8.873000144958496,0.14100000262260437 -10.395999908447266,-0.004999999888241291"/></g></g><g transform="matrix(0.9999948143959045,0,0,0.9999948143959045,82.0095443725586,47.80632781982422)" opacity="1" style="display: block;"><g opacity="1" transform="matrix(1,0,0,1,0,0)"><path stroke-linecap="round" stroke-linejoin="round" fill-opacity="0" class="primary" stroke="rgb(42,48,107)" stroke-opacity="1" stroke-width="2" d=" M16.954999923706055,-0.19200000166893005 C10.17300033569336,-0.19200000166893005 -14.63700008392334,0.3619999885559082 -16.954999923706055,0.13899999856948853"/></g></g></g></g></svg>