<svg xmlns="http://www.w3.org/2000/svg" xmlns:xlink="http://www.w3.org/1999/xlink" viewBox="0 0 192 192" width="192" height="192" preserveAspectRatio="xMidYMid meet" style="width: 100%; height: 100%; transform: translate3d(0px, 0px, 0px); content-visibility: visible;"><defs><clipPath id="__lottie_element_13958"><rect width="192" height="192" x="0" y="0"/></clipPath><clipPath id="__lottie_element_13960"><path d="M0,0 L192,0 L192,192 L0,192z"/></clipPath><g id="__lottie_element_13968"><g transform="matrix(0.9877559542655945,0.15600687265396118,-0.15600687265396118,0.9877559542655945,119.33543395996094,90.44901275634766)" opacity="1" style="display: block;"><path fill="rgb(255,0,0)" fill-opacity="1" d=" M-53.00400161743164,-71.91999816894531 C-53.027000427246094,-71.10600280761719 -50.000999450683594,71.43399810791016 -49.770999908447266,72.18099975585938 C-49.62799835205078,72.64600372314453 52.67399978637695,72.30999755859375 52.74100112915039,71.33499908447266 C52.775001525878906,70.83399963378906 52.849998474121094,52.86600112915039 52.9109992980957,29.83099937438965 C52.97100067138672,7.341000080108643 53.018001556396484,-19.979999542236328 53.000999450683594,-40.59299850463867 C52.98899841308594,-55.15599822998047 36.96799850463867,-49.66899871826172 33.70600128173828,-52.5890007019043 C31.138999938964844,-54.8849983215332 36.98699951171875,-72.26100158691406 25.621000289916992,-72.31500244140625 C-5.808000087738037,-72.46700286865234 -52.9900016784668,-72.4010009765625 -53.00400161743164,-71.91999816894531z"/><g opacity="1" transform="matrix(1,0,0,1,0,0)"/></g></g><g id="__lottie_element_13975"><g transform="matrix(-1.5408992767333984,-0.24337071180343628,0.3307345509529114,-2.0940425395965576,97.0711898803711,81.60737609863281)" opacity="1" style="display: block;"><g opacity="0" transform="matrix(1,0,0,1,0,0)"><path fill="rgb(67,67,67)" fill-opacity="1" d=" M-58.43000030517578,-44.48899841308594 C-57.97200012207031,-43.47700119018555 -56.78200149536133,-43.060001373291016 -55.77000045776367,-43.55699920654297 C-54.757999420166016,-44.05400085449219 -54.310001373291016,-45.27799987792969 -54.768001556396484,-46.290000915527344 C-54.742000579833984,-46.334999084472656 -54.77299880981445,-46.30500030517578 -54.77299880981445,-46.30500030517578 C-54.77299880981445,-46.30500030517578 -54.775001525878906,-46.29600143432617 -54.77899932861328,-46.30400085449219 C-55.244998931884766,-47.29899978637695 -56.44200134277344,-47.70199966430664 -57.45500183105469,-47.20399856567383 C-58.46799850463867,-46.707000732421875 -58.9119987487793,-45.49599838256836 -58.44599914550781,-44.50199890136719 C-58.439998626708984,-44.51499938964844 -58.448001861572266,-44.516998291015625 -58.448001861572266,-44.516998291015625 C-58.448001861572266,-44.516998291015625 -58.44499969482422,-44.520999908447266 -58.43000030517578,-44.48899841308594z"/></g><g opacity="0" transform="matrix(0.9975640773773193,-0.06975647062063217,-0.06975647062063217,-0.9975640773773193,10.67947006225586,-4.087581634521484)"><path fill="rgb(67,67,67)" fill-opacity="1" d=" M-58.43000030517578,-44.48899841308594 C-57.97200012207031,-43.47700119018555 -56.78200149536133,-43.060001373291016 -55.77000045776367,-43.55699920654297 C-54.757999420166016,-44.05400085449219 -54.310001373291016,-45.27799987792969 -54.768001556396484,-46.290000915527344 C-54.742000579833984,-46.334999084472656 -54.77299880981445,-46.30500030517578 -54.77299880981445,-46.30500030517578 C-54.77299880981445,-46.30500030517578 -54.775001525878906,-46.29600143432617 -54.77899932861328,-46.30400085449219 C-55.244998931884766,-47.29899978637695 -56.44200134277344,-47.70199966430664 -57.45500183105469,-47.20399856567383 C-58.46799850463867,-46.707000732421875 -58.9119987487793,-45.49599838256836 -58.44599914550781,-44.50199890136719 C-58.439998626708984,-44.51499938964844 -58.448001861572266,-44.516998291015625 -58.448001861572266,-44.516998291015625 C-58.448001861572266,-44.516998291015625 -58.44499969482422,-44.520999908447266 -58.43000030517578,-44.48899841308594z"/></g><g opacity="0" transform="matrix(1,0,0,1,22,0)"><path fill="rgb(67,67,67)" fill-opacity="1" d=" M-58.43000030517578,-44.48899841308594 C-57.97200012207031,-43.47700119018555 -56.78200149536133,-43.060001373291016 -55.77000045776367,-43.55699920654297 C-54.757999420166016,-44.05400085449219 -54.310001373291016,-45.27799987792969 -54.768001556396484,-46.290000915527344 C-54.742000579833984,-46.334999084472656 -54.77299880981445,-46.30500030517578 -54.77299880981445,-46.30500030517578 C-54.77299880981445,-46.30500030517578 -54.775001525878906,-46.29600143432617 -54.77899932861328,-46.30400085449219 C-55.244998931884766,-47.29899978637695 -56.44200134277344,-47.70199966430664 -57.45500183105469,-47.20399856567383 C-58.46799850463867,-46.707000732421875 -58.9119987487793,-45.49599838256836 -58.44599914550781,-44.50199890136719 C-58.439998626708984,-44.51499938964844 -58.448001861572266,-44.516998291015625 -58.448001861572266,-44.516998291015625 C-58.448001861572266,-44.516998291015625 -58.44499969482422,-44.520999908447266 -58.43000030517578,-44.48899841308594z"/></g><g opacity="0" transform="matrix(0.9975640773773193,-0.06975647062063217,-0.06975647062063217,-0.9975640773773193,32.679473876953125,-4.087581634521484)"><path fill="rgb(67,67,67)" fill-opacity="1" d=" M-58.43000030517578,-44.48899841308594 C-57.97200012207031,-43.47700119018555 -56.78200149536133,-43.060001373291016 -55.77000045776367,-43.55699920654297 C-54.757999420166016,-44.05400085449219 -54.310001373291016,-45.27799987792969 -54.768001556396484,-46.290000915527344 C-54.742000579833984,-46.334999084472656 -54.77299880981445,-46.30500030517578 -54.77299880981445,-46.30500030517578 C-54.77299880981445,-46.30500030517578 -54.775001525878906,-46.29600143432617 -54.77899932861328,-46.30400085449219 C-55.244998931884766,-47.29899978637695 -56.44200134277344,-47.70199966430664 -57.45500183105469,-47.20399856567383 C-58.46799850463867,-46.707000732421875 -58.9119987487793,-45.49599838256836 -58.44599914550781,-44.50199890136719 C-58.439998626708984,-44.51499938964844 -58.448001861572266,-44.516998291015625 -58.448001861572266,-44.516998291015625 C-58.448001861572266,-44.516998291015625 -58.44499969482422,-44.520999908447266 -58.43000030517578,-44.48899841308594z"/></g><g opacity="0" transform="matrix(1,0,0,1,44,0)"><path fill="rgb(67,67,67)" fill-opacity="1" d=" M-58.43000030517578,-44.48899841308594 C-57.97200012207031,-43.47700119018555 -56.78200149536133,-43.060001373291016 -55.77000045776367,-43.55699920654297 C-54.757999420166016,-44.05400085449219 -54.310001373291016,-45.27799987792969 -54.768001556396484,-46.290000915527344 C-54.742000579833984,-46.334999084472656 -54.77299880981445,-46.30500030517578 -54.77299880981445,-46.30500030517578 C-54.77299880981445,-46.30500030517578 -54.775001525878906,-46.29600143432617 -54.77899932861328,-46.30400085449219 C-55.244998931884766,-47.29899978637695 -56.44200134277344,-47.70199966430664 -57.45500183105469,-47.20399856567383 C-58.46799850463867,-46.707000732421875 -58.9119987487793,-45.49599838256836 -58.44599914550781,-44.50199890136719 C-58.439998626708984,-44.51499938964844 -58.448001861572266,-44.516998291015625 -58.448001861572266,-44.516998291015625 C-58.448001861572266,-44.516998291015625 -58.44499969482422,-44.520999908447266 -58.43000030517578,-44.48899841308594z"/></g><g opacity="0" transform="matrix(0.9975640773773193,-0.06975647062063217,-0.06975647062063217,-0.9975640773773193,54.67947006225586,-4.087581634521484)"><path fill="rgb(67,67,67)" fill-opacity="1" d=" M-58.43000030517578,-44.48899841308594 C-57.97200012207031,-43.47700119018555 -56.78200149536133,-43.060001373291016 -55.77000045776367,-43.55699920654297 C-54.757999420166016,-44.05400085449219 -54.310001373291016,-45.27799987792969 -54.768001556396484,-46.290000915527344 C-54.742000579833984,-46.334999084472656 -54.77299880981445,-46.30500030517578 -54.77299880981445,-46.30500030517578 C-54.77299880981445,-46.30500030517578 -54.775001525878906,-46.29600143432617 -54.77899932861328,-46.30400085449219 C-55.244998931884766,-47.29899978637695 -56.44200134277344,-47.70199966430664 -57.45500183105469,-47.20399856567383 C-58.46799850463867,-46.707000732421875 -58.9119987487793,-45.49599838256836 -58.44599914550781,-44.50199890136719 C-58.439998626708984,-44.51499938964844 -58.448001861572266,-44.516998291015625 -58.448001861572266,-44.516998291015625 C-58.448001861572266,-44.516998291015625 -58.44499969482422,-44.520999908447266 -58.43000030517578,-44.48899841308594z"/></g><g opacity="0" transform="matrix(1,0,0,1,66,0)"><path fill="rgb(67,67,67)" fill-opacity="1" d=" M-58.43000030517578,-44.48899841308594 C-57.97200012207031,-43.47700119018555 -56.78200149536133,-43.060001373291016 -55.77000045776367,-43.55699920654297 C-54.757999420166016,-44.05400085449219 -54.310001373291016,-45.27799987792969 -54.768001556396484,-46.290000915527344 C-54.742000579833984,-46.334999084472656 -54.77299880981445,-46.30500030517578 -54.77299880981445,-46.30500030517578 C-54.77299880981445,-46.30500030517578 -54.775001525878906,-46.29600143432617 -54.77899932861328,-46.30400085449219 C-55.244998931884766,-47.29899978637695 -56.44200134277344,-47.70199966430664 -57.45500183105469,-47.20399856567383 C-58.46799850463867,-46.707000732421875 -58.9119987487793,-45.49599838256836 -58.44599914550781,-44.50199890136719 C-58.439998626708984,-44.51499938964844 -58.448001861572266,-44.516998291015625 -58.448001861572266,-44.516998291015625 C-58.448001861572266,-44.516998291015625 -58.44499969482422,-44.520999908447266 -58.43000030517578,-44.48899841308594z"/></g></g></g><clipPath id="__lottie_element_13997"><path d="M0,0 L192,0 L192,192 L0,192z"/></clipPath><clipPath id="__lottie_element_13998"><path fill="#ffffff" clip-rule="nonzero" d=" M43.266998291015625,21 C43.24399948120117,21.81399917602539 46.27000045776367,164.35400390625 46.5,165.1009979248047 C46.643001556396484,165.5659942626953 148.94500732421875,165.22900390625 149.01199340820312,164.25399780273438 C149.04600524902344,163.7530059814453 149.12100219726562,145.78500366210938 149.1820068359375,122.75 C149.24200439453125,100.26000213623047 149.28900146484375,72.93900299072266 149.27200317382812,52.32600021362305 C149.25999450683594,37.76300048828125 133.24000549316406,43.250999450683594 129.97799682617188,40.33100128173828 C127.41100311279297,38.03499984741211 133.25900268554688,20.659000396728516 121.89299774169922,20.604999542236328 C90.46399688720703,20.452999114990234 43.28099822998047,20.518999099731445 43.266998291015625,21" fill-opacity="1"/></clipPath><filter id="__lottie_element_14000" filterUnits="objectBoundingBox" x="0%" y="0%" width="100%" height="100%"><feComponentTransfer in="SourceGraphic"><feFuncA type="table" tableValues="1.0 0.0"/></feComponentTransfer></filter><mask id="__lottie_element_13975_2" mask-type="alpha" maskUnits="userSpaceOnUse"><g filter="url(#__lottie_element_14000)"><rect width="192" height="192" x="0" y="0" fill="#ffffff" opacity="0"/><use xmlns:ns1="http://www.w3.org/1999/xlink" ns1:href="#__lottie_element_13975"/></g></mask><mask id="__lottie_element_13968_1" mask-type="alpha"><use xmlns:ns2="http://www.w3.org/1999/xlink" ns2:href="#__lottie_element_13968"/></mask></defs><g clip-path="url(#__lottie_element_13958)"><g clip-path="url(#__lottie_element_13960)" transform="matrix(1,0,0,1,0,0)" opacity="1" style="display: block;"><g transform="matrix(1,0,0,1,100.65200805664062,98.71399688720703)" opacity="1" style="display: none;"><g opacity="1" transform="matrix(1,0,0,1,0,0)"><path class="secondary" fill="rgb(230,142,110)" fill-opacity="1" d=" M-40.63800048828125,5.156000137329102 C-40.597999572753906,6.474999904632568 -39.42100143432617,7.9710001945495605 -37.40299987792969,7.97599983215332 C-24.582000732421875,8.006999969482422 23.56399917602539,8.118000030517578 37.2130012512207,8.092000007629395 C39.520999908447266,8.088000297546387 40.810001373291016,6.421000003814697 40.893001556396484,5.046000003814697 C41.07400131225586,2.0199999809265137 41.2239990234375,-2.444000005722046 41.07899856567383,-5.300000190734863 C40.987998962402344,-7.080999851226807 39.266998291015625,-8.093000411987305 37.89500045776367,-8.093000411987305 C20.64299964904785,-8.093999862670898 -24.764999389648438,-8.098999977111816 -37.81100082397461,-8.09000015258789 C-40.07400131225586,-8.088000297546387 -41.22100067138672,-6.705999851226807 -41.132999420166016,-5.822999954223633 C-41.02199935913086,-4.7230000495910645 -40.91699981689453,-3.6600000858306885 -40.91299819946289,-3.5179998874664307 C-40.86000061035156,-1.9079999923706055 -40.72600173950195,2.25600004196167 -40.63800048828125,5.156000137329102z"/><path stroke-linecap="round" stroke-linejoin="round" fill-opacity="0" class="secondary" stroke="rgb(230,142,110)" stroke-opacity="1" stroke-width="0.5" d=" M-40.63800048828125,5.156000137329102 C-40.597999572753906,6.474999904632568 -39.42100143432617,7.9710001945495605 -37.40299987792969,7.97599983215332 C-24.582000732421875,8.006999969482422 23.56399917602539,8.118000030517578 37.2130012512207,8.092000007629395 C39.520999908447266,8.088000297546387 40.810001373291016,6.421000003814697 40.893001556396484,5.046000003814697 C41.07400131225586,2.0199999809265137 41.2239990234375,-2.444000005722046 41.07899856567383,-5.300000190734863 C40.987998962402344,-7.080999851226807 39.266998291015625,-8.093000411987305 37.89500045776367,-8.093000411987305 C20.64299964904785,-8.093999862670898 -24.764999389648438,-8.098999977111816 -37.81100082397461,-8.09000015258789 C-40.07400131225586,-8.088000297546387 -41.22100067138672,-6.705999851226807 -41.132999420166016,-5.822999954223633 C-41.02199935913086,-4.7230000495910645 -40.91699981689453,-3.6600000858306885 -40.91299819946289,-3.5179998874664307 C-40.86000061035156,-1.9079999923706055 -40.72600173950195,2.25600004196167 -40.63800048828125,5.156000137329102z"/></g></g><g mask="url(#__lottie_element_13968_1)" style="display: block;"><g transform="matrix(0.9880554676055908,0.1540984958410263,-0.1540984958410263,0.9880554676055908,122.6346206665039,97.05651092529297)" opacity="1"><g opacity="1" transform="matrix(1,0,0,1,0,0)"><path class="secondary" fill="rgb(230,142,110)" fill-opacity="1" d=" M-40.63800048828125,5.156000137329102 C-40.597999572753906,6.474999904632568 -39.42100143432617,7.9710001945495605 -37.40299987792969,7.97599983215332 C-24.582000732421875,8.006999969482422 23.56399917602539,8.118000030517578 37.2130012512207,8.092000007629395 C39.520999908447266,8.088000297546387 40.810001373291016,6.421000003814697 40.893001556396484,5.046000003814697 C41.07400131225586,2.0199999809265137 41.2239990234375,-2.444000005722046 41.07899856567383,-5.300000190734863 C40.987998962402344,-7.080999851226807 39.266998291015625,-8.093000411987305 37.89500045776367,-8.093000411987305 C20.64299964904785,-8.093999862670898 -24.764999389648438,-8.098999977111816 -37.81100082397461,-8.09000015258789 C-40.07400131225586,-8.088000297546387 -41.22100067138672,-6.705999851226807 -41.132999420166016,-5.822999954223633 C-41.02199935913086,-4.7230000495910645 -40.91699981689453,-3.6600000858306885 -40.91299819946289,-3.5179998874664307 C-40.86000061035156,-1.9079999923706055 -40.72600173950195,2.25600004196167 -40.63800048828125,5.156000137329102z"/><path stroke-linecap="round" stroke-linejoin="round" fill-opacity="0" class="secondary" stroke="rgb(230,142,110)" stroke-opacity="1" stroke-width="0.5" d=" M-40.63800048828125,5.156000137329102 C-40.597999572753906,6.474999904632568 -39.42100143432617,7.9710001945495605 -37.40299987792969,7.97599983215332 C-24.582000732421875,8.006999969482422 23.56399917602539,8.118000030517578 37.2130012512207,8.092000007629395 C39.520999908447266,8.088000297546387 40.810001373291016,6.421000003814697 40.893001556396484,5.046000003814697 C41.07400131225586,2.0199999809265137 41.2239990234375,-2.444000005722046 41.07899856567383,-5.300000190734863 C40.987998962402344,-7.080999851226807 39.266998291015625,-8.093000411987305 37.89500045776367,-8.093000411987305 C20.64299964904785,-8.093999862670898 -24.764999389648438,-8.098999977111816 -37.81100082397461,-8.09000015258789 C-40.07400131225586,-8.088000297546387 -41.22100067138672,-6.705999851226807 -41.132999420166016,-5.822999954223633 C-41.02199935913086,-4.7230000495910645 -40.91699981689453,-3.6600000858306885 -40.91299819946289,-3.5179998874664307 C-40.86000061035156,-1.9079999923706055 -40.72600173950195,2.25600004196167 -40.63800048828125,5.156000137329102z"/></g></g></g><g mask="url(#__lottie_element_13975_2)" style="display: block;"><g transform="matrix(0.9877559542655945,0.15600687265396118,-0.15600687265396118,0.9877559542655945,173.1932830810547,36.647457122802734)" opacity="1"><g opacity="1" transform="matrix(1,0,0,1,0,0)"><path class="secondary" fill="rgb(230,142,110)" fill-opacity="1" d=" M9.807000160217285,12.218999862670898 C10.369999885559082,12.685999870300293 11.180000305175781,12.04699993133545 11.109000205993652,11.446000099182129 C9.701000213623047,-0.48500001430511475 -3.0789999961853027,-11.263999938964844 -9.972000122070312,-12.366000175476074 C-10.723999977111816,-12.486000061035156 -11.380000114440918,-11.842000007629395 -11.005999565124512,-11.083000183105469 C-9.696000099182129,-8.42199993133545 -6.743000030517578,-1.7790000438690186 -7.607999801635742,5.926000118255615 C-7.849999904632568,8.079000473022461 1.4299999475479126,5.26200008392334 9.807000160217285,12.218999862670898z"/><path stroke-linecap="round" stroke-linejoin="round" fill-opacity="0" class="secondary" stroke="rgb(230,142,110)" stroke-opacity="1" stroke-width="0.499" d=" M9.807000160217285,12.218999862670898 C10.369999885559082,12.685999870300293 11.180000305175781,12.04699993133545 11.109000205993652,11.446000099182129 C9.701000213623047,-0.48500001430511475 -3.0789999961853027,-11.263999938964844 -9.972000122070312,-12.366000175476074 C-10.723999977111816,-12.486000061035156 -11.380000114440918,-11.842000007629395 -11.005999565124512,-11.083000183105469 C-9.696000099182129,-8.42199993133545 -6.743000030517578,-1.7790000438690186 -7.607999801635742,5.926000118255615 C-7.849999904632568,8.079000473022461 1.4299999475479126,5.26200008392334 9.807000160217285,12.218999862670898z"/></g></g></g><g transform="matrix(0.9939244985580444,-0.11006420850753784,0.11006420850753784,0.9939244985580444,81.38838958740234,93.09017181396484)" opacity="1" style="display: none;"><g opacity="1" transform="matrix(1,0,0,1,0,0)"><path stroke-linecap="round" stroke-linejoin="round" fill-opacity="0" class="primary" stroke="rgb(42,48,107)" stroke-opacity="1" stroke-width="1.5" d=" M-53.00400161743164,-71.91999816894531 C-53.027000427246094,-71.10600280761719 -50.000999450683594,71.43399810791016 -49.770999908447266,72.18099975585938 C-49.62799835205078,72.64600372314453 52.67399978637695,72.30999755859375 52.74100112915039,71.33499908447266 C52.775001525878906,70.83399963378906 52.840999603271484,52.86600112915039 52.89799880981445,29.83099937438965 C52.95399856567383,7.341000080108643 53.000999450683594,-19.979999542236328 53.000999450683594,-40.59299850463867 C53.000999450683594,-50.38199996948242 46.09299850463867,-60.16899871826172 42.83100128173828,-63.0890007019043 C40.263999938964844,-65.38500213623047 35.22200012207031,-72.31500244140625 25.621000289916992,-72.31500244140625 C-5.809000015258789,-72.31500244140625 -52.9900016784668,-72.4010009765625 -53.00400161743164,-71.91999816894531z"/></g></g><g transform="matrix(0.9877559542655945,0.15600687265396118,-0.15600687265396118,0.9877559542655945,119.33543395996094,90.44901275634766)" opacity="1" style="display: block;"><g opacity="1" transform="matrix(1,0,0,1,0,0)"><path stroke-linecap="round" stroke-linejoin="round" fill-opacity="0" class="primary" stroke="rgb(42,48,107)" stroke-opacity="1" stroke-width="1.5" d=" M-53.00400161743164,-71.91999816894531 C-53.027000427246094,-71.10600280761719 -50.000999450683594,71.43399810791016 -49.770999908447266,72.18099975585938 C-49.62799835205078,72.64600372314453 52.67399978637695,72.30999755859375 52.74100112915039,71.33499908447266 C52.775001525878906,70.83399963378906 52.849998474121094,52.86600112915039 52.9109992980957,29.83099937438965 C52.97100067138672,7.341000080108643 53.018001556396484,-19.979999542236328 53.000999450683594,-40.59299850463867 C52.98899841308594,-55.15599822998047 36.96799850463867,-49.66899871826172 33.70600128173828,-52.5890007019043 C31.138999938964844,-54.8849983215332 36.98699951171875,-72.26100158691406 25.621000289916992,-72.31500244140625 C-5.808000087738037,-72.46700286865234 -52.9900016784668,-72.4010009765625 -53.00400161743164,-71.91999816894531z"/></g></g><g transform="matrix(0.9877559542655945,0.15600687265396118,-0.15600687265396118,0.9877559542655945,167.31846618652344,40.72993087768555)" opacity="1" style="display: block;"><g opacity="1" transform="matrix(1,0,0,1,0,0)"><path stroke-linecap="round" stroke-linejoin="round" fill-opacity="0" class="primary" stroke="rgb(42,48,107)" stroke-opacity="1" stroke-width="0.9985" d=" M13.789999961853027,16.215999603271484 C13.612000465393066,1.5110000371932983 -3.6110000610351562,-17.023000717163086 -13.789999961853027,-16.187999725341797"/></g></g><g transform="matrix(1,0,0,1,140.89401245117188,31.212993621826172)" opacity="1" style="display: none;"><g opacity="1" transform="matrix(1,0,0,1,0,0)"><path class="secondary" fill="rgb(230,142,110)" fill-opacity="1" d=" M9.807000160217285,12.218999862670898 C10.369999885559082,12.685999870300293 11.180000305175781,12.04699993133545 11.109000205993652,11.446000099182129 C9.701000213623047,-0.48500001430511475 -3.0789999961853027,-11.263999938964844 -9.972000122070312,-12.366000175476074 C-10.723999977111816,-12.486000061035156 -11.380000114440918,-11.842000007629395 -11.005999565124512,-11.083000183105469 C-9.696000099182129,-8.42199993133545 -6.743000030517578,-1.7790000438690186 -7.607999801635742,5.926000118255615 C-7.849999904632568,8.079000473022461 1.4299999475479126,5.26200008392334 9.807000160217285,12.218999862670898z"/><path stroke-linecap="round" stroke-linejoin="round" fill-opacity="0" class="secondary" stroke="rgb(230,142,110)" stroke-opacity="1" stroke-width="0.499" d=" M9.807000160217285,12.218999862670898 C10.369999885559082,12.685999870300293 11.180000305175781,12.04699993133545 11.109000205993652,11.446000099182129 C9.701000213623047,-0.48500001430511475 -3.0789999961853027,-11.263999938964844 -9.972000122070312,-12.366000175476074 C-10.723999977111816,-12.486000061035156 -11.380000114440918,-11.842000007629395 -11.005999565124512,-11.083000183105469 C-9.696000099182129,-8.42199993133545 -6.743000030517578,-1.7790000438690186 -7.607999801635742,5.926000118255615 C-7.849999904632568,8.079000473022461 1.4299999475479126,5.26200008392334 9.807000160217285,12.218999862670898z"/></g></g><g transform="matrix(1,0,0,1,96.08900451660156,92.75799560546875)" opacity="1" style="display: none;"><g opacity="1" transform="matrix(1,0,0,1,0,0)"><path stroke-linecap="round" stroke-linejoin="round" fill-opacity="0" class="primary" stroke="rgb(42,48,107)" stroke-opacity="1" stroke-width="1.5" d=" M-53.00400161743164,-71.91999816894531 C-53.027000427246094,-71.10600280761719 -50.000999450683594,71.43399810791016 -49.770999908447266,72.18099975585938 C-49.62799835205078,72.64600372314453 52.67399978637695,72.30999755859375 52.74100112915039,71.33499908447266 C52.775001525878906,70.83399963378906 52.849998474121094,52.86600112915039 52.9109992980957,29.83099937438965 C52.97100067138672,7.341000080108643 53.018001556396484,-19.979999542236328 53.000999450683594,-40.59299850463867 C52.98899841308594,-55.15599822998047 36.96799850463867,-49.66899871826172 33.70600128173828,-52.5890007019043 C31.138999938964844,-54.8849983215332 36.98699951171875,-72.26100158691406 25.621000289916992,-72.31500244140625 C-5.808000087738037,-72.46700286865234 -52.9900016784668,-72.4010009765625 -53.00400161743164,-71.91999816894531z"/></g></g><g transform="matrix(1,0,0,1,135.7270050048828,36.162994384765625)" opacity="1" style="display: none;"><g opacity="1" transform="matrix(1,0,0,1,0,0)"><path stroke-linecap="round" stroke-linejoin="round" fill-opacity="0" class="primary" stroke="rgb(42,48,107)" stroke-opacity="1" stroke-width="0.9985" d=" M13.789999961853027,16.215999603271484 C13.612000465393066,1.5110000371932983 -3.6110000610351562,-17.023000717163086 -13.789999961853027,-16.187999725341797"/></g></g><g transform="matrix(0.9877559542655945,0.15600687265396118,-0.15600687265396118,0.9877559542655945,53.0090446472168,109.72566223144531)" opacity="1" style="display: block;"><g opacity="1" transform="matrix(1,0,0,1,0,0)"><path stroke-linecap="round" stroke-linejoin="round" fill-opacity="0" class="primary" stroke="rgb(42,48,107)" stroke-opacity="1" stroke-width="1" d=" M-0.36800000071525574,-5.142000198364258 C-0.8920000195503235,-22.645999908447266 -1.3799999952316284,-38.34700012207031 -1.5219999551773071,-41.082000732421875"/></g></g><g transform="matrix(0.9877559542655945,0.15600687265396118,-0.15600687265396118,0.9877559542655945,53.0090446472168,109.72566223144531)" opacity="1" style="display: block;"><g opacity="1" transform="matrix(1,0,0,1,0,0)"><path stroke-linecap="round" stroke-linejoin="round" fill-opacity="0" class="primary" stroke="rgb(42,48,107)" stroke-opacity="1" stroke-width="1" d=" M1.3259999752044678,16.386999130249023 C1.2920000553131104,11.729000091552734 1.2569999694824219,6.869999885559082 1.2239999771118164,2.0339999198913574"/></g></g><g transform="matrix(0.9877559542655945,0.15600687265396118,-0.15600687265396118,0.9877559542655945,79.68062591552734,168.7806854248047)" opacity="1" style="display: block;"><g opacity="1" transform="matrix(1,0,0,1,0,0)"><path stroke-linecap="round" stroke-linejoin="round" fill-opacity="0" class="primary" stroke="rgb(42,48,107)" stroke-opacity="1" stroke-width="1" d=" M13.74899959564209,0.027000000700354576 C-3.7709999084472656,0.08699999749660492 -22.54800033569336,0.11900000274181366 -27.868000030517578,-0.0430000014603138"/></g></g><g transform="matrix(0.9877559542655945,0.15600687265396118,-0.15600687265396118,0.9877559542655945,187.21591186523438,73.1783676147461)" opacity="1" style="display: block;"><g opacity="1" transform="matrix(1,0,0,1,0,0)"><path stroke-linecap="round" stroke-linejoin="round" fill-opacity="0" class="primary" stroke="rgb(42,48,107)" stroke-opacity="1" stroke-width="1" d=" M-0.0729999989271164,43.0359992980957 C-0.14800000190734863,36.88100051879883 -0.10999999940395355,16.89699935913086 -0.041999999433755875,-3.1549999713897705"/></g></g><g clip-path="url(#__lottie_element_13997)" transform="matrix(0.9877559542655945,0.15600687265396118,-0.15600687265396118,0.9877559542655945,38.89384078979492,-16.163803100585938)" opacity="1" style="display: block;"><g clip-path="url(#__lottie_element_13998)"><g transform="matrix(1,0,0,1,95.98400115966797,118.1969985961914)" opacity="1" style="display: block;"><g opacity="1" transform="matrix(1,0,0,1,0,0)"><path stroke-linecap="round" stroke-linejoin="round" fill-opacity="0" class="primary" stroke="rgb(42,48,107)" stroke-opacity="1" stroke-width="1.5" d=" M-41.064998626708984,-14.534000396728516 C-40.98899841308594,-4.855000019073486 -40.73899841308594,27.163000106811523 -40.71099853515625,32.91999816894531 C-40.74800109863281,32.91999816894531 40.70199966430664,33.75199890136719 40.68899917602539,33.31999969482422 C40.39899826049805,23.073999404907227 42.104000091552734,-33.430999755859375 41.29499816894531,-33.430999755859375 C25.773000717163086,-33.433998107910156 -41.516998291015625,-33.474998474121094 -41.51499938964844,-33.39899826049805 C-41.404998779296875,-29.02199935913086 -41.073001861572266,-15.592000007629395 -41.064998626708984,-14.534000396728516z"/></g></g><g transform="matrix(1,0,0,1,96.03500366210938,117.91400146484375)" opacity="1" style="display: block;"><g opacity="1" transform="matrix(1,0,0,1,0,0)"><path stroke-linecap="round" stroke-linejoin="round" fill-opacity="0" class="primary" stroke="rgb(42,48,107)" stroke-opacity="1" stroke-width="1" d=" M-20.506999969482422,-33.14400100708008 C-20.500999450683594,-23.889999389648438 -20.13800048828125,24.04400062561035 -20.145000457763672,33.14400100708008"/></g></g><g transform="matrix(1,0,0,1,96.03500366210938,117.91400146484375)" opacity="1" style="display: block;"><g opacity="1" transform="matrix(1,0,0,1,0,0)"><path stroke-linecap="round" stroke-linejoin="round" fill-opacity="0" class="primary" stroke="rgb(42,48,107)" stroke-opacity="1" stroke-width="1" d=" M40.334999084472656,16.8700008392334 C24.145000457763672,17.04800033569336 -25.15999984741211,17.04400062561035 -40.7239990234375,16.97100067138672"/></g></g><g transform="matrix(1,0,0,1,96.03500366210938,117.91400146484375)" opacity="1" style="display: block;"><g opacity="1" transform="matrix(1,0,0,1,0,0)"><path stroke-linecap="round" stroke-linejoin="round" fill-opacity="0" class="primary" stroke="rgb(42,48,107)" stroke-opacity="1" stroke-width="1" d=" M-41.12099838256836,-17.041000366210938 C-32.75699996948242,-17.174999237060547 34.54899978637695,-16.889999389648438 41.12099838256836,-17.01099967956543"/></g></g><g transform="matrix(1,0,0,1,96.03500366210938,117.91400146484375)" opacity="1" style="display: block;"><g opacity="1" transform="matrix(1,0,0,1,0,0)"><path stroke-linecap="round" stroke-linejoin="round" fill-opacity="0" class="primary" stroke="rgb(42,48,107)" stroke-opacity="1" stroke-width="1" d=" M40.76499938964844,-0.07100000232458115 C32.6879997253418,-0.13699999451637268 -37.78799819946289,0.06400000303983688 -40.91699981689453,-0.09099999815225601"/></g></g><g transform="matrix(1,0,0,1,65.90399932861328,56.87900161743164)" opacity="1" style="display: block;"><g opacity="1" transform="matrix(1,0,0,1,0,0)"><path stroke-linecap="round" stroke-linejoin="round" fill-opacity="0" class="primary" stroke="rgb(42,48,107)" stroke-opacity="1" stroke-width="1.5" d=" M-0.012000000104308128,13.680000305175781 C-0.006000000052154064,14.602999687194824 -0.009999999776482582,17.02199935913086 -0.027000000700354576,18.445999145507812 M-0.27300000190734863,-18.445999145507812 C-0.25999999046325684,-17.674999237060547 -0.30000001192092896,-15.970999717712402 -0.33899998664855957,-14.779999732971191 M-6.574999809265137,6.120999813079834 C-6.195000171661377,17.009000778198242 7.2729997634887695,14.553999900817871 6.546000003814697,7.322000026702881 C5.901000022888184,0.902999997138977 2.135999917984009,0.26600000262260437 -1.1790000200271606,-2.5339999198913574 C-11.512999534606934,-11.26200008392334 2.693000078201294,-20.058000564575195 3.8440001010894775,-9.767000198364258"/></g></g><g transform="matrix(1,0,0,1,110.80599975585938,64.3759994506836)" opacity="1" style="display: block;"><g opacity="1" transform="matrix(1,0,0,1,0,0)"><path stroke-linecap="round" stroke-linejoin="round" fill-opacity="0" class="primary" stroke="rgb(42,48,107)" stroke-opacity="1" stroke-width="1" d=" M27.24799919128418,-5.5229997634887695 C9.543999671936035,-5.5229997634887695 -18.658000946044922,-5.302999973297119 -27.24799919128418,-5.2270002365112305"/></g></g><g transform="matrix(1,0,0,1,110.80599975585938,78.1259994506836)" opacity="1" style="display: block;"><g opacity="1" transform="matrix(1,0,0,1,0,0)"><path stroke-linecap="round" stroke-linejoin="round" fill-opacity="0" class="primary" stroke="rgb(42,48,107)" stroke-opacity="1" stroke-width="1" d=" M27.24799919128418,-5.5229997634887695 C9.543999671936035,-5.5229997634887695 -18.658000946044922,-5.302999973297119 -27.24799919128418,-5.2270002365112305"/></g></g></g></g><g transform="matrix(1,0,0,1,95.9830093383789,118.69699096679688)" opacity="1" style="display: none;"><g opacity="1" transform="matrix(1,0,0,1,0,0)"><path stroke-linecap="round" stroke-linejoin="round" fill-opacity="0" class="primary" stroke="rgb(42,48,107)" stroke-opacity="1" stroke-width="1.5" d=" M-41.064998626708984,-14.534000396728516 C-40.98899841308594,-4.855000019073486 -40.73899841308594,27.163000106811523 -40.71099853515625,32.91999816894531 C-40.74800109863281,32.91999816894531 40.70199966430664,33.75199890136719 40.68899917602539,33.31999969482422 C40.39899826049805,23.073999404907227 42.104000091552734,-33.430999755859375 41.29499816894531,-33.430999755859375 C25.773000717163086,-33.433998107910156 -41.516998291015625,-33.474998474121094 -41.51499938964844,-33.39899826049805 C-41.404998779296875,-29.02199935913086 -41.073001861572266,-15.592000007629395 -41.064998626708984,-14.534000396728516z"/></g></g><g transform="matrix(1,0,0,1,96.03400421142578,118.41299438476562)" opacity="1" style="display: none;"><g opacity="1" transform="matrix(1,0,0,1,0,0)"><path stroke-linecap="round" stroke-linejoin="round" fill-opacity="0" class="primary" stroke="rgb(42,48,107)" stroke-opacity="1" stroke-width="1" d=" M40.76499938964844,-0.07100000232458115 C32.6879997253418,-0.13699999451637268 -37.78799819946289,0.06400000303983688 -40.91699981689453,-0.09099999815225601"/></g></g><g transform="matrix(1,0,0,1,96.03400421142578,118.41299438476562)" opacity="1" style="display: none;"><g opacity="1" transform="matrix(1,0,0,1,0,0)"><path stroke-linecap="round" stroke-linejoin="round" fill-opacity="0" class="primary" stroke="rgb(42,48,107)" stroke-opacity="1" stroke-width="1" d=" M-41.12099838256836,-17.041000366210938 C-32.75699996948242,-17.174999237060547 34.54899978637695,-16.889999389648438 41.12099838256836,-17.01099967956543"/></g></g><g transform="matrix(1,0,0,1,96.03400421142578,118.41299438476562)" opacity="1" style="display: none;"><g opacity="1" transform="matrix(1,0,0,1,0,0)"><path stroke-linecap="round" stroke-linejoin="round" fill-opacity="0" class="primary" stroke="rgb(42,48,107)" stroke-opacity="1" stroke-width="1" d=" M40.334999084472656,16.8700008392334 C24.145000457763672,17.04800033569336 -25.15999984741211,17.04400062561035 -40.7239990234375,16.97100067138672"/></g></g><g transform="matrix(1,0,0,1,96.03400421142578,118.41299438476562)" opacity="1" style="display: none;"><g opacity="1" transform="matrix(1,0,0,1,0,0)"><path stroke-linecap="round" stroke-linejoin="round" fill-opacity="0" class="primary" stroke="rgb(42,48,107)" stroke-opacity="1" stroke-width="1" d=" M-20.506999969482422,-33.14400100708008 C-20.500999450683594,-23.889999389648438 -20.13800048828125,24.04400062561035 -20.145000457763672,33.14400100708008"/></g></g><g transform="matrix(1,0,0,1,65.90400695800781,56.87899398803711)" opacity="1" style="display: none;"><g opacity="1" transform="matrix(1,0,0,1,0,0)"><path stroke-linecap="round" stroke-linejoin="round" fill-opacity="0" class="primary" stroke="rgb(42,48,107)" stroke-opacity="1" stroke-width="1.5" d=" M-6.574999809265137,6.120999813079834 C-6.195000171661377,17.009000778198242 7.2729997634887695,14.553999900817871 6.546000003814697,7.322000026702881 C5.901000022888184,0.902999997138977 2.135999917984009,0.26600000262260437 -1.1790000200271606,-2.5339999198913574 C-11.512999534606934,-11.26200008392334 2.693000078201294,-20.058000564575195 3.8440001010894775,-9.767000198364258"/></g></g><g transform="matrix(1,0,0,1,65.90400695800781,56.87899398803711)" opacity="1" style="display: none;"><g opacity="1" transform="matrix(1,0,0,1,0,0)"><path stroke-linecap="round" stroke-linejoin="round" fill-opacity="0" class="primary" stroke="rgb(42,48,107)" stroke-opacity="1" stroke-width="1.5" d=" M-0.27300000190734863,-18.445999145507812 C-0.25999999046325684,-17.674999237060547 -0.30000001192092896,-15.970999717712402 -0.33899998664855957,-14.779999732971191"/></g></g><g transform="matrix(1,0,0,1,65.90400695800781,56.87899398803711)" opacity="1" style="display: none;"><g opacity="1" transform="matrix(1,0,0,1,0,0)"><path stroke-linecap="round" stroke-linejoin="round" fill-opacity="0" class="primary" stroke="rgb(42,48,107)" stroke-opacity="1" stroke-width="1.5" d=" M-0.012000000104308128,13.680000305175781 C-0.006000000052154064,14.602999687194824 -0.009999999776482582,17.02199935913086 -0.027000000700354576,18.445999145507812"/></g></g><g transform="matrix(1,0,0,1,110.80500793457031,64.37599182128906)" opacity="1" style="display: none;"><g opacity="1" transform="matrix(1,0,0,1,0,0)"><path stroke-linecap="round" stroke-linejoin="round" fill-opacity="0" class="primary" stroke="rgb(42,48,107)" stroke-opacity="1" stroke-width="1" d=" M27.24799919128418,-5.5229997634887695 C9.543999671936035,-5.5229997634887695 -18.658000946044922,-5.302999973297119 -27.24799919128418,-5.2270002365112305"/></g></g><g transform="matrix(1,0,0,1,110.80500793457031,78.12599182128906)" opacity="1" style="display: none;"><g opacity="1" transform="matrix(1,0,0,1,0,0)"><path stroke-linecap="round" stroke-linejoin="round" fill-opacity="0" class="primary" stroke="rgb(42,48,107)" stroke-opacity="1" stroke-width="1" d=" M27.24799919128418,-5.5229997634887695 C9.543999671936035,-5.5229997634887695 -18.658000946044922,-5.302999973297119 -27.24799919128418,-5.2270002365112305"/></g></g></g></g></svg>