<svg xmlns="http://www.w3.org/2000/svg" xmlns:xlink="http://www.w3.org/1999/xlink" viewBox="0 0 192 192" width="192" height="192" preserveAspectRatio="xMidYMid meet" style="width: 100%; height: 100%; transform: translate3d(0px, 0px, 0px); content-visibility: visible;"><defs><clipPath id="__lottie_element_966"><rect width="192" height="192" x="0" y="0"/></clipPath><clipPath id="__lottie_element_968"><path d="M0,0 L192,0 L192,192 L0,192z"/></clipPath></defs><g clip-path="url(#__lottie_element_966)"><g clip-path="url(#__lottie_element_968)" transform="matrix(1,0,0,1,0,0)" opacity="1" style="display: block;"><g transform="matrix(0.8623811602592468,0.506259560585022,-0.506259560585022,0.8623811602592468,73.37899780273438,74.1760025024414)" opacity="1" style="display: block;"><g opacity="1" transform="matrix(1,0,0,1,0,0)"><path class="secondary" fill="rgb(230,142,110)" fill-opacity="1" d=" M24.87299919128418,0 C24.87299919128418,-13.727999687194824 13.727999687194824,-24.87299919128418 0,-24.87299919128418 C-13.72700023651123,-24.87299919128418 -24.871999740600586,-13.727999687194824 -24.871999740600586,0 C-24.871999740600586,13.727999687194824 -13.72700023651123,24.87299919128418 0,24.87299919128418 C13.727999687194824,24.87299919128418 24.87299919128418,13.727999687194824 24.87299919128418,0z M-5.769000053405762,-49.4109992980957 C-1.9359999895095825,-49.858001708984375 1.9359999895095825,-49.858001708984375 5.769999980926514,-49.4109992980957 C5.769999980926514,-49.4109992980957 7.059999942779541,-38.3120002746582 7.059999942779541,-38.3120002746582 C10.4350004196167,-37.691001892089844 13.713000297546387,-36.625999450683594 16.808000564575195,-35.14500045776367 C16.808000564575195,-35.14500045776367 24.375,-43.3650016784668 24.375,-43.3650016784668 C27.73900032043457,-41.4739990234375 30.871999740600586,-39.198001861572266 33.709999084472656,-36.58300018310547 C33.709999084472656,-36.58300018310547 28.231000900268555,-26.84600067138672 28.231000900268555,-26.84600067138672 C30.59600067138672,-24.358999252319336 32.62099838256836,-21.570999145507812 34.25600051879883,-18.55299949645996 C34.25600051879883,-18.55299949645996 45.209999084472656,-20.7549991607666 45.209999084472656,-20.7549991607666 C46.819000244140625,-17.24799919128418 48.01599884033203,-13.5649995803833 48.775001525878906,-9.781000137329102 C48.775001525878906,-9.781000137329102 38.61899948120117,-5.125 38.61899948120117,-5.125 C39.06999969482422,-1.7230000495910645 39.06999969482422,1.7230000495910645 38.61899948120117,5.125 C38.61899948120117,5.125 48.775001525878906,9.781000137329102 48.775001525878906,9.781000137329102 C48.01599884033203,13.5649995803833 46.819000244140625,17.24799919128418 45.209999084472656,20.7549991607666 C45.209999084472656,20.7549991607666 34.25600051879883,18.55299949645996 34.25600051879883,18.55299949645996 C32.62099838256836,21.56999969482422 30.59600067138672,24.358999252319336 28.231000900268555,26.84600067138672 C28.231000900268555,26.84600067138672 33.709999084472656,36.58300018310547 33.709999084472656,36.58300018310547 C30.871999740600586,39.198001861572266 27.73900032043457,41.4739990234375 24.375,43.3650016784668 C24.375,43.3650016784668 16.808000564575195,35.14500045776367 16.808000564575195,35.14500045776367 C13.713000297546387,36.625999450683594 10.4350004196167,37.691001892089844 7.059999942779541,38.3120002746582 C7.059999942779541,38.3120002746582 5.769999980926514,49.4109992980957 5.769999980926514,49.4109992980957 C1.9359999895095825,49.858001708984375 -1.9359999895095825,49.858001708984375 -5.769000053405762,49.4109992980957 C-5.769000053405762,49.4109992980957 -7.059000015258789,38.3120002746582 -7.059000015258789,38.3120002746582 C-10.4350004196167,37.691001892089844 -13.711999893188477,36.625999450683594 -16.808000564575195,35.14500045776367 C-16.808000564575195,35.14500045776367 -24.375,43.3650016784668 -24.375,43.3650016784668 C-27.738000869750977,41.4739990234375 -30.871000289916992,39.198001861572266 -33.709999084472656,36.58300018310547 C-33.709999084472656,36.58300018310547 -28.231000900268555,26.84600067138672 -28.231000900268555,26.84600067138672 C-30.59600067138672,24.358999252319336 -32.62099838256836,21.56999969482422 -34.255001068115234,18.55299949645996 C-34.255001068115234,18.55299949645996 -45.20899963378906,20.7549991607666 -45.20899963378906,20.7549991607666 C-46.819000244140625,17.24799919128418 -48.01599884033203,13.5649995803833 -48.775001525878906,9.781000137329102 C-48.775001525878906,9.781000137329102 -38.61899948120117,5.125 -38.61899948120117,5.125 C-39.06999969482422,1.7230000495910645 -39.06999969482422,-1.7230000495910645 -38.61899948120117,-5.125 C-38.61899948120117,-5.125 -48.775001525878906,-9.781000137329102 -48.775001525878906,-9.781000137329102 C-48.01599884033203,-13.5649995803833 -46.819000244140625,-17.24799919128418 -45.20899963378906,-20.7549991607666 C-45.20899963378906,-20.7549991607666 -34.255001068115234,-18.55299949645996 -34.255001068115234,-18.55299949645996 C-32.62099838256836,-21.570999145507812 -30.59600067138672,-24.358999252319336 -28.231000900268555,-26.84600067138672 C-28.231000900268555,-26.84600067138672 -33.709999084472656,-36.58300018310547 -33.709999084472656,-36.58300018310547 C-30.871000289916992,-39.198001861572266 -27.738000869750977,-41.4739990234375 -24.375,-43.3650016784668 C-24.375,-43.3650016784668 -16.808000564575195,-35.14500045776367 -16.808000564575195,-35.14500045776367 C-13.711999893188477,-36.625999450683594 -10.4350004196167,-37.691001892089844 -7.059000015258789,-38.3120002746582 C-7.059000015258789,-38.3120002746582 -5.769000053405762,-49.4109992980957 -5.769000053405762,-49.4109992980957z"/><path stroke-linecap="round" stroke-linejoin="round" fill-opacity="0" class="secondary" stroke="rgb(230,142,110)" stroke-opacity="1" stroke-width="0.5" d=" M24.87299919128418,0 C24.87299919128418,-13.727999687194824 13.727999687194824,-24.87299919128418 0,-24.87299919128418 C-13.72700023651123,-24.87299919128418 -24.871999740600586,-13.727999687194824 -24.871999740600586,0 C-24.871999740600586,13.727999687194824 -13.72700023651123,24.87299919128418 0,24.87299919128418 C13.727999687194824,24.87299919128418 24.87299919128418,13.727999687194824 24.87299919128418,0z M-5.769000053405762,-49.4109992980957 C-1.9359999895095825,-49.858001708984375 1.9359999895095825,-49.858001708984375 5.769999980926514,-49.4109992980957 C5.769999980926514,-49.4109992980957 7.059999942779541,-38.3120002746582 7.059999942779541,-38.3120002746582 C10.4350004196167,-37.691001892089844 13.713000297546387,-36.625999450683594 16.808000564575195,-35.14500045776367 C16.808000564575195,-35.14500045776367 24.375,-43.3650016784668 24.375,-43.3650016784668 C27.73900032043457,-41.4739990234375 30.871999740600586,-39.198001861572266 33.709999084472656,-36.58300018310547 C33.709999084472656,-36.58300018310547 28.231000900268555,-26.84600067138672 28.231000900268555,-26.84600067138672 C30.59600067138672,-24.358999252319336 32.62099838256836,-21.570999145507812 34.25600051879883,-18.55299949645996 C34.25600051879883,-18.55299949645996 45.209999084472656,-20.7549991607666 45.209999084472656,-20.7549991607666 C46.819000244140625,-17.24799919128418 48.01599884033203,-13.5649995803833 48.775001525878906,-9.781000137329102 C48.775001525878906,-9.781000137329102 38.61899948120117,-5.125 38.61899948120117,-5.125 C39.06999969482422,-1.7230000495910645 39.06999969482422,1.7230000495910645 38.61899948120117,5.125 C38.61899948120117,5.125 48.775001525878906,9.781000137329102 48.775001525878906,9.781000137329102 C48.01599884033203,13.5649995803833 46.819000244140625,17.24799919128418 45.209999084472656,20.7549991607666 C45.209999084472656,20.7549991607666 34.25600051879883,18.55299949645996 34.25600051879883,18.55299949645996 C32.62099838256836,21.56999969482422 30.59600067138672,24.358999252319336 28.231000900268555,26.84600067138672 C28.231000900268555,26.84600067138672 33.709999084472656,36.58300018310547 33.709999084472656,36.58300018310547 C30.871999740600586,39.198001861572266 27.73900032043457,41.4739990234375 24.375,43.3650016784668 C24.375,43.3650016784668 16.808000564575195,35.14500045776367 16.808000564575195,35.14500045776367 C13.713000297546387,36.625999450683594 10.4350004196167,37.691001892089844 7.059999942779541,38.3120002746582 C7.059999942779541,38.3120002746582 5.769999980926514,49.4109992980957 5.769999980926514,49.4109992980957 C1.9359999895095825,49.858001708984375 -1.9359999895095825,49.858001708984375 -5.769000053405762,49.4109992980957 C-5.769000053405762,49.4109992980957 -7.059000015258789,38.3120002746582 -7.059000015258789,38.3120002746582 C-10.4350004196167,37.691001892089844 -13.711999893188477,36.625999450683594 -16.808000564575195,35.14500045776367 C-16.808000564575195,35.14500045776367 -24.375,43.3650016784668 -24.375,43.3650016784668 C-27.738000869750977,41.4739990234375 -30.871000289916992,39.198001861572266 -33.709999084472656,36.58300018310547 C-33.709999084472656,36.58300018310547 -28.231000900268555,26.84600067138672 -28.231000900268555,26.84600067138672 C-30.59600067138672,24.358999252319336 -32.62099838256836,21.56999969482422 -34.255001068115234,18.55299949645996 C-34.255001068115234,18.55299949645996 -45.20899963378906,20.7549991607666 -45.20899963378906,20.7549991607666 C-46.819000244140625,17.24799919128418 -48.01599884033203,13.5649995803833 -48.775001525878906,9.781000137329102 C-48.775001525878906,9.781000137329102 -38.61899948120117,5.125 -38.61899948120117,5.125 C-39.06999969482422,1.7230000495910645 -39.06999969482422,-1.7230000495910645 -38.61899948120117,-5.125 C-38.61899948120117,-5.125 -48.775001525878906,-9.781000137329102 -48.775001525878906,-9.781000137329102 C-48.01599884033203,-13.5649995803833 -46.819000244140625,-17.24799919128418 -45.20899963378906,-20.7549991607666 C-45.20899963378906,-20.7549991607666 -34.255001068115234,-18.55299949645996 -34.255001068115234,-18.55299949645996 C-32.62099838256836,-21.570999145507812 -30.59600067138672,-24.358999252319336 -28.231000900268555,-26.84600067138672 C-28.231000900268555,-26.84600067138672 -33.709999084472656,-36.58300018310547 -33.709999084472656,-36.58300018310547 C-30.871000289916992,-39.198001861572266 -27.738000869750977,-41.4739990234375 -24.375,-43.3650016784668 C-24.375,-43.3650016784668 -16.808000564575195,-35.14500045776367 -16.808000564575195,-35.14500045776367 C-13.711999893188477,-36.625999450683594 -10.4350004196167,-37.691001892089844 -7.059000015258789,-38.3120002746582 C-7.059000015258789,-38.3120002746582 -5.769000053405762,-49.4109992980957 -5.769000053405762,-49.4109992980957z"/></g></g><g transform="matrix(0.8623811602592468,0.506259560585022,-0.506259560585022,0.8623811602592468,68.00399780273438,75.1760025024414)" opacity="1" style="display: block;"><g opacity="1" transform="matrix(1,0,0,1,0,0)"><path stroke-linecap="round" stroke-linejoin="round" fill-opacity="0" class="primary" stroke="rgb(42,48,107)" stroke-opacity="1" stroke-width="1.5025" d=" M24.87299919128418,0 C24.87299919128418,-13.727999687194824 13.727999687194824,-24.87299919128418 0,-24.87299919128418 C-13.72700023651123,-24.87299919128418 -24.871999740600586,-13.727999687194824 -24.871999740600586,0 C-24.871999740600586,13.727999687194824 -13.72700023651123,24.87299919128418 0,24.87299919128418 C13.727999687194824,24.87299919128418 24.87299919128418,13.727999687194824 24.87299919128418,0z M-5.769000053405762,-49.4109992980957 C-1.9359999895095825,-49.858001708984375 1.9359999895095825,-49.858001708984375 5.769999980926514,-49.4109992980957 C5.769999980926514,-49.4109992980957 7.059999942779541,-38.3120002746582 7.059999942779541,-38.3120002746582 C10.4350004196167,-37.691001892089844 13.713000297546387,-36.625999450683594 16.808000564575195,-35.14500045776367 C16.808000564575195,-35.14500045776367 24.375,-43.3650016784668 24.375,-43.3650016784668 C27.73900032043457,-41.4739990234375 30.871999740600586,-39.198001861572266 33.709999084472656,-36.58300018310547 C33.709999084472656,-36.58300018310547 28.231000900268555,-26.84600067138672 28.231000900268555,-26.84600067138672 C30.59600067138672,-24.358999252319336 32.62099838256836,-21.570999145507812 34.25600051879883,-18.55299949645996 C34.25600051879883,-18.55299949645996 45.209999084472656,-20.7549991607666 45.209999084472656,-20.7549991607666 C46.819000244140625,-17.24799919128418 48.01599884033203,-13.5649995803833 48.775001525878906,-9.781000137329102 C48.775001525878906,-9.781000137329102 38.61899948120117,-5.125 38.61899948120117,-5.125 C39.06999969482422,-1.7230000495910645 39.06999969482422,1.7230000495910645 38.61899948120117,5.125 C38.61899948120117,5.125 48.775001525878906,9.781000137329102 48.775001525878906,9.781000137329102 C48.01599884033203,13.5649995803833 46.819000244140625,17.24799919128418 45.209999084472656,20.7549991607666 C45.209999084472656,20.7549991607666 34.25600051879883,18.55299949645996 34.25600051879883,18.55299949645996 C32.62099838256836,21.56999969482422 30.59600067138672,24.358999252319336 28.231000900268555,26.84600067138672 C28.231000900268555,26.84600067138672 33.709999084472656,36.58300018310547 33.709999084472656,36.58300018310547 C30.871999740600586,39.198001861572266 27.73900032043457,41.4739990234375 24.375,43.3650016784668 C24.375,43.3650016784668 16.808000564575195,35.14500045776367 16.808000564575195,35.14500045776367 C13.713000297546387,36.625999450683594 10.4350004196167,37.691001892089844 7.059999942779541,38.3120002746582 C7.059999942779541,38.3120002746582 5.769999980926514,49.4109992980957 5.769999980926514,49.4109992980957 C1.9359999895095825,49.858001708984375 -1.9359999895095825,49.858001708984375 -5.769000053405762,49.4109992980957 C-5.769000053405762,49.4109992980957 -7.059000015258789,38.3120002746582 -7.059000015258789,38.3120002746582 C-10.4350004196167,37.691001892089844 -13.711999893188477,36.625999450683594 -16.808000564575195,35.14500045776367 C-16.808000564575195,35.14500045776367 -24.375,43.3650016784668 -24.375,43.3650016784668 C-27.738000869750977,41.4739990234375 -30.871000289916992,39.198001861572266 -33.709999084472656,36.58300018310547 C-33.709999084472656,36.58300018310547 -28.231000900268555,26.84600067138672 -28.231000900268555,26.84600067138672 C-30.59600067138672,24.358999252319336 -32.62099838256836,21.56999969482422 -34.255001068115234,18.55299949645996 C-34.255001068115234,18.55299949645996 -45.20899963378906,20.7549991607666 -45.20899963378906,20.7549991607666 C-46.819000244140625,17.24799919128418 -48.01599884033203,13.5649995803833 -48.775001525878906,9.781000137329102 C-48.775001525878906,9.781000137329102 -38.61899948120117,5.125 -38.61899948120117,5.125 C-39.06999969482422,1.7230000495910645 -39.06999969482422,-1.7230000495910645 -38.61899948120117,-5.125 C-38.61899948120117,-5.125 -48.775001525878906,-9.781000137329102 -48.775001525878906,-9.781000137329102 C-48.01599884033203,-13.5649995803833 -46.819000244140625,-17.24799919128418 -45.20899963378906,-20.7549991607666 C-45.20899963378906,-20.7549991607666 -34.255001068115234,-18.55299949645996 -34.255001068115234,-18.55299949645996 C-32.62099838256836,-21.570999145507812 -30.59600067138672,-24.358999252319336 -28.231000900268555,-26.84600067138672 C-28.231000900268555,-26.84600067138672 -33.709999084472656,-36.58300018310547 -33.709999084472656,-36.58300018310547 C-30.871000289916992,-39.198001861572266 -27.738000869750977,-41.4739990234375 -24.375,-43.3650016784668 C-24.375,-43.3650016784668 -16.808000564575195,-35.14500045776367 -16.808000564575195,-35.14500045776367 C-13.711999893188477,-36.625999450683594 -10.4350004196167,-37.691001892089844 -7.059000015258789,-38.3120002746582 C-7.059000015258789,-38.3120002746582 -5.769000053405762,-49.4109992980957 -5.769000053405762,-49.4109992980957z"/></g></g><g transform="matrix(0.5568176507949829,-0.8306347727775574,0.8306347727775574,0.5568176507949829,149.8979949951172,120.7979965209961)" opacity="1" style="display: block;"><g opacity="1" transform="matrix(1,0,0,1,0,0)"><path class="secondary" fill="rgb(230,142,110)" fill-opacity="1" d=" M9.25,0 C9.25,-5.105000019073486 5.105000019073486,-9.25 0,-9.25 C-5.105000019073486,-9.25 -9.25,-5.105000019073486 -9.25,0 C-9.25,5.105000019073486 -5.105000019073486,9.25 0,9.25 C5.105000019073486,9.25 9.25,5.105000019073486 9.25,0z M-7.124000072479248,-36.308998107910156 C-2.4189999103546143,-37.231998443603516 2.4189999103546143,-37.231998443603516 7.123000144958496,-36.308998107910156 C7.123000144958496,-36.308998107910156 7.765999794006348,-24.781999588012695 7.765999794006348,-24.781999588012695 C11.413000106811523,-23.638999938964844 14.763999938964844,-21.70400047302246 17.577999114990234,-19.115999221801758 C17.577999114990234,-19.115999221801758 27.881999969482422,-24.322999954223633 27.881999969482422,-24.322999954223633 C31.034000396728516,-20.711000442504883 33.452999114990234,-16.520000457763672 35.00600051879883,-11.986000061035156 C35.00600051879883,-11.986000061035156 25.3439998626709,-5.665999889373779 25.3439998626709,-5.665999889373779 C26.179000854492188,-1.934000015258789 26.179000854492188,1.934999942779541 25.3439998626709,5.664999961853027 C25.3439998626709,5.664999961853027 35.00600051879883,11.984999656677246 35.00600051879883,11.984999656677246 C33.452999114990234,16.520999908447266 31.034000396728516,20.711000442504883 27.881999969482422,24.323999404907227 C27.881999969482422,24.323999404907227 17.577999114990234,19.117000579833984 17.577999114990234,19.117000579833984 C14.763999938964844,21.704999923706055 11.413000106811523,23.63800048828125 7.765999794006348,24.7810001373291 C7.765999794006348,24.7810001373291 7.123000144958496,36.30799865722656 7.123000144958496,36.30799865722656 C2.4189999103546143,37.231998443603516 -2.4189999103546143,37.231998443603516 -7.124000072479248,36.30799865722656 C-7.124000072479248,36.30799865722656 -7.765999794006348,24.7810001373291 -7.765999794006348,24.7810001373291 C-11.414999961853027,23.63800048828125 -14.765000343322754,21.704999923706055 -17.57900047302246,19.117000579833984 C-17.57900047302246,19.117000579833984 -27.882999420166016,24.323999404907227 -27.882999420166016,24.323999404907227 C-31.034000396728516,20.711000442504883 -33.452999114990234,16.520999908447266 -35.00600051879883,11.984999656677246 C-35.00600051879883,11.984999656677246 -25.344999313354492,5.664999961853027 -25.344999313354492,5.664999961853027 C-26.179000854492188,1.934999942779541 -26.179000854492188,-1.934000015258789 -25.344999313354492,-5.665999889373779 C-25.344999313354492,-5.665999889373779 -35.00600051879883,-11.986000061035156 -35.00600051879883,-11.986000061035156 C-33.452999114990234,-16.520000457763672 -31.034000396728516,-20.711000442504883 -27.882999420166016,-24.322999954223633 C-27.882999420166016,-24.322999954223633 -17.57900047302246,-19.115999221801758 -17.57900047302246,-19.115999221801758 C-14.765000343322754,-21.70400047302246 -11.414999961853027,-23.638999938964844 -7.765999794006348,-24.781999588012695 C-7.765999794006348,-24.781999588012695 -7.124000072479248,-36.308998107910156 -7.124000072479248,-36.308998107910156z"/><path stroke-linecap="round" stroke-linejoin="round" fill-opacity="0" class="secondary" stroke="rgb(230,142,110)" stroke-opacity="1" stroke-width="0.5" d=" M9.25,0 C9.25,-5.105000019073486 5.105000019073486,-9.25 0,-9.25 C-5.105000019073486,-9.25 -9.25,-5.105000019073486 -9.25,0 C-9.25,5.105000019073486 -5.105000019073486,9.25 0,9.25 C5.105000019073486,9.25 9.25,5.105000019073486 9.25,0z M-7.124000072479248,-36.308998107910156 C-2.4189999103546143,-37.231998443603516 2.4189999103546143,-37.231998443603516 7.123000144958496,-36.308998107910156 C7.123000144958496,-36.308998107910156 7.765999794006348,-24.781999588012695 7.765999794006348,-24.781999588012695 C11.413000106811523,-23.638999938964844 14.763999938964844,-21.70400047302246 17.577999114990234,-19.115999221801758 C17.577999114990234,-19.115999221801758 27.881999969482422,-24.322999954223633 27.881999969482422,-24.322999954223633 C31.034000396728516,-20.711000442504883 33.452999114990234,-16.520000457763672 35.00600051879883,-11.986000061035156 C35.00600051879883,-11.986000061035156 25.3439998626709,-5.665999889373779 25.3439998626709,-5.665999889373779 C26.179000854492188,-1.934000015258789 26.179000854492188,1.934999942779541 25.3439998626709,5.664999961853027 C25.3439998626709,5.664999961853027 35.00600051879883,11.984999656677246 35.00600051879883,11.984999656677246 C33.452999114990234,16.520999908447266 31.034000396728516,20.711000442504883 27.881999969482422,24.323999404907227 C27.881999969482422,24.323999404907227 17.577999114990234,19.117000579833984 17.577999114990234,19.117000579833984 C14.763999938964844,21.704999923706055 11.413000106811523,23.63800048828125 7.765999794006348,24.7810001373291 C7.765999794006348,24.7810001373291 7.123000144958496,36.30799865722656 7.123000144958496,36.30799865722656 C2.4189999103546143,37.231998443603516 -2.4189999103546143,37.231998443603516 -7.124000072479248,36.30799865722656 C-7.124000072479248,36.30799865722656 -7.765999794006348,24.7810001373291 -7.765999794006348,24.7810001373291 C-11.414999961853027,23.63800048828125 -14.765000343322754,21.704999923706055 -17.57900047302246,19.117000579833984 C-17.57900047302246,19.117000579833984 -27.882999420166016,24.323999404907227 -27.882999420166016,24.323999404907227 C-31.034000396728516,20.711000442504883 -33.452999114990234,16.520999908447266 -35.00600051879883,11.984999656677246 C-35.00600051879883,11.984999656677246 -25.344999313354492,5.664999961853027 -25.344999313354492,5.664999961853027 C-26.179000854492188,1.934999942779541 -26.179000854492188,-1.934000015258789 -25.344999313354492,-5.665999889373779 C-25.344999313354492,-5.665999889373779 -35.00600051879883,-11.986000061035156 -35.00600051879883,-11.986000061035156 C-33.452999114990234,-16.520000457763672 -31.034000396728516,-20.711000442504883 -27.882999420166016,-24.322999954223633 C-27.882999420166016,-24.322999954223633 -17.57900047302246,-19.115999221801758 -17.57900047302246,-19.115999221801758 C-14.765000343322754,-21.70400047302246 -11.414999961853027,-23.638999938964844 -7.765999794006348,-24.781999588012695 C-7.765999794006348,-24.781999588012695 -7.124000072479248,-36.308998107910156 -7.124000072479248,-36.308998107910156z"/></g></g><g transform="matrix(0.5568176507949829,-0.8306347727775574,0.8306347727775574,0.5568176507949829,143.6479949951172,122.4229965209961)" opacity="1" style="display: block;"><g opacity="1" transform="matrix(1,0,0,1,0,0)"><path stroke-linecap="round" stroke-linejoin="round" fill-opacity="0" class="primary" stroke="rgb(42,48,107)" stroke-opacity="1" stroke-width="1.498" d=" M9.25,0 C9.25,-5.105000019073486 5.105000019073486,-9.25 0,-9.25 C-5.105000019073486,-9.25 -9.25,-5.105000019073486 -9.25,0 C-9.25,5.105000019073486 -5.105000019073486,9.25 0,9.25 C5.105000019073486,9.25 9.25,5.105000019073486 9.25,0z M-7.124000072479248,-36.308998107910156 C-2.4189999103546143,-37.231998443603516 2.4189999103546143,-37.231998443603516 7.123000144958496,-36.308998107910156 C7.123000144958496,-36.308998107910156 7.765999794006348,-24.781999588012695 7.765999794006348,-24.781999588012695 C11.413000106811523,-23.638999938964844 14.763999938964844,-21.70400047302246 17.577999114990234,-19.115999221801758 C17.577999114990234,-19.115999221801758 27.881999969482422,-24.322999954223633 27.881999969482422,-24.322999954223633 C31.034000396728516,-20.711000442504883 33.452999114990234,-16.520000457763672 35.00600051879883,-11.986000061035156 C35.00600051879883,-11.986000061035156 25.3439998626709,-5.665999889373779 25.3439998626709,-5.665999889373779 C26.179000854492188,-1.934000015258789 26.179000854492188,1.934999942779541 25.3439998626709,5.664999961853027 C25.3439998626709,5.664999961853027 35.00600051879883,11.984999656677246 35.00600051879883,11.984999656677246 C33.452999114990234,16.520999908447266 31.034000396728516,20.711000442504883 27.881999969482422,24.323999404907227 C27.881999969482422,24.323999404907227 17.577999114990234,19.117000579833984 17.577999114990234,19.117000579833984 C14.763999938964844,21.704999923706055 11.413000106811523,23.63800048828125 7.765999794006348,24.7810001373291 C7.765999794006348,24.7810001373291 7.123000144958496,36.30799865722656 7.123000144958496,36.30799865722656 C2.4189999103546143,37.231998443603516 -2.4189999103546143,37.231998443603516 -7.124000072479248,36.30799865722656 C-7.124000072479248,36.30799865722656 -7.765999794006348,24.7810001373291 -7.765999794006348,24.7810001373291 C-11.414999961853027,23.63800048828125 -14.765000343322754,21.704999923706055 -17.57900047302246,19.117000579833984 C-17.57900047302246,19.117000579833984 -27.882999420166016,24.323999404907227 -27.882999420166016,24.323999404907227 C-31.034000396728516,20.711000442504883 -33.452999114990234,16.520999908447266 -35.00600051879883,11.984999656677246 C-35.00600051879883,11.984999656677246 -25.344999313354492,5.664999961853027 -25.344999313354492,5.664999961853027 C-26.179000854492188,1.934999942779541 -26.179000854492188,-1.934000015258789 -25.344999313354492,-5.665999889373779 C-25.344999313354492,-5.665999889373779 -35.00600051879883,-11.986000061035156 -35.00600051879883,-11.986000061035156 C-33.452999114990234,-16.520000457763672 -31.034000396728516,-20.711000442504883 -27.882999420166016,-24.322999954223633 C-27.882999420166016,-24.322999954223633 -17.57900047302246,-19.115999221801758 -17.57900047302246,-19.115999221801758 C-14.765000343322754,-21.70400047302246 -11.414999961853027,-23.638999938964844 -7.765999794006348,-24.781999588012695 C-7.765999794006348,-24.781999588012695 -7.124000072479248,-36.308998107910156 -7.124000072479248,-36.308998107910156z"/></g></g><g transform="matrix(0.04206747189164162,0.9991147518157959,-0.9991147518157959,0.04206747189164162,95.63300323486328,94.97599792480469)" opacity="1" style="display: block;"><g opacity="1" transform="matrix(1,0,0,1,0,0)"><path stroke-linecap="round" stroke-linejoin="round" fill-opacity="0" class="primary" stroke="rgb(42,48,107)" stroke-opacity="1" stroke-width="1" d=" M-17.80299949645996,-32.34199905395508 C-25.775999069213867,-52.66299819946289 -17.759000778198242,-76.99099731445312 1.5149999856948853,-87.65399932861328"/></g></g><g transform="matrix(-0.4383711516857147,-0.8987940549850464,0.8987940549850464,-0.4383711516857147,80.56300354003906,39.8129997253418)" opacity="1" style="display: block;"><g opacity="1" transform="matrix(1,0,0,1,0,0)"><path stroke-linecap="round" stroke-linejoin="round" fill-opacity="0" class="primary" stroke="rgb(42,48,107)" stroke-opacity="1" stroke-width="1" d=" M-86.94100189208984,-45.56999969482422 C-79.62699890136719,-67.90799713134766 -60.66899871826172,-86.29100036621094 -33.14500045776367,-89.23699951171875 C-33.14500045776367,-89.23699951171875 -33.14500045776367,-89.23699951171875 -33.14500045776367,-89.23699951171875 C-31.90399932861328,-89.37000274658203 -24.3700008392334,-89.55799865722656 -20.790000915527344,-89.1240005493164 C-16.871999740600586,-88.6500015258789 -12.229999542236328,-87.8010025024414 -7.295000076293945,-86.33200073242188"/></g></g><g transform="matrix(0.15643446147441864,-0.9876883029937744,0.9876883029937744,0.15643446147441864,71.63893127441406,71.94623565673828)" opacity="1" style="display: block;"><g opacity="1" transform="matrix(1,0,0,1,0,0)"><path stroke-linecap="round" stroke-linejoin="round" fill-opacity="0" class="primary" stroke="rgb(42,48,107)" stroke-opacity="1" stroke-width="1" d=" M-15.454000473022461,-11.791000366210938 C-13.17300033569336,-14.22599983215332 -10.017000198364258,-15.939000129699707 -6.139999866485596,-16.354000091552734 C-6.139999866485596,-16.354000091552734 -6.139999866485596,-16.354000091552734 -6.139999866485596,-16.354000091552734 C-5.8470001220703125,-16.385000228881836 -4.070000171661377,-16.429000854492188 -3.2260000705718994,-16.32699966430664 C0.39100000262260437,-15.888999938964844 6.623000144958496,-14.10099983215332 9.380999565124512,-7.468999862670898"/></g></g></g></g></svg>