<svg xmlns="http://www.w3.org/2000/svg" xmlns:xlink="http://www.w3.org/1999/xlink" viewBox="0 0 192 192" width="192" height="192" preserveAspectRatio="xMidYMid meet" style="width: 100%; height: 100%; transform: translate3d(0px, 0px, 0px); content-visibility: visible;"><defs><clipPath id="__lottie_element_15896"><rect width="192" height="192" x="0" y="0"/></clipPath><clipPath id="__lottie_element_15898"><path d="M0,0 L192,0 L192,192 L0,192z"/></clipPath></defs><g clip-path="url(#__lottie_element_15896)"><g clip-path="url(#__lottie_element_15898)" transform="matrix(1,0,0,1,0,0)" opacity="1" style="display: block;"><g transform="matrix(1,0,0,1,53.330997467041016,101.23600006103516)" opacity="1" style="display: block;"><g opacity="1" transform="matrix(1,0,0,1,0,0)"><path class="secondary" fill="rgb(230,142,110)" fill-opacity="1" d=" M0,36.685001373291016 C20.465999603271484,36.685001373291016 37.05799865722656,20.26099967956543 37.05799865722656,0 C37.05799865722656,-20.26099967956543 20.465999603271484,-36.685001373291016 0,-36.685001373291016 C-20.465999603271484,-36.685001373291016 -37.05799865722656,-20.26099967956543 -37.05799865722656,0 C-37.05799865722656,20.26099967956543 -20.465999603271484,36.685001373291016 0,36.685001373291016z"/><path stroke-linecap="round" stroke-linejoin="round" fill-opacity="0" class="secondary" stroke="rgb(230,142,110)" stroke-opacity="1" stroke-width="0.498" d=" M0,36.685001373291016 C20.465999603271484,36.685001373291016 37.05799865722656,20.26099967956543 37.05799865722656,0 C37.05799865722656,-20.26099967956543 20.465999603271484,-36.685001373291016 0,-36.685001373291016 C-20.465999603271484,-36.685001373291016 -37.05799865722656,-20.26099967956543 -37.05799865722656,0 C-37.05799865722656,20.26099967956543 -20.465999603271484,36.685001373291016 0,36.685001373291016z"/></g></g><g transform="matrix(1,0,0,1,48.37099838256836,96.40299987792969)" opacity="1" style="display: block;"><g opacity="1" transform="matrix(1,0,0,1,0,0)"><path stroke-linecap="round" stroke-linejoin="round" fill-opacity="0" class="primary" stroke="rgb(42,48,107)" stroke-opacity="1" stroke-width="1.4995" d=" M0,38.72200012207031 C21.385000228881836,38.72200012207031 38.72200012207031,21.385000228881836 38.72200012207031,0 C38.72200012207031,-21.385000228881836 21.385000228881836,-38.72200012207031 0,-38.72200012207031 C-21.385000228881836,-38.72200012207031 -38.72200012207031,-21.385000228881836 -38.72200012207031,0 C-38.72200012207031,21.385000228881836 -21.385000228881836,38.72200012207031 0,38.72200012207031z"/></g></g><g transform="matrix(1,0,0,1,145.26280212402344,144.42124938964844)" opacity="1" style="display: block;"><g opacity="1" transform="matrix(1,0,0,1,0,0)"><path stroke-linecap="round" stroke-linejoin="round" fill-opacity="0" class="primary" stroke="rgb(42,48,107)" stroke-opacity="1" stroke-width="1.4985" d=" M0,25.799999237060547 C14.24899959564209,25.799999237060547 25.799999237060547,14.24899959564209 25.799999237060547,0 C25.799999237060547,-14.24899959564209 14.24899959564209,-25.799999237060547 0,-25.799999237060547 C-14.24899959564209,-25.799999237060547 -25.799999237060547,-14.24899959564209 -25.799999237060547,0 C-25.799999237060547,14.24899959564209 -14.24899959564209,25.799999237060547 0,25.799999237060547z"/></g></g><g transform="matrix(1,0,0,1,144.7724151611328,47.54283905029297)" opacity="1" style="display: block;"><g opacity="1" transform="matrix(1,0,0,1,0,0)"><path stroke-linecap="round" stroke-linejoin="round" fill-opacity="0" class="primary" stroke="rgb(42,48,107)" stroke-opacity="1" stroke-width="1.4985" d=" M0,25.799999237060547 C14.24899959564209,25.799999237060547 25.799999237060547,14.24899959564209 25.799999237060547,0 C25.799999237060547,-14.24899959564209 14.24899959564209,-25.799999237060547 0,-25.799999237060547 C-14.24899959564209,-25.799999237060547 -25.799999237060547,-14.24899959564209 -25.799999237060547,0 C-25.799999237060547,14.24899959564209 -14.24899959564209,25.799999237060547 0,25.799999237060547z"/></g></g><g transform="matrix(0.6691306233406067,0.7431448101997375,0.7431448101997375,-0.6691306233406067,102.86785888671875,123.26756286621094)" opacity="1" style="display: block;"><g opacity="1" transform="matrix(0.9123632311820984,0.4093816876411438,-0.4093816876411438,0.9123632311820984,0,0)"><path stroke-linecap="round" stroke-linejoin="round" fill-opacity="0" class="primary" stroke="rgb(42,48,107)" stroke-opacity="1" stroke-width="1.501" d=" M20.77899932861328,0.004999999888241291 C15.163000106811523,0.004999999888241291 -8.199999809265137,0.012000000104308128 -20.77899932861328,-0.006000000052154064"/></g></g><g transform="matrix(0.5877852439880371,-0.80901700258255,-0.80901700258255,-0.5877852439880371,102.40603637695312,68.93011474609375)" opacity="1" style="display: block;"><g opacity="1" transform="matrix(0.8928846716880798,-0.4502854645252228,0.4502854645252228,0.8928846716880798,0,0)"><path stroke-linecap="round" stroke-linejoin="round" fill-opacity="0" class="primary" stroke="rgb(42,48,107)" stroke-opacity="1" stroke-width="1.501" d=" M21.104000091552734,-0.07199999690055847 C15.48799991607666,-0.07199999690055847 -8.524999618530273,0.08799999952316284 -21.104000091552734,0.07000000029802322"/></g></g><g transform="matrix(1,0,0,1,35.85499954223633,59.612998962402344)" opacity="1" style="display: block;"><g opacity="1" transform="matrix(0.9268959164619446,0.3753184974193573,-0.3753184974193573,0.9268959164619446,0,0)"><path stroke-linecap="round" stroke-linejoin="round" fill-opacity="0" class="primary" stroke="rgb(42,48,107)" stroke-opacity="1" stroke-width="1" d=" M-19.097000122070312,15.59000015258789 C-13.892999649047852,-6.211999893188477 6.245999813079834,-15.281999588012695 18.922000885009766,-15.829999923706055"/></g></g><g transform="matrix(1,0,0,1,66.18799591064453,104.77400207519531)" opacity="1" style="display: block;"><g opacity="1" transform="matrix(1,0,0,1,0,0)"><path stroke-linecap="round" stroke-linejoin="round" fill-opacity="0" class="primary" stroke="rgb(42,48,107)" stroke-opacity="1" stroke-width="1" d=" M-11.194999694824219,20.402000427246094 C1.0820000171661377,18.555999755859375 17.04599952697754,-1.3220000267028809 9.163000106811523,-20.025999069213867"/></g></g><g transform="matrix(1,0,0,1,122.7427978515625,163.1632537841797)" opacity="1" style="display: block;"><g opacity="1" transform="matrix(0.9845337867736816,0.1751948893070221,-0.1751948893070221,0.9845337867736816,0,0)"><path stroke-linecap="round" stroke-linejoin="round" fill-opacity="0" class="primary" stroke="rgb(42,48,107)" stroke-opacity="1" stroke-width="1" d=" M13.258000373840332,9.835000038146973 C-1.562999963760376,8.027000427246094 -10.822999954223633,-2.5299999713897705 -13.392000198364258,-9.529999732971191"/></g></g><g transform="matrix(1,0,0,1,168.0314178466797,63.53983688354492)" opacity="1" style="display: block;"><g opacity="1" transform="matrix(0,-1,1,0,0,0)"><path stroke-linecap="round" stroke-linejoin="round" fill-opacity="0" class="primary" stroke="rgb(42,48,107)" stroke-opacity="1" stroke-width="1" d=" M13.258999824523926,9.475000381469727 C-1.0839999914169312,8.437000274658203 -10.303000450134277,-1.1160000562667847 -13.392000198364258,-9.529999732971191"/></g></g><g transform="matrix(1,0,0,1,135.52542114257812,39.13983917236328)" opacity="1" style="display: block;"><g opacity="1" transform="matrix(1,0,0,1,0,0)"><path stroke-linecap="round" stroke-linejoin="round" fill-opacity="0" class="primary" stroke="rgb(42,48,107)" stroke-opacity="1" stroke-width="1" d=" M-8.395999908447266,10.409000396728516 C-9.260000228881836,-1.5479999780654907 2.8519999980926514,-9.876999855041504 8.706000328063965,-10.315999984741211"/></g></g></g></g></svg>