<svg xmlns="http://www.w3.org/2000/svg" xmlns:xlink="http://www.w3.org/1999/xlink" viewBox="0 0 192 192" width="192" height="192" preserveAspectRatio="xMidYMid meet" style="width: 100%; height: 100%; transform: translate3d(0px, 0px, 0px); content-visibility: visible;"><defs><clipPath id="__lottie_element_4752"><rect width="192" height="192" x="0" y="0"/></clipPath><clipPath id="__lottie_element_4754"><path d="M0,0 L192,0 L192,192 L0,192z"/></clipPath></defs><g clip-path="url(#__lottie_element_4752)"><g clip-path="url(#__lottie_element_4754)" transform="matrix(1,0,0,1,0,0)" opacity="1" style="display: block;"><g transform="matrix(0.9999777674674988,0.006670935545116663,-0.006670935545116663,0.9999777674674988,102.44403839111328,102.7691421508789)" opacity="1" style="display: block;"><g opacity="1" transform="matrix(1,0,0,1,0,0)"><path class="secondary" fill="rgb(230,142,110)" fill-opacity="1" d=" M-21.04800033569336,-35.737998962402344 C-23.55500030517578,-33.80400085449219 -25.891000747680664,-30.07699966430664 -25.889999389648438,-27.392000198364258 C-25.884000778198242,-15.890000343322754 -25.8439998626709,13.628999710083008 -25.82900047302246,26.261999130249023 C-25.825000762939453,29.849000930786133 -24.409000396728516,33.48400115966797 -22.041000366210938,35.38600158691406 C-10.135000228881836,44.95000076293945 25.790000915527344,71.7229995727539 25.881000518798828,62.560001373291016 C25.933000564575195,57.358001708984375 25.743000030517578,-57.32899856567383 25.841999053955078,-62.37200164794922 C26.027999877929688,-71.93499755859375 -7.952000141143799,-45.8390007019043 -21.04800033569336,-35.737998962402344z"/><path stroke-linecap="round" stroke-linejoin="round" fill-opacity="0" class="secondary" stroke="rgb(230,142,110)" stroke-opacity="1" stroke-width="0.5" d=" M-21.04800033569336,-35.737998962402344 C-23.55500030517578,-33.80400085449219 -25.891000747680664,-30.07699966430664 -25.889999389648438,-27.392000198364258 C-25.884000778198242,-15.890000343322754 -25.8439998626709,13.628999710083008 -25.82900047302246,26.261999130249023 C-25.825000762939453,29.849000930786133 -24.409000396728516,33.48400115966797 -22.041000366210938,35.38600158691406 C-10.135000228881836,44.95000076293945 25.790000915527344,71.7229995727539 25.881000518798828,62.560001373291016 C25.933000564575195,57.358001708984375 25.743000030517578,-57.32899856567383 25.841999053955078,-62.37200164794922 C26.027999877929688,-71.93499755859375 -7.952000141143799,-45.8390007019043 -21.04800033569336,-35.737998962402344z"/></g></g><g transform="matrix(0.9999777674674988,0.006670935545116663,-0.006670935545116663,0.9999777674674988,-2.225372314453125,-0.5034027099609375)" opacity="1" style="display: block;"><g opacity="1" transform="matrix(1,0,0,1,49.91600036621094,96.2699966430664)"><g opacity="1" transform="matrix(1,0,0,1,0,0)"><path stroke-linecap="round" stroke-linejoin="round" fill-opacity="0" class="primary" stroke="rgb(42,48,107)" stroke-opacity="1" stroke-width="1.5" d=" M-18.009000778198242,27.740999221801758 C-23.027999877929688,12.70199966430664 -24.420000076293945,-11.04800033569336 -17.70199966430664,-28.20599937438965 C-10.472000122070312,-28.511999130249023 22.132999420166016,-32.06800079345703 22.136999130249023,-31.91699981689453 C22.145999908447266,-31.558000564575195 22.5,31.73699951171875 22.000999450683594,31.916000366210938 C21.51799964904785,32.09000015258789 -17.76799964904785,28.46299934387207 -18.009000778198242,27.740999221801758z"/></g></g><g opacity="1" transform="matrix(1,0,0,1,98.0260009765625,96.322998046875)"><g opacity="1" transform="matrix(1,0,0,1,0,0)"><path stroke-linecap="round" stroke-linejoin="round" fill-opacity="0" class="primary" stroke="rgb(42,48,107)" stroke-opacity="1" stroke-width="1.5" d=" M25.841999053955078,-62.37099838256836 C26.062999725341797,-73.76499938964844 -22.214000701904297,-34.540000915527344 -25.886999130249023,-32.055999755859375 C-25.909000396728516,-30.259000778198242 -25.81599998474121,31.795000076293945 -25.823999404907227,32.14099884033203 C-25.840999603271484,32.88199996948242 25.77199935913086,73.5459976196289 25.881000518798828,62.56100082397461 C25.933000564575195,57.35900115966797 25.743000030517578,-57.327999114990234 25.841999053955078,-62.37099838256836z"/></g></g><g opacity="1" transform="matrix(1,0,0,1,112.22799682617188,96.34200286865234)"><g opacity="1" transform="matrix(1,0,0,1,0,0)"><path stroke-linecap="round" stroke-linejoin="round" fill-opacity="0" class="primary" stroke="rgb(42,48,107)" stroke-opacity="1" stroke-width="1" d=" M0.19099999964237213,60.00299835205078 C0.13899999856948853,49.50299835205078 -0.16300000250339508,-47.65599822998047 -0.19099999964237213,-60.00299835205078"/></g></g></g><g transform="matrix(0.9999777674674988,0.006670935545116663,-0.006670935545116663,0.9999777674674988,86.87489318847656,41.127906799316406)" opacity="1" style="display: block;"><g opacity="1" transform="matrix(1,0,0,1,0,0)"><path stroke-linecap="round" stroke-linejoin="round" fill-opacity="0" class="primary" stroke="rgb(42,48,107)" stroke-opacity="1" stroke-width="1" d=" M15.413000106811523,-11.425000190734863 C4.460999965667725,-4.425000190734863 -13.409000396728516,9.288000106811523 -17.283000946044922,12.595999717712402 C-17.283000946044922,12.595999717712402 -17.993999481201172,12.652000427246094 -19.242000579833984,12.75100040435791"/></g></g><g transform="matrix(0.9999777674674988,0.006670935545116663,-0.006670935545116663,0.9999777674674988,34.13824462890625,86.47010803222656)" opacity="1" style="display: block;"><g opacity="1" transform="matrix(1,0,0,1,0,0)"><path stroke-linecap="round" stroke-linejoin="round" fill-opacity="0" class="primary" stroke-dasharray=" 31 5" stroke-dashoffset="-16" stroke="rgb(42,48,107)" stroke-opacity="1" stroke-width="1" d=" M1.815000057220459,29.770999908447266 C1.812000036239624,29.770999908447266 1.809999942779541,29.770999908447266 1.8070000410079956,29.770999908447266 C0.18199999630451202,24.020999908447266 -0.2150000035762787,22.79199981689453 -1.1710000038146973,13.064000129699707 C-2.0869998931884766,3.747999906539917 -0.4050000011920929,-6.038000106811523 1.215999960899353,-12.26099967956543"/></g></g><g transform="matrix(-1,0,0,1,175.6490020751953,98.04000091552734)" opacity="1" style="display: block;"><g opacity="1" transform="matrix(0.9999988675117493,0.0015009825583547354,-0.0015009825583547354,0.9999988675117493,0,0)"><path stroke-linecap="round" stroke-linejoin="round" fill-opacity="0" class="primary" stroke="rgb(42,48,107)" stroke-opacity="1" stroke-width="1.499" d="M0 0"/></g></g><g transform="matrix(-1,0,0,1,175.6490020751953,98.04000091552734)" opacity="1" style="display: block;"><g opacity="1" transform="matrix(0.9999988675117493,0.0015009825583547354,-0.0015009825583547354,0.9999988675117493,0,0)"><path stroke-linecap="round" stroke-linejoin="round" fill-opacity="0" class="primary" stroke="rgb(42,48,107)" stroke-opacity="1" stroke-width="1.499" d="M0 0"/></g></g><g transform="matrix(-1,0,0,1,175.6490020751953,98.04000091552734)" opacity="1" style="display: block;"><g opacity="1" transform="matrix(0.9999988675117493,0.0015009825583547354,-0.0015009825583547354,0.9999988675117493,0,0)"><path stroke-linecap="round" stroke-linejoin="round" fill-opacity="0" class="primary" stroke="rgb(42,48,107)" stroke-opacity="1" stroke-width="1.499" d="M0 0"/></g></g><g transform="matrix(-1,0,0,1,173.91236877441406,98.04000091552734)" opacity="1" style="display: block;"><g opacity="1" transform="matrix(0.9999988675117493,0.0015009825583547354,-0.0015009825583547354,0.9999988675117493,0,0)"><path stroke-linecap="round" stroke-linejoin="round" fill-opacity="0" class="primary" stroke="rgb(42,48,107)" stroke-opacity="1" stroke-width="1.499" d=" M-6.381999969482422,-27.641000747680664 C-2.4649999141693115,-38.73500061035156 4.001999855041504,-48.76900100708008 12.914999961853027,-56.61000061035156"/></g></g><g transform="matrix(-1,0,0,1,159.434326171875,98.04000091552734)" opacity="1" style="display: block;"><g opacity="1" transform="matrix(0.9999988675117493,0.0015009825583547354,-0.0015009825583547354,0.9999988675117493,0,0)"><path stroke-linecap="round" stroke-linejoin="round" fill-opacity="0" class="primary" stroke="rgb(42,48,107)" stroke-opacity="1" stroke-width="1.499" d=" M9.057999610900879,43.80699920654297 C-15.821000099182129,18.545000076293945 -14.619000434875488,-22.80299949645996 9.258000373840332,-43.80799865722656"/></g></g><g transform="matrix(-1,0,0,1,141.18930053710938,98.04000091552734)" opacity="1" style="display: block;"><g opacity="1" transform="matrix(0.9999988675117493,0.0015009825583547354,-0.0015009825583547354,0.9999988675117493,0,0)"><path stroke-linecap="round" stroke-linejoin="round" fill-opacity="0" class="primary" stroke="rgb(42,48,107)" stroke-opacity="1" stroke-width="1.499" d=" M4.348999977111816,28.0310001373291 C-10.9399995803833,12.505999565124512 -9.565999984741211,-11.390000343322754 3.63100004196167,-25.59600067138672"/></g></g></g></g></svg>