<svg xmlns="http://www.w3.org/2000/svg" width="192" height="192" style="width:100%;height:100%;transform:translate3d(0,0,0);content-visibility:visible" viewBox="0 0 192 192"><defs><clipPath id="g"><path d="M0 0h192v192H0z"/></clipPath><clipPath id="n"><path d="M0 0h192v192H0z"/></clipPath><clipPath id="m"><path d="M0 0h192v192H0z"/></clipPath><clipPath id="l"><path d="M0 0h192v192H0z"/></clipPath><clipPath id="h"><path d="M0 0h192v192H0z"/></clipPath><mask id="o" mask-type="alpha"><use xmlns:ns1="http://www.w3.org/1999/xlink" ns1:href="#a"/></mask><mask id="j" mask-type="alpha" maskUnits="userSpaceOnUse"><g filter="url(#b)"><path fill="#fff" d="M0 0h192v192H0z" opacity="0"/><use xmlns:ns2="http://www.w3.org/1999/xlink" ns2:href="#c"/></g></mask><mask id="k" mask-type="alpha"><use xmlns:ns3="http://www.w3.org/1999/xlink" ns3:href="#d"/></mask><mask id="i" mask-type="alpha" maskUnits="userSpaceOnUse"><g filter="url(#e)"><path fill="#fff" d="M0 0h192v192H0z" opacity="0"/><use xmlns:ns4="http://www.w3.org/1999/xlink" ns4:href="#f"/></g></mask><filter id="b" width="100%" height="100%" x="0%" y="0%" filterUnits="objectBoundingBox"><feComponentTransfer in="SourceGraphic"><feFuncA tableValues="1.0 0.0" type="table"/></feComponentTransfer></filter><filter id="e" width="100%" height="100%" x="0%" y="0%" filterUnits="objectBoundingBox"><feComponentTransfer in="SourceGraphic"><feFuncA tableValues="1.0 0.0" type="table"/></feComponentTransfer></filter><path id="f" style="display:none"/><path id="c" style="display:none"/><g id="a" style="display:none"><path/><path/><path/><path/><path/><path/><path/><path/><path/><path/></g><g id="d" style="display:none"><path/><path/><path/><path/><path/><path/></g></defs><g clip-path="url(#g)"><g clip-path="url(#h)" style="display:none"><g mask="url(#i)" style="display:none"><path fill="none" class="primary"/></g><g mask="url(#j)" style="display:none"><path fill="none" class="primary"/></g><g style="display:none"><path fill="none" class="secondary"/><path class="secondary"/></g><path fill="none" class="primary" style="display:none"/><g mask="url(#k)" style="display:none"><path class="secondary"/><path fill="none" class="secondary"/></g><path fill="none" class="primary" style="display:none"/><path fill="none" class="primary" style="display:none"/><path fill="none" class="primary" style="display:none"/><path fill="none" class="primary" style="display:none"/><path fill="none" class="primary" style="display:none"/><path fill="none" class="primary" style="display:none"/><path fill="none" class="primary" style="display:none"/><path fill="none" class="primary" style="display:none"/><g fill="none" style="display:none"><path class="primary"/><path class="primary"/></g><path fill="none" class="primary" style="display:none"/><g fill="none" style="display:none"><path class="primary"/><path class="primary"/></g></g><g clip-path="url(#l)" style="display:none"><path fill="none" class="primary" style="display:none"/><g style="display:none"><path fill="none" class="secondary"/><path class="secondary"/></g><path fill="none" class="primary" style="display:none"/><g fill="none" style="display:none"><path class="primary"/><path class="primary"/></g><path fill="none" class="primary" style="display:none"/><g fill="none" style="display:none"><path class="primary"/><path class="primary"/></g><g fill="none" style="display:none"><path class="primary"/><path class="primary"/></g><path fill="none" class="primary" style="display:none"/><g fill="none" style="display:none"><path class="primary"/><path class="primary"/></g></g><g clip-path="url(#m)" style="display:block"><path fill="none" stroke="#2A2F6B" stroke-linecap="round" stroke-linejoin="round" stroke-width="3" d="M-29.493 1.005c-8.365-6.598-41.459-30.17-40.752-30.296 5.968-1.062 50.21 2.781 52.411.362m21.015 55.3C-13.76 39.487-47.455 61.878-47.581 61.514-49.895 54.83-27.457 2.327-29.493 1.005m61.585 5.993C30.285 8.661 50.348 58.057 48.367 58.7c-2.609.847-42.053-30.068-45.186-32.33m17.032-56.91c1.407 1.682 64-5.777 69.733.99 3.813 4.5-56.875 33.268-57.854 36.548m-49.926-35.927c4.319-6.684 12.239-59.567 19.604-65.35 8.056 7.543 14.178 55.983 18.443 63.739" class="primary" style="display:block" transform="rotate(143 32.17 62.993)"/><g style="display:block"><path fill="none" stroke="#E68E6D" stroke-linecap="round" stroke-linejoin="round" d="M102.647 113.726c-24.905 22.169-30.005 22.718-30.147 22.563-2.743-3 14.276-34.294 13.333-35.237-4.126-4.126-24.928-16.785-24.762-17.143.977-2.107 29.678-.154 30.476-.952q0 0 0 0c2.084-2.084 6.594-24.382 11.428-32.38 3.905 6.752 9.086 28.119 11.429 32.38.768 1.396 27.093-.739 28.571 0 .189.095-22.789 15.612-23.81 17.143-.299.448 15.568 34.608 13.334 35.237-4.126 1.16-28.372-22.931-29.524-21.904z" class="secondary"/><path fill="#E68E6D" d="M102.647 113.726c-24.905 22.169-30.005 22.718-30.147 22.563-2.743-3 14.276-34.294 13.333-35.237-4.126-4.126-24.928-16.785-24.762-17.143.977-2.107 29.678-.154 30.476-.952 2.084-2.084 6.594-24.382 11.428-32.38 3.905 6.752 9.086 28.119 11.429 32.38.768 1.396 27.093-.739 28.571 0 .189.095-22.789 15.612-23.81 17.143-.299.448 15.568 34.608 13.334 35.237-4.126 1.16-28.372-22.931-29.524-21.904z" class="secondary"/></g><path fill="none" stroke="#2A2F6B" stroke-linecap="round" stroke-linejoin="round" stroke-width="2" d="M.624 20.285c-24.905 22.169-30.005 22.718-30.147 22.563-2.743-3 14.276-34.294 13.333-35.237-4.126-4.126-24.928-16.785-24.762-17.143.977-2.107 29.678-.154 30.476-.952q0 0 0 0c2.084-2.084 6.594-24.382 11.428-32.38 3.905 6.752 9.086 28.119 11.429 32.38.768 1.396 27.093-.739 28.571 0 .189.095-22.789 15.612-23.81 17.143-.299.448 15.568 34.608 13.334 35.237C26.35 43.056 2.104 18.965.952 19.992z" class="primary" style="display:block" transform="translate(95.773 93.941)"/><path fill="none" stroke="#2A2F6B" stroke-linecap="round" stroke-linejoin="round" stroke-width="2" d="M124.97 57.623c1.169 2.51 2.714 6.463 3.627 9.376m-19.521-51.138c4.39 12.141 9.962 26.74 13.416 35.4" class="primary" style="display:block"/><path fill="none" stroke="#2A2F6B" stroke-linecap="round" stroke-linejoin="round" stroke-width="2" d="M-16.734-12.693C-4.134-2.324 5.808 4.471 16.734 12.693" class="primary" style="display:block" transform="translate(122.546 163.632)"/><path fill="none" stroke="#2A2F6B" stroke-linecap="round" stroke-linejoin="round" stroke-width="2" d="M33.453 155.315c-2.369 3.418-4.76 12.804-2.712 17.68m21.507-59.702c-4.478 9.719-11.611 24.19-15.828 33.974m78.566-113.305" class="primary" style="display:block"/><path fill="none" stroke="#2A2F6B" stroke-linecap="round" stroke-linejoin="round" stroke-width="2" d="M0 0" class="primary" style="display:block" transform="rotate(143 7.126 32.627)"/><path fill="none" stroke="#2A2F6B" stroke-linecap="round" stroke-linejoin="round" stroke-width="2" d="M116.13 154.205" class="primary" style="display:block"/></g><g clip-path="url(#n)" style="display:none"><path fill="none" class="primary" style="display:none"/><g mask="url(#o)" style="display:none"><path fill="none" class="secondary"/><path class="secondary"/></g><path fill="none" class="primary" style="display:none"/><g fill="none" style="display:none"><path class="primary"/><path class="primary"/></g><path fill="none" class="primary" style="display:none"/><g fill="none" style="display:none"><path class="primary"/><path class="primary"/></g></g></g></svg>