<svg xmlns="http://www.w3.org/2000/svg" xmlns:xlink="http://www.w3.org/1999/xlink" viewBox="0 0 192 192" width="192" height="192" preserveAspectRatio="xMidYMid meet" style="width: 100%; height: 100%; transform: translate3d(0px, 0px, 0px); content-visibility: visible;"><defs><clipPath id="__lottie_element_7168"><rect width="192" height="192" x="0" y="0"/></clipPath><clipPath id="__lottie_element_7170"><path d="M0,0 L192,0 L192,192 L0,192z"/></clipPath></defs><g clip-path="url(#__lottie_element_7168)"><g clip-path="url(#__lottie_element_7170)" transform="matrix(1,0,0,1,0,0)" opacity="1" style="display: block;"><g transform="matrix(1,0,0,1,0,0)" opacity="1" style="display: block;"><g opacity="1" transform="matrix(1,0,0,1,96.16600036621094,173.27499389648438)"><g opacity="1" transform="matrix(1,0,0,1,0,0)"><path stroke-linecap="round" stroke-linejoin="round" fill-opacity="0" class="primary" stroke="rgb(42,48,107)" stroke-opacity="1" stroke-width="3" d=" M-80.43599700927734,-0.06499999761581421 C-76.61499786376953,-0.1889999955892563 75.05999755859375,0.09700000286102295 80.43599700927734,0.09700000286102295"/></g></g><g opacity="1" transform="matrix(1,0,0,1,15.66100025177002,98.21199798583984)"><g opacity="1" transform="matrix(0,-1,1,0,0,0)"><path stroke-linecap="round" stroke-linejoin="round" fill-opacity="0" class="primary" stroke="rgb(42,48,107)" stroke-opacity="1" stroke-width="3" d=" M-74.62000274658203,0.11900000274181366 C-38.62300109863281,-0.019999999552965164 70.07599639892578,-0.11900000274181366 74.62000274658203,-0.11900000274181366"/></g></g></g><g transform="matrix(1,0,0,1,24.277999877929688,64.03079223632812)" opacity="1" style="display: block;"><g opacity="1" transform="matrix(1,0,0,1,0,0)"><path stroke-linecap="round" stroke-linejoin="round" fill-opacity="0" class="primary" stroke="rgb(42,48,107)" stroke-opacity="1" stroke-width="2" d=" M0.15800000727176666,17.781999588012695 C-0.02800000086426735,4.083000183105469 -0.12300000339746475,-13.149999618530273 -0.15800000727176666,-17.781999588012695"/></g></g><g transform="matrix(1,0,0,1,61.138999938964844,114.51205444335938)" opacity="1" style="display: block;"><g opacity="1" transform="matrix(0.47723543643951416,-0.8787754774093628,0.8787754774093628,0.47723543643951416,0,0)"><path stroke-linecap="round" stroke-linejoin="round" fill-opacity="0" class="primary" stroke="rgb(42,48,107)" stroke-opacity="1" stroke-width="2.999" d=" M18.776559829711914,-1.5993119478225708 C18.776559829711914,-1.5993119478225708 -13.720301628112793,-0.731086015701294 -13.720301628112793,-0.731086015701294"/></g></g><g transform="matrix(1,0,0,1,99.72599792480469,96.23200225830078)" opacity="1" style="display: block;"><g opacity="1" transform="matrix(0.47723543643951416,-0.8787754774093628,0.8787754774093628,0.47723543643951416,0,0)"><path stroke-linecap="round" stroke-linejoin="round" fill-opacity="0" class="primary" stroke="rgb(42,48,107)" stroke-opacity="1" stroke-width="2.999" d=" M1.2656749486923218,14.296130180358887 C1.2656749486923218,14.296130180358887 -0.7147175073623657,-15.124287605285645 -0.7147175073623657,-15.124287605285645"/></g></g><g transform="matrix(-1,0,0,-1,140.2530059814453,82.98515319824219)" opacity="1" style="display: block;"><g opacity="1" transform="matrix(0.47723543643951416,-0.8787754774093628,0.8787754774093628,0.47723543643951416,0,0)"><path stroke-linecap="round" stroke-linejoin="round" fill-opacity="0" class="primary" stroke="rgb(42,48,107)" stroke-opacity="1" stroke-width="2.999" d=" M14.72574520111084,-0.7424883246421814 C14.72574520111084,-0.7424883246421814 -13.87462043762207,-0.587215006351471 -13.87462043762207,-0.587215006351471"/></g></g><g transform="matrix(0.9833763837814331,-0.18157878518104553,0.18157878518104553,0.9833763837814331,143.29302978515625,51.53306198120117)" opacity="1" style="display: block;"><g opacity="1" transform="matrix(1,0,0,1,0,0)"><path stroke-linecap="round" stroke-linejoin="round" fill-opacity="0" class="primary" stroke="rgb(42,48,107)" stroke-opacity="1" stroke-width="2" d=" M12.282999992370605,-11.428999900817871 C2.3310000896453857,-13.77299976348877 -13.585000038146973,-5.892000198364258 -12.197999954223633,11.833000183105469"/></g></g><g transform="matrix(0.9850046038627625,-0.17252811789512634,0.17252811789512634,0.9850046038627625,127.19656372070312,118.01481628417969)" opacity="1" style="display: block;"><g opacity="1" transform="matrix(0.24703283607959747,-0.969007134437561,0.969007134437561,0.24703283607959747,0,0)"><path stroke-linecap="round" stroke-linejoin="round" fill-opacity="0" class="primary" stroke="rgb(42,48,107)" stroke-opacity="1" stroke-width="2" d=" M9.532999992370605,17.25 C-4.36899995803833,20.16699981689453 -18.66699981689453,-1.5779999494552612 -2.055000066757202,-17.514999389648438"/></g></g><g transform="matrix(0.9943464994430542,-0.10618389397859573,0.10618389397859573,0.9943464994430542,82.44097900390625,73.7082290649414)" opacity="1" style="display: block;"><g opacity="1" transform="matrix(1,0,0,1,0,0)"><path stroke-linecap="round" stroke-linejoin="round" fill-opacity="0" class="primary" stroke="rgb(42,48,107)" stroke-opacity="1" stroke-width="2" d=" M10.855999946594238,10.571999549865723 C12.119000434875488,2.677000045776367 5.908999919891357,-12.996000289916992 -11.013999938964844,-10.253999710083008"/></g></g><g transform="matrix(0.9998040795326233,-0.019794626161456108,0.019794626161456108,0.9998040795326233,35.6182975769043,131.3171844482422)" opacity="1" style="display: block;"><g opacity="1" transform="matrix(1,0,0,1,0,0)"><path stroke-linecap="round" stroke-linejoin="round" fill-opacity="0" class="primary" stroke="rgb(42,48,107)" stroke-opacity="1" stroke-width="2" d=" M10.105999946594238,-12.319999694824219 C2.5280001163482666,-14.083000183105469 -13.157999992370605,-5.73799991607666 -9.585000038146973,12.550999641418457"/></g></g><g transform="matrix(-1,0,0,-1,161.09100341796875,59.180274963378906)" opacity="1" style="display: block;"><g opacity="1" transform="matrix(0.6600279211997986,-0.7512410879135132,0.7512410879135132,0.6600279211997986,0,0)"><path class="secondary" fill="rgb(230,142,110)" fill-opacity="1" d=" M0,12.897000312805176 C7.123000144958496,12.897000312805176 12.897000312805176,7.123000144958496 12.897000312805176,0 C12.897000312805176,-7.123000144958496 7.123000144958496,-12.897000312805176 0,-12.897000312805176 C-7.123000144958496,-12.897000312805176 -12.897000312805176,-7.123000144958496 -12.897000312805176,0 C-12.897000312805176,7.123000144958496 -7.123000144958496,12.897000312805176 0,12.897000312805176z"/><path stroke-linecap="round" stroke-linejoin="round" fill-opacity="0" class="secondary" stroke="rgb(230,142,110)" stroke-opacity="1" stroke-width="0.999" d=" M0,12.897000312805176 C7.123000144958496,12.897000312805176 12.897000312805176,7.123000144958496 12.897000312805176,0 C12.897000312805176,-7.123000144958496 7.123000144958496,-12.897000312805176 0,-12.897000312805176 C-7.123000144958496,-12.897000312805176 -12.897000312805176,-7.123000144958496 -12.897000312805176,0 C-12.897000312805176,7.123000144958496 -7.123000144958496,12.897000312805176 0,12.897000312805176z"/></g></g><g transform="matrix(-1,0,0,-1,154.3820037841797,58.91627502441406)" opacity="1" style="display: block;"><g opacity="1" transform="matrix(0.6600279211997986,-0.7512410879135132,0.7512410879135132,0.6600279211997986,0,0)"><path stroke-linecap="round" stroke-linejoin="round" fill-opacity="0" class="primary" stroke="rgb(42,48,107)" stroke-opacity="1" stroke-width="3.002" d=" M0,12.897000312805176 C7.123000144958496,12.897000312805176 12.897000312805176,7.123000144958496 12.897000312805176,0 C12.897000312805176,-7.123000144958496 7.123000144958496,-12.897000312805176 0,-12.897000312805176 C-7.123000144958496,-12.897000312805176 -12.897000312805176,-7.123000144958496 -12.897000312805176,0 C-12.897000312805176,7.123000144958496 -7.123000144958496,12.897000312805176 0,12.897000312805176z"/></g></g><g transform="matrix(1,0,0,1,132.61900329589844,106.36614990234375)" opacity="1" style="display: block;"><g opacity="1" transform="matrix(0.6600279211997986,-0.7512410879135132,0.7512410879135132,0.6600279211997986,0,0)"><path class="secondary" fill="rgb(230,142,110)" fill-opacity="1" d=" M0,12.897000312805176 C7.123000144958496,12.897000312805176 12.897000312805176,7.123000144958496 12.897000312805176,0 C12.897000312805176,-7.123000144958496 7.123000144958496,-12.897000312805176 0,-12.897000312805176 C-7.123000144958496,-12.897000312805176 -12.897000312805176,-7.123000144958496 -12.897000312805176,0 C-12.897000312805176,7.123000144958496 -7.123000144958496,12.897000312805176 0,12.897000312805176z"/><path stroke-linecap="round" stroke-linejoin="round" fill-opacity="0" class="secondary" stroke="rgb(230,142,110)" stroke-opacity="1" stroke-width="0.999" d=" M0,12.897000312805176 C7.123000144958496,12.897000312805176 12.897000312805176,7.123000144958496 12.897000312805176,0 C12.897000312805176,-7.123000144958496 7.123000144958496,-12.897000312805176 0,-12.897000312805176 C-7.123000144958496,-12.897000312805176 -12.897000312805176,-7.123000144958496 -12.897000312805176,0 C-12.897000312805176,7.123000144958496 -7.123000144958496,12.897000312805176 0,12.897000312805176z"/></g></g><g transform="matrix(1,0,0,1,125.91000366210938,106.1021499633789)" opacity="1" style="display: block;"><g opacity="1" transform="matrix(0.6600279211997986,-0.7512410879135132,0.7512410879135132,0.6600279211997986,0,0)"><path stroke-linecap="round" stroke-linejoin="round" fill-opacity="0" class="primary" stroke="rgb(42,48,107)" stroke-opacity="1" stroke-width="3.002" d=" M0,12.897000312805176 C7.123000144958496,12.897000312805176 12.897000312805176,7.123000144958496 12.897000312805176,0 C12.897000312805176,-7.123000144958496 7.123000144958496,-12.897000312805176 0,-12.897000312805176 C-7.123000144958496,-12.897000312805176 -12.897000312805176,-7.123000144958496 -12.897000312805176,0 C-12.897000312805176,7.123000144958496 -7.123000144958496,12.897000312805176 0,12.897000312805176z"/></g></g><g transform="matrix(-1,0,0,-1,80.79399871826172,84.85200500488281)" opacity="1" style="display: block;"><g opacity="1" transform="matrix(0.15358948707580566,0.9881347417831421,-0.9881347417831421,0.15358948707580566,0,0)"><path class="secondary" fill="rgb(230,142,110)" fill-opacity="1" d=" M0,12.897000312805176 C7.123000144958496,12.897000312805176 12.897000312805176,7.123000144958496 12.897000312805176,0 C12.897000312805176,-7.123000144958496 7.123000144958496,-12.897000312805176 0,-12.897000312805176 C-7.123000144958496,-12.897000312805176 -12.897000312805176,-7.123000144958496 -12.897000312805176,0 C-12.897000312805176,7.123000144958496 -7.123000144958496,12.897000312805176 0,12.897000312805176z"/><path stroke-linecap="round" stroke-linejoin="round" fill-opacity="0" class="secondary" stroke="rgb(230,142,110)" stroke-opacity="1" stroke-width="0.999" d=" M0,12.897000312805176 C7.123000144958496,12.897000312805176 12.897000312805176,7.123000144958496 12.897000312805176,0 C12.897000312805176,-7.123000144958496 7.123000144958496,-12.897000312805176 0,-12.897000312805176 C-7.123000144958496,-12.897000312805176 -12.897000312805176,-7.123000144958496 -12.897000312805176,0 C-12.897000312805176,7.123000144958496 -7.123000144958496,12.897000312805176 0,12.897000312805176z"/></g></g><g transform="matrix(-1,0,0,-1,74.08499908447266,84.58800506591797)" opacity="1" style="display: block;"><g opacity="1" transform="matrix(0.15358948707580566,0.9881347417831421,-0.9881347417831421,0.15358948707580566,0,0)"><path stroke-linecap="round" stroke-linejoin="round" fill-opacity="0" class="primary" stroke="rgb(42,48,107)" stroke-opacity="1" stroke-width="3.002" d=" M0,12.897000312805176 C7.123000144958496,12.897000312805176 12.897000312805176,7.123000144958496 12.897000312805176,0 C12.897000312805176,-7.123000144958496 7.123000144958496,-12.897000312805176 0,-12.897000312805176 C-7.123000144958496,-12.897000312805176 -12.897000312805176,-7.123000144958496 -12.897000312805176,0 C-12.897000312805176,7.123000144958496 -7.123000144958496,12.897000312805176 0,12.897000312805176z"/></g></g><g transform="matrix(1,0,0,1,53.720001220703125,138.62705993652344)" opacity="1" style="display: block;"><g opacity="1" transform="matrix(0.6600279211997986,-0.7512410879135132,0.7512410879135132,0.6600279211997986,0,0)"><path class="secondary" fill="rgb(230,142,110)" fill-opacity="1" d=" M0,12.897000312805176 C7.123000144958496,12.897000312805176 12.897000312805176,7.123000144958496 12.897000312805176,0 C12.897000312805176,-7.123000144958496 7.123000144958496,-12.897000312805176 0,-12.897000312805176 C-7.123000144958496,-12.897000312805176 -12.897000312805176,-7.123000144958496 -12.897000312805176,0 C-12.897000312805176,7.123000144958496 -7.123000144958496,12.897000312805176 0,12.897000312805176z"/><path stroke-linecap="round" stroke-linejoin="round" fill-opacity="0" class="secondary" stroke="rgb(230,142,110)" stroke-opacity="1" stroke-width="0.999" d=" M0,12.897000312805176 C7.123000144958496,12.897000312805176 12.897000312805176,7.123000144958496 12.897000312805176,0 C12.897000312805176,-7.123000144958496 7.123000144958496,-12.897000312805176 0,-12.897000312805176 C-7.123000144958496,-12.897000312805176 -12.897000312805176,-7.123000144958496 -12.897000312805176,0 C-12.897000312805176,7.123000144958496 -7.123000144958496,12.897000312805176 0,12.897000312805176z"/></g></g><g transform="matrix(1,0,0,1,47.01100158691406,138.36305236816406)" opacity="1" style="display: block;"><g opacity="1" transform="matrix(0.6600279211997986,-0.7512410879135132,0.7512410879135132,0.6600279211997986,0,0)"><path stroke-linecap="round" stroke-linejoin="round" fill-opacity="0" class="primary" stroke="rgb(42,48,107)" stroke-opacity="1" stroke-width="3.002" d=" M0,12.897000312805176 C7.123000144958496,12.897000312805176 12.897000312805176,7.123000144958496 12.897000312805176,0 C12.897000312805176,-7.123000144958496 7.123000144958496,-12.897000312805176 0,-12.897000312805176 C-7.123000144958496,-12.897000312805176 -12.897000312805176,-7.123000144958496 -12.897000312805176,0 C-12.897000312805176,7.123000144958496 -7.123000144958496,12.897000312805176 0,12.897000312805176z"/></g></g><g transform="matrix(1,0,0,1,92.9162368774414,180.39700317382812)" opacity="1" style="display: block;"><g opacity="1" transform="matrix(1,0,0,1,0,0)"><path stroke-linecap="round" stroke-linejoin="round" fill-opacity="0" class="primary" stroke="rgb(42,48,107)" stroke-opacity="1" stroke-width="2" d=" M29.641000747680664,-0.1340000033378601 C18.30299949645996,0.17000000178813934 -25.73444175720215,0.12260880321264267 -44.23244094848633,0.09260880202054977"/></g></g></g></g></svg>