<svg xmlns="http://www.w3.org/2000/svg" xmlns:xlink="http://www.w3.org/1999/xlink" viewBox="0 0 192 192" width="192" height="192" preserveAspectRatio="xMidYMid meet" style="width: 100%; height: 100%; transform: translate3d(0px, 0px, 0px); content-visibility: visible;"><defs><clipPath id="__lottie_element_517"><rect width="192" height="192" x="0" y="0"/></clipPath><clipPath id="__lottie_element_519"><path d="M0,0 L192,0 L192,192 L0,192z"/></clipPath><g id="__lottie_element_535"><g transform="matrix(1,0,0,1,0,0)" opacity="1" style="display: block;"><path fill="rgb(255,0,0)" fill-opacity="1" d=" M112.64,96.84 C114.96,114.01 132.38,111.5 135.88,112.5 C157.17,118.6 152.87,170.43 151.78,170.42 C133.69,170.22 40.91,170.86 39.98,170.38 C39.72,170.25 32.45,124.57 55.56,113.61 C71.41,106.1 76.1,111.79 82.12,96.9"/><g opacity="1" transform="matrix(1,0,0,1,0,0)"><g opacity="1" transform="matrix(1,0,0,1,95.78299713134766,133.7010040283203)"><g opacity="1" transform="matrix(1,0,0,1,0,0)"/></g></g></g></g><filter id="__lottie_element_541" filterUnits="objectBoundingBox" x="0%" y="0%" width="100%" height="100%"><feComponentTransfer in="SourceGraphic"><feFuncA type="table" tableValues="1.0 0.0"/></feComponentTransfer></filter><mask id="__lottie_element_535_2" mask-type="alpha" maskUnits="userSpaceOnUse"><g filter="url(#__lottie_element_541)"><rect width="192" height="192" x="0" y="0" fill="#ffffff" opacity="0"/><use xmlns:ns1="http://www.w3.org/1999/xlink" ns1:href="#__lottie_element_535"/></g></mask></defs><g clip-path="url(#__lottie_element_517)"><g clip-path="url(#__lottie_element_519)" transform="matrix(1,0,0,1,0,0)" opacity="1" style="display: block;"><g transform="matrix(1,0,0,1,95.30699920654297,140.2779998779297)" opacity="1" style="display: block;"><g opacity="1" transform="matrix(1,0,0,1,0,0)"><path class="secondary" fill="rgb(230,142,110)" fill-opacity="1" d=" M19.327999114990234,-20.562999725341797 C32.7140007019043,-27.801000595092773 44.56800079345703,-18.118000030517578 45.608001708984375,-16.340999603271484 C54.86199951171875,-0.5230000019073486 52.604000091552734,24.69700050354004 51.12300109863281,24.81399917602539 C49.55699920654297,24.937000274658203 -21.016000747680664,23.639999389648438 -46.457000732421875,24.395999908447266 C-57.49599838256836,24.724000930786133 -52.356998443603516,-12.836999893188477 -39.36800003051758,-20.864999771118164 C-31.43600082397461,-25.76799964904785 -19.520000457763672,-26.025999069213867 -13.95300006866455,-22.13800048828125 C-9.824999809265137,-19.256000518798828 -5.175000190734863,-15.218000411987305 4.789999961853027,-15.227999687194824 C6.484000205993652,-15.229999542236328 13.572999954223633,-17.45199966430664 19.327999114990234,-20.562999725341797z"/><path stroke-linecap="butt" stroke-linejoin="miter" fill-opacity="0" stroke-miterlimit="4" class="secondary" stroke="rgb(230,142,110)" stroke-opacity="1" stroke-width="1" d=" M19.327999114990234,-20.562999725341797 C32.7140007019043,-27.801000595092773 44.56800079345703,-18.118000030517578 45.608001708984375,-16.340999603271484 C54.86199951171875,-0.5230000019073486 52.604000091552734,24.69700050354004 51.12300109863281,24.81399917602539 C49.55699920654297,24.937000274658203 -21.016000747680664,23.639999389648438 -46.457000732421875,24.395999908447266 C-57.49599838256836,24.724000930786133 -52.356998443603516,-12.836999893188477 -39.36800003051758,-20.864999771118164 C-31.43600082397461,-25.76799964904785 -19.520000457763672,-26.025999069213867 -13.95300006866455,-22.13800048828125 C-9.824999809265137,-19.256000518798828 -5.175000190734863,-15.218000411987305 4.789999961853027,-15.227999687194824 C6.484000205993652,-15.229999542236328 13.572999954223633,-17.45199966430664 19.327999114990234,-20.562999725341797z"/></g></g><g transform="matrix(1,0,0,1,0,0)" opacity="1" style="display: block;"><g opacity="1" transform="matrix(1,0,0,1,84.5009994506836,135.3489990234375)"><g opacity="1" transform="matrix(1,0,0,1,0,0)"><path stroke-linecap="round" stroke-linejoin="round" fill-opacity="0" class="primary" stroke="rgb(29,77,141)" stroke-opacity="1" stroke-width="2" d=" M0,3.703000068664551 C2.0450000762939453,3.703000068664551 3.703000068664551,2.0450000762939453 3.703000068664551,0 C3.703000068664551,-2.0450000762939453 2.0450000762939453,-3.703000068664551 0,-3.703000068664551 C-2.0450000762939453,-3.703000068664551 -3.703000068664551,-2.0450000762939453 -3.703000068664551,0 C-3.703000068664551,2.0450000762939453 -2.0450000762939453,3.703000068664551 0,3.703000068664551z"/></g></g><g opacity="1" transform="matrix(1,0,0,1,84.66000366210938,150.75399780273438)"><g opacity="1" transform="matrix(1,0,0,1,0,0)"><path stroke-linecap="round" stroke-linejoin="round" fill-opacity="0" class="primary" stroke="rgb(29,77,141)" stroke-opacity="1" stroke-width="2" d=" M0,3.703000068664551 C2.0450000762939453,3.703000068664551 3.703000068664551,2.0450000762939453 3.703000068664551,0 C3.703000068664551,-2.0450000762939453 2.0450000762939453,-3.703000068664551 0,-3.703000068664551 C-2.0450000762939453,-3.703000068664551 -3.703000068664551,-2.0450000762939453 -3.703000068664551,0 C-3.703000068664551,2.0450000762939453 -2.0450000762939453,3.703000068664551 0,3.703000068664551z"/></g></g><g opacity="1" transform="matrix(1,0,0,1,0,0)"><g opacity="1" transform="matrix(1,0,0,1,95.78299713134766,133.7010040283203)"><g opacity="1" transform="matrix(1,0,0,1,0,0)"><path stroke-linecap="round" stroke-linejoin="round" fill-opacity="0" class="primary" stroke="rgb(29,77,141)" stroke-opacity="1" stroke-width="3.004" d=" M16.857999801635742,-36.86199951171875 C19.174999237060547,-19.68899917602539 36.597999572753906,-22.201000213623047 40.097999572753906,-21.198999404907227 C61.38600158691406,-15.10099983215332 57.08300018310547,36.729000091552734 56,36.71699905395508 C37.9109992980957,36.516998291015625 -54.869998931884766,37.154998779296875 -55.801998138427734,36.68299865722656 C-56.064998626708984,36.54899978637695 -63.334999084472656,-9.13599967956543 -40.22700119018555,-20.08799934387207 C-24.375999450683594,-27.60099983215332 -19.679000854492188,-21.90999984741211 -13.664999961853027,-36.79800033569336"/></g></g><g opacity="1" transform="matrix(1,0,0,1,97.01399993896484,116.64199829101562)"><g opacity="1" transform="matrix(1,0,0,1,0,0)"><path stroke-linecap="round" stroke-linejoin="round" fill-opacity="0" class="primary" stroke="rgb(29,77,141)" stroke-opacity="1" stroke-width="1.995" d=" M18.93199920654297,-1.8450000286102295 C14.3149995803833,1.1619999408721924 7.03000020980835,3.7279999256134033 -0.6110000014305115,3.5239999294281006 C-6.71999979019165,3.3610000610351562 -13.163000106811523,0.35100001096725464 -18.93199920654297,-3.5350000858306885"/></g></g><g opacity="1" transform="matrix(1,0,0,1,96.31300354003906,145.1490020751953)"><g opacity="1" transform="matrix(1,0,0,1,0,0)"><path stroke-linecap="round" stroke-linejoin="round" fill-opacity="0" class="primary" stroke="rgb(29,77,141)" stroke-opacity="1" stroke-width="2" d=" M0.009999999776482582,24.674999237060547 C0.009999999776482582,10.708000183105469 -0.009999999776482582,-10.677000045776367 -0.009999999776482582,-24.674999237060547"/></g></g></g></g><g transform="matrix(1,0.000008772080946073402,-0.000008772080946073402,1,0.0007171630859375,-0.00084686279296875)" opacity="1" style="display: block;"><g opacity="1" transform="matrix(1,0,0,1,61.32500076293945,69.20099639892578)"><g opacity="1" transform="matrix(1,0,0,1,0,0)"><path stroke-linecap="round" stroke-linejoin="round" fill-opacity="0" class="primary" stroke="rgb(29,77,141)" stroke-opacity="1" stroke-width="2.005" d=" M4.513000011444092,2.9189999103546143 C-2.9830000400543213,10.805999755859375 -10.170000076293945,-4.11899995803833 2.0999999046325684,-5.209000110626221"/></g></g><g opacity="1" transform="matrix(1,0,0,1,131.88800048828125,68.48200225830078)"><g opacity="1" transform="matrix(0.7839102149009705,0.6208741664886475,-0.6208741664886475,0.7839102149009705,0,0)"><path stroke-linecap="round" stroke-linejoin="round" fill-opacity="0" class="primary" stroke="rgb(29,77,141)" stroke-opacity="1" stroke-width="2.005" d=" M-3.2960000038146973,3.88100004196167 C-1.1610000133514404,3.88100004196167 1.2960000038146973,4.659999847412109 3.378999948501587,3.7679998874664307 C6.913000106811523,2.253000020980835 3.75600004196167,-8.524999618530273 -4.803999900817871,-2.25"/></g></g><g opacity="1" transform="matrix(1,0,0,1,96.24400329589844,64.86699676513672)"><g opacity="1" transform="matrix(1,0,0,1,0,0)"><path stroke-linecap="round" stroke-linejoin="round" fill-opacity="0" class="primary" stroke="rgb(29,77,141)" stroke-opacity="1" stroke-width="3" d=" M32.01100158691406,-4.058000087738037 C31.89900016784668,5.499000072479248 29.174999237060547,17.90999984741211 19.857999801635742,27.850000381469727 C18.249000549316406,29.566999435424805 15.468999862670898,32.14799880981445 13.470999717712402,33.39400100708008 C-0.13600000739097595,41.875999450683594 -14.388999938964844,34.27199935913086 -22.22800064086914,22.753000259399414 C-26.32200050354004,16.738000869750977 -28.9689998626709,9.053999900817871 -30.801000595092773,2.200000047683716 C-31.17300033569336,0.8059999942779541 -31.466999053955078,-0.6589999794960022 -31.67099952697754,-2.1670000553131104"/></g></g></g><g mask="url(#__lottie_element_535_2)" style="display: block;"><g transform="matrix(1,0.000009550938557367772,-0.000009550938557367772,1,0.0006869125063531101,8.666072845458984)" opacity="1"><g opacity="1" transform="matrix(1,0,0,1,98.4280014038086,68.65899658203125)"><g opacity="1" transform="matrix(1,0,0,1,0,0)"><path stroke-linecap="round" stroke-linejoin="round" fill-opacity="0" class="primary" stroke="rgb(29,77,141)" stroke-opacity="1" stroke-width="3.003" d=" M36.840999603271484,35.55400085449219 C33.573001861572266,41.29999923706055 -35.92900085449219,41.1510009765625 -39.518001556396484,34.347999572753906 C-46.888999938964844,20.375 -47.93899917602539,4.968999862670898 -46.36199951171875,-10.520000457763672 C-43.849998474121094,-35.17900085449219 -32.18899917602539,-60.198001861572266 -0.30399999022483826,-60.77399826049805 C33.76300048828125,-61.388999938964844 47.50400161743164,-28.077999114990234 46.97999954223633,-11.85200023651123 C46.27799987792969,9.885000228881836 44.53799819946289,22.02199935913086 36.840999603271484,35.55400085449219z"/></g></g></g></g><g mask="url(#__lottie_element_535_2)" style="display: block;"><g transform="matrix(1,0.000008772080946073402,-0.000008772080946073402,1,0.0006411354406736791,8.666152954101562)" opacity="1"><g opacity="1" transform="matrix(1,0,0,1,0,-8.666999816894531)"><g opacity="1" transform="matrix(1,0,0,1,98.5979995727539,42.92599868774414)"><g opacity="1" transform="matrix(1,0,0,1,0,0)"><path stroke-linecap="round" stroke-linejoin="round" fill-opacity="0" class="primary" stroke="rgb(29,77,141)" stroke-opacity="1" stroke-width="3" d=" M-46.63800048828125,23.920000076293945 C-47.034000396728516,23.85099983215332 -44.32099914550781,8.310999870300293 -41.25600051879883,1.3700000047683716 C-34.564998626708984,-13.78499984741211 -22.433000564575195,-26.31800079345703 -0.6570000052452087,-26.711000442504883 C19.32200050354004,-27.07200050354004 32.39699935913086,-16.091999053955078 39.46699905395508,-3.9079999923706055 C43.12799835205078,2.3989999294281006 49.22999954223633,18.902000427246094 45.52399826049805,26.457000732421875 C44.36800003051758,28.812999725341797 29.22800064086914,14.60099983215332 17.195999145507812,11.6850004196167 C10.460000038146973,10.053999900817871 1.0420000553131104,14.116000175476074 -3.119999885559082,9.763999938964844 C-6.043000221252441,6.709000110626221 -7.071000099182129,-3.2869999408721924 -12.772000312805176,-3.1500000953674316 C-18.43400001525879,-3.013000011444092 -23.28499984741211,8.682000160217285 -29.68000030517578,14.781000137329102 C-37.345001220703125,22.091999053955078 -46.14500045776367,24.0049991607666 -46.63800048828125,23.920000076293945z"/></g></g><g opacity="1" transform="matrix(1,0,0,1,118.11499786376953,37.17599868774414)"><g opacity="1" transform="matrix(1,0,0,1,0,0)"><path stroke-linecap="round" stroke-linejoin="round" fill-opacity="0" class="primary" stroke="rgb(29,77,141)" stroke-opacity="1" stroke-width="2.005" d=" M-14.654000282287598,-12.062999725341797 C-0.21799999475479126,-10.420000076293945 10.567999839782715,1.753999948501587 14.654000282287598,12.062999725341797"/></g></g></g></g></g><g transform="matrix(1,0,0,1,0,2)" opacity="1" style="display: block;"><g opacity="1" transform="matrix(1,0,0,1,67.5780029296875,179.66299438476562)"><g opacity="1" transform="matrix(1,0,0,1,0,0)"><path stroke-linecap="round" stroke-linejoin="round" fill-opacity="0" class="primary" stroke="rgb(29,77,141)" stroke-opacity="1" stroke-width="1.995" d=" M7.3429999351501465,-0.05000000074505806 C3.7239999771118164,-0.05000000074505806 0.8759999871253967,0.07100000232458115 -7.3429999351501465,0.04600000008940697"/></g></g><g opacity="1" transform="matrix(1,0,0,1,121.91899871826172,179.75)"><g opacity="1" transform="matrix(1,0,0,1,0,0)"><path stroke-linecap="round" stroke-linejoin="round" fill-opacity="0" class="primary" stroke="rgb(29,77,141)" stroke-opacity="1" stroke-width="1.995" d=" M26.542999267578125,0.10000000149011612 C5.818999767303467,0.15800000727176666 -37.750999450683594,-0.0430000014603138 -37.233001708984375,-0.11100000143051147"/></g></g></g><g transform="matrix(1,0,0,1,52.99999237060547,3)" opacity="1" style="display: block;"><g opacity="1" transform="matrix(1,0,0,1,69.43299865722656,159.7259979248047)"><g opacity="1" transform="matrix(1,0,0,1,0,0)"><path stroke-linecap="round" stroke-linejoin="round" fill-opacity="0" class="primary" stroke="rgb(29,77,141)" stroke-opacity="1" stroke-width="1.667" d=" M18.06100082397461,-0.032999999821186066 C14.425999641418457,0.06599999964237213 -16.579999923706055,0.13099999725818634 -18.06100082397461,-0.06199999898672104"/></g></g></g><g transform="matrix(1.2200000286102295,0,0,1.2200000286102295,55.3849983215332,137.61500549316406)" opacity="1" style="display: block;"><g opacity="1" transform="matrix(1,0,0,1,0,0)"><path stroke-linecap="round" stroke-linejoin="round" fill-opacity="0" class="primary" stroke-dasharray=" 45 0" stroke-dashoffset="30" stroke="rgb(29,77,141)" stroke-opacity="1" stroke-width="1.996" d=" M-0.16200000047683716,-11.54699993133545 C-4.236999988555908,-6.204999923706055 -7.107999801635742,2.9489998817443848 -6.504000186920166,14.069000244140625 C-6.46999979019165,14.6899995803833 -6.434999942779541,15.300000190734863 -6.3979997634887695,15.89799976348877"/></g></g><g transform="matrix(1.2200000286102295,0.00001070193866326008,-0.00001070193866326008,1.2200000286102295,61.39446258544922,29.279691696166992)" opacity="1" style="display: block;"><g opacity="1" transform="matrix(1,0,0,1,0,0)"><path stroke-linecap="round" stroke-linejoin="round" fill-opacity="0" class="primary" stroke-dasharray=" 45 0" stroke-dashoffset="30" stroke="rgb(29,77,141)" stroke-opacity="1" stroke-width="1.996" d=" M11.833999633789062,-12.835000038146973 C11.493000030517578,-12.753999710083008 11.312000274658203,-12.706000328063965 11.312000274658203,-12.706000328063965 C3.8570001125335693,-12.489999771118164 -8.154000282287598,-1.2009999752044678 -11.411999702453613,16.04800033569336"/></g></g></g></g></svg>