<svg xmlns="http://www.w3.org/2000/svg" xmlns:xlink="http://www.w3.org/1999/xlink" viewBox="0 0 192 192" width="192" height="192" preserveAspectRatio="xMidYMid meet" style="width: 100%; height: 100%; transform: translate3d(0px, 0px, 0px); content-visibility: visible;"><defs><clipPath id="__lottie_element_14599"><rect width="192" height="192" x="0" y="0"/></clipPath><clipPath id="__lottie_element_14601"><path d="M0,0 L192,0 L192,192 L0,192z"/></clipPath></defs><g clip-path="url(#__lottie_element_14599)"><g clip-path="url(#__lottie_element_14601)" transform="matrix(1,0,0,1,0,0)" opacity="1" style="display: block;"><g transform="matrix(1.0205718278884888,0,0,1.0205718278884888,103.30592346191406,96.85012817382812)" opacity="1" style="display: none;"><g opacity="1" transform="matrix(1,0,0,1,0,0)"><path stroke-linecap="round" stroke-linejoin="round" fill-opacity="0" class="secondary" stroke="rgb(230,142,110)" stroke-opacity="1" stroke-width="1" d=" M58.0989990234375,-76.19400024414062 C54.5890007019043,-77.34200286865234 32.2869987487793,-85.46700286865234 32.2859992980957,-85.46900177001953 C32.28799819946289,-85.47599792480469 32.292999267578125,-85.49600219726562 32.29800033569336,-85.50599670410156 C32.29800033569336,-85.50599670410156 32.29800033569336,-85.50599670410156 32.29800033569336,-85.50599670410156 C32.29800033569336,-85.50599670410156 32.27899932861328,-85.47899627685547 32.29199981689453,-85.50299835205078 C32.29399871826172,-85.50700378417969 32.30500030517578,-85.52799987792969 32.30500030517578,-85.52799987792969 C32.305999755859375,-85.52899932861328 59.569000244140625,-75.5270004272461 59.569000244140625,-75.5270004272461 C59.569000244140625,-75.5260009765625 59.54999923706055,-75.51799774169922 59.516998291015625,-75.427001953125 C59.507999420166016,-75.4020004272461 59.481998443603516,-75.322998046875 59.47800064086914,-75.31900024414062 C59.47600173950195,-75.31700134277344 58.40700149536133,-76.09300231933594 58.0989990234375,-76.19400024414062z"/><path class="secondary" fill="rgb(230,142,110)" fill-opacity="1" d=" M58.0989990234375,-76.19400024414062 C54.5890007019043,-77.34200286865234 32.2869987487793,-85.46700286865234 32.2859992980957,-85.46900177001953 C32.28799819946289,-85.47599792480469 32.292999267578125,-85.49600219726562 32.29800033569336,-85.50599670410156 C32.29800033569336,-85.50599670410156 32.29800033569336,-85.50599670410156 32.29800033569336,-85.50599670410156 C32.29800033569336,-85.50599670410156 32.27899932861328,-85.47899627685547 32.29199981689453,-85.50299835205078 C32.29399871826172,-85.50700378417969 32.30500030517578,-85.52799987792969 32.30500030517578,-85.52799987792969 C32.305999755859375,-85.52899932861328 59.569000244140625,-75.5270004272461 59.569000244140625,-75.5270004272461 C59.569000244140625,-75.5260009765625 59.54999923706055,-75.51799774169922 59.516998291015625,-75.427001953125 C59.507999420166016,-75.4020004272461 59.481998443603516,-75.322998046875 59.47800064086914,-75.31900024414062 C59.47600173950195,-75.31700134277344 58.40700149536133,-76.09300231933594 58.0989990234375,-76.19400024414062z"/></g></g><g transform="matrix(1.0205718278884888,0,0,1.0205718278884888,96.30592346191406,95.60012817382812)" opacity="1" style="display: none;"><g opacity="1" transform="matrix(1,0,0,1,0,0)"><path stroke-linecap="round" stroke-linejoin="round" fill-opacity="0" class="primary" stroke="rgb(29,77,141)" stroke-opacity="1" stroke-width="3" d=" M58.0989990234375,-76.19400024414062 C54.5890007019043,-77.34200286865234 32.2869987487793,-85.46700286865234 32.2859992980957,-85.46900177001953 C32.28799819946289,-85.47599792480469 32.292999267578125,-85.49600219726562 32.29800033569336,-85.50599670410156 C32.29800033569336,-85.50599670410156 32.29800033569336,-85.50599670410156 32.29800033569336,-85.50599670410156 C32.29800033569336,-85.50599670410156 32.27899932861328,-85.47899627685547 32.29199981689453,-85.50299835205078 C32.29399871826172,-85.50700378417969 32.30500030517578,-85.52799987792969 32.30500030517578,-85.52799987792969 C32.305999755859375,-85.52899932861328 59.569000244140625,-75.5270004272461 59.569000244140625,-75.5270004272461 C59.569000244140625,-75.5260009765625 59.54999923706055,-75.51799774169922 59.516998291015625,-75.427001953125 C59.507999420166016,-75.4020004272461 59.481998443603516,-75.322998046875 59.47800064086914,-75.31900024414062 C59.47600173950195,-75.31700134277344 58.40700149536133,-76.09300231933594 58.0989990234375,-76.19400024414062z"/></g></g><g transform="matrix(1.050337791442871,0,0,1.050337791442871,103.69648742675781,95.88842010498047)" opacity="1" style="display: block;"><g opacity="1" transform="matrix(1,0,0,1,0,0)"><path stroke-linecap="round" stroke-linejoin="round" fill-opacity="0" class="secondary" stroke="rgb(230,142,110)" stroke-opacity="1" stroke-width="1" d=" M-13.729000091552734,75.61699676513672 C-15.692000389099121,73.6520004272461 -54.86899948120117,4.947999954223633 -55.694000244140625,3.5160000324249268 C-53.97200012207031,1.7589999437332153 -39.92599868774414,-11.520000457763672 -38.952999114990234,-10.54699993133545 C-36.391998291015625,-7.984000205993652 -18.747377395629883,23.85211944580078 -18.192115783691406,23.296857833862305 C-16.834836959838867,21.939579010009766 4.449337005615234,-30.2713623046875 12.285301208496094,-45.231163024902344 C13.488387107849121,-47.52886199951172 18.18646812438965,-58.521385192871094 19.85892677307129,-60.193843841552734 C20.38793182373047,-60.72284698486328 45.497955322265625,-48.2365608215332 45.497955322265625,-48.22256088256836 C45.497955322265625,-47.803558349609375 7.840030670166016,23.591171264648438 -0.3134382665157318,46.03651428222656 C-2.991438150405884,53.4005126953125 -10.404000282287598,76.08599853515625 -11.718999862670898,77.40299987792969 C-12.4399995803833,78.12200164794922 -13.5,75.84600067138672 -13.729000091552734,75.61699676513672z"/><path class="secondary" fill="rgb(230,142,110)" fill-opacity="1" d=" M-13.729000091552734,75.61699676513672 C-15.692000389099121,73.6520004272461 -54.86899948120117,4.947999954223633 -55.694000244140625,3.5160000324249268 C-53.97200012207031,1.7589999437332153 -39.92599868774414,-11.520000457763672 -38.952999114990234,-10.54699993133545 C-36.391998291015625,-7.984000205993652 -18.747377395629883,23.85211944580078 -18.192115783691406,23.296857833862305 C-16.834836959838867,21.939579010009766 4.449337005615234,-30.2713623046875 12.285301208496094,-45.231163024902344 C13.488387107849121,-47.52886199951172 18.18646812438965,-58.521385192871094 19.85892677307129,-60.193843841552734 C20.38793182373047,-60.72284698486328 45.497955322265625,-48.2365608215332 45.497955322265625,-48.22256088256836 C45.497955322265625,-47.803558349609375 7.840030670166016,23.591171264648438 -0.3134382665157318,46.03651428222656 C-2.991438150405884,53.4005126953125 -10.404000282287598,76.08599853515625 -11.718999862670898,77.40299987792969 C-12.4399995803833,78.12200164794922 -13.5,75.84600067138672 -13.729000091552734,75.61699676513672z"/></g></g><g transform="matrix(1.050337791442871,0,0,1.050337791442871,96.69648742675781,94.88842010498047)" opacity="1" style="display: block;"><g opacity="1" transform="matrix(1,0,0,1,0,0)"><path stroke-linecap="round" stroke-linejoin="round" fill-opacity="0" class="primary" stroke="rgb(29,77,141)" stroke-opacity="1" stroke-width="3" d=" M-13.729000091552734,75.61699676513672 C-15.692000389099121,73.6520004272461 -54.86899948120117,4.947999954223633 -55.694000244140625,3.5160000324249268 C-53.97200012207031,1.7589999437332153 -39.92599868774414,-11.520000457763672 -38.952999114990234,-10.54699993133545 C-36.391998291015625,-7.984000205993652 -18.80842399597168,23.957794189453125 -18.19257926940918,23.341949462890625 C-16.68730926513672,21.836679458618164 6.9198479652404785,-36.072574615478516 15.611149787902832,-52.665122985839844 C16.945575714111328,-55.213714599609375 22.15607261657715,-67.40518951416016 24.010976791381836,-69.26009368896484 C24.597557067871094,-69.84667205810547 50.8350830078125,-58.66130828857422 50.8350830078125,-58.647308349609375 C50.8350830078125,-58.228309631347656 8.83457088470459,20.868614196777344 -0.20799526572227478,45.74677658081055 C-2.8859951496124268,53.110774993896484 -10.404000282287598,76.08599853515625 -11.718999862670898,77.40299987792969 C-12.4399995803833,78.12200164794922 -13.5,75.84600067138672 -13.729000091552734,75.61699676513672z"/></g></g><g transform="matrix(1.050337791442871,0,0,1.050337791442871,119.7314453125,48.95189666748047)" opacity="1" style="display: block;"><g opacity="1" transform="matrix(1,0,0,1,0,0)"><path stroke-linecap="round" stroke-linejoin="round" fill-opacity="0" class="primary" stroke="rgb(29,77,141)" stroke-opacity="1" stroke-width="2" d=" M-12.152119636535645,23.787538528442383 C-8.523564338684082,16.530269622802734 3.359555721282959,-8.017499923706055 5.867692470550537,-11.818868637084961"/></g></g><g transform="matrix(1.050337791442871,0,0,1.050337791442871,37.88492202758789,108.35375213623047)" opacity="1" style="display: block;"><g opacity="1" transform="matrix(1,0,0,1,0,0)"><path stroke-linecap="round" stroke-linejoin="round" fill-opacity="0" class="primary" stroke="rgb(29,77,141)" stroke-opacity="1" stroke-width="2" d="M0 0"/></g></g><g transform="matrix(1.050337791442871,0,0,1.050337791442871,37.88492202758789,108.35375213623047)" opacity="1" style="display: block;"><g opacity="1" transform="matrix(1,0,0,1,0,0)"><path stroke-linecap="round" stroke-linejoin="round" fill-opacity="0" class="primary" stroke="rgb(29,77,141)" stroke-opacity="1" stroke-width="2" d=" M72.93399810791016,33.07400131225586 C75.927001953125,25.799999237060547 79.38500213623047,17.809999465942383 83.14299774169922,9.432999610900879"/></g></g><g transform="matrix(1.050337791442871,0,0,1.050337791442871,37.88492202758789,108.35375213623047)" opacity="1" style="display: block;"><g opacity="1" transform="matrix(1,0,0,1,0,0)"><path stroke-linecap="round" stroke-linejoin="round" fill-opacity="0" class="primary" stroke="rgb(29,77,141)" stroke-opacity="1" stroke-width="2" d="M0 0"/></g></g><g transform="matrix(1.050337791442871,0,0,1.050337791442871,37.88492202758789,108.35375213623047)" opacity="1" style="display: block;"><g opacity="1" transform="matrix(1,0,0,1,0,0)"><path stroke-linecap="round" stroke-linejoin="round" fill-opacity="0" class="primary" stroke="rgb(29,77,141)" stroke-opacity="1" stroke-width="2" d="M0 0"/></g></g><g transform="matrix(1.050337791442871,0,0,1.050337791442871,37.88492202758789,108.35375213623047)" opacity="1" style="display: block;"><g opacity="1" transform="matrix(1,0,0,1,0,0)"><path stroke-linecap="round" stroke-linejoin="round" fill-opacity="0" class="primary" stroke="rgb(29,77,141)" stroke-opacity="1" stroke-width="2" d=" M12.911999702453613,34.784000396728516 C15.279999732971191,39.50699996948242 21.716999053955078,52.09600067138672 28.39299964904785,62.99800109863281"/></g></g><g transform="matrix(1.050337791442871,0,0,1.050337791442871,37.88492202758789,108.35375213623047)" opacity="1" style="display: block;"><g opacity="1" transform="matrix(1,0,0,1,0,0)"><path stroke-linecap="round" stroke-linejoin="round" fill-opacity="0" class="primary" stroke="rgb(29,77,141)" stroke-opacity="1" stroke-width="2" d=" M12.133999824523926,-32.862998962402344 C6.089000225067139,-27.993000030517578 -11.581000328063965,-10.690999984741211 -12.133999824523926,-10.307000160217285 C-12.25,-10.22599983215332 0.9200000166893005,13.232999801635742 7.88100004196167,25.615999221801758"/></g></g><g transform="matrix(1.050337791442871,0,0,1.050337791442871,37.88492202758789,108.35375213623047)" opacity="1" style="display: block;"><g opacity="1" transform="matrix(1,0,0,1,0,0)"><path stroke-linecap="round" stroke-linejoin="round" fill-opacity="0" class="primary" stroke="rgb(29,77,141)" stroke-opacity="1" stroke-width="2" d=" M86.3550033569336,2.3359999656677246 C96.53199768066406,-19.95199966430664 108.4260025024414,-44.25400161743164 119.13400268554688,-64.8290023803711"/></g></g></g></g></svg>