<svg xmlns="http://www.w3.org/2000/svg" xmlns:xlink="http://www.w3.org/1999/xlink" viewBox="0 0 192 192" width="192" height="192" preserveAspectRatio="xMidYMid meet" style="width: 100%; height: 100%; transform: translate3d(0px, 0px, 0px); content-visibility: visible;"><defs><clipPath id="__lottie_element_11164"><rect width="192" height="192" x="0" y="0"/></clipPath><clipPath id="__lottie_element_11166"><path d="M0,0 L192,0 L192,192 L0,192z"/></clipPath><g id="__lottie_element_11180"><g clip-path="url(#__lottie_element_11181)" transform="matrix(1,0,0,1,0,0)" opacity="1" style="display: block;"><g mask="url(#__lottie_element_11207_2)" style="display: block;"><g transform="matrix(0.9999949336051941,0,0,0.9999949336051941,91.08052062988281,106.11066436767578)" opacity="1"><g opacity="1" transform="matrix(1,0,0,1,0,0)"><path fill="rgb(255,0,0)" fill-opacity="1" d=" M60.268001556396484,-54.53099822998047 C52.89400100708008,-46.8650016784668 34.24300003051758,-59.47100067138672 51.652000427246094,-67.05999755859375 C53.779998779296875,-67.98799896240234 57.99700164794922,-67.39299774169922 59.48899841308594,-66.19400024414062 C61.91400146484375,-64.24400329589844 63.018001556396484,-59.85200119018555 62.0989990234375,-57.474998474121094 C62.0989990234375,-57.474998474121094 62.0989990234375,-57.474998474121094 62.0989990234375,-57.474998474121094 C61.78300094604492,-56.65700149536133 61.391998291015625,-55.94499969482422 60.941001892089844,-55.332000732421875 M39.104000091552734,-74.4739990234375 C26.073999404907227,-71.2699966430664 13.631999969482422,-66.49500274658203 13.256999969482422,-66.15299987792969 C-5.9670000076293945,-48.60100173950195 -72.36799621582031,10.631999969482422 -72.8239974975586,13.104000091552734 C-72.83699798583984,13.175999641418457 -72.81800079345703,13.237000465393066 -72.63600158691406,13.48900032043457 C-68.76599884033203,18.868999481201172 -12.562000274658203,78.77999877929688 -11.293000221252441,77.44100189208984 C3.624000072479248,61.70199966430664 70.41600036621094,-24.82900047302246 71.37699890136719,-27.711000442504883 C71.99500274658203,-29.56599998474121 75.66400146484375,-69.5790023803711 68.23300170898438,-75.59700012207031 C68.23300170898438,-75.59700012207031 68.23300170898438,-75.59700012207031 68.23300170898438,-75.59700012207031 C65.20899963378906,-78.0459976196289 56.95399856567383,-77.78399658203125 49.073001861572266,-76.53099822998047 C48.659000396728516,-76.46499633789062 48.24300003051758,-76.39600372314453 47.82400131225586,-76.3239974975586"/><path stroke-linecap="butt" stroke-linejoin="miter" fill-opacity="0" stroke-miterlimit="4" stroke="rgb(255,0,0)" stroke-opacity="1" stroke-width="2" d=" M60.268001556396484,-54.53099822998047 C52.89400100708008,-46.8650016784668 34.24300003051758,-59.47100067138672 51.652000427246094,-67.05999755859375 C53.779998779296875,-67.98799896240234 57.99700164794922,-67.39299774169922 59.48899841308594,-66.19400024414062 C61.91400146484375,-64.24400329589844 63.018001556396484,-59.85200119018555 62.0989990234375,-57.474998474121094 C62.0989990234375,-57.474998474121094 62.0989990234375,-57.474998474121094 62.0989990234375,-57.474998474121094 C61.78300094604492,-56.65700149536133 61.391998291015625,-55.94499969482422 60.941001892089844,-55.332000732421875 M39.104000091552734,-74.4739990234375 C26.073999404907227,-71.2699966430664 13.631999969482422,-66.49500274658203 13.256999969482422,-66.15299987792969 C-5.9670000076293945,-48.60100173950195 -72.36799621582031,10.631999969482422 -72.8239974975586,13.104000091552734 C-72.83699798583984,13.175999641418457 -72.81800079345703,13.237000465393066 -72.63600158691406,13.48900032043457 C-68.76599884033203,18.868999481201172 -12.562000274658203,78.77999877929688 -11.293000221252441,77.44100189208984 C3.624000072479248,61.70199966430664 70.41600036621094,-24.82900047302246 71.37699890136719,-27.711000442504883 C71.99500274658203,-29.56599998474121 75.66400146484375,-69.5790023803711 68.23300170898438,-75.59700012207031 C68.23300170898438,-75.59700012207031 68.23300170898438,-75.59700012207031 68.23300170898438,-75.59700012207031 C65.20899963378906,-78.0459976196289 56.95399856567383,-77.78399658203125 49.073001861572266,-76.53099822998047 C48.659000396728516,-76.46499633789062 48.24300003051758,-76.39600372314453 47.82400131225586,-76.3239974975586"/></g></g></g></g></g><clipPath id="__lottie_element_11181"><path d="M0,0 L192,0 L192,192 L0,192z"/></clipPath><filter id="__lottie_element_11202" filterUnits="objectBoundingBox" x="0%" y="0%" width="100%" height="100%"><feComponentTransfer in="SourceGraphic"><feFuncA type="table" tableValues="1.0 0.0"/></feComponentTransfer></filter><mask id="__lottie_element_11180_2" mask-type="alpha" maskUnits="userSpaceOnUse"><g filter="url(#__lottie_element_11202)"><rect width="192" height="192" x="0" y="0" fill="#ffffff" opacity="0"/><use xmlns:ns1="http://www.w3.org/1999/xlink" ns1:href="#__lottie_element_11180"/></g></mask><g id="__lottie_element_11207"><g transform="matrix(0.8928506970405579,0,0,0.8928506970405579,81.64588928222656,103.55143737792969)" opacity="1" style="display: block;"><g opacity="1" transform="matrix(1,0,0,1,-13.25,-3)"><path fill="rgb(255,0,0)" fill-opacity="1" d=" M85.25,-96.5 C85.25,-96.5 85.25,96.5 85.25,96.5 C85.25,96.5 -85.25,96.5 -85.25,96.5 C-85.25,96.5 -85.25,-96.5 -85.25,-96.5 C-85.25,-96.5 85.25,-96.5 85.25,-96.5z"/></g></g></g><filter id="__lottie_element_11210" filterUnits="objectBoundingBox" x="0%" y="0%" width="100%" height="100%"><feComponentTransfer in="SourceGraphic"><feFuncA type="table" tableValues="1.0 0.0"/></feComponentTransfer></filter><mask id="__lottie_element_11207_2" mask-type="alpha" maskUnits="userSpaceOnUse"><g filter="url(#__lottie_element_11210)"><rect width="192" height="192" x="0" y="0" fill="#ffffff" opacity="0"/><use xmlns:ns2="http://www.w3.org/1999/xlink" ns2:href="#__lottie_element_11207"/></g></mask></defs><g clip-path="url(#__lottie_element_11164)"><g clip-path="url(#__lottie_element_11166)" transform="matrix(1,0,0,1,0,0)" opacity="1" style="display: block;"><g transform="matrix(0.9999949336051941,0,0,0.9999949336051941,91.08045196533203,106.11083221435547)" opacity="1" style="display: block;"><g opacity="1" transform="matrix(1,0,0,1,0,0)"><path stroke-linecap="round" stroke-linejoin="round" fill-opacity="0" class="primary" stroke="rgb(29,77,141)" stroke-opacity="1" stroke-width="3" d=" M50.98500061035156,-66.75800323486328 C51.20100021362305,-66.86000061035156 51.42300033569336,-66.95999908447266 51.652000427246094,-67.05999755859375 C53.779998779296875,-67.98799896240234 57.99700164794922,-67.39299774169922 59.48899841308594,-66.19400024414062 C61.91400146484375,-64.24400329589844 63.018001556396484,-59.85200119018555 62.0989990234375,-57.474998474121094 C62.0989990234375,-57.474998474121094 62.0989990234375,-57.474998474121094 62.0989990234375,-57.474998474121094 C57.96900177001953,-46.79600143432617 41.12099838256836,-54.220001220703125 45.02399826049805,-61.86399841308594"/></g></g><g transform="matrix(0.9999949336051941,0,0,0.9999949336051941,91.08052062988281,106.11066436767578)" opacity="1" style="display: block;"><g opacity="1" transform="matrix(1,0,0,1,0,0)"><path stroke-linecap="round" stroke-linejoin="round" fill-opacity="0" class="primary" stroke="rgb(29,77,141)" stroke-opacity="1" stroke-width="3" d=" M39.104000091552734,-74.4739990234375 C26.073999404907227,-71.2699966430664 13.631999969482422,-66.49500274658203 13.256999969482422,-66.15299987792969 C-5.9670000076293945,-48.60100173950195 -72.36799621582031,10.631999969482422 -72.8239974975586,13.104000091552734 C-72.83699798583984,13.175999641418457 -72.81800079345703,13.237000465393066 -72.63600158691406,13.48900032043457 C-68.76599884033203,18.868999481201172 -12.562000274658203,78.77999877929688 -11.293000221252441,77.44100189208984 C3.624000072479248,61.70199966430664 70.41600036621094,-24.82900047302246 71.37699890136719,-27.711000442504883 C71.99500274658203,-29.56599998474121 75.66400146484375,-69.5790023803711 68.23300170898438,-75.59700012207031 C68.23300170898438,-75.59700012207031 68.23300170898438,-75.59700012207031 68.23300170898438,-75.59700012207031 C65.47100067138672,-77.83399963378906 58.34700012207031,-77.80899810791016 51.12799835205078,-76.83399963378906"/></g></g><g mask="url(#__lottie_element_11180_2)" style="display: block;"><g transform="matrix(0.9999949336051941,0,0,0.9999949336051941,157.03082275390625,29.030454635620117)" opacity="1"><g opacity="1" transform="matrix(1,0,0,1,0,0)"><path class="secondary" fill="rgb(230,142,110)" fill-opacity="1" d=" M15.564000129699707,-0.18299999833106995 C15.538000106811523,-5.958000183105469 6.4039998054504395,-15.38700008392334 -1.5740000009536743,-14.47700023651123 C-12.800000190734863,-13.196000099182129 -16.673999786376953,-5.315000057220459 -16.249000549316406,0.4449999928474426 C-15.293000221252441,13.395000457763672 -7.01800012588501,14.185999870300293 -0.7210000157356262,13.579999923706055 C5.974999904632568,12.935999870300293 15.61299991607666,10.880000114440918 15.564000129699707,-0.18299999833106995z M22.395000457763672,-0.07599999755620956 C22.395000457763672,11.473999977111816 11.227999687194824,19.761999130249023 -1.0440000295639038,19.761999130249023 C-13.317000389099121,19.761999130249023 -22.395000457763672,12.385000228881836 -22.395000457763672,0.8339999914169312 C-22.395000457763672,-10.715999603271484 -13.059000015258789,-19.761999130249023 -0.7870000004768372,-19.761999130249023 C11.486000061035156,-19.761999130249023 22.395000457763672,-11.62600040435791 22.395000457763672,-0.07599999755620956z"/><path stroke-linecap="round" stroke-linejoin="round" fill-opacity="0" class="secondary" stroke="rgb(230,142,110)" stroke-opacity="1" stroke-width="0.996" d=" M15.564000129699707,-0.18299999833106995 C15.538000106811523,-5.958000183105469 6.4039998054504395,-15.38700008392334 -1.5740000009536743,-14.47700023651123 C-12.800000190734863,-13.196000099182129 -16.673999786376953,-5.315000057220459 -16.249000549316406,0.4449999928474426 C-15.293000221252441,13.395000457763672 -7.01800012588501,14.185999870300293 -0.7210000157356262,13.579999923706055 C5.974999904632568,12.935999870300293 15.61299991607666,10.880000114440918 15.564000129699707,-0.18299999833106995z M22.395000457763672,-0.07599999755620956 C22.395000457763672,11.473999977111816 11.227999687194824,19.761999130249023 -1.0440000295639038,19.761999130249023 C-13.317000389099121,19.761999130249023 -22.395000457763672,12.385000228881836 -22.395000457763672,0.8339999914169312 C-22.395000457763672,-10.715999603271484 -13.059000015258789,-19.761999130249023 -0.7870000004768372,-19.761999130249023 C11.486000061035156,-19.761999130249023 22.395000457763672,-11.62600040435791 22.395000457763672,-0.07599999755620956z"/></g></g></g><g transform="matrix(0.9999949336051941,0,0,0.9999949336051941,153.91075134277344,29.5550479888916)" opacity="1" style="display: block;"><g opacity="1" transform="matrix(1,0,0,1,0,0)"><path stroke-linecap="round" stroke-linejoin="round" fill-opacity="0" class="primary" stroke="rgb(29,77,141)" stroke-opacity="1" stroke-width="2.004" d=" M9.4399995803833,17.6560001373291 C16.927000045776367,14.489999771118164 22.395000457763672,8.005999565124512 22.395000457763672,-0.07599999755620956 C22.395000457763672,-0.07599999755620956 22.395000457763672,-0.07599999755620956 22.395000457763672,-0.07599999755620956 C22.395000457763672,-11.62600040435791 11.486000061035156,-19.761999130249023 -0.7870000004768372,-19.761999130249023 C-13.059000015258789,-19.761999130249023 -22.395000457763672,-10.715999603271484 -22.395000457763672,0.8339999914169312 C-22.395000457763672,11.99899959564209 -13.913000106811523,19.264999389648438 -2.263000011444092,19.73699951171875"/></g></g><g transform="matrix(0.9999949336051941,0,0,0.9999949336051941,153.91075134277344,29.5550479888916)" opacity="1" style="display: block;"><g opacity="1" transform="matrix(1,0,0,1,0,0)"><path stroke-linecap="round" stroke-linejoin="round" fill-opacity="0" class="primary" stroke="rgb(29,77,141)" stroke-opacity="1" stroke-width="2.004" d=" M9.130000114440918,11.069999694824219 C12.777999877929688,9.156000137329102 15.590999603271484,5.806000232696533 15.564000129699707,-0.18299999833106995 C15.564000129699707,-0.18299999833106995 15.564000129699707,-0.18299999833106995 15.564000129699707,-0.18299999833106995 C15.538000106811523,-5.958000183105469 6.4039998054504395,-15.38700008392334 -1.5740000009536743,-14.47700023651123 C-12.800000190734863,-13.196000099182129 -16.673999786376953,-5.315000057220459 -16.249000549316406,0.4449999928474426 C-15.397000312805176,11.984000205993652 -8.734999656677246,13.869000434875488 -2.8380000591278076,13.71399974822998"/></g></g><g transform="matrix(0.9999949336051941,0,0,0.9999949336051941,150.5096435546875,113.50965881347656)" opacity="1" style="display: none;"><g opacity="1" transform="matrix(1,0,0,1,0,0)"><path stroke-linecap="round" stroke-linejoin="round" fill-opacity="0" class="primary" stroke="rgb(29,77,141)" stroke-opacity="1" stroke-width="1" d=" M-19.615999221801758,25.09600067138672 C-19.07200050354004,24.351999282836914 4.554999828338623,-5.640999794006348 19.687999725341797,-24.84000015258789"/></g></g><g transform="matrix(0.9999949336051941,0,0,0.9999949336051941,52.75054931640625,168.89712524414062)" opacity="1" style="display: none;"><g opacity="1" transform="matrix(1,0,0,1,0,0)"><path stroke-linecap="round" stroke-linejoin="round" fill-opacity="0" class="primary" stroke="rgb(29,77,141)" stroke-opacity="1" stroke-width="1" d=" M4.291999816894531,4.4720001220703125 C0.6069999933242798,0.6060000061988831 -2.999000072479248,-3.200000047683716 -4.197000026702881,-4.590000152587891"/></g></g><g transform="matrix(0.9999949336051941,0,0,0.9999949336051941,28.75572967529297,142.94496154785156)" opacity="1" style="display: none;"><g opacity="1" transform="matrix(1,0,0,1,0,0)"><path stroke-linecap="round" stroke-linejoin="round" fill-opacity="0" class="primary" stroke="rgb(29,77,141)" stroke-opacity="1" stroke-width="1" d=" M14.939000129699707,15.940999984741211 C0.8080000281333923,0.8190000057220459 -14.769000053405762,-15.847999572753906 -15.079000473022461,-16.170000076293945"/></g></g><g transform="matrix(0.9999949336051941,0,0,0.9999949336051941,73.60830688476562,54.51154327392578)" opacity="1" style="display: none;"><g opacity="1" transform="matrix(1,0,0,1,0,0)"><path stroke-linecap="round" stroke-linejoin="round" fill-opacity="0" class="primary" stroke="rgb(29,77,141)" stroke-opacity="1" stroke-width="1" d=" M20.56800079345703,-19.052000045776367 C20.173999786376953,-18.701000213623047 -3.111999988555908,2.9230000972747803 -20.40399932861328,18.975000381469727"/></g></g><g transform="matrix(0.9999949336051941,0,0,0.9999949336051941,150.5096435546875,113.50965881347656)" opacity="1" style="display: block;"><g opacity="1" transform="matrix(1,0,0,1,0,0)"><path stroke-linecap="round" stroke-linejoin="round" fill-opacity="0" class="primary" stroke="rgb(29,77,141)" stroke-opacity="1" stroke-width="2" d=" M-19.615999221801758,25.09600067138672 C-19.07200050354004,24.351999282836914 4.554999828338623,-5.640999794006348 19.687999725341797,-24.84000015258789"/></g></g><g transform="matrix(0.9999949336051941,0,0,0.9999949336051941,52.7506103515625,168.89683532714844)" opacity="1" style="display: block;"><g opacity="1" transform="matrix(1,0,0,1,0,0)"><path stroke-linecap="round" stroke-linejoin="round" fill-opacity="0" class="primary" stroke="rgb(29,77,141)" stroke-opacity="1" stroke-width="2" d=" M4.291999816894531,4.4720001220703125 C0.6069999933242798,0.6060000061988831 -2.999000072479248,-3.200000047683716 -4.197000026702881,-4.590000152587891"/></g></g><g transform="matrix(0.9999949336051941,0,0,0.9999949336051941,28.75572967529297,142.94496154785156)" opacity="1" style="display: block;"><g opacity="1" transform="matrix(1,0,0,1,0,0)"><path stroke-linecap="round" stroke-linejoin="round" fill-opacity="0" class="primary" stroke="rgb(29,77,141)" stroke-opacity="1" stroke-width="2" d=" M14.939000129699707,15.940999984741211 C0.8080000281333923,0.8190000057220459 -14.769000053405762,-15.847999572753906 -15.079000473022461,-16.170000076293945"/></g></g><g transform="matrix(0.9999949336051941,0,0,0.9999949336051941,73.60830688476562,54.51154327392578)" opacity="1" style="display: block;"><g opacity="1" transform="matrix(1,0,0,1,0,0)"><path stroke-linecap="round" stroke-linejoin="round" fill-opacity="0" class="primary" stroke="rgb(29,77,141)" stroke-opacity="1" stroke-width="2" d=" M20.56800079345703,-19.052000045776367 C20.173999786376953,-18.701000213623047 -3.111999988555908,2.9230000972747803 -20.40399932861328,18.975000381469727"/></g></g></g></g></svg>