<svg xmlns="http://www.w3.org/2000/svg" xmlns:xlink="http://www.w3.org/1999/xlink" viewBox="0 0 192 192" width="192" height="192" preserveAspectRatio="xMidYMid meet" style="width: 100%; height: 100%; transform: translate3d(0px, 0px, 0px); content-visibility: visible;"><defs><clipPath id="__lottie_element_10453"><rect width="192" height="192" x="0" y="0"/></clipPath><clipPath id="__lottie_element_10455"><path d="M0,0 L192,0 L192,192 L0,192z"/></clipPath><clipPath id="__lottie_element_10472"><path d="M0,0 L148,0 L148,126 L0,126z"/></clipPath><clipPath id="__lottie_element_10551"><path d="M0,0 L148,0 L148,126 L0,126z"/></clipPath></defs><g clip-path="url(#__lottie_element_10453)"><g clip-path="url(#__lottie_element_10455)" transform="matrix(1,0,0,1,0,0)" opacity="1" style="display: block;"><g transform="matrix(1,0.0000062711933423997834,-0.0000062711933423997834,1,0.0010687857866287231,-0.00031341807334683836)" opacity="1" style="display: block;"><g opacity="1" transform="matrix(1,0,0,1,36.61800003051758,65.56500244140625)"><g opacity="1" transform="matrix(1,0,0,1,0,0)"><path stroke-linecap="round" stroke-linejoin="round" fill-opacity="0" class="primary" stroke="rgb(29,77,141)" stroke-opacity="1" stroke-width="1" d=" M-0.04600000008940697,-15.251999855041504 C-0.04600000008940697,-7.389999866485596 0.04600000008940697,7.3470001220703125 0.04600000008940697,15.251999855041504"/></g></g><g opacity="1" transform="matrix(1,0,0,1,36.87300109863281,124.94200134277344)"><g opacity="1" transform="matrix(1,0,0,1,0,0)"><path stroke-linecap="round" stroke-linejoin="round" fill-opacity="0" class="primary" stroke="rgb(29,77,141)" stroke-opacity="1" stroke-width="1.002" d=" M0.26100000739097595,35.62300109863281 C-0.33500000834465027,17.860000610351562 -0.3529999852180481,-3.9519999027252197 -0.1289999932050705,-35.62300109863281"/></g></g></g><g transform="matrix(1,0.0000062711933423997834,-0.0000062711933423997834,1,55.89747619628906,94.2840347290039)" opacity="1" style="display: block;"><g opacity="1" transform="matrix(1,0,0,1,0,0)"><path class="secondary" fill="rgb(230,142,110)" fill-opacity="1" d=" M-4.750999927520752,73.74500274658203 C-4.813000202178955,73.02899932861328 -5.214000225067139,-66.38899993896484 -5.079999923706055,-71.54100036621094 C-5.081999778747559,-71.9219970703125 -4.019999980926514,-75.37200164794922 -0.34700000286102295,-75.5989990234375 C4.090000152587891,-75.87200164794922 4.889999866485596,-72.01599884033203 4.890999794006348,-71.37899780273438 C4.936999797821045,-48.60100173950195 5.241000175476074,70.89399719238281 5.039000034332275,73.71299743652344 C4.854000091552734,76.28500366210938 -4.539999961853027,76.1989974975586 -4.750999927520752,73.74500274658203z"/><path stroke-linecap="round" stroke-linejoin="round" fill-opacity="0" class="secondary" stroke="rgb(230,142,110)" stroke-opacity="1" stroke-width="0.5" d=" M-4.750999927520752,73.74500274658203 C-4.813000202178955,73.02899932861328 -5.214000225067139,-66.38899993896484 -5.079999923706055,-71.54100036621094 C-5.081999778747559,-71.9219970703125 -4.019999980926514,-75.37200164794922 -0.34700000286102295,-75.5989990234375 C4.090000152587891,-75.87200164794922 4.889999866485596,-72.01599884033203 4.890999794006348,-71.37899780273438 C4.936999797821045,-48.60100173950195 5.241000175476074,70.89399719238281 5.039000034332275,73.71299743652344 C4.854000091552734,76.28500366210938 -4.539999961853027,76.1989974975586 -4.750999927520752,73.74500274658203z"/></g></g><g transform="matrix(1,0.0000062711933423997834,-0.0000062711933423997834,1,51.19447326660156,95.00000762939453)" opacity="1" style="display: block;"><g opacity="1" transform="matrix(1,0,0,1,0,0)"><path stroke-linecap="round" stroke-linejoin="round" fill-opacity="0" class="primary" stroke="rgb(29,77,141)" stroke-opacity="1" stroke-width="1.5" d=" M-4.750999927520752,73.74500274658203 C-4.813000202178955,73.02899932861328 -5.214000225067139,-66.38899993896484 -5.079999923706055,-71.54100036621094 C-5.081999778747559,-71.9219970703125 -4.019999980926514,-75.37200164794922 -0.34700000286102295,-75.5989990234375 C4.090000152587891,-75.87200164794922 4.889999866485596,-72.01599884033203 4.890999794006348,-71.37899780273438 C4.936999797821045,-48.60100173950195 5.241000175476074,70.89399719238281 5.039000034332275,73.71299743652344 C4.854000091552734,76.28500366210938 -4.539999961853027,76.1989974975586 -4.750999927520752,73.74500274658203z"/></g></g><g transform="matrix(1,0,0,1,51.20500183105469,172.32400512695312)" opacity="1" style="display: block;"><g opacity="1" transform="matrix(1,0,0,1,0,0)"><path stroke-linecap="round" stroke-linejoin="round" fill-opacity="0" class="primary" stroke="rgb(29,77,141)" stroke-opacity="1" stroke-width="1.498" d=" M23.718000411987305,1.7050000429153442 C14.576000213623047,-1.1690000295639038 9.062000274658203,-1.7319999933242798 -1.034999966621399,-1.878000020980835 C-8.854999542236328,-1.9910000562667847 -14.932000160217285,-0.5830000042915344 -23.718000411987305,1.8839999437332153"/></g></g><g clip-path="url(#__lottie_element_10472)" transform="matrix(1,0.00009514093108009547,-0.00009514093108009547,1,37.51604080200195,1.9987047910690308)" opacity="1" style="display: none;"><g transform="matrix(-1,0,0,1,73.3010025024414,76.93900299072266)" opacity="1" style="display: block;"><g opacity="1" transform="matrix(1,0,0,1,0,0)"><path stroke-linecap="round" stroke-linejoin="round" fill-opacity="0" class="primary" stroke="rgb(29,77,141)" stroke-opacity="1" stroke-width="1.5" d=" M0.32600000500679016,31.84600067138672 C-6.947999954223633,29.177000045776367 -14.413999557495117,26.99799919128418 -22.80900001525879,27.423999786376953 C-34.909000396728516,28.04199981689453 -43.361000061035156,31.16699981689453 -48.15599822998047,33.42300033569336"/></g></g><g transform="matrix(-1,0,0,1,73.3010025024414,66.93900299072266)" opacity="1" style="display: block;"><g opacity="1" transform="matrix(1,0,0,1,0,0)"><path stroke-linecap="round" stroke-linejoin="round" fill-opacity="0" class="primary" stroke="rgb(29,77,141)" stroke-opacity="1" stroke-width="1.5" d=" M-16.759000778198242,-40.263999938964844 C-1.8990000486373901,-38.4900016784668 12.503000259399414,-28.41200065612793 26.683000564575195,-27.660999298095703 C32.297000885009766,-27.3799991607666 40.29800033569336,-29.28700065612793 46.22700119018555,-30.98200035095215"/></g></g><g transform="matrix(-1,0,0,1,73.3010025024414,66.93900299072266)" opacity="1" style="display: block;"><g opacity="1" transform="matrix(1,0,0,1,0,0)"><path stroke-linecap="round" stroke-linejoin="round" fill-opacity="0" class="primary" stroke="rgb(29,77,141)" stroke-opacity="1" stroke-width="1.5" d=" M44.85499954223633,37.80699920654297 C41.32699966430664,39.13399887084961 36.68600082397461,40.19599914550781 30.740999221801758,40.138999938964844 C11.609274864196777,39.894161224365234 -3.0174007415771484,26.419944763183594 -22.808908462524414,27.423585891723633 C-26.790000915527344,27.62700080871582 -30.375999450683594,28.101999282836914 -33.56700134277344,28.72800064086914"/></g></g><g transform="matrix(-1,0,0,1,72.3010025024414,56.43899917602539)" opacity="1" style="display: none;"><g opacity="1" transform="matrix(1,0,0,1,0,0)"><path stroke-linecap="round" stroke-linejoin="round" fill-opacity="0" class="primary" stroke="rgb(29,77,141)" stroke-opacity="1" stroke-width="1.5" d=" M54.19499969482422,-33.42399978637695 C54.25899887084961,-33.41999816894531 54.06399917602539,31.416000366210938 54.077999114990234,32.90800094604492 C53.23654556274414,32.66057205200195 48.85928726196289,37.43769454956055 38.719879150390625,37.28175735473633 C24.340700149536133,36.48752212524414 11.750067710876465,27.318218231201172 -5.037960052490234,28.261737823486328 C-24.0190372467041,29.379467010498047 -34.20925521850586,35.65657424926758 -43.36166763305664,37.62922286987305 C-48.750701904296875,38.79185104370117 -54.15094757080078,41.351463317871094 -53.9852180480957,41.007110595703125 C-53.819488525390625,40.66276168823242 -53.788291931152344,41.369293212890625 -53.83989334106445,41.10136032104492 C-53.87363052368164,40.927711486816406 -46.47197723388672,14.94227409362793 -24.898000717163086,-0.3084840178489685 C-36.94900131225586,-12.780916213989258 -54.14262390136719,-27.786104202270508 -54.2105598449707,-27.776872634887695 C-54.20296096801758,-27.895858764648438 -53.779052734375,-27.87531280517578 -53.779052734375,-27.87531280517578 C-53.779052734375,-27.87531280517578 -50.473602294921875,-28.52188491821289 -45.44272994995117,-29.42228126525879 C-41.85434341430664,-30.07677459716797 -27.31553077697754,-39.63227081298828 -4.582300662994385,-40.51213836669922 C9.479116439819336,-40.93411636352539 24.97203826904297,-30.954660415649414 36.44939041137695,-29.900606155395508 C42.87234115600586,-29.522594451904297 53.8984489440918,-33.445045471191406 54.19499969482422,-33.42399978637695z"/></g></g><g transform="matrix(-1,0,0,1,72.3010025024414,56.43899917602539)" opacity="1" style="display: block;"><g opacity="1" transform="matrix(1,0,0,1,0,0)"><path stroke-linecap="round" stroke-linejoin="round" fill-opacity="0" class="primary" stroke="rgb(29,77,141)" stroke-opacity="1" stroke-width="1.5" d=" M54.201927185058594,-33.426055908203125 C54.25899887084961,-33.422489166259766 54.065513610839844,31.618791580200195 54.077999114990234,32.95290756225586 C53.867889404296875,33.09324264526367 53.658668518066406,33.23112106323242 53.45034408569336,33.36699676513672 C51.30610275268555,34.76007843017578 49.241451263427734,35.896568298339844 47.23854446411133,36.8058967590332 C42.789222717285156,38.82585144042969 37.90313720703125,40.108253479003906 33.40213394165039,40.255252838134766 C18.896135330200195,40.73025131225586 6.186168193817139,32.244930267333984 -12.66964340209961,28.132579803466797 C-32.40814208984375,23.787260055541992 -53.682945251464844,36.863014221191406 -53.81294631958008,36.18901443481445 C-53.897945404052734,35.75201416015625 -50.408931732177734,8.14965534210205 -24.853107452392578,-3.3972525596618652 C-36.929466247558594,-22.032224655151367 -54.183353424072266,-30.23463249206543 -54.12683868408203,-30.27241325378418 C-48.703670501708984,-33.7225341796875 -34.343624114990234,-44.455162048339844 -12.330415725708008,-39.137142181396484 C2.6267354488372803,-35.53117752075195 15.236725807189941,-27.56072998046875 27.795509338378906,-27.499202728271484 C37.72869873046875,-27.443147659301758 45.35399627685547,-31.20072364807129 50.14097213745117,-32.720542907714844 C51.524349212646484,-33.1594123840332 52.74531555175781,-33.44300079345703 53.815673828125,-33.44032287597656 C53.9467658996582,-33.44032287597656 54.07529067993164,-33.434974670410156 54.201927185058594,-33.426055908203125z"/></g></g></g><g clip-path="url(#__lottie_element_10551)" transform="matrix(1,0.0000062711933423997834,-0.0000062711933423997834,1,37.50105667114258,1.9999217987060547)" opacity="1" style="display: block;"><g transform="matrix(-1,0,0,1,73.3010025024414,76.93900299072266)" opacity="1" style="display: block;"><g opacity="1" transform="matrix(1,0,0,1,0,0)"><path stroke-linecap="round" stroke-linejoin="round" fill-opacity="0" class="primary" stroke="rgb(29,77,141)" stroke-opacity="1" stroke-width="1.5" d=" M0.0949999988079071,32.50600051879883 C-7.808000087738037,29.483999252319336 -15.854000091552734,26.863000869750977 -24.983999252319336,27.320999145507812 C-35.8120002746582,27.86400032043457 -43.707000732421875,30.474000930786133 -48.49300003051758,32.61800003051758"/></g></g><g transform="matrix(-1,0,0,1,73.3010025024414,66.93900299072266)" opacity="1" style="display: block;"><g opacity="1" transform="matrix(1,0,0,1,0,0)"><path stroke-linecap="round" stroke-linejoin="round" fill-opacity="0" class="primary" stroke="rgb(29,77,141)" stroke-opacity="1" stroke-width="1.5" d=" M-16.851999282836914,-39.97800064086914 C-2.434999942779541,-37.56700134277344 11.456000328063965,-28.082000732421875 25.48699951171875,-27.386999130249023 C31.44700050354004,-27.091999053955078 39.994998931884766,-29.16699981689453 46.2130012512207,-30.964000701904297"/></g></g><g transform="matrix(-1,0,0,1,73.3010025024414,66.93900299072266)" opacity="1" style="display: block;"><g opacity="1" transform="matrix(1,0,0,1,0,0)"><path stroke-linecap="round" stroke-linejoin="round" fill-opacity="0" class="primary" stroke="rgb(29,77,141)" stroke-opacity="1" stroke-width="1.5" d=" M44.73899841308594,37.94499969482422 C41.03200149536133,39.380001068115234 36.111000061035156,40.54600143432617 29.763999938964844,40.48899841308594 C10.050999641418457,40.31100082397461 -4.824999809265137,26.309999465942383 -24.983999252319336,27.320999145507812 C-28.165000915527344,27.479999542236328 -31.093000411987305,27.81800079345703 -33.763999938964844,28.270999908447266"/></g></g><g transform="matrix(-1,0,0,1,72.3010025024414,56.43899917602539)" opacity="1" style="display: none;"><g opacity="1" transform="matrix(1,0,0,1,0,0)"><path stroke-linecap="round" stroke-linejoin="round" fill-opacity="0" class="primary" stroke="rgb(29,77,141)" stroke-opacity="1" stroke-width="1.5" d=" M54.19499969482422,-33.42399978637695 C54.25899887084961,-33.41999816894531 54.06399917602539,31.416000366210938 54.077999114990234,32.90800094604492 C53.23173141479492,32.65915298461914 48.790809631347656,37.519344329833984 38.4913444519043,37.363609313964844 C23.976015090942383,36.58512496948242 11.3270845413208,27.29248809814453 -5.546998500823975,28.237730026245117 C-24.52832794189453,29.351255416870117 -34.715965270996094,35.64193344116211 -43.63168716430664,37.577049255371094 C-48.92164993286133,38.728538513183594 -54.144161224365234,41.20751190185547 -53.982635498046875,40.871925354003906 C-53.821109771728516,40.536338806152344 -53.78925323486328,41.224788665771484 -53.83953857421875,40.96369171142578 C-53.87241744995117,40.794498443603516 -46.54795455932617,14.549732208251953 -24.898000717163086,-0.42249852418899536 C-36.94900131225586,-13.084819793701172 -54.12484359741211,-27.84926414489746 -54.19258117675781,-27.839275360107422 C-54.18629455566406,-27.958209991455078 -53.762691497802734,-27.942476272583008 -53.762691497802734,-27.942476272583008 C-53.762691497802734,-27.942476272583008 -50.55494689941406,-28.587629318237305 -45.66336441040039,-29.502561569213867 C-42.053855895996094,-30.228118896484375 -27.800003051757812,-39.64969253540039 -5.066013813018799,-40.51259231567383 C9.06621265411377,-40.927886962890625 24.572101593017578,-30.884103775024414 36.169647216796875,-29.83648109436035 C42.691619873046875,-29.455127716064453 53.89662551879883,-33.44519805908203 54.19499969482422,-33.42399978637695z"/></g></g><g transform="matrix(-1,0,0,1,72.3010025024414,56.43899917602539)" opacity="1" style="display: block;"><g opacity="1" transform="matrix(1,0,0,1,0,0)"><path stroke-linecap="round" stroke-linejoin="round" fill-opacity="0" class="primary" stroke="rgb(29,77,141)" stroke-opacity="1" stroke-width="1.5" d=" M54.19499969482422,-33.42399978637695 C54.25899887084961,-33.41999816894531 54.06399917602539,31.416000366210938 54.077999114990234,32.90800094604492 C53.84299850463867,33.064998626708984 53.60900115966797,33.21900177001953 53.375999450683594,33.37099838256836 C50.97800064086914,34.92900085449219 48.66899871826172,36.20000076293945 46.42900085449219,37.21699905395508 C41.452999114990234,39.47600173950195 36.82099914550781,40.48699951171875 32.31999969482422,40.63399887084961 C17.81399917602539,41.10900115966797 4.682000160217285,32.619998931884766 -14.116999626159668,28.091999053955078 C-34.01100158691406,23.298999786376953 -53.709999084472656,36.3489990234375 -53.84000015258789,35.67499923706055 C-53.92499923706055,35.237998962402344 -50.95000076293945,7.310999870300293 -24.798999786376953,-3.7760000228881836 C-37.20000076293945,-23.43899917602539 -54.26300048828125,-30.527999877929688 -54.20800018310547,-30.56999969482422 C-49.23500061035156,-34.39400100708008 -36.060001373291016,-44.457000732421875 -14.399999618530273,-39.130001068115234 C0.0689999982714653,-35.57099914550781 13.96500015258789,-27.309999465942383 26.52400016784668,-27.20800018310547 C36.73400115966797,-27.125 44.275001525878906,-30.929000854492188 49.641998291015625,-32.632999420166016 C51.19300079345703,-33.125 52.5620002746582,-33.44300079345703 53.762001037597656,-33.439998626708984 C53.909000396728516,-33.439998626708984 54.053001403808594,-33.433998107910156 54.19499969482422,-33.42399978637695z"/></g></g></g></g></g></svg>