<?xml version="1.0" encoding="UTF-8"?>
<svg xmlns="http://www.w3.org/2000/svg" xmlns:xlink="http://www.w3.org/1999/xlink" width="3000" height="3000" viewBox="0 0 3000 3000">

<path fill="none" stroke-width="375.001" stroke-linecap="butt" stroke-linejoin="miter" stroke="rgb(0%, 50.193787%, 0%)" stroke-opacity="1" stroke-miterlimit="4" d="M 15662.5 24401.015625 C 15781.992188 23846.289062 15889.101562 23288.90625 15983.90625 22729.492188 C 16193.59375 21490.390625 16342.617188 20232.890625 16266.289062 18978.515625 C 16183.59375 17620.117188 15838.984375 16293.398438 15600.195312 14953.515625 C 15252.304688 13001.015625 15128.789062 11013.789062 15120.703125 9030.585938 C 15113.007812 7144.0625 15209.21875 5257.109375 15408.789062 3381.132812 " transform="matrix(0.1, 0, 0, -0.1, 0, 3000)"/>
<path fill-rule="evenodd" fill="rgb(0%, 50.193787%, 0%)" fill-opacity="1" d="M 1585.46875 565.5 C 1585.621094 614.179688 1463.050781 654 1311.699219 654.460938 C 1160.359375 654.910156 1037.550781 615.808594 1037.398438 567.128906 C 1037.25 518.449219 1159.828125 478.621094 1311.171875 478.171875 C 1462.519531 477.71875 1585.328125 516.808594 1585.46875 565.5 Z M 1585.46875 565.5 "/>
<path fill-rule="evenodd" fill="rgb(0%, 50.193787%, 0%)" fill-opacity="1" d="M 2100.761719 559.441406 C 2100.910156 608.121094 1978.339844 647.941406 1826.988281 648.398438 C 1675.640625 648.851562 1552.839844 609.75 1552.691406 561.070312 C 1552.539062 512.390625 1675.121094 472.558594 1826.460938 472.109375 C 1977.808594 471.660156 2100.621094 510.75 2100.761719 559.441406 Z M 2100.761719 559.441406 "/>
<path fill-rule="evenodd" fill="rgb(78.514099%, 44.309998%, 21.556091%)" fill-opacity="1" d="M 1581.078125 1767.851562 C 1566.921875 1767.46875 1555.128906 1781.621094 1554.648438 1799.570312 L 1531.03125 2683.167969 C 1530.550781 2701.117188 1541.570312 2715.871094 1555.730469 2716.25 C 1565.949219 2716.523438 1574.910156 2709.214844 1579.300781 2698.390625 C 1610.101562 2710.417969 1642.050781 2717.007812 1674.308594 2717.988281 C 1770.46875 2720.558594 1864.019531 2673.214844 1934.390625 2586.371094 C 2004.75 2499.527344 2046.160156 2380.296875 2049.519531 2254.910156 C 2052.871094 2129.523438 2017.878906 2008.25 1952.261719 1917.769531 C 1886.628906 1827.289062 1795.738281 1775.019531 1699.578125 1772.449219 C 1667.320312 1771.710938 1635.058594 1776.578125 1603.660156 1786.941406 C 1599.859375 1775.898438 1591.300781 1768.121094 1581.078125 1767.851562 Z M 1581.078125 1767.851562 "/>
<path fill-rule="evenodd" fill="rgb(78.514099%, 44.309998%, 21.556091%)" fill-opacity="1" d="M 1429.460938 1773.308594 C 1443.53125 1771.679688 1456.519531 1784.738281 1458.570312 1802.578125 L 1559.660156 2680.695312 C 1561.710938 2698.53125 1552.03125 2714.195312 1537.960938 2715.816406 C 1527.800781 2716.984375 1518.230469 2710.492188 1512.910156 2700.097656 C 1483.289062 2714.777344 1452.039062 2724.148438 1419.988281 2727.957031 C 1324.429688 2738.957031 1227.078125 2700.007812 1149.359375 2619.675781 C 1071.640625 2539.34375 1019.929688 2424.210938 1005.578125 2299.601562 C 991.234375 2174.992188 1015.441406 2051.117188 1072.871094 1955.230469 C 1130.308594 1859.339844 1216.25 1799.28125 1311.820312 1788.28125 C 1343.890625 1784.710938 1376.449219 1786.738281 1408.640625 1794.308594 C 1411.460938 1782.96875 1419.300781 1774.46875 1429.460938 1773.308594 Z M 1429.460938 1773.308594 "/>
</svg>
