<?xml version="1.0" encoding="utf-8"?>
<!-- Generator: Adobe Illustrator 19.0.0, SVG Export Plug-In . SVG Version: 6.00 Build 0)  -->
<svg xmlns="http://www.w3.org/2000/svg" xmlns:xlink="http://www.w3.org/1999/xlink" version="1.1" id="Layer_8" x="0px" y="0px" viewBox="0 0 1400 980" style="enable-background:new 0 0 1400 980;" xml:space="preserve">
<style type="text/css">
	.st0{fill:#DDCEBD;}
	.st1{fill:#624536;}
	.st2{fill:#482918;}
	.st3{opacity:8.000000e-02;fill:#FFFFFF;}
	.st4{opacity:0.48;fill:#FFFFFF;}
	.st5{fill:#614735;}
	.st6{opacity:0.8;fill:#482918;}
	.st7{fill:#D49247;}
	.st8{opacity:0.48;}
	.st9{fill:#FFFFFF;}
	.st10{fill:#E3B887;}
	.st11{fill:#806657;}
	.st12{fill:#F6E6C0;}
</style>
<g>
	
	<g>
		<g>
			<path class="st1" d="M1142.5,875.4c-30.5,2.5-58.8-20.4-70.9-48.4c-12.1-28.1-11-60.1-6.3-90.3c10.1-64.9,35.9-127.4,74.6-180.4     c55.2,56.8,88.3,134.8,88.3,214c0,27.8-4.2,56.7-20,79.6C1192.4,872.8,1142.5,875.4,1142.5,875.4z"/>
			<path class="st2" d="M1137.9,879.2c-14.5,0-28.9-5.2-41.8-15.1c-12-9.1-21.9-21.8-27.9-35.8c-13.8-31.9-10.4-67.9-6.6-92.3     c10.2-65.5,36.2-128.5,75.3-182l2.5-3.5l3,3.1c56.8,58.5,89.3,137.4,89.3,216.5c0,34.8-6.8,61.5-20.6,81.7     c-16.4,23.9-65.6,26.9-68.4,27.1C1141.1,879.2,1139.5,879.2,1137.9,879.2z M1140.2,561.9c-37,51.9-61.6,112.4-71.4,175.4     c-5.8,37.3-3.9,65.3,6.1,88.3c11.8,27.3,37.8,46.4,63.1,46.4c1.4,0,2.8-0.1,4.2-0.2l0.1,0c0.5,0,48.3-2.8,62.8-23.9     c13-18.9,19.3-44.3,19.4-77.6C1224.5,694.4,1193.9,618.7,1140.2,561.9z"/>
		</g>
		<path class="st3" d="M1143,843.5c-24.4,2-47-16.3-56.7-38.8c-9.7-22.4-8.8-48-5.1-72.2c8.1-51.9,28.7-101.9,59.7-144.4    c44.2,45.5,70.6,107.8,70.6,171.2c0,22.2-3.4,45.4-16,63.7C1182.9,841.5,1143,843.5,1143,843.5z"/>
		<path class="st3" d="M1141.6,806.1c-19.5,1.6-37.6-13-45.4-31c-7.8-18-7.1-38.4-4-57.8c6.5-41.6,23-81.5,47.7-115.5    c35.3,36.4,56.5,86.2,56.5,137c0,17.8-2.7,36.3-12.8,51C1173.5,804.4,1141.6,806.1,1141.6,806.1z"/>
		<path class="st4" d="M1124.7,784.1c-0.2-4.8-2.6-9.6-4.3-14.1c-1.7-4.7-2.9-9.6-4-14.5c-2.3-9.9-3.4-19.8-3.4-29.9    c0.1-22.5,6.6-44.1,10.5-66.1c0.2-1.2-1.4-1.6-1.8-0.5c-8.5,21.7-14.5,44.7-16.8,67.9c-1,10.5-1,21.2,0.7,31.6    c0.8,5.4,2.4,10.6,4.3,15.7c1.8,4.9,4.3,10.3,8.6,13.4C1121.1,789.4,1124.9,787,1124.7,784.1L1124.7,784.1z"/>
	</g>
	<g>
		<g>
			
				<ellipse transform="matrix(0.9516 -0.3073 0.3073 0.9516 -69.0547 91.339)" class="st5" cx="255.5" cy="265" rx="163.6" ry="115.7"/>
			<path class="st2" d="M223.3,390.3c-30.3,0-58.2-6.7-80.7-19.2c-23.3-13.1-39.5-31.9-46.8-54.5c-9.9-30.8-2.4-65,21.1-96.4     c23.2-31,59.4-55.6,101.8-69.3c23-7.4,46.2-11.2,69.1-11.2c30.3,0,58.2,6.7,80.7,19.2c23.3,13.1,39.5,31.9,46.8,54.5     c9.9,30.8,2.4,65-21.1,96.4c-23.2,31-59.4,55.6-101.8,69.3C269.4,386.5,246.2,390.3,223.3,390.3z M287.8,148.2     c-22,0-44.4,3.6-66.5,10.8c-40.8,13.2-75.4,36.7-97.6,66.3c-21.8,29.2-28.9,60.7-19.8,88.7c13.3,41.2,60.2,67.8,119.4,67.8     c22,0,44.4-3.6,66.5-10.8c40.8-13.2,75.4-36.7,97.6-66.3c21.8-29.2,28.9-60.7,19.8-88.7C393.9,174.8,347,148.2,287.8,148.2z"/>
		</g>
		
			<ellipse transform="matrix(0.9516 -0.3073 0.3073 0.9516 -69.0547 91.339)" class="st3" cx="255.5" cy="265" rx="130.9" ry="92.5"/>
		
			<ellipse transform="matrix(0.9516 -0.3073 0.3073 0.9516 -65.0331 95.1877)" class="st3" cx="269.8" cy="254.1" rx="104.7" ry="74"/>
		<path class="st6" d="M113.2,310.7c0,0,1.2-0.1,3.4-0.4c2.2-0.2,5.5-0.6,9.6-1c2.1-0.2,4.4-0.4,6.8-0.7c2.5-0.4,5.2-0.7,8-1    c2.9-0.4,5.9-0.8,9.1-1.2c3.2-0.5,6.6-1,10.1-1.5c1.8-0.3,3.5-0.5,5.4-0.8c1.8-0.3,3.7-0.5,5.6-0.9c3.8-0.7,7.6-1.4,11.6-2.1    c2-0.4,4-0.7,6.1-1.1c2-0.4,4.1-0.9,6.2-1.3c4.2-0.9,8.4-1.7,12.7-2.7c4.3-1,8.7-2.1,13.1-3.1c2.2-0.5,4.4-1,6.6-1.7    c2.2-0.6,4.4-1.2,6.7-1.8c9-2.3,18-5.1,27-7.7c8.9-3,17.9-5.8,26.6-9c2.2-0.8,4.4-1.6,6.5-2.3c2.2-0.7,4.3-1.6,6.4-2.4    c4.2-1.7,8.4-3.3,12.5-4.9c4.1-1.6,8.1-3.4,12-5c2-0.8,3.9-1.6,5.8-2.4c1.9-0.8,3.8-1.7,5.6-2.5c3.7-1.7,7.3-3.3,10.7-4.9    c1.8-0.7,3.4-1.6,5.1-2.4c1.7-0.8,3.3-1.6,4.9-2.4c3.2-1.6,6.2-3,9.1-4.5c2.9-1.5,5.6-2.9,8.2-4.2c2.6-1.3,5-2.6,7.2-3.7    c2.2-1.1,4.2-2.3,6-3.3c3.6-2,6.5-3.5,8.5-4.6c2-1,3-1.6,3-1.6s-1,0.7-2.8,2c-1.8,1.3-4.4,3.2-7.9,5.6c-1.7,1.2-3.6,2.6-5.7,4    c-2.1,1.4-4.4,2.8-6.8,4.4c-2.4,1.6-5,3.2-7.8,5c-2.8,1.7-5.8,3.4-8.8,5.2c-1.5,0.9-3.1,1.8-4.7,2.7c-1.6,0.9-3.2,1.9-4.9,2.8    c-3.4,1.8-6.9,3.6-10.6,5.5c-1.8,0.9-3.6,1.9-5.5,2.9c-1.9,0.9-3.8,1.8-5.8,2.8c-1.9,0.9-3.9,1.9-5.9,2.8c-2,0.9-4,1.9-6,2.8    c-8.2,3.5-16.7,7.3-25.5,10.5c-8.7,3.5-17.9,6.3-26.9,9.4c-9.2,2.6-18.3,5.5-27.5,7.6c-9.1,2.4-18.2,4.1-27,5.9    c-2.2,0.4-4.4,0.8-6.6,1.1c-2.2,0.4-4.3,0.7-6.4,1c-2.1,0.3-4.2,0.7-6.3,1c-2.1,0.3-4.1,0.5-6.2,0.8c-4.1,0.5-8,1-11.8,1.5    c-1.9,0.2-3.8,0.3-5.7,0.5c-1.9,0.1-3.7,0.3-5.5,0.4c-3.6,0.3-7,0.6-10.2,0.8c-3.3,0.1-6.4,0.2-9.3,0.3c-2.9,0.1-5.6,0.2-8.1,0.3    c-2.5,0-4.8,0-6.9,0c-4.2,0-7.4-0.1-9.6-0.2C114.4,310.8,113.2,310.7,113.2,310.7z"/>
		<path class="st4" d="M292.3,190.4c0,0,0.3-0.1,0.9-0.3c0.6-0.2,1.4-0.6,2.5-0.9c1.1-0.3,2.4-0.7,4-1c0.8-0.2,1.6-0.3,2.5-0.4    c0.9-0.1,1.8-0.2,2.8-0.3c1.9-0.1,4.1-0.2,6.3,0c2.2,0.1,4.6,0.5,7,0.9c1.2,0.3,2.4,0.5,3.6,0.9c1.2,0.3,2.4,0.8,3.7,1.2    c1.2,0.5,2.4,0.9,3.6,1.5c0.6,0.3,1.2,0.5,1.8,0.9l1.8,1c2,1.2,4.5,2.7,6.5,4.3c1,0.8,2,1.6,3,2.5c1,0.8,1.9,1.7,2.7,2.6    c1.7,1.8,3.2,3.6,4.5,5.4c0.7,0.9,1.3,1.8,1.8,2.7c0.6,0.9,1.1,1.8,1.5,2.6c0.4,0.9,0.9,1.7,1.2,2.5c0.3,0.8,0.7,1.6,1,2.3    c0.6,1.5,1,2.8,1.3,3.9c0.3,1.1,0.4,2,0.6,2.5c0.1,0.6,0.2,0.9,0.2,0.9s-0.2-0.2-0.6-0.7c-0.4-0.5-0.9-1.1-1.7-2    c-0.4-0.4-0.7-0.9-1.2-1.4c-0.4-0.5-0.9-1-1.4-1.6c-0.5-0.5-1-1.1-1.6-1.7c-0.6-0.6-1.2-1.2-1.8-1.9c-1.3-1.3-2.6-2.6-4.2-4    c-1.5-1.4-3.1-2.7-4.8-4.1c-1.7-1.4-3.5-2.7-5.4-4c-2-1.3-3.7-2.4-5.9-3.6l-1.4-0.8c-0.5-0.3-1-0.5-1.5-0.8c-1-0.5-2.1-1-3.1-1.5    c-2.1-0.9-4.2-1.7-6.2-2.5c-2.1-0.7-4.1-1.4-6.1-1.9c-2-0.6-3.8-1-5.6-1.4c-0.9-0.2-1.7-0.4-2.5-0.5c-0.8-0.1-1.6-0.3-2.3-0.4    c-0.7-0.1-1.4-0.2-2.1-0.3c-0.6-0.1-1.2-0.2-1.8-0.3c-1.1-0.2-2-0.3-2.6-0.4C292.7,190.4,292.3,190.4,292.3,190.4z"/>
	</g>
	<g>
		<g>
			<path class="st7" d="M405.9,720.1c-10.8,16.6-12.8,35-21.2,52.5c-7.9,16.3-20.5,30.2-35.4,40.6c-21.9,15.3-48.2,23.3-74.6,27.3     c-23.6,3.5-47.9,4-71.3-0.7s-46-14.8-63.8-30.7c-7.6-6.8-14.6-15.1-18.4-24.7c-3.7-9.5-3.5-17.4-9.3-26.3     c-6.6-10.2-14.4-20.4-15.7-32.4c-1.2-11.3,3.5-22.2,7.4-32.9c6.1-16.6,3.1-33.2,14-48.4c7.5-10.4,17.8-18.4,28.6-25.2     c39.5-24.9,87.5-36.1,134-31c29,3.2,58.9,13.5,77.6,36c11.7,14,18.5,32.2,32.8,43.6c8.3,6.7,19.3,11.3,23.2,21.3     C417.8,699.2,412,710.7,405.9,720.1z"/>
			<path class="st2" d="M239.6,848.4c-13,0-25.5-1.2-37.2-3.6c-25.8-5.2-48.7-16.2-66.3-31.9c-9.5-8.5-16.2-17.5-19.8-26.7     c-1.5-3.9-2.4-7.5-3.3-10.9c-1.3-5.2-2.4-9.6-5.5-14.4c-0.8-1.3-1.7-2.6-2.6-3.9c-6.2-9.4-12.7-19-14-30.8     c-1.2-11.4,2.7-21.9,6.5-32.1c0.4-1,0.8-2.1,1.2-3.1c2.2-6,3.1-12,4.1-18.4c1.6-10.3,3.2-21,10.6-31.3     c6.8-9.5,16.3-17.9,30.1-26.6c33.7-21.3,74.4-33,114.7-33c7.6,0,15.2,0.4,22.7,1.2c24.9,2.7,59.1,11.5,81,37.8     c4.8,5.7,8.7,12.1,12.6,18.2c5.9,9.4,11.4,18.2,19.4,24.7c2.1,1.7,4.4,3.3,6.9,4.9c6.8,4.6,14.5,9.8,17.9,18.5     c5.1,13.1-2.3,26.9-8.3,36.1c-5.9,9-9,18.7-12.3,28.9c-2.4,7.5-4.9,15.3-8.7,23c-8,16.5-20.8,31.2-37.1,42.6     c-20.1,14.1-46,23.5-76.8,28.1C263.1,847.4,251,848.4,239.6,848.4z M258.1,592c-38.3,0-77,11.1-109,31.4     c-12.5,7.9-21.2,15.5-27.1,23.8c-5.9,8.3-7.3,17.2-8.7,26.7c-1,6.6-2.1,13.5-4.6,20.5c-0.4,1-0.8,2.1-1.2,3.2     c-3.5,9.5-6.9,18.4-5.9,27.3c1,9.2,6.5,17.4,12.3,26.1c0.9,1.3,1.8,2.7,2.6,4c4.1,6.3,5.5,12,6.9,17.6c0.8,3.3,1.6,6.3,2.9,9.6     c3,7.7,8.7,15.3,17,22.7c16.2,14.5,37.4,24.7,61.4,29.5c11,2.2,22.9,3.4,35.1,3.4c10.9,0,22.5-0.9,34.4-2.7     c29.3-4.4,53.6-13.2,72.4-26.4c14.8-10.3,26.4-23.7,33.6-38.6c3.4-7,5.7-14.1,8.1-21.6c3.4-10.4,6.8-21.2,13.5-31.4     c4.7-7.3,10.6-18,7.3-26.6c-2.2-5.7-7.9-9.6-14-13.7c-2.5-1.7-5.1-3.5-7.6-5.4c-9.4-7.5-15.7-17.6-21.8-27.3     c-3.8-6.1-7.4-11.8-11.7-17c-19.7-23.6-51.2-31.6-74.1-34.1C272.5,592.4,265.3,592,258.1,592z"/>
		</g>
		<path class="st3" d="M375.8,719.1c-8.6,13.3-10.2,28-17,42c-6.3,13-16.4,24.2-28.3,32.5c-17.5,12.2-38.6,18.6-59.7,21.8    c-18.9,2.8-38.3,3.2-57-0.6s-36.8-11.9-51.1-24.6c-6.1-5.5-11.7-12.1-14.7-19.8c-3-7.6-2.8-13.9-7.4-21    c-5.3-8.1-11.5-16.3-12.6-25.9c-1-9,2.8-17.8,5.9-26.3c4.9-13.3,2.5-26.5,11.2-38.8c6-8.3,14.2-14.7,22.9-20.2    c31.6-20,70-28.8,107.2-24.8c23.2,2.5,47.1,10.8,62,28.8c9.3,11.2,14.8,25.7,26.2,34.9c6.6,5.3,15.5,9.1,18.5,17    C385.3,702.4,380.7,711.6,375.8,719.1z"/>
		<path class="st3" d="M364.5,708.7c-6.9,10.6-8.2,22.4-13.6,33.6c-5.1,10.4-13.1,19.3-22.6,26c-14,9.8-30.8,14.9-47.8,17.4    c-15.1,2.3-30.6,2.6-45.6-0.5c-15-3-29.4-9.5-40.8-19.7c-4.9-4.4-9.4-9.7-11.8-15.8c-2.4-6.1-2.2-11.1-6-16.8    c-4.2-6.5-9.2-13-10.1-20.8c-0.8-7.2,2.2-14.2,4.7-21c3.9-10.6,2-21.2,9-31c4.8-6.7,11.4-11.8,18.3-16.1    c25.3-16,56-23.1,85.7-19.8c18.6,2,37.7,8.6,49.6,23c7.5,9,11.9,20.6,21,27.9c5.3,4.3,12.4,7.3,14.8,13.6    C372.1,695.3,368.4,702.7,364.5,708.7z"/>
		<path class="st2" d="M120.7,722.2c0,0,1.1-0.3,3-0.8c2-0.5,4.9-1.3,8.6-2.2c3.7-0.9,8.2-2.1,13.3-3.2c2.6-0.6,5.3-1.2,8.2-1.9    c2.9-0.6,6-1.3,9.2-1.9c3.2-0.6,6.5-1.3,10-2c3.5-0.6,7-1.3,10.7-2c7.3-1.3,15.1-2.6,23.2-3.9c4-0.6,8.1-1.2,12.3-1.8    c4.1-0.6,8.4-1.2,12.6-1.7c8.5-1.1,17.1-2,25.8-3c8.7-0.8,17.3-1.7,25.8-2.3c4.3-0.3,8.5-0.7,12.7-0.9c4.2-0.2,8.3-0.5,12.4-0.7    c8.1-0.4,16-0.7,23.5-0.9c3.7-0.1,7.4-0.2,10.9-0.2c3.5,0,6.9,0,10.2-0.1c3.3,0,6.4,0,9.4,0c3,0.1,5.8,0.1,8.4,0.2    c5.3,0.1,9.9,0.2,13.7,0.4c3.8,0.1,6.8,0.3,8.8,0.4c2,0.1,3.1,0.2,3.1,0.2s-1.1,0.1-3.1,0.4c-2,0.2-5,0.6-8.8,1    c-3.8,0.4-8.4,0.9-13.6,1.5c-5.3,0.6-11.2,1.2-17.7,1.9c-25.8,2.6-60.3,6.1-94.7,9.5c-34.4,3.6-68.8,7.2-94.7,9.9    c-6.5,0.6-12.4,1.2-17.7,1.8c-5.3,0.5-9.9,0.9-13.6,1.3c-3.8,0.4-6.8,0.6-8.8,0.8C121.8,722.1,120.7,722.2,120.7,722.2z"/>
		<g class="st8">
			<g>
				<path class="st9" d="M303.3,670.7c7.6,0,14-6.4,14-14c0-7.6-6.4-14-14-14s-14,6.4-14,14C289.3,664.4,295.7,670.7,303.3,670.7      L303.3,670.7z"/>
			</g>
		</g>
		<path class="st4" d="M281.1,661.8c0.1-0.1,0.2-0.2,0.3-0.3c1-0.6,1.8-1.4,2.4-2.4c0.9-1.5,1.1-3.4,0.7-5.1    c-0.8-2.8-3.4-4.8-6.3-4.8s-5.6,2-6.3,4.8c-0.3,1.2-0.3,2.3,0,3.5c0.2,0.5,0.4,1,0.7,1.6c0.6,1,1.4,1.8,2.4,2.4    c0.1,0.1,0.2,0.2,0.3,0.3c0.9,0.5,1.9,0.8,3,0.8C279.2,662.6,280.2,662.4,281.1,661.8L281.1,661.8z"/>
	</g>
	<g>
		<g>
			<g>
				<path class="st10" d="M838,758.9c-20.7,16.2-44,29.9-69.6,35.8c-25.6,5.9-53.9,3.3-76-10.9c-33.7-21.8-46.2-70.5-27.9-106.2      c18.3-35.7,64.4-54,102.5-41.5c29.4,9.7,51.2,34.1,71.5,57.5c10.5,12.1,21.7,27,17.7,42.5C853.7,745.7,845.8,752.8,838,758.9z"/>
				<path class="st2" d="M742.7,805.3c-20.3,0-39.1-5.2-54.4-15.1c-36.7-23.7-50.7-76.9-30.5-116.1c15.2-29.6,49-49.6,84.1-49.6      c9.5,0,18.8,1.5,27.5,4.3c32.2,10.6,55.9,37.8,74.9,59.7c8,9.3,24.8,28.5,19.3,49.4c-3,11.6-11.9,19.8-20.9,26.9      c-25,19.6-48.8,31.8-72.6,37.3C761,804.3,751.8,805.3,742.7,805.3z M741.9,639.8c-29.6,0-57.9,16.6-70.6,41.3      c-16.7,32.6-5.1,76.7,25.3,96.4c12.8,8.3,28.8,12.7,46.1,12.7c8,0,16.1-0.9,24-2.8c21.6-5,43.4-16.2,66.6-34.4      c7-5.5,13.7-11.5,15.6-18.8c3-11.5-5.9-23.9-16.1-35.6c-18.7-21.5-39.9-45.9-68.2-55.2C757.4,641,749.8,639.8,741.9,639.8z"/>
			</g>
			<path class="st3" d="M820.3,751.5c-16.6,13-35.2,23.9-55.7,28.7c-20.5,4.7-43.1,2.7-60.8-8.8c-27-17.4-37-56.4-22.3-85     c14.6-28.6,51.5-43.2,82-33.2c23.5,7.8,41,27.3,57.2,46c8.4,9.7,17.4,21.6,14.2,34C832.9,740.9,826.6,746.6,820.3,751.5z"/>
			<path class="st3" d="M817.8,745.4c-13.3,10.4-28.1,19.2-44.5,22.9c-16.4,3.8-34.5,2.1-48.7-7c-21.6-13.9-29.6-45.1-17.9-68     c11.7-22.9,41.2-34.6,65.6-26.5c18.8,6.2,32.8,21.8,45.8,36.8c6.7,7.7,13.9,17.3,11.3,27.2C827.9,736.9,822.8,741.5,817.8,745.4z     "/>
			<path class="st4" d="M779.6,702.8c9.1,7.6,20.3,20.4,33.4,17.8c2.6-0.5,4.6-3.4,4.5-5.9c-0.4-13.3-15.8-21.4-25.2-28.4     C782.8,679,770.5,695.1,779.6,702.8L779.6,702.8z"/>
		</g>
		<g>
			<g>
				<path class="st10" d="M732.1,691.5c-6.8,25.4-17.2,50.3-34.1,70.4c-16.9,20.1-41.1,35.1-67.4,36.9c-40,2.8-79.3-28.6-86.1-68.2      c-6.8-39.5,19.1-81.9,57.1-94.7c29.4-9.9,61.4-3.5,91.7,3c15.6,3.3,33.6,8.5,39.7,23.4C736.7,671.5,734.7,681.9,732.1,691.5z"/>
				<path class="st2" d="M625.6,806.7c-41.8,0-81.5-33.5-88.6-74.7c-7.4-42.9,20.5-89.2,62.2-103.2c11-3.7,22.8-5.5,36.2-5.5      c19.4,0,38.4,3.7,59.6,8.3c12,2.6,36.9,7.9,45.1,27.9c4.5,11.1,2.4,23-0.6,34.1c-8.3,30.7-19.9,54.7-35.6,73.4      c-19.6,23.3-46.1,37.7-72.6,39.6C629.3,806.6,627.4,806.7,625.6,806.7z M635.3,638.5c-11.6,0-21.9,1.5-31.3,4.7      c-34.8,11.7-58.2,50.4-52,86.2c5.9,34.2,38.9,62,73.6,62c1.5,0,3-0.1,4.5-0.2c22.5-1.6,45.1-14.1,62.1-34.2      c14.3-16.9,24.9-39,32.6-67.5c2.3-8.5,4-17.4,1.2-24.4c-4.5-11-19.1-15.6-34.2-18.8C671.4,642.1,653.2,638.5,635.3,638.5z"/>
			</g>
			<path class="st3" d="M713.5,696.2c-5.5,20.3-13.7,40.3-27.3,56.4c-13.6,16.1-32.9,28-53.9,29.5c-32,2.3-63.4-22.9-68.9-54.5     c-5.4-31.6,15.2-65.5,45.7-75.8c23.5-7.9,49.1-2.8,73.4,2.4c12.5,2.7,26.9,6.8,31.7,18.7C717.2,680.2,715.6,688.5,713.5,696.2z"/>
			<path class="st3" d="M707.8,692.9c-4.4,16.3-11,32.2-21.8,45.1c-10.8,12.9-26.3,22.4-43.1,23.6c-25.6,1.8-50.7-18.3-55.1-43.6     c-4.4-25.3,12.2-52.4,36.5-60.6c18.8-6.3,39.3-2.2,58.7,1.9c10,2.1,21.5,5.5,25.4,14.9C710.8,680,709.4,686.7,707.8,692.9z"/>
			<path class="st4" d="M653.7,681.8c11,0.6,24,3,33.4-4c3.1-2.3,5-7.5,1.4-10.5c-9.8-8.2-22.8-6.6-34.8-6.7     C640,660.7,640.1,681.1,653.7,681.8L653.7,681.8z"/>
		</g>
	</g>
	<g>
		<g>
			<path class="st11" d="M718.3,334c-23.7,3.7-47.5,7.4-71.2,11.1c-20.8,3.2-42.6,6.4-62.5-0.4c-25.2-8.5-43.6-33.2-46.4-59.6     s9.4-53.6,30-70.5c25.4-20.9,60.1-25.9,92.9-29.2c63.7-6.3,130.7-8.8,188.8,18.1c4.4,2,9,4.5,11.4,8.8c4.1,7.5-0.5,16.7-5,23.9     c-18.8,30.5-39,62.3-70.6,79.3C765,326.6,741.4,330.4,718.3,334z"/>
			<path class="st2" d="M611.4,353.5c-10.6,0-19.9-1.4-28.3-4.3c-26.6-9-46.6-34.6-49.6-63.7c-2.9-27.6,9.2-56.2,31.7-74.7     c26.4-21.8,61.6-26.9,95.4-30.2c29.1-2.9,51.2-4.2,71.9-4.2c47.4,0,86.4,7.4,119.4,22.7c5.3,2.5,10.6,5.5,13.6,10.8     c5.9,10.9-1.8,23.4-5.1,28.8c-17.3,28-38.9,63-72.4,81c-21.5,11.6-46.7,15.5-68.8,19l-71.2,11.1     C637.2,351.4,624.1,353.5,611.4,353.5z M732.4,186c-20.3,0-42.2,1.3-70.9,4.1c-32.3,3.2-66,8-90.3,28.1     c-19.7,16.2-30.8,42.2-28.2,66.3c2.6,25,20.4,47.9,43.1,55.6c7.4,2.5,15.7,3.8,25.3,3.8c12,0,24.7-2,35-3.6l71.2-11.1     c22.5-3.5,45.7-7.1,65.7-17.9c31.2-16.9,51.2-49.2,68.8-77.6c3.8-6.1,7.7-13.8,4.9-19.1c-1.7-3.1-5.6-5.1-9.2-6.7     C816.1,193.1,778.4,186,732.4,186z"/>
		</g>
		<g>
			<path class="st11" d="M718.3,334c-23.7,3.7-47.5,7.4-71.2,11.1c-20.8,3.2-42.6,6.4-62.5-0.4c-25.2-8.5-43.6-33.2-46.4-59.6     s9.4-53.6,30-70.5c25.4-20.9,60.1-25.9,92.9-29.2c63.7-6.3,130.7-8.8,188.8,18.1c4.4,2,9,4.5,11.4,8.8c4.1,7.5-0.5,16.7-5,23.9     c-18.8,30.5-39,62.3-70.6,79.3C765,326.6,741.4,330.4,718.3,334z"/>
			<path class="st2" d="M611.4,353.5c-10.6,0-19.9-1.4-28.3-4.3c-26.6-9-46.6-34.6-49.6-63.7c-2.9-27.6,9.2-56.2,31.7-74.7     c26.4-21.8,61.6-26.9,95.4-30.2c29.1-2.9,51.2-4.2,71.9-4.2c47.4,0,86.4,7.4,119.4,22.7c5.3,2.5,10.6,5.5,13.6,10.8     c5.9,10.9-1.8,23.4-5.1,28.8c-17.3,28-38.9,63-72.4,81c-21.5,11.6-46.7,15.5-68.8,19l-71.2,11.1     C637.2,351.4,624.1,353.5,611.4,353.5z M732.4,186c-20.3,0-42.2,1.3-70.9,4.1c-32.3,3.2-66,8-90.3,28.1     c-19.7,16.2-30.8,42.2-28.2,66.3c2.6,25,20.4,47.9,43.1,55.6c7.4,2.5,15.7,3.8,25.3,3.8c12,0,24.7-2,35-3.6l71.2-11.1     c22.5-3.5,45.7-7.1,65.7-17.9c31.2-16.9,51.2-49.2,68.8-77.6c3.8-6.1,7.7-13.8,4.9-19.1c-1.7-3.1-5.6-5.1-9.2-6.7     C816.1,193.1,778.4,186,732.4,186z"/>
		</g>
		<path class="st3" d="M714.7,320.2c-19,3-38,5.9-57,8.9c-16.6,2.6-34.1,5.1-50-0.3c-20.2-6.8-34.9-26.5-37.1-47.7s7.5-42.9,24-56.4    c20.3-16.8,48.1-20.7,74.3-23.3c50.9-5.1,104.6-7.1,151,14.5c3.5,1.6,7.2,3.6,9.1,7c3.3,6-0.4,13.3-4,19.2    c-15.1,24.4-31.2,49.9-56.4,63.5C752.1,314.3,733.2,317.3,714.7,320.2z"/>
		<path class="st3" d="M729.8,300.2c-15.2,2.4-30.4,4.7-45.6,7.1c-13.3,2.1-27.3,4.1-40-0.2c-16.1-5.5-27.9-21.2-29.7-38.2    s6-34.3,19.2-45.1c16.3-13.4,38.4-16.6,59.4-18.7c40.8-4.1,83.6-5.7,120.8,11.6c2.8,1.3,5.8,2.9,7.3,5.6    c2.6,4.8-0.3,10.7-3.2,15.3c-12,19.5-25,39.9-45.2,50.8C759.7,295.5,744.6,297.9,729.8,300.2z"/>
		<path class="st2" d="M663.3,257.9c0,0,0.6-0.2,1.6-0.6c1-0.4,2.6-1,4.5-1.6c2-0.7,4.3-1.5,7.1-2.3c2.7-0.9,5.8-1.8,9.2-2.8    c6.8-2,14.7-4.1,23.2-6.2c2.1-0.5,4.3-1,6.5-1.5c2.2-0.5,4.4-1,6.7-1.5c4.5-1,9.1-2,13.7-2.9c4.6-0.9,9.2-1.8,13.7-2.6    c2.3-0.4,4.5-0.8,6.7-1.2c2.2-0.4,4.4-0.8,6.6-1.1c8.7-1.4,16.8-2.5,23.8-3.3c3.5-0.4,6.7-0.7,9.6-1c2.9-0.3,5.4-0.4,7.4-0.6    c2.1-0.2,3.7-0.2,4.8-0.3c1.1,0,1.7-0.1,1.7-0.1s-0.6,0.2-1.6,0.6c-1,0.4-2.6,1-4.5,1.6c-2,0.7-4.3,1.5-7.1,2.3    c-2.7,0.9-5.8,1.8-9.2,2.8c-6.8,2-14.7,4.1-23.2,6.2c-2.1,0.5-4.3,1-6.5,1.5c-2.2,0.5-4.4,1-6.7,1.5c-4.5,1-9.1,1.9-13.7,2.9    c-4.6,0.9-9.2,1.8-13.7,2.6c-2.3,0.4-4.5,0.8-6.7,1.2c-2.2,0.4-4.4,0.8-6.6,1.1c-8.7,1.4-16.8,2.5-23.8,3.3    c-3.5,0.4-6.7,0.7-9.6,1c-2.9,0.3-5.4,0.4-7.4,0.6c-2.1,0.2-3.7,0.2-4.8,0.3C663.9,257.9,663.3,257.9,663.3,257.9z"/>
		<path class="st2" d="M775.5,282.7c0,0,0.1-0.1,0.2-0.3c0.2-0.2,0.4-0.5,0.7-0.8c0.6-0.7,1.4-1.5,2.5-2.3c1-0.8,2.3-1.5,3.7-2.2    c1.4-0.6,2.9-1.1,4.4-1.3c1.5-0.3,3.1-0.4,4.6-0.3c1.5,0.1,2.9,0.4,4.2,0.8c1.2,0.4,2.3,0.9,3.1,1.3c0.4,0.2,0.7,0.4,0.9,0.5    c0.2,0.1,0.3,0.2,0.3,0.2s-0.1,0.1-0.2,0.3c-0.2,0.2-0.4,0.5-0.7,0.8c-0.6,0.7-1.4,1.5-2.5,2.3c-1,0.8-2.3,1.5-3.7,2.1    c-1.4,0.6-2.9,1-4.4,1.3c-1.5,0.3-3.1,0.4-4.6,0.3c-1.5-0.1-2.9-0.4-4.2-0.8c-1.2-0.4-2.3-0.9-3.1-1.3c-0.4-0.2-0.7-0.4-0.9-0.5    C775.6,282.8,775.5,282.7,775.5,282.7z"/>
		<path class="st2" d="M575.5,236.4c0,0,0.1-0.1,0.4-0.4c0.2-0.2,0.6-0.6,1.1-0.9c0.9-0.8,2.3-1.8,4-2.8c1.7-1,3.7-2,5.9-2.9    c2.2-0.9,4.6-1.6,7-2.2c2.4-0.6,4.9-0.9,7.2-1.1c2.4-0.2,4.6-0.2,6.5,0c2,0.2,3.6,0.5,4.8,0.8c0.6,0.1,1.1,0.3,1.4,0.4    c0.3,0.1,0.5,0.2,0.5,0.2s-0.1,0.1-0.4,0.4c-0.2,0.2-0.6,0.6-1.1,1c-0.9,0.8-2.3,1.8-4,2.8c-1.7,1-3.7,2-5.9,2.9    c-2.2,0.9-4.6,1.6-7,2.2c-2.4,0.5-4.9,0.9-7.2,1.1c-2.4,0.2-4.6,0.1-6.5,0c-2-0.2-3.6-0.5-4.8-0.8c-0.6-0.1-1.1-0.3-1.4-0.4    C575.7,236.5,575.5,236.4,575.5,236.4z"/>
		<path class="st2" d="M581.4,315.8c0,0,0.1-0.1,0.3-0.2c0.2-0.1,0.6-0.4,1-0.6c0.9-0.5,2-1.1,3.3-1.7c1.3-0.5,2.8-1.1,4.4-1.5    c1.6-0.4,3.3-0.7,5-0.9c1.7-0.2,3.4-0.2,5.1-0.1c1.6,0.1,3.2,0.3,4.6,0.6c1.4,0.3,2.7,0.7,3.6,1c0.4,0.1,0.8,0.3,1.1,0.4    c0.3,0.1,0.4,0.2,0.4,0.2s-0.1,0.1-0.2,0.4c-0.2,0.2-0.4,0.6-0.7,0.9c-0.6,0.7-1.6,1.7-2.8,2.6c-0.6,0.5-1.3,0.9-2.1,1.3    c-0.7,0.4-1.6,0.8-2.4,1.1c-1.7,0.7-3.6,1.1-5.5,1.3c-1.9,0.2-3.9,0.1-5.7-0.2c-0.9-0.2-1.8-0.3-2.6-0.6c-0.8-0.3-1.6-0.5-2.3-0.9    c-1.4-0.6-2.6-1.4-3.3-2c-0.4-0.3-0.7-0.6-0.9-0.7C581.5,315.9,581.4,315.8,581.4,315.8z"/>
		<g>
			<path class="st4" d="M755.6,216c4.7,1,9.7,0.9,14.5,1.2c5.5,0.4,10.9,1.2,16.3,2.3c5.1,1,10.3,1.8,15.5,2.7     c4.5,0.8,9.5,3.2,14.1,2.3c0.4-0.1,0.6-0.6,0.4-0.9c-2.5-3.6-7.3-4.8-11.3-6.5c-5.5-2.3-10.8-3.9-16.6-5.1     c-5.4-1.1-11.1-1.3-16.6-1.5c-5.3-0.2-11.2-0.3-16.2,1.3C753.6,212.4,753.4,215.5,755.6,216L755.6,216z"/>
			<g class="st8">
				<g>
					<path class="st9" d="M747,217.9c5.1,0,5.1-7.9,0-7.9S741.9,217.9,747,217.9L747,217.9z"/>
				</g>
			</g>
		</g>
	</g>
	<g>
		<g>
			<path class="st12" d="M1046.7,247.3c11.2,15.9,25.8,29.4,35.7,46.1c20.1,33.9,19.6,78.7,45.8,108.2     c14.8,16.6,37.1,26.1,59.3,25.2c22.2-0.9,43.7-12.2,57.1-29.9c13.6-18.1,18.4-41.4,19.6-64.1c3.8-70.8-25.3-142.6-77.3-190.7     c-16.3-15.1-35.1-28.1-56.3-34.7c-21.2-6.6-45.2-6.2-64.9,4.3c-22.8,12.2-37.4,37.1-40,62.8     C1023.3,200.1,1031.9,226.2,1046.7,247.3z"/>
			<path class="st2" d="M1184.7,429.8c-22.1,0-44-9.8-58.6-26.2c-15.3-17.2-21.8-39.6-28.1-61.3c-4.7-16.2-9.6-33-18.1-47.4     c-5.6-9.4-12.9-18-19.9-26.3c-5.3-6.3-10.8-12.8-15.7-19.6c-16.3-23.2-23.9-49.8-21.4-74.9c2.8-28,18.7-52.9,41.5-65.1     c11-5.9,24.1-9,37.8-9c9.8,0,19.6,1.5,29.3,4.5c19.5,6,38.3,17.6,57.4,35.4c25.8,23.9,46.7,54.3,60.3,87.9     c13.6,33.6,19.8,70,18,105.1c-1.5,28.1-8.1,49.6-20.2,65.7c-14,18.5-36.1,30.2-59.3,31.1C1186.7,429.8,1185.7,429.8,1184.7,429.8     z M1102.3,105.9c-12.8,0-24.9,2.9-35.1,8.3c-21.1,11.3-35.8,34.4-38.4,60.5c-2.4,23.7,4.9,48.9,20.4,71     c4.7,6.7,10.1,13,15.3,19.2c7.2,8.5,14.7,17.3,20.5,27.1c8.9,15,13.9,32.1,18.7,48.7c6.4,22,12.4,42.8,26.8,59     c13.5,15.2,33.8,24.3,54.2,24.3c0.9,0,1.9,0,2.8-0.1c21.4-0.9,42-11.6,54.9-28.8c11.4-15.1,17.6-35.5,19-62.5     c3.7-70.2-24.8-140.7-76.4-188.4c-18.5-17.2-36.6-28.3-55.2-34.1C1120.7,107.4,1111.4,105.9,1102.3,105.9z"/>
		</g>
		<g>
			<path class="st7" d="M1046.7,247.2c4.2,3.2,11,1.5,15.9,2c11.6,1.2,22.3,8.1,29.3,17.5c7,9.4,10.4,21.1,10.9,32.8     c0.2,5.2-0.1,10.5-1,15.7c-0.8,4.8-3.3,9.6-4,14.4c-0.5,3.5,1.7,7.5,2.7,10.9c1.3,4.4,2.5,8.8,3.9,13.1     c5.3,17.2,11.8,34.4,23.9,48.1c14.8,16.6,37.1,26.1,59.3,25.2c22.2-0.9,43.7-12.2,57.1-29.9c13.6-18.1,18.4-41.4,19.6-64.1     c3.8-70.8-25.3-142.6-77.3-190.7c-16.3-15.1-35.1-28.1-56.3-34.7c-21.2-6.6-45.2-6.2-64.9,4.3c-22.8,12.2-37.4,37.1-40,62.8     c-1.6,16.2,1.2,32.6,7.2,47.7c3.2,8,7.1,15.9,11.8,23.1C1045.4,246,1046,246.7,1046.7,247.2z"/>
			<path class="st2" d="M1184.7,429.8c-22.1,0-44-9.8-58.6-26.2c-12.7-14.2-19.3-32-24.5-49.1c-1.2-3.9-2.3-7.8-3.4-11.6l-0.5-1.6     c-0.2-0.8-0.6-1.8-1-2.8c-1.1-2.9-2.3-6.1-1.8-9.3c0.4-2.8,1.3-5.5,2.2-8c0.8-2.2,1.5-4.3,1.8-6.4c0.9-5,1.2-10.1,1-15.1     c-0.5-12-4.1-22.8-10.4-31.2c-6.8-9.1-17-15.2-27.3-16.3c-0.6-0.1-1.2-0.1-2-0.1c-0.8,0-1.6,0-2.5,0.1c-0.9,0-1.9,0.1-2.9,0.1     c0,0,0,0,0,0c-3,0-6.9-0.3-9.9-2.6c-1-0.7-1.8-1.7-2.5-2.7c-4.6-7.2-8.7-15.1-12.1-23.6c-6.4-16.2-9-33.2-7.4-49     c2.8-28,18.7-52.9,41.5-65.1c11-5.9,24.1-9,37.8-9c9.8,0,19.6,1.5,29.3,4.5c19.5,6,38.3,17.6,57.4,35.4     c25.8,23.9,46.7,54.3,60.3,87.9c13.6,33.6,19.8,70,18,105.1c-1.5,28.1-8.1,49.6-20.2,65.7c-14,18.5-36.1,30.2-59.3,31.1     C1186.7,429.8,1185.7,429.8,1184.7,429.8z M1060.2,246.2c1,0,1.9,0,2.6,0.1c11.9,1.2,23.6,8.2,31.3,18.6     c7,9.4,10.9,21.3,11.5,34.4c0.2,5.4-0.1,10.9-1.1,16.3c-0.4,2.5-1.3,4.9-2,7.3c-0.8,2.4-1.6,4.7-1.9,7c-0.2,1.8,0.6,4.2,1.5,6.5     c0.4,1,0.8,2.1,1.1,3.2l0.5,1.6c1.1,3.8,2.2,7.7,3.4,11.5c5,16.5,11.4,33.6,23.3,47c13.5,15.2,33.8,24.3,54.2,24.3     c0.9,0,1.9,0,2.8-0.1c21.4-0.9,42-11.6,54.9-28.8c11.4-15.1,17.6-35.5,19-62.5c3.7-70.2-24.8-140.7-76.4-188.4     c-18.5-17.2-36.6-28.3-55.2-34.1c-9.1-2.8-18.4-4.2-27.5-4.2c-12.8,0-24.9,2.9-35.1,8.3c-21.1,11.3-35.8,34.4-38.4,60.5     c-1.5,14.9,0.9,31,7,46.3c3.2,8.2,7.1,15.8,11.5,22.6c0.3,0.5,0.7,0.9,1.2,1.3c1.3,1,3.2,1.4,6.3,1.4c0,0,0,0,0,0     c0.9,0,1.8,0,2.7-0.1C1058.4,246.2,1059.3,246.2,1060.2,246.2z"/>
		</g>
		<path class="st3" d="M1076.9,241.7c1.6,0.6,3.1,1.2,4.4,1.9c6.7,3.4,13.3,7.1,18.8,12.4c10.2,9.7,15.6,23.6,17.6,37.5    c2.1,14.2-2.4,30.5,2,43.8c4.3,13.1,9.6,26.6,18.9,37c11.8,13.3,29.7,20.9,47.5,20.2c17.7-0.7,35-9.8,45.7-24    c10.9-14.5,14.7-33.2,15.7-51.3c3-56.6-20.3-114.1-61.9-152.6c-13.1-12.1-28.1-22.5-45.1-27.8s-36.2-4.9-51.9,3.4    c-18.2,9.7-29.9,29.6-32,50.2c-1.1,11.4-0.5,32.5,7.1,42C1066.6,237.9,1072.1,239.9,1076.9,241.7z"/>
		<path class="st3" d="M1099.4,225.2c1.8,1.4,3.7,2.7,5.5,4c15.2,11.4,24.2,27.2,24.8,46.4c0.3,9.4-0.7,18.8,0,28.2    c1,12.3,6.7,24.1,14.9,33.3c9.4,10.6,23.8,16.7,38,16.1c14.2-0.6,28-7.8,36.5-19.2c8.7-11.6,11.8-26.5,12.6-41    c2.4-45.3-16.2-91.3-49.5-122.1c-10.4-9.7-22.4-18-36-22.2c-13.6-4.2-28.9-4-41.5,2.7c-10.7,5.7-18.4,15.7-22.6,27    c-4.2,11.1-6.8,20.2,0.6,31C1087.1,215.8,1093.2,220.6,1099.4,225.2z"/>
		<path class="st4" d="M1163.8,176.9c0.6,4.6,4.2,7.5,7.1,10.7c3.1,3.4,5.3,7.4,8.3,10.8c2.7,3.1,5.2,6.2,7.3,9.8    c2.3,4,3.7,8.4,5.2,12.7c0.4,1.1,1.9,0.9,2-0.3c0.4-4.4-0.3-8.8-1-13.1c-0.7-4.6-1.7-9.5-3.4-13.9c-1.9-4.9-5.4-9-8.9-12.8    c-3.1-3.3-7.8-8.3-12.7-7.7C1165.8,173.4,1163.6,174.7,1163.8,176.9L1163.8,176.9z"/>
	</g>
</g>
</svg>
