<svg xmlns="http://www.w3.org/2000/svg" xmlns:xlink="http://www.w3.org/1999/xlink" viewBox="0 0 192 192" width="192" height="192" preserveAspectRatio="xMidYMid meet" style="width: 100%; height: 100%; transform: translate3d(0px, 0px, 0px); content-visibility: visible;"><defs><clipPath id="__lottie_element_7510"><rect width="192" height="192" x="0" y="0"/></clipPath><clipPath id="__lottie_element_7512"><path d="M0,0 L192,0 L192,192 L0,192z"/></clipPath></defs><g clip-path="url(#__lottie_element_7510)"><g clip-path="url(#__lottie_element_7512)" transform="matrix(1,0,0,1,0,0)" opacity="1" style="display: block;"><g transform="matrix(0.9999948143959045,0,0,0.9999948143959045,118.63359069824219,165.43923950195312)" opacity="1" style="display: block;"><g opacity="1" transform="matrix(1,0,0,1,0,0)"><path class="secondary" fill="rgb(230,142,110)" fill-opacity="1" d=" M6.543000221252441,-7.688000202178955 C7.073999881744385,-7.664000034332275 7.888000011444092,-7.007999897003174 7.900000095367432,-5.800000190734863 C7.932000160217285,-2.6600000858306885 7.989999771118164,2.9609999656677246 8,6.361000061035156 C8.003999710083008,7.763000011444092 7.511000156402588,8.154999732971191 6.853000164031982,7.359000205993652 C4.656000137329102,4.699999809265137 -0.007000000216066837,-1.059999942779541 -0.1770000010728836,-0.9879999756813049 C-0.5550000071525574,-0.8259999752044678 -5.309000015258789,5.307000160217285 -7.070000171661377,7.5329999923706055 C-7.468999862670898,8.03600025177002 -7.86899995803833,7.577000141143799 -7.914000034332275,6.679999828338623 C-8.086000442504883,3.2109999656677246 -7.974999904632568,-4.626999855041504 -7.813000202178955,-7.263000011444092 C-7.788000106811523,-7.670000076293945 1.8359999656677246,-7.894999980926514 6.543000221252441,-7.688000202178955z"/><path stroke-linecap="round" stroke-linejoin="round" fill-opacity="0" class="secondary" stroke="rgb(230,142,110)" stroke-opacity="1" stroke-width="0.498" d=" M6.543000221252441,-7.688000202178955 C7.073999881744385,-7.664000034332275 7.888000011444092,-7.007999897003174 7.900000095367432,-5.800000190734863 C7.932000160217285,-2.6600000858306885 7.989999771118164,2.9609999656677246 8,6.361000061035156 C8.003999710083008,7.763000011444092 7.511000156402588,8.154999732971191 6.853000164031982,7.359000205993652 C4.656000137329102,4.699999809265137 -0.007000000216066837,-1.059999942779541 -0.1770000010728836,-0.9879999756813049 C-0.5550000071525574,-0.8259999752044678 -5.309000015258789,5.307000160217285 -7.070000171661377,7.5329999923706055 C-7.468999862670898,8.03600025177002 -7.86899995803833,7.577000141143799 -7.914000034332275,6.679999828338623 C-8.086000442504883,3.2109999656677246 -7.974999904632568,-4.626999855041504 -7.813000202178955,-7.263000011444092 C-7.788000106811523,-7.670000076293945 1.8359999656677246,-7.894999980926514 6.543000221252441,-7.688000202178955z"/></g></g><g transform="matrix(0.9999948143959045,0,0,0.9999948143959045,84.93191528320312,68.46976470947266)" opacity="1" style="display: block;"><g opacity="1" transform="matrix(1,0,0,1,0,0)"><path class="secondary" fill="rgb(230,142,110)" fill-opacity="1" d=" M-22.70800018310547,-14.357000350952148 C-22.718000411987305,-15.071999549865723 -21.69099998474121,-15.590999603271484 -21.08799934387207,-15.593000411987305 C-15.420999526977539,-15.616000175476074 11.045999526977539,-15.729000091552734 19.79199981689453,-15.598999977111816 C21.520999908447266,-15.572999954223633 22.700000762939453,-14.168999671936035 22.707000732421875,-12.194999694824219 C22.72800064086914,-6.336999893188477 22.558000564575195,5.841000080108643 22.621999740600586,11.972000122070312 C22.639999389648438,13.642999649047852 21.30500030517578,15.53499984741211 18.93400001525879,15.579000473022461 C10.60099983215332,15.732000350952148 -9.232000350952148,15.649999618530273 -18.041000366210938,15.494000434875488 C-20.67799949645996,15.446999549865723 -22.458999633789062,13.739999771118164 -22.490999221801758,11.345000267028809 C-22.58799934387207,4.241000175476074 -22.652999877929688,-10.234000205993652 -22.70800018310547,-14.357000350952148z"/><path stroke-linecap="round" stroke-linejoin="round" fill-opacity="0" class="secondary" stroke="rgb(230,142,110)" stroke-opacity="1" stroke-width="0.499" d=" M-22.70800018310547,-14.357000350952148 C-22.718000411987305,-15.071999549865723 -21.69099998474121,-15.590999603271484 -21.08799934387207,-15.593000411987305 C-15.420999526977539,-15.616000175476074 11.045999526977539,-15.729000091552734 19.79199981689453,-15.598999977111816 C21.520999908447266,-15.572999954223633 22.700000762939453,-14.168999671936035 22.707000732421875,-12.194999694824219 C22.72800064086914,-6.336999893188477 22.558000564575195,5.841000080108643 22.621999740600586,11.972000122070312 C22.639999389648438,13.642999649047852 21.30500030517578,15.53499984741211 18.93400001525879,15.579000473022461 C10.60099983215332,15.732000350952148 -9.232000350952148,15.649999618530273 -18.041000366210938,15.494000434875488 C-20.67799949645996,15.446999549865723 -22.458999633789062,13.739999771118164 -22.490999221801758,11.345000267028809 C-22.58799934387207,4.241000175476074 -22.652999877929688,-10.234000205993652 -22.70800018310547,-14.357000350952148z"/></g></g><g transform="matrix(0.9999948143959045,0,0,0.9999948143959045,164.734619140625,110.29814147949219)" opacity="1" style="display: block;"><g opacity="1" transform="matrix(1,0,0,1,0,0)"><path class="secondary" fill="rgb(230,142,110)" fill-opacity="1" d=" M-8.45300006866455,42.87699890136719 C-8.454000473022461,44.61199951171875 -6.671999931335449,46.4010009765625 -5.788000106811523,46.4119987487793 C-2.009000062942505,46.45800018310547 1.649999976158142,46.57500076293945 5.176000118255615,46.51900100708008 C6.0320000648498535,46.505001068115234 7.986999988555908,45.08599853515625 8.086999893188477,42.72600173950195 C8.574000358581543,31.222000122070312 8.538000106811523,-4.2729997634887695 8.192999839782715,-25.201000213623047 C8.071999549865723,-32.48899841308594 2.1549999713897705,-45.707000732421875 0.5519999861717224,-46.507999420166016 C-0.8059999942779541,-47.1870002746582 -7.951000213623047,-34.275001525878906 -8.105999946594238,-24.709999084472656 C-8.442000389099121,-3.9230000972747803 -8.442999839782715,31.226999282836914 -8.45300006866455,42.87699890136719z"/><path stroke-linecap="round" stroke-linejoin="round" fill-opacity="0" class="secondary" stroke="rgb(230,142,110)" stroke-opacity="1" stroke-width="0.5" d=" M-8.45300006866455,42.87699890136719 C-8.454000473022461,44.61199951171875 -6.671999931335449,46.4010009765625 -5.788000106811523,46.4119987487793 C-2.009000062942505,46.45800018310547 1.649999976158142,46.57500076293945 5.176000118255615,46.51900100708008 C6.0320000648498535,46.505001068115234 7.986999988555908,45.08599853515625 8.086999893188477,42.72600173950195 C8.574000358581543,31.222000122070312 8.538000106811523,-4.2729997634887695 8.192999839782715,-25.201000213623047 C8.071999549865723,-32.48899841308594 2.1549999713897705,-45.707000732421875 0.5519999861717224,-46.507999420166016 C-0.8059999942779541,-47.1870002746582 -7.951000213623047,-34.275001525878906 -8.105999946594238,-24.709999084472656 C-8.442000389099121,-3.9230000972747803 -8.442999839782715,31.226999282836914 -8.45300006866455,42.87699890136719z"/></g></g><g transform="matrix(0.9999948143959045,0,0,0.9999948143959045,85.11319732666016,89.02262115478516)" opacity="1" style="display: block;"><g opacity="1" transform="matrix(1,0,0,1,0,0)"><path stroke-linecap="round" stroke-linejoin="round" fill-opacity="0" class="primary" stroke="rgb(42,48,107)" stroke-opacity="1" stroke-width="1.5" d=" M-53.986000061035156,71.927001953125 C-55.85900115966797,70.05400085449219 -60.77299880981445,-70.53700256347656 -58.95899963378906,-70.16500091552734 C-54.007999420166016,-70.8759994506836 53.65800094604492,-73.74500274658203 59.132999420166016,-70.3239974975586 C60.6510009765625,-69.375 53.86800003051758,70.16500091552734 53.62900161743164,70.40399932861328 C53.39400100708008,70.63999938964844 -53.67499923706055,72.23899841308594 -53.986000061035156,71.927001953125z"/></g></g><g transform="matrix(0.9999948143959045,0,0,0.9999948143959045,85.0291976928711,89.1626205444336)" opacity="1" style="display: block;"><g opacity="1" transform="matrix(1,0,0,1,0,0)"><path stroke-linecap="round" stroke-linejoin="round" fill-opacity="0" class="primary" stroke="rgb(42,48,107)" stroke-opacity="1" stroke-width="1.5" d=" M33.44599914550781,70.31700134277344 C33.632999420166016,63.5629997253418 37.72200012207031,-66.83499908447266 37.74599838256836,-70.63600158691406"/></g></g><g transform="matrix(0.9999948143959045,0,0,0.9999948143959045,36.446449279785156,89.90361785888672)" opacity="1" style="display: block;"><g opacity="1" transform="matrix(1,0,0,1,0,0)"><path stroke-linecap="round" stroke-linejoin="round" fill-opacity="0" class="primary" stroke="rgb(42,48,107)" stroke-opacity="1" stroke-width="1" d=" M1.2089999914169312,70.52899932861328 C1.2089999914169312,40.00400161743164 -1.156999945640564,-64.66799926757812 -1.2089999914169312,-70.52899932861328"/></g></g><g transform="matrix(0.9999948143959045,0,0,0.9999948143959045,31.593475341796875,87.40863037109375)" opacity="1" style="display: block;"><g opacity="1" transform="matrix(1,0,0,1,0,0)"><path stroke-linecap="round" stroke-linejoin="round" fill-opacity="0" class="primary" stroke="rgb(42,48,107)" stroke-opacity="1" stroke-width="1" d=" M7.050000190734863,-44.59400177001953 C-0.7480000257492065,-44.27299880981445 -8.293999671936035,-43.96699905395508 -9.555999755859375,-43.98899841308594"/></g></g><g transform="matrix(0.9999948143959045,0,0,0.9999948143959045,31.593475341796875,87.40863037109375)" opacity="1" style="display: block;"><g opacity="1" transform="matrix(1,0,0,1,0,0)"><path stroke-linecap="round" stroke-linejoin="round" fill-opacity="0" class="primary" stroke="rgb(42,48,107)" stroke-opacity="1" stroke-width="1" d=" M7.9079999923706055,-7.879000186920166 C0.10999999940395355,-7.558000087738037 -7.435999870300293,-7.252999782562256 -8.697999954223633,-7.275000095367432"/></g></g><g transform="matrix(0.9999948143959045,0,0,0.9999948143959045,31.593475341796875,87.40863037109375)" opacity="1" style="display: block;"><g opacity="1" transform="matrix(1,0,0,1,0,0)"><path stroke-linecap="round" stroke-linejoin="round" fill-opacity="0" class="primary" stroke="rgb(42,48,107)" stroke-opacity="1" stroke-width="1" d=" M9.012999534606934,28.1560001373291 C1.215000033378601,28.476999282836914 -6.330999851226807,28.781999588012695 -7.5929999351501465,28.760000228881836"/></g></g><g transform="matrix(0.9999948143959045,0,0,0.9999948143959045,31.593475341796875,87.40863037109375)" opacity="1" style="display: block;"><g opacity="1" transform="matrix(1,0,0,1,0,0)"><path stroke-linecap="round" stroke-linejoin="round" fill-opacity="0" class="primary" stroke="rgb(42,48,107)" stroke-opacity="1" stroke-width="1" d=" M7.5929999351501465,-28.559999465942383 C-0.08299999684095383,-28.305999755859375 -7.515999794006348,-28.08799934387207 -8.98900032043457,-28.176000595092773"/></g></g><g transform="matrix(0.9999948143959045,0,0,0.9999948143959045,31.593475341796875,87.40863037109375)" opacity="1" style="display: block;"><g opacity="1" transform="matrix(1,0,0,1,0,0)"><path stroke-linecap="round" stroke-linejoin="round" fill-opacity="0" class="primary" stroke="rgb(42,48,107)" stroke-opacity="1" stroke-width="1" d=" M8.451000213623047,8.154000282287598 C0.7749999761581421,8.407999992370605 -6.6579999923706055,8.626999855041504 -8.130999565124512,8.538999557495117"/></g></g><g transform="matrix(0.9999948143959045,0,0,0.9999948143959045,31.593475341796875,87.40863037109375)" opacity="1" style="display: block;"><g opacity="1" transform="matrix(1,0,0,1,0,0)"><path stroke-linecap="round" stroke-linejoin="round" fill-opacity="0" class="primary" stroke="rgb(42,48,107)" stroke-opacity="1" stroke-width="1" d=" M9.555999755859375,44.18899917602539 C1.8799999952316284,44.44300079345703 -5.552999973297119,44.6619987487793 -7.026000022888184,44.57400131225586"/></g></g><g transform="matrix(0.9999948143959045,0,0,0.9999948143959045,116.48902893066406,168.2852020263672)" opacity="1" style="display: block;"><g opacity="1" transform="matrix(1,0,0,1,0,0)"><path stroke-linecap="round" stroke-linejoin="round" fill-opacity="0" class="primary" stroke="rgb(42,48,107)" stroke-opacity="1" stroke-width="1" d=" M7.875,-8.5 C7.875,-7.7270002365112305 8.067999839782715,8.5 7.9770002365112305,8.5 C7.8520002365112305,8.5 0.04399999976158142,-1.2569999694824219 -0.1770000010728836,-1.1629999876022339 C-0.640999972820282,-0.9639999866485596 -7.684999942779541,8.21500015258789 -7.7210001945495605,8.154999732971191 C-8.210000038146973,7.320000171661377 -7.961999893188477,-8.312999725341797 -7.705999851226807,-8.321999549865723"/></g></g><g transform="matrix(0.9999948143959045,0,0,-0.9999948143959045,60.9713249206543,170.89520263671875)" opacity="1" style="display: block;"><g opacity="1" transform="matrix(1,0,0,1,0,0)"><path stroke-linecap="round" stroke-linejoin="round" fill-opacity="0" class="primary" stroke="rgb(42,48,107)" stroke-opacity="1" stroke-width="1" d=" M18.489999771118164,0.057999998331069946 C4.139999866485596,0.06300000101327896 -13.276000022888184,0.04899999871850014 -19.975000381469727,0.017000000923871994"/></g></g><g transform="matrix(0.9999948143959045,0,0,0.9999948143959045,134.82093811035156,63.37675476074219)" opacity="1" style="display: block;"><g opacity="1" transform="matrix(1,0,0,1,0,0)"><path stroke-linecap="round" stroke-linejoin="round" fill-opacity="0" class="primary" stroke="rgb(42,48,107)" stroke-opacity="1" stroke-width="1" d=" M0.9570000171661377,-34.814998626708984 C0.7260000109672546,-21.791000366210938 0.41600000858306885,-3.5869998931884766 0.2409999966621399,4.696000099182129"/></g></g><g transform="matrix(0.9999948143959045,0,0,0.9999948143959045,14.503560066223145,118.77246856689453)" opacity="1" style="display: block;"><g opacity="1" transform="matrix(1,0,0,1,0,0)"><path stroke-linecap="round" stroke-linejoin="round" fill-opacity="0" class="primary" stroke="rgb(42,48,107)" stroke-opacity="1" stroke-width="1" d=" M0.6990000009536743,22.549999237060547 C-0.1599999964237213,-1.2899999618530273 -1.4170000553131104,-35.768001556396484 -1.6119999885559082,-38.77399826049805"/></g></g><g transform="matrix(0.9999948143959045,0,0,0.9999948143959045,14.503560066223145,118.77246856689453)" opacity="1" style="display: block;"><g opacity="1" transform="matrix(1,0,0,1,0,0)"><path stroke-linecap="round" stroke-linejoin="round" fill-opacity="0" class="primary" stroke="rgb(42,48,107)" stroke-opacity="1" stroke-width="1" d=" M1.5440000295639038,40.983001708984375 C1.3389999866485596,35.915000915527344 1.0290000438690186,28.450000762939453 0.9990000128746033,28.719999313354492"/></g></g><g transform="matrix(0.9999948143959045,0,0,0.9999948143959045,81.21221923828125,72.72370910644531)" opacity="1" style="display: block;"><g opacity="1" transform="matrix(1,0,0,1,0,0)"><path stroke-linecap="round" stroke-linejoin="round" fill-opacity="0" class="primary" stroke="rgb(42,48,107)" stroke-opacity="1" stroke-width="0.9985" d=" M-22.381999969482422,15.321000099182129 C-22.56399917602539,15.140000343322754 -22.736000061035156,-15.411999702453613 -22.736000061035156,-15.491999626159668 C-21.687999725341797,-15.491999626159668 22.292999267578125,-15.819999694824219 22.604000091552734,-15.510000228881836 C22.92300033569336,-15.1899995803833 22.378000259399414,12.286999702453613 22.736000061035156,15.369999885559082 C22.791000366210938,15.845000267028809 -22.08799934387207,15.616000175476074 -22.381999969482422,15.321000099182129z"/></g></g><g transform="matrix(0.9999948143959045,0,0,0.9999948143959045,81.21221923828125,77.48567962646484)" opacity="1" style="display: block;"><g opacity="1" transform="matrix(1,0,0,1,0,0)"><path stroke-linecap="round" stroke-linejoin="round" fill-opacity="0" class="primary" stroke="rgb(42,48,107)" stroke-opacity="1" stroke-width="0.9985" d=" M15.204000473022461,-0.1420000046491623 C10.373000144958496,-0.1420000046491623 -8.888999938964844,0.09399999678134918 -15.204000473022461,0.1420000046491623"/></g></g><g transform="matrix(0.9999948143959045,0,0,-0.9999948143959045,81.21221923828125,66.2807388305664)" opacity="1" style="display: block;"><g opacity="1" transform="matrix(1,0,0,1,0,0)"><path stroke-linecap="round" stroke-linejoin="round" fill-opacity="0" class="primary" stroke="rgb(42,48,107)" stroke-opacity="1" stroke-width="1" d=" M15.204000473022461,0.0989999994635582 C14.569999694824219,0.0989999994635582 -13.612000465393066,-0.3140000104904175 -15.204000473022461,0.054999999701976776"/></g></g><g transform="matrix(0.9999948143959045,0,0,0.9999948143959045,159.8640899658203,112.80619049072266)" opacity="1" style="display: block;"><g opacity="1" transform="matrix(1,0,0,1,0,0)"><path stroke-linecap="round" stroke-linejoin="round" fill-opacity="0" class="primary" stroke="rgb(42,48,107)" stroke-opacity="1" stroke-width="1.5" d=" M-8.102999687194824,-24.709999084472656 C-8.48900032043457,-0.828000009059906 -8.432999610900879,42.01599884033203 -8.456000328063965,46.39400100708008 C-2.7920000553131104,46.39400100708008 2.611999988555908,46.67300033569336 7.7230000495910645,46.44300079345703 C8.57800006866455,46.404998779296875 8.612000465393066,0.02199999988079071 8.196000099182129,-25.201000213623047 C8.074999809265137,-32.48899841308594 2.1579999923706055,-45.707000732421875 0.5550000071525574,-46.507999420166016 C-0.8029999732971191,-47.1870002746582 -7.947999954223633,-34.275001525878906 -8.102999687194824,-24.709999084472656z"/></g></g><g transform="matrix(0.9999948143959045,0,0,0.9999948143959045,177.38400268554688,106.34222412109375)" opacity="1" style="display: block;"><g opacity="1" transform="matrix(1,0,0,1,0,0)"><path stroke-linecap="round" stroke-linejoin="round" fill-opacity="0" class="primary" stroke="rgb(42,48,107)" stroke-opacity="1" stroke-width="1" d=" M-0.23899999260902405,20.040000915527344 C-0.23899999260902405,10.619999885559082 0.4410000145435333,-7.4019999504089355 0.08100000023841858,-19.790000915527344"/></g></g><g transform="matrix(0.9999948143959045,0,0,0.9999948143959045,160.08509826660156,86.21332550048828)" opacity="1" style="display: block;"><g opacity="1" transform="matrix(1,0,0,1,0,0)"><path stroke-linecap="round" stroke-linejoin="round" fill-opacity="0" class="primary" stroke="rgb(42,48,107)" stroke-opacity="1" stroke-width="1" d=" M7.447000026702881,-1.0049999952316284 C4.822000026702881,1.3910000324249268 -3.986999988555908,1.9170000553131104 -7.447000026702881,-0.9259999990463257"/></g></g><g transform="matrix(0.9999948143959045,0,0,0.9999948143959045,160.42408752441406,75.53137969970703)" opacity="1" style="display: block;"><g opacity="1" transform="matrix(1,0,0,1,0,0)"><path stroke-linecap="round" stroke-linejoin="round" fill-opacity="0" class="primary" stroke="rgb(42,48,107)" stroke-opacity="1" stroke-width="1" d=" M4.827000141143799,0.2370000034570694 C2.815999984741211,1.097000002861023 -2.3340001106262207,0.39100000262260437 -4.827000141143799,-0.6230000257492065"/></g></g></g></g></svg>