<?xml version="1.0" encoding="UTF-8" standalone="no"?>
<!--?xml version="1.0" encoding="UTF-8" standalone="no" ?-->

<svg
   version="1.1"
   width="346"
   height="366.76630000000006"
   viewBox="-183.25 -226.1563 346 366.76630000000006"
   xml:space="preserve"
   id="svg5"
   sodipodi:docname="2009384.svg"
   xmlns:inkscape="http://www.inkscape.org/namespaces/inkscape"
   xmlns:sodipodi="http://sodipodi.sourceforge.net/DTD/sodipodi-0.dtd"
   xmlns="http://www.w3.org/2000/svg"
   xmlns:svg="http://www.w3.org/2000/svg"><sodipodi:namedview
   id="namedview5"
   pagecolor="#ffffff"
   bordercolor="#000000"
   borderopacity="0.25"
   inkscape:showpageshadow="2"
   inkscape:pageopacity="0.0"
   inkscape:pagecheckerboard="0"
   inkscape:deskcolor="#d1d1d1" />
<desc
   id="desc1">Created by Logonomy.ir</desc>
<defs
   id="defs1">
</defs>


<g
   transform="matrix(1 0 0 1 0 -80.7)"
   style=""
   id="9ff5925f-b6c7-43a8-8d96-cb4385610da1">
		<path
   d="M 76.893841,15.39 H 59.978313 V 13.428086 L 75.506145,13.0692 70.505657,4.384141 Q 68.878704,1.5608988 68.208782,1.6805277 67.610638,1.8001566 67.610638,4.2405863 V 9.0735941 Q 67.275677,8.6190042 67.108196,7.7816019 66.91679,8.2601175 66.91679,8.6190042 q 0,0.5024415 0.191406,1.0288086 -1.220215,-2.8471679 -1.220215,-6.7709961 0,-4.0913085 1.291993,-4.3066406 l 0.741699,-0.047852 q 0.741699,-0.071777 1.435547,0.3349609 0.717773,0.40673828 2.990722,4.1630859 l 2.942871,4.8808594 q 0.406739,0.765625 1.315918,2.4404292 0.502442,0.90918 1.555176,2.72754 l 3.110352,-0.07178 q 1.483398,-0.04785 1.937988,0.861328 l 0.04785,0.215332 0.07178,0.263184 q 0,0.478516 -0.645996,0.693848 l -0.430664,0.239257 -0.885254,0.07178 -1.555176,0.02393 -0.502441,0.02393 q 2.512207,5.50293 2.512207,6.794922 0,0.215332 -0.143555,0.239258 -0.263184,0 -1.363769,-1.722656 z m -2.153321,5.33545 q 0,0.813476 -0.598144,1.387695 -0.574219,0.574219 -1.387695,0.574219 -0.765625,0 -1.36377,-0.598145 -0.598144,-0.598144 -0.598144,-1.363769 0,-0.789551 0.598144,-1.411622 0.598145,-0.598144 1.36377,-0.598144 0.885254,0 1.435547,0.598144 0.550292,0.598145 0.550292,1.411622 z m -3.947753,0 q 0,0.813476 -0.598145,1.387695 -0.574219,0.574219 -1.411621,0.574219 -0.765625,0 -1.36377,-0.598145 -0.598144,-0.598144 -0.598144,-1.363769 0,-0.789551 0.598144,-1.411622 0.598145,-0.598144 1.36377,-0.598144 0.885254,0 1.435547,0.598144 0.574219,0.598145 0.574219,1.411622 z m 1.937988,3.995605 q 0,0.813477 -0.598145,1.387695 -0.574218,0.574219 -1.411621,0.574219 -0.765625,0 -1.363769,-0.598144 -0.598145,-0.598145 -0.598145,-1.36377 0,-0.765625 0.598145,-1.387695 0.598144,-0.598145 1.363769,-0.598145 0.885254,0 1.435547,0.598145 0.574219,0.598144 0.574219,1.387695 z M 45.455364,15.39 v -1.961914 l 1.339844,-0.02393 2.15332,-0.191406 q 3.899903,-0.311035 4.306641,-0.287109 l 2.895019,0.263183 q 0.28711,0 1.124512,0.02393 l 0.933106,0.04785 2.847168,0.16748 V 15.39 Z m 9.235352,-4.76123 0.04785,0.478515 q 0.04785,0.622071 -0.430664,1.244141 -0.478515,0.62207 -1.124511,0.62207 -0.334961,0 -0.717774,-0.263183 -0.861328,-0.574219 -1.100586,-2.8710939 l -0.07178,-0.6938477 -0.02393,-0.8374023 q -0.04785,-2.5839844 0.645996,-5.1679688 1.268067,-4.6894531 2.416504,-4.6894531 l 0.239258,0.071777 q 0.191406,0.023926 0.191406,0.3588867 0,0.16748045 -0.04785,0.28710936 l -0.0957,0.31103515 q -0.119628,0.33496094 -0.382812,0.83740235 -0.813477,1.53125004 -0.813477,6.00537104 0,2.081543 0.191407,2.7514649 0.382812,0.4545898 1.07666,1.5551759 z m -5.455078,9.450683 q 0,-0.406738 0.119629,-0.78955 l 0.16748,-0.28711 q 0.167481,-0.215332 0.287109,-0.358886 0.622071,-0.574219 1.435547,-0.574219 0.813477,0 1.387696,0.574219 0.574218,0.598144 0.574218,1.435546 0,0.765625 -0.598144,1.36377 -0.598145,0.598145 -1.36377,0.598145 -0.78955,0 -1.411621,-0.598145 -0.598144,-0.598145 -0.598144,-1.36377 z m 3.971679,0 q 0,-0.406738 0.119629,-0.78955 l 0.143555,-0.28711 q 0.191406,-0.215332 0.311035,-0.358886 0.62207,-0.574219 1.411621,-0.574219 0.837403,0 1.411621,0.574219 0.574219,0.598144 0.574219,1.435546 0,0.765625 -0.598144,1.36377 -0.598145,0.598145 -1.387696,0.598145 -0.765625,0 -1.387695,-0.598145 -0.598145,-0.598145 -0.598145,-1.36377 z m -8.73291,-0.478515 q -0.119629,1.124512 -1.291992,1.435547 l -0.789551,0.0957 q -0.550293,0 -0.789551,-0.239258 l -0.191406,-0.239258 -0.502441,-0.04785 h -0.358887 l -0.311035,2.751464 q -0.215332,1.770508 -1.196289,2.177247 l -0.215332,0.02393 q -0.645996,0 -1.004883,-1.363769 -0.215332,-0.933106 -0.215332,-1.890137 l 0.02393,-1.148437 0.119629,-0.550293 q -2.631836,0 -5.598633,1.268066 -1.603027,0.693848 -4.856934,2.536133 -2.512207,1.411621 -3.22998,1.411621 -4.234863,0 -4.641602,-0.430664 0,-0.263184 3.110352,-0.765625 1.052734,-0.167481 3.875976,-1.746582 3.277832,-1.866211 5.526856,-2.847168 3.445312,-1.507324 6.172851,-1.507324 0.263184,-1.555176 0.263184,-2.966797 0,-3.97168 -1.124512,-9.1157228 Q 36.339642,2.3265238 35.66972,1.321641 35.119427,0.48423862 35.119427,-0.11390591 q 0,-0.43066406 0.311035,-0.74169922 0.693848,-0.71777347 1.411621,-0.66992187 l 0.239258,0.023926 q 0.957031,0.071777 1.626953,1.67480467 l 0.669922,2.44042973 0.502441,2.3447265 0.334961,1.9619141 0.191406,2.0336914 0.07178,1.5312498 0.0957,5.072266 -0.0957,3.038574 h 0.789551 q 0.07178,-0.02393 0.119628,-0.02393 0.263184,0 0.813477,-0.119629 l 0.90918,-0.0957 h 0.78955 q 0.28711,-0.02393 0.430665,0.311035 0.143554,0.45459 0.143554,0.933106 z M 46.508099,15.39 h -7.010254 v -1.961914 h 7.010254 z M 30.669231,9.8392191 q 0,1.9379879 -2.655761,1.8901369 l -4.761231,-0.07178 q 1.148438,3.780274 1.459473,6.220704 l 0.16748,1.459472 0.07178,1.387696 0.04785,1.937988 0.04785,1.69873 q -1.626953,-6.91455 -3.34961,-10.288086 -1.435546,-2.823242 -1.435546,-3.923828 0,-0.2631833 0.04785,-0.3110349 0.239258,-0.9091797 1.004883,-0.9091797 l 3.660644,0.3828125 0.933106,0.023926 h 0.669922 0.382812 l 0.263184,-0.071777 2.296875,-0.2631836 q 1.148437,0 1.148437,0.8374024 z m -3.85205,-9.37890626 q 0,-0.81347656 0.574218,-1.38769531 0.574219,-0.57421873 1.411621,-0.57421873 0.813477,0 1.387696,0.57421873 0.598144,0.57421875 0.598144,1.38769531 0,0.78955076 -0.62207,1.38769536 -0.598145,0.5981445 -1.36377,0.5981445 -0.813476,0 -1.411621,-0.5742188 Q 26.817181,1.2737894 26.817181,0.46031284 Z M -19.517521,23.572618 q 5.311524,0 9.6181642,-1.220215 4.1630859,-1.172364 7.65625,-4.163086 1.81835933,-1.555176 2.27294918,-1.555176 l 0.14355468,0.16748 q 0,0.311036 -0.52636718,1.196289 -2.05761718,3.541016 -5.31152348,5.239747 -2.8950195,1.53125 -7.2734374,1.985839 l -3.349609,0.311036 -0.933106,0.04785 -2.966797,0.0957 q -2.009765,0.0957 -2.009765,-1.220215 0,-0.885253 2.679687,-0.885253 z m 1.220215,-8.11084 q 0,1.387695 -1.315918,1.387695 -1.268066,0 -1.268066,-1.387695 l -0.430664,0.02393 q -1.124512,0.0957 -1.315918,-1.028808 l -0.02393,-0.0957 v -0.0957 q 0,-0.957032 1.770508,-0.957032 l -0.07178,-7.3212887 -0.263183,0.023926 q -0.980957,0.071777 -1.172364,-1.0527344 0,-0.5263672 0.358887,-0.8613281 0.143555,-0.095703 0.430664,-0.1435547 l 0.717774,-0.047852 q 0,-1.4355468 0.813476,-1.4355468 l 0.263184,0.047851 q 0.980957,0.1196289 1.220215,1.4594727 l 4.59375,-0.071777 5.8139644,-0.1674804 2.512207,-0.023926 2.4404297,-0.095703 q 0.4067383,-0.9809571 0.9091797,-0.9809571 l 0.2392578,0.047852 q 0.550293,0.2631836 0.7895508,0.9331055 0.76562501,0.6220703 0.76562501,1.196289 0,0.3588867 -0.76562501,0.9570313 -0.215332,1.7226562 -0.215332,3.3974609 v 1.0288088 q 0,0.406738 0.071777,1.196289 0.023926,0.382812 0.1196289,1.172363 0.023926,0.167481 0.1674805,0.813477 0.90917968,0.334961 0.90917968,0.909179 0,0.478516 -0.83740238,0.813477 0,1.004883 -1.0766601,1.004883 -0.5263672,0 -0.8613281,-0.717774 l -2.1772461,-0.02393 -3.9477539,-0.0957 -2.6557622,0.0957 z m 15.0014648,-9.8334964 -4.6176758,-0.071777 -3.445312,0.095703 -4.043458,0.1674804 -3.253906,0.095703 0.07178,7.249512 H -3.1522865 Z M -33.155216,20.414414 q 0.02393,1.148438 -0.813477,1.148438 -1.124511,0 -1.411621,-1.698731 l 0.358887,-17.8486324 0.478515,-2.34472654 q 0.215333,-1.05273436 0.406739,-1.17236326 0.215332,0 0.287109,1.60302732 0.04785,1.24414058 0.119629,2.48828128 v 0.6459961 l 0.07178,0.4545898 0.119629,0.9091797 0.0957,3.9716797 0.191407,5.2636723 z m -10.431641,3.541016 q -1.315918,1.770508 -2.249023,2.033691 l -0.382813,0.04785 q -0.382812,0 -0.598144,-0.07178 -0.28711,-0.07178 -0.645996,-0.28711 -0.765625,-0.406738 -0.765625,-0.909179 0,-0.717774 1.24414,-1.459473 5.335449,-3.206055 8.374024,-6.172852 1.507324,-1.483398 2.033691,-1.483398 0.263184,0 0.263184,0.358887 0,0.717773 -1.507325,2.440429 -0.478515,0.526368 -1.07666,1.052735 l -2.009765,1.746582 q -1.81836,1.579101 -2.679688,2.703613 z M -50.022892,0.12535191 q 0.191406,0.45458984 0.191406,0.95703129 0,0.765625 -0.263183,2.0815429 l -0.669922,3.2299805 q -0.526367,2.512207 -0.645996,3.5410156 -0.382813,2.8471678 -1.172364,2.8471678 -0.334961,0 -0.334961,-1.98584 v -0.598144 l 0.382813,-5.813965 q 0,0 -0.263184,-3.42138675 l -0.04785,-0.66992188 q -0.119629,-1.36376957 0.813476,-1.36376957 0.239258,0 0.622071,0.11962895 1.004883,0.33496094 1.387695,1.07666016 z M -50.381779,14.337266 q 0,0.358887 -0.358886,0.717773 Q -51.075626,15.39 -51.458439,15.39 h -7.249512 l -0.02392,2.44043 q -0.02393,1.650879 -1.052735,1.866211 -0.669922,0 -0.980957,-0.502441 -0.0957,-0.28711 -0.16748,-0.574219 l -0.02393,-0.717774 0.0957,-2.512207 h -6.172851 v -1.961914 l 6.172851,-0.119629 0.0957,-4.4262692 -0.04785,-2.8950195 q -0.02393,-1.0527344 -0.119629,-1.6030273 l -0.0957,-0.6938477 -0.04785,-0.2631836 q 0,-0.071777 -0.143555,-0.430664 L -62.05756,0.57994175 q -0.16748,-0.45458984 -0.16748,-0.88525391 0,-1.24414064 1.363769,-1.24414064 0.526367,0 1.07666,0.4067383 0.382813,0.26318359 0.645996,1.24414062 0.215332,0.71777344 0.215332,1.14843748 l 0.07178,1.5073242 0.287109,7.8715822 -0.07178,2.679687 7.20166,0.119629 q 1.052734,0.02393 1.052734,0.90918 z m -9.618164,10.646973 q -0.119629,1.124511 -1.291992,1.435546 l -0.789551,0.0957 q -0.358886,0 -0.741699,-0.191407 -0.502441,-0.239257 -0.717773,-0.287109 -0.478516,-0.04785 -1.459473,-0.04785 l -0.311035,2.751465 q -0.215332,1.770508 -1.196289,2.153321 l -0.215332,0.04785 q -0.645996,0 -1.004883,-1.363769 -0.215332,-0.933106 -0.215332,-1.890137 l 0.02393,-1.148438 0.119629,-0.550293 -13.685547,-0.16748 q -1.961914,-0.02393 -2.368653,-0.04785 -1.98584,-0.0957 -2.272949,-0.382812 0,-0.358887 3.110352,-0.765625 l 2.560058,-0.334961 q 1.172364,-0.167481 3.445313,-0.191406 l 9.570312,-0.191407 q 0.263184,-1.555175 0.263184,-2.966796 0,-3.014649 -0.957031,-7.560547 -2.153321,-10.2880862 -3.038575,-11.5083011 -0.574218,-0.90917965 -0.574218,-1.43554684 0,-0.43066406 0.311035,-0.765625 0.693847,-0.71777346 1.411621,-0.64599609 h 0.239258 q 1.004883,0.0717773 1.626953,1.69873047 l 0.311035,1.12451176 0.358887,1.3159179 0.406738,1.9379883 0.645996,3.5410156 0.62207,3.780273 0.334961,2.583985 0.502442,5.933594 -0.0957,3.038574 1.268066,-0.04785 1.196289,-0.119629 1.052734,-0.07178 h 0.980957 q 0.28711,-0.02393 0.430665,0.311035 0.143554,0.45459 0.143554,0.933106 z M -74.881779,9.8392191 q 0,1.9379879 -2.655761,1.8901369 l -4.761231,-0.07178 q 1.148438,3.780274 1.459473,6.220704 l 0.16748,1.459472 0.07178,1.387696 0.04785,1.937988 0.04785,1.69873 q -1.626953,-6.91455 -3.34961,-10.288086 -1.435547,-2.823242 -1.435547,-3.923828 0,-0.2631833 0.04785,-0.3110349 0.239258,-0.9091797 1.004883,-0.9091797 l 3.660644,0.3828125 0.933106,0.023926 h 0.669922 0.382812 l 0.263184,-0.071777 2.296875,-0.2631836 q 1.148437,0 1.148437,0.8374024 z"
   id="text1"
   style="font-size:49px;direction:rtl;white-space:pre;fill:#d0021b;stroke:#1d4d8d;stroke-width:2"
   aria-label="چين ورس" />
</g>
<g
   transform="matrix(2.17 0 0 2.17 0 -66.9)"
   id="62761221-bbe5-4db8-ad50-0f7b9d2dced5">
<g
   style=""
   vector-effect="non-scaling-stroke"
   id="g2">
		<g
   transform="matrix(1.04 0 0 1.04 0 0)"
   id="layer-1">
<linearGradient
   id="SVGID_3345"
   gradientUnits="objectBoundingBox"
   gradientTransform="matrix(1 0 0 1 0 0)"
   x1="0"
   y1="0"
   x2="0"
   y2="1">
<stop
   offset="0%"
   style="stop-color:#1d3d8d;stop-opacity: 1"
   id="stop1" />
<stop
   offset="100%"
   style="stop-color:#c11217;stop-opacity: 1"
   id="stop2" />
</linearGradient>
<path
   style="stroke: none; stroke-width: 1; stroke-dasharray: none; stroke-linecap: butt; stroke-dashoffset: 0; stroke-linejoin: miter; stroke-miterlimit: 4; fill: url(#SVGID_3345); fill-rule: nonzero; opacity: 1;"
   transform=" translate(-72.35, -70.85)"
   d="M 9.7 85.9 C 6.999999999999999 85.9 4.699999999999999 86.9 2.8999999999999995 88.80000000000001 C 1 90.7 0 93 0 95.7 C 0 98.4 1 100.7 2.8 102.60000000000001 C 4.699999999999999 104.50000000000001 7 105.4 9.6 105.4 C 12.3 105.4 14.5 104.5 16.4 102.60000000000001 C 18.299999999999997 100.70000000000002 19.299999999999997 98.4 19.299999999999997 95.7 C 19.299999999999997 93 18.299999999999997 90.8 16.4 88.9 C 14.5 87.00000000000001 12.4 85.9 9.7 85.9 M 116.2 29 C 126 27.1 134.4 25.7 141.4 24.9 C 107.9 24.299999999999997 79.2 28.7 55.10000000000001 38.2 C 43.10000000000001 42.900000000000006 34.400000000000006 47.7 29.000000000000007 52.6 C 29.60000000000001 44.400000000000006 40.00000000000001 33.2 60.2 18.9 C 70.2 11.799999999999999 80.2 5.499999999999998 90.2 0 C 56.400000000000006 14.2 33.2 28.2 20.5 41.9 C 10.4 52.9 7.199999999999999 63.5 10.9 73.6 C 13.600000000000001 80.89999999999999 19.6 87.6 28.9 93.69999999999999 C 33.6 96.79999999999998 38 99.1 42.099999999999994 100.69999999999999 C 26.4 88.2 21.9 76.5 28.6 65.8 C 34 57.199999999999996 46.400000000000006 49.4 65.9 42.3 C 79.9 37.2 96.6 32.8 116.2 29 M 106.5 42.6 L 102.6 40.800000000000004 C 118.3 53.300000000000004 122.8 65 116 75.80000000000001 C 110.6 84.4 98.2 92.20000000000002 78.7 99.30000000000001 C 64.8 104.30000000000001 48 108.80000000000001 28.5 112.60000000000001 C 18.7 114.50000000000001 10.3 115.9 3.3000000000000007 116.80000000000001 C 36.7 117.4 65.5 113.00000000000001 89.6 103.50000000000001 C 101.69999999999999 98.80000000000001 110.39999999999999 94.00000000000001 115.69999999999999 89.10000000000001 C 115.1 97.30000000000001 104.69999999999999 108.5 84.49999999999999 122.80000000000001 C 74.39999999999999 129.9 64.39999999999998 136.20000000000002 54.399999999999984 141.70000000000002 C 88.19999999999999 127.50000000000001 111.39999999999998 113.50000000000001 124.1 99.80000000000001 C 134.2 88.80000000000001 137.4 78.20000000000002 133.79999999999998 68.10000000000001 C 131.1 60.80000000000001 125.09999999999998 54.10000000000001 115.79999999999998 48.00000000000001 C 112.8 45.9 109.7 44.2 106.5 42.6 M 134.9 36.1 C 132.20000000000002 36.1 130 37.1 128.1 39 C 126.19999999999999 40.9 125.19999999999999 43.2 125.19999999999999 45.9 C 125.19999999999999 48.599999999999994 126.19999999999999 50.9 128.1 52.8 C 130 54.699999999999996 132.29999999999998 55.599999999999994 134.9 55.599999999999994 C 137.50000000000003 55.599999999999994 139.8 54.699999999999996 141.8 52.8 C 143.8 50.9 144.70000000000002 48.599999999999994 144.70000000000002 45.9 C 144.70000000000002 43.2 143.8 40.9 141.8 39 C 139.8 37.1 137.6 36.1 134.9 36.1 z"
   stroke-linecap="round"
   id="path2" />
</g>
</g>
</g>
<g
   transform="matrix(1 0 0 1 -10.25 122.03)"
   style="filter: url(#SVGID_3346);"
   id="48c896d2-666b-4bd3-b8b1-9cd0a00c5db2">
<linearGradient
   id="SVGID_3347"
   gradientUnits="objectBoundingBox"
   gradientTransform="matrix(1 0 0 1 0 0)"
   x1="0"
   y1="1"
   x2="1"
   y2="1">
<stop
   offset="0%"
   style="stop-color:#4e3069;"
   id="stop3" />
<stop
   offset="100%"
   style="stop-color:#8d203d;"
   id="stop4" />
</linearGradient>
<filter
   id="SVGID_3346"
   y="-0.70644391"
   height="2.7947494"
   x="-0.057071243"
   width="1.1449918">
	<feGaussianBlur
   in="SourceAlpha"
   stdDeviation="7.5"
   id="feGaussianBlur4" />
	<feOffset
   dx="10"
   dy="10"
   result="oBlur"
   id="feOffset4" />
	<feFlood
   flood-color="rgb(109,40,83)"
   flood-opacity="1"
   id="feFlood4" />
	<feComposite
   in2="oBlur"
   operator="in"
   id="feComposite4" />
	<feMerge
   id="feMerge5">
		<feMergeNode
   id="feMergeNode4" />
		<feMergeNode
   in="SourceGraphic"
   id="feMergeNode5" />
	</feMerge>
</filter>
		<path
   d="m 162.05624,4.9875002 q 0,2.046875 -1.04687,3.46875 Q 159.85312,10.05 157.86874,10.05 h -0.1875 V 8.2687502 h 0.1875 q 1.5,0 2.65625,-1.015625 0.95313,-0.84375 0.95313,-1.390625 0,-1.6875 -1.125,-4.0625 -0.875,-1.85937501 -1.60938,-2.68750001 l 2.40625,1.46875 q 0.90625,2.40625001 0.90625,4.40625001 z m 0.28125,8.4062498 q 0,1.15625 -1.14062,1.15625 -0.48438,0 -0.82813,-0.34375 -0.32812,-0.328125 -0.32812,-0.8125 0,-1.140625 1.15625,-1.140625 0.46875,0 0.79687,0.328125 0.34375,0.34375 0.34375,0.8125 z M 158.05624,10.05 h -0.1875 q -1.76562,0 -3.17187,-1.7812498 -0.8125,-1.03125 -1.125,-2.890625 -0.17188,-1.046875 -0.3125,-4.09375 l -0.4375,-9.6875 1.73437,1.546875 0.17188,10.09375 q 0,0.78125 0,1.96875 0.0312,1.1875 0.5,1.84375 0.875,1.21875 2.64062,1.21875 h 0.1875 z m -13.65625,-3.4218748 -0.67187,1.859375 Q 139.63437,10.05 135.89999,10.05 h -0.1875 V 8.2687502 h 0.1875 q 2.65625,0 4.625,-0.4375 -0.45312,-0.75 -0.45312,-1.65625 0,-0.75 0.5,-2.28125 0.5,-1.546875 0.5,-2.234375 0,-0.75000001 -0.32813,-1.64062501 -0.42187,-1.12499999 -1.01562,-1.12499999 -1.42188,0.64062499 -3.82813,3.140625 l 0.65625,-2.26562501 q 1.5,-1.31249999 3.01563,-1.31249999 1.35937,0 2.23437,1.06249999 0.84375,1 0.84375,2.37500001 0,0.703125 -0.57812,2.140625 -0.5625,1.4375 -0.5625,2 0,1.28125 0.90625,1.28125 0.76562,0 1.98437,-0.6875 z m -1.17187,6.7656248 q 0,1.15625 -1.14063,1.15625 -0.48437,0 -0.82812,-0.34375 -0.32813,-0.328125 -0.32813,-0.8125 0,-1.140625 1.15625,-1.140625 0.46875,0 0.79688,0.328125 0.34375,0.34375 0.34375,0.8125 z m -3.21875,0 q 0,1.15625 -1.14063,1.15625 -0.48437,0 -0.82812,-0.34375 -0.32813,-0.328125 -0.32813,-0.8125 0,-1.140625 1.15625,-1.140625 0.46875,0 0.79688,0.328125 0.34375,0.34375 0.34375,0.8125 z m 1.60937,3.25 q 0,0.46875 -0.34375,0.796875 -0.32812,0.34375 -0.79687,0.34375 -1.15625,0 -1.15625,-1.140625 0,-0.484375 0.32812,-0.828125 0.34375,-0.328125 0.82813,-0.328125 1.14062,0 1.14062,1.15625 z M 136.02499,10.05 h -0.1875 q -1.125,0 -2.10937,-1.0624998 -0.75,-0.8125 -1.03125,-2.140625 -0.42188,1.171875 -0.98438,1.8125 Q 130.49374,10.05 128.91562,10.05 h -0.1875 V 8.2687502 h 0.1875 q 0.85937,0 1.82812,-0.59375 1.59375,-0.984375 1.59375,-2.546875 0,-1.015625 -0.0937,-3.0625 -0.0937,-2.04687501 -0.0937,-3.06250001 l 1.57813,1.359375 q -0.25,2.67187501 -0.25,3.59375001 0,1.90625 0.1875,2.65625 0.10937,0.453125 0.5,0.96875 0.51562,0.6875 1.67187,0.6875 h 0.1875 z m -0.78125,3.34375 q 0,1.15625 -1.14062,1.15625 -0.48438,0 -0.82813,-0.34375 -0.32812,-0.328125 -0.32812,-0.8125 0,-1.140625 1.15625,-1.140625 0.46875,0 0.79687,0.328125 0.34375,0.34375 0.34375,0.8125 z m -3.21875,0 q 0,1.15625 -1.14062,1.15625 -0.48438,0 -0.82813,-0.34375 -0.32812,-0.328125 -0.32812,-0.8125 0,-1.140625 1.15625,-1.140625 0.46875,0 0.79687,0.328125 0.34375,0.34375 0.34375,0.8125 z M 129.10312,10.05 h -0.1875 q -1.98438,0 -2.875,-1.5624998 -0.20313,2.4687498 -0.625,3.2343748 -0.51563,0.9375 -2.84375,1.828125 -2.78125,1.0625 -6.20313,1.0625 -3.26562,0 -5.90625,-1.375 -3.26562,-1.703125 -3.26562,-4.6874998 0,-2.140625 1.875,-3.484375 1.6875,-1.21875 3.90625,-1.21875 1.5,0 3.25,0.453125 l 1.0625,1.953125 q -2.60938,-1.78125 -4.70313,-1.78125 -1.53125,0 -2.57812,0.828125 -1.14063,0.890625 -1.14063,2.390625 0,3.0937498 3.46875,4.4374998 2.42188,0.9375 6.07813,0.9375 3.84375,0 6.59375,-1.59375 0.0156,-0.609375 0.0156,-1.21875 0,-4.2812498 -0.875,-7.2656248 l 1.375,-1.46875 q 0.21875,0.640625 0.5625,2.984375 0.3125,2.125 0.53125,2.59375 0.54688,1.171875 2.29688,1.171875 h 0.1875 z m -9.8125,-11.7343748 q 0,1.15624999 -1.14063,1.15624999 -0.48437,0 -0.82812,-0.328125 -0.32813,-0.34374999 -0.32813,-0.82812499 0,-1.140625 1.15625,-1.140625 0.46875,0 0.79688,0.34375 0.34375,0.328125 0.34375,0.796875 z m -20.390626,5.984375 q 0,3.703125 -1.09375,6.7812498 -0.703125,1.984375 -1.59375,3.09375 l -2.796875,0.9375 q 1.640625,-2.140625 1.90625,-2.578125 1.5,-2.40625 2,-5.2187498 -0.90625,0.578125 -1.59375,0.578125 -1.453125,0 -2.125,-1.578125 -0.5,-1.171875 -0.5,-2.8125 0,-2.015625 1.09375,-3.40625001 0.859375,-1.09375 1.53125,-1.09375 1.421875,0 2.359375,1.84375 0.8125,1.60937501 0.8125,3.45312501 z m -1.3125,0 q 0,-2.25 -0.703125,-3.60937501 -0.546875,-1.0625 -1.046875,-1.0625 -1.421875,0.96875 -1.421875,4.40625001 0,2.84375 0.71875,2.84375 0.65625,0 1.453125,-0.6875 l 0.8125,0.625 q 0.1875,-1.3125 0.1875,-2.515625 z M 91.056244,0.39375019 Q 91.118744,7.0343752 90.603119,9.3468752 89.946869,12.3 88.540619,14.159375 l -2.71875,0.796875 q 0.671875,-0.796875 1.3125,-1.765625 2.625,-3.9999998 2.625,-9.2968748 0,-1.359375 -0.125,-2.484375 z m -6.375,4.98437501 q 0,1.1875 -0.6875,2.296875 -0.796875,1.28125 -1.90625,1.28125 -0.921875,0 -1.6875,-0.640625 -0.765625,-0.65625 -1,-1.578125 -0.140625,0.765625 -0.703125,1.46875 -0.6875,0.859375 -1.59375,0.859375 -1.34375,0 -2.1875,-1.125 -0.109375,1.5 -0.578125,3.7031248 -0.453125,0.90625 -3.015625,1.90625 -2.96875,1.15625 -6.21875,1.15625 -2.984375,0 -5.5,-1.296875 -3.09375,-1.59375 -3.09375,-4.3124998 0,-2.21875 1.96875,-3.546875 1.71875,-1.15625 4.046875,-1.15625 1.25,0 2.71875,0.328125 l 1.0625,1.9375 q -2.5,-1.640625 -4.703125,-1.640625 -1.078125,0 -1.984375,0.53125 -1.4375,0.84375 -1.4375,2.6875 0,2.6406248 2.953125,3.9374998 2.203125,0.96875 5.203125,0.96875 4.6875,0 7.59375,-1.8125 0.04687,-0.53125 0.04687,-1.09375 0,-4.5312498 -2.0625,-9.1562498 l 1.3125,-1.57812501 q 0.46875,1.03125 1.21875,4.35937501 0.59375,2.65625 1.296875,3.234375 0.53125,0.4375 1.203125,0.4375 1.96875,0 1.96875,-2.65625 0,-0.546875 -0.5,-5.60937501 l 1.484375,1.1875 V 5.1593752 q 0,2.265625 1.5,2.265625 1.1875,0 1.984375,-0.703125 0.640625,-0.5625 0.640625,-1.078125 0,-1.140625 -1.21875,-3.59375 -0.9375,-1.89062501 -1.734375,-3.01562501 l 2.515625,1.421875 q 1.09375,2.56250001 1.09375,4.92187501 z m -36.75,-4.98437501 Q 47.993744,7.0343752 47.478119,9.3468752 46.821869,12.3 45.415619,14.159375 l -2.71875,0.796875 q 0.671875,-0.796875 1.3125,-1.765625 2.625,-3.9999998 2.625,-9.2968748 0,-1.359375 -0.125,-2.484375 z m 0.28125,-2.15624999 q 0,1.15624999 -1.140625,1.15624999 -0.484375,0 -0.828125,-0.328125 -0.328125,-0.34374999 -0.328125,-0.82812499 0,-1.140625 1.15625,-1.140625 0.46875,0 0.796875,0.34375 0.34375,0.328125 0.34375,0.796875 z m -7,6.75 q 0,2.046875 -1.046875,3.46875 Q 39.009369,10.05 37.024994,10.05 h -0.1875 V 8.2687502 h 0.1875 q 1.5,0 2.65625,-1.015625 0.953125,-0.84375 0.953125,-1.390625 0,-1.6875 -1.125,-4.0625 -0.875,-1.85937501 -1.609375,-2.68750001 l 2.40625,1.46875 q 0.90625,2.40625001 0.90625,4.40625001 z m 0.28125,8.4062498 q 0,1.15625 -1.140625,1.15625 -0.484375,0 -0.828125,-0.34375 -0.328125,-0.328125 -0.328125,-0.8125 0,-1.140625 1.15625,-1.140625 0.46875,0 0.796875,0.328125 0.34375,0.34375 0.34375,0.8125 z M 37.212494,10.05 h -0.1875 q -1.765625,0 -3.171875,-1.7812498 -0.8125,-1.03125 -1.125,-2.890625 -0.171875,-1.046875 -0.3125,-4.09375 l -0.4375,-9.6875 1.734375,1.546875 0.171875,10.09375 q 0,0.78125 0,1.96875 0.03125,1.1875 0.5,1.84375 0.875,1.21875 2.640625,1.21875 h 0.1875 z m -7.875,-9.46874981 q 0.59375,2.57812501 0.59375,5.48437501 0,3.46875 -0.703125,4.7187498 -0.53125,0.953125 -2.84375,1.828125 -2.796875,1.0625 -6.203125,1.0625 -3.265625,0 -5.90625,-1.375 -3.265625,-1.703125 -3.265625,-4.6874998 0,-2.140625 1.875,-3.484375 1.6875,-1.21875 3.90625,-1.21875 1.5,0 3.25,0.453125 l 1.0625,1.953125 q -2.609375,-1.78125 -4.703125,-1.78125 -1.53125,0 -2.578125,0.828125 -1.140625,0.890625 -1.140625,2.390625 0,3.09375 3.46875,4.4374998 2.421875,0.9375 6.078125,0.9375 3.84375,0 6.59375,-1.59375 0.01563,-0.6093748 0.01563,-1.2187498 0,-4.28125 -0.875,-7.265625 z M 23.103119,-1.6843748 q 0,1.15624999 -1.140625,1.15624999 -0.484375,0 -0.828125,-0.328125 -0.328125,-0.34374999 -0.328125,-0.82812499 0,-1.140625 1.15625,-1.140625 0.46875,0 0.796875,0.34375 0.34375,0.328125 0.34375,0.796875 z m -20.5156251,8.3125 -0.671875,1.859375 Q -2.1781311,10.05 -5.9125061,10.05 h -0.1875 V 8.2687502 h 0.1875 q 2.65625,0 4.625,-0.4375 -0.453125,-0.75 -0.453125,-1.65625 0,-0.75 0.5,-2.28125 0.5,-1.546875 0.5,-2.234375 0,-0.75000001 -0.328125,-1.64062501 -0.421875,-1.12499999 -1.015625,-1.12499999 -1.421875,0.64062499 -3.828125,3.140625 l 0.65625,-2.26562501 q 1.5,-1.31249999 3.015625,-1.31249999 1.359375,0 2.234375,1.06249999 0.84375,1 0.84375,2.37500001 0,0.703125 -0.578125,2.140625 -0.5625,1.4375 -0.5625,2 0,1.28125 0.90625,1.28125 0.765625,0 1.984375,-0.6875 z M 1.4156189,13.39375 q 0,1.15625 -1.140625,1.15625 -0.484375,0 -0.828125,-0.34375 -0.328125,-0.328125 -0.328125,-0.8125 0,-1.140625 1.15625,-1.140625 0.46875,0 0.796875,0.328125 0.34375,0.34375 0.34375,0.8125 z m -3.21875,0 q 0,1.15625 -1.140625,1.15625 -0.484375,0 -0.828125,-0.34375 -0.328125,-0.328125 -0.328125,-0.8125 0,-1.140625 1.15625,-1.140625 0.46875,0 0.796875,0.328125 0.34375,0.34375 0.34375,0.8125 z m 1.609375,3.25 q 0,0.46875 -0.34375,0.796875 -0.328125,0.34375 -0.796875,0.34375 -1.15625,0 -1.15625,-1.140625 0,-0.484375 0.328125,-0.828125 0.34375,-0.328125 0.828125,-0.328125 1.140625,0 1.140625,1.15625 z M -5.7875061,10.05 h -0.1875 q -1.125,0 -2.109375,-1.0624998 -0.75,-0.8125 -1.03125,-2.140625 -0.421875,1.171875 -0.9843749,1.8125 Q -11.318756,10.05 -12.896881,10.05 h -0.1875 V 8.2687502 h 0.1875 q 0.859375,0 1.828125,-0.59375 1.5937499,-0.984375 1.5937499,-2.546875 0,-1.015625 -0.09375,-3.0625 -0.09375,-2.04687501 -0.09375,-3.06250001 l 1.578125,1.359375 q -0.25,2.67187501 -0.25,3.59375001 0,1.90625 0.1875,2.65625 0.109375,0.453125 0.5,0.96875 0.515625,0.6875 1.671875,0.6875 h 0.1875 z m -0.78125,3.34375 q 0,1.15625 -1.140625,1.15625 -0.484375,0 -0.828125,-0.34375 -0.328125,-0.328125 -0.328125,-0.8125 0,-1.140625 1.15625,-1.140625 0.46875,0 0.796875,0.328125 0.34375,0.34375 0.34375,0.8125 z m -3.21875,0 q 0,1.15625 -1.1406249,1.15625 -0.484375,0 -0.828125,-0.34375 -0.328125,-0.328125 -0.328125,-0.8125 0,-1.140625 1.15625,-1.140625 0.46875,0 0.796875,0.328125 0.3437499,0.34375 0.3437499,0.8125 z M -12.740631,10.05 h -0.1875 q -1.125,0 -2.109375,-1.0624998 -0.75,-0.8125 -1.03125,-2.140625 -0.421875,1.171875 -0.984375,1.8125 Q -18.271881,10.05 -19.850006,10.05 h -0.1875 V 8.2687502 h 0.1875 q 0.859375,0 1.828125,-0.59375 1.59375,-0.984375 1.59375,-2.546875 0,-1.015625 -0.09375,-3.0625 -0.09375,-2.04687501 -0.09375,-3.06250001 l 1.578125,1.359375 q -0.25,2.67187501 -0.25,3.59375001 0,1.90625 0.1875,2.65625 0.109375,0.453125 0.5,0.96875 0.515625,0.6875 1.671875,0.6875 h 0.1875 z m -2.1875,-14.7031248 q 0,1.15625 -1.140625,1.15625 -0.484375,0 -0.828125,-0.328125 -0.328125,-0.34375 -0.328125,-0.828125 0,-1.140625 1.15625,-1.140625 0.46875,0 0.796875,0.34375 0.34375,0.328125 0.34375,0.796875 z M -19.662506,10.05 h -0.1875 q -1.484375,0 -3.265625,-0.7812498 -0.8125,-0.359375 -2.71875,-1.46875 -1.34375,-0.78125 -1.75,-0.78125 -0.390625,0 -0.390625,0.265625 0,0.078125 2.765625,1.890625 2.78125,1.8124998 2.78125,2.4062498 0,0.75 -2.53125,1.734375 -2.921875,1.140625 -6.34375,1.140625 -3.625,0 -6.546875,-1.40625 -3.71875,-1.796875 -3.71875,-5.0468748 0,-2.140625 1.875,-3.484375 1.6875,-1.21875 3.90625,-1.21875 1.5,0 3.25,0.453125 l 1.0625,1.953125 q -2.609375,-1.78125 -4.703125,-1.78125 -1.53125,0 -2.578125,0.828125 -1.140625,0.890625 -1.140625,2.390625 0,3.1249998 3.84375,4.7187498 2.890625,1.203125 6.46875,1.203125 3.46875,0 5.875,-1.015625 -1.015625,-0.921875 -3.5625,-2.5937498 -1.90625,-1.25 -1.90625,-1.671875 0,-0.5625 0.734375,-0.921875 0.609375,-0.3125 1.234375,-0.3125 0.859375,0 3.375,0.859375 2.53125,0.859375 3.984375,0.859375 h 0.1875 z M -49.865631,0.39375019 q 0.0625,6.64062501 -0.453125,8.95312501 -0.65625,2.9531248 -2.0625,4.8124998 l -2.71875,0.796875 q 0.671875,-0.796875 1.3125,-1.765625 2.625,-3.9999998 2.625,-9.2968748 0,-1.359375 -0.125,-2.484375 z m -6.375,3.90625001 q 0,3.703125 -1.09375,6.7812498 -0.703125,1.984375 -1.59375,3.09375 l -2.796875,0.9375 q 1.640625,-2.140625 1.90625,-2.578125 1.5,-2.40625 2,-5.2187498 -0.90625,0.578125 -1.59375,0.578125 -1.453125,0 -2.125,-1.578125 -0.5,-1.171875 -0.5,-2.8125 0,-2.015625 1.09375,-3.40625001 0.859375,-1.09375 1.53125,-1.09375 1.421875,0 2.359375,1.84375 0.8125,1.60937501 0.8125,3.45312501 z m -1.3125,0 q 0,-2.25 -0.703125,-3.60937501 -0.546875,-1.0625 -1.046875,-1.0625 -1.421875,0.96875 -1.421875,4.40625001 0,2.84375 0.71875,2.84375 0.65625,0 1.453125,-0.6875 l 0.8125,0.625 q 0.1875,-1.3125 0.1875,-2.515625 z m -13.0625,-3.90625001 q 0.0625,6.64062501 -0.453125,8.95312501 -0.65625,2.9531248 -2.0625,4.8124998 l -2.71875,0.796875 q 0.671875,-0.796875 1.3125,-1.765625 2.625,-3.9999998 2.625,-9.2968748 0,-1.359375 -0.125,-2.484375 z m 0.28125,-2.15624999 q 0,1.15624999 -1.140625,1.15624999 -0.484375,0 -0.828125,-0.328125 -0.328125,-0.34374999 -0.328125,-0.82812499 0,-1.140625 1.15625,-1.140625 0.46875,0 0.796875,0.34375 0.34375,0.328125 0.34375,0.796875 z m -6.6875,6.75 q 0,2.046875 -1.046875,3.46875 Q -79.225006,10.05 -81.209381,10.05 h -0.1875 V 8.2687502 h 0.1875 q 1.5,0 2.65625,-1.015625 0.953125,-0.84375 0.953125,-1.390625 0,-1.6875 -1.125,-4.0625 -0.875,-1.85937501 -1.609375,-2.68750001 l 2.40625,1.46875 q 0.90625,2.40625001 0.90625,4.40625001 z m -0.984375,-9.640625 q 0,1.15625 -1.140625,1.15625 -0.484375,0 -0.828125,-0.328125 -0.328125,-0.34375 -0.328125,-0.828125 0,-1.140625 1.15625,-1.140625 0.46875,0 0.796875,0.34375 0.34375,0.328125 0.34375,0.796875 z M -81.115631,10.05 h -0.1875 q -2.3125,0 -2.921875,-2.5156248 -0.09375,0.390625 -0.359375,1.046875 -0.578125,0.78125 -2.390625,1.6406248 -1.921875,0.921875 -3.28125,0.921875 -1.6875,0 -1.8125,-0.984375 l 0.109375,-1.8281248 q 0.6875,1.03125 2.1875,1.03125 1.484375,0 3.25,-0.84375 1.9375,-0.921875 1.9375,-1.96875 0,-0.734375 -1.234375,-2.890625 -1,-1.75 -1.796875,-2.79687501 l 0.9375,-1.46875 q 1.25,1.78125001 2.15625,4.09375001 0.390625,1.03125 1.421875,3.703125 0.421875,1.078125 1.796875,1.078125 h 0.1875 z m -12.125,-17.1562498 -8.359379,4.078125 v -0.71875 l 8.359379,-4.0625 z m -0.0625,2.09375 -6.34375,3.15625 q 2.59375,1.20312499 4.421875,3.515625 1.6875,2.125 1.6875,3.953125 0,2.71875 -4.390625,3.890625 Q -99.975006,10.05 -101.69376,10.05 h -0.1875 V 8.2687502 h 0.1875 q 1.64063,0 4.078129,-0.453125 3.25,-0.625 3.25,-1.546875 0,-0.875 -1.53125,-2.890625 -2.15625,-2.84375001 -5.749999,-4.17187501 l 0.0156,-1.59374999 8.328129,-4.09375 z M -101.50626,10.05 h -0.1875 q -1.48437,0 -3.26562,-0.7812498 -0.8125,-0.359375 -2.71875,-1.46875 -1.34375,-0.78125 -1.75,-0.78125 -0.39063,0 -0.39063,0.265625 0,0.078125 2.76563,1.890625 2.78125,1.8124998 2.78125,2.4062498 0,0.75 -2.53125,1.734375 -2.92188,1.140625 -6.34375,1.140625 -3.625,0 -6.54688,-1.40625 -3.71875,-1.796875 -3.71875,-5.0468748 0,-2.140625 1.875,-3.484375 1.6875,-1.21875 3.90625,-1.21875 1.5,0 3.25,0.453125 l 1.0625,1.953125 q -2.60937,-1.78125 -4.70312,-1.78125 -1.53125,0 -2.57813,0.828125 -1.14062,0.890625 -1.14062,2.390625 0,3.1249998 3.84375,4.7187498 2.89062,1.203125 6.46875,1.203125 3.46875,0 5.875,-1.015625 -1.01563,-0.921875 -3.5625,-2.5937498 -1.90625,-1.25 -1.90625,-1.671875 0,-0.5625 0.73437,-0.921875 0.60938,-0.3125 1.23438,-0.3125 0.85937,0 3.375,0.859375 2.53125,0.859375 3.98437,0.859375 h 0.1875 z m -30.20312,-15.0624998 -6.34375,3.15625 q 2.59375,1.20312499 4.42187,3.515625 1.6875,2.125 1.6875,3.953125 0,2.71875 -4.39062,3.890625 Q -138.38126,10.05 -140.10001,10.05 h -0.1875 V 8.2687502 h 0.1875 q 1.64063,0 4.07813,-0.453125 3.25,-0.625 3.25,-1.546875 0,-0.875 -1.53125,-2.890625 -2.15625,-2.84375001 -5.75,-4.17187501 l 0.0156,-1.59374999 8.32813,-4.09375 z M -139.91251,10.05 h -0.1875 q -1.98437,0 -2.875,-1.5624998 -0.20312,2.4687498 -0.625,3.2343748 -0.51562,0.9375 -2.84375,1.828125 -2.78125,1.0625 -6.20312,1.0625 -3.26563,0 -5.90625,-1.375 -3.26563,-1.703125 -3.26563,-4.6874998 0,-2.140625 1.875,-3.484375 1.6875,-1.21875 3.90625,-1.21875 1.5,0 3.25,0.453125 l 1.0625,1.953125 q -2.60937,-1.78125 -4.70312,-1.78125 -1.53125,0 -2.57813,0.828125 -1.14062,0.890625 -1.14062,2.390625 0,3.0937498 3.46875,4.4374998 2.42187,0.9375 6.07812,0.9375 3.84375,0 6.59375,-1.59375 0.0156,-0.609375 0.0156,-1.21875 0,-4.2812498 -0.875,-7.2656248 l 1.375,-1.46875 q 0.21875,0.640625 0.5625,2.984375 0.3125,2.125 0.53125,2.59375 0.54687,1.171875 2.29687,1.171875 h 0.1875 z m -9.8125,-11.7343748 q 0,1.15624999 -1.14062,1.15624999 -0.48438,0 -0.82813,-0.328125 -0.32812,-0.34374999 -0.32812,-0.82812499 0,-1.140625 1.15625,-1.140625 0.46875,0 0.79687,0.34375 0.34375,0.328125 0.34375,0.796875 z"
   id="text5"
   style="font-size:32px;direction:rtl;white-space:pre;fill:url(#SVGID_3347);stroke:#ffffff;stroke-opacity:0"
   aria-label="با چین ورس زبان چینی رو زندگی کن" />
</g>
</svg>
