<?xml version="1.0" encoding="UTF-8" standalone="no"?>
<!--?xml version="1.0" encoding="UTF-8" standalone="no" ?-->

<svg
   version="1.1"
   width="325.5"
   height="318.5126"
   viewBox="-162.75 -226.1563 325.5 318.5126"
   xml:space="preserve"
   id="svg2"
   sodipodi:docname="2009384.svg"
   xmlns:inkscape="http://www.inkscape.org/namespaces/inkscape"
   xmlns:sodipodi="http://sodipodi.sourceforge.net/DTD/sodipodi-0.dtd"
   xmlns="http://www.w3.org/2000/svg"
   xmlns:svg="http://www.w3.org/2000/svg"><sodipodi:namedview
   id="namedview2"
   pagecolor="#ffffff"
   bordercolor="#000000"
   borderopacity="0.25"
   inkscape:showpageshadow="2"
   inkscape:pageopacity="0.0"
   inkscape:pagecheckerboard="0"
   inkscape:deskcolor="#d1d1d1" />
<desc
   id="desc1">Created by Logonomy.ir</desc>
<defs
   id="defs1">
</defs>


<g
   transform="matrix(1 0 0 1 0 -80.7)"
   style=""
   id="9ff5925f-b6c7-43a8-8d96-cb4385610da1">
		<path
   d="M 76.893841,15.39 H 59.978313 V 13.428086 L 75.506145,13.0692 70.505657,4.384141 Q 68.878704,1.5608988 68.208782,1.6805277 67.610638,1.8001566 67.610638,4.2405863 V 9.0735941 Q 67.275677,8.6190042 67.108196,7.7816019 66.91679,8.2601175 66.91679,8.6190042 q 0,0.5024415 0.191406,1.0288086 -1.220215,-2.8471679 -1.220215,-6.7709961 0,-4.0913085 1.291993,-4.3066406 l 0.741699,-0.047852 q 0.741699,-0.071777 1.435547,0.3349609 0.717773,0.40673828 2.990722,4.1630859 l 2.942871,4.8808594 q 0.406739,0.765625 1.315918,2.4404292 0.502442,0.90918 1.555176,2.72754 l 3.110352,-0.07178 q 1.483398,-0.04785 1.937988,0.861328 l 0.04785,0.215332 0.07178,0.263184 q 0,0.478516 -0.645996,0.693848 l -0.430664,0.239257 -0.885254,0.07178 -1.555176,0.02393 -0.502441,0.02393 q 2.512207,5.50293 2.512207,6.794922 0,0.215332 -0.143555,0.239258 -0.263184,0 -1.363769,-1.722656 z m -2.153321,5.33545 q 0,0.813476 -0.598144,1.387695 -0.574219,0.574219 -1.387695,0.574219 -0.765625,0 -1.36377,-0.598145 -0.598144,-0.598144 -0.598144,-1.363769 0,-0.789551 0.598144,-1.411622 0.598145,-0.598144 1.36377,-0.598144 0.885254,0 1.435547,0.598144 0.550292,0.598145 0.550292,1.411622 z m -3.947753,0 q 0,0.813476 -0.598145,1.387695 -0.574219,0.574219 -1.411621,0.574219 -0.765625,0 -1.36377,-0.598145 -0.598144,-0.598144 -0.598144,-1.363769 0,-0.789551 0.598144,-1.411622 0.598145,-0.598144 1.36377,-0.598144 0.885254,0 1.435547,0.598144 0.574219,0.598145 0.574219,1.411622 z m 1.937988,3.995605 q 0,0.813477 -0.598145,1.387695 -0.574218,0.574219 -1.411621,0.574219 -0.765625,0 -1.363769,-0.598144 -0.598145,-0.598145 -0.598145,-1.36377 0,-0.765625 0.598145,-1.387695 0.598144,-0.598145 1.363769,-0.598145 0.885254,0 1.435547,0.598145 0.574219,0.598144 0.574219,1.387695 z M 45.455364,15.39 v -1.961914 l 1.339844,-0.02393 2.15332,-0.191406 q 3.899903,-0.311035 4.306641,-0.287109 l 2.895019,0.263183 q 0.28711,0 1.124512,0.02393 l 0.933106,0.04785 2.847168,0.16748 V 15.39 Z m 9.235352,-4.76123 0.04785,0.478515 q 0.04785,0.622071 -0.430664,1.244141 -0.478515,0.62207 -1.124511,0.62207 -0.334961,0 -0.717774,-0.263183 -0.861328,-0.574219 -1.100586,-2.8710939 l -0.07178,-0.6938477 -0.02393,-0.8374023 q -0.04785,-2.5839844 0.645996,-5.1679688 1.268067,-4.6894531 2.416504,-4.6894531 l 0.239258,0.071777 q 0.191406,0.023926 0.191406,0.3588867 0,0.16748045 -0.04785,0.28710936 l -0.0957,0.31103515 q -0.119628,0.33496094 -0.382812,0.83740235 -0.813477,1.53125004 -0.813477,6.00537104 0,2.081543 0.191407,2.7514649 0.382812,0.4545898 1.07666,1.5551759 z m -5.455078,9.450683 q 0,-0.406738 0.119629,-0.78955 l 0.16748,-0.28711 q 0.167481,-0.215332 0.287109,-0.358886 0.622071,-0.574219 1.435547,-0.574219 0.813477,0 1.387696,0.574219 0.574218,0.598144 0.574218,1.435546 0,0.765625 -0.598144,1.36377 -0.598145,0.598145 -1.36377,0.598145 -0.78955,0 -1.411621,-0.598145 -0.598144,-0.598145 -0.598144,-1.36377 z m 3.971679,0 q 0,-0.406738 0.119629,-0.78955 l 0.143555,-0.28711 q 0.191406,-0.215332 0.311035,-0.358886 0.62207,-0.574219 1.411621,-0.574219 0.837403,0 1.411621,0.574219 0.574219,0.598144 0.574219,1.435546 0,0.765625 -0.598144,1.36377 -0.598145,0.598145 -1.387696,0.598145 -0.765625,0 -1.387695,-0.598145 -0.598145,-0.598145 -0.598145,-1.36377 z m -8.73291,-0.478515 q -0.119629,1.124512 -1.291992,1.435547 l -0.789551,0.0957 q -0.550293,0 -0.789551,-0.239258 l -0.191406,-0.239258 -0.502441,-0.04785 h -0.358887 l -0.311035,2.751464 q -0.215332,1.770508 -1.196289,2.177247 l -0.215332,0.02393 q -0.645996,0 -1.004883,-1.363769 -0.215332,-0.933106 -0.215332,-1.890137 l 0.02393,-1.148437 0.119629,-0.550293 q -2.631836,0 -5.598633,1.268066 -1.603027,0.693848 -4.856934,2.536133 -2.512207,1.411621 -3.22998,1.411621 -4.234863,0 -4.641602,-0.430664 0,-0.263184 3.110352,-0.765625 1.052734,-0.167481 3.875976,-1.746582 3.277832,-1.866211 5.526856,-2.847168 3.445312,-1.507324 6.172851,-1.507324 0.263184,-1.555176 0.263184,-2.966797 0,-3.97168 -1.124512,-9.1157228 Q 36.339642,2.3265238 35.66972,1.321641 35.119427,0.48423862 35.119427,-0.11390591 q 0,-0.43066406 0.311035,-0.74169922 0.693848,-0.71777347 1.411621,-0.66992187 l 0.239258,0.023926 q 0.957031,0.071777 1.626953,1.67480467 l 0.669922,2.44042973 0.502441,2.3447265 0.334961,1.9619141 0.191406,2.0336914 0.07178,1.5312498 0.0957,5.072266 -0.0957,3.038574 h 0.789551 q 0.07178,-0.02393 0.119628,-0.02393 0.263184,0 0.813477,-0.119629 l 0.90918,-0.0957 h 0.78955 q 0.28711,-0.02393 0.430665,0.311035 0.143554,0.45459 0.143554,0.933106 z M 46.508099,15.39 h -7.010254 v -1.961914 h 7.010254 z M 30.669231,9.8392191 q 0,1.9379879 -2.655761,1.8901369 l -4.761231,-0.07178 q 1.148438,3.780274 1.459473,6.220704 l 0.16748,1.459472 0.07178,1.387696 0.04785,1.937988 0.04785,1.69873 q -1.626953,-6.91455 -3.34961,-10.288086 -1.435546,-2.823242 -1.435546,-3.923828 0,-0.2631833 0.04785,-0.3110349 0.239258,-0.9091797 1.004883,-0.9091797 l 3.660644,0.3828125 0.933106,0.023926 h 0.669922 0.382812 l 0.263184,-0.071777 2.296875,-0.2631836 q 1.148437,0 1.148437,0.8374024 z m -3.85205,-9.37890626 q 0,-0.81347656 0.574218,-1.38769531 0.574219,-0.57421873 1.411621,-0.57421873 0.813477,0 1.387696,0.57421873 0.598144,0.57421875 0.598144,1.38769531 0,0.78955076 -0.62207,1.38769536 -0.598145,0.5981445 -1.36377,0.5981445 -0.813476,0 -1.411621,-0.5742188 Q 26.817181,1.2737894 26.817181,0.46031284 Z M -19.517521,23.572618 q 5.311524,0 9.6181642,-1.220215 4.1630859,-1.172364 7.65625,-4.163086 1.81835933,-1.555176 2.27294918,-1.555176 l 0.14355468,0.16748 q 0,0.311036 -0.52636718,1.196289 -2.05761718,3.541016 -5.31152348,5.239747 -2.8950195,1.53125 -7.2734374,1.985839 l -3.349609,0.311036 -0.933106,0.04785 -2.966797,0.0957 q -2.009765,0.0957 -2.009765,-1.220215 0,-0.885253 2.679687,-0.885253 z m 1.220215,-8.11084 q 0,1.387695 -1.315918,1.387695 -1.268066,0 -1.268066,-1.387695 l -0.430664,0.02393 q -1.124512,0.0957 -1.315918,-1.028808 l -0.02393,-0.0957 v -0.0957 q 0,-0.957032 1.770508,-0.957032 l -0.07178,-7.3212887 -0.263183,0.023926 q -0.980957,0.071777 -1.172364,-1.0527344 0,-0.5263672 0.358887,-0.8613281 0.143555,-0.095703 0.430664,-0.1435547 l 0.717774,-0.047852 q 0,-1.4355468 0.813476,-1.4355468 l 0.263184,0.047851 q 0.980957,0.1196289 1.220215,1.4594727 l 4.59375,-0.071777 5.8139644,-0.1674804 2.512207,-0.023926 2.4404297,-0.095703 q 0.4067383,-0.9809571 0.9091797,-0.9809571 l 0.2392578,0.047852 q 0.550293,0.2631836 0.7895508,0.9331055 0.76562501,0.6220703 0.76562501,1.196289 0,0.3588867 -0.76562501,0.9570313 -0.215332,1.7226562 -0.215332,3.3974609 v 1.0288088 q 0,0.406738 0.071777,1.196289 0.023926,0.382812 0.1196289,1.172363 0.023926,0.167481 0.1674805,0.813477 0.90917968,0.334961 0.90917968,0.909179 0,0.478516 -0.83740238,0.813477 0,1.004883 -1.0766601,1.004883 -0.5263672,0 -0.8613281,-0.717774 l -2.1772461,-0.02393 -3.9477539,-0.0957 -2.6557622,0.0957 z m 15.0014648,-9.8334964 -4.6176758,-0.071777 -3.445312,0.095703 -4.043458,0.1674804 -3.253906,0.095703 0.07178,7.249512 H -3.1522865 Z M -33.155216,20.414414 q 0.02393,1.148438 -0.813477,1.148438 -1.124511,0 -1.411621,-1.698731 l 0.358887,-17.8486324 0.478515,-2.34472654 q 0.215333,-1.05273436 0.406739,-1.17236326 0.215332,0 0.287109,1.60302732 0.04785,1.24414058 0.119629,2.48828128 v 0.6459961 l 0.07178,0.4545898 0.119629,0.9091797 0.0957,3.9716797 0.191407,5.2636723 z m -10.431641,3.541016 q -1.315918,1.770508 -2.249023,2.033691 l -0.382813,0.04785 q -0.382812,0 -0.598144,-0.07178 -0.28711,-0.07178 -0.645996,-0.28711 -0.765625,-0.406738 -0.765625,-0.909179 0,-0.717774 1.24414,-1.459473 5.335449,-3.206055 8.374024,-6.172852 1.507324,-1.483398 2.033691,-1.483398 0.263184,0 0.263184,0.358887 0,0.717773 -1.507325,2.440429 -0.478515,0.526368 -1.07666,1.052735 l -2.009765,1.746582 q -1.81836,1.579101 -2.679688,2.703613 z M -50.022892,0.12535191 q 0.191406,0.45458984 0.191406,0.95703129 0,0.765625 -0.263183,2.0815429 l -0.669922,3.2299805 q -0.526367,2.512207 -0.645996,3.5410156 -0.382813,2.8471678 -1.172364,2.8471678 -0.334961,0 -0.334961,-1.98584 v -0.598144 l 0.382813,-5.813965 q 0,0 -0.263184,-3.42138675 l -0.04785,-0.66992188 q -0.119629,-1.36376957 0.813476,-1.36376957 0.239258,0 0.622071,0.11962895 1.004883,0.33496094 1.387695,1.07666016 z M -50.381779,14.337266 q 0,0.358887 -0.358886,0.717773 Q -51.075626,15.39 -51.458439,15.39 h -7.249512 l -0.02392,2.44043 q -0.02393,1.650879 -1.052735,1.866211 -0.669922,0 -0.980957,-0.502441 -0.0957,-0.28711 -0.16748,-0.574219 l -0.02393,-0.717774 0.0957,-2.512207 h -6.172851 v -1.961914 l 6.172851,-0.119629 0.0957,-4.4262692 -0.04785,-2.8950195 q -0.02393,-1.0527344 -0.119629,-1.6030273 l -0.0957,-0.6938477 -0.04785,-0.2631836 q 0,-0.071777 -0.143555,-0.430664 L -62.05756,0.57994175 q -0.16748,-0.45458984 -0.16748,-0.88525391 0,-1.24414064 1.363769,-1.24414064 0.526367,0 1.07666,0.4067383 0.382813,0.26318359 0.645996,1.24414062 0.215332,0.71777344 0.215332,1.14843748 l 0.07178,1.5073242 0.287109,7.8715822 -0.07178,2.679687 7.20166,0.119629 q 1.052734,0.02393 1.052734,0.90918 z m -9.618164,10.646973 q -0.119629,1.124511 -1.291992,1.435546 l -0.789551,0.0957 q -0.358886,0 -0.741699,-0.191407 -0.502441,-0.239257 -0.717773,-0.287109 -0.478516,-0.04785 -1.459473,-0.04785 l -0.311035,2.751465 q -0.215332,1.770508 -1.196289,2.153321 l -0.215332,0.04785 q -0.645996,0 -1.004883,-1.363769 -0.215332,-0.933106 -0.215332,-1.890137 l 0.02393,-1.148438 0.119629,-0.550293 -13.685547,-0.16748 q -1.961914,-0.02393 -2.368653,-0.04785 -1.98584,-0.0957 -2.272949,-0.382812 0,-0.358887 3.110352,-0.765625 l 2.560058,-0.334961 q 1.172364,-0.167481 3.445313,-0.191406 l 9.570312,-0.191407 q 0.263184,-1.555175 0.263184,-2.966796 0,-3.014649 -0.957031,-7.560547 -2.153321,-10.2880862 -3.038575,-11.5083011 -0.574218,-0.90917965 -0.574218,-1.43554684 0,-0.43066406 0.311035,-0.765625 0.693847,-0.71777346 1.411621,-0.64599609 h 0.239258 q 1.004883,0.0717773 1.626953,1.69873047 l 0.311035,1.12451176 0.358887,1.3159179 0.406738,1.9379883 0.645996,3.5410156 0.62207,3.780273 0.334961,2.583985 0.502442,5.933594 -0.0957,3.038574 1.268066,-0.04785 1.196289,-0.119629 1.052734,-0.07178 h 0.980957 q 0.28711,-0.02393 0.430665,0.311035 0.143554,0.45459 0.143554,0.933106 z M -74.881779,9.8392191 q 0,1.9379879 -2.655761,1.8901369 l -4.761231,-0.07178 q 1.148438,3.780274 1.459473,6.220704 l 0.16748,1.459472 0.07178,1.387696 0.04785,1.937988 0.04785,1.69873 q -1.626953,-6.91455 -3.34961,-10.288086 -1.435547,-2.823242 -1.435547,-3.923828 0,-0.2631833 0.04785,-0.3110349 0.239258,-0.9091797 1.004883,-0.9091797 l 3.660644,0.3828125 0.933106,0.023926 h 0.669922 0.382812 l 0.263184,-0.071777 2.296875,-0.2631836 q 1.148437,0 1.148437,0.8374024 z"
   id="text1"
   style="font-size:49px;direction:rtl;white-space:pre;fill:#d0021b;stroke:#1d4d8d;stroke-width:2"
   aria-label="چين ورس" />
</g>
<g
   transform="matrix(2.17 0 0 2.17 0 -66.9)"
   id="62761221-bbe5-4db8-ad50-0f7b9d2dced5">
<g
   style=""
   vector-effect="non-scaling-stroke"
   id="g2">
		<g
   transform="matrix(1.04 0 0 1.04 0 0)"
   id="layer-1">
<linearGradient
   id="SVGID_8"
   gradientUnits="objectBoundingBox"
   gradientTransform="matrix(1 0 0 1 0 0)"
   x1="0"
   y1="0"
   x2="0"
   y2="1">
<stop
   offset="0%"
   style="stop-color:#1d438d;stop-opacity: 1"
   id="stop1" />
<stop
   offset="100%"
   style="stop-color:#c11912;stop-opacity: 1"
   id="stop2" />
</linearGradient>
<path
   style="stroke: none; stroke-width: 1; stroke-dasharray: none; stroke-linecap: butt; stroke-dashoffset: 0; stroke-linejoin: miter; stroke-miterlimit: 4; fill: url(#SVGID_8); fill-rule: nonzero; opacity: 1;"
   transform=" translate(-72.35, -70.85)"
   d="M 9.7 85.9 C 6.999999999999999 85.9 4.699999999999999 86.9 2.8999999999999995 88.80000000000001 C 1 90.7 0 93 0 95.7 C 0 98.4 1 100.7 2.8 102.60000000000001 C 4.699999999999999 104.50000000000001 7 105.4 9.6 105.4 C 12.3 105.4 14.5 104.5 16.4 102.60000000000001 C 18.299999999999997 100.70000000000002 19.299999999999997 98.4 19.299999999999997 95.7 C 19.299999999999997 93 18.299999999999997 90.8 16.4 88.9 C 14.5 87.00000000000001 12.4 85.9 9.7 85.9 M 116.2 29 C 126 27.1 134.4 25.7 141.4 24.9 C 107.9 24.299999999999997 79.2 28.7 55.10000000000001 38.2 C 43.10000000000001 42.900000000000006 34.400000000000006 47.7 29.000000000000007 52.6 C 29.60000000000001 44.400000000000006 40.00000000000001 33.2 60.2 18.9 C 70.2 11.799999999999999 80.2 5.499999999999998 90.2 0 C 56.400000000000006 14.2 33.2 28.2 20.5 41.9 C 10.4 52.9 7.199999999999999 63.5 10.9 73.6 C 13.600000000000001 80.89999999999999 19.6 87.6 28.9 93.69999999999999 C 33.6 96.79999999999998 38 99.1 42.099999999999994 100.69999999999999 C 26.4 88.2 21.9 76.5 28.6 65.8 C 34 57.199999999999996 46.400000000000006 49.4 65.9 42.3 C 79.9 37.2 96.6 32.8 116.2 29 M 106.5 42.6 L 102.6 40.800000000000004 C 118.3 53.300000000000004 122.8 65 116 75.80000000000001 C 110.6 84.4 98.2 92.20000000000002 78.7 99.30000000000001 C 64.8 104.30000000000001 48 108.80000000000001 28.5 112.60000000000001 C 18.7 114.50000000000001 10.3 115.9 3.3000000000000007 116.80000000000001 C 36.7 117.4 65.5 113.00000000000001 89.6 103.50000000000001 C 101.69999999999999 98.80000000000001 110.39999999999999 94.00000000000001 115.69999999999999 89.10000000000001 C 115.1 97.30000000000001 104.69999999999999 108.5 84.49999999999999 122.80000000000001 C 74.39999999999999 129.9 64.39999999999998 136.20000000000002 54.399999999999984 141.70000000000002 C 88.19999999999999 127.50000000000001 111.39999999999998 113.50000000000001 124.1 99.80000000000001 C 134.2 88.80000000000001 137.4 78.20000000000002 133.79999999999998 68.10000000000001 C 131.1 60.80000000000001 125.09999999999998 54.10000000000001 115.79999999999998 48.00000000000001 C 112.8 45.9 109.7 44.2 106.5 42.6 M 134.9 36.1 C 132.20000000000002 36.1 130 37.1 128.1 39 C 126.19999999999999 40.9 125.19999999999999 43.2 125.19999999999999 45.9 C 125.19999999999999 48.599999999999994 126.19999999999999 50.9 128.1 52.8 C 130 54.699999999999996 132.29999999999998 55.599999999999994 134.9 55.599999999999994 C 137.50000000000003 55.599999999999994 139.8 54.699999999999996 141.8 52.8 C 143.8 50.9 144.70000000000002 48.599999999999994 144.70000000000002 45.9 C 144.70000000000002 43.2 143.8 40.9 141.8 39 C 139.8 37.1 137.6 36.1 134.9 36.1 z"
   stroke-linecap="round"
   id="path2" />
</g>
</g>
</g>
</svg>
