<?xml version="1.0" encoding="UTF-8" standalone="no"?>
<!--?xml version="1.0" encoding="UTF-8" standalone="no" ?-->

<svg
   version="1.1"
   width="449.784"
   height="441.47556"
   viewBox="-224.892 -196.04593 449.784 441.47556"
   xml:space="preserve"
   id="svg2"
   sodipodi:docname="2009384.svg"
   xmlns:inkscape="http://www.inkscape.org/namespaces/inkscape"
   xmlns:sodipodi="http://sodipodi.sourceforge.net/DTD/sodipodi-0.dtd"
   xmlns="http://www.w3.org/2000/svg"
   xmlns:svg="http://www.w3.org/2000/svg"><sodipodi:namedview
   id="namedview2"
   pagecolor="#ffffff"
   bordercolor="#000000"
   borderopacity="0.25"
   inkscape:showpageshadow="2"
   inkscape:pageopacity="0.0"
   inkscape:pagecheckerboard="0"
   inkscape:deskcolor="#d1d1d1" />
<desc
   id="desc1">Created by Logonomy.ir</desc>
<defs
   id="defs1">
</defs>


<g
   transform="matrix(1 0 0 1 0 0)"
   style=""
   id="9ff5925f-b6c7-43a8-8d96-cb4385610da1">
		<path
   d="M 71.993851,15.39 H 55.078323 V 13.428086 L 70.606155,13.0692 65.605667,4.384141 Q 63.978714,1.5608988 63.308792,1.6805277 62.710648,1.8001566 62.710648,4.2405863 V 9.0735941 Q 62.375687,8.6190042 62.208206,7.7816019 62.0168,8.2601175 62.0168,8.6190042 q 0,0.5024415 0.191406,1.0288086 -1.220215,-2.8471679 -1.220215,-6.7709961 0,-4.0913085 1.291993,-4.3066406 l 0.741699,-0.047852 q 0.741699,-0.071777 1.435547,0.3349609 0.717773,0.40673828 2.990722,4.1630859 l 2.942871,4.8808594 q 0.406739,0.765625 1.315918,2.4404292 0.502442,0.90918 1.555176,2.72754 l 3.110352,-0.07178 q 1.483398,-0.04785 1.937988,0.861328 l 0.04785,0.215332 0.07178,0.263184 q 0,0.478516 -0.645996,0.693848 l -0.430664,0.239257 -0.885254,0.07178 -1.555176,0.02393 -0.502441,0.02393 q 2.512207,5.50293 2.512207,6.794922 0,0.215332 -0.143555,0.239258 -0.263184,0 -1.36377,-1.722656 z m -2.153321,5.33545 q 0,0.813476 -0.598144,1.387695 -0.574219,0.574219 -1.387695,0.574219 -0.765625,0 -1.36377,-0.598145 -0.598145,-0.598144 -0.598145,-1.363769 0,-0.789551 0.598145,-1.411622 0.598145,-0.598144 1.36377,-0.598144 0.885253,0 1.435546,0.598144 0.550293,0.598145 0.550293,1.411622 z m -3.947754,0 q 0,0.813476 -0.598144,1.387695 -0.574219,0.574219 -1.411621,0.574219 -0.765625,0 -1.36377,-0.598145 -0.598144,-0.598144 -0.598144,-1.363769 0,-0.789551 0.598144,-1.411622 0.598145,-0.598144 1.36377,-0.598144 0.885254,0 1.435547,0.598144 0.574218,0.598145 0.574218,1.411622 z m 1.937989,3.995605 q 0,0.813477 -0.598145,1.387695 -0.574219,0.574219 -1.411621,0.574219 -0.765625,0 -1.363769,-0.598144 -0.598145,-0.598145 -0.598145,-1.36377 0,-0.765625 0.598145,-1.387695 0.598144,-0.598145 1.363769,-0.598145 0.885254,0 1.435547,0.598145 0.574219,0.598144 0.574219,1.387695 z M 40.555374,15.39 v -1.961914 l 1.339844,-0.02393 2.15332,-0.191406 q 3.899903,-0.311035 4.306641,-0.287109 l 2.895019,0.263183 q 0.28711,0 1.124512,0.02393 l 0.933106,0.04785 2.847168,0.16748 V 15.39 Z m 9.235352,-4.76123 0.04785,0.478515 q 0.04785,0.622071 -0.430664,1.244141 -0.478515,0.62207 -1.124512,0.62207 -0.33496,0 -0.717773,-0.263183 Q 46.7043,12.136094 46.465042,9.8392191 l -0.07178,-0.6938477 -0.02393,-0.8374023 q -0.04785,-2.5839844 0.645996,-5.1679688 1.268066,-4.6894531 2.416504,-4.6894531 l 0.239258,0.071777 q 0.191406,0.023926 0.191406,0.3588867 0,0.16748045 -0.04785,0.28710936 l -0.0957,0.31103515 q -0.119629,0.33496094 -0.382812,0.83740235 -0.813477,1.53125004 -0.813477,6.00537104 0,2.081543 0.191407,2.7514649 0.382812,0.4545898 1.07666,1.5551759 z m -5.455078,9.450683 q 0,-0.406738 0.119628,-0.78955 l 0.167481,-0.28711 q 0.16748,-0.215332 0.287109,-0.358886 0.622071,-0.574219 1.435547,-0.574219 0.813477,0 1.387696,0.574219 0.574218,0.598144 0.574218,1.435546 0,0.765625 -0.598144,1.36377 -0.598145,0.598145 -1.36377,0.598145 -0.789551,0 -1.411621,-0.598145 -0.598144,-0.598145 -0.598144,-1.36377 z m 3.971679,0 q 0,-0.406738 0.119629,-0.78955 l 0.143555,-0.28711 q 0.191406,-0.215332 0.311035,-0.358886 0.62207,-0.574219 1.411621,-0.574219 0.837402,0 1.411621,0.574219 0.574219,0.598144 0.574219,1.435546 0,0.765625 -0.598145,1.36377 -0.598144,0.598145 -1.387695,0.598145 -0.765625,0 -1.387695,-0.598145 -0.598145,-0.598145 -0.598145,-1.36377 z m -8.73291,-0.478515 q -0.119629,1.124512 -1.291992,1.435547 l -0.789551,0.0957 q -0.550293,0 -0.789551,-0.239258 l -0.191406,-0.239258 -0.502441,-0.04785 h -0.358887 l -0.311035,2.751464 q -0.215332,1.770508 -1.196289,2.177247 l -0.215332,0.02393 q -0.645996,0 -1.004883,-1.363769 -0.215332,-0.933106 -0.215332,-1.890137 l 0.02393,-1.148437 0.119629,-0.550293 q -2.631836,0 -5.598633,1.268066 -1.603028,0.693848 -4.856934,2.536133 -2.512207,1.411621 -3.22998,1.411621 -4.234864,0 -4.641602,-0.430664 0,-0.263184 3.110352,-0.765625 1.052734,-0.167481 3.875976,-1.746582 3.277832,-1.866211 5.526856,-2.847168 3.445312,-1.507324 6.172851,-1.507324 0.263184,-1.555176 0.263184,-2.966797 0,-3.97168 -1.124512,-9.1157228 -0.90918,-4.1152344 -1.579101,-5.1201172 -0.550293,-0.83740238 -0.550293,-1.43554691 0,-0.43066406 0.311035,-0.74169922 0.693847,-0.71777347 1.411621,-0.66992187 l 0.239258,0.023926 q 0.957031,0.071777 1.626953,1.67480467 l 0.669922,2.44042973 0.502441,2.3447265 0.334961,1.9619141 0.191406,2.0336914 0.07178,1.5312498 0.0957,5.072266 -0.0957,3.038574 h 0.78955 q 0.07178,-0.02393 0.119629,-0.02393 0.263184,0 0.813477,-0.119629 l 0.90918,-0.0957 h 0.78955 q 0.28711,-0.02393 0.430664,0.311035 0.143555,0.45459 0.143555,0.933106 z M 41.608109,15.39 h -7.010254 v -1.961914 h 7.010254 z M 25.769241,9.8392191 q 0,1.9379879 -2.655761,1.8901369 l -4.761231,-0.07178 q 1.148438,3.780274 1.459473,6.220704 l 0.16748,1.459472 0.07178,1.387696 0.04785,1.937988 0.04785,1.69873 q -1.626953,-6.91455 -3.34961,-10.288086 -1.435547,-2.823242 -1.435547,-3.923828 0,-0.2631833 0.04785,-0.3110349 0.239258,-0.9091797 1.004883,-0.9091797 l 3.660644,0.3828125 0.933106,0.023926 h 0.669922 0.382812 l 0.263184,-0.071777 2.296875,-0.2631836 q 1.148437,0 1.148437,0.8374024 z m -3.85205,-9.37890626 q 0,-0.81347656 0.574218,-1.38769531 0.574219,-0.57421873 1.411621,-0.57421873 0.813477,0 1.387696,0.57421873 0.598144,0.57421875 0.598144,1.38769531 0,0.78955076 -0.62207,1.38769536 -0.598145,0.5981445 -1.36377,0.5981445 -0.813476,0 -1.411621,-0.5742188 Q 21.917191,1.2737894 21.917191,0.46031284 Z M -14.617477,23.572618 q 5.311523,0 9.6181636,-1.220215 4.16308598,-1.172364 7.65625,-4.163086 1.8183594,-1.555176 2.2729493,-1.555176 l 0.1435547,0.16748 q 0,0.311036 -0.5263672,1.196289 -2.0576172,3.541016 -5.31152347,5.239747 -2.89501953,1.53125 -7.27343753,1.985839 l -3.3496094,0.311036 -0.933105,0.04785 -2.966797,0.0957 q -2.009766,0.0957 -2.009766,-1.220215 0,-0.885253 2.679688,-0.885253 z m 1.220214,-8.11084 q 0,1.387695 -1.315918,1.387695 -1.268066,0 -1.268066,-1.387695 l -0.430664,0.02393 q -1.124512,0.0957 -1.315918,-1.028808 l -0.02393,-0.0957 v -0.0957 q 0,-0.957032 1.770508,-0.957032 l -0.07178,-7.3212887 -0.263184,0.023926 q -0.980957,0.071777 -1.172363,-1.0527344 0,-0.5263672 0.358887,-0.8613281 0.143554,-0.095703 0.430664,-0.1435547 l 0.717773,-0.047852 q 0,-1.4355468 0.813477,-1.4355468 l 0.263183,0.047851 q 0.980957,0.1196289 1.220215,1.4594727 L -9.0906219,3.9056253 -3.2766571,3.7381449 -0.76445007,3.7142191 1.6759796,3.618516 Q 2.0827179,2.6375589 2.5851593,2.6375589 l 0.2392578,0.047852 q 0.550293,0.2631836 0.7895508,0.9331055 0.765625,0.6220703 0.765625,1.196289 0,0.3588867 -0.765625,0.9570313 -0.215332,1.7226562 -0.215332,3.3974609 v 1.0288088 q 0,0.406738 0.071777,1.196289 0.023926,0.382812 0.1196289,1.172363 0.023926,0.167481 0.1674805,0.813477 0.9091797,0.334961 0.9091797,0.909179 0,0.478516 -0.8374024,0.813477 0,1.004883 -1.0766601,1.004883 -0.5263672,0 -0.8613282,-0.717774 l -2.17724605,-0.02393 -3.94775395,-0.0957 -2.6557617,0.0957 z m 15.0014653,-9.8334964 -4.6176758,-0.071777 -3.4453125,0.095703 -4.043457,0.1674804 -3.253906,0.095703 0.07178,7.249512 H 1.747757 Z M -28.255173,20.414414 q 0.02393,1.148438 -0.813476,1.148438 -1.124512,0 -1.411621,-1.698731 l 0.358886,-17.8486324 0.478516,-2.34472654 q 0.215332,-1.05273436 0.406738,-1.17236326 0.215332,0 0.28711,1.60302732 0.04785,1.24414058 0.119629,2.48828128 v 0.6459961 l 0.07178,0.4545898 0.119629,0.9091797 0.0957,3.9716797 0.191406,5.2636723 z m -10.43164,3.541016 q -1.315918,1.770508 -2.249024,2.033691 l -0.382812,0.04785 q -0.382813,0 -0.598145,-0.07178 -0.287109,-0.07178 -0.645996,-0.28711 -0.765625,-0.406738 -0.765625,-0.909179 0,-0.717774 1.244141,-1.459473 5.335449,-3.206055 8.374023,-6.172852 1.507324,-1.483398 2.033692,-1.483398 0.263183,0 0.263183,0.358887 0,0.717773 -1.507324,2.440429 -0.478516,0.526368 -1.07666,1.052735 l -2.009766,1.746582 q -1.818359,1.579101 -2.679687,2.703613 z M -45.122849,0.12535191 q 0.191407,0.45458984 0.191407,0.95703129 0,0.765625 -0.263184,2.0815429 l -0.669922,3.2299805 q -0.526367,2.512207 -0.645996,3.5410156 -0.382812,2.8471678 -1.172363,2.8471678 -0.334961,0 -0.334961,-1.98584 v -0.598144 l 0.382812,-5.813965 q 0,0 -0.263183,-3.42138675 l -0.04785,-0.66992188 q -0.119629,-1.36376957 0.813477,-1.36376957 0.239258,0 0.62207,0.11962895 1.004883,0.33496094 1.387695,1.07666016 z M -45.481735,14.337266 q 0,0.358887 -0.358887,0.717773 Q -46.175583,15.39 -46.558395,15.39 h -7.249512 l -0.02393,2.44043 q -0.02393,1.650879 -1.052734,1.866211 -0.669922,0 -0.980957,-0.502441 -0.0957,-0.28711 -0.167481,-0.574219 l -0.02393,-0.717774 0.0957,-2.512207 h -6.172852 v -1.961914 l 6.172852,-0.119629 0.0957,-4.4262692 -0.04785,-2.8950195 q -0.02393,-1.0527344 -0.119629,-1.6030273 l -0.0957,-0.6938477 -0.04785,-0.2631836 q 0,-0.071777 -0.143555,-0.430664 l -0.837402,-2.41650395 q -0.167481,-0.45458984 -0.167481,-0.88525391 0,-1.24414064 1.36377,-1.24414064 0.526367,0 1.07666,0.4067383 0.382812,0.26318359 0.645996,1.24414062 0.215332,0.71777344 0.215332,1.14843748 l 0.07178,1.5073242 0.28711,7.8715822 -0.07178,2.679687 7.20166,0.119629 q 1.052735,0.02393 1.052735,0.90918 z m -9.618164,10.646973 q -0.119629,1.124511 -1.291992,1.435546 l -0.789551,0.0957 q -0.358887,0 -0.741699,-0.191407 -0.502442,-0.239257 -0.717774,-0.287109 -0.478516,-0.04785 -1.459473,-0.04785 l -0.311035,2.751465 q -0.215332,1.770508 -1.196289,2.153321 l -0.215332,0.04785 q -0.645996,0 -1.004883,-1.363769 -0.215332,-0.933106 -0.215332,-1.890137 l 0.02393,-1.148438 0.119629,-0.550293 -13.685547,-0.16748 q -1.961914,-0.02393 -2.368652,-0.04785 -1.98584,-0.0957 -2.272949,-0.382812 0,-0.358887 3.110351,-0.765625 l 2.560059,-0.334961 q 1.172363,-0.167481 3.445312,-0.191406 l 9.570313,-0.191407 q 0.263183,-1.555175 0.263183,-2.966796 0,-3.014649 -0.957031,-7.560547 -2.15332,-10.2880862 -3.038574,-11.5083011 -0.574219,-0.90917965 -0.574219,-1.43554684 0,-0.43066406 0.311035,-0.765625 0.693848,-0.71777346 1.411621,-0.64599609 h 0.239258 q 1.004883,0.0717773 1.626953,1.69873047 l 0.311035,1.12451176 0.358887,1.3159179 0.406738,1.9379883 0.645997,3.5410156 0.62207,3.780273 0.334961,2.583985 0.502441,5.933594 -0.0957,3.038574 1.268066,-0.04785 1.19629,-0.119629 1.052734,-0.07178 h 0.980957 q 0.287109,-0.02393 0.430664,0.311035 0.143555,0.45459 0.143555,0.933106 z M -69.981735,9.8392191 q 0,1.9379879 -2.655762,1.8901369 l -4.76123,-0.07178 q 1.148437,3.780274 1.459472,6.220704 l 0.167481,1.459472 0.07178,1.387696 0.04785,1.937988 0.04785,1.69873 q -1.626953,-6.91455 -3.349609,-10.288086 -1.435547,-2.823242 -1.435547,-3.923828 0,-0.2631833 0.04785,-0.3110349 0.239258,-0.9091797 1.004883,-0.9091797 l 3.660645,0.3828125 0.933105,0.023926 h 0.669922 0.382813 l 0.263183,-0.071777 2.296875,-0.2631836 q 1.148438,0 1.148438,0.8374024 z"
   id="text1"
   style="font-size:49px;direction:rtl;white-space:pre;fill:#d0021b;stroke:#1d4d8d;stroke-width:2"
   aria-label="چين‌ورس" />
</g>
<g
   transform="matrix(2.17 0 0 2.17 0 0)"
   id="62761221-bbe5-4db8-ad50-0f7b9d2dced5">
<g
   style=""
   vector-effect="non-scaling-stroke"
   id="g2">
		<g
   transform="matrix(1.04 0 0 1.04 0 0)"
   id="layer-1">
<linearGradient
   id="SVGID_1867"
   gradientUnits="objectBoundingBox"
   gradientTransform="matrix(1 0 0 1 0 0)"
   x1="0"
   y1="0"
   x2="0"
   y2="1">
<stop
   offset="0%"
   style="stop-color:#1d358d;stop-opacity: 1"
   id="stop1" />
<stop
   offset="100%"
   style="stop-color:#c11312;stop-opacity: 1"
   id="stop2" />
</linearGradient>
<path
   style="stroke: none; stroke-width: 1; stroke-dasharray: none; stroke-linecap: butt; stroke-dashoffset: 0; stroke-linejoin: miter; stroke-miterlimit: 4; fill: url(#SVGID_1867); fill-rule: nonzero; opacity: 1;"
   transform=" translate(-72.35, -70.85)"
   d="M 9.7 85.9 C 6.999999999999999 85.9 4.699999999999999 86.9 2.8999999999999995 88.80000000000001 C 1 90.7 0 93 0 95.7 C 0 98.4 1 100.7 2.8 102.60000000000001 C 4.699999999999999 104.50000000000001 7 105.4 9.6 105.4 C 12.3 105.4 14.5 104.5 16.4 102.60000000000001 C 18.299999999999997 100.70000000000002 19.299999999999997 98.4 19.299999999999997 95.7 C 19.299999999999997 93 18.299999999999997 90.8 16.4 88.9 C 14.5 87.00000000000001 12.4 85.9 9.7 85.9 M 116.2 29 C 126 27.1 134.4 25.7 141.4 24.9 C 107.9 24.299999999999997 79.2 28.7 55.10000000000001 38.2 C 43.10000000000001 42.900000000000006 34.400000000000006 47.7 29.000000000000007 52.6 C 29.60000000000001 44.400000000000006 40.00000000000001 33.2 60.2 18.9 C 70.2 11.799999999999999 80.2 5.499999999999998 90.2 0 C 56.400000000000006 14.2 33.2 28.2 20.5 41.9 C 10.4 52.9 7.199999999999999 63.5 10.9 73.6 C 13.600000000000001 80.89999999999999 19.6 87.6 28.9 93.69999999999999 C 33.6 96.79999999999998 38 99.1 42.099999999999994 100.69999999999999 C 26.4 88.2 21.9 76.5 28.6 65.8 C 34 57.199999999999996 46.400000000000006 49.4 65.9 42.3 C 79.9 37.2 96.6 32.8 116.2 29 M 106.5 42.6 L 102.6 40.800000000000004 C 118.3 53.300000000000004 122.8 65 116 75.80000000000001 C 110.6 84.4 98.2 92.20000000000002 78.7 99.30000000000001 C 64.8 104.30000000000001 48 108.80000000000001 28.5 112.60000000000001 C 18.7 114.50000000000001 10.3 115.9 3.3000000000000007 116.80000000000001 C 36.7 117.4 65.5 113.00000000000001 89.6 103.50000000000001 C 101.69999999999999 98.80000000000001 110.39999999999999 94.00000000000001 115.69999999999999 89.10000000000001 C 115.1 97.30000000000001 104.69999999999999 108.5 84.49999999999999 122.80000000000001 C 74.39999999999999 129.9 64.39999999999998 136.20000000000002 54.399999999999984 141.70000000000002 C 88.19999999999999 127.50000000000001 111.39999999999998 113.50000000000001 124.1 99.80000000000001 C 134.2 88.80000000000001 137.4 78.20000000000002 133.79999999999998 68.10000000000001 C 131.1 60.80000000000001 125.09999999999998 54.10000000000001 115.79999999999998 48.00000000000001 C 112.8 45.9 109.7 44.2 106.5 42.6 M 134.9 36.1 C 132.20000000000002 36.1 130 37.1 128.1 39 C 126.19999999999999 40.9 125.19999999999999 43.2 125.19999999999999 45.9 C 125.19999999999999 48.599999999999994 126.19999999999999 50.9 128.1 52.8 C 130 54.699999999999996 132.29999999999998 55.599999999999994 134.9 55.599999999999994 C 137.50000000000003 55.599999999999994 139.8 54.699999999999996 141.8 52.8 C 143.8 50.9 144.70000000000002 48.599999999999994 144.70000000000002 45.9 C 144.70000000000002 43.2 143.8 40.9 141.8 39 C 139.8 37.1 137.6 36.1 134.9 36.1 z"
   stroke-linecap="round"
   id="path2" />
</g>
</g>
</g>
<g
   transform="matrix(1 0 0 1 0 187.8)"
   style=""
   id="e59b59a4-5150-424b-b6e4-c4641f203832">
		<path
   d="m 178.79327,5.6146879 q 0,2.3027344 -1.17773,3.9023438 Q 176.31476,11.31 174.08234,11.31 H 173.8714 V 9.3060942 h 0.21094 q 1.6875,0 2.98828,-1.1425782 1.07226,-0.9492187 1.07226,-1.5644531 0,-1.8984375 -1.26562,-4.5703125 -0.98438,-2.09179686 -1.81055,-3.02343748 l 2.70703,1.65234375 q 1.01953,2.70703123 1.01953,4.95703123 z m 0.31641,9.4570311 q 0,1.300781 -1.2832,1.300781 -0.54492,0 -0.93164,-0.386718 -0.36914,-0.369141 -0.36914,-0.914063 0,-1.283203 1.30078,-1.283203 0.52734,0 0.89648,0.369141 0.38672,0.386718 0.38672,0.914062 z M 174.29327,11.31 h -0.21093 q -1.98633,0 -3.56836,-2.0039058 -0.91407,-1.1601563 -1.26563,-3.2519532 -0.19336,-1.1777343 -0.35156,-4.6054687 l -0.49219,-10.8984375 1.95117,1.7402344 0.19336,11.3554687 q 0,0.8789063 0,2.2148438 0.0352,1.3359375 0.5625,2.0742187 0.98438,1.3710938 2.97071,1.3710938 h 0.21093 z M 158.92999,7.460391 158.17413,9.5521879 Q 153.56866,11.31 149.36749,11.31 h -0.21093 V 9.3060942 h 0.21093 q 2.98828,0 5.20313,-0.4921875 -0.50977,-0.84375 -0.50977,-1.8632813 0,-0.84375 0.5625,-2.5664062 0.5625,-1.7402344 0.5625,-2.5136719 0,-0.84375 -0.36914,-1.84570313 -0.47461,-1.26562497 -1.14258,-1.26562497 -1.59961,0.72070309 -4.30664,3.5332031 l 0.73828,-2.54882813 q 1.6875,-1.47656247 3.39258,-1.47656247 1.5293,0 2.51367,1.19531247 0.94922,1.125 0.94922,2.67187503 0,0.7910156 -0.65039,2.4082031 -0.63281,1.6171875 -0.63281,2.25 0,1.4414062 1.01953,1.4414062 0.86133,0 2.23242,-0.7734375 z m -1.31836,7.611328 q 0,1.300781 -1.2832,1.300781 -0.54492,0 -0.93164,-0.386718 -0.36914,-0.369141 -0.36914,-0.914063 0,-1.283203 1.30078,-1.283203 0.52734,0 0.89648,0.369141 0.38672,0.386718 0.38672,0.914062 z m -3.62109,0 q 0,1.300781 -1.2832,1.300781 -0.54493,0 -0.93164,-0.386718 -0.36914,-0.369141 -0.36914,-0.914063 0,-1.283203 1.30078,-1.283203 0.52734,0 0.89648,0.369141 0.38672,0.386718 0.38672,0.914062 z m 1.81055,3.65625 q 0,0.527344 -0.38672,0.896485 -0.36914,0.386718 -0.89649,0.386718 -1.30078,0 -1.30078,-1.283203 0,-0.544922 0.36914,-0.93164 0.38672,-0.369141 0.93164,-0.369141 1.28321,0 1.28321,1.300781 z M 149.50812,11.31 h -0.21094 q -1.26562,0 -2.37305,-1.195312 -0.84375,-0.9140626 -1.16015,-2.4082032 -0.47461,1.3183594 -1.10742,2.0390625 Q 143.28546,11.31 141.51007,11.31 h -0.21094 V 9.3060942 h 0.21094 q 0.9668,0 2.05664,-0.6679688 1.79297,-1.1074219 1.79297,-2.8652344 0,-1.1425781 -0.10547,-3.4453125 -0.10547,-2.30273433 -0.10547,-3.4453125 l 1.77539,1.52929692 q -0.28125,3.00585938 -0.28125,4.04296878 0,2.1445312 0.21094,2.9882812 0.12305,0.5097656 0.5625,1.0898438 0.58008,0.7734375 1.88086,0.7734375 h 0.21094 z m -0.87891,3.761719 q 0,1.300781 -1.2832,1.300781 -0.54492,0 -0.93164,-0.386718 -0.36914,-0.369141 -0.36914,-0.914063 0,-1.283203 1.30078,-1.283203 0.52734,0 0.89648,0.369141 0.38672,0.386718 0.38672,0.914062 z m -3.62109,0 q 0,1.300781 -1.28321,1.300781 -0.54492,0 -0.93164,-0.386718 -0.36914,-0.369141 -0.36914,-0.914063 0,-1.283203 1.30078,-1.283203 0.52735,0 0.89649,0.369141 0.38672,0.386718 0.38672,0.914062 z M 141.72101,11.31 h -0.21094 q -2.23242,0 -3.23437,-1.7578121 -0.22852,2.7773441 -0.70313,3.6386721 -0.58008,1.054687 -3.19922,2.05664 -3.1289,1.195313 -6.97851,1.195313 -3.67383,0 -6.64453,-1.546875 -3.67383,-1.916016 -3.67383,-5.2734376 0,-2.4082031 2.10937,-3.9199219 1.89844,-1.3710937 4.39453,-1.3710937 1.6875,0 3.65625,0.5097656 l 1.19532,2.1972656 q -2.93555,-2.0039062 -5.29102,-2.0039062 -1.72266,0 -2.90039,0.9316406 -1.2832,1.0019531 -1.2832,2.6894531 0,3.4804685 3.90234,4.9921875 2.72461,1.054688 6.83789,1.054688 4.32422,0 7.41797,-1.792969 0.0176,-0.685547 0.0176,-1.371094 0,-4.8164062 -0.98438,-8.1738281 l 1.54688,-1.6523437 q 0.24609,0.7207031 0.63281,3.3574218 0.35156,2.390625 0.59766,2.9179688 0.61523,1.3183594 2.58398,1.3183594 h 0.21094 z M 130.68195,-1.8911715 q 0,1.30078129 -1.28321,1.30078129 -0.54492,0 -0.93164,-0.36914062 -0.36914,-0.38671877 -0.36914,-0.93164067 0,-1.2832031 1.30078,-1.2832031 0.52735,0 0.89649,0.3867188 0.38672,0.3691406 0.38672,0.8964843 z m -15.90821,6.7324219 q 0,4.1660156 -1.23047,7.6289066 -0.79101,2.232422 -1.79296,3.480468 l -3.14649,1.054688 q 1.8457,-2.408203 2.14453,-2.900391 1.6875,-2.707031 2.25,-5.8710935 -1.01953,0.6503907 -1.79297,0.6503907 -1.63476,0 -2.39062,-1.7753907 -0.5625,-1.3183593 -0.5625,-3.1640625 0,-2.2675781 1.23047,-3.83203121 0.96679,-1.23046879 1.72265,-1.23046879 1.59961,0 2.6543,2.07421879 0.91406,1.81054691 0.91406,3.88476561 z m -1.47656,0 q 0,-2.53125 -0.79102,-4.06054686 -0.61523,-1.1953125 -1.17773,-1.1953125 -1.59961,1.08984375 -1.59961,4.95703126 0,3.1992187 0.80859,3.1992187 0.73829,0 1.63477,-0.7734375 l 0.91406,0.703125 q 0.21094,-1.4765625 0.21094,-2.8300781 z m -7.34766,-4.39453123 q 0.0703,7.47070313 -0.50976,10.07226583 -0.73828,3.322265 -2.32031,5.414062 l -3.0586,0.896485 q 0.75586,-0.896485 1.47656,-1.986328 2.95313,-4.5 2.95313,-10.4589848 0,-1.5292969 -0.14063,-2.7949219 z M 98.777649,6.054141 q 0,1.3359375 -0.773438,2.5839844 -0.896484,1.4414066 -2.144531,1.4414066 -1.037109,0 -1.898437,-0.7207035 -0.861328,-0.7382812 -1.125,-1.7753906 -0.158203,0.8613281 -0.791016,1.6523438 -0.773437,0.9667973 -1.792969,0.9667973 -1.511718,0 -2.460937,-1.2656255 -0.123047,1.6875005 -0.650391,4.1660155 -0.509765,1.019531 -3.392578,2.144531 -3.339844,1.300782 -6.996094,1.300782 -3.357422,0 -6.1875,-1.458985 -3.480468,-1.792968 -3.480468,-4.851562 0,-2.496094 2.214843,-3.9902346 1.933594,-1.3007812 4.552735,-1.3007812 1.40625,0 3.058593,0.3691406 l 1.195313,2.1796875 q -2.8125,-1.8457031 -5.291016,-1.8457031 -1.21289,0 -2.232422,0.5976562 -1.617187,0.9492188 -1.617187,3.0234375 0,2.9707031 3.322266,4.4296871 2.478515,1.089844 5.853515,1.089844 5.273438,0 8.542969,-2.039062 0.05273,-0.597657 0.05273,-1.230469 0,-5.0976563 -2.320312,-10.3007813 l 1.476562,-1.77539066 q 0.527344,1.16015625 1.371094,4.90429686 0.667969,2.9882813 1.458984,3.6386719 0.597657,0.4921875 1.353516,0.4921875 2.214844,0 2.214844,-2.9882813 0,-0.6152343 -0.5625,-6.31054683 l 1.669922,1.3359375 V 5.8080473 q 0,2.5488281 1.6875,2.5488281 1.335937,0 2.232422,-0.7910156 0.720703,-0.6328125 0.720703,-1.2128906 0,-1.2832032 -1.371094,-4.0429688 -1.054688,-2.12695311 -1.951172,-3.3925781 L 97.54718,0.51703167 Q 98.777649,3.3998442 98.777649,6.054141 Z M 57.433899,0.44671917 q 0.07031,7.47070313 -0.509766,10.07226583 -0.738281,3.322265 -2.320312,5.414062 l -3.058594,0.896485 q 0.755859,-0.896485 1.476563,-1.986328 2.953125,-4.5 2.953125,-10.4589848 0,-1.5292969 -0.140625,-2.7949219 z m 0.316406,-2.42578127 q 0,1.30078127 -1.283203,1.30078127 -0.544922,0 -0.931641,-0.36914067 -0.36914,-0.3867187 -0.36914,-0.9316406 0,-1.2832031 1.300781,-1.2832031 0.527344,0 0.896484,0.3867187 0.386719,0.3691407 0.386719,0.8964844 z m -7.875,7.59375 q 0,2.3027344 -1.177734,3.9023438 Q 47.39679,11.31 45.164368,11.31 H 44.95343 V 9.3060942 h 0.210938 q 1.6875,0 2.988281,-1.1425782 1.072266,-0.9492187 1.072266,-1.5644531 0,-1.8984375 -1.265625,-4.5703125 -0.984375,-2.09179686 -1.810547,-3.02343748 l 2.707031,1.65234375 q 1.019531,2.70703123 1.019531,4.95703123 z m 0.316406,9.4570311 q 0,1.300781 -1.283203,1.300781 -0.544922,0 -0.93164,-0.386718 -0.369141,-0.369141 -0.369141,-0.914063 0,-1.283203 1.300781,-1.283203 0.527344,0 0.896485,0.369141 0.386718,0.386718 0.386718,0.914062 z M 45.375305,11.31 h -0.210937 q -1.986328,0 -3.56836,-2.0039058 Q 40.681946,8.1459379 40.330383,6.054141 40.137024,4.8764067 39.978821,1.4486723 l -0.492188,-10.8984375 1.951172,1.7402344 0.19336,11.3554687 q 0,0.8789063 0,2.2148438 0.03516,1.3359375 0.5625,2.0742187 0.984375,1.3710938 2.970703,1.3710938 h 0.210937 z M 36.51593,0.65765667 q 0.667969,2.90039063 0.667969,6.16992183 0,3.9023435 -0.791016,5.3085935 -0.597656,1.072266 -3.199218,2.056641 -3.146485,1.195312 -6.978516,1.195312 -3.673828,0 -6.644531,-1.546875 -3.673828,-1.916015 -3.673828,-5.2734371 0,-2.4082031 2.109375,-3.9199219 1.898437,-1.3710937 4.394531,-1.3710937 1.6875,0 3.65625,0.5097656 l 1.195312,2.1972656 q -2.935547,-2.0039062 -5.291015,-2.0039062 -1.722657,0 -2.900391,0.9316406 -1.283203,1.0019531 -1.283203,2.6894531 0,3.480469 3.902344,4.992188 2.724609,1.054687 6.83789,1.054687 4.324219,0 7.417969,-1.792969 0.01758,-0.685547 0.01758,-1.371093 0,-4.8164067 -0.984375,-8.1738286 z M 29.502258,-1.8911715 q 0,1.30078129 -1.283203,1.30078129 -0.544922,0 -0.93164,-0.36914062 -0.369141,-0.38671877 -0.369141,-0.93164067 0,-1.2832031 1.300781,-1.2832031 0.527344,0 0.896485,0.3867188 0.386718,0.3691406 0.386718,0.8964843 z M 6.4221802,7.460391 5.6663208,9.5521879 Q 1.0608521,11.31 -3.1403198,11.31 H -3.3512573 V 9.3060942 h 0.2109375 q 2.98828123,0 5.203125,-0.4921875 -0.5097656,-0.84375 -0.5097656,-1.8632813 0,-0.84375 0.5625,-2.5664062 0.5625,-1.7402344 0.5625,-2.5136719 0,-0.84375 -0.3691407,-1.84570313 Q 1.8342896,-1.2407808 1.1663208,-1.2407808 -0.43328857,-0.52007771 -3.1403198,2.2924223 l 0.7382812,-2.54882813 q 1.68750003,-1.47656247 3.39257815,-1.47656247 1.52929685,0 2.51367185,1.19531247 0.9492188,1.125 0.9492188,2.67187503 0,0.7910156 -0.6503906,2.4082031 -0.6328125,1.6171875 -0.6328125,2.25 0,1.4414062 1.0195312,1.4414062 0.8613281,0 2.2324219,-0.7734375 z m -1.3183594,7.611328 q 0,1.300781 -1.2832031,1.300781 -0.5449219,0 -0.9316406,-0.386718 -0.3691407,-0.369141 -0.3691407,-0.914063 0,-1.283203 1.3007813,-1.283203 0.5273437,0 0.8964844,0.369141 0.3867187,0.386718 0.3867187,0.914062 z m -3.6210937,0 q 0,1.300781 -1.28320317,1.300781 -0.54492188,0 -0.93164063,-0.386718 -0.3691406,-0.369141 -0.3691406,-0.914063 0,-1.283203 1.30078123,-1.283203 0.52734375,0 0.89648437,0.369141 0.3867188,0.386718 0.3867188,0.914062 z m 1.8105468,3.65625 q 0,0.527344 -0.3867187,0.896485 -0.3691406,0.386718 -0.8964844,0.386718 -1.30078125,0 -1.30078125,-1.283203 0,-0.544922 0.36914065,-0.93164 0.3867187,-0.369141 0.9316406,-0.369141 1.2832031,0 1.2832031,1.300781 z M -2.9996948,11.31 h -0.2109375 q -1.265625,0 -2.3730469,-1.195312 Q -6.4274292,9.2006254 -6.7438354,7.7064848 -7.2184448,9.0248442 -7.8512573,9.7455473 -9.2223511,11.31 -10.997742,11.31 h -0.210937 V 9.3060942 h 0.210937 q 0.966797,0 2.0566409,-0.6679688 1.7929688,-1.1074219 1.7929688,-2.8652344 0,-1.1425781 -0.1054688,-3.4453125 -0.1054687,-2.30273433 -0.1054687,-3.4453125 l 1.7753906,1.52929692 q -0.28125,3.00585938 -0.28125,4.04296878 0,2.1445312 0.2109375,2.9882812 0.1230469,0.5097656 0.5625,1.0898438 0.5800781,0.7734375 1.8808594,0.7734375 h 0.2109375 z m -0.8789063,3.761719 q 0,1.300781 -1.2832031,1.300781 -0.5449219,0 -0.9316406,-0.386718 -0.3691406,-0.369141 -0.3691406,-0.914063 0,-1.283203 1.3007812,-1.283203 0.5273438,0 0.8964844,0.369141 0.3867187,0.386718 0.3867187,0.914062 z m -3.6210937,0 q 0,1.300781 -1.2832031,1.300781 -0.5449219,0 -0.9316407,-0.386718 -0.3691404,-0.369141 -0.3691404,-0.914063 0,-1.283203 1.3007811,-1.283203 0.5273437,0 0.8964843,0.369141 0.3867188,0.386718 0.3867188,0.914062 z M -10.82196,11.31 h -0.210938 q -1.265625,0 -2.373047,-1.195312 -0.84375,-0.9140626 -1.160156,-2.4082032 -0.474609,1.3183594 -1.107422,2.0390625 Q -17.044617,11.31 -18.820007,11.31 h -0.210938 V 9.3060942 h 0.210938 q 0.966797,0 2.05664,-0.6679688 1.792969,-1.1074219 1.792969,-2.8652344 0,-1.1425781 -0.105469,-3.4453125 -0.105468,-2.30273433 -0.105468,-3.4453125 l 1.77539,1.52929692 q -0.28125,3.00585938 -0.28125,4.04296878 0,2.1445312 0.210938,2.9882812 0.123047,0.5097656 0.5625,1.0898438 0.580078,0.7734375 1.880859,0.7734375 h 0.210938 z m -2.460938,-16.5410152 q 0,1.3007812 -1.283203,1.3007812 -0.544922,0 -0.931641,-0.3691406 -0.36914,-0.3867187 -0.36914,-0.9316406 0,-1.2832031 1.300781,-1.2832031 0.527344,0 0.896484,0.3867187 0.386719,0.3691406 0.386719,0.8964844 z M -18.60907,11.31 h -0.210937 q -1.669922,0 -3.673828,-0.878906 -0.914063,-0.404297 -3.058594,-1.6523436 -1.511719,-0.8789062 -1.96875,-0.8789062 -0.439453,0 -0.439453,0.2988281 0,0.087891 3.111328,2.1269527 3.128906,2.039063 3.128906,2.707032 0,0.84375 -2.847656,1.951172 -3.28711,1.283203 -7.136719,1.283203 -4.078125,0 -7.365234,-1.582032 -4.183594,-2.021484 -4.183594,-5.677734 0,-2.4082031 2.109375,-3.9199218 1.898437,-1.3710938 4.394531,-1.3710938 1.6875,0 3.65625,0.5097656 l 1.195313,2.1972657 q -2.935547,-2.0039063 -5.291016,-2.0039063 -1.722656,0 -2.900391,0.9316406 -1.283203,1.0019532 -1.283203,2.6894532 0,3.5156248 4.324219,5.3085938 3.251953,1.353516 7.277344,1.353516 3.902344,0 6.609375,-1.142579 -1.142578,-1.037109 -4.007813,-2.917968 -2.144531,-1.4062503 -2.144531,-1.8808597 0,-0.6328125 0.826172,-1.0371094 0.685547,-0.3515625 1.388672,-0.3515625 0.966797,0 3.796875,0.9667969 2.847656,0.9667969 4.482422,0.9667969 h 0.210937 z M -52.587585,0.44671917 q 0.07031,7.47070313 -0.509766,10.07226583 -0.738281,3.322265 -2.320313,5.414062 l -3.058593,0.896485 q 0.755859,-0.896485 1.476562,-1.986328 2.953125,-4.5 2.953125,-10.4589848 0,-1.5292969 -0.140625,-2.7949219 z M -59.75946,4.8412504 q 0,4.1660156 -1.230469,7.6289066 -0.791016,2.232422 -1.792969,3.480468 l -3.146484,1.054688 q 1.845703,-2.408203 2.144531,-2.900391 1.6875,-2.707031 2.25,-5.8710935 -1.019531,0.6503907 -1.792969,0.6503907 -1.634765,0 -2.390625,-1.7753907 -0.5625,-1.3183593 -0.5625,-3.1640625 0,-2.2675781 1.230469,-3.83203121 0.966797,-1.23046879 1.722656,-1.23046879 1.59961,0 2.654297,2.07421879 0.914063,1.81054691 0.914063,3.88476561 z m -1.476563,0 q 0,-2.53125 -0.791016,-4.06054686 -0.615234,-1.1953125 -1.177734,-1.1953125 -1.599609,1.08984375 -1.599609,4.95703126 0,3.1992187 0.808593,3.1992187 0.738282,0 1.634766,-0.7734375 l 0.914063,0.703125 q 0.210937,-1.4765625 0.210937,-2.8300781 z M -75.931335,0.44671917 q 0.07031,7.47070313 -0.509766,10.07226583 -0.738281,3.322265 -2.320313,5.414062 l -3.058593,0.896485 q 0.755859,-0.896485 1.476562,-1.986328 2.953125,-4.5 2.953125,-10.4589848 0,-1.5292969 -0.140625,-2.7949219 z m 0.316406,-2.42578127 q 0,1.30078127 -1.283203,1.30078127 -0.544922,0 -0.931641,-0.36914067 -0.369141,-0.3867187 -0.369141,-0.9316406 0,-1.2832031 1.300782,-1.2832031 0.527343,0 0.896484,0.3867187 0.386719,0.3691407 0.386719,0.8964844 z m -7.523438,7.59375 q 0,2.3027344 -1.177734,3.9023438 Q -85.616882,11.31 -87.849304,11.31 h -0.210938 V 9.3060942 h 0.210938 q 1.6875,0 2.988281,-1.1425782 1.072266,-0.9492187 1.072266,-1.5644531 0,-1.8984375 -1.265625,-4.5703125 -0.984375,-2.09179686 -1.810547,-3.02343748 l 2.707031,1.65234375 q 1.019531,2.70703123 1.019531,4.95703123 z m -1.107422,-10.8457031 q 0,1.3007812 -1.283203,1.3007812 -0.544922,0 -0.93164,-0.3691406 -0.369141,-0.3867187 -0.369141,-0.9316406 0,-1.2832031 1.300781,-1.2832031 0.527344,0 0.896485,0.3867187 0.386718,0.3691406 0.386718,0.8964844 z M -87.743835,11.31 h -0.210938 q -2.601562,0 -3.287109,-2.8300777 -0.105469,0.4394531 -0.404297,1.1777344 -0.650391,0.8789063 -2.689453,1.8457033 -2.16211,1.037109 -3.691407,1.037109 -1.898437,0 -2.039061,-1.107422 l 0.123046,-2.0566403 q 0.773437,1.1601563 2.460937,1.1601563 1.669922,0 3.65625,-0.9492188 2.179688,-1.0371094 2.179688,-2.2148438 0,-0.8261719 -1.388672,-3.2519531 -1.125,-1.96875 -2.021484,-3.14648438 l 1.054687,-1.65234375 q 1.40625,2.00390623 2.425781,4.60546873 0.439453,1.1601563 1.59961,4.1660156 0.474609,1.2128907 2.021484,1.2128907 h 0.210938 z m -13.640625,-19.3007808 -9.4043,4.5878906 V -4.211484 l 9.4043,-4.5703125 z m -0.0703,2.3554687 -7.13672,3.5507813 q 2.91797,1.35351559 4.97461,3.9550781 1.89844,2.390625 1.89844,4.4472656 0,3.0585938 -4.93946,4.3769531 -2.30273,0.615234 -4.23633,0.615234 h -0.21093 V 9.3060942 h 0.21093 q 1.84571,0 4.58789,-0.5097657 3.65625,-0.703125 3.65625,-1.7402343 0,-0.984375 -1.72265,-3.2519532 -2.42578,-3.19921871 -6.46875,-4.69335933 l 0.0176,-1.79296877 9.36914,-4.6054687 z M -110.68329,11.31 h -0.21094 q -1.66992,0 -3.67382,-0.878906 -0.91407,-0.404297 -3.0586,-1.6523436 -1.51172,-0.8789062 -1.96875,-0.8789062 -0.43945,0 -0.43945,0.2988281 0,0.087891 3.11133,2.1269527 3.1289,2.039063 3.1289,2.707032 0,0.84375 -2.84765,1.951172 -3.28711,1.283203 -7.13672,1.283203 -4.07813,0 -7.36524,-1.582032 -4.18359,-2.021484 -4.18359,-5.677734 0,-2.4082031 2.10938,-3.9199218 1.89843,-1.3710938 4.39453,-1.3710938 1.6875,0 3.65625,0.5097656 l 1.19531,2.1972657 q -2.93555,-2.0039063 -5.29102,-2.0039063 -1.72265,0 -2.90039,0.9316406 -1.2832,1.0019532 -1.2832,2.6894532 0,3.5156248 4.32422,5.3085938 3.25195,1.353516 7.27734,1.353516 3.90235,0 6.60938,-1.142579 -1.14258,-1.037109 -4.00782,-2.917968 -2.14453,-1.4062503 -2.14453,-1.8808597 0,-0.6328125 0.82618,-1.0371094 0.68554,-0.3515625 1.38867,-0.3515625 0.96679,0 3.79687,0.9667969 2.84766,0.9667969 4.48242,0.9667969 h 0.21094 z m -33.97851,-16.9453121 -7.13672,3.5507813 q 2.91797,1.35351559 4.97461,3.9550781 1.89843,2.390625 1.89843,4.4472656 0,3.0585938 -4.93945,4.3769531 -2.30273,0.615234 -4.23633,0.615234 h -0.21093 V 9.3060942 h 0.21093 q 1.84571,0 4.58789,-0.5097657 3.65625,-0.703125 3.65625,-1.7402343 0,-0.984375 -1.72265,-3.2519532 -2.42578,-3.19921871 -6.46875,-4.69335933 l 0.0176,-1.79296877 9.36914,-4.6054687 z M -153.89032,11.31 h -0.21094 q -2.23242,0 -3.23437,-1.7578121 -0.22852,2.7773441 -0.70313,3.6386721 -0.58008,1.054687 -3.19922,2.05664 -3.1289,1.195313 -6.97851,1.195313 -3.67383,0 -6.64453,-1.546875 -3.67383,-1.916016 -3.67383,-5.2734376 0,-2.4082031 2.10937,-3.9199219 1.89844,-1.3710937 4.39454,-1.3710937 1.6875,0 3.65625,0.5097656 l 1.19531,2.1972656 q -2.93555,-2.0039062 -5.29102,-2.0039062 -1.72265,0 -2.90039,0.9316406 -1.2832,1.0019531 -1.2832,2.6894531 0,3.4804685 3.90234,4.9921875 2.72461,1.054688 6.83789,1.054688 4.32422,0 7.41797,-1.792969 0.0176,-0.685547 0.0176,-1.371094 0,-4.8164062 -0.98438,-8.1738281 l 1.54688,-1.6523437 q 0.24609,0.7207031 0.63281,3.3574218 0.35156,2.390625 0.59766,2.9179688 0.61523,1.3183594 2.58398,1.3183594 h 0.21094 z m -11.03906,-13.2011715 q 0,1.30078129 -1.28321,1.30078129 -0.54492,0 -0.93164,-0.36914062 -0.36914,-0.38671877 -0.36914,-0.93164067 0,-1.2832031 1.30078,-1.2832031 0.52735,0 0.89649,0.3867188 0.38672,0.3691406 0.38672,0.8964843 z"
   id="text2"
   style="font-size:36px;direction:rtl;white-space:pre;fill:#2f3280;stroke:#ffffff;stroke-opacity:0"
   aria-label="با چین‌ورس زبان چینی رو زندگی کن" />
</g>
</svg>
